<?xml version="1.0" encoding="utf-8"?>
<!-- Generator: Adobe Illustrator 25.2.0, SVG Export Plug-In . SVG Version: 6.00 Build 0)  -->
<svg version="1.1" id="Layer_1" xmlns="http://www.w3.org/2000/svg" xmlns:xlink="http://www.w3.org/1999/xlink" x="0px" y="0px"
	 viewBox="0 0 21.6 21.6" style="enable-background:new 0 0 21.6 21.6;" xml:space="preserve">
<style type="text/css">
	.st0{fill:#FBBC2A;}
	.st1{fill:#FFFFFF;}
</style>
<g>
	<circle class="st0" cx="10.8" cy="10.8" r="10"/>
	<g>
		<path class="st1" d="M9.2,10.4l-0.3,6.3c0.7,0.1,1.4,0.2,2.1,0.2h1.2c0.2,0,0.1,0-0.1,0c0.6,0,0.9-0.1,1-0.1v-4.7
			c0-0.7-0.1-1.7-0.2-3.1c-0.1-1.4-0.2-2.4-0.2-3.1c0-0.6-0.2-0.9-0.7-0.9c-0.2,0-0.4,0-0.7,0C9.5,5.1,8.6,5.2,8.8,5.2
			c-0.1,0-0.3,0.3-0.6,0.9c-0.3,0.6-0.5,1-0.6,1.1C7.3,7.6,7.2,7.9,7,8.1l0,0.4C7,9,7,9.4,6.9,9.6c0,0.4-0.1,0.6-0.1,0.7l0.4,0.3
			C8.1,10.5,8.7,10.5,9.2,10.4z"/>
		<path d="M6.7,10.6l0.6,0.5l1-0.1l-0.2,5.6c0,0,0.1,0,0.1,0l0.6,0.6c0.9,0.1,1.7,0.2,2.4,0.2h1.1h0c0.6,0,1-0.1,1.2-0.2l0.1-0.3
			v-4.7c0-0.7-0.1-1.7-0.2-3.1S13.2,6.7,13.2,6c0-0.4-0.1-0.7-0.3-0.9l-0.4-0.4c-0.2-0.3-0.5-0.5-0.9-0.5c-0.3,0-0.7,0-1.3,0L9,4.3
			l-0.7,0C8,4.4,7.7,4.8,7.4,5.4L7.2,5.9C7.1,6.1,6.8,6.5,6.5,7.1C6.4,7.2,6.3,7.4,6.2,7.6l0,0.4c0,0.1,0,0.3,0,0.6L6.1,9.4
			c0,0.1,0,0.3,0,0.6l0.3,0.2L6.7,10.6z M6.5,9.1c0-0.2,0-0.5,0.1-1.1l0-0.4c0.1-0.2,0.3-0.5,0.5-0.9c0.1-0.1,0.3-0.5,0.6-1.1
			C8,5,8.2,4.7,8.4,4.7c-0.2,0,0.7,0,2.6-0.1c0.3,0,0.5,0,0.7,0c0.5,0,0.7,0.3,0.7,0.9c0,0.7,0.1,1.7,0.2,3.1
			c0.1,1.4,0.2,2.4,0.2,3.1v4.7c-0.1,0.1-0.5,0.1-1,0.1c0.2,0,0.3,0,0.1,0h-1.2c-0.7,0-1.4-0.1-2.1-0.2l0.3-6.3
			c-0.5,0-1.1,0.1-1.9,0.2L6.4,9.8C6.5,9.7,6.5,9.5,6.5,9.1z"/>
	</g>
</g>
</svg>
