<?xml version="1.0" encoding="utf-8"?>
<!-- Generator: Adobe Illustrator 25.2.0, SVG Export Plug-In . SVG Version: 6.00 Build 0)  -->
<svg version="1.1" id="Layer_1" xmlns="http://www.w3.org/2000/svg" xmlns:xlink="http://www.w3.org/1999/xlink" x="0px" y="0px"
	 viewBox="0 0 21.6 21.6" style="enable-background:new 0 0 21.6 21.6;" xml:space="preserve">
<style type="text/css">
	.st0{fill:#FBBC2A;}
	.st1{fill:#FFFFFF;}
</style>
<g>
	<circle class="st0" cx="10.8" cy="10.8" r="10"/>
	<path class="st1" d="M7.9,9.5c0.3,0,0.7,0,1.2-0.1c0.1-0.6,0.3-1,0.4-1.2c0.2-0.4,0.6-0.6,1-0.6c0.3,0,0.6,0.1,0.8,0.3
		s0.3,0.5,0.3,0.8c0,0.7-0.4,1.2-1.2,1.6c-1.2,0.6-1.9,1-2.3,1.4C7.3,12.6,6.9,14,6.9,16l0.3,0.8c1.1,0,2.7-0.2,4.9-0.6
		c2-0.4,3-0.6,3-0.7c0-0.3-0.1-0.8-0.3-1.6c-0.2-0.7-0.3-1-0.4-1c-0.3,0-0.5,0-0.7,0L12.3,13c-0.5,0-1,0.1-1.4,0.1
		c0.6-0.5,1.1-0.9,1.6-1.3c0.7-0.6,1.3-1,1.6-1.4c0.5-0.6,0.7-1.2,0.7-1.8c0-1.4-0.4-2.4-1.2-3c-0.7-0.5-1.8-0.8-3.2-0.8
		c-1,0-1.9,0.4-2.6,1.3C7,7,6.7,7.9,6.7,8.9l0.2,0.6C7.3,9.5,7.7,9.5,7.9,9.5z"/>
	<path d="M10.8,10.8L10.8,10.8L10.8,10.8C10.8,10.8,10.8,10.8,10.8,10.8z"/>
	<path d="M6.3,9.5C6.3,9.5,6.3,9.5,6.3,9.5l0.6,0.6l0.4,0c0.1,0,0.3,0,0.6,0c0,0,0.1,0,0.1,0h0.1c0.3,0,0.6,0,1.1-0.1
		c-0.8,0.4-1.4,0.8-1.7,1.1c-0.9,1-1.3,2.5-1.3,4.6l0.4,1.1h0.1l0.6,0.6c1.3,0,3-0.2,5.2-0.7c2.2-0.4,3.2-0.8,3.2-1
		c0-0.4-0.1-0.9-0.3-1.7c-0.2-0.6-0.4-1-0.5-1.2l-0.4-0.4c-0.1-0.2-0.2-0.3-0.3-0.3c-0.2,0-0.6,0-1,0c0.4-0.4,0.7-0.6,0.8-0.6
		c0.3-0.2,0.5-0.5,0.7-0.7h0c0.5-0.6,0.8-1.3,0.8-2c0-1.3-0.3-2.2-1-2.9l0,0l0,0c0,0,0,0,0,0l0,0l-0.2-0.3c-0.1-0.2-0.4-0.4-0.7-0.6
		c-0.8-0.6-1.9-0.9-3.4-0.9c-1.1,0-2.1,0.5-2.9,1.4C6.3,6.5,6,7.5,6,8.7L6.3,9.5L6.3,9.5z M7.4,5.8C8.1,5,9,4.5,10,4.5
		c1.4,0,2.5,0.3,3.2,0.8c0.8,0.6,1.2,1.6,1.2,3c0,0.7-0.2,1.3-0.7,1.8c-0.3,0.4-0.9,0.8-1.6,1.4c-0.5,0.3-1,0.8-1.6,1.3
		c0.4,0,0.9,0,1.4-0.1l1.4-0.1c0.2,0,0.5,0,0.7,0c0,0,0.2,0.3,0.4,1c0.2,0.7,0.3,1.3,0.3,1.6c0,0.1-1,0.3-3,0.7
		c-2.2,0.4-3.8,0.6-4.9,0.6l-0.3-0.8c0-2,0.4-3.4,1.2-4.3c0.3-0.4,1.1-0.8,2.3-1.4c0.8-0.4,1.2-0.9,1.2-1.6c0-0.3-0.1-0.5-0.3-0.8
		s-0.5-0.3-0.8-0.3c-0.5,0-0.8,0.2-1,0.6C8.9,8.1,8.8,8.5,8.7,9.1C8.2,9.2,7.8,9.2,7.5,9.2c-0.2,0-0.5,0-1,0L6.3,8.6
		C6.3,7.6,6.7,6.7,7.4,5.8z M9.6,9.9c0.1-0.6,0.2-1,0.3-1.2c0.2-0.3,0.4-0.4,0.8-0.4c0,0,0.1,0,0.2,0c0,0,0,0,0,0v0.1
		C10.9,9,10.5,9.5,9.6,9.9z"/>
</g>
</svg>
