<?xml version="1.0" encoding="utf-8"?>
<!-- Generator: Adobe Illustrator 25.2.0, SVG Export Plug-In . SVG Version: 6.00 Build 0)  -->
<svg version="1.1" id="Layer_1" xmlns="http://www.w3.org/2000/svg" xmlns:xlink="http://www.w3.org/1999/xlink" x="0px" y="0px"
	 viewBox="0 0 21.6 21.6" style="enable-background:new 0 0 21.6 21.6;" xml:space="preserve">
<style type="text/css">
	.st0{fill:#FBBC2A;}
	.st1{fill:#FFFFFF;}
</style>
<g>
	<circle class="st0" cx="10.8" cy="10.8" r="10"/>
	<path class="st1" d="M7.9,16.4c0.8,0.5,1.5,0.8,2,0.8c1.2,0,2.2-0.3,3.1-1c1-0.7,1.4-1.7,1.4-2.9c0-0.9-0.2-1.6-0.7-2.2
		c-0.4-0.5-1-0.9-1.9-1.4c0.8-1.1,1.3-2,1.6-2.7c-0.3-1-0.5-1.6-0.6-1.7c-0.5,0-1,0.1-1.5,0.1h-0.9c0,0-0.1,0-0.1,0H9.9
		c-1,0-1.8,0.1-2.4,0.2C7.4,5.7,7.4,6.3,7.4,7.1v0.4c0,0.2,0,0.3,0,0.5c0.2-0.1,1.2-0.2,3-0.3c-0.5,0.6-1,1.3-1.7,2
		c0,1-0.1,1.5-0.1,1.5l0.1,0.3c0.6,0,1,0,1.2,0c1.1,0,1.7,0.5,1.7,1.4c0,0.3-0.2,0.5-0.5,0.7c-0.3,0.2-0.6,0.3-0.9,0.3
		c-0.8,0-1.4-0.2-2.1-0.7c-1.1,0.8-1.6,1.3-1.6,1.5C6.6,15.3,7.1,15.8,7.9,16.4z"/>
	<polygon class="st1" points="13.9,6 13.9,6 13.9,6 	"/>
	<path d="M7,15.9l0.2,0.2c0.2,0.2,0.5,0.4,0.9,0.7c0.9,0.6,1.6,0.9,2.2,0.9c1.3,0,2.4-0.4,3.3-1.1c1-0.8,1.5-1.8,1.5-3.1
		c0-1.2-0.4-2.1-1.1-2.7l-0.2-0.2c0,0,0-0.1-0.1-0.1c-0.2-0.3-0.6-0.6-1-0.9c0.6-0.9,1-1.7,1.4-2.4c0,0,0-0.1-0.1-0.3L14,6.5L13.9,6
		l0,0c-0.1-0.5-0.3-0.8-0.5-1L13,4.6c0,0-0.1-0.1-0.3-0.3c-0.5,0-1,0.1-1.6,0.1h-0.9c0,0-0.1,0-0.1,0H9.6c-1,0-1.9,0.1-2.7,0.3
		c-0.1,0.4-0.2,1-0.2,1.9v0.3c0,0,0,0.1,0,0.4l0,0.4V8h0c0,0,0,0,0,0l0.6,0.6c0.2-0.1,0.6-0.2,1.4-0.3L8.4,8.8c0,0-0.1,0.2-0.3,0.4
		L8,10.8l0.3,0.6L8.8,12h0.4h0.8c0,0,0.1,0,0.3,0c0.3,0,0.5,0,0.7,0.1c0,0.1,0,0.2,0,0.3c0,0.1-0.1,0.3-0.3,0.4v0
		c-0.3,0.2-0.5,0.3-0.7,0.3c-0.7,0-1.4-0.3-2.1-0.8c-1.3,1-2,1.6-2,2C6,14.8,6.3,15.3,7,15.9z M13.9,6L13.9,6L13.9,6L13.9,6z
		 M8,12.8c0.6,0.5,1.3,0.7,2.1,0.7c0.3,0,0.6-0.1,0.9-0.3c0.3-0.2,0.5-0.5,0.5-0.7c0-0.9-0.6-1.3-1.7-1.4c-0.2,0-0.6,0-1.2,0
		l-0.1-0.3c0,0,0,0,0,0l0,0c0-0.1,0-0.6,0.1-1.5c0.6-0.8,1.2-1.4,1.7-2c-1.8,0.1-2.7,0.2-3,0.3c0-0.2,0-0.3,0-0.5V6.6
		c0-0.8,0-1.4,0.1-1.6c0.6-0.2,1.4-0.2,2.4-0.2h0.4c0.1,0,0.1,0,0.1,0h0.9c0.5,0,0.9,0,1.5-0.1c0.2,0.2,0.4,0.7,0.6,1.7
		c-0.3,0.7-0.9,1.6-1.6,2.7c0.9,0.5,1.5,1,1.9,1.4c0.5,0.6,0.7,1.3,0.7,2.2c0,1.2-0.5,2.1-1.4,2.9c-0.9,0.7-1.9,1-3.1,1
		c-0.5,0-1.2-0.3-2-0.8c-0.9-0.6-1.3-1.1-1.3-1.6C6.3,14.1,6.9,13.6,8,12.8z"/>
	<path d="M8.4,10.8L8.4,10.8C8.4,10.8,8.4,10.8,8.4,10.8z"/>
</g>
</svg>
