<?xml version="1.0" encoding="utf-8"?>
<!-- Generator: Adobe Illustrator 25.2.0, SVG Export Plug-In . SVG Version: 6.00 Build 0)  -->
<svg version="1.1" id="Layer_1" xmlns="http://www.w3.org/2000/svg" xmlns:xlink="http://www.w3.org/1999/xlink" x="0px" y="0px"
	 viewBox="0 0 21.6 21.6" style="enable-background:new 0 0 21.6 21.6;" xml:space="preserve">
<style type="text/css">
	.st0{fill:#FBBC2A;}
	.st1{fill:#FFFFFF;}
</style>
<g>
	<circle class="st0" cx="10.8" cy="10.8" r="10"/>
	<path class="st1" d="M13.3,9.6c-0.3,0-0.5,0-0.6,0c-0.1-0.4-0.1-0.9-0.1-1.5V7.8c0-0.1,0-0.3,0-0.6c0-0.3,0-0.4,0-0.6
		c0-0.7-0.1-1.2-0.3-1.5c-0.1,0-0.5,0.1-1.4,0.2c-0.2,0-0.4,0-0.7,0.1C9.9,5.5,9.7,5.6,9.5,5.6c0,0,0,0.4,0.1,1.2
		c0.1,0.9,0.1,1.5,0.1,1.9c0,0.1-0.1,0.4-0.2,0.9L8.9,9.5C8.6,9.4,8.3,9.3,8,9.3L8.4,6C7.3,6.1,6.6,6.2,6.3,6.4
		c-0.2,0.2-0.5,1-0.7,2.5l-0.5,2.9c0.2,0.1,0.5,0.2,1.1,0.3c0.5,0.1,0.9,0.1,1.2,0.1h1.8c0.1,0.1,0.2,0.5,0.2,1.1l0,0.4
		c0.1,1.2,0.1,1.9,0.1,2.2C9.7,16.6,9.8,17,10,17c0.4,0,0.9-0.1,1.6-0.4c0.7-0.2,1.3-0.4,1.6-0.4l0.1-0.4L13,12.6l0.1-0.4
		c0.4,0,0.7-0.1,1-0.1c0.5-0.1,0.8-0.2,0.8-0.4c0-0.3-0.1-1-0.3-1.9C13.8,9.7,13.4,9.6,13.3,9.6z"/>
	<path d="M14.6,9l-1.3-0.2c0-0.1,0-0.2,0-0.3c0-0.1,0-0.2,0-0.3V7.9c0-0.1,0-0.3,0-0.5c0-0.2,0-0.4,0-0.5V6.7c0-0.8-0.1-1.4-0.4-1.9
		l-0.5-0.5c0,0,0-0.1-0.1-0.1h-0.3c-0.1,0-0.4,0-0.7,0.1l-0.1,0v0c-0.1,0-0.3,0.1-0.5,0.1c-0.2,0-0.5,0-0.9,0.1
		C9.4,4.7,9.1,4.7,8.9,4.8v0.4c0,0.1,0,0.2,0,0.5L8.5,5.2v0c0,0,0,0,0,0C7.2,5.2,6.3,5.4,5.9,5.6v0C5.6,5.7,5.3,6.7,5,8.3
		c-0.1,0.5-0.2,1-0.3,1.6l-0.1,0.4c0,0.1-0.1,0.4-0.1,0.7c0,0.1,0,0.2,0,0.3c0,0,0.1,0.1,0.1,0.1L5.1,12c0.3,0.2,0.8,0.4,1.4,0.5
		c0.5,0.1,1,0.1,1.3,0.1h1c0,0.1,0,0.3,0,0.6L9,15.4c0,0.8,0.2,1.3,0.6,1.4l0.5,0.5c0.1,0.1,0.2,0.1,0.3,0.1c0.4,0,1-0.1,1.7-0.4
		l0,0c0.7-0.2,1.3-0.4,1.8-0.4l0.1-0.7l-0.3-3.2l0-0.1c0.2,0,0.5-0.1,0.8-0.1c0.7-0.1,1-0.4,1-0.7c0-0.3-0.1-1.1-0.4-2.2L14.6,9z
		 M9,6.4c0.1,0.9,0.1,1.5,0.1,1.8c0,0,0,0.2-0.1,0.5l-0.3,0L9,6.4z M13.8,11.6c-0.3,0.1-0.7,0.1-1,0.1l-0.1,0.4l0.3,3.2L13,15.7
		c-0.3,0-0.9,0.2-1.6,0.4c-0.7,0.2-1.2,0.4-1.6,0.4c-0.2,0-0.4-0.4-0.4-1.1c0-0.3-0.1-1-0.1-2.2l0-0.4c0-0.6-0.1-0.9-0.2-1.1H7.2
		c-0.3,0-0.7,0-1.2-0.1c-0.6-0.1-1-0.2-1.1-0.3l0.5-2.9C5.6,6.9,5.8,6,6.1,5.9C6.3,5.7,7,5.6,8.1,5.5L7.8,8.7C8,8.8,8.3,8.9,8.6,8.9
		l0.7,0.1c0.1-0.5,0.2-0.8,0.2-0.9c0-0.4,0-1-0.1-1.9C9.3,5.5,9.3,5.1,9.3,5.1C9.4,5.1,9.7,5,10,4.9c0.3-0.1,0.6-0.1,0.7-0.1
		c0.9-0.2,1.3-0.2,1.4-0.2c0.2,0.3,0.3,0.8,0.3,1.5c0,0.1,0,0.3,0,0.6c0,0.3,0,0.4,0,0.6v0.3c0,0.6,0,1.1,0.1,1.5c0,0,0.2,0,0.6,0
		c0.1,0,0.5,0,1.2,0.1c0.2,1,0.3,1.6,0.3,1.9C14.6,11.4,14.4,11.5,13.8,11.6z"/>
</g>
</svg>
