<?xml version="1.0" encoding="utf-8"?>
<!-- Generator: Adobe Illustrator 25.2.0, SVG Export Plug-In . SVG Version: 6.00 Build 0)  -->
<svg version="1.1" id="Layer_1" xmlns="http://www.w3.org/2000/svg" xmlns:xlink="http://www.w3.org/1999/xlink" x="0px" y="0px"
	 viewBox="0 0 310.6 245.6" style="enable-background:new 0 0 310.6 245.6;" xml:space="preserve">
<style type="text/css">
	.st0{clip-path:url(#SVGID_2_);}
	.st1{fill:#64869E;}
	.st2{fill:#FFFFFF;}
	.st3{fill:#91CDE1;}
	.st4{fill:#5C3616;}
	.st5{fill:#E7AF22;}
	.st6{fill:#1F1612;}
	.st7{fill:url(#XMLID_3_);}
	.st8{fill:url(#XMLID_4_);}
	.st9{fill:url(#XMLID_5_);}
	.st10{fill:url(#XMLID_6_);}
	.st11{fill:url(#XMLID_7_);}
	.st12{fill:url(#XMLID_8_);}
	.st13{fill:url(#XMLID_9_);}
	.st14{fill:url(#XMLID_10_);}
	.st15{fill:#201713;}
</style>
<g>
	<defs>
		<rect id="SVGID_1_" width="310.6" height="245.6"/>
	</defs>
	<clipPath id="SVGID_2_">
		<use xlink:href="#SVGID_1_"  style="overflow:visible;"/>
	</clipPath>
	<g id="XMLID_13_" class="st0">
		<g id="XMLID_173_">
			<rect id="XMLID_207_" x="57" y="201.4" class="st1" width="58.9" height="34.1"/>
			<rect id="XMLID_206_" x="130" y="201.4" class="st1" width="58.9" height="34.1"/>
			<rect id="XMLID_204_" x="112" y="191.3" class="st1" width="24.7" height="44.2"/>
			<rect id="XMLID_203_" x="114.2" y="184" class="st1" width="20.2" height="8.8"/>
			<rect id="XMLID_201_" x="114.9" y="148.8" class="st1" width="19" height="36.1"/>
			<rect id="XMLID_200_" x="113.8" y="144.5" class="st1" width="20.7" height="5.1"/>
			<path id="XMLID_198_" class="st2" d="M126.8,159.7c0,1.4-1.2,2.6-2.6,2.6c-1.4,0-2.6-1.2-2.6-2.6c0-1.5,1.2-2.6,2.6-2.6
				C125.6,157.1,126.8,158.3,126.8,159.7z"/>
			<polyline id="XMLID_197_" class="st1" points="122,145.8 124,137 126.4,145.8 122.2,145.8 			"/>
			<rect id="XMLID_195_" x="123.7" y="128.7" class="st1" width="0.5" height="9.1"/>
			<path id="XMLID_192_" class="st1" d="M124.1,128.9c0,0,1.2,0,2.8,1.7c1.6,1.7,3.2,2.2,3.2,2.2v4.7c0,0-2.7-1.5-4.4-3.7
				c-1.7-2.2-1.7-1.2-1.7-1.2L124.1,128.9z"/>
		</g>
		<g id="XMLID_323_">
			<path id="XMLID_328_" class="st3" d="M252.5,232.5l55.1-29.5c0-0.1,0-0.2,0-0.3l-40,11.4l-26,7.4v0l0,0l-16.5,4.7l-69.4,19.7h0h0
				l-69.4-19.7l0.1,0.2l-16.5-4.7c0-0.1,0-0.1-0.1-0.2l-66-18.7c0,0,0,0.1,0,0.1l71.6,20.4l80.4,59.6L252.5,232.5z"/>
			<path id="XMLID_324_" class="st3" d="M29.5,335c-0.1,0,0.6,1.5,1.1,2.4c0.1,0.2,0.2,0.3,0.3,0.5l1.1,0.8h123.7v0h123.7
				c0,0,0,0,0-0.1c0.1-0.1,0.2-0.3,0.3-0.5c0.1-0.2,0.3-0.5,0.4-0.7c0.3-0.5,3.2-6.7,6.2-13.2H24.4C26.3,328.3,28.1,332.2,29.5,335z
				"/>
		</g>
		<path id="XMLID_322_" class="st4" d="M3,202.6c0.5-4.7,1.2-9.4,2-14c6.8-38.9,23.4-73.3,46.5-99.1c-3.8-1.1-7.4-3.1-10.4-6.1
			c-9.4-9.4-9.4-24.7,0-34.1c4.7-4.7,10.9-7,17-7c6.2,0,12.4,2.3,17,7c3.8,3.8,6.1,8.6,6.8,13.6c0,0,0.4-0.4,1.1-1.1
			c2.1-2.6,4.4-5.2,6.8-7.9c2.4-2.6,5-5.3,7.8-8c21.3-20.4,53-40.6,97.6-46c0,0-10.1,7.2-19.7,17.3c19.3-2.8,41-2.6,64.8,3.2
			c0,0-26,6.9-41.3,20.2c-1,0.9-2,1.8-3,2.8c-0.9,0.9-1.7,1.9-2.5,2.9c12.1,3.8,23.6,9.4,34.3,16.5c0.7-5,3-9.8,6.8-13.6
			c4.7-4.7,10.9-7,17-7c6.2,0,12.4,2.3,17,7c9.4,9.4,9.4,24.7,0,34.1c-3,3-6.6,5-10.4,6.1c25.9,28.9,43.6,68.6,48.5,113.1l-152,43.2
			L3,202.6z"/>
		<path id="XMLID_321_" class="st2" d="M194.4,202.7c0,0-0.1,0-0.1,0c-0.7,0-1.3,0-2-0.1C193,202.7,193.7,202.7,194.4,202.7
			C194.4,202.7,194.4,202.7,194.4,202.7"/>
		<path id="XMLID_320_" class="st2" d="M117.8,202.6c-0.7,0-1.3,0.1-2,0.1c-0.1,0-0.1,0-0.2,0c0,0,0,0,0,0
			C116.4,202.7,117.1,202.7,117.8,202.6"/>
		<path id="XMLID_315_" class="st5" d="M58.2,54.9c-6.2,0-11.3,5.1-11.3,11.3c0,6.2,5.1,11.3,11.3,11.3c6.2,0,11.3-5.1,11.3-11.3
			C69.5,60,64.4,54.9,58.2,54.9"/>
		<path id="XMLID_314_" class="st5" d="M263.2,66.2c0-6.2-5.1-11.3-11.3-11.3c-6.3,0-11.3,5.1-11.3,11.3c0,6.2,5.1,11.3,11.3,11.3
			C258.1,77.5,263.2,72.5,263.2,66.2"/>
		<path id="XMLID_313_" class="st2" d="M116.6,210.9c0.8,5.3,2.1,10.3,3.9,15c1.3,3.7,4.5,6,8,6h12.9c4.8,0,8.6-4.4,8.6-9.8v-23.4
			c-2.2,1.8-4.6,3.4-7.2,4.9C134.9,208.1,125.9,210.6,116.6,210.9"/>
		<path id="XMLID_312_" class="st2" d="M160.1,198.8v23.4c0,5.4,3.9,9.8,8.6,9.8h12.9c3.5,0,6.6-2.4,8-6c1.7-4.7,3-9.8,3.9-15
			c-9.3-0.3-18.4-2.8-26.2-7.3C164.7,202.2,162.3,200.6,160.1,198.8"/>
		<path id="XMLID_311_" class="st6" d="M158,138c-1,0-2-0.1-3-0.1c-1,0-2,0-3,0.1c-13,0.5-25.2,4.4-25.2,11.6
			c0,5.4,1.5,10.5,4.2,14.8c5,8,13.8,13.3,23.9,13.3c10.1,0,19-5.3,23.9-13.3c2.7-4.3,4.2-9.4,4.2-14.8
			C183.1,142.3,171,138.5,158,138"/>
		<path id="XMLID_308_" class="st5" d="M237.8,164.3c0-4-1.1-6.9-3-8.9c-8-8.5-30.6-2.6-46.3-14.1c-1.7-1.3-3.4-2.4-4.9-3.3
			c-1.8-1.3-4-2.5-6.9-3.6c-4.6-1.7-10.5-2.8-16.8-3.2c-1.6-0.1-3.2-0.2-4.9-0.2c-1.7,0-3.3,0.1-4.9,0.2c-6.3,0.4-12.1,1.5-16.8,3.2
			c-2.8,1-5.1,2.3-6.9,3.6c-1.6,1-3.2,2-4.9,3.3c-15.7,11.5-38.2,5.6-46.3,14.1c-1.9,2-3,4.8-3,8.9c0,4.9,1.1,9.7,3,14
			c6.3,14.2,22,24.3,40.4,24.4c0.1,0,0.1,0,0.1,0c0.7,0,1.3,0,2-0.1c11.9-0.5,29.8-11.8,29.8-11.8s1-0.9,2.4-1.8
			c1.5-1,3.5-2.1,5-2.1c1.5,0,3.5,1.1,5,2.1c1.4,0.9,2.4,1.8,2.4,1.8s17.8,11.3,29.8,11.8c0.7,0,1.3,0.1,2,0.1c0,0,0.1,0,0.1,0
			c18.4-0.1,34.1-10.2,40.4-24.4C236.7,174,237.8,169.3,237.8,164.3 M183.1,149.5c0,5.4-1.5,10.5-4.2,14.8c-5,8-13.8,13.3-23.9,13.3
			c-10.1,0-19-5.3-23.9-13.3c-2.7-4.3-4.2-9.4-4.2-14.8c0-7.2,12.2-11.1,25.2-11.6c1,0,2-0.1,3-0.1c1,0,2,0,3,0.1
			C171,138.5,183.1,142.3,183.1,149.5"/>
		<path id="XMLID_15_" class="st3" d="M295,304.5L295,304.5c3.4-12.1,14-53.9,14-76.7c0-8.4-0.5-16.7-1.4-24.9l-66.1,18.4
			l-85.9,61.3l-74.2-57.8L3.6,202.8c0,0,0,0,0,0.1L3,202.6c-0.8,7-1.2,14.2-1.3,21.5l0.6-2l0,0l-0.6,2c0,1.2-0.1,2.5-0.1,3.7
			c0,22.3,10,62.6,13.7,75.7c0.2,0.6,0.2,1,0.2,1s0,0.1,0.1,0.3c0.5,1.7,0.8,2.7,0.9,3c0.7,1.3,1.4,2.8,2.2,4.2
			c1.6,3.6,3.6,8,5.5,12.2h261.8c2.1-4.6,4.2-9.3,5.5-12.2c0.8-1.4,1.5-2.7,2.1-3.9c0-0.1,0.1-0.2,0.1-0.3c0.1-0.3,0.5-1.3,0.9-3
			C295,304.6,295,304.5,295,304.5l-1.1,0v0L295,304.5z"/>
		<g id="XMLID_299_">
			<linearGradient id="XMLID_3_" gradientUnits="userSpaceOnUse" x1="31.9594" y1="361.5172" x2="279.2704" y2="361.5172">
				<stop  offset="3.763440e-02" style="stop-color:#505B5D"/>
				<stop  offset="1" style="stop-color:#233032"/>
			</linearGradient>
			<path id="XMLID_304_" class="st7" d="M155.6,364.2L155.6,364.2L155.6,364.2L155.6,364.2L155.6,364.2c16.6,0,31.3,7.9,40.7,20.2
				H240c15.2-12.3,28.5-27.8,39.3-45.7H155.6H32c10.8,17.9,24.1,33.4,39.3,45.7h43.7C124.3,372.1,139,364.2,155.6,364.2z"/>
			<linearGradient id="XMLID_4_" gradientUnits="userSpaceOnUse" x1="31.9594" y1="389.9352" x2="279.2704" y2="389.9352">
				<stop  offset="3.763440e-02" style="stop-color:#505B5D"/>
				<stop  offset="1" style="stop-color:#233032"/>
			</linearGradient>
			<path id="XMLID_303_" class="st8" d="M94.2,395.5c7.6,0,15.2-3.6,20-10.2c0.2-0.3,0.5-0.6,0.7-1H71.2c3,2.4,6,4.7,9.2,6.9
				C84.6,394.1,89.4,395.5,94.2,395.5z"/>
			<linearGradient id="XMLID_5_" gradientUnits="userSpaceOnUse" x1="71.2217" y1="389.9352" x2="114.9281" y2="389.9352">
				<stop  offset="3.763440e-02" style="stop-color:#505B5D"/>
				<stop  offset="1" style="stop-color:#233032"/>
			</linearGradient>
			<path id="XMLID_302_" class="st9" d="M94.2,395.5c7.6,0,15.2-3.6,20-10.2c0.2-0.3,0.5-0.6,0.7-1H71.2c3,2.4,6,4.7,9.2,6.9
				C84.6,394.1,89.4,395.5,94.2,395.5z"/>
			<linearGradient id="XMLID_6_" gradientUnits="userSpaceOnUse" x1="31.9594" y1="389.9352" x2="279.2704" y2="389.9352">
				<stop  offset="3.763440e-02" style="stop-color:#505B5D"/>
				<stop  offset="1" style="stop-color:#233032"/>
			</linearGradient>
			<path id="XMLID_301_" class="st10" d="M197,385.3c4.8,6.6,12.3,10.2,20,10.2c4.8,0,9.6-1.4,13.8-4.3c3.1-2.2,6.2-4.5,9.2-6.9
				h-43.7C196.5,384.7,196.8,385,197,385.3z"/>
			<linearGradient id="XMLID_7_" gradientUnits="userSpaceOnUse" x1="196.3016" y1="389.9352" x2="240.008" y2="389.9352">
				<stop  offset="3.763440e-02" style="stop-color:#505B5D"/>
				<stop  offset="1" style="stop-color:#233032"/>
			</linearGradient>
			<path id="XMLID_300_" class="st11" d="M197,385.3c4.8,6.6,12.3,10.2,20,10.2c4.8,0,9.6-1.4,13.8-4.3c3.1-2.2,6.2-4.5,9.2-6.9
				h-43.7C196.5,384.7,196.8,385,197,385.3z"/>
		</g>
		<linearGradient id="XMLID_8_" gradientUnits="userSpaceOnUse" x1="148.733" y1="293.0434" x2="162.4967" y2="293.0434">
			<stop  offset="3.763440e-02" style="stop-color:#505B5D"/>
			<stop  offset="1" style="stop-color:#233032"/>
		</linearGradient>
		<circle id="XMLID_293_" class="st12" cx="155.6" cy="293" r="6.9"/>
		<linearGradient id="XMLID_9_" gradientUnits="userSpaceOnUse" x1="148.733" y1="312.3947" x2="162.4967" y2="312.3947">
			<stop  offset="3.763440e-02" style="stop-color:#505B5D"/>
			<stop  offset="1" style="stop-color:#233032"/>
		</linearGradient>
		<circle id="XMLID_292_" class="st13" cx="155.6" cy="312.4" r="6.9"/>
		<linearGradient id="XMLID_10_" gradientUnits="userSpaceOnUse" x1="148.733" y1="329.888" x2="162.4967" y2="329.888">
			<stop  offset="3.763440e-02" style="stop-color:#505B5D"/>
			<stop  offset="1" style="stop-color:#233032"/>
		</linearGradient>
		<circle id="XMLID_20_" class="st14" cx="155.6" cy="329.9" r="6.9"/>
		<path id="XMLID_2_" class="st4" d="M207.9,291.5c0,0,21,29.1,56.2,22.8c35.2-6.2,43.4-43.7,25.9-44.6
			C272.5,268.8,221.5,275.5,207.9,291.5z"/>
		<path id="XMLID_285_" class="st4" d="M100.1,299.5c0,0-24.5,26.2-58.7,15.5c-34.1-10.7-37.5-48.9-20-47.6
			C39,268.7,88.7,281.8,100.1,299.5z"/>
	</g>
</g>
<circle class="st15" cx="94.4" cy="114.2" r="22.4"/>
<circle class="st15" cx="207.3" cy="112.4" r="22.4"/>
<path class="st2" d="M127.2,114.2c0-15.3-12.6-27.9-27.9-27.9s-27.9,12.6-27.9,27.9s12.6,27.9,27.9,27.9c1.7,0.2,3.4,0,5-0.4
	c2.9-1,5.4-2.3,8-4.2c2.9-2.1,5.7-3.8,8.4-5.4C124.7,127.4,127.2,121,127.2,114.2z M88,124.3c-7.6,0-14-6.3-14-14
	c0-3.4,1.1-6.5,3.3-9c0,0.4-0.2,1-0.2,1.3c0,3.4,2.7,6.1,6.1,6.1c3.4,0,6.1-2.7,6.1-6.1c-0.2-2.9-2.1-5.2-4.8-5.9
	c1-0.2,1.9-0.4,3.1-0.4c7.6,0,13.8,6.1,14.3,14C102,118,95.7,124.3,88,124.3z"/>
<path class="st2" d="M211.2,86.1c-15.3,0-27.9,12.6-27.9,27.9c0,6.9,2.5,13.2,6.5,18c2.9,1.7,5.7,3.4,8.6,5.5c2.3,1.9,5.2,3.3,8,4.2
	c1.7,0.2,3.4,0.4,5,0.4c15.3,0,27.9-12.6,27.9-27.9C239.1,98.7,226.6,86.2,211.2,86.1z M199.7,124.3c-7.6,0-14-6.3-14-14
	c0-3.4,1.1-6.5,3.3-9c0,0.4-0.2,1-0.2,1.3c0,3.4,2.7,6.1,6.1,6.1c3.4,0,6.1-2.7,6.1-6.1c-0.2-2.9-2.1-5.2-4.8-5.9
	c1.1-0.4,2.1-0.6,3.4-0.4c7.6,0,14,6.3,14,14S207.3,124.3,199.7,124.3z"/>
</svg>
