<?xml version="1.0" encoding="utf-8"?>
<!-- Generator: Adobe Illustrator 25.2.0, SVG Export Plug-In . SVG Version: 6.00 Build 0)  -->
<svg version="1.1" id="Layer_1" xmlns="http://www.w3.org/2000/svg" xmlns:xlink="http://www.w3.org/1999/xlink" x="0px" y="0px"
	 viewBox="0 0 993.7 662.2" style="enable-background:new 0 0 993.7 662.2;" xml:space="preserve">
<style type="text/css">
	.st0{clip-path:url(#SVGID_2_);}
	.st1{clip-path:url(#SVGID_4_);}
	.st2{fill:#FFFFFF;}
	.st3{fill:#FABA29;}
	.st4{fill:#412514;stroke:#010101;stroke-width:5;stroke-miterlimit:10;}
	.st5{fill:#FFFFFF;stroke:#010101;stroke-width:5;stroke-miterlimit:10;}
	.st6{fill:#010101;}
	.st7{fill:none;stroke:#010101;stroke-width:5;stroke-miterlimit:10;}
	.st8{fill:#2A348E;stroke:#010101;stroke-width:5;stroke-miterlimit:10;}
	.st9{fill:#49A9DF;}
	.st10{fill:#010101;stroke:#E8F6FE;stroke-width:9;stroke-linecap:round;stroke-miterlimit:10;}
	.st11{fill:#49A9DF;stroke:#010101;stroke-width:5;stroke-miterlimit:10;}
</style>
<g>
	<defs>
		<rect id="SVGID_1_" width="993.7" height="662.2"/>
	</defs>
	<clipPath id="SVGID_2_">
		<use xlink:href="#SVGID_1_"  style="overflow:visible;"/>
	</clipPath>
	<g class="st0">
		<g>
			<defs>
				<rect id="SVGID_3_" x="199.6" y="63.2" width="572.8" height="598.7"/>
			</defs>
			<clipPath id="SVGID_4_">
				<use xlink:href="#SVGID_3_"  style="overflow:visible;"/>
			</clipPath>
			<g class="st1">
				<path class="st2" d="M560,324.5c3.7,2.7,7.7,4.6,12,6.1c2.3,0.4,4.7,0.6,7.1,0.6c22.6,0,41-18.4,41-41c0-22.7-18.4-41-41-41
					c-22.7,0-41,18.4-41,41c0,10,3.6,19.1,9.5,26.2C551.5,318.7,555.7,321.4,560,324.5z M563.4,277.1c-0.1,0.6-0.2,1.3-0.2,2
					c0,5,4.1,9.1,9.1,9.1c5,0,9.1-4.1,9.1-9.1c0-4.2-2.9-7.8-6.8-8.8c1.5-0.3,3-0.5,4.6-0.5c11.3,0,20.5,9.2,20.5,20.5
					c0,11.3-9.2,20.5-20.5,20.5c-11.3,0-20.5-9.2-20.5-20.5C558.6,285.2,560.4,280.6,563.4,277.1z"/>
				<path class="st2" d="M414.8,331.3c2.4,0,4.8-0.2,7.1-0.6c4.3-1.5,8.3-3.5,12-6.1c4.3-3.1,8.4-5.8,12.4-8
					c5.9-7.1,9.5-16.2,9.5-26.2c0-22.7-18.4-41-41-41c-22.6,0-41,18.4-41,41C373.8,312.9,392.1,331.3,414.8,331.3z M399.1,277.1
					c-0.1,0.6-0.2,1.3-0.2,2c0,5,4.1,9.1,9.1,9.1c5,0,9.1-4.1,9.1-9.1c0-4.2-2.9-7.8-6.8-8.8c1.5-0.3,3-0.5,4.6-0.5
					c11.3,0,20.5,9.2,20.5,20.5c0,11.3-9.2,20.5-20.5,20.5c-11.3,0-20.5-9.2-20.5-20.5C394.3,285.2,396.1,280.6,399.1,277.1z"/>
				<path class="st2" d="M723.1,595.5c-1.1,2.8-2.5,6-4.2,9.5c-2.1,4.1-4.4,8.7-7.6,13.1c-3.1,4.4-6.8,9-11.4,12.5
					c-2.2,1.8-4.7,3.3-7.3,4.6c-2.7,1.1-5.4,2-8.4,2.3c-5.9,0.8-12.5-0.3-19-2.6l-0.6-0.2l-0.3-0.1l-0.2-0.1l-0.1,0l-1-0.5l-2.7-1.2
					c-1-0.4-1.4-0.8-2-1.2c-0.6-0.4-1.2-0.8-1.8-1.1c-2.4-2-4.8-4.2-6.4-7c-3.5-5.5-5.5-12.4-6.3-19.6c-0.8-7.2-0.4-14.6,0.3-21.7
					c0.7-7.2,2-14.1,3.5-20.7c1.4-6.6,3.1-12.7,4.7-18.4c3.3-11.4,6.6-20.7,9-27.2c2.4-6.5,3.9-10.2,3.9-10.2s-2.2,3.4-5.6,9.4
					c-3.4,6.1-8,15-12.8,26.1c-4.6,11.1-9.6,24.4-12.6,39.5c-1.5,7.6-2.4,15.6-2.1,24c0.1,2.1,0.3,4.2,0.5,6.4
					c0.4,2.1,0.7,4.3,1.2,6.5l0.9,3.2l0.5,1.6l0.7,1.6l1.3,3.2c0.5,1,1.1,2,1.7,3.1c1.1,2.1,2.6,3.9,4,5.8c0.7,1,1.6,1.8,2.4,2.6
					l2.6,2.5l3.1,2.2c1,0.7,2.2,1.6,3,1.9l2.6,1.4l1.3,0.7l0.5,0.2l0.1,0l0.2,0.1l0.4,0.2l0.8,0.3c8,3.2,17,5.1,26,4
					c4.5-0.5,8.7-1.9,12.6-3.6c0.1,0,0.2-0.1,0.3-0.1c-21.1,36.9-48.7,67.8-80.9,90.1c-6.9,4.8-14.9,7.1-22.7,7.1
					c-12.2,0-24.3-5.6-32-16.3c-14.9-20.6-39.1-34-66.5-34c-27.3,0-51.6,13.4-66.5,34c-7.7,10.6-19.8,16.4-32.1,16.4
					c-7.7,0-15.4-2.2-22.2-6.9c-31.2-21.5-58.1-51-78.9-86.3c-0.8-1.4-1.6-2.7-2.4-4.1c0.1,0,0.2,0.1,0.3,0.1
					c3.9,1.7,8.2,3,12.6,3.6c8.9,1.1,18-0.8,26-4l0.8-0.3l0.4-0.2l0.2-0.1l0.1,0l0.5-0.2l1.3-0.7l2.6-1.4c0.8-0.3,2-1.2,3-1.9
					l3.1-2.2l2.6-2.5c0.8-0.8,1.7-1.6,2.4-2.6c1.5-1.9,3-3.7,4-5.8c0.6-1,1.2-2,1.7-3.1l1.3-3.2l0.6-1.6l0.5-1.6l0.9-3.2
					c0.5-2.2,0.8-4.3,1.2-6.5c0.2-2.1,0.4-4.3,0.5-6.4c0.2-8.4-0.6-16.5-2.1-24c-0.4-2.1-0.9-4.1-1.3-6.1
					c-3-12.6-7.3-23.8-11.3-33.4c-4.8-11.1-9.4-20-12.8-26.1c-3.4-6.1-4.1-5.8-1.7,0.8c2.4,6.5,5.7,15.9,9,27.2
					c1.5,5.3,3.1,11,4.4,17c0.1,0.5,0.2,0.9,0.3,1.4c1.5,6.6,2.8,13.5,3.5,20.7c0.7,7.2,1.1,14.5,0.3,21.7
					c-0.7,7.2-2.7,14.1-6.3,19.6c-1.7,2.8-4,5-6.4,7c-0.6,0.4-1.2,0.7-1.8,1.1c-0.7,0.4-1,0.8-2,1.2l-2.7,1.2l-1,0.5l-0.1,0
					l-0.2,0.1l-0.3,0.1l-0.6,0.2c-6.5,2.4-13.1,3.4-19,2.6c-3-0.3-13.5-5.1-15.7-6.9c-4.6-3.5-8.3-8.1-11.4-12.5
					c-3.1-4.5-5.5-9-7.6-13.1c-1.7-3.5-3.1-6.7-4.2-9.6c-12.8-36.4-19.9-76.5-19.9-118.7c0-21.6,1.9-42.6,5.4-62.9
					c10.9-62.3,37.5-117.6,74.6-159c-6.1-1.7-11.8-5-16.6-9.8c-15-15-15-39.6,0-54.7c7.5-7.5,17.4-11.3,27.3-11.3
					c9.9,0,19.8,3.8,27.3,11.3c6.1,6.1,9.7,13.8,10.9,21.8c0,0,0.6-0.6,1.7-1.7c3.4-4.1,7-8.3,11-12.6c3.9-4.2,8.1-8.5,12.5-12.8
					c34.2-32.8,85-65.2,156.6-73.8c0,0-16.2,11.5-31.5,27.8c30.9-4.6,65.8-4.1,104,5.1c0,0-41.8,11-66.3,32.4
					c-1.7,1.4-3.3,2.9-4.7,4.5c-1.4,1.5-2.8,3-4,4.6c19.4,6.2,37.8,15.1,55,26.5c1.1-8,4.8-15.7,10.9-21.8
					c7.5-7.5,17.4-11.3,27.3-11.3c9.9,0,19.8,3.8,27.3,11.3c15,15,15,39.6,0,54.7c-4.8,4.8-10.5,8-16.6,9.8
					c49.2,55,80,134.1,80,221.9C743,518.9,735.9,559.1,723.1,595.5z"/>
				<path class="st3" d="M341.5,199.3c-10,0-18.2,8.1-18.2,18.2c0,10,8.1,18.2,18.2,18.2c10,0,18.2-8.1,18.2-18.2
					C359.7,207.4,351.6,199.3,341.5,199.3z"/>
				<path class="st3" d="M652.3,199.3c-10,0-18.2,8.1-18.2,18.2c0,10,8.1,18.2,18.2,18.2c10,0,18.2-8.1,18.2-18.2
					C670.5,207.4,662.3,199.3,652.3,199.3z"/>
				<path class="st4" d="M663,254.8c6.1-1.7,11.8-5,16.6-9.8c15-15,15-39.6,0-54.7c-7.5-7.5-17.4-11.3-27.3-11.3
					c-9.9,0-19.8,3.8-27.3,11.3c-6.1,6.1-9.7,13.8-10.9,21.8c-17.2-11.4-35.7-20.4-55-26.5c1.2-1.6,2.6-3.1,4-4.6
					c1.5-1.5,3.1-3,4.7-4.5c24.6-21.4,66.3-32.4,66.3-32.4c-38.2-9.2-73.1-9.7-104-5.1c15.3-16.3,31.5-27.8,31.5-27.8
					c-71.5,8.6-122.4,41.1-156.6,73.8c-4.5,4.3-8.6,8.6-12.5,12.8c-3.9,4.3-7.6,8.5-11,12.6c-1.1,1.1-1.7,1.7-1.7,1.7
					c-1.1-8-4.8-15.7-10.9-21.8c-7.5-7.5-17.4-11.3-27.3-11.3c-9.9,0-19.8,3.8-27.3,11.3c-15,15-15,39.6,0,54.7
					c4.8,4.8,10.5,8,16.6,9.8c-37.1,41.5-63.7,96.7-74.6,159c-3.5,20.3-5.4,41.3-5.4,62.9c0,42.2,7.1,82.3,19.9,118.7
					c1.1,2.8,2.5,6,4.2,9.6c2.1,4.1,21.5,46.2,22.3,47.6c20.8,35.3,47.8,64.8,78.9,86.3c6.8,4.7,14.5,6.9,22.2,6.9
					c12.3,0,24.4-5.7,32.1-16.4c14.9-20.6,39.1-34,66.5-34c27.3,0,51.6,13.4,66.5,34c7.7,10.6,19.7,16.3,32,16.3
					c7.9,0,15.8-2.3,22.7-7.1c31.5-21.8,58.6-51.9,79.5-87.7l0,0l0-0.1c0.4-0.8,24.3-52.4,25.4-55.2c12.8-36.4,19.9-76.6,19.9-118.8
					C743,388.8,712.2,309.8,663,254.8z M652.3,199.3c10,0,18.2,8.1,18.2,18.2c0,10-8.1,18.2-18.2,18.2c-10,0-18.2-8.1-18.2-18.2
					C634.2,207.4,642.3,199.3,652.3,199.3z M341.5,235.6c-10,0-18.2-8.1-18.2-18.2c0-10,8.1-18.2,18.2-18.2c10,0,18.2,8.1,18.2,18.2
					C359.7,227.5,351.6,235.6,341.5,235.6z M560.1,436.4L560.1,436.4c-1.2,0-2.3,0-3.5-0.1c-19.2-0.8-49.4-20.4-51.6-21.9
					c-2.5-1.7-5.6-3.4-8.1-3.4c-2.5,0-5.6,1.8-8.1,3.4c-2.2,1.5-32.4,21.1-51.6,21.9c-1.1,0.1-2.3,0.1-3.5,0.1c0,0,0,0,0,0
					c-38.4-0.1-69.6-27.6-69.6-61.6c0-33.5,46.5-14.8,77.6-35.9c0.5-0.3,1-0.6,1.5-0.9c2.8-2,5.4-3.8,7.9-5.3c0.5-0.4,1-0.7,1.6-1.1
					c2.6-1.7,5.6-3.3,9.4-4.6c7.5-2.7,16.8-4.5,26.9-5.1c2.6-0.2,5.2-0.3,7.9-0.3c2.7,0,5.3,0.1,7.9,0.3c10.1,0.6,19.5,2.3,26.9,5.1
					c3.8,1.4,6.8,3,9.4,4.6c0.5,0.4,1.1,0.7,1.6,1.1c2.5,1.5,5.2,3.3,7.9,5.3c0.5,0.4,1,0.6,1.5,0.9c31.1,21.2,77.6,2.5,77.6,36
					C629.7,408.8,598.6,436.3,560.1,436.4z"/>
				<path class="st5" d="M579.1,249.3c22.6,0,41,18.4,41,41c0,22.7-18.4,41-41,41c-2.4,0-4.8-0.2-7.1-0.6c-4.3-1.5-8.3-3.5-12-6.1
					c-4.3-3.1-8.4-5.8-12.4-8c-5.9-7.1-9.5-16.2-9.5-26.2C538.1,267.6,556.4,249.3,579.1,249.3z"/>
				<path class="st6" d="M579.1,310.8c11.3,0,20.5-9.2,20.5-20.5c0-11.3-9.2-20.5-20.5-20.5c-1.6,0-3.1,0.2-4.6,0.5
					c3.9,1,6.8,4.5,6.8,8.8c0,5-4.1,9.1-9.1,9.1c-5,0-9.1-4.1-9.1-9.1c0-0.7,0.1-1.4,0.2-2c-3,3.6-4.8,8.2-4.8,13.2
					C558.6,301.6,567.7,310.8,579.1,310.8z"/>
				<path class="st6" d="M496.9,396.2c16.2,0,30.4-8.5,38.4-21.4c4.3-6.9,6.8-15,6.8-23.7c0-11.6-19.5-17.8-40.4-18.6
					c-1.6-0.1-3.2-0.1-4.7-0.1c-1.6,0-3.2,0-4.7,0.1c-20.9,0.8-40.4,7-40.4,18.6c0,8.7,2.5,16.8,6.7,23.7
					C466.5,387.7,480.7,396.2,496.9,396.2z"/>
				<path class="st5" d="M435.2,436.7c15-0.5,29.5-4.5,42.1-11.6c4.1-2.3,7.9-4.9,11.5-7.8v37.5c0,8.7-6.2,15.8-13.9,15.8h-20.8
					c-5.6,0-10.7-3.8-12.8-9.7C438.7,453.2,436.6,445.1,435.2,436.7z"/>
				<path class="st5" d="M505,454.7v-37.5c3.6,2.9,7.4,5.5,11.5,7.8c12.7,7.2,27.1,11.2,42.1,11.6c-1.4,8.4-3.4,16.5-6.2,24.1
					c-2.1,5.9-7.2,9.7-12.8,9.7h-20.8C511.2,470.5,505,463.4,505,454.7z"/>
				<g>
					<path class="st3" d="M559.9,438.9c-1,0-1.9,0-2.9-0.1l-0.4,0c-20.8-0.8-52.6-22.1-52.9-22.4c-2.8-1.9-5.2-3-6.7-3
						c-1.5,0-3.9,1.1-6.7,3c-0.3,0.2-32.1,21.5-52.9,22.4l-0.4,0c-1,0-1.9,0.1-2.9,0.1l-0.2,0c-39.8-0.1-72.1-28.9-72.1-64.1
						c0-21.7,18-23.8,37.1-26c13.6-1.6,29-3.4,41.6-12c0.3-0.2,0.5-0.3,0.8-0.5c0.2-0.1,0.4-0.2,0.6-0.4c2.6-1.9,5.3-3.7,8-5.4
						c0.5-0.3,1-0.7,1.4-1l0.2-0.1c2.9-1.9,6.2-3.5,9.9-4.9c7.6-2.8,17.2-4.6,27.6-5.2c2.9-0.2,5.5-0.3,8-0.3c2.5,0,5.1,0.1,8,0.3
						c10.5,0.6,20,2.4,27.6,5.2c3.7,1.4,7,3,9.9,4.9l0.2,0.1c0.5,0.3,1,0.6,1.4,1c2.7,1.6,5.4,3.4,8,5.4c0.2,0.1,0.4,0.3,0.6,0.4
						c0.3,0.2,0.5,0.3,0.8,0.5c12.5,8.5,28,10.4,41.6,12c19.1,2.3,37.1,4.4,37.1,26c0,35.2-32.3,64-72.1,64.1L559.9,438.9z
						 M496.9,334.9c-1.5,0-3,0-4.6,0.1c-22.4,0.9-38,7.5-38,16.1c0,7.9,2.2,15.7,6.4,22.4c7.8,12.7,21.4,20.2,36.2,20.2
						c14.9,0,28.4-7.5,36.2-20.2c4.2-6.7,6.4-14.5,6.4-22.4c0-8.6-15.6-15.2-38-16.1C499.9,335,498.4,334.9,496.9,334.9z"/>
					<path class="st6" d="M496.9,321.6c2.7,0,5.3,0.1,7.9,0.3c10.1,0.6,19.5,2.3,26.9,5.1c3.8,1.4,6.8,3,9.4,4.6
						c0.5,0.4,1.1,0.7,1.6,1.1c2.5,1.5,5.2,3.3,7.9,5.3c0.5,0.4,1,0.6,1.5,0.9c31.1,21.2,77.6,2.5,77.6,36
						c0,33.9-31.1,61.5-69.6,61.6c-0.1,0-0.2,0-0.2,0c-1.1,0-2.2-0.1-3.2-0.1c-19.2-0.8-49.4-20.4-51.6-21.9
						c-2.5-1.7-5.6-3.4-8.1-3.4c-2.5,0-5.6,1.8-8.1,3.4c-2.2,1.5-32.4,21.1-51.6,21.9c-1.1,0-2.1,0.1-3.2,0.1c-0.1,0-0.2,0-0.2,0
						c-38.4-0.1-69.6-27.6-69.6-61.6c0-33.5,46.5-14.8,77.6-35.9c0.5-0.3,1-0.6,1.5-0.9c2.8-2,5.4-3.8,7.9-5.3
						c0.5-0.4,1-0.7,1.6-1.1c2.6-1.7,5.6-3.3,9.4-4.6c7.5-2.7,16.8-4.5,26.9-5.1C491.7,321.7,494.3,321.6,496.9,321.6 M496.9,396.2
						c16.2,0,30.4-8.5,38.4-21.4c4.3-6.9,6.8-15,6.8-23.7c0-11.6-19.5-17.8-40.4-18.6c-1.6-0.1-3.2-0.1-4.7-0.1
						c-1.6,0-3.2,0-4.7,0.1c-20.9,0.8-40.4,7-40.4,18.6c0,8.7,2.5,16.8,6.7,23.7C466.5,387.7,480.7,396.2,496.9,396.2 M496.9,316.6
						c-2.5,0-5.2,0.1-8.2,0.3c-10.7,0.6-20.5,2.5-28.3,5.4c-3.8,1.4-7.3,3.1-10.4,5.1l-0.2,0.1c-0.5,0.3-1,0.6-1.5,1
						c-2.7,1.7-5.5,3.5-8.1,5.5c-0.1,0-0.3,0.2-0.4,0.3c-0.3,0.2-0.6,0.4-0.9,0.6c-12,8.2-27.1,10-40.5,11.6
						c-9.9,1.2-19.2,2.3-26.3,5.8c-8.7,4.4-13,11.8-13,22.7c0,17.9,7.8,34.6,22.1,47.2c14,12.4,32.7,19.3,52.5,19.4
						c0.1,0,0.2,0,0.3,0c1,0,2,0,3-0.1l0.5,0c21.5-0.9,53.9-22.6,54.2-22.8c3-2,4.8-2.6,5.3-2.6c0.5,0,2.3,0.5,5.3,2.6
						c0.3,0.2,32.8,21.9,54.2,22.8l0.5,0c1,0,1.9,0.1,3,0.1c0.1,0,0.2,0,0.3,0l0,0c19.8-0.1,38.5-6.9,52.5-19.4
						c14.2-12.6,22.1-29.4,22.1-47.2c0-10.9-4.2-18.3-13-22.7c-7.1-3.6-16.4-4.7-26.3-5.8c-13.3-1.6-28.4-3.4-40.5-11.6
						c-0.3-0.2-0.6-0.4-0.9-0.6c-0.2-0.1-0.3-0.2-0.4-0.3c-2.7-2-5.4-3.8-8.1-5.4c-0.5-0.4-1-0.7-1.5-1l-0.2-0.1
						c-3.1-2-6.6-3.7-10.4-5.1c-7.8-2.9-17.6-4.8-28.3-5.4C502.1,316.6,499.5,316.6,496.9,316.6L496.9,316.6z M496.9,391.2
						c-14,0-26.7-7.1-34.1-19c-3.9-6.3-6-13.6-6-21.1c0-7,15.3-12.8,35.6-13.6c1.6-0.1,3.1-0.1,4.5-0.1c1.4,0,2.9,0,4.5,0.1
						c20.3,0.8,35.6,6.6,35.6,13.6c0,7.5-2.1,14.8-6,21.1C523.7,384.1,510.9,391.2,496.9,391.2L496.9,391.2z"/>
				</g>
				<path class="st5" d="M414.8,249.3c22.7,0,41,18.4,41,41c0,10-3.6,19.1-9.5,26.2c-4,2.2-8.2,4.9-12.4,8c-3.6,2.7-7.7,4.6-12,6.1
					c-2.3,0.4-4.7,0.6-7.1,0.6c-22.6,0-41-18.4-41-41C373.8,267.6,392.1,249.3,414.8,249.3z"/>
				<path class="st6" d="M414.8,310.8c11.3,0,20.5-9.2,20.5-20.5c0-11.3-9.2-20.5-20.5-20.5c-1.6,0-3.1,0.2-4.6,0.5
					c3.9,1,6.8,4.5,6.8,8.8c0,5-4.1,9.1-9.1,9.1c-5,0-9.1-4.1-9.1-9.1c0-0.7,0.1-1.4,0.2-2c-3,3.6-4.8,8.2-4.8,13.2
					C394.3,301.6,403.5,310.8,414.8,310.8z"/>
				<g>
					<path class="st3" d="M434.6,653.3c-7,0-12-1.9-15.5-5.9c-3.7-4.3-5.5-11.1-5.5-20.7c0-21.7,8.9-44.2,24.3-61.7
						c16.3-18.5,37.2-28.7,59-28.7c21.8,0,42.7,10.2,59,28.7c15.4,17.5,24.3,40,24.3,61.7c0,18.4-6.5,26.6-21,26.6
						c-6.7,0-14.6-1.7-23.7-3.6c-11.6-2.4-24.7-5.2-38.6-5.2c-13.9,0-27,2.7-38.6,5.2C449.2,651.6,441.3,653.3,434.6,653.3
						C434.6,653.3,434.6,653.3,434.6,653.3z"/>
					<path class="st6" d="M496.9,538.8c44.6,0,80.8,44.9,80.8,87.9c0,18.8-6.9,24.1-18.5,24.1c-14.8,0-37.2-8.7-62.3-8.7
						c-25.1,0-47.5,8.7-62.3,8.7c-11.5,0-18.5-5.3-18.5-24.1C416.1,583.7,452.3,538.8,496.9,538.8 M496.9,533.8
						c-22.5,0-44.1,10.5-60.9,29.5c-15.8,18-24.9,41.1-24.9,63.3c0,10.3,2,17.6,6.1,22.4c3.9,4.5,9.6,6.7,17.3,6.7
						c7,0,15-1.7,24.2-3.6c11.4-2.4,24.4-5.1,38.1-5.1c13.7,0,26.6,2.7,38.1,5.1c9.3,1.9,17.3,3.6,24.2,3.6c7.8,0,13.4-2.2,17.3-6.7
						c4.1-4.8,6.1-12.1,6.1-22.4c0-22.3-9.1-45.4-24.9-63.3C541,544.3,519.4,533.8,496.9,533.8L496.9,533.8z"/>
				</g>
				<g>
					<path class="st7" d="M710.7,621.9c-4.4,8.6-53.8,40.5-80.5,11.9c-36.9-39.3,13.1-94.7,18-142.2"/>
				</g>
				<g>
					<g>
						<path class="st7" d="M345.6,491.6c4.9,47.6,54.9,102.9,18,142.2c-26.8,28.5-76.1-3.4-80.5-11.9"/>
					</g>
					<g>
						<path class="st7" d="M345.6,1282.6c4.9,47.6,54.9,102.9,18,142.2c-26.8,28.5-76.1-3.4-80.5-11.9"/>
					</g>
					<g>
						<path class="st7" d="M710.8,621.9c-4.4,8.6-53.8,40.5-80.5,11.9c-36.9-39.3,13.1-94.7,18-142.2"/>
					</g>
				</g>
			</g>
		</g>
		<path class="st8" d="M585.9,336.7H418.8c-25.8,0-46.7-20.9-46.7-46.7v0c0-25.8,20.9-46.7,46.7-46.7h167.1
			c25.8,0,46.7,20.9,46.7,46.7v0C632.6,315.9,611.7,336.7,585.9,336.7z"/>
		<g>
			<line class="st9" x1="421.3" y1="287.2" x2="582.2" y2="287.2"/>
			<path class="st9" d="M582.2,303.2H421.3c-8.8,0-16-7.2-16-16s7.2-16,16-16h160.9c8.8,0,16,7.2,16,16S591,303.2,582.2,303.2z"/>
		</g>
		<line class="st10" x1="421.3" y1="287.2" x2="582.2" y2="287.2"/>
		<path class="st8" d="M251.2,506.4c0,42.2,7.1,82.3,19.9,118.7c1.1,2.8,2.5,6,4.2,9.6c2.1,4.1,21.5,46.2,22.3,47.6
			c20.8,35.3,47.8,64.8,78.9,86.3c6.8,4.7,14.5,6.9,22.2,6.9c12.3,0,24.4-5.7,32.1-16.4c14.9-20.6,39.1-34,66.5-34
			c27.3,0,51.6,13.4,66.5,34c7.7,10.6,19.7,16.3,32,16.3c7.9,0,15.8-2.3,22.7-7.1c31.5-21.8,58.6-51.9,79.5-87.7l0,0l0-0.1
			c0.4-0.8,24.3-52.4,25.4-55.2c12.8-36.4,19.9-76.6,19.9-118.8c0-25.3-2.6-49.8-7.4-73.3L497.6,538.2c0,0-177.9-78.4-239-105.3
			c-0.7,3.5-1.4,7.1-2,10.6C253,463.8,251.2,484.8,251.2,506.4z"/>
		<g>
			<path class="st4" d="M355.9,561.9c10.7,31.6,8.5,57.3-5.3,72c-10,10.7-23.1,10.8-36.1,11c-34.1,0.6-47.4-31.3-54-56L355.9,561.9z
				"/>
		</g>
		<g>
			<path class="st4" d="M733.2,588.8c-6.6,24.8-19.9,56.6-54,56c-13-0.2-26-0.3-36.1-11c-13.8-14.7-16-40.4-5.3-72L733.2,588.8z"/>
		</g>
		<polygon class="st11" points="403.2,534 497.2,661.9 601.7,536.7 497.2,528.5 		"/>
		<polygon class="st8" points="493.1,528.8 172.4,382.9 300.4,580.2 		"/>
		<polygon class="st8" points="502.7,528.8 823.4,382.9 695.4,580.2 		"/>
	</g>
</g>
</svg>
