<?xml version="1.0" encoding="utf-8"?>
<!-- Generator: Adobe Illustrator 25.2.0, SVG Export Plug-In . SVG Version: 6.00 Build 0)  -->
<svg version="1.1" id="Layer_1" xmlns="http://www.w3.org/2000/svg" xmlns:xlink="http://www.w3.org/1999/xlink" x="0px" y="0px"
	 viewBox="0 0 993.7 662.2" style="enable-background:new 0 0 993.7 662.2;" xml:space="preserve">
<style type="text/css">
	.st0{clip-path:url(#SVGID_2_);}
	.st1{fill:#DA1F26;stroke:#010101;stroke-width:5;stroke-miterlimit:10;}
	.st2{fill:#FFFFFF;}
	.st3{fill:#FABA29;}
	.st4{fill:#412514;stroke:#010101;stroke-width:5;stroke-miterlimit:10;}
	.st5{fill:#FFFFFF;stroke:#010101;stroke-width:5;stroke-miterlimit:10;}
	.st6{fill:#010101;}
	.st7{fill:none;stroke:#010101;stroke-width:5;stroke-miterlimit:10;}
	.st8{fill:#FDFEFF;stroke:#010101;stroke-width:5;stroke-miterlimit:10;}
	.st9{fill:#010101;stroke:#010101;stroke-width:5;stroke-miterlimit:10;}
	.st10{fill:#ED1C24;stroke:#010101;stroke-width:5;stroke-linejoin:round;stroke-miterlimit:10;}
	.st11{fill:#ABA0B6;stroke:#010101;stroke-width:4;stroke-miterlimit:10;}
	.st12{fill:none;stroke:#010101;stroke-width:4;stroke-linejoin:round;stroke-miterlimit:10;}
	.st13{fill:#ABA0B6;}
	.st14{fill:#412514;}
	.st15{fill:#FABA29;stroke:#010101;stroke-width:5;stroke-linejoin:round;stroke-miterlimit:10;}
</style>
<g>
	<defs>
		<rect id="SVGID_1_" width="993.7" height="662.2"/>
	</defs>
	<clipPath id="SVGID_2_">
		<use xlink:href="#SVGID_1_"  style="overflow:visible;"/>
	</clipPath>
	<g class="st0">
		<path class="st1" d="M263.7,181.1c-44.6,23.3-80.3,47-80.3,47s78.7,22.2,100.1,17.6c-14.3,32.2-31.7,29.2-29,63.2
			c2.6,34,9.4,48.4,9.4,48.4s90-42.5,118.8-87.1s-16.5-110.9-16.5-110.9S308.3,157.8,263.7,181.1z"/>
		<path class="st2" d="M559.9,324.9c3.7,2.7,7.7,4.6,12,6.1c2.3,0.4,4.7,0.6,7.1,0.6c22.6,0,41-18.4,41-41c0-22.7-18.4-41-41-41
			c-22.7,0-41,18.4-41,41c0,10,3.6,19.1,9.5,26.2C551.5,319.1,555.6,321.7,559.9,324.9z M563.3,277.4c-0.1,0.6-0.2,1.3-0.2,2
			c0,5,4.1,9.1,9.1,9.1c5,0,9.1-4.1,9.1-9.1c0-4.2-2.9-7.8-6.8-8.8c1.5-0.3,3-0.5,4.6-0.5c11.3,0,20.5,9.2,20.5,20.5
			c0,11.3-9.2,20.5-20.5,20.5c-11.3,0-20.5-9.2-20.5-20.5C558.5,285.6,560.3,281,563.3,277.4z"/>
		<path class="st2" d="M414.7,331.6c2.4,0,4.8-0.2,7.1-0.6c4.3-1.5,8.3-3.5,12-6.1c4.3-3.1,8.4-5.8,12.4-8
			c5.9-7.1,9.5-16.2,9.5-26.2c0-22.7-18.4-41-41-41c-22.6,0-41,18.4-41,41C373.7,313.3,392.1,331.6,414.7,331.6z M399,277.4
			c-0.1,0.6-0.2,1.3-0.2,2c0,5,4.1,9.1,9.1,9.1c5,0,9.1-4.1,9.1-9.1c0-4.2-2.9-7.8-6.8-8.8c1.5-0.3,3-0.5,4.6-0.5
			c11.3,0,20.5,9.2,20.5,20.5c0,11.3-9.2,20.5-20.5,20.5c-11.3,0-20.5-9.2-20.5-20.5C394.2,285.6,396,281,399,277.4z"/>
		<path class="st2" d="M723,595.9c-1.1,2.8-2.5,6-4.2,9.5c-2.1,4.1-4.4,8.7-7.6,13.1c-3.1,4.4-6.8,9-11.4,12.5
			c-2.2,1.8-4.7,3.3-7.3,4.6c-2.7,1.1-5.4,2-8.4,2.3c-5.9,0.8-12.5-0.3-19-2.6l-0.6-0.2l-0.3-0.1l-0.2-0.1l-0.1,0l-1-0.5l-2.7-1.2
			c-1-0.4-1.4-0.8-2-1.2c-0.6-0.4-1.2-0.8-1.8-1.1c-2.4-2-4.8-4.2-6.4-7c-3.5-5.5-5.5-12.4-6.3-19.6c-0.8-7.2-0.4-14.6,0.3-21.7
			c0.7-7.2,2-14.1,3.5-20.7c1.4-6.6,3.1-12.7,4.7-18.4c3.3-11.4,6.6-20.7,9-27.2c2.4-6.5,3.9-10.2,3.9-10.2s-2.2,3.4-5.6,9.4
			c-3.4,6.1-8,15-12.8,26.1c-4.6,11.1-9.6,24.4-12.6,39.5c-1.5,7.6-2.4,15.6-2.1,24c0.1,2.1,0.3,4.2,0.5,6.4
			c0.4,2.1,0.7,4.3,1.2,6.5l0.9,3.2l0.5,1.6l0.7,1.6l1.3,3.2c0.5,1,1.1,2,1.7,3.1c1.1,2.1,2.6,3.9,4,5.8c0.7,1,1.6,1.8,2.4,2.6
			l2.6,2.5l3.1,2.2c1,0.7,2.2,1.6,3,1.9l2.6,1.4l1.3,0.7l0.5,0.2l0.1,0l0.2,0.1l0.4,0.2l0.8,0.3c8,3.2,17,5.1,26,4
			c4.5-0.5,8.7-1.9,12.6-3.6c0.1,0,0.2-0.1,0.3-0.1c-21.1,36.9-48.7,67.8-80.9,90.1c-6.9,4.8-14.9,7.1-22.7,7.1
			c-12.2,0-24.3-5.6-32-16.3c-14.9-20.6-39.1-34-66.5-34c-27.3,0-51.6,13.4-66.5,34c-7.7,10.6-19.8,16.4-32.1,16.4
			c-7.7,0-15.4-2.2-22.2-6.9c-31.2-21.5-58.1-51-78.9-86.3c-0.8-1.4-1.6-2.7-2.4-4.1c0.1,0,0.2,0.1,0.3,0.1c3.9,1.7,8.2,3,12.6,3.6
			c8.9,1.1,18-0.8,26-4l0.8-0.3l0.4-0.2l0.2-0.1l0.1,0l0.5-0.2l1.3-0.7l2.6-1.4c0.8-0.3,2-1.2,3-1.9l3.1-2.2l2.6-2.5
			c0.8-0.8,1.7-1.6,2.4-2.6c1.5-1.9,3-3.7,4-5.8c0.6-1,1.2-2,1.7-3.1l1.3-3.2l0.6-1.6l0.5-1.6l0.9-3.2c0.5-2.2,0.8-4.3,1.2-6.5
			c0.2-2.1,0.4-4.3,0.5-6.4c0.2-8.4-0.6-16.5-2.1-24c-0.4-2.1-0.9-4.1-1.3-6.1c-3-12.6-7.3-23.8-11.3-33.4
			c-4.8-11.1-9.4-20-12.8-26.1c-3.4-6.1-4.1-5.8-1.7,0.8c2.4,6.5,5.7,15.9,9,27.2c1.5,5.3,3.1,11,4.4,17c0.1,0.5,0.2,0.9,0.3,1.4
			c1.5,6.6,2.8,13.5,3.5,20.7c0.7,7.2,1.1,14.5,0.3,21.7c-0.7,7.2-2.7,14.1-6.3,19.6c-1.7,2.8-4,5-6.4,7c-0.6,0.4-1.2,0.7-1.8,1.1
			c-0.7,0.4-1,0.8-2,1.2l-2.7,1.2l-1,0.5l-0.1,0l-0.2,0.1l-0.3,0.1l-0.6,0.2c-6.5,2.4-13.1,3.4-19,2.6c-3-0.3-13.5-5.1-15.7-6.9
			c-4.6-3.5-8.3-8.1-11.4-12.5c-3.1-4.5-5.5-9-7.6-13.1c-1.7-3.5-3.1-6.7-4.2-9.6c-12.8-36.4-19.9-76.5-19.9-118.7
			c0-21.6,1.9-42.6,5.4-62.9c10.9-62.3,37.5-117.6,74.6-159c-6.1-1.7-11.8-5-16.6-9.8c-15-15-15-39.6,0-54.7
			c7.5-7.5,17.4-11.3,27.3-11.3c9.9,0,19.8,3.8,27.3,11.3c6.1,6.1,9.7,13.8,10.9,21.8c0,0,0.6-0.6,1.7-1.7c3.4-4.1,7-8.3,11-12.6
			c3.9-4.2,8.1-8.5,12.5-12.8c34.2-32.8,85-65.2,156.6-73.8c0,0-16.2,11.5-31.5,27.8c30.9-4.6,62.3,16.2,37.7,37.5
			c-1.7,1.4-3.3,2.9-4.7,4.5c-1.4,1.5-2.8,3-4,4.6c19.4,6.2,37.8,15.1,55,26.5c1.1-8,4.8-15.7,10.9-21.8
			c7.5-7.5,17.4-11.3,27.3-11.3c9.9,0,19.8,3.8,27.3,11.3c15,15,15,39.6,0,54.7c-4.8,4.8-10.5,8-16.6,9.8c49.2,55,80,134.1,80,221.9
			C742.9,519.3,735.8,559.4,723,595.9z"/>
		<path class="st3" d="M341.5,199.6c-10,0-18.2,8.1-18.2,18.2c0,10,8.1,18.2,18.2,18.2c10,0,18.2-8.1,18.2-18.2
			C359.6,207.8,351.5,199.6,341.5,199.6z"/>
		<path class="st3" d="M652.3,199.6c-10,0-18.2,8.1-18.2,18.2c0,10,8.1,18.2,18.2,18.2c10,0,18.2-8.1,18.2-18.2
			C670.4,207.8,662.3,199.6,652.3,199.6z"/>
		<path class="st4" d="M662.9,255.2c6.1-1.7,11.8-5,16.6-9.8c15-15,15-39.6,0-54.7c-7.5-7.5-17.4-11.3-27.3-11.3
			c-9.9,0-19.8,3.8-27.3,11.3c-6.1,6.1-9.7,13.8-10.9,21.8c-17.2-11.4-35.7-20.4-55-26.5c1.2-1.6,2.6-3.1,4-4.6
			c1.5-1.5,3.1-3,4.7-4.5c24.6-21.4-6.8-42.1-37.7-37.5c15.3-16.3,31.5-27.8,31.5-27.8c-71.5,8.6-122.4,41.1-156.6,73.8
			c-4.5,4.3-8.6,8.6-12.5,12.8c-3.9,4.3-7.6,8.5-11,12.6c-1.1,1.1-1.7,1.7-1.7,1.7c-1.1-8-4.8-15.7-10.9-21.8
			c-7.5-7.5-17.4-11.3-27.3-11.3c-9.9,0-19.8,3.8-27.3,11.3c-15,15-15,39.6,0,54.7c4.8,4.8,10.5,8,16.6,9.8
			c-37.1,41.5-63.7,96.7-74.6,159c-3.5,20.3-5.4,41.3-5.4,62.9c0,42.2,7.1,82.3,19.9,118.7c1.1,2.8,2.5,6,4.2,9.6
			c2.1,4.1,21.5,46.2,22.3,47.6c20.8,35.3,47.8,64.8,78.9,86.3c6.8,4.7,14.5,6.9,22.2,6.9c12.3,0,24.4-5.7,32.1-16.4
			c14.9-20.6,39.1-34,66.5-34c27.3,0,51.6,13.4,66.5,34c7.7,10.6,19.7,16.3,32,16.3c7.9,0,15.8-2.3,22.7-7.1
			c31.5-21.8,58.6-51.9,79.5-87.7l0,0l0-0.1c0.4-0.8,24.3-52.4,25.4-55.2c12.8-36.4,19.9-76.6,19.9-118.8
			C742.9,389.2,712.1,310.1,662.9,255.2z M652.3,199.6c10,0,18.2,8.1,18.2,18.2c0,10-8.1,18.2-18.2,18.2c-10,0-18.2-8.1-18.2-18.2
			C634.1,207.8,642.2,199.6,652.3,199.6z M341.5,235.9c-10,0-18.2-8.1-18.2-18.2c0-10,8.1-18.2,18.2-18.2c10,0,18.2,8.1,18.2,18.2
			C359.6,227.8,351.5,235.9,341.5,235.9z M560,436.8L560,436.8c-1.2,0-2.3,0-3.5-0.1c-19.2-0.8-49.4-20.4-51.6-21.9
			c-2.5-1.7-5.6-3.4-8.1-3.4c-2.5,0-5.6,1.8-8.1,3.4c-2.2,1.5-32.4,21.1-51.6,21.9c-1.1,0.1-2.3,0.1-3.5,0.1c0,0,0,0,0,0
			c-38.4-0.1-69.6-27.6-69.6-61.6c0-33.5,46.5-14.8,77.6-35.9c0.5-0.3,1-0.6,1.5-0.9c2.8-2,5.4-3.8,7.9-5.3c0.5-0.4,1-0.7,1.6-1.1
			c2.6-1.7,5.6-3.3,9.4-4.6c7.5-2.7,16.8-4.5,26.9-5.1c2.6-0.2,5.2-0.3,7.9-0.3c2.7,0,5.3,0.1,7.9,0.3c10.1,0.6,19.5,2.3,26.9,5.1
			c3.8,1.4,6.8,3,9.4,4.6c0.5,0.4,1.1,0.7,1.6,1.1c2.5,1.5,5.2,3.3,7.9,5.3c0.5,0.4,1,0.6,1.5,0.9c31.1,21.2,77.6,2.5,77.6,36
			C629.6,409.1,598.5,436.7,560,436.8z"/>
		<path class="st5" d="M435.2,437c15-0.5,29.5-4.5,42.1-11.6c4.1-2.3,7.9-4.9,11.5-7.8v37.5c0,8.7-6.2,15.8-13.9,15.8h-20.8
			c-5.6,0-10.7-3.8-12.8-9.7C438.6,453.6,436.5,445.5,435.2,437z"/>
		<path class="st5" d="M505,455.1v-37.5c3.6,2.9,7.4,5.5,11.5,7.8c12.7,7.2,27.1,11.2,42.1,11.6c-1.4,8.4-3.4,16.5-6.2,24.1
			c-2.1,5.9-7.2,9.7-12.8,9.7h-20.8C511.2,470.8,505,463.8,505,455.1z"/>
		<g>
			<path class="st3" d="M434.5,653.6c-7,0-12-1.9-15.5-5.9c-3.7-4.3-5.5-11.1-5.5-20.7c0-21.7,8.9-44.2,24.3-61.7
				c16.3-18.5,37.2-28.7,59-28.7c21.8,0,42.7,10.2,59,28.7c15.4,17.5,24.3,40,24.3,61.7c0,18.4-6.5,26.6-21,26.6
				c-6.7,0-14.6-1.7-23.7-3.6c-11.6-2.4-24.7-5.2-38.6-5.2c-13.9,0-27,2.7-38.6,5.2C449.1,652,441.2,653.6,434.5,653.6
				C434.5,653.6,434.5,653.6,434.5,653.6z"/>
			<path class="st6" d="M496.9,539.2c44.6,0,80.8,44.9,80.8,87.9c0,18.8-6.9,24.1-18.5,24.1c-14.8,0-37.2-8.7-62.3-8.7
				c-25.1,0-47.5,8.7-62.3,8.7c-11.5,0-18.5-5.3-18.5-24.1C416.1,584.1,452.2,539.2,496.9,539.2 M496.9,534.2
				c-22.5,0-44.1,10.5-60.9,29.5c-15.8,18-24.9,41.1-24.9,63.3c0,10.3,2,17.6,6.1,22.4c3.9,4.5,9.6,6.7,17.3,6.7
				c7,0,15-1.7,24.2-3.6c11.4-2.4,24.4-5.1,38.1-5.1c13.7,0,26.6,2.7,38.1,5.1c9.3,1.9,17.3,3.6,24.2,3.6c7.8,0,13.4-2.2,17.3-6.7
				c4.1-4.8,6.1-12.1,6.1-22.4c0-22.3-9.1-45.4-24.9-63.3C541,544.7,519.3,534.2,496.9,534.2L496.9,534.2z"/>
		</g>
		<g>
			<path class="st7" d="M710.6,622.3c-4.4,8.6-53.8,40.5-80.5,11.9c-36.9-39.3,13.1-94.7,18-142.2"/>
		</g>
		<g>
			<g>
				<path class="st7" d="M345.5,492c4.9,47.6,54.9,102.9,18,142.2c-26.8,28.5-76.1-3.4-80.5-11.9"/>
			</g>
			<g>
				<path class="st7" d="M710.7,622.3c-4.4,8.6-53.8,40.5-80.5,11.9c-36.9-39.3,13.1-94.7,18-142.2"/>
			</g>
		</g>
		<g>
			<path class="st8" d="M561.8,510.2l-9.2,4.1c-35.1,15.5-75.1,15.5-110.2,0l-14.1-6.2c12.9,45.6,32.7,133.6,22.9,216.5
				c-0.7,6.2-1.8,11.9-3.2,17.3c13.7-10.3,30.7-16.4,49.2-16.4c16.5,0,31.9,4.9,44.8,13.3c-1-4.5-1.9-9.2-2.5-14.2
				C529.9,643,548.9,556.4,561.8,510.2z"/>
			<path class="st9" d="M428.4,508.1C371.5,483,291,447.5,254.9,431.6c-0.7,3.5-1.4,7.1-2,10.6c-3.5,20.3-1.8,43-1.8,64.5
				c0,42.2,7.1,82.3,19.9,118.7c1.1,2.8,2.5,6,4.2,9.6c2.1,4.1,21.5,46.2,22.3,47.6c20.8,35.3,47.8,64.8,78.9,86.3
				c6.8,4.7,14.5,6.9,22.2,6.9c12.3,0,24.4-5.7,32.1-16.4c4.9-6.7,10.7-12.6,17.3-17.6c1.4-5.3,2.5-11.1,3.2-17.3
				C461,641.7,441.2,553.7,428.4,508.1z"/>
			<path class="st9" d="M563.6,759.4c7.7,10.6,19.7,16.3,32,16.3c7.9,0,15.8-2.3,22.7-7.1c31.5-21.8,58.6-51.9,79.5-87.7l0,0l0-0.1
				c0.4-0.8,24.3-52.4,25.4-55.2c12.8-36.4,19.9-76.6,19.9-118.8c0-25.3,1.8-51.1-3-74.6l-178.4,78
				c-12.9,46.2-31.9,132.8-22.3,214.4c0.6,5,1.4,9.7,2.5,14.2C550.4,744.3,557.7,751.3,563.6,759.4z"/>
		</g>
		<path class="st10" d="M550.5,66.5C421.3,54.8,386,84.8,363.4,118.7c-9.8,14.6-10.5,35.1-8.1,53.8c3.1,24.4,13.5,46.1,35,44.2
			c23.1-2,64-8.2,94.2-10.6c59.4-4.7,104,3.3,126.3,8.9c9.3,2.3,18.5-4.5,20.4-15.2C638.4,160.4,643,74.9,550.5,66.5z"/>
		<rect x="632.1" y="573.2" class="st10" width="76.6" height="29.9"/>
		<circle class="st10" cx="330" cy="574.6" r="29.7"/>
		<path class="st6" d="M496.9,396.6c16.2,0,30.4-8.5,38.4-21.4c4.3-6.9,6.8-15,6.8-23.7c0-11.6-19.5-17.8-40.4-18.6
			c-1.6-0.1-3.2-0.1-4.7-0.1c-1.6,0-3.2,0-4.7,0.1c-20.9,0.8-40.4,7-40.4,18.6c0,8.7,2.5,16.8,6.7,23.7
			C466.4,388,480.6,396.6,496.9,396.6z"/>
		<g>
			<path class="st3" d="M559.8,439.3c-1,0-1.9,0-2.9-0.1l-0.4,0c-20.8-0.8-52.6-22.1-52.9-22.4c-2.8-1.9-5.2-3-6.7-3
				c-1.5,0-3.9,1.1-6.7,3c-0.3,0.2-32.1,21.5-52.9,22.4l-0.4,0c-1,0-1.9,0.1-2.9,0.1l-0.2,0c-39.8-0.1-72.1-28.9-72.1-64.1
				c0-21.7,18-23.8,37.1-26c13.6-1.6,29-3.4,41.6-12c0.3-0.2,0.5-0.3,0.8-0.5c0.2-0.1,0.4-0.2,0.6-0.4c2.6-1.9,5.3-3.7,8-5.4
				c0.5-0.3,0.9-0.6,1.4-1l0.2-0.1c2.9-1.9,6.2-3.5,9.9-4.9c7.6-2.8,17.2-4.6,27.6-5.2c2.9-0.2,5.5-0.3,8-0.3c2.5,0,5.1,0.1,8,0.3
				c10.5,0.6,20,2.4,27.6,5.2c3.7,1.3,7,3,9.9,4.9l0.2,0.1c0.5,0.3,1,0.7,1.5,1c2.7,1.6,5.4,3.4,8,5.4c0.2,0.1,0.4,0.3,0.6,0.4
				c0.3,0.2,0.5,0.3,0.8,0.5c12.5,8.5,28,10.4,41.6,12c19.1,2.3,37.1,4.4,37.1,26c0,35.2-32.3,64-72.1,64.1L559.8,439.3z
				 M496.9,335.3c-1.5,0-3,0-4.6,0.1c-22.4,0.9-38,7.5-38,16.1c0,7.9,2.2,15.7,6.4,22.4c7.8,12.7,21.4,20.2,36.2,20.2
				c14.9,0,28.4-7.5,36.2-20.2c4.2-6.7,6.4-14.5,6.4-22.4c0-8.6-15.6-15.2-38-16.1C499.9,335.3,498.3,335.3,496.9,335.3z"/>
			<path class="st6" d="M496.9,321.9c2.7,0,5.3,0.1,7.9,0.3c10.1,0.6,19.5,2.3,26.9,5.1c3.8,1.4,6.8,3,9.4,4.6
				c0.5,0.4,1.1,0.7,1.6,1.1c2.5,1.5,5.2,3.3,7.9,5.3c0.5,0.4,1,0.6,1.5,0.9c31.1,21.2,77.6,2.5,77.6,36c0,33.9-31.1,61.5-69.6,61.6
				c-0.1,0-0.2,0-0.2,0c-1.1,0-2.2-0.1-3.2-0.1c-19.2-0.8-49.4-20.4-51.6-21.9c-2.5-1.7-5.6-3.4-8.1-3.4c-2.5,0-5.6,1.8-8.1,3.4
				c-2.2,1.5-32.4,21.1-51.6,21.9c-1.1,0-2.1,0.1-3.2,0.1c-0.1,0-0.2,0-0.2,0c-38.4-0.1-69.6-27.6-69.6-61.6
				c0-33.5,46.5-14.8,77.6-35.9c0.5-0.3,1-0.6,1.5-0.9c2.8-2,5.4-3.8,7.9-5.3c0.5-0.4,1-0.7,1.6-1.1c2.6-1.7,5.6-3.3,9.4-4.6
				c7.5-2.7,16.8-4.5,26.9-5.1C491.6,322,494.2,321.9,496.9,321.9 M496.9,396.6c16.2,0,30.4-8.5,38.4-21.4c4.3-6.9,6.8-15,6.8-23.7
				c0-11.6-19.5-17.8-40.4-18.6c-1.6-0.1-3.2-0.1-4.7-0.1c-1.6,0-3.2,0-4.7,0.1c-20.9,0.8-40.4,7-40.4,18.6c0,8.7,2.5,16.8,6.7,23.7
				C466.4,388,480.6,396.6,496.9,396.6 M496.9,316.9c-2.5,0-5.2,0.1-8.2,0.3c-10.7,0.6-20.5,2.5-28.3,5.4c-3.8,1.4-7.3,3.1-10.4,5.1
				l-0.2,0.1c-0.5,0.3-1,0.6-1.5,1c-2.7,1.7-5.5,3.5-8.1,5.5c-0.1,0-0.3,0.2-0.4,0.3c-0.3,0.2-0.6,0.4-0.9,0.6
				c-12,8.2-27.1,10-40.5,11.6c-9.9,1.2-19.2,2.3-26.3,5.8c-8.7,4.4-13,11.8-13,22.7c0,17.9,7.8,34.6,22.1,47.2
				c14,12.4,32.7,19.3,52.5,19.4c0.1,0,0.2,0,0.3,0c1,0,2,0,3-0.1l0.5,0c21.5-0.9,53.9-22.6,54.2-22.8c3-2,4.8-2.6,5.3-2.6
				c0.5,0,2.3,0.5,5.3,2.6c0.3,0.2,32.8,21.9,54.2,22.8l0.5,0c1,0,1.9,0.1,3,0.1c0.1,0,0.2,0,0.3,0l0,0c19.8-0.1,38.5-6.9,52.5-19.4
				c14.2-12.6,22.1-29.4,22.1-47.2c0-10.9-4.2-18.3-13-22.7c-7.1-3.6-16.4-4.7-26.3-5.8c-13.3-1.6-28.4-3.4-40.5-11.6
				c-0.3-0.2-0.6-0.4-0.9-0.6c-0.2-0.1-0.3-0.2-0.4-0.3c-2.7-2-5.4-3.8-8.1-5.5c-0.5-0.4-1-0.7-1.5-1l-0.2-0.1
				c-3.1-2-6.6-3.7-10.4-5.1c-7.8-2.9-17.6-4.8-28.3-5.4C502.1,317,499.4,316.9,496.9,316.9L496.9,316.9z M496.9,391.6
				c-14,0-26.7-7.1-34.1-19c-3.9-6.3-6-13.6-6-21.1c0-7,15.3-12.8,35.6-13.6c1.6-0.1,3.1-0.1,4.5-0.1c1.4,0,2.9,0,4.5,0.1
				c20.3,0.8,35.6,6.6,35.6,13.6c0,7.5-2.1,14.8-6,21.1C523.6,384.5,510.8,391.6,496.9,391.6L496.9,391.6z"/>
		</g>
		<path class="st6" d="M617.3,464.4c-4.8-4.1-12.9-16.5-20.8-28.5c-12.9-19.7-21.9-32.9-29.1-37v0c-13.5-7.5-29.3-3.4-44.6,0.6
			c-1.2,0.3-2.4,0.6-3.7,1c-4.7,1.2-11.2,1.8-18.5,1.6l-2-0.1v-0.1l-1.8,0l-1.8,0v0.1l-2,0.1c-7.4,0.2-13.8-0.4-18.5-1.6
			c-1.2-0.3-2.4-0.6-3.7-1c-15.3-4-31.1-8.1-44.6-0.6c-7.2,4-16.2,17.2-29.1,37c-7.9,12-16,24.4-20.8,28.5l-5.8,5l6.5,3.9
			c3.4,2,7.7,3.5,13,3.5c9.2,0,21.6-4.6,37.3-19.1c6.7-6.2,10.2-9.1,24.8-14.3c7.4-2.6,22-4.3,41-4.6l3.6-0.1l3.6,0.1
			c19,0.3,33.6,2,41,4.6c14.6,5.2,18.1,8.1,24.8,14.3c15.8,14.5,28.1,19.1,37.3,19.1c5.3,0,9.6-1.5,13-3.5l6.5-3.9L617.3,464.4z"/>
		<g>
			<g>
				<path class="st4" d="M933.2,450.4c-0.5-0.4-11.4-9.9-23.5-18.4c-11.4-8-35.2-24.8-50.4-8l-0.7,0.7
					c-24.5,27.1-34.2,33.7-37.7,35.2c-3.5,1.5-13.7,1.2-26.3-5.8c-17-9.5-34.5-19-46.3-22.9l-6.4-2.1l-6.1,3
					c-14.2,7-24.4,20.1-29.5,37.7c-8.5,29.8-0.3,65.5,10.9,86.1c5.7,10.4,12.2,17.8,19.6,22l1.4,0.8l1.5,0.5c14.1,4.9,32.7,6,48.7,6
					c8.4,0,16-0.3,21.9-0.5c1.6-0.1,3-0.1,4.2-0.2c24.2-0.8,45.4-17.8,73.7-46.9c20.1-20.6,33.5-38,41.2-49c4.9-7,7.4-11.2,7.7-11.7
					l9-15.3L933.2,450.4z"/>
				<path class="st9" d="M922,419.9c-23.6-18.8-24.9-21.2-47.2-2.5c-12,10-28.7,39.7-14.2,60.8c2.2,3.2,5.1,6.3,9,9
					c3.5,2.5,6.3,7.3,10.9,8.9c3.5,8.3,17.8,7.1,20.6,2.4c4.2,9.7,13.6,9.7,20.9,2.5c12.6,7.8,19.5,2.1,28.4-16c1-2,2-4.1,3.1-6.5
					C964,455.3,945.6,438.7,922,419.9z"/>
			</g>
			<g>
				<path class="st4" d="M60.5,450.4C61,450,71.9,440.5,84,432c11.4-8,35.2-24.8,50.4-8l0.7,0.7c24.5,27.1,34.2,33.7,37.7,35.2
					c3.5,1.5,13.7,1.2,26.3-5.8c17-9.5,34.5-19,46.3-22.9l6.4-2.1l6.1,3c14.2,7,24.4,20.1,29.5,37.7c8.5,29.8,0.3,65.5-10.9,86.1
					c-5.7,10.4-12.2,17.8-19.6,22l-1.4,0.8l-1.5,0.5c-14.1,4.9-32.7,6-48.7,6c-8.4,0-16-0.3-21.9-0.5c-1.6-0.1-3-0.1-4.2-0.2
					c-24.2-0.8-45.4-17.8-73.7-46.9c-20.1-20.6-33.5-38-41.2-49c-4.9-7-7.4-11.2-7.7-11.7l-9-15.3L60.5,450.4z"/>
				<path class="st9" d="M71.7,419.9c23.6-18.8,24.9-21.2,47.2-2.5c12,10,28.7,39.7,14.2,60.8c-2.2,3.2-5.1,6.3-9,9
					c-3.5,2.5-6.3,7.3-10.9,8.9c-3.5,8.3-17.8,7.1-20.6,2.4c-4.2,9.7-13.6,9.7-20.9,2.5c-12.6,7.8-19.5,2.1-28.4-16
					c-1-2-2-4.1-3.1-6.5C29.8,455.3,48.1,438.7,71.7,419.9z"/>
			</g>
		</g>
		<g>
			<g>
				<path class="st11" d="M300.4,719.9c-13.4-39.5-20.1-74.8-27.9-115.7c-2-10.3-4-20.9-6.2-31.9c-1.6-8.1-3.1-15.8-4.6-23.3
					c-12.6-65.4-21.9-112.8-63.3-107.4c-23.1,2.9-39,6.2-47.9,8.3c-4.3-19.1-18.4-32.5-31.8-30c-13.6,2.5-21.4,20.5-17.3,40.1
					c4.1,19.6,18.4,33.4,32,30.9c9.5-1.8,16.2-11.1,18-23.2c7.1-1.8,23.6-5.5,49.6-8.8c23.4-2.8,30.6,30,42.8,93.3
					c1.4,7.5,3,15.4,4.6,23.4c2.2,11,4.2,21.5,6.2,31.8c7.6,39.8,14.7,77.4,28.5,117.9c10.7,31.4,38.6,31.4,106.2,31.4v-17.4
					C324,739.3,306.7,738.6,300.4,719.9z"/>
			</g>
			<g>
				<path class="st11" d="M693.4,719.9c13.4-39.5,20.1-74.8,27.9-115.7c2-10.3,4-20.9,6.2-31.9c1.6-8.1,3.1-15.8,4.6-23.3
					c12.6-65.4,21.9-112.8,63.3-107.4c23.1,2.9,39,6.2,47.9,8.3c4.3-19.1,18.4-32.5,31.8-30c13.6,2.5,21.4,20.5,17.3,40.1
					c-4.1,19.6-18.4,33.4-32,30.9c-9.5-1.8-16.2-11.1-18-23.2c-7.1-1.8-23.6-5.5-49.6-8.8c-23.4-2.8-30.6,30-42.8,93.3
					c-1.4,7.5-3,15.4-4.6,23.4c-2.2,11-4.2,21.5-6.2,31.8c-7.6,39.8-14.7,77.4-28.5,117.9c-10.7,31.4-38.6,31.4-106.2,31.4v-17.4
					C669.7,739.3,687,738.6,693.4,719.9z"/>
			</g>
		</g>
		<path class="st6" d="M582.3,311.1c11.3,0,20.5-9.2,20.5-20.5c0-11.3-9.2-20.5-20.5-20.5c-1.6,0-3.1,0.2-4.6,0.5
			c3.9,1,6.8,4.5,6.8,8.8c0,5-4.1,9.1-9.1,9.1c-5,0-9.1-4.1-9.1-9.1c0-0.7,0.1-1.4,0.2-2c-3,3.6-4.8,8.2-4.8,13.2
			C561.8,302,571,311.1,582.3,311.1z"/>
		<path class="st6" d="M418,311.1c11.3,0,20.5-9.2,20.5-20.5c0-11.3-9.2-20.5-20.5-20.5c-1.6,0-3.1,0.2-4.6,0.5
			c3.9,1,6.8,4.5,6.8,8.8c0,5-4.1,9.1-9.1,9.1c-5,0-9.1-4.1-9.1-9.1c0-0.7,0.1-1.4,0.2-2c-3,3.6-4.8,8.2-4.8,13.2
			C397.5,302,406.7,311.1,418,311.1z"/>
		<g>
			<path class="st5" d="M579,249.6c22.6,0,41,18.4,41,41c0,22.7-18.4,41-41,41c-2.4,0-4.8-0.2-7.1-0.6c-4.3-1.5-8.3-3.5-12-6.1
				c-4.3-3.1-8.4-5.8-12.4-8c-5.9-7.1-9.5-16.2-9.5-26.2C538,268,556.4,249.6,579,249.6z"/>
			<path class="st6" d="M579,311.1c11.3,0,20.5-9.2,20.5-20.5c0-11.3-9.2-20.5-20.5-20.5c-1.6,0-3.1,0.2-4.6,0.5
				c3.9,1,6.8,4.5,6.8,8.8c0,5-4.1,9.1-9.1,9.1c-5,0-9.1-4.1-9.1-9.1c0-0.7,0.1-1.4,0.2-2c-3,3.6-4.8,8.2-4.8,13.2
				C558.5,302,567.7,311.1,579,311.1z"/>
			<path class="st5" d="M414.7,249.6c22.7,0,41,18.4,41,41c0,10-3.6,19.1-9.5,26.2c-4,2.2-8.2,4.9-12.4,8c-3.6,2.7-7.7,4.6-12,6.1
				c-2.3,0.4-4.7,0.6-7.1,0.6c-22.6,0-41-18.4-41-41C373.7,268,392.1,249.6,414.7,249.6z"/>
			<path class="st6" d="M414.7,311.1c11.3,0,20.5-9.2,20.5-20.5c0-11.3-9.2-20.5-20.5-20.5c-1.6,0-3.1,0.2-4.6,0.5
				c3.9,1,6.8,4.5,6.8,8.8c0,5-4.1,9.1-9.1,9.1c-5,0-9.1-4.1-9.1-9.1c0-0.7,0.1-1.4,0.2-2c-3,3.6-4.8,8.2-4.8,13.2
				C394.2,302,403.4,311.1,414.7,311.1z"/>
		</g>
		<path class="st12" d="M371.5,537.8c0,0,7.8,3.1,14.9-5"/>
		<path class="st9" d="M380.2,554.7c0,0,0.2-7.8,12.8-7.8"/>
		<g>
			<g>
				<g>
					<path class="st13" d="M618.8,539.2c-1.6,0-3.1-0.3-4.6-0.9c-3.1-1.2-5.6-3.6-7.1-6.6c-1.5-3-1.7-6.3-0.8-9.3
						c1.8-5.8,3.1-11.7,4-17.7c0.4-3.1,2.1-6,4.7-8.1c2.4-2,5.5-3,8.5-3c0.2,0,0.5,0,0.7,0c3.6,0.2,6.7,1.8,8.9,4.6
						c2.2,2.8,3.2,6.5,2.7,10.1c-1,7.3-2.7,14.7-4.8,21.7c-1.1,3.5-3.5,6.4-6.7,8C622.5,538.8,620.7,539.2,618.8,539.2z
						 M623.1,503.4c-1.5,0-2.8,1.1-3.1,2.6c-0.9,6.5-2.4,13-4.3,19.3c-0.5,1.5,0.4,3.2,1.9,3.7c0.3,0.1,0.6,0.2,0.9,0.2
						c0.4,0,0.8-0.1,1.2-0.3c0.7-0.4,1.3-1,1.6-1.9c2-6.6,3.5-13.4,4.5-20.2c0.1-0.9-0.1-1.7-0.6-2.3c-0.5-0.6-1.1-1-1.9-1
						C623.3,503.4,623.2,503.4,623.1,503.4z"/>
					<path class="st6" d="M623.4,495.4c0.2,0,0.4,0,0.6,0c3,0.2,5.6,1.5,7.5,3.9c1.9,2.3,2.7,5.5,2.3,8.6c-1,7.2-2.6,14.4-4.8,21.4
						c-0.9,3-3,5.5-5.7,6.8c-1.4,0.7-3,1.1-4.5,1.1c0,0,0,0,0,0c-1.3,0-2.6-0.3-3.9-0.8c-2.6-1.1-4.8-3.1-6-5.7
						c-1.2-2.5-1.5-5.3-0.7-7.9c1.8-5.9,3.2-11.9,4-18c0.4-2.6,1.8-5.1,4-6.8C618.3,496.4,620.8,495.4,623.4,495.4 M618.6,531.1
						c0.7,0,1.4-0.2,2.1-0.5c1.2-0.6,2.2-1.7,2.6-3.1c2.1-6.7,3.6-13.6,4.6-20.5c0.2-1.4-0.2-2.8-1-3.9c-0.8-1-2-1.7-3.3-1.8
						c-0.2,0-0.3,0-0.5,0c-2.5,0-4.7,1.8-5,4.3c-0.9,6.4-2.3,12.8-4.2,19c-0.8,2.5,0.6,5.3,3.2,6.2
						C617.6,531,618.1,531.1,618.6,531.1 M623.4,491.4c-3.5,0-7,1.2-9.7,3.5c-3,2.4-4.9,5.8-5.4,9.4c-0.8,5.9-2.1,11.7-3.9,17.4
						c-1.1,3.5-0.8,7.4,0.9,10.8c1.7,3.5,4.6,6.2,8.1,7.6c1.7,0.7,3.5,1.1,5.4,1.1c2.2,0,4.3-0.5,6.3-1.5c3.7-1.8,6.5-5.2,7.7-9.2
						c2.2-7.2,3.9-14.6,4.9-22c0.6-4.2-0.5-8.4-3.1-11.6c-2.6-3.2-6.2-5.1-10.4-5.4C624,491.5,623.7,491.4,623.4,491.4L623.4,491.4z
						 M618.6,527.1c-0.1,0-0.1,0-0.2,0c-0.6-0.2-0.9-0.8-0.7-1.3c2-6.4,3.4-13,4.4-19.6c0.1-0.5,0.5-0.8,1.1-0.8c0,0,0.1,0,0.1,0
						c0.1,0,0.3,0.1,0.5,0.3c0.2,0.2,0.2,0.5,0.2,0.8c-0.9,6.7-2.4,13.4-4.4,19.9c-0.1,0.3-0.3,0.5-0.5,0.7
						C618.9,527.1,618.7,527.1,618.6,527.1L618.6,527.1z"/>
				</g>
				<g>
					<path class="st13" d="M590,588.3c-3.5,0-6.7-1.4-9.1-4c-2.2-2.5-3.5-5.7-3.5-9.1c0-3.3,1.2-6.4,3.3-8.8
						c4.2-4.5,7.9-9.3,11.3-14.2c1.8-2.6,4.5-4.5,7.8-5.3c1-0.2,2.1-0.4,3.1-0.4c2.3,0,4.5,0.6,6.5,1.7c3.1,1.7,5.3,4.6,6,8
						c0.8,3.5,0.1,7.2-2,10.3c-4.1,6.1-8.7,12-13.8,17.4c-2.5,2.7-6,4.3-9.5,4.3L590,588.3z M602.8,556.4c-1,0-1.9,0.5-2.5,1.3
						c-3.6,5.4-7.7,10.6-12.3,15.5c-1.1,1.2-1,3,0.1,4.2c0.5,0.5,1.2,0.8,1.9,0.8c0.9,0,1.6-0.4,2.2-1c4.7-5.1,9-10.5,12.8-16.2
						c0.5-0.7,0.7-1.6,0.5-2.4c-0.2-0.7-0.6-1.4-1.2-1.7C603.9,556.6,603.3,556.4,602.8,556.4z"/>
					<path class="st6" d="M602.9,548.6c1.9,0,3.8,0.5,5.5,1.4v0c2.6,1.4,4.4,3.8,5,6.7c0.7,2.9,0,6.1-1.7,8.7
						c-4,6-8.6,11.8-13.6,17.2c-2.1,2.3-5.1,3.6-8.1,3.7c0,0-0.1,0-0.1,0c0,0,0,0,0,0c-2.9,0-5.6-1.2-7.6-3.4c-1.9-2.1-3-4.8-3-7.7
						c0-2.8,1-5.4,2.8-7.4c4.2-4.6,8.1-9.4,11.5-14.5c1.5-2.2,3.8-3.8,6.6-4.4C601.1,548.7,602,548.6,602.9,548.6 M590.1,580.2
						C590.1,580.2,590.1,580.2,590.1,580.2c1.4,0,2.7-0.6,3.7-1.6c4.8-5.2,9.2-10.7,13-16.5l0,0c0.8-1.2,1.1-2.6,0.8-3.9
						c-0.3-1.3-1.1-2.4-2.2-3c-0.8-0.5-1.8-0.7-2.7-0.7c-1.6,0-3.2,0.8-4.1,2.2c-3.6,5.3-7.6,10.4-12.1,15.2c-1.8,1.9-1.7,5,0.2,7
						C587.6,579.7,588.8,580.2,590.1,580.2 M602.9,544.6L602.9,544.6c-1.2,0-2.4,0.1-3.6,0.4c-3.7,0.9-6.9,3-9,6.1
						c-3.3,4.9-7,9.6-11.1,14c-2.5,2.7-3.9,6.3-3.9,10.1c0,3.9,1.5,7.6,4,10.4c2.7,3,6.5,4.7,10.5,4.7l0.2,0c4.1,0,8.1-1.8,11-4.9
						c5.2-5.6,9.9-11.5,14-17.7c2.4-3.5,3.2-7.8,2.3-11.8c-0.9-4-3.4-7.3-7-9.3C608.1,545.2,605.5,544.6,602.9,544.6L602.9,544.6z
						 M590.1,580.2l0-4c-0.3,0-0.4-0.1-0.5-0.2c-0.4-0.4-0.5-1.1-0.1-1.5c4.6-4.9,8.8-10.2,12.5-15.7c0.2-0.4,0.7-0.4,0.8-0.4
						c0.2,0,0.4,0.1,0.6,0.2c0.1,0.1,0.3,0.2,0.3,0.5c0.1,0.3,0,0.5-0.2,0.8l0,0c-3.7,5.6-8,10.9-12.6,16c-0.2,0.2-0.5,0.4-0.8,0.4
						L590.1,580.2L590.1,580.2z"/>
				</g>
				<g>
					<path class="st13" d="M543,620.1c-1.9,0-3.8-0.4-5.5-1.2c-3.2-1.5-5.5-4.2-6.5-7.6c-0.9-3.2-0.7-6.6,0.8-9.7
						c1.4-3,3.9-5.3,6.8-6.5c5.6-2.2,11.1-4.9,16.3-8c1.9-1.1,4.1-1.7,6.3-1.7c1,0,2,0.1,2.9,0.3c3.3,0.7,6.2,2.6,8.1,5.4
						c2.1,2.9,2.8,6.4,2,9.9c-0.8,3.5-3.1,6.5-6.2,8.4c-6.4,3.8-13.2,7.1-20,9.8C546.4,619.8,544.7,620.1,543,620.1z M561.5,595.4
						c-0.5,0-1,0.1-1.5,0.4c-5.7,3.4-11.7,6.3-17.7,8.7c-1.5,0.6-2.2,2.3-1.7,3.8c0.2,0.7,0.7,1.3,1.4,1.6c0.4,0.2,0.8,0.3,1.3,0.3
						c0.4,0,0.8-0.1,1.2-0.2c6.4-2.5,12.6-5.5,18.6-9.1c0.7-0.4,1.3-1.1,1.4-1.9c0.2-0.8,0-1.5-0.4-2.1
						C563.5,595.9,562.5,595.4,561.5,595.4z"/>
					<path class="st6" d="M561.3,587.5c0.8,0,1.7,0.1,2.5,0.3l0,0c2.8,0.6,5.3,2.3,6.9,4.6c1.7,2.4,2.3,5.4,1.6,8.3
						c-0.7,2.9-2.6,5.5-5.3,7.1c-6.3,3.7-13,7-19.7,9.6c-1.4,0.5-2.8,0.8-4.3,0.8c-1.6,0-3.2-0.3-4.6-1c-2.7-1.3-4.6-3.5-5.5-6.4
						c-0.8-2.7-0.6-5.6,0.7-8.3c1.2-2.5,3.3-4.5,5.7-5.4c5.7-2.2,11.3-5,16.6-8.1C557.5,588,559.4,587.5,561.3,587.5 M543.2,612.1
						c0.6,0,1.3-0.1,1.9-0.4c6.5-2.5,12.8-5.6,18.9-9.2c1.2-0.7,2.1-1.9,2.4-3.2c0.3-1.3,0.1-2.6-0.6-3.7c-1-1.5-2.6-2.3-4.3-2.3
						c-0.9,0-1.7,0.2-2.5,0.7c-5.6,3.3-11.5,6.2-17.5,8.5c-2.5,1-3.7,3.8-2.9,6.3c0.4,1.2,1.3,2.2,2.5,2.8
						C541.8,612,542.5,612.1,543.2,612.1 M561.3,583.5c-2.6,0-5.2,0.7-7.4,2c-5.1,3-10.5,5.7-16,7.8c-3.4,1.3-6.2,4-7.9,7.4
						c-1.7,3.5-2,7.5-0.9,11.1c1.2,4,3.9,7.1,7.6,8.9c1.9,0.9,4.1,1.4,6.3,1.4c2,0,3.9-0.4,5.7-1.1c7-2.7,13.8-6.1,20.3-9.9
						c3.6-2.2,6.3-5.7,7.2-9.7c0.9-4,0.1-8.1-2.3-11.5c-2.2-3.1-5.5-5.3-9.3-6.1C563.5,583.6,562.4,583.5,561.3,583.5L561.3,583.5z
						 M543.2,608.1c-0.1,0-0.3,0-0.4-0.1c-0.3-0.1-0.3-0.3-0.4-0.4c-0.2-0.6,0-1.2,0.5-1.4c6.2-2.4,12.2-5.4,18-8.8
						c0.1-0.1,0.3-0.1,0.5-0.1c0.4,0,0.7,0.2,0.9,0.5c0.1,0.1,0.2,0.3,0.1,0.6c-0.1,0.3-0.2,0.5-0.5,0.7c-5.9,3.5-12,6.5-18.3,8.9
						C543.5,608.1,543.4,608.1,543.2,608.1L543.2,608.1z"/>
				</g>
				<g>
					<path class="st13" d="M496.8,628.8c-3.5,0-7.1-0.1-10.5-0.4c-3.7-0.3-7.1-2-9.3-4.8c-2.2-2.7-3.2-6.2-2.6-9.7
						c0.5-3.3,2.3-6.3,4.9-8.4c2.3-1.9,5.2-2.9,8-2.9c0.3,0,0.6,0,0.9,0c2.8,0.2,5.8,0.3,8.6,0.3c3.2,0,6.4-0.1,9.6-0.4
						c0.3,0,0.7,0,1,0c2.8,0,5.7,1,8,2.8c2.7,2.1,4.4,5.1,5,8.4c0.6,3.5-0.3,7-2.5,9.7c-2.2,2.8-5.6,4.5-9.3,4.8
						C504.6,628.7,500.7,628.8,496.8,628.8z M487.2,612.6c-1.5,0-2.8,1.2-3,2.7c-0.1,0.7,0.1,1.5,0.6,2c0.5,0.6,1.3,1,2.2,1.1
						c3.2,0.2,6.5,0.4,9.8,0.4c3.6,0,7.3-0.2,10.9-0.4c0.9-0.1,1.6-0.5,2.2-1.1c0.5-0.6,0.7-1.3,0.6-2.1c-0.2-1.5-1.5-2.7-3-2.7
						c-0.1,0-0.2,0-0.2,0c-3.4,0.3-6.9,0.4-10.4,0.4c-3.1,0-6.3-0.1-9.4-0.3C487.4,612.6,487.3,612.6,487.2,612.6z"/>
					<path class="st6" d="M507.3,604.6c2.4,0,4.7,0.8,6.7,2.4l0,0c2.3,1.8,3.8,4.3,4.2,7.1c0.5,2.9-0.3,5.8-2.1,8.1
						c-1.9,2.3-4.7,3.8-7.9,4.1c-3.8,0.3-7.7,0.5-11.5,0.5c-3.5,0-6.9-0.1-10.4-0.4c-3.1-0.2-6-1.7-7.9-4c-1.9-2.3-2.7-5.2-2.2-8.1
						c0.4-2.8,1.9-5.3,4.2-7.2c2-1.6,4.4-2.5,6.8-2.5c0.2,0,0.5,0,0.7,0c2.9,0.2,5.8,0.3,8.8,0.3c3.3,0,6.5-0.1,9.7-0.4
						C506.8,604.6,507.1,604.6,507.3,604.6 M496.8,611c-3.1,0-6.2-0.1-9.2-0.3c-0.1,0-0.2,0-0.4,0c-2.5,0-4.6,1.9-5,4.5
						c-0.2,1.3,0.2,2.5,1,3.6c0.9,1.1,2.1,1.7,3.6,1.8c3.3,0.2,6.6,0.4,9.9,0.4c3.7,0,7.4-0.2,11-0.5l0,0c1.4-0.1,2.7-0.8,3.5-1.9
						c0.8-1,1.2-2.3,1-3.6c-0.3-2.6-2.5-4.4-5-4.4c-0.1,0-0.3,0-0.4,0C503.6,610.8,500.2,611,496.8,611 M507.3,600.6
						c-0.4,0-0.8,0-1.1,0c-3.1,0.3-6.3,0.4-9.4,0.4c-2.8,0-5.7-0.1-8.5-0.3c-0.3,0-0.7,0-1,0c-3.3,0-6.6,1.2-9.3,3.3
						c-3,2.5-5,5.9-5.6,9.6c-0.6,4.1,0.4,8.1,3,11.3c2.6,3.2,6.5,5.2,10.7,5.5c3.5,0.3,7.1,0.4,10.7,0.4c4,0,7.9-0.2,11.9-0.5
						c4.2-0.3,8.1-2.4,10.7-5.6c2.6-3.2,3.6-7.2,2.9-11.3c-0.6-3.7-2.6-7.1-5.7-9.6l0,0l0,0C513.9,601.8,510.6,600.6,507.3,600.6
						L507.3,600.6z M496.8,615c3.5,0,7.1-0.1,10.6-0.4c0,0,0,0,0.1,0c0.5,0,0.9,0.4,1,1c0,0.1,0,0.3-0.2,0.5
						c-0.2,0.2-0.4,0.3-0.7,0.4c-3.5,0.3-7.2,0.4-10.7,0.4c-3.2,0-6.5-0.1-9.6-0.4c-0.3,0-0.6-0.1-0.8-0.4c-0.2-0.2-0.2-0.4-0.2-0.5
						c0.1-0.6,0.5-1,1-1c0,0,0,0,0.1,0C490.4,614.9,493.6,615,496.8,615L496.8,615z"/>
				</g>
				<g>
					<path class="st13" d="M451.5,620.5c-1.7,0-3.3-0.3-4.9-0.9c-7-2.7-13.7-5.9-20.1-9.6c-3.2-1.8-5.5-4.9-6.3-8.3
						c-0.8-3.4-0.2-6.9,1.9-9.9c1.9-2.7,4.8-4.6,8.1-5.4c1-0.2,2-0.3,3-0.3c2.2,0,4.4,0.6,6.3,1.7c5.2,3,10.7,5.6,16.4,7.8
						c3,1.1,5.4,3.4,6.9,6.4c1.5,3.1,1.8,6.5,0.9,9.7c-1,3.4-3.3,6.2-6.5,7.7C455.4,620.1,453.5,620.5,451.5,620.5z M433,595.9
						c-1.1,0-2,0.5-2.6,1.4c-0.4,0.6-0.5,1.4-0.3,2.1c0.2,0.8,0.7,1.5,1.5,1.9c5.9,3.4,12.2,6.4,18.7,8.9c0.4,0.1,0.8,0.2,1.1,0.2
						c0.4,0,0.9-0.1,1.3-0.3c0.7-0.3,1.2-0.9,1.4-1.6c0.5-1.6-0.3-3.3-1.7-3.8c-6.2-2.4-12.2-5.2-17.8-8.5
						C434,596,433.5,595.9,433,595.9z"/>
					<path class="st6" d="M433.2,588c1.9,0,3.7,0.5,5.2,1.4c5.3,3.1,10.9,5.7,16.7,8l0,0c2.5,1,4.5,2.9,5.8,5.4
						c1.3,2.6,1.5,5.5,0.7,8.3c-0.8,2.9-2.8,5.2-5.4,6.4c-1.5,0.7-3.1,1.1-4.7,1.1c-1.4,0-2.8-0.3-4.2-0.8
						c-6.9-2.6-13.5-5.8-19.8-9.5c-2.7-1.6-4.7-4.1-5.4-7.1c-0.7-2.9-0.1-5.8,1.6-8.3c1.6-2.3,4.1-4,6.9-4.6
						C431.5,588.1,432.4,588,433.2,588 M451.3,612.5c0.7,0,1.5-0.2,2.1-0.5c1.2-0.6,2.1-1.6,2.5-2.8l0,0c0.8-2.6-0.4-5.4-2.9-6.3
						c-6.1-2.3-12-5.1-17.5-8.4c-0.8-0.4-1.6-0.7-2.5-0.7c-1.7,0-3.3,0.8-4.3,2.4c-0.7,1.1-0.9,2.4-0.6,3.7c0.3,1.3,1.2,2.5,2.4,3.2
						c6,3.5,12.4,6.5,19,9C450.1,612.4,450.7,612.5,451.3,612.5 M433.2,584c-1.2,0-2.3,0.1-3.5,0.4c-3.8,0.9-7.1,3.1-9.3,6.2
						c-2.4,3.4-3.1,7.5-2.2,11.5c0.9,4,3.6,7.5,7.3,9.6c6.5,3.7,13.3,7,20.4,9.7c1.8,0.7,3.7,1,5.6,1c2.2,0,4.5-0.5,6.4-1.4
						c3.7-1.8,6.4-4.9,7.5-8.9c1.1-3.7,0.7-7.6-1-11.1c-1.7-3.5-4.5-6.1-7.9-7.4c-5.6-2.1-11-4.7-16.1-7.7
						C438.3,584.7,435.8,584,433.2,584L433.2,584z M451.3,608.5c-0.1,0-0.3,0-0.4-0.1c-6.4-2.4-12.6-5.4-18.4-8.8
						c-0.3-0.2-0.5-0.4-0.5-0.7c-0.1-0.3,0-0.4,0.1-0.6c0.2-0.3,0.6-0.5,0.9-0.5c0.2,0,0.3,0,0.5,0.1c5.7,3.3,11.8,6.2,18.1,8.6
						c0.5,0.2,0.7,0.8,0.6,1.3c0,0.1-0.1,0.3-0.4,0.4C451.6,608.5,451.5,608.5,451.3,608.5L451.3,608.5z"/>
				</g>
				<g>
					<path class="st13" d="M404.3,589.1c-3.6,0-7-1.5-9.6-4.2c-5.1-5.4-9.8-11.2-14-17.3c-2.1-3-2.8-6.8-2.1-10.2
						c0.7-3.5,2.9-6.3,6-8.1c2-1.1,4.3-1.7,6.6-1.7c1,0,2,0.1,3,0.3c3.2,0.7,6,2.6,7.8,5.2c3.4,5,7.2,9.8,11.4,14.2
						c2.2,2.3,3.4,5.4,3.4,8.7c0,3.4-1.2,6.6-3.4,9.1C411.1,587.6,407.9,589.1,404.3,589.1L404.3,589.1z M391.4,557.3
						c-0.6,0-1.2,0.2-1.7,0.5c-0.6,0.4-1.1,1-1.2,1.8c-0.2,0.8,0,1.7,0.5,2.4c3.9,5.7,8.2,11.1,13,16.1c0.6,0.6,1.4,1,2.2,1
						c0.8,0,1.5-0.3,2-0.8c1.1-1.2,1.2-3,0.1-4.2c-4.5-4.8-8.7-10-12.4-15.4C393.3,557.8,392.4,557.3,391.4,557.3z"/>
					<path class="st6" d="M391.3,549.4c0.9,0,1.7,0.1,2.6,0.3c2.7,0.6,5.1,2.2,6.6,4.4l0,0c3.5,5.1,7.4,9.9,11.6,14.4
						c1.8,1.9,2.8,4.6,2.9,7.4c0,2.9-1,5.7-2.9,7.8c-2,2.2-4.7,3.4-7.6,3.4c0,0,0,0,0,0c-3,0-6-1.3-8.1-3.6
						c-5-5.3-9.6-11.1-13.8-17.1c-1.8-2.6-2.4-5.7-1.8-8.7c0.6-2.9,2.4-5.3,5-6.8C387.4,549.9,389.3,549.4,391.3,549.4 M404.2,581
						c1.3,0,2.5-0.5,3.4-1.4l0,0c1.9-2,1.9-5,0.1-7c-4.4-4.7-8.5-9.8-12.2-15.1c-1-1.4-2.5-2.1-4.1-2.1c-0.9,0-1.9,0.2-2.7,0.8
						c-1.1,0.7-1.9,1.8-2.1,3c-0.3,1.4,0,2.7,0.8,3.9c3.9,5.8,8.4,11.3,13.2,16.4C401.5,580.4,402.8,581,404.2,581
						C404.2,581,404.2,581,404.2,581 M391.3,545.4c-2.7,0-5.3,0.7-7.6,2c-3.6,2-6.1,5.4-6.9,9.4c-0.9,4,0,8.3,2.4,11.8
						c4.2,6.2,9,12.1,14.1,17.6c2.9,3.1,6.9,4.8,11,4.8h0l0.1,0c4.1,0,7.9-1.7,10.6-4.8c2.5-2.8,3.9-6.5,3.9-10.4
						c0-3.8-1.4-7.4-3.9-10.1c-4.1-4.3-7.8-9-11.2-13.9l0,0l0-0.1c-2.1-3-5.3-5.2-9-6C393.6,545.6,392.4,545.4,391.3,545.4
						L391.3,545.4z M404.2,581l0-4c-0.3,0-0.5-0.1-0.8-0.4c-4.7-4.9-9-10.3-12.8-15.9c-0.2-0.3-0.2-0.5-0.2-0.8
						c0.1-0.3,0.2-0.4,0.3-0.5c0.2-0.1,0.4-0.2,0.6-0.2c0.2,0,0.6,0,0.8,0.4c3.8,5.5,8,10.8,12.6,15.6c0.4,0.4,0.3,1-0.1,1.5
						c-0.1,0.1-0.2,0.2-0.5,0.2h0V581L404.2,581z"/>
				</g>
				<g>
					<path class="st13" d="M375.1,540.2c-1.8,0-3.6-0.4-5.3-1.2c-3.2-1.5-5.7-4.4-6.8-8c-2.2-7.1-3.9-14.4-5-21.7
						c-0.5-3.6,0.4-7.3,2.6-10.1c2.2-2.8,5.3-4.4,8.9-4.7c0.3,0,0.6,0,0.9,0c3,0,6,1.1,8.4,3c2.6,2.1,4.3,4.9,4.8,8.1
						c0.9,6,2.3,11.9,4.1,17.7c1,3,0.7,6.3-0.7,9.3c-1.5,3.1-4,5.5-7,6.7C378.3,539.9,376.7,540.2,375.1,540.2z M370.6,504.5
						c-0.1,0-0.2,0-0.3,0c-0.7,0.1-1.4,0.4-1.9,1c-0.5,0.7-0.7,1.5-0.6,2.3c1,6.8,2.6,13.6,4.7,20.2c0.3,0.8,0.8,1.5,1.6,1.8
						c0.4,0.2,0.8,0.3,1.2,0.3c0.3,0,0.6-0.1,0.9-0.2c1.6-0.6,2.4-2.2,1.9-3.8c-2-6.3-3.5-12.7-4.5-19.2
						C373.4,505.5,372.1,504.5,370.6,504.5z"/>
					<path class="st6" d="M370.3,496.5c2.6,0,5.1,0.9,7.2,2.5c2.2,1.8,3.6,4.2,4,6.8c0.9,6.1,2.3,12.1,4.2,18
						c0.8,2.5,0.6,5.3-0.6,7.9l0,0c-1.3,2.6-3.4,4.6-6,5.7c-1.3,0.5-2.6,0.8-4,0.8c-1.5,0-3-0.3-4.5-1c-2.7-1.3-4.8-3.8-5.7-6.8
						c-2.2-7-3.9-14.2-5-21.4c-0.5-3.1,0.3-6.2,2.2-8.6c1.8-2.3,4.5-3.7,7.4-3.9C369.8,496.5,370.1,496.5,370.3,496.5 M375.3,532.1
						c0.6,0,1.1-0.1,1.6-0.3l0,0c2.5-1,3.9-3.7,3.1-6.2c-2-6.2-3.4-12.5-4.4-18.9c-0.4-2.5-2.5-4.2-5-4.2c-0.2,0-0.3,0-0.5,0
						c-1.3,0.1-2.4,0.8-3.3,1.8c-0.9,1.1-1.2,2.5-1,3.9c1,6.9,2.6,13.8,4.7,20.5c0.4,1.4,1.4,2.4,2.6,3
						C373.8,532,374.5,532.1,375.3,532.1 M370.3,492.5c-0.3,0-0.7,0-1,0c-4.1,0.3-7.8,2.2-10.3,5.4c-2.5,3.2-3.6,7.5-3,11.7
						c1.1,7.4,2.8,14.8,5.1,22c1.3,4,4.1,7.4,7.8,9.2c2,1,4,1.4,6.2,1.4c1.9,0,3.7-0.4,5.5-1.1c3.5-1.5,6.4-4.2,8.1-7.7
						c1.6-3.5,1.9-7.3,0.8-10.8c-1.8-5.7-3.2-11.5-4-17.4c-0.5-3.6-2.5-7-5.5-9.3C377.2,493.7,373.8,492.5,370.3,492.5L370.3,492.5z
						 M375.3,528.1c-0.1,0-0.2,0-0.3-0.1c-0.3-0.1-0.4-0.3-0.5-0.6c-2.1-6.5-3.6-13.1-4.6-19.8c0-0.3,0-0.6,0.2-0.8
						c0.2-0.2,0.4-0.3,0.5-0.3c0,0,0.1,0,0.1,0c0.5,0,1,0.4,1.1,0.8c1,6.6,2.5,13.2,4.5,19.5c0.2,0.5-0.2,1.1-0.7,1.3
						C375.4,528.1,375.3,528.1,375.3,528.1L375.3,528.1z"/>
				</g>
			</g>
			<g>
				<g>
					<path class="st13" d="M604.8,562.5c-1.2,0-2.4-0.4-3.3-1c-2.7-1.9-3.5-5.5-1.8-8.3c2.4-3.8,4.6-7.8,6.6-12
						c1.9-3.9,3.6-7.9,5-12c0.9-2.4,3.2-4,5.8-4c0.6,0,1.2,0.1,1.9,0.3c1.5,0.5,2.8,1.6,3.5,3c0.8,1.5,0.8,3.2,0.3,4.8
						c-1.6,4.5-3.5,8.9-5.5,13.2c-2.2,4.6-4.7,9-7.3,13.2C608.8,561.4,606.9,562.5,604.8,562.5C604.8,562.5,604.8,562.5,604.8,562.5
						z"/>
					<path class="st6" d="M617.1,527.2c0.4,0,0.8,0.1,1.3,0.2c2.1,0.7,3.3,3,2.5,5.3c-1.6,4.4-3.4,8.8-5.4,13
						c-2.2,4.4-4.5,8.8-7.2,13c-0.8,1.3-2.1,2-3.5,2c-0.8,0-1.5-0.2-2.2-0.7c-1.9-1.3-2.4-3.8-1.2-5.6c2.5-3.9,4.7-8,6.7-12.2
						c1.9-4,3.6-8,5.1-12.2C613.8,528.2,615.4,527.2,617.1,527.2 M617.1,523.2c-3.4,0-6.5,2.2-7.7,5.4c-1.4,4-3.1,8-4.9,11.8
						c-2,4.1-4.2,8-6.5,11.8c-2.3,3.7-1.3,8.6,2.3,11c1.3,0.9,2.9,1.4,4.5,1.4c2.8,0,5.4-1.4,6.9-3.8c2.7-4.2,5.1-8.7,7.4-13.3
						c2.1-4.3,4-8.9,5.6-13.4c0.7-2.1,0.6-4.4-0.4-6.4c-1-2-2.7-3.4-4.7-4C618.7,523.3,617.9,523.2,617.1,523.2L617.1,523.2z"/>
				</g>
				<g>
					<path class="st13" d="M623.6,508.9c-0.3,0-0.6,0-0.9-0.1c-3.3-0.5-5.6-3.4-5.2-6.7c0.5-4.5,0.8-9.1,0.8-13.7l0-1.3l12.1-4.9
						l0,3c0,5.3-0.3,13.5-0.8,18.3C629.3,506.6,626.7,508.9,623.6,508.9L623.6,508.9z"/>
					<path class="st6" d="M628.4,485.2c0,4.9-0.3,13.2-0.8,18.1c-0.2,2.1-2,3.7-4,3.7c-0.2,0-0.4,0-0.6,0c-2.2-0.3-3.8-2.4-3.5-4.5
						c0.5-4.6,0.8-9.2,0.8-13.9L628.4,485.2 M632.5,479.2l-5.5,2.2l-8.1,3.3l-2.5,1l0,2.7c0,4.5-0.3,9-0.7,13.4
						c-0.5,4.3,2.5,8.3,6.9,8.9c0.4,0.1,0.8,0.1,1.2,0.1c4.1,0,7.5-3.1,8-7.2c0.5-4.9,0.8-13.2,0.8-18.5L632.5,479.2L632.5,479.2z"
						/>
				</g>
				<g>
					<path class="st13" d="M564.6,602.6c-2.1,0-4.1-1.1-5.2-3c-1.7-2.9-0.8-6.5,2-8.3c3.8-2.4,7.6-5.1,11.1-7.9
						c3.4-2.7,6.6-5.6,9.7-8.7c1.1-1.1,2.7-1.8,4.3-1.8c1.6,0,3.1,0.6,4.2,1.7c1.2,1.1,1.8,2.6,1.9,4.2c0,1.7-0.6,3.3-1.8,4.5
						c-3.4,3.4-7,6.6-10.7,9.5c-3.9,3.1-8,6-12.3,8.7C566.9,602.3,565.7,602.6,564.6,602.6L564.6,602.6z"/>
					<path class="st6" d="M586.6,575.1c1,0,2.1,0.4,2.9,1.1c1.6,1.5,1.7,4.2,0,5.8c-3.3,3.3-6.9,6.4-10.5,9.4
						c-3.9,3.1-7.9,5.9-12.1,8.6c-0.7,0.4-1.5,0.7-2.2,0.7c-1.4,0-2.7-0.7-3.4-2c-1.1-1.9-0.5-4.4,1.3-5.6c3.9-2.5,7.7-5.2,11.3-8
						c3.4-2.7,6.7-5.7,9.9-8.8C584.5,575.5,585.5,575.1,586.6,575.1 M586.6,571.1c-2.2,0-4.2,0.8-5.7,2.3c-3,3-6.3,5.9-9.6,8.5
						c-3.5,2.8-7.2,5.4-11,7.8c-3.7,2.3-4.9,7.1-2.7,11c1.4,2.4,4.1,4,6.9,4c1.5,0,3-0.4,4.4-1.3c4.3-2.7,8.5-5.7,12.4-8.8
						c3.7-3,7.4-6.2,10.8-9.6c1.6-1.6,2.5-3.7,2.4-5.9c0-2.2-0.9-4.2-2.5-5.7C590.6,571.9,588.6,571.1,586.6,571.1L586.6,571.1z"/>
				</g>
				<g>
					<path class="st13" d="M511,621.4c-3.2,0-5.8-2.4-6.1-5.5c-0.2-3.3,2.1-6.2,5.4-6.6c4.5-0.5,9-1.3,13.5-2.3
						c4.2-1,8.4-2.1,12.5-3.6c0.6-0.2,1.3-0.3,2-0.3c2.5,0,4.8,1.6,5.7,3.9c0.6,1.5,0.5,3.2-0.2,4.6c-0.7,1.5-2,2.7-3.6,3.2
						c-4.5,1.6-9.1,2.9-13.8,3.9c-4.9,1.1-9.9,2-14.8,2.5C511.5,621.3,511.2,621.4,511,621.4C511,621.4,511,621.4,511,621.4z"/>
					<path class="st6" d="M538.3,605.1c1.7,0,3.2,1,3.9,2.7c0.8,2.1-0.3,4.5-2.5,5.2c-4.4,1.5-9,2.8-13.6,3.9
						c-4.8,1.1-9.7,1.9-14.6,2.5c-0.2,0-0.3,0-0.5,0c-2.1,0-3.9-1.6-4.1-3.7c-0.2-2.2,1.5-4.2,3.6-4.4c4.6-0.5,9.2-1.3,13.7-2.3
						c4.3-1,8.5-2.2,12.7-3.6C537.4,605.2,537.9,605.1,538.3,605.1 M538.3,601.1c-0.9,0-1.8,0.1-2.6,0.4c-4,1.4-8.2,2.6-12.3,3.5
						c-4.4,1-8.9,1.8-13.2,2.2c-4.4,0.5-7.5,4.3-7.2,8.7c0.3,4.1,3.8,7.4,8,7.4c0.3,0,0.6,0,0.9-0.1c5-0.5,10-1.4,15-2.5
						c4.7-1.1,9.4-2.4,14-4c2.1-0.7,3.8-2.3,4.8-4.3c0.9-2,1-4.2,0.2-6.2C544.7,603.2,541.6,601.1,538.3,601.1L538.3,601.1z"/>
				</g>
				<g>
					<path class="st13" d="M481.9,621.3c-0.2,0-0.5,0-0.7,0c-4.7-0.6-9.5-1.4-14.1-2.4c-4.8-1.1-9.7-2.5-14.5-4.2
						c-1.6-0.6-2.9-1.7-3.6-3.2c-0.7-1.5-0.7-3.1-0.1-4.6c0.9-2.4,3.2-3.9,5.7-3.9c0.7,0,1.4,0.1,2,0.3c4.4,1.5,8.8,2.8,13.1,3.8
						c4.2,1,8.5,1.7,12.8,2.2c3.3,0.4,5.6,3.3,5.4,6.6C487.7,618.9,485,621.3,481.9,621.3L481.9,621.3z"/>
					<path class="st6" d="M454.6,604.9c0.4,0,0.9,0.1,1.3,0.2c4.4,1.5,8.8,2.8,13.3,3.8c4.3,1,8.7,1.7,13,2.2
						c2.2,0.3,3.8,2.2,3.6,4.5c-0.2,2.1-1.9,3.7-4.1,3.7c-0.2,0-0.3,0-0.5,0c-4.7-0.5-9.3-1.3-13.9-2.4c-4.8-1.1-9.6-2.5-14.2-4.1
						c-2.2-0.8-3.3-3.2-2.5-5.3C451.4,605.9,453,604.9,454.6,604.9 M454.6,600.9c-3.4,0-6.3,2-7.6,5.2c-0.8,2-0.7,4.2,0.2,6.2
						c0.9,2,2.6,3.6,4.7,4.3c4.9,1.7,9.8,3.1,14.7,4.2c4.7,1.1,9.5,1.9,14.3,2.5c0.3,0,0.6,0.1,1,0.1c4.2,0,7.7-3.2,8-7.4
						c0.3-4.4-2.8-8.2-7.1-8.7c-4.2-0.5-8.5-1.2-12.6-2.2c-4.3-1-8.6-2.2-12.9-3.7C456.4,601,455.5,600.9,454.6,600.9L454.6,600.9z"
						/>
				</g>
				<g>
					<path class="st13" d="M428.4,602.3c-1.2,0-2.3-0.3-3.3-1c-4-2.5-7.9-5.3-11.6-8.3c-3.8-3.1-7.6-6.4-11.2-10
						c-1.2-1.2-1.8-2.8-1.8-4.5c0-1.6,0.7-3.1,1.9-4.2c1.1-1.1,2.6-1.6,4.2-1.6c1.6,0,3.2,0.6,4.3,1.8c3.3,3.3,6.7,6.3,10.2,9.1
						c3.4,2.7,7,5.3,10.6,7.6c2.8,1.8,3.6,5.4,2,8.3C432.5,601.2,430.5,602.3,428.4,602.3C428.4,602.3,428.4,602.3,428.4,602.3z"/>
					<path class="st6" d="M406.5,574.6c1.1,0,2.1,0.4,2.9,1.2c3.3,3.3,6.7,6.4,10.4,9.3c3.4,2.8,7,5.3,10.8,7.7
						c1.8,1.2,2.4,3.6,1.3,5.6c-0.7,1.2-2.1,1.9-3.4,1.9c-0.8,0-1.5-0.2-2.2-0.7c-4-2.5-7.8-5.3-11.5-8.2c-3.9-3.1-7.5-6.4-11-9.9
						c-1.7-1.7-1.6-4.3,0-5.8C404.5,575,405.5,574.6,406.5,574.6 M406.5,570.6c-2.1,0-4,0.8-5.6,2.2c-1.6,1.5-2.5,3.5-2.5,5.7
						c0,2.2,0.8,4.4,2.4,5.9c3.7,3.6,7.5,7.1,11.4,10.2c3.8,3.1,7.8,5.9,11.8,8.4c1.3,0.8,2.8,1.3,4.4,1.3c2.8,0,5.5-1.5,6.9-3.9
						c2.2-3.8,1.1-8.6-2.6-11c-3.5-2.2-7-4.8-10.4-7.4c-3.4-2.7-6.8-5.7-10-9C410.7,571.4,408.7,570.6,406.5,570.6L406.5,570.6z"/>
				</g>
				<g>
					<path class="st13" d="M388.4,561.9c-2.1,0-4.1-1.1-5.2-2.9c-2.5-4-4.8-8.2-6.9-12.5c-2.2-4.6-4.1-9.2-5.8-13.9
						c-0.6-1.6-0.5-3.3,0.3-4.8c0.7-1.5,2-2.5,3.5-3c0.6-0.2,1.2-0.3,1.8-0.3c2.6,0,4.9,1.6,5.8,4.1c1.5,4.2,3.2,8.5,5.2,12.6
						c1.9,3.9,4,7.7,6.3,11.4c1.7,2.8,0.9,6.5-1.8,8.3C390.8,561.6,389.6,561.9,388.4,561.9C388.4,561.9,388.4,561.9,388.4,561.9z"
						/>
					<path class="st6" d="M376.3,526.5c1.7,0,3.3,1.1,3.9,2.7c1.5,4.4,3.3,8.7,5.3,12.8c1.9,4,4,7.8,6.4,11.6
						c1.2,1.9,0.6,4.3-1.2,5.6c-0.7,0.5-1.4,0.7-2.2,0.7c-1.4,0-2.7-0.7-3.5-2c-2.5-4-4.8-8.1-6.8-12.3c-2.1-4.5-4-9-5.7-13.7
						c-0.8-2.2,0.4-4.6,2.6-5.2C375.4,526.6,375.8,526.5,376.3,526.5 M376.3,522.5c-0.8,0-1.6,0.1-2.4,0.4c-2.1,0.6-3.8,2.1-4.7,4
						c-1,2-1.1,4.3-0.4,6.4c1.7,4.7,3.6,9.5,5.8,14.1c2.1,4.4,4.5,8.6,7,12.7c1.5,2.4,4.1,3.9,6.9,3.9c1.6,0,3.1-0.5,4.4-1.4
						c3.6-2.5,4.7-7.3,2.4-11c-2.2-3.6-4.3-7.4-6.2-11.2c-2-4.1-3.7-8.2-5.1-12.4C382.8,524.7,379.7,522.5,376.3,522.5L376.3,522.5z
						"/>
				</g>
				<g>
					<path class="st13" d="M369.9,508.2c-3.1,0-5.6-2.4-6-5.5c-0.1-1.4-0.4-3-0.6-4.7c-0.6-4.4-1.2-9.4-1.2-12.8l0-2.8l13.2,4.7
						l0,1.4c0,4.3,0.2,8.7,0.7,13c0.3,3.3-2,6.2-5.3,6.7C370.4,508.2,370.1,508.2,369.9,508.2z"/>
					<path class="st6" d="M364.1,485.2l9.2,3.3c0,4.4,0.2,8.8,0.7,13.2c0.2,2.2-1.3,4.2-3.5,4.5c-0.2,0-0.4,0-0.6,0
						c-2,0-3.8-1.5-4-3.7C365.4,497.9,364.1,489.9,364.1,485.2 M360.1,479.5l0,5.7c0,3.6,0.6,8.6,1.2,13.1c0.2,1.7,0.4,3.4,0.6,4.7
						c0.4,4.1,3.9,7.3,8,7.3c0.4,0,0.8,0,1.1-0.1c4.4-0.6,7.4-4.5,7-8.9c-0.4-4.2-0.7-8.5-0.7-12.8l0-2.8l-2.6-1l-9.2-3.3
						L360.1,479.5L360.1,479.5z"/>
				</g>
			</g>
		</g>
		<polygon class="st14" points="627.9,276.9 373,276.9 364.3,276.9 364.3,235.9 627.9,235.9 		"/>
		<line class="st15" x1="367.3" y1="276.9" x2="459.4" y2="276.9"/>
		<line class="st15" x1="532.9" y1="276.9" x2="625.1" y2="276.9"/>
	</g>
</g>
</svg>
