<?xml version="1.0" encoding="utf-8"?>
<!-- Generator: Adobe Illustrator 25.2.0, SVG Export Plug-In . SVG Version: 6.00 Build 0)  -->
<svg version="1.1" id="Layer_1" xmlns="http://www.w3.org/2000/svg" xmlns:xlink="http://www.w3.org/1999/xlink" x="0px" y="0px"
	 viewBox="0 0 104.4 152.9" style="enable-background:new 0 0 104.4 152.9;" xml:space="preserve">
<style type="text/css">
	.st0{fill:#FFFFFF;}
	.st1{clip-path:url(#SVGID_2_);}
	.st2{fill:#1F1612;}
	.st3{fill:#5C3616;}
	.st4{fill:#E7AF22;}
	.st5{clip-path:url(#SVGID_4_);fill:#5C3616;}
	.st6{clip-path:url(#SVGID_6_);fill:#5C3616;}
</style>
<circle class="st0" cx="36.6" cy="64.7" r="12.6"/>
<circle class="st0" cx="66.4" cy="37" r="12.6"/>
<g>
	<defs>
		<rect id="SVGID_1_" x="-12" y="-8.5" width="116.4" height="168.8"/>
	</defs>
	<clipPath id="SVGID_2_">
		<use xlink:href="#SVGID_1_"  style="overflow:visible;"/>
	</clipPath>
	<g id="XMLID_4_" class="st1">
		
			<rect id="XMLID_19_" x="50.8" y="55.1" transform="matrix(0.7071 -0.7071 0.7071 0.7071 -26.6835 64.6544)" class="st2" width="27.8" height="18.9"/>
		<g id="XMLID_566_">
			<g id="XMLID_575_">
				<path id="XMLID_594_" class="st2" d="M28.3,63.5c-0.3,0.3-0.5,0.6-0.7,0.9c0.9-0.5,2-0.4,2.8,0.3c0.9,0.9,0.9,2.3,0,3.2
					c-0.9,0.9-2.3,0.9-3.2,0c-0.1-0.1-0.2-0.3-0.3-0.4c0.1,1.2,0.6,2.3,1.5,3.2c2,2,5.3,2,7.3,0s2-5.3,0-7.3
					C33.5,61.5,30.3,61.5,28.3,63.5z"/>
				<path id="XMLID_591_" class="st2" d="M56.8,35.2c0.9-0.5,2-0.4,2.8,0.3c0.9,0.9,0.9,2.3,0,3.2s-2.3,0.9-3.2,0
					c-0.1-0.1-0.2-0.3-0.3-0.4c0.1,1.2,0.6,2.3,1.5,3.2c2,2,5.3,2,7.3,0c2-2,2-5.3,0-7.3s-5.3-2-7.3,0C57.2,34.5,57,34.8,56.8,35.2z
					"/>
				<g id="XMLID_576_">
					<path id="XMLID_580_" class="st3" d="M73.9,14.6c0.8-1.4,1.2-3,1.2-4.7c0-5.4-4.4-9.7-9.7-9.7c-2.7,0-5.1,1.1-6.9,2.9
						c-1.8,1.8-2.9,4.2-2.9,6.9c0,2.2,0.7,4.2,1.9,5.8c-5.1,1-10,2.7-14.5,5.1c-0.1-0.5-0.1-1-0.1-1.5s0-1.1,0-1.6
						C43.6,9.4,49,0,49,0c-8.5,5.2-14.7,11.3-19.4,17.6C29.4,12,30.2,7.1,30.2,7.1C19,21.3,15.8,36.2,15.5,48.1c0,1.6,0,3.1,0,4.5
						c0.1,1.5,0.2,2.9,0.3,4.2c0,0.4,0,0.6,0,0.6c-1.6-1.2-3.6-1.9-5.8-1.9c-2.7,0-5.1,1.1-6.9,2.9c-1.8,1.8-2.9,4.2-2.9,6.9
						c0,5.4,4.4,9.7,9.7,9.7c1.7,0,3.3-0.4,4.7-1.2c0.8,14,5.9,28.6,15,41.6c3,4.2,6.4,8.3,10.2,12.2c7.5,7.5,15.9,13.4,24.7,17.6
						c0.7,0.3,1.5,0.6,2.5,1c1.1,0.4,2.3,0.8,3.7,1c1.3,0.2,2.8,0.4,4.3,0.2c0.7-0.1,1.4-0.3,2.1-0.5c0.7-0.3,1.3-0.6,1.9-1.1
						c1.2-0.9,2.2-2.3,2.9-3.8l0.1-0.1v-0.1l0,0l0,0l0.1-0.3l0.3-0.7c0.1-0.3,0.1-0.4,0.1-0.6c0-0.2,0.1-0.3,0.1-0.5
						c0.1-0.8,0.1-1.6-0.1-2.4c-0.3-1.6-1.2-3.2-2.4-4.6c-1.1-1.4-2.5-2.7-3.9-3.8c-1.4-1.1-2.9-2.2-4.3-3.1
						c-0.1-0.1-0.2-0.1-0.3-0.2c-1.3-0.8-2.6-1.6-3.8-2.2c-2.6-1.4-4.9-2.5-6.5-3.2s-2.5-1.1-2.5-1.1s1,0.2,2.7,0.7s4.1,1.2,6.9,2.4
						c2.4,1,5.2,2.2,8,3.9c0.4,0.3,0.9,0.6,1.3,0.8c1.6,1.1,3.2,2.4,4.7,3.9c0.4,0.4,0.7,0.8,1.1,1.2c0.3,0.4,0.7,0.9,0.9,1.4
						l0.4,0.7l0.2,0.4l0.2,0.4l0.3,0.8c0.1,0.3,0.2,0.6,0.2,0.8c0.2,0.6,0.2,1.2,0.3,1.8c0.1,0.3,0,0.6,0,0.9v0.9l-0.2,1
						c-0.1,0.3-0.1,0.7-0.2,0.9l-0.2,0.7l-0.1,0.4l-0.1,0.1l0,0l0,0v0.1l-0.1,0.2c-0.8,2-2.1,4-3.9,5.3c-0.9,0.7-1.9,1.2-2.9,1.6
						c0,0,0,0-0.1,0c0.4,0.1,0.8,0.2,1.2,0.3c10,2.6,20.1,3,29.4,1.3c2-0.4,3.8-1.4,5.2-2.7c2.2-2.2,3.3-5.4,2.8-8.6
						c-1-6.3,0.9-13,5.8-17.9s11.6-6.8,17.9-5.8c3.3,0.5,6.4-0.6,8.6-2.8c1.4-1.4,2.4-3.2,2.8-5.3c1.8-9.7,1.2-20.1-1.6-30.5
						c0,0,0,0,0,0.1c-0.4,1-0.9,2-1.6,2.9c-1.4,1.8-3.3,3.1-5.3,3.9l-0.2,0.1h-0.1l0,0l0,0l-0.1,0.1l-0.4,0.1l-0.7,0.2
						c-0.2,0.1-0.6,0.1-0.9,0.2l-1,0.2h-0.9c-0.3,0-0.6,0-0.9,0c-0.6-0.1-1.2-0.1-1.8-0.3c-0.3-0.1-0.6-0.1-0.8-0.2l-0.8-0.3
						l-0.4-0.2L134,85l-0.7-0.4c-0.5-0.3-0.9-0.6-1.4-0.9c-0.4-0.4-0.8-0.7-1.2-1.1c-1.5-1.5-2.8-3-3.9-4.7
						c-2.2-3.2-3.6-6.5-4.8-9.3c-1.1-2.8-1.9-5.2-2.4-6.9s-0.7-2.7-0.7-2.7s0.4,0.9,1.1,2.5s1.8,3.8,3.2,6.5
						c0.7,1.3,1.5,2.7,2.4,4.1s1.9,2.9,3.1,4.3c1.1,1.4,2.4,2.8,3.8,3.9c1.4,1.2,3,2,4.6,2.4c0.8,0.2,1.6,0.2,2.4,0.1
						c0.2,0,0.3-0.1,0.5-0.1s0.3,0,0.6-0.1l0.7-0.3l0.3-0.1l0,0l0,0h0.1l0.1-0.1c1.6-0.7,2.9-1.7,3.8-2.9c0.5-0.6,0.8-1.2,1.1-1.9
						c0.2-0.7,0.4-1.4,0.5-2.1c0.2-1.4,0-2.9-0.2-4.3s-0.6-2.6-1-3.7c-0.3-0.9-0.6-1.7-0.9-2.4c-4.2-8.8-10.1-17.2-17.6-24.7
						C112,24.2,92.5,15.6,73.9,14.6z M46.3,64.2c-0.3,1.1-0.6,2.3-0.8,3.6C45.3,69,45,70,44.5,71c-0.3,0.5-0.7,1-1.2,1.4
						c-4,4-10.6,4-14.6,0s-4-10.6,0-14.6s10.6-4,14.6,0C45.1,59.6,46.1,61.9,46.3,64.2z M72.6,28.5c4,4,4,10.6,0,14.6
						c-0.4,0.4-0.9,0.8-1.4,1.2c-1,0.5-2.1,0.9-3.2,1c-1.3,0.2-2.5,0.5-3.7,0.8c-2.3-0.2-4.6-1.2-6.4-3c-4-4-4-10.6,0-14.6
						C62,24.5,68.5,24.5,72.6,28.5z M13.2,68.4c-1.8,1.8-4.7,1.8-6.5,0s-1.8-4.7,0-6.5s4.7-1.8,6.5,0S15,66.6,13.2,68.4z
						 M113.3,113.2c-8,8-9.5,19.3-17.1,11.7c-7.7-7.7-9.2-22.1-1.3-30.1c7.9-7.9,22.4-6.4,30.1,1.3
						C132.6,103.7,121.3,105.2,113.3,113.2z M68.6,13.1c-1.8,1.8-4.7,1.8-6.5,0s-1.8-4.7,0-6.5s4.7-1.8,6.5,0S70.4,11.3,68.6,13.1z"
						/>
					<path id="XMLID_1_" class="st2" d="M73.4,65.9c-0.4,0.4-2.3,3.2-2.7,3.6c-0.4,0.4-0.7,0.8-1,1.2c-4.4,5.2-9.4,13.9-7,16.7
						c2,2.1,9,5.5,11.5,6c4.6,1.2,12.6,0.2,16.1-3.7c3.6-3.9,4.3-10.9,3.2-15.9c-0.6-2.7-3.2-8-5-10C86.2,61,78.3,61.1,73.4,65.9z"
						/>
				</g>
			</g>
			<g id="XMLID_567_">
				<g id="XMLID_568_">
					<path id="XMLID_574_" class="st4" d="M94.9,94.8c-8,8-6.4,22.4,1.3,30.1s9.2-3.7,17.1-11.7c7.9-7.9,19.3-9.5,11.7-17.1
						C117.3,88.4,102.9,86.8,94.9,94.8z"/>
					<path id="XMLID_570_" class="st4" d="M6.7,62c-1.8,1.8-1.8,4.7,0,6.5s4.7,1.8,6.5,0s1.8-4.7,0-6.5S8.5,60.2,6.7,62z"/>
					<path id="XMLID_569_" class="st4" d="M62.1,6.6c-1.8,1.8-1.8,4.7,0,6.5s4.7,1.8,6.5,0s1.8-4.7,0-6.5
						C66.8,4.8,63.9,4.8,62.1,6.6z"/>
				</g>
			</g>
		</g>
	</g>
</g>
<g>
	<defs>
		<rect id="SVGID_3_" x="-12" y="-8.5" width="116.4" height="168.8"/>
	</defs>
	<clipPath id="SVGID_4_">
		<use xlink:href="#SVGID_3_"  style="overflow:visible;"/>
	</clipPath>
	<path class="st5" d="M54.1,127.7l11,17c0,0,4.2,4.6,23.7,7.7c0.9-18.7,0.9-18.7,0.9-18.7L71,115.6l-16.4-6.8l-5.6,9.6"/>
</g>
<g>
	<defs>
		<rect id="SVGID_5_" x="-12" y="-8.5" width="116.4" height="168.8"/>
	</defs>
	<clipPath id="SVGID_6_">
		<use xlink:href="#SVGID_5_"  style="overflow:visible;"/>
	</clipPath>
	<rect x="98.8" y="150.1" class="st6" width="5.6" height="2.8"/>
</g>
<path class="st0" d="M69.2,76c0.3-1.1,0.5-2.3,0.7-3.4l6.7,6.7c1.6,1.6,1.7,3.9,0.3,5.3l-3.7,3.7c-1,1-2.6,1.2-4,0.6
	c-1.8-0.9-3.6-1.9-5.4-3.2C66.3,82.8,68.2,79.5,69.2,76z"/>
<path class="st0" d="M72.7,69.7c1.1-0.1,2.3-0.3,3.4-0.7c3.5-1,6.8-2.8,9.6-5.4c1.3,1.7,2.3,3.6,3.2,5.4c0.7,1.4,0.4,3-0.6,4
	l-3.7,3.7c-1.4,1.4-3.7,1.2-5.3-0.3L72.7,69.7z"/>
<path id="XMLID_577_" class="st2" d="M57.8,56c-0.3,0.3-0.6,0.5-0.9,0.8c-0.3,0.3-0.6,0.6-0.8,0.9c-3.6,3.9-5.9,8.4-3.9,10.5
	c1.6,1.6,3.4,2.6,5.4,3c3.7,0.9,7.8-0.1,10.6-3c2.9-2.9,3.9-6.9,3-10.6c-0.5-2-1.5-3.9-3-5.4C66.3,50,61.7,52.4,57.8,56z"/>
<path id="XMLID_571_" class="st4" d="M67.5,48.2c-0.9,0.1-1.6,0.3-2.4,0.5c-0.9,0.1-1.9,0.4-3,0.9c-1.8,0.8-3.8,2.2-5.7,3.9
	c-0.5,0.4-1,0.9-1.4,1.4c-0.5,0.5-0.9,1-1.4,1.4c-1.7,1.9-3,3.9-3.9,5.7c-0.5,1.1-0.8,2.1-0.9,3c-0.2,0.7-0.3,1.5-0.5,2.4
	C46.9,77,34.8,81.9,40.8,88c6,6,16.5,5.4,23.4-1.4l0,0c0.2-0.2,0.4-0.4,0.6-0.6c3.3-3.6,5-8,5-12.2c0,0-0.2-1.6,1.1-3
	c1.5-1.2,3-1.1,3-1.1c4.2-0.1,8.6-1.8,12.2-5c0.2-0.2,0.4-0.4,0.6-0.6l0,0c6.8-6.9,7.5-17.3,1.4-23.4C82.1,34.6,77.1,46.7,67.5,48.2
	z M71.3,57.5c0.9,3.7-0.1,7.8-3,10.6c-2.9,2.9-6.9,3.9-10.6,3c-2-0.5-3.9-1.5-5.4-3c-2.1-2.1,0.3-6.6,3.9-10.5
	c0.3-0.3,0.5-0.6,0.8-0.9c0.3-0.3,0.6-0.6,0.9-0.8c3.9-3.6,8.4-5.9,10.5-3.9C69.9,53.6,70.9,55.5,71.3,57.5z"/>
</svg>
