<?xml version="1.0" encoding="utf-8"?>
<!-- Generator: Adobe Illustrator 25.2.0, SVG Export Plug-In . SVG Version: 6.00 Build 0)  -->
<svg version="1.1" id="Layer_1" xmlns="http://www.w3.org/2000/svg" xmlns:xlink="http://www.w3.org/1999/xlink" x="0px" y="0px"
	 viewBox="0 0 993.7 662.2" style="enable-background:new 0 0 993.7 662.2;" xml:space="preserve">
<style type="text/css">
	.st0{clip-path:url(#SVGID_2_);}
	.st1{fill:#010101;stroke:#010101;stroke-width:5;stroke-miterlimit:10;}
	.st2{fill:#FFFFFF;}
	.st3{fill:#FABA29;}
	.st4{fill:none;}
	.st5{fill:#412514;stroke:#010101;stroke-width:5;stroke-miterlimit:10;}
	.st6{fill:#111111;stroke:#010101;stroke-width:5;stroke-miterlimit:10;}
	.st7{fill:#FFFFFF;stroke:#010101;stroke-width:5;stroke-miterlimit:10;}
	.st8{fill:#010101;}
	.st9{fill:none;stroke:#010101;stroke-width:5;stroke-miterlimit:10;}
	.st10{fill:#4A4A4B;}
	.st11{fill:#FFFFFF;stroke:#010101;stroke-width:5;stroke-linejoin:round;stroke-miterlimit:10;}
	.st12{fill:#4A4A4B;stroke:#010101;stroke-width:6.0001;stroke-miterlimit:10.0001;}
	.st13{fill:#EB2627;stroke:#010101;stroke-width:5;stroke-miterlimit:10;}
	.st14{fill:none;stroke:#010101;stroke-width:5;stroke-linejoin:round;stroke-miterlimit:10;}
</style>
<g>
	<g>
		<defs>
			<rect id="SVGID_1_" y="0" width="993.7" height="662.2"/>
		</defs>
		<clipPath id="SVGID_2_">
			<use xlink:href="#SVGID_1_"  style="overflow:visible;"/>
		</clipPath>
		<g class="st0">
			<path class="st1" d="M250.8,477c0,42.2,7.1,82.3,19.9,118.7c1.1,2.8,2.5,6,4.2,9.6c2.1,4.1,21.5,46.2,22.3,47.6
				c20.8,35.3,47.8,64.8,78.9,86.3c6.8,4.7,14.5,6.9,22.2,6.9c12.3,0,24.4-5.7,32.1-16.4c14.9-20.6,39.1-34,66.5-34
				c27.3,0,51.6,13.4,66.5,34c7.7,10.6,19.7,16.3,32,16.3c7.9,0,15.8-2.3,22.7-7.1c31.5-21.8,58.6-51.9,79.5-87.7l0,0v-0.1
				c0.4-0.8,24.3-52.4,25.4-55.2c12.8-36.4,19.9-76.6,19.9-118.8c0-25.3-2.6-49.8-7.4-73.3l-238.3,105c0,0-177.9-78.4-239-105.3
				c-0.7,3.5-1.4,7.1-2,10.6C252.7,434.4,250.8,455.5,250.8,477z"/>
			<g>
				<g>
					<path class="st2" d="M559.9,324.8c3.7,2.7,7.7,4.6,12,6.1c2.3,0.4,4.7,0.6,7.1,0.6c22.6,0,41-18.4,41-41c0-22.7-18.4-41-41-41
						c-22.7,0-41,18.4-41,41c0,10,3.6,19.1,9.5,26.2C551.5,319,555.6,321.7,559.9,324.8z M563.4,277.4c-0.1,0.6-0.2,1.3-0.2,2
						c0,5,4.1,9.1,9.1,9.1s9.1-4.1,9.1-9.1c0-4.2-2.9-7.8-6.8-8.8c1.5-0.3,3-0.5,4.6-0.5c11.3,0,20.5,9.2,20.5,20.5
						s-9.2,20.5-20.5,20.5s-20.5-9.2-20.5-20.5C558.5,285.6,560.3,280.9,563.4,277.4z"/>
					<path class="st2" d="M414.7,331.6c2.4,0,4.8-0.2,7.1-0.6c4.3-1.5,8.3-3.5,12-6.1c4.3-3.1,8.4-5.8,12.4-8
						c5.9-7.1,9.5-16.2,9.5-26.2c0-22.7-18.4-41-41-41s-41,18.4-41,41S392.1,331.6,414.7,331.6z M399.1,277.4
						c-0.1,0.6-0.2,1.3-0.2,2c0,5,4.1,9.1,9.1,9.1s9.1-4.1,9.1-9.1c0-4.2-2.9-7.8-6.8-8.8c1.5-0.3,3-0.5,4.6-0.5
						c11.3,0,20.5,9.2,20.5,20.5s-9.2,20.5-20.5,20.5s-20.5-9.2-20.5-20.5C394.2,285.6,396,280.9,399.1,277.4z"/>
					<path class="st2" d="M723,595.8c-1.1,2.8-2.5,6-4.2,9.5c-2.1,4.1-4.4,8.7-7.6,13.1c-3.1,4.4-6.8,9-11.4,12.5
						c-2.2,1.8-4.7,3.3-7.3,4.6c-2.7,1.1-5.4,2-8.4,2.3c-5.9,0.8-12.5-0.3-19-2.6l-0.6-0.2l-0.3-0.1l-0.2-0.1h-0.1l-1-0.5l-2.7-1.2
						c-1-0.4-1.4-0.8-2-1.2s-1.2-0.8-1.8-1.1c-2.4-2-4.8-4.2-6.4-7c-3.5-5.5-5.5-12.4-6.3-19.6c-0.8-7.2-0.4-14.6,0.3-21.7
						c0.7-7.2,2-14.1,3.5-20.7c1.4-6.6,3.1-12.7,4.7-18.4c3.3-11.4,6.6-20.7,9-27.2s3.9-10.2,3.9-10.2s-2.2,3.4-5.6,9.4
						c-3.4,6.1-8,15-12.8,26.1c-4.6,11.1-9.6,24.4-12.6,39.5c-1.5,7.6-2.4,15.6-2.1,24c0.1,2.1,0.3,4.2,0.5,6.4
						c0.4,2.1,0.7,4.3,1.2,6.5l0.9,3.2l0.5,1.6l0.7,1.6l1.3,3.2c0.5,1,1.1,2,1.7,3.1c1.1,2.1,2.6,3.9,4,5.8c0.7,1,1.6,1.8,2.4,2.6
						l2.6,2.5l3.1,2.2c1,0.7,2.2,1.6,3,1.9l2.6,1.4l1.3,0.7l0.5,0.2h0.1l0.2,0.1l0.4,0.2l0.8,0.3c8,3.2,17,5.1,26,4
						c4.5-0.5,8.7-1.9,12.6-3.6c0.1,0,0.2-0.1,0.3-0.1c-21.1,36.9-48.7,67.8-80.9,90.1c-6.9,4.8-14.9,7.1-22.7,7.1
						c-12.2,0-24.3-5.6-32-16.3c-14.9-20.6-39.1-34-66.5-34c-27.3,0-51.6,13.4-66.5,34c-7.7,10.6-19.8,16.4-32.1,16.4
						c-7.7,0-15.4-2.2-22.2-6.9c-31.2-21.5-58.1-51-78.9-86.3c-0.8-1.4-1.6-2.7-2.4-4.1c0.1,0,0.2,0.1,0.3,0.1
						c3.9,1.7,8.2,3,12.6,3.6c8.9,1.1,18-0.8,26-4l0.8-0.3l0.4-0.2l0.2-0.1h0.1l0.5-0.2l1.3-0.7l2.6-1.4c0.8-0.3,2-1.2,3-1.9
						l3.1-2.2l2.6-2.5c0.8-0.8,1.7-1.6,2.4-2.6c1.5-1.9,3-3.7,4-5.8c0.6-1,1.2-2,1.7-3.1l1.3-3.2l0.6-1.6l0.5-1.6l0.9-3.2
						c0.5-2.2,0.8-4.3,1.2-6.5c0.2-2.1,0.4-4.3,0.5-6.4c0.2-8.4-0.6-16.5-2.1-24c-0.4-2.1-0.9-4.1-1.3-6.1
						c-3-12.6-7.3-23.8-11.3-33.4c-4.8-11.1-9.4-20-12.8-26.1c-3.4-6.1-4.1-5.8-1.7,0.8c2.4,6.5,5.7,15.9,9,27.2
						c1.5,5.3,3.1,11,4.4,17c0.1,0.5,0.2,0.9,0.3,1.4c1.5,6.6,2.8,13.5,3.5,20.7s1.1,14.5,0.3,21.7c-0.7,7.2-2.7,14.1-6.3,19.6
						c-1.7,2.8-4,5-6.4,7c-0.6,0.4-1.2,0.7-1.8,1.1c-0.7,0.4-1,0.8-2,1.2l-2.7,1.2l-1,0.5h-0.1l-0.2,0.1l-0.3,0.1l-0.6,0.2
						c-6.5,2.4-13.1,3.4-19,2.6c-3-0.3-13.5-5.1-15.7-6.9c-4.6-3.5-8.3-8.1-11.4-12.5c-3.1-4.5-5.5-9-7.6-13.1
						c-1.7-3.5-3.1-6.7-4.2-9.6c-12.8-36.4-19.9-76.5-19.9-118.7c0-21.6,1.9-42.6,5.4-62.9c10.9-62.3,37.5-117.6,74.6-159
						c-6.1-1.7-11.8-5-16.6-9.8c-15-15-15-39.6,0-54.7c7.5-7.5,17.4-11.3,27.3-11.3s19.8,3.8,27.3,11.3c6.1,6.1,9.7,13.8,10.9,21.8
						c0,0,0.6-0.6,1.7-1.7c3.4-4.1,7-8.3,11-12.6c3.9-4.2,8.1-8.5,12.5-12.8c34.2-32.8,85-65.2,156.6-73.8c0,0-16.2,11.5-31.5,27.8
						c30.9-4.6,65.8-4.1,104,5.1c0,0-41.8,11-66.3,32.4c-1.7,1.4-3.3,2.9-4.7,4.5c-1.4,1.5-2.8,3-4,4.6c19.4,6.2,37.8,15.1,55,26.5
						c1.1-8,4.8-15.7,10.9-21.8c7.5-7.5,17.4-11.3,27.3-11.3c9.9,0,19.8,3.8,27.3,11.3c15,15,15,39.6,0,54.7
						c-4.8,4.8-10.5,8-16.6,9.8c49.2,55,80,134.1,80,221.9C742.9,519.2,735.8,559.4,723,595.8z"/>
					<path class="st3" d="M341.5,199.6c-10,0-18.2,8.1-18.2,18.2c0,10,8.1,18.2,18.2,18.2c10,0,18.2-8.1,18.2-18.2
						C359.6,207.7,351.5,199.6,341.5,199.6z"/>
					<path class="st3" d="M652.3,199.6c-10,0-18.2,8.1-18.2,18.2c0,10,8.1,18.2,18.2,18.2c10,0,18.2-8.1,18.2-18.2
						C670.4,207.7,662.3,199.6,652.3,199.6z"/>
					<g>
						<path class="st4" d="M341.5,199.6c-10,0-18.2,8.1-18.2,18.2c0,10,8.1,18.2,18.2,18.2c10,0,18.2-8.1,18.2-18.2
							C359.6,207.7,351.5,199.6,341.5,199.6z"/>
						<path class="st4" d="M556.6,436.6c1.1,0.1,2.3,0.1,3.5,0.1l0,0c38.5-0.1,69.6-27.6,69.6-61.6c0-33.5-46.5-14.8-77.6-36
							c-0.5-0.3-1-0.6-1.5-0.9c-2.8-2-5.4-3.8-7.9-5.3c-0.5-0.4-1-0.7-1.6-1.1c-2.6-1.7-5.6-3.3-9.4-4.6c-7.4-2.7-16.8-4.5-26.9-5.1
							c-2.6-0.2-5.2-0.3-7.9-0.3c-2.7,0-5.3,0.1-7.9,0.3c-10.1,0.6-19.5,2.3-26.9,5.1c-3.8,1.4-6.8,3-9.4,4.6
							c-0.5,0.4-1.1,0.7-1.6,1.1c-2.5,1.5-5.2,3.3-7.9,5.3c-0.5,0.4-1,0.6-1.5,0.9c-31.1,21.2-77.6,2.5-77.6,35.9
							c0,33.9,31.1,61.5,69.6,61.6l0,0c1.2,0,2.3,0,3.5-0.1c19.2-0.8,49.4-20.4,51.6-21.9c2.5-1.7,5.6-3.4,8.1-3.4s5.6,1.8,8.1,3.4
							C507.2,416.2,537.4,435.9,556.6,436.6z"/>
						<path class="st4" d="M652.3,235.9c10,0,18.2-8.1,18.2-18.2c0-10-8.1-18.2-18.2-18.2c-10,0-18.2,8.1-18.2,18.2
							C634.1,227.8,642.2,235.9,652.3,235.9z"/>
						<path class="st5" d="M735.6,403.8C723.7,345.7,698,294.3,663,255.1c6.1-1.7,11.8-5,16.6-9.8c15-15,15-39.6,0-54.7
							c-7.5-7.5-17.4-11.3-27.3-11.3c-9.9,0-19.8,3.8-27.3,11.3c-6.1,6.1-9.7,13.8-10.9,21.8c-17.2-11.4-35.7-20.4-55-26.5
							c1.2-1.6,2.6-3.1,4-4.6c1.5-1.5,3.1-3,4.7-4.5c24.6-21.4,66.3-32.4,66.3-32.4c-38.2-9.2-73.1-9.7-104-5.1
							c15.3-16.3,31.5-27.8,31.5-27.8c-71.5,8.6-122.4,41.1-156.6,73.8c-4.5,4.3-8.6,8.6-12.5,12.8c-3.9,4.3-7.6,8.5-11,12.6
							c-1.1,1.1-1.7,1.7-1.7,1.7c-1.1-8-4.8-15.7-10.9-21.8c-7.5-7.5-17.4-11.3-27.3-11.3s-19.8,3.8-27.3,11.3
							c-15,15-15,39.6,0,54.7c4.8,4.8,10.5,8,16.6,9.8c-35,39.1-60.7,90.4-72.6,148.4c61.1,26.9,239,105.3,239,105.3L735.6,403.8z
							 M652.3,199.6c10,0,18.2,8.1,18.2,18.2c0,10-8.1,18.2-18.2,18.2c-10,0-18.2-8.1-18.2-18.2
							C634.1,207.7,642.2,199.6,652.3,199.6z M341.5,235.9c-10,0-18.2-8.1-18.2-18.2c0-10,8.1-18.2,18.2-18.2
							c10,0,18.2,8.1,18.2,18.2C359.6,227.8,351.5,235.9,341.5,235.9z M488.8,414.7c-2.2,1.5-32.4,21.1-51.6,21.9
							c-1.1,0.1-2.3,0.1-3.5,0.1l0,0c-38.4-0.1-69.6-27.6-69.6-61.6c0-33.5,46.5-14.8,77.6-35.9c0.5-0.3,1-0.6,1.5-0.9
							c2.8-2,5.4-3.8,7.9-5.3c0.5-0.4,1-0.7,1.6-1.1c2.6-1.7,5.6-3.3,9.4-4.6c7.5-2.7,16.8-4.5,26.9-5.1c2.6-0.2,5.2-0.3,7.9-0.3
							c2.7,0,5.3,0.1,7.9,0.3c10.1,0.6,19.5,2.3,26.9,5.1c3.8,1.4,6.8,3,9.4,4.6c0.5,0.4,1.1,0.7,1.6,1.1c2.5,1.5,5.2,3.3,7.9,5.3
							c0.5,0.4,1,0.6,1.5,0.9c31.1,21.2,77.6,2.5,77.6,36c0,33.9-31.1,61.5-69.6,61.6l0,0c-1.2,0-2.3,0-3.5-0.1
							c-19.2-0.8-49.4-20.4-51.6-21.9c-2.5-1.7-5.6-3.4-8.1-3.4C494.4,411.3,491.2,413,488.8,414.7z"/>
						<path class="st6" d="M250.8,477c0,42.2,7.1,82.3,19.9,118.7c1.1,2.8,2.5,6,4.2,9.6c2.1,4.1,21.5,46.2,22.3,47.6
							c20.8,35.3,47.8,64.8,78.9,86.3c6.8,4.7,14.5,6.9,22.2,6.9c12.3,0,24.4-5.7,32.1-16.4c14.9-20.6,39.1-34,66.5-34
							c27.3,0,51.6,13.4,66.5,34c7.7,10.6,19.7,16.3,32,16.3c7.9,0,15.8-2.3,22.7-7.1c31.5-21.8,58.6-51.9,79.5-87.7l0,0v-0.1
							c0.4-0.8,24.3-52.4,25.4-55.2c12.8-36.4,19.9-76.6,19.9-118.8c0-25.3-2.6-49.8-7.4-73.3l-238.3,105c0,0-177.9-78.4-239-105.3
							c-0.7,3.5-1.4,7.1-2,10.6C252.7,434.4,250.8,455.5,250.8,477z"/>
					</g>
					<path class="st7" d="M579,249.6c22.6,0,41,18.4,41,41c0,22.7-18.4,41-41,41c-2.4,0-4.8-0.2-7.1-0.6c-4.3-1.5-8.3-3.5-12-6.1
						c-4.3-3.1-8.4-5.8-12.4-8c-5.9-7.1-9.5-16.2-9.5-26.2C538,267.9,556.4,249.6,579,249.6z"/>
					<path class="st8" d="M579,311.1c11.3,0,20.5-9.2,20.5-20.5s-9.2-20.5-20.5-20.5c-1.6,0-3.1,0.2-4.6,0.5c3.9,1,6.8,4.5,6.8,8.8
						c0,5-4.1,9.1-9.1,9.1s-9.1-4.1-9.1-9.1c0-0.7,0.1-1.4,0.2-2c-3,3.6-4.8,8.2-4.8,13.2C558.5,301.9,567.7,311.1,579,311.1z"/>
					<path class="st8" d="M496.9,396.6c16.2,0,30.4-8.5,38.4-21.4c4.3-6.9,6.8-15,6.8-23.7c0-11.6-19.5-17.8-40.4-18.6
						c-1.6-0.1-3.2-0.1-4.7-0.1c-1.6,0-3.2,0-4.7,0.1c-20.9,0.8-40.4,7-40.4,18.6c0,8.7,2.5,16.8,6.7,23.7
						C466.4,388,480.7,396.6,496.9,396.6z"/>
					<path class="st7" d="M435.2,437c15-0.5,29.5-4.5,42.1-11.6c4.1-2.3,7.9-4.9,11.5-7.8V455c0,8.7-6.2,15.8-13.9,15.8h-20.8
						c-5.6,0-10.7-3.8-12.8-9.7C438.6,453.5,436.5,445.4,435.2,437z"/>
					<path class="st7" d="M505,455v-37.5c3.6,2.9,7.4,5.5,11.5,7.8c12.7,7.2,27.1,11.2,42.1,11.6c-1.4,8.4-3.4,16.5-6.2,24.1
						c-2.1,5.9-7.2,9.7-12.8,9.7h-20.8C511.2,470.8,505,463.7,505,455z"/>
					<g>
						<path class="st3" d="M559.8,439.2c-1,0-1.9,0-2.9-0.1h-0.4c-20.8-0.8-52.6-22.1-52.9-22.4c-4-2.7-6-3-6.7-3
							c-1.5,0-3.9,1.1-6.7,3c-0.3,0.2-32.1,21.5-52.9,22.4h-0.4c-1,0-1.9,0.1-2.9,0.1h-0.2c-39.8-0.1-72.1-28.9-72.1-64.1
							c0-21.7,18-23.8,37.1-26c13.6-1.6,29-3.4,41.6-12c0.3-0.2,0.5-0.3,0.8-0.5c0.2-0.1,0.4-0.2,0.6-0.4c2.6-1.9,5.3-3.7,8-5.4
							c0.5-0.3,0.9-0.7,1.4-1l0.2-0.1c2.9-1.9,6.2-3.5,9.9-4.9c7.6-2.8,17.2-4.6,27.6-5.2c2.9-0.2,5.5-0.3,8-0.3s5.1,0.1,8,0.3
							c10.5,0.6,20,2.4,27.6,5.2c3.7,1.4,7,3,9.9,4.9l0.2,0.1c0.5,0.3,1,0.6,1.4,1c2.7,1.6,5.4,3.4,8,5.4c0.2,0.1,0.4,0.3,0.6,0.4
							c0.3,0.2,0.5,0.3,0.8,0.5c12.5,8.5,28,10.4,41.6,12c19.1,2.3,37.1,4.4,37.1,26c0,35.2-32.3,64-72.1,64.1H559.8z M496.9,335.3
							c-1.5,0-3,0-4.6,0.1c-22.4,0.9-38,7.5-38,16.1c0,7.9,2.2,15.7,6.4,22.4c7.8,12.7,21.4,20.2,36.2,20.2
							c14.9,0,28.4-7.5,36.2-20.2c4.2-6.7,6.4-14.5,6.4-22.4c0-8.6-15.6-15.2-38-16.1C499.9,335.3,498.3,335.3,496.9,335.3z"/>
						<path class="st8" d="M496.9,321.9c2.7,0,5.3,0.1,7.9,0.3c10.1,0.6,19.5,2.3,26.9,5.1c3.8,1.4,6.8,3,9.4,4.6
							c0.5,0.4,1.1,0.7,1.6,1.1c2.5,1.5,5.2,3.3,7.9,5.3c0.5,0.4,1,0.6,1.5,0.9c31.1,21.2,77.6,2.5,77.6,36
							c0,33.9-31.1,61.5-69.6,61.6c-0.1,0-0.2,0-0.2,0c-1.1,0-2.2-0.1-3.2-0.1c-19.2-0.8-49.4-20.4-51.6-21.9
							c-2.5-1.7-5.6-3.4-8.1-3.4s-5.6,1.8-8.1,3.4c-2.2,1.5-32.4,21.1-51.6,21.9c-1.1,0-2.1,0.1-3.2,0.1c-0.1,0-0.2,0-0.2,0
							c-38.4-0.1-69.6-27.6-69.6-61.6c0-33.5,46.5-14.8,77.6-35.9c0.5-0.3,1-0.6,1.5-0.9c2.8-2,5.4-3.8,7.9-5.3
							c0.5-0.4,1-0.7,1.6-1.1c2.6-1.7,5.6-3.3,9.4-4.6c7.5-2.7,16.8-4.5,26.9-5.1C491.6,322,494.2,321.9,496.9,321.9 M496.9,396.6
							c16.2,0,30.4-8.5,38.4-21.4c4.3-6.9,6.8-15,6.8-23.7c0-11.6-19.5-17.8-40.4-18.6c-1.6-0.1-3.2-0.1-4.7-0.1
							c-1.6,0-3.2,0-4.7,0.1c-20.9,0.8-40.4,7-40.4,18.6c0,8.7,2.5,16.8,6.7,23.7C466.4,388,480.7,396.6,496.9,396.6 M496.9,316.9
							c-2.5,0-5.2,0.1-8.2,0.3c-10.7,0.6-20.5,2.5-28.3,5.4c-3.8,1.4-7.3,3.1-10.4,5.1l-0.2,0.1c-0.5,0.3-1,0.6-1.5,1
							c-2.7,1.7-5.5,3.5-8.1,5.5c-0.1,0-0.3,0.2-0.4,0.3c-0.3,0.2-0.6,0.4-0.9,0.6c-12,8.2-27.1,10-40.5,11.6
							c-9.9,1.2-19.2,2.3-26.3,5.8c-8.7,4.4-13,11.8-13,22.7c0,17.9,7.8,34.6,22.1,47.2c14,12.4,32.7,19.3,52.5,19.4
							c0.1,0,0.2,0,0.3,0c1,0,2,0,3-0.1h0.5c21.5-0.9,53.9-22.6,54.2-22.8c3-2,4.8-2.6,5.3-2.6s2.3,0.5,5.3,2.6
							c0.3,0.2,32.8,21.9,54.2,22.8h0.5c1,0,1.9,0.1,3,0.1c0.1,0,0.2,0,0.3,0l0,0c19.8-0.1,38.5-6.9,52.5-19.4
							c14.2-12.6,22.1-29.4,22.1-47.2c0-10.9-4.2-18.3-13-22.7c-7.1-3.6-16.4-4.7-26.3-5.8c-13.3-1.6-28.4-3.4-40.5-11.6
							c-0.3-0.2-0.6-0.4-0.9-0.6c-0.2-0.1-0.3-0.2-0.4-0.3c-2.7-2-5.4-3.8-8.1-5.5c-0.5-0.4-1-0.7-1.5-1l-0.2-0.1
							c-3.1-2-6.6-3.7-10.4-5.1c-7.8-2.9-17.6-4.8-28.3-5.4C502.1,317,499.4,316.9,496.9,316.9L496.9,316.9z M496.9,391.6
							c-14,0-26.7-7.1-34.1-19c-3.9-6.3-6-13.6-6-21.1c0-7,15.3-12.8,35.6-13.6c1.6-0.1,3.1-0.1,4.5-0.1s2.9,0,4.5,0.1
							c20.3,0.8,35.6,6.6,35.6,13.6c0,7.5-2.1,14.8-6,21.1C523.6,384.5,510.8,391.6,496.9,391.6L496.9,391.6z"/>
					</g>
					<path class="st7" d="M414.7,249.6c22.7,0,41,18.4,41,41c0,10-3.6,19.1-9.5,26.2c-4,2.2-8.2,4.9-12.4,8c-3.6,2.7-7.7,4.6-12,6.1
						c-2.3,0.4-4.7,0.6-7.1,0.6c-22.6,0-41-18.4-41-41C373.7,267.9,392.1,249.6,414.7,249.6z"/>
					<path class="st8" d="M414.7,311.1c11.3,0,20.5-9.2,20.5-20.5s-9.2-20.5-20.5-20.5c-1.6,0-3.1,0.2-4.6,0.5
						c3.9,1,6.8,4.5,6.8,8.8c0,5-4.1,9.1-9.1,9.1s-9.1-4.1-9.1-9.1c0-0.7,0.1-1.4,0.2-2c-3,3.6-4.8,8.2-4.8,13.2
						C394.2,301.9,403.4,311.1,414.7,311.1z"/>
					<g>
						<path class="st9" d="M710.6,622.2c-4.4,8.6-53.8,40.5-80.5,11.9c-36.9-39.3,13.1-94.7,18-142.2"/>
					</g>
					<g>
						<path class="st9" d="M344.4,491.9c4.9,47.5,54.9,102.9,18,142.2c-26.7,28.6-76.1-3.3-80.5-11.9"/>
					</g>
				</g>
				<g>
					<polygon class="st10" points="573.4,473 617.1,529 563.8,553.6 580.2,600 496.9,634.2 					"/>
					<polygon class="st10" points="420.4,473 376.6,529 429.9,553.6 413.5,600 496.9,634.2 					"/>
					<g>
						<path class="st11" d="M421.6,475h-1.2l76.5,161.2L573.4,475h-1.2c-18.5,11.6-45.4,19-75.3,19C467,494,440.1,486.6,421.6,475z"
							/>
					</g>
				</g>
			</g>
			<g>
				<path class="st5" d="M374.7,581.6c4.4,19,3.4,37.1-11.2,52.6c-26.8,28.5-76.1-3.4-80.5-11.9"/>
			</g>
			
				<rect x="272.1" y="578.4" transform="matrix(0.9153 -0.4028 0.4028 0.9153 -210.134 180.1939)" class="st12" width="102.5" height="22.6"/>
			<g>
				<path class="st5" d="M710.7,622.2c-4.4,8.6-53.8,40.5-80.5,11.9c-14.6-15.5-15.6-33.5-11.2-52.6"/>
			</g>
			
				<rect x="659.1" y="538.5" transform="matrix(0.4028 -0.9153 0.9153 0.4028 -139.3889 965.7728)" class="st12" width="22.6" height="102.5"/>
			<g>
				<path class="st13" d="M520.2,492.5c0,0-2.1,27-23,27c-7.5,0-12.5-3.4-16-7.9c-6.2-8-7.1-19.1-7.1-19.1"/>
			</g>
			<g>
				<path class="st14" d="M421.6,475h-1.2l76.5,161.2L573.4,475h-1.2c-18.5,11.6-45.4,19-75.3,19C467,494,440.1,486.6,421.6,475z"/>
			</g>
			<polygon class="st13" points="459.7,557.8 484.3,514.9 510.1,514.9 535.1,555.6 496.9,634.2 			"/>
		</g>
	</g>
</g>
</svg>
