<?xml version="1.0" encoding="utf-8"?>
<!-- Generator: Adobe Illustrator 25.2.0, SVG Export Plug-In . SVG Version: 6.00 Build 0)  -->
<svg version="1.1" id="Layer_1" xmlns="http://www.w3.org/2000/svg" xmlns:xlink="http://www.w3.org/1999/xlink" x="0px" y="0px"
	 viewBox="0 0 993.7 662.2" style="enable-background:new 0 0 993.7 662.2;" xml:space="preserve">
<style type="text/css">
	.st0{clip-path:url(#SVGID_2_);}
	.st1{fill:#E37F39;stroke:#010101;stroke-width:5;stroke-miterlimit:10;}
	.st2{fill:#FFFFFF;}
	.st3{fill:#FABA29;}
	.st4{fill:#412514;stroke:#010101;stroke-width:5;stroke-miterlimit:10;}
	.st5{fill:#FFFFFF;stroke:#010101;stroke-width:0.75;stroke-miterlimit:10;}
	.st6{fill:#010101;}
	.st7{fill:#FFFFFF;stroke:#010101;stroke-width:5;stroke-miterlimit:10;}
	.st8{fill:#E31B49;stroke:#010101;stroke-width:5;stroke-miterlimit:10;}
	.st9{fill:#FCF4E3;stroke:#010101;stroke-width:5;stroke-miterlimit:10;}
	.st10{fill:#85152B;stroke:#010101;stroke-width:5;stroke-miterlimit:10;}
	.st11{opacity:0.5;fill:#E31B49;stroke:#010101;stroke-width:5;stroke-miterlimit:10;enable-background:new    ;}
	.st12{fill:none;stroke:#010101;stroke-width:5;stroke-miterlimit:10;}
	.st13{fill:#F6B162;stroke:#010101;stroke-width:5;stroke-miterlimit:10;}
</style>
<g>
	<defs>
		<rect id="SVGID_1_" y="0" width="993.7" height="662.2"/>
	</defs>
	<clipPath id="SVGID_2_">
		<use xlink:href="#SVGID_1_"  style="overflow:visible;"/>
	</clipPath>
	<g class="st0">
		<path class="st1" d="M477.3,637.2c-1.6-18.1,0.4-51.9,20-63.8c21.4-12.9,54.1,2.9,73.9,11.1c46.8,19.4,95.6,85,149.3,69.5
			c47.2-13.6,98.2-54.1,103.5-96.4c-14.2,16-26.1,24.4-50.6,11.3c-24.5-13.1-21.6-41.9-14.5-65.8c7.1-23.9,69.4-292.7-87-392.9
			c-68.8-44.1-131.6-76-223.1-49.8c-5,1.4-26.7,13-30.3,12.1c-36.2-9.6-76.6,5-102.2,28.8c-35.3,32.8-77.9,105.5-88.2,148.4
			c-9.6,39.6-14.7,67.3-43.6,99.3c6.6-2.6,49.9-15.6,56.4-18.2c-87.5,84.1-21.8,209.9,89.8,239.1c-8.2-6.5-16.4-12.9-24.6-19.4
			c23.7,18.7,63.9,21.7,88.9,42.6C419.6,613.6,447.2,621.9,477.3,637.2z"/>
		<path class="st2" d="M560,324.9c3.7,2.7,7.7,4.6,12,6.1c2.3,0.4,4.7,0.6,7.1,0.6c22.6,0,41-18.4,41-41c0-22.7-18.4-41-41-41
			c-22.7,0-41,18.4-41,41c0,10,3.6,19.1,9.5,26.2C551.5,319.1,555.7,321.7,560,324.9z M563.4,277.4c-0.1,0.6-0.2,1.3-0.2,2
			c0,5,4.1,9.1,9.1,9.1s9.1-4.1,9.1-9.1c0-4.2-2.9-7.8-6.8-8.8c1.5-0.3,3-0.5,4.6-0.5c11.3,0,20.5,9.2,20.5,20.5
			s-9.2,20.5-20.5,20.5s-20.5-9.2-20.5-20.5C558.6,285.6,560.4,281,563.4,277.4z"/>
		<path class="st2" d="M414.8,331.6c2.4,0,4.8-0.2,7.1-0.6c4.3-1.5,8.3-3.5,12-6.1c4.3-3.1,8.4-5.8,12.4-8
			c5.9-7.1,9.5-16.2,9.5-26.2c0-22.7-18.4-41-41-41s-41,18.4-41,41S392.1,331.6,414.8,331.6z M399.1,277.4c-0.1,0.6-0.2,1.3-0.2,2
			c0,5,4.1,9.1,9.1,9.1s9.1-4.1,9.1-9.1c0-4.2-2.9-7.8-6.8-8.8c1.5-0.3,3-0.5,4.6-0.5c11.3,0,20.5,9.2,20.5,20.5
			s-9.2,20.5-20.5,20.5s-20.5-9.2-20.5-20.5C394.3,285.6,396.1,281,399.1,277.4z"/>
		<path class="st2" d="M723,595.8c-1.1,2.8-2.5,6-4.2,9.5c-2.1,4.1-4.4,8.7-7.6,13.1c-3.1,4.4-6.8,9-11.4,12.5
			c-2.2,1.8-4.7,3.3-7.3,4.6c-2.7,1.1-5.4,2-8.4,2.3c-5.9,0.8-12.5-0.3-19-2.6l-0.6-0.2l-0.3-0.1l-0.2-0.1h-0.1l-1-0.5l-2.7-1.2
			c-1-0.4-1.4-0.8-2-1.2s-1.2-0.8-1.8-1.1c-2.4-2-4.8-4.2-6.4-7c-3.5-5.5-5.5-12.4-6.3-19.6c-0.8-7.2-0.4-14.6,0.3-21.7
			c0.7-7.2,2-14.1,3.5-20.7c1.4-6.6,3.1-12.7,4.7-18.4c3.3-11.4,6.6-20.7,9-27.2s3.9-10.2,3.9-10.2s-2.2,3.4-5.6,9.4
			c-3.4,6.1-8,15-12.8,26.1c-4.6,11.1-9.6,24.4-12.6,39.5c-1.5,7.6-2.4,15.6-2.1,24c0.1,2.1,0.3,4.2,0.5,6.4
			c0.4,2.1,0.7,4.3,1.2,6.5l0.9,3.2l0.5,1.6l0.7,1.6l1.3,3.2c0.5,1,1.1,2,1.7,3.1c1.1,2.1,2.6,3.9,4,5.8c0.7,1,1.6,1.8,2.4,2.6
			l2.6,2.5l3.1,2.2c1,0.7,2.2,1.6,3,1.9l2.6,1.4l1.3,0.7l0.5,0.2h0.1l0.2,0.1l0.4,0.2l0.8,0.3c8,3.2,17,5.1,26,4
			c4.5-0.5,8.7-1.9,12.6-3.6c0.1,0,0.2-0.1,0.3-0.1c-21.1,36.9-48.7,67.8-80.9,90.1c-6.9,4.8-14.9,7.1-22.7,7.1
			c-12.2,0-24.3-5.6-32-16.3c-14.9-20.6-39.1-34-66.5-34c-27.3,0-51.6,13.4-66.5,34c-7.7,10.6-19.8,16.4-32.1,16.4
			c-7.7,0-15.4-2.2-22.2-6.9c-31.2-21.5-58.1-51-78.9-86.3c-0.8-1.4-1.6-2.7-2.4-4.1c0.1,0,0.2,0.1,0.3,0.1c3.9,1.7,8.2,3,12.6,3.6
			c8.9,1.1,18-0.8,26-4l0.8-0.3l0.4-0.2l0.2-0.1h0.1l0.5-0.2l1.3-0.7l2.6-1.4c0.8-0.3,2-1.2,3-1.9l3.1-2.2l2.6-2.5
			c0.8-0.8,1.7-1.6,2.4-2.6c1.5-1.9,3-3.7,4-5.8c0.6-1,1.2-2,1.7-3.1l1.3-3.2l0.6-1.6l0.5-1.6l0.9-3.2c0.5-2.2,0.8-4.3,1.2-6.5
			c0.2-2.1,0.4-4.3,0.5-6.4c0.2-8.4-0.6-16.5-2.1-24c-0.4-2.1-0.9-4.1-1.3-6.1c-3-12.6-7.3-23.8-11.3-33.4
			c-4.8-11.1-9.4-20-12.8-26.1c-3.4-6.1-4.1-5.8-1.7,0.8c2.4,6.5,5.7,15.9,9,27.2c1.5,5.3,3.1,11,4.4,17c0.1,0.5,0.2,0.9,0.3,1.4
			c1.5,6.6,2.8,13.5,3.5,20.7s1.1,14.5,0.3,21.7c-0.7,7.2-2.7,14.1-6.3,19.6c-1.7,2.8-4,5-6.4,7c-0.6,0.4-1.2,0.7-1.8,1.1
			c-0.7,0.4-1,0.8-2,1.2l-2.7,1.2l-1,0.5h-0.1l-0.2,0.1l-0.3,0.1l-0.6,0.2c-6.5,2.4-13.1,3.4-19,2.6c-3-0.3-13.5-5.1-15.7-6.9
			c-4.6-3.5-8.3-8.1-11.4-12.5c-3.1-4.5-5.5-9-7.6-13.1c-1.7-3.5-3.1-6.7-4.2-9.6c-12.8-36.4-19.9-76.5-19.9-118.7
			c0-21.6,1.9-42.6,5.4-62.9c10.9-62.3,37.5-117.6,74.6-159c-6.1-1.7-11.8-5-16.6-9.8c-15-15-15-39.6,0-54.7
			c7.5-7.5,17.4-11.3,27.3-11.3s19.8,3.8,27.3,11.3c6.1,6.1,9.7,13.8,10.9,21.8c0,0,0.6-0.6,1.7-1.7c3.4-4.1,7-8.3,11-12.6
			c3.9-4.2,8.1-8.5,12.5-12.8c34.2-32.8,85-65.2,156.6-73.8c0,0-16.2,11.5-31.5,27.8c30.9-4.6,65.8-4.1,104,5.1
			c0,0-41.8,11-66.3,32.4c-1.7,1.4-3.3,2.9-4.7,4.5c-1.4,1.5-2.8,3-4,4.6c19.4,6.2,37.8,15.1,55,26.5c1.1-8,4.8-15.7,10.9-21.8
			c7.5-7.5,17.4-11.3,27.3-11.3c9.9,0,19.8,3.8,27.3,11.3c15,15,15,39.6,0,54.7c-4.8,4.8-10.5,8-16.6,9.8c49.2,55,80,134.1,80,221.9
			C743,519.3,735.9,559.4,723,595.8z"/>
		<path class="st3" d="M341.5,199.6c-10,0-18.2,8.1-18.2,18.2c0,10,8.1,18.2,18.2,18.2c10,0,18.2-8.1,18.2-18.2
			C359.7,207.8,351.5,199.6,341.5,199.6z"/>
		<path class="st3" d="M652.3,199.6c-10,0-18.2,8.1-18.2,18.2c0,10,8.1,18.2,18.2,18.2c10,0,18.2-8.1,18.2-18.2
			C670.5,207.8,662.3,199.6,652.3,199.6z"/>
		<path class="st4" d="M663.5,255.1c6.1-1.7,11.8-5,16.6-9.8c15-15,15-39.6,0-54.7c-7.5-7.5-17.4-11.3-27.3-11.3
			c-9.9,0-19.8,3.8-27.3,11.3c-6.1,6.1-9.7,13.8-10.9,21.8c-17.2-11.4-35.7-20.4-55-26.5c1.2-1.6,2.6-3.1,4-4.6
			c1.5-1.5,3.1-3,4.7-4.5c24.6-21.4-6.8-42.1-37.7-37.5c15.3-16.3-90.8,13.3-125,46c-4.5,4.3-8.6,8.6-12.5,12.8
			c-3.9,4.3-7.6,8.5-11,12.6c-1.1,1.1-1.7,1.7-1.7,1.7c-1.1-8-4.8-15.7-10.9-21.8c-7.5-7.5-17.4-11.3-27.3-11.3s-19.8,3.8-27.3,11.3
			c-15,15-15,39.6,0,54.7c4.8,4.8,10.5,8,16.6,9.8c-37.1,41.5-63.7,96.7-74.6,159c-3.5,20.3-5.4,41.3-5.4,62.9
			c0,42.2,7.1,82.3,19.9,118.7c1.1,2.8,2.5,6,4.2,9.6c2.1,4.1,21.5,46.2,22.3,47.6c20.8,35.3,47.8,64.8,78.9,86.3
			c6.8,4.7,14.5,6.9,22.2,6.9c12.3,0,24.4-5.7,32.1-16.4c14.9-20.6,39.1-34,66.5-34c27.3,0,51.6,13.4,66.5,34
			c7.7,10.6,19.7,16.3,32,16.3c7.9,0,15.8-2.3,22.7-7.1c31.5-21.8,58.6-51.9,79.5-87.7l0,0v-0.1c0.4-0.8,24.3-52.4,25.4-55.2
			c12.8-36.4,19.9-76.6,19.9-118.8C743.5,389.2,712.6,310.1,663.5,255.1z M652.8,199.6c10,0,18.2,8.1,18.2,18.2
			c0,10-8.1,18.2-18.2,18.2c-10,0-18.2-8.1-18.2-18.2C634.6,207.8,642.8,199.6,652.8,199.6z M342,235.9c-10,0-18.2-8.1-18.2-18.2
			c0-10,8.1-18.2,18.2-18.2c10,0,18.2,8.1,18.2,18.2C360.2,227.8,352,235.9,342,235.9z M560.6,436.8L560.6,436.8
			c-1.2,0-2.3,0-3.5-0.1c-19.2-0.8-49.4-20.4-51.6-21.9c-2.5-1.7-5.6-3.4-8.1-3.4s-5.6,1.8-8.1,3.4c-2.2,1.5-32.4,21.1-51.6,21.9
			c-1.1,0.1-2.3,0.1-3.5,0.1l0,0c-38.4-0.1-69.6-27.6-69.6-61.6c0-33.5,46.5-14.8,77.6-35.9c0.5-0.3,1-0.6,1.5-0.9
			c2.8-2,5.4-3.8,7.9-5.3c0.5-0.4,1-0.7,1.6-1.1c2.6-1.7,5.6-3.3,9.4-4.6c7.5-2.7,16.8-4.5,26.9-5.1c2.6-0.2,5.2-0.3,7.9-0.3
			c2.7,0,5.3,0.1,7.9,0.3c10.1,0.6,19.5,2.3,26.9,5.1c3.8,1.4,6.8,3,9.4,4.6c0.5,0.4,1.1,0.7,1.6,1.1c2.5,1.5,5.2,3.3,7.9,5.3
			c0.5,0.4,1,0.6,1.5,0.9c31.1,21.2,77.6,2.5,77.6,36C630.2,409.1,599,436.6,560.6,436.8z"/>
		<path class="st5" d="M579.1,249.6c22.6,0,41,18.4,41,41c0,14.5-7.5,27.2-18.8,34.5c-6.4,4.1-14,6.6-22.2,6.6
			c-2.4,0-4.8-0.2-7.1-0.6c-4.3-1.5-8.3-3.5-12-6.1c-4.3-3.1-8.4-5.8-12.4-8c-5.9-7.1-9.5-16.2-9.5-26.2
			C538,268,556.4,249.6,579.1,249.6z"/>
		<path class="st6" d="M579.1,311.1c11.3,0,20.5-9.2,20.5-20.5s-9.2-20.5-20.5-20.5c-1.6,0-3.1,0.2-4.6,0.5c3.9,1,6.8,4.5,6.8,8.8
			c0,5-4.1,9.1-9.1,9.1s-9.1-4.1-9.1-9.1c0-0.7,0.1-1.4,0.2-2c-3,3.6-4.8,8.2-4.8,13.2C558.6,302,567.7,311.1,579.1,311.1z"/>
		<path class="st6" d="M496.9,396.6c16.2,0,30.4-8.5,38.4-21.4c4.3-6.9,6.8-15,6.8-23.7c0-11.6-19.5-17.8-40.4-18.6
			c-1.6-0.1-3.2-0.1-4.7-0.1c-1.6,0-3.2,0-4.7,0.1c-20.9,0.8-40.4,7-40.4,18.6c0,8.7,2.5,16.8,6.7,23.7
			C466.5,388,480.7,396.6,496.9,396.6z"/>
		<path class="st7" d="M435.2,437c15-0.5,29.5-4.5,42.1-11.6c4.1-2.3,7.9-4.9,11.5-7.8v37.5c0,8.7-6.2,15.8-13.9,15.8h-20.8
			c-5.6,0-10.7-3.8-12.8-9.7C438.7,453.6,436.6,445.5,435.2,437z"/>
		<path class="st7" d="M505,455.1v-37.5c3.6,2.9,7.4,5.5,11.5,7.8c12.7,7.2,27.1,11.2,42.1,11.6c-1.4,8.4-3.4,16.5-6.2,24.1
			c-2.1,5.9-7.2,9.7-12.8,9.7h-20.8C511.2,470.8,505,463.8,505,455.1z"/>
		<g>
			<path class="st3" d="M559.9,439.3c-1,0-1.9,0-2.9-0.1h-0.5c-20.8-0.8-52.6-22.1-52.9-22.4c-2.8-1.9-5.2-3-6.7-3s-3.9,1.1-6.7,3
				c-0.3,0.2-32.1,21.5-52.9,22.4h-0.5c-0.9,0-1.9,0.1-2.9,0.1h-0.2c-39.8-0.1-72.1-28.9-72.1-64.1c0-21.7,18-23.8,37.1-26
				c13.6-1.6,29-3.4,41.6-12c0.3-0.2,0.5-0.3,0.8-0.5c0.2-0.1,0.4-0.2,0.6-0.4c2.6-1.9,5.3-3.7,8-5.4c0.5-0.3,1-0.7,1.4-1l0.2-0.1
				c2.9-1.9,6.2-3.5,9.9-4.9c7.6-2.8,17.2-4.6,27.6-5.2c2.9-0.2,5.5-0.3,8-0.3s5.1,0.1,8,0.3c10.5,0.6,20,2.4,27.6,5.2
				c3.7,1.4,7,3,9.9,4.9l0.2,0.1c0.5,0.3,1,0.6,1.4,1c2.7,1.6,5.4,3.4,8,5.4c0.2,0.1,0.4,0.3,0.6,0.4c0.3,0.2,0.5,0.3,0.8,0.5
				c12.5,8.5,28,10.4,41.6,12c19.1,2.3,37.1,4.4,37.1,26C632,410.4,599.7,439.2,559.9,439.3L559.9,439.3z M496.9,335.3
				c-1.5,0-3,0-4.6,0.1c-22.4,0.9-38,7.5-38,16.1c0,7.9,2.2,15.7,6.4,22.4c7.8,12.7,21.4,20.2,36.2,20.2c14.9,0,28.4-7.5,36.2-20.2
				c4.2-6.7,6.4-14.5,6.4-22.4c0-8.6-15.6-15.2-38-16.1C499.9,335.3,498.4,335.3,496.9,335.3z"/>
			<path class="st6" d="M496.9,321.9c2.7,0,5.3,0.1,7.9,0.3c10.1,0.6,19.5,2.3,26.9,5.1c3.8,1.4,6.8,3,9.4,4.6
				c0.5,0.4,1.1,0.7,1.6,1.1c2.5,1.5,5.2,3.3,7.9,5.3c0.5,0.4,1,0.6,1.5,0.9c31.1,21.2,77.6,2.5,77.6,36c0,33.9-31.1,61.5-69.6,61.6
				c-0.1,0-0.2,0-0.2,0c-1.1,0-2.2-0.1-3.2-0.1c-19.2-0.8-49.4-20.4-51.6-21.9c-2.5-1.7-5.6-3.4-8.1-3.4s-5.6,1.8-8.1,3.4
				c-2.2,1.5-32.4,21.1-51.6,21.9c-1.1,0-2.1,0.1-3.2,0.1c-0.1,0-0.2,0-0.2,0c-38.4-0.1-69.6-27.6-69.6-61.6
				c0-33.5,46.5-14.8,77.6-35.9c0.5-0.3,1-0.6,1.5-0.9c2.8-2,5.4-3.8,7.9-5.3c0.5-0.4,1-0.7,1.6-1.1c2.6-1.7,5.6-3.3,9.4-4.6
				c7.5-2.7,16.8-4.5,26.9-5.1C491.6,322,494.3,321.9,496.9,321.9 M496.9,396.6c16.2,0,30.4-8.5,38.4-21.4c4.3-6.9,6.8-15,6.8-23.7
				c0-11.6-19.5-17.8-40.4-18.6c-1.6-0.1-3.2-0.1-4.7-0.1c-1.6,0-3.2,0-4.7,0.1c-20.9,0.8-40.4,7-40.4,18.6c0,8.7,2.5,16.8,6.7,23.7
				C466.5,388,480.7,396.6,496.9,396.6 M496.9,316.9c-2.5,0-5.2,0.1-8.2,0.3c-10.7,0.6-20.5,2.5-28.3,5.4c-3.8,1.4-7.3,3.1-10.4,5.1
				l-0.2,0.1c-0.5,0.3-1,0.6-1.5,1c-2.7,1.7-5.5,3.5-8.1,5.5c-0.1,0-0.3,0.2-0.4,0.3c-0.3,0.2-0.6,0.4-0.9,0.6
				c-12,8.2-27.1,10-40.5,11.6c-9.9,1.2-19.2,2.3-26.3,5.8c-8.7,4.4-13,11.8-13,22.7c0,17.9,7.8,34.6,22.1,47.2
				c14,12.4,32.7,19.3,52.5,19.4c0.1,0,0.2,0,0.3,0c1,0,2,0,3-0.1h0.5c21.5-0.9,53.9-22.6,54.2-22.8c3-2,4.8-2.6,5.3-2.6
				s2.3,0.5,5.3,2.6c0.3,0.2,32.8,21.9,54.2,22.8h0.5c1,0,1.9,0.1,3,0.1c0.1,0,0.2,0,0.3,0l0,0c19.8-0.1,38.5-6.9,52.5-19.4
				c14.2-12.6,22.1-29.4,22.1-47.2c0-10.9-4.2-18.3-13-22.7c-7.1-3.6-16.4-4.7-26.3-5.8c-13.3-1.6-28.4-3.4-40.5-11.6
				c-0.3-0.2-0.6-0.4-0.9-0.6c-0.2-0.1-0.3-0.2-0.4-0.3c-2.7-2-5.4-3.8-8.1-5.4c-0.5-0.4-1-0.7-1.5-1l-0.2-0.1
				c-3.1-2-6.6-3.7-10.4-5.1c-7.8-2.9-17.6-4.8-28.3-5.4C502.1,317,499.5,316.9,496.9,316.9L496.9,316.9z M496.9,391.6
				c-14,0-26.7-7.1-34.1-19c-3.9-6.3-6-13.6-6-21.1c0-7,15.3-12.8,35.6-13.6c1.6-0.1,3.1-0.1,4.5-0.1s2.9,0,4.5,0.1
				c20.3,0.8,35.6,6.6,35.6,13.6c0,7.5-2.1,14.8-6,21.1C523.6,384.5,510.9,391.6,496.9,391.6L496.9,391.6z"/>
		</g>
		<path class="st7" d="M414.8,249.6c22.7,0,41,18.4,41,41c0,10-3.6,19.1-9.5,26.2c-4,2.2-8.2,4.9-12.4,8c-3.6,2.7-7.7,4.6-12,6.1
			c-2.3,0.4-4.7,0.6-7.1,0.6c-22.6,0-41-18.4-41-41C373.8,268,392.1,249.6,414.8,249.6z"/>
		<path class="st6" d="M414.8,311.1c11.3,0,20.5-9.2,20.5-20.5s-9.2-20.5-20.5-20.5c-1.6,0-3.1,0.2-4.6,0.5c3.9,1,6.8,4.5,6.8,8.8
			c0,5-4.1,9.1-9.1,9.1s-9.1-4.1-9.1-9.1c0-0.7,0.1-1.4,0.2-2c-3,3.6-4.8,8.2-4.8,13.2C394.3,302,403.4,311.1,414.8,311.1z"/>
		<path class="st7" d="M620.1,290.6c0,22.7-18.4,41-41,41c-2.4,0-4.8-0.2-7.1-0.6c-4.3-1.5-8.3-3.5-12-6.1c-4.3-3.1-8.4-5.8-12.4-8
			c-5.9-7.1-9.5-16.2-9.5-26.2c0-22.7,18.4-41,41-41C601.7,249.6,620.1,268,620.1,290.6z"/>
		<path class="st6" d="M579.1,311.1c11.3,0,20.5-9.2,20.5-20.5s-9.2-20.5-20.5-20.5c-1.6,0-3.1,0.2-4.6,0.5c3.9,1,6.8,4.5,6.8,8.8
			c0,5-4.1,9.1-9.1,9.1s-9.1-4.1-9.1-9.1c0-0.7,0.1-1.4,0.2-2c-3,3.6-4.8,8.2-4.8,13.2C558.6,302,567.7,311.1,579.1,311.1z"/>
		<path class="st8" d="M743,477.1c-8.7-9.6-246.1,73.8-246.1,73.8S268,455.1,254.6,470.8c-19.4,22.8,11.5,114.2,16.2,125
			c1.9,4.4,4.2,9.6,4.2,9.6c2.1,4.1,21.5,46.2,22.3,47.6c20.8,35.3,47.8,64.8,78.9,86.3c6.8,4.7,14.5,6.9,22.2,6.9
			c12.3,0,24.4-5.7,32.1-16.4c14.9-20.6,39.1-34,66.5-34c27.3,0,51.6,13.4,66.5,34c7.7,10.6,19.7,16.3,32,16.3
			c7.9,0,15.8-2.3,22.7-7.1c31.5-21.8,58.6-51.9,79.5-87.7l0,0v-0.1c0.4-0.8,24.3-52.4,25.4-55.2C741.5,550.2,760.2,496,743,477.1z"
			/>
		<g>
			<polygon class="st9" points="562.3,746.1 431.5,746.1 431.5,528.9 562.3,528.9 562.3,555.9 			"/>
			<polygon class="st9" points="562.3,555.9 562.3,637.5 431.5,687.1 431.5,613.1 			"/>
			<path class="st9" d="M431.5,538c0,0,43.7,51.5,56.1,50.6"/>
			<rect x="431.5" y="621.5" class="st10" width="130.8" height="86.7"/>
		</g>
		<path class="st6" d="M619.2,292.8l14.3-9.1l-12.4-1.8l14.2-17.4L607,271c-0.8,0.9,9.6,1.1,8.4,1.7c-0.8,1.4,1.7,0.6,0.2,1.3
			l1.8,2.5l3.5,11.7l-2.5,3.8l-3.3,19.1l21.1-21.9L619.2,292.8z"/>
		<path class="st11" d="M520.4,287.9c0,32.5,35,58.9,78.1,58.9s78.1-58.9,78.1-91.4s-35-26.3-78.1-26.3S520.4,255.4,520.4,287.9z"/>
		<path class="st12" d="M520.4,287.9c0,32.5,35,58.9,78.1,58.9s78.1-58.9,78.1-91.4s-35-26.3-78.1-26.3S520.4,255.4,520.4,287.9z"/>
		<path class="st13" d="M259.6,276.8c3.7-34.9,14.1-60.7,42.4-83.5c7-5.6,14-8.8,20.4-15.4c7.5-7.7,15.2-15.1,23.7-21.8
			c16.9-13.3,35.7-24.1,55.9-31.7c32.9-12.4,68.8-14.4,103.8-11.1C614.5,123.4,655,162.2,672,176.7c27.4,23.5,51.5,87,59.5,125.9
			c2.7,13.1-0.9,26-1.4,39.3c-0.4,11.9-0.7,27.8,0.1,39.1c-5.1-69.9-55-95.5-114.8-108.3c-52-11.2-106.1-6.2-153.3-34.9
			c-16.6-10.1-45.8-33.5-45.8-45.2c0.3,4.5-33.8,54.8-52.1,73.9c-16.4,17.2-25.8,37.1-20,65.2c4.6,22.1,31.1,32.2,53.6,30.6
			c-18.2,6.6-45.6,17.3-63.1,9.1c-17.5-8.3-23.7-20.9-30.2-39.1c-1.8-4.9-3.5-6.8-8.6-5.5s-8.7,5.7-11.4,10.2
			c-14.4,23.8-14.6,41.4,1.1,64.4s45.3,35.5,72.7,30.7c-19.7,12.1-45.8,13.1-66.4,2.4c9.4,7.4,21,12.1,32.9,13.3
			c-15.6,8.6-34.2,2.2-50.2-5.8C207.6,408.6,257.7,294.7,259.6,276.8z"/>
		<path class="st8" d="M265.5,246.3c15.7-51.7,55.7-86.5,98.6-116.2c113.7-78.5,246.4-28.2,281.5,7c35.1,35.1,62,90.9,62,90.9
			s-91.4-100-219.5-77.2c-51.2,9.1-100.4,28.2-145.8,53.3c-32.8,18.1-61.5,41.5-82.7,72.8C260.7,269.8,263.4,253.1,265.5,246.3z"/>
		<g>
			<g>
				<path class="st8" d="M588,171.1c-8.1,20.8,0.6,43.6-20.2,35.5s-31-31.6-22.9-52.3s31.6-31,52.3-22.9
					C618.1,139.4,596.2,150.3,588,171.1z"/>
				<path class="st8" d="M478.6,128.3c8.1-20.8-0.6-43.6,20.2-35.5s31,31.6,22.9,52.3c-8.1,20.8-31.6,31-52.3,22.9
					C448.6,159.9,470.5,149,478.6,128.3z"/>
			</g>
		</g>
		<circle class="st8" cx="533.6" cy="149.8" r="22.2"/>
		<polyline class="st6" points="370.6,288.1 374.1,276.4 381.6,266.3 389.7,257.9 405.7,247.9 404.9,242.8 399.9,250.2 395.1,245.1 
			392.2,253.8 383.1,245 382.7,257.2 367,251.6 375,270 356.2,264.4 370.3,281.9 357.9,283.6 372.2,292.8 355.3,289 376.4,310.9 
			373.1,291.9 		"/>
		<path class="st8" d="M520.4,412.2c-2-3.5-9.7-5.7-13.8-2.6c-5.4,4.1-11.2,6.5-19.4,0c-4.1-3.2-12.1-1-13.8,2.6
			c-9.4,19.4-28.5,23.2-32.4,26c-0.3,0.2-0.1,0.6,0.2,0.6c5.1-0.9,19.4-3.9,34.6-6.3c13.9-2.2,28.1-2.2,42,0
			c15.3,2.4,29.6,5.5,34.6,6.3c0.3,0.1,0.5-0.4,0.2-0.6C548.9,435.4,531.8,431.6,520.4,412.2z"/>
		<path class="st9" d="M27.2,339.3"/>
		<path class="st11" d="M473.4,287.9c0,32.5-35,58.9-78.1,58.9s-78.1-58.9-78.1-91.4s35-26.3,78.1-26.3S473.4,255.4,473.4,287.9z"/>
		<path class="st12" d="M473.4,287.9c0,32.5-35,58.9-78.1,58.9s-78.1-58.9-78.1-91.4s35-26.3,78.1-26.3S473.4,255.4,473.4,287.9z"/>
		<path class="st12" d="M472.1,290.9c0,0,25.1,0,48.4,0"/>
		<g>
			<path class="st4" d="M351.2,527.5c19,35.4,35.6,76,7.9,105.5c-26.7,28.6-71.9,7.3-80.5-11.9c0,0-25.3-38.2-31.7-96.4
				c-3.3-29.9,1.9-41.4,9.4-43.7C263.9,478.6,332.6,492.8,351.2,527.5z"/>
		</g>
		<g>
			<path class="st4" d="M718.7,469.2c11.6-38.4,28.6-78.9,69-80.2c39.1-1.3,53.7,34.4,48.5,65.3c-4.2,25-23.9,69.9-45.8,90.6
				c-21.9,20.7-50.9,30.4-57.9,26.7C725.5,568.1,707.3,506.9,718.7,469.2z"/>
		</g>
	</g>
</g>
</svg>
