<?xml version="1.0" encoding="utf-8"?>
<!-- Generator: Adobe Illustrator 25.2.0, SVG Export Plug-In . SVG Version: 6.00 Build 0)  -->
<svg version="1.1" id="Layer_1" xmlns="http://www.w3.org/2000/svg" xmlns:xlink="http://www.w3.org/1999/xlink" x="0px" y="0px"
	 viewBox="0 0 210.2 77.6" style="enable-background:new 0 0 210.2 77.6;" xml:space="preserve">
<style type="text/css">
	.st0{fill:#FFFFFF;}
	.st1{fill:#010101;}
</style>
<g>
	<path class="st0" d="M203.8,61.5V50c0-18.1-1.1-32.7-3.3-43.7l-195-1v58.1c17.7-0.7,39.2-0.9,64.6-0.7
		C105.7,62.9,186.4,62.5,203.8,61.5z"/>
	<path class="st1" d="M200.5,6.3c2.2,11,3.3,25.5,3.3,43.7v11.5c-17.5,1-98.1,1.4-133.7,1.2c-25.4-0.2-46.9,0.1-64.6,0.7l10.7,14.2
		c13.6-0.1,20-0.2,40.7-0.2h26.2c4.4,0.1,12.5,0,24.1-0.2l20.6-0.7c6.9-0.2,66.4-0.5,70.1-0.7l12.3-7V49.6c0-19.5-1.2-34.6-3.6-45.2
		l-1.4-3.3L4.3,0.1l1.1,5.3L200.5,6.3z"/>
	<path class="st1" d="M16.2,77.5L0,67.3V48.1C0,28.6,1.2,13.4,3.6,2.5l0.7-2.4l5.5,3.5C7.6,14.8,6.5,29.5,6.5,47.7L6.4,63.4"/>
</g>
<g>
	<path class="st1" d="M42,39.1c-0.7-2.4-1.7-4.8-3.5-6.9l-1.8-2.1c-1-1.1-1.9-2.1-2.9-3.2c-0.6-0.7-1.1-1.4-1.5-2.2
		c-0.4-0.9-0.6-1.7-0.5-2.6c0-0.6,0.2-1.1,0.7-1.6c0.6-0.6,1.5-0.6,2.1,0c0.3,0.3,0.5,0.6,0.6,1c0.2,0.6,0.3,1.3,0.4,1.9
		c0.1,0.4,0.2,0.8,0.3,1.2c0.3,0.7,0.9,1.1,1.8,1c0.2,0,0.4,0,0.5,0c1.1-0.3,2.2-0.6,3.2-1c0.6-0.2,1-0.6,1.1-1.2
		c0.1-0.4,0.1-0.9,0.1-1.3c-0.2-1.1-0.3-2.2-0.5-3.3c-0.3-1.3-0.7-2.5-1.5-3.7c-0.9-1.4-2.3-2.4-4.1-2.8c-0.7-0.1-1.5-0.2-2.2-0.2
		c-2.3,0-4.4,0.4-6.5,1.1c-1,0.3-1.9,0.9-2.5,1.6l-1.5,1.7c-0.5,0.7-0.9,1.5-1.1,2.3c-0.1,0.5-0.3,1-0.3,1.5
		c-0.3,1.7-0.2,3.5,0.6,5.2l0.6,1.1c0.7,1.3,1.4,2.5,2.1,3.8c1.1,2,2.3,3.9,3.9,5.5c0.6,0.6,1.2,1.2,1.8,1.8
		c1.2,1.2,2.1,2.6,2.7,4.1c0.3,0.8,0.4,1.7,0.3,2.5c-0.2,1-0.7,1.9-1.7,2.5c-0.8,0.5-1.8,0.5-2.5,0.1c-0.5-0.3-1-0.6-1.4-1
		c-1.3-1.2-1.8-2.7-2-4.3c-0.1-0.5-0.1-1-0.2-1.5c-0.1-0.6-0.5-1-1.3-1c-0.3,0-0.6,0-1,0s-0.7,0-1.1,0c-2.2,0.1-2.9,1-2.9,2.6
		c0.1,1,0.2,2.1,0.3,3.1c0.1,0.8,0.3,1.6,0.5,2.4c1,2.6,2.9,4.6,5.9,5.7c1,0.3,1.9,0.6,3,0.9c0.8,0.2,1.7,0.4,2.5,0.4
		c2.4,0.1,4.5-0.6,6.3-1.9c1.6-1.2,2.7-2.7,3.1-4.5c0.3-1.4,0.5-2.9,0.4-4.4C42.5,42,42.4,40.6,42,39.1z M30.9,45l-0.2-0.2
		C30.8,44.9,30.8,45,30.9,45z"/>
	<path class="st1" d="M56.9,15.5c-0.1-0.2-0.1-0.5-0.1-0.7c-0.1-0.9-0.6-1.5-1.7-1.6c-1.1-0.1-2.2-0.1-3.2,0c-1.1,0.2-1.7,0.8-2,1.7
		c-0.1,0.4-0.2,0.9-0.2,1.3c-0.1,1.4-0.1,2.9-0.2,4.4l-0.3,5.6c-0.2,2.2-0.3,4.4-0.3,6.7c-0.1,1.4,0.2,2.9,0.2,4.3
		c0.1,1.9,0.3,3.7,0.3,5.6c0.1,2.1,0.1,4.3,0.1,6.5c0,0.5-0.1,1,0.1,1.5c0.1,1,0.6,1.5,1.8,1.7c0.4,0.1,0.7,0.1,1.1,0.1h1.8
		c1.7,0,2.5-0.6,2.6-2.1c0-0.7,0.1-1.4,0.1-2.1l0.2-5.3c0.1-1,0-2.1-0.1-3.2c-0.1-1.4-0.1-2.7-0.1-4c-0.1-1.8-0.2-3.5-0.2-5.3
		c0-2.7,0.1-5.4,0.1-8.2c0-1.8-0.1-3.5-0.1-5.5v-1.4C56.8,15.5,56.9,15.5,56.9,15.5z"/>
	<path class="st1" d="M63.8,36.6v2.2c0,0.5-0.1,1.1-0.1,1.6l0.5,4.7c0.2,1.7,0.8,3.4,1.6,4.9c0.6,1.3,1.6,2.3,2.9,3.1
		c1.5,1,3.2,1.5,5.1,1.5c1.4,0,2.8-0.1,4.2-0.4c2.1-0.5,3.8-1.4,5.3-2.7c0.8-0.7,1.3-1.5,1.6-2.4s0.5-1.8,0.6-2.7
		c0.1-0.7,0.2-1.5,0.2-2.2c-0.1-2.1-0.2-4.2-0.3-6.3c-0.1-1-0.1-1.9-0.2-2.8c-0.1-0.6-0.2-1.3-0.4-1.9c-0.3-0.9-1.1-1.4-2.2-1.4
		c-0.4,0-0.8,0-1.2,0l-1.6,0.1l-2.9,0.2L75,32.4c-1.1,0.2-1.9,0.8-1.9,2c-0.1,0.6,0,1.3,0,1.9c0,1.1,0.9,1.8,2.1,1.7h1.6
		c0.8,0,1.2,0.3,1.4,0.9c0,0.1,0.1,0.3,0.1,0.4c0,1.6,0.2,3.2-0.3,4.8c-0.2,0.9-0.4,1.7-1,2.4c-1.2,1.7-3.8,1.5-5,0.4
		c-0.4-0.4-0.6-0.9-0.8-1.4c-0.3-1.5-0.4-2.9-0.4-4.4c0-2.9,0-5.7-0.1-8.6c0-0.5,0-1.1,0.1-1.6c0.2-1.5,0.2-3.1,0.2-4.6
		c0-1.4,0.2-5.3,0.6-6.7c0.1-0.3,0.2-0.7,0.4-1c0.8-1.3,2.5-1.4,3.5-0.2c0.3,0.3,0.5,0.7,0.7,1c0.4,0.9,0.5,4.4,0.6,5.3
		c0.1,0.6,0.1,1.2,0.2,1.8c0.2,0.9,0.9,1.4,1.9,1.4c1.2,0,2.3-0.1,3.5-0.2c1-0.1,1.6-0.6,1.7-1.4c0.1-0.4,0.2-0.9,0.2-1.3
		c0-1.1,0-2.1-0.1-3.2c0-1.2-0.1-2.3-0.3-3.4c-0.3-1.2-0.8-2.4-1.5-3.5c-0.9-1.3-2.1-2.3-3.8-2.8c-1.2-0.4-2.5-0.6-3.9-0.6
		s-2.7,0.1-3.9,0.4c-2.4,0.5-4.3,1.7-5.5,3.5c-0.6,1-1.1,1.9-1.4,3c-0.5,1.6-0.6,3.4-0.6,5L63.8,36.6z M76.4,30v0.2h0.3L76.4,30z"/>
	<path class="st1" d="M99.9,24.7c0.3,0.7,0.6,1.4,0.8,2.2l2.6,8.6c0.4,1.4,0.9,2.8,1.3,4.2c1,3.7,1.9,7.4,2.6,11.2
		c0.1,0.5,0.3,1,0.4,1.4c0.3,0.8,1.1,1.2,2.1,1.3h0.3l5,0.1c0.3,0,0.5,0,0.9-0.1c1-0.1,1.7-0.6,1.9-1.5c0.1-0.5,0.2-0.9,0.2-1.4
		l0.3-8.2c0-0.9,0.1-1.9,0.2-2.8c0.1-1.5,0.2-3,0.2-4.5c0-1.8-0.2-3.6-0.3-5.3c-0.2-2.7-0.3-5.3-0.5-8c-0.1-0.8-0.2-1.5-0.3-2.3
		c-0.3-1.5-0.6-3-0.9-4.5l-0.2-0.6c-0.3-0.6-0.8-1-1.5-1c-0.9-0.1-1.8,0-2.6,0.3c-0.5,0.2-1,0.5-1.1,1c-0.1,0.3-0.2,0.7-0.1,1
		c0,1.6,0.1,3.3,0.1,4.9c0.1,0.9,0.1,1.7,0.1,2.5c0.1,1.5,0.2,3.1,0.2,4.6c0,1.7-0.1,3.4-0.2,5.1c0,0.4-0.1,0.8-0.2,1.1
		c-0.1,0.1-0.1,0.3-0.3,0.4c-0.2,0-0.3-0.3-0.4-0.4c-0.2-0.3-0.3-0.6-0.4-0.9l-0.8-2.5l-2.3-7.7c-0.8-2.4-1.4-4.8-2.2-7.1
		c-0.1-0.2-0.2-0.5-0.3-0.7c-0.3-0.7-0.8-1.1-1.6-1.5l-0.8-0.3c-1.1-0.3-2.3-0.5-3.6-0.5c-1.2-0.1-2.5-0.2-3.8,0
		c-1.4,0.2-2.1,0.7-2.3,1.9c-0.3,1.7-0.2,3.4-0.2,5.1c-0.1,2.1,0.1,4.2,0.1,6.3c0,3.4,0.1,6.9,0,10.4c0,2.8,0.1,5.7,0.1,8.5
		c-0.1,2.1,0.1,4.3,0.1,6.3c0,0.2,0,0.3,0.1,0.5c0.1,0.9,0.7,1.3,1.7,1.4h1l2.6-0.2c1.5,0,2-0.9,1.9-1.8c0-0.2-0.1-0.5-0.1-0.7
		c0-0.3-0.1-0.6-0.1-0.9c-0.2-1.7-0.4-3.4-0.4-5c-0.1-1.7-0.2-3.4-0.3-5.1v-8.2c0-1.2,0.2-2.4,0.1-3.6c-0.1-1-0.1-1.9,0.2-2.9
		c0.1-0.3,0.1-0.6,0.4-0.7C99.6,24,99.8,24.4,99.9,24.7z M120.1,14.5C120.2,14.5,120.2,14.5,120.1,14.5L120.1,14.5z"/>
	<path class="st1" d="M151.4,31.1v2.3c0.1,3.6-0.5,7.1-1.1,10.6c-0.2,0.7-0.3,1.4-0.8,1.9c-0.6,1-1.7,1-2.6,0.3
		c-0.2-0.2-0.3-0.3-0.4-0.5c-0.2-0.4-0.4-0.7-0.5-1.1c-0.3-1-0.4-2-0.4-3c-0.1-1.2-0.1-2.5-0.1-3.8c-0.1-1.6-0.1-3.3-0.1-4.9
		c0.1-1.3,0.1-2.6,0-3.9c-0.1-2-0.1-4-0.2-6.1V22c-0.2-1.9-0.3-3.7-0.2-5.6v-0.8c-0.1-0.9-0.6-1.4-1.7-1.5l-1.7-0.1
		c-1,0-2.1,0-3-0.1c-1.9-0.1-2.6,0.6-2.6,1.9c-0.1,2.1-0.1,4.2,0.1,6.3c0.1,1.5,0,3,0,4.5c0,0.6-0.1,1.2-0.1,1.8
		c0.1,1.1,0.1,2.2,0.1,3.2l0.2,3.8c0.1,0.9,0.1,1.8,0.1,2.7c-0.1,1.8,0.1,3.6,0.4,5.3c0.4,2.1,1.2,4.1,2.8,5.8
		c1.7,1.9,3.7,3.3,6.5,3.9c0.8,0.1,1.5,0.3,2.3,0.2s1.6-0.2,2.5-0.3c2.9-0.3,5.8-2.4,6.7-4.6c0.7-1.6,1.2-3.3,1.5-4.9
		c0.2-1.2,0.3-2.3,0.4-3.4c0.1-0.9,0.3-1.7,0.4-2.6c0.3-1.9,0.3-3.8,0.3-5.7c0-2.1-0.1-4.2-0.2-6.3c-0.2-3-0.5-6.1-1-9.1
		c-0.1-0.5-0.1-0.9-0.3-1.3c-0.3-0.9-0.9-1.4-2.1-1.5c-0.6-0.1-1.2-0.1-1.8-0.1c-1,0-1.9-0.1-2.9,0c-1.6,0-1.9,0.9-1.9,1.7l0.1,1
		l0.3,2.2c0.3,2,0.5,4,0.8,6c0.1,1.4,0.2,2.8,0.2,4.2V31.1L151.4,31.1z M164.3,18.5C164.3,18.6,164.4,18.6,164.3,18.5L164.3,18.5z"
		/>
	<path class="st1" d="M166.9,27.1c0.1,4.2-0.2,8.4,0.2,12.6c0.2,1.6,0.3,3.3,0.5,4.9c0.2,1.7,0.4,3.3,0.4,5c0,1,0.1,1.9,0.2,2.9
		c0.1,0.8,0.6,1.4,1.8,1.5c0.3,0,0.5,0,0.8,0l2.8-0.3c1.5-0.1,1.9-0.9,1.9-1.9c0.1-0.1,0.1-0.2,0-0.4c0-1.3-0.1-2.7-0.1-4l-0.3-5.9
		c0-0.5-0.1-1,0-1.4c0-1,0.4-1.4,1.5-1.5l1.8-0.2c1.9-0.3,3.7-1,5.3-2c1.1-0.8,2-1.7,2.4-2.9l0.6-1.8c0.3-0.9,0.5-1.7,0.4-2.6
		c-0.1-1.3-0.3-2.7-0.3-4c0-1.8-0.3-3.6-0.7-5.4c-0.4-2.4-3-5.4-7.1-5.7c-1.6-0.1-3.2-0.4-4.8-0.6c-1.8-0.3-3.6-0.2-5.5-0.1
		c-1,0-1.7,0.6-1.8,1.4c-0.1,0.4-0.1,0.8-0.1,1.3c0,1.3,0.1,2.6,0.1,4c0.1,2.3,0.1,4.6-0.2,6.9v0.2
		C166.7,27.1,166.9,27.1,166.9,27.1z M173.9,21.6c0.1-1.2,0.8-1.7,2.2-1.7c1.5,0,2.4,0.5,3.1,1.6c0.5,0.8,0.6,1.7,0.8,2.5
		c0.1,0.8,0.3,1.6,0.3,2.4c0.1,0.9,0.2,1.8,0.1,2.6c-0.2,1.7-1.9,3.1-3.9,3.2c-1.2,0-1.7-0.3-1.9-1.3c-0.1-0.6-0.2-1.2-0.2-1.8
		l-0.3-4.5c0-0.6-0.1-1.2-0.1-1.8C173.8,22.4,173.8,22,173.9,21.6z"/>
</g>
</svg>
