<?xml version="1.0" encoding="utf-8"?>
<!-- Generator: Adobe Illustrator 25.2.0, SVG Export Plug-In . SVG Version: 6.00 Build 0)  -->
<svg version="1.1" id="Layer_1" xmlns="http://www.w3.org/2000/svg" xmlns:xlink="http://www.w3.org/1999/xlink" x="0px" y="0px"
	 viewBox="0 0 210.2 77.6" style="enable-background:new 0 0 210.2 77.6;" xml:space="preserve">
<style type="text/css">
	.st0{fill:#FDBC2B;}
	.st1{fill:#010101;}
	.st2{fill:#FFFFFF;}
</style>
<g>
	<path class="st0" d="M203.8,61.5V50c0-18.1-1.1-32.7-3.3-43.7l-195-1v58.1c17.7-0.7,39.2-0.9,64.6-0.7
		C105.7,62.9,186.4,62.5,203.8,61.5z"/>
	<path class="st1" d="M200.5,6.3c2.2,11,3.3,25.5,3.3,43.7v11.5c-17.5,1-98.1,1.4-133.7,1.2c-25.4-0.2-46.9,0.1-64.6,0.7l10.7,14.2
		c13.6-0.1,20-0.2,40.7-0.2h26.2c4.4,0.1,12.5,0,24.1-0.2l20.6-0.7c6.9-0.2,66.4-0.5,70.1-0.7l12.3-7V49.6c0-19.5-1.2-34.6-3.6-45.2
		l-1.4-3.3L4.3,0.1l1.1,5.3L200.5,6.3z"/>
	<path class="st1" d="M16.2,77.5L0,67.3V48.1C0,28.6,1.2,13.4,3.6,2.5l0.7-2.4l5.5,3.5C7.6,14.8,6.5,29.5,6.5,47.7L6.4,63.4"/>
</g>
<g>
	<path class="st2" d="M117.9,21.9c-0.1-0.8-0.2-1.5-0.3-2.3c-0.3-1.5-0.6-3-0.9-4.5l-0.2-0.6c-0.3-0.6-0.8-1-1.5-1
		c-0.9-0.1-1.8,0-2.6,0.3c-0.5,0.2-1,0.5-1.1,1c-0.1,0.3-0.2,0.7-0.1,1c0,1.6,0.1,3.3,0.1,4.9c0.1,0.9,0.1,1.7,0.1,2.5
		c0.1,1.5,0.2,3.1,0.2,4.6c0,1.7-0.1,3.4-0.2,5.1c0,0.4-0.1,0.8-0.2,1.1c-0.1,0.1-0.1,0.3-0.3,0.4c-0.2,0-0.3-0.3-0.4-0.4
		c-0.2-0.3-0.3-0.6-0.4-0.9l-0.8-2.5l-2.3-7.7c-0.8-2.4-1.4-4.8-2.2-7.1c-0.1-0.2-0.2-0.5-0.3-0.7c-0.3-0.7-0.8-1.1-1.6-1.5
		l-0.8-0.3c-1.1-0.3-2.3-0.5-3.6-0.5c-1.2-0.1-2.5-0.2-3.8,0c-1.4,0.2-2.1,0.7-2.3,1.9c-0.3,1.7-0.2,3.4-0.2,5.1
		c-0.1,2.1,0.1,4.2,0.1,6.3c0,3.4,0.1,6.9,0,10.4c0,2.8,0.1,5.7,0.1,8.5c-0.1,2.1,0.1,4.3,0.1,6.3c0,0.2,0,0.3,0.1,0.5
		c0.1,0.9,0.7,1.3,1.7,1.4h1l2.6-0.2c1.5,0,2-0.9,1.9-1.8c0-0.2-0.1-0.5-0.1-0.7c0-0.3-0.1-0.6-0.1-0.9c-0.2-1.7-0.4-3.4-0.4-5
		c-0.1-1.7-0.2-3.4-0.3-5.1v-8.2c0-1.2,0.2-2.4,0.1-3.6c-0.1-1-0.1-1.9,0.2-2.9c0.1-0.3,0.1-0.6,0.4-0.7c0-0.1,0.2,0.3,0.3,0.6
		c0.3,0.7,0.6,1.4,0.8,2.2l2.6,8.6c0.4,1.4,0.9,2.8,1.3,4.2c1,3.7,1.9,7.4,2.6,11.2c0.1,0.5,0.3,1,0.4,1.4c0.3,0.8,1.1,1.2,2.1,1.3
		h0.3l5,0.1c0.3,0,0.5,0,0.9-0.1c1-0.1,1.7-0.6,1.9-1.5c0.1-0.5,0.2-0.9,0.2-1.4l0.3-8.2c0-0.9,0.1-1.9,0.2-2.8
		c0.1-1.5,0.2-3,0.2-4.5c0-1.8-0.2-3.6-0.3-5.3C118.2,27.2,118.1,24.6,117.9,21.9z"/>
	<path class="st2" d="M159,16.4c-0.1-0.5-0.1-0.9-0.3-1.3c-0.3-0.9-0.9-1.4-2.1-1.5c-0.6-0.1-1.2-0.1-1.8-0.1c-1,0-1.9-0.1-2.9,0
		c-1.6,0-1.9,0.9-1.9,1.7l0.1,1l0.3,2.2c0.3,2,0.5,4,0.8,6c0.1,1.4,0.2,2.8,0.2,4.2v2.5v2.3c0.1,3.6-0.5,7.1-1.1,10.6
		c-0.2,0.7-0.3,1.4-0.8,1.9c-0.6,1-1.7,1-2.6,0.3c-0.2-0.2-0.3-0.3-0.4-0.5c-0.2-0.4-0.4-0.7-0.5-1.1c-0.3-1-0.4-2-0.4-3
		c-0.1-1.2-0.1-2.5-0.1-3.8c-0.1-1.6-0.1-3.3-0.1-4.9c0.1-1.3,0.1-2.6,0-3.9c-0.1-2-0.1-4-0.2-6.1V22c-0.2-1.9-0.3-3.7-0.2-5.6v-0.8
		c-0.1-0.9-0.6-1.4-1.7-1.5l-1.7-0.1c-1,0-2.1,0-3-0.1c-1.9-0.1-2.6,0.6-2.6,1.9c-0.1,2.1-0.1,4.2,0.1,6.3c0.1,1.5,0,3,0,4.5
		c0,0.6-0.1,1.2-0.1,1.8c0.1,1.1,0.1,2.2,0.1,3.2l0.2,3.8c0.1,0.9,0.1,1.8,0.1,2.7c-0.1,1.8,0.1,3.6,0.4,5.3
		c0.4,2.1,1.2,4.1,2.8,5.8c1.7,1.9,3.7,3.3,6.5,3.9c0.8,0.1,1.5,0.3,2.3,0.2c0.8-0.1,1.6-0.2,2.5-0.3c2.9-0.3,5.8-2.4,6.7-4.6
		c0.7-1.6,1.2-3.3,1.5-4.9c0.2-1.2,0.3-2.3,0.4-3.4c0.1-0.9,0.3-1.7,0.4-2.6c0.3-1.9,0.3-3.8,0.3-5.7c0-2.1-0.1-4.2-0.2-6.3
		C159.8,22.5,159.5,19.4,159,16.4z"/>
	<path class="st2" d="M30.7,44.8c0.1,0.1,0.1,0.2,0.2,0.2L30.7,44.8z"/>
	<path class="st2" d="M57,35.9c-0.1-1.8-0.2-3.5-0.2-5.3c0-2.7,0.1-5.4,0.1-8.2c0-1.8-0.1-3.5-0.1-5.5v-1.4h0.1
		c-0.1-0.2-0.1-0.5-0.1-0.7c-0.1-0.9-0.6-1.5-1.7-1.6c-1.1-0.1-2.2-0.1-3.2,0c-1.1,0.2-1.7,0.8-2,1.7c-0.1,0.4-0.2,0.9-0.2,1.3
		c-0.1,1.4-0.1,2.9-0.2,4.4l-0.3,5.6c-0.2,2.2-0.3,4.4-0.3,6.7c-0.1,1.4,0.2,2.9,0.2,4.3c0.1,1.9,0.3,3.7,0.3,5.6
		c0.1,2.1,0.1,4.3,0.1,6.5c0,0.5-0.1,1,0.1,1.5c0.1,1,0.6,1.5,1.8,1.7c0.4,0.1,0.7,0.1,1.1,0.1h1.8c1.7,0,2.5-0.6,2.6-2.1
		c0-0.7,0.1-1.4,0.1-2.1l0.2-5.3c0.1-1,0-2.1-0.1-3.2C57,38.5,57,37.2,57,35.9z"/>
	<path class="st2" d="M85.2,35.1c-0.1-0.6-0.2-1.3-0.4-1.9c-0.3-0.9-1.1-1.4-2.2-1.4c-0.4,0-0.8,0-1.2,0l-1.6,0.1l-2.9,0.2L75,32.4
		c-1.1,0.2-1.9,0.8-1.9,2c-0.1,0.6,0,1.3,0,1.9c0,1.1,0.9,1.8,2.1,1.7h1.6c0.8,0,1.2,0.3,1.4,0.9c0,0.1,0.1,0.3,0.1,0.4
		c0,1.6,0.2,3.2-0.3,4.8c-0.2,0.9-0.4,1.7-1,2.4c-1.2,1.7-3.8,1.5-5,0.4c-0.4-0.4-0.6-0.9-0.8-1.4c-0.3-1.5-0.4-2.9-0.4-4.4
		c0-2.9,0-5.7-0.1-8.6c0-0.5,0-1.1,0.1-1.6c0.2-1.5,0.2-3.1,0.2-4.6c0-1.4,0.2-5.3,0.6-6.7c0.1-0.3,0.2-0.7,0.4-1
		c0.8-1.3,2.5-1.4,3.5-0.2c0.3,0.3,0.5,0.7,0.7,1c0.4,0.9,0.5,4.4,0.6,5.3c0.1,0.6,0.1,1.2,0.2,1.8c0.2,0.9,0.9,1.4,1.9,1.4
		c1.2,0,2.3-0.1,3.5-0.2c1-0.1,1.6-0.6,1.7-1.4c0.1-0.4,0.2-0.9,0.2-1.3c0-1.1,0-2.1-0.1-3.2c0-1.2-0.1-2.3-0.3-3.4
		c-0.3-1.2-0.8-2.4-1.5-3.5c-0.9-1.3-2.1-2.3-3.8-2.8c-1.2-0.4-2.5-0.6-3.9-0.6c-1.4,0-2.7,0.1-3.9,0.4c-2.4,0.5-4.3,1.7-5.5,3.5
		c-0.6,1-1.1,1.9-1.4,3c-0.5,1.6-0.6,3.4-0.6,5l0.5,13.2v2.2c0,0.5-0.1,1.1-0.1,1.6l0.5,4.7c0.2,1.7,0.8,3.4,1.6,4.9
		c0.6,1.3,1.6,2.3,2.9,3.1c1.5,1,3.2,1.5,5.1,1.5c1.4,0,2.8-0.1,4.2-0.4c2.1-0.5,3.8-1.4,5.3-2.7c0.8-0.7,1.3-1.5,1.6-2.4
		c0.3-0.9,0.5-1.8,0.6-2.7c0.1-0.7,0.2-1.5,0.2-2.2c-0.1-2.1-0.2-4.2-0.3-6.3C85.3,36.9,85.3,36,85.2,35.1z"/>
	<path class="st2" d="M186.8,25.1c0-1.8-0.3-3.6-0.7-5.4c-0.4-2.4-3-5.4-7.1-5.7c-1.6-0.1-3.2-0.4-4.8-0.6c-1.8-0.3-3.6-0.2-5.5-0.1
		c-1,0-1.7,0.6-1.8,1.4c-0.1,0.4-0.1,0.8-0.1,1.3c0,1.3,0.1,2.6,0.1,4c0.1,2.3,0.1,4.6-0.2,6.9v0.2h0.2c0.1,4.2-0.2,8.4,0.2,12.6
		c0.2,1.6,0.3,3.3,0.5,4.9c0.2,1.7,0.4,3.3,0.4,5c0,1,0.1,1.9,0.2,2.9c0.1,0.8,0.6,1.4,1.8,1.5c0.3,0,0.5,0,0.8,0l2.8-0.3
		c1.5-0.1,1.9-0.9,1.9-1.9c0.1-0.1,0.1-0.2,0-0.4c0-1.3-0.1-2.7-0.1-4l-0.3-5.9c0-0.5-0.1-1,0-1.4c0-1,0.4-1.4,1.5-1.5l1.8-0.2
		c1.9-0.3,3.7-1,5.3-2c1.1-0.8,2-1.7,2.4-2.9l0.6-1.8c0.3-0.9,0.5-1.7,0.4-2.6C187,27.8,186.8,26.4,186.8,25.1z M180.4,29
		c-0.2,1.7-1.9,3.1-3.9,3.2c-1.2,0-1.7-0.3-1.9-1.3c-0.1-0.6-0.2-1.2-0.2-1.8l-0.3-4.5c0-0.6-0.1-1.2-0.1-1.8
		c-0.2-0.4-0.2-0.8-0.1-1.2c0.1-1.2,0.8-1.7,2.2-1.7c1.5,0,2.4,0.5,3.1,1.6c0.5,0.8,0.6,1.7,0.8,2.5c0.1,0.8,0.3,1.6,0.3,2.4
		C180.4,27.3,180.5,28.2,180.4,29z"/>
	<path class="st2" d="M42,39.1c-0.7-2.4-1.7-4.8-3.5-6.9l-1.8-2.1c-1-1.1-1.9-2.1-2.9-3.2c-0.6-0.7-1.1-1.4-1.5-2.2
		c-0.4-0.9-0.6-1.7-0.5-2.6c0-0.6,0.2-1.1,0.7-1.6c0.6-0.6,1.5-0.6,2.1,0c0.3,0.3,0.5,0.6,0.6,1c0.2,0.6,0.3,1.3,0.4,1.9
		c0.1,0.4,0.2,0.8,0.3,1.2c0.3,0.7,0.9,1.1,1.8,1c0.2,0,0.4,0,0.5,0c1.1-0.3,2.2-0.6,3.2-1c0.6-0.2,1-0.6,1.1-1.2
		c0.1-0.4,0.1-0.9,0.1-1.3c-0.2-1.1-0.3-2.2-0.5-3.3c-0.3-1.3-0.7-2.5-1.5-3.7c-0.9-1.4-2.3-2.4-4.1-2.8c-0.7-0.1-1.5-0.2-2.2-0.2
		c-2.3,0-4.4,0.4-6.5,1.1c-1,0.3-1.9,0.9-2.5,1.6l-1.5,1.7c-0.5,0.7-0.9,1.5-1.1,2.3c-0.1,0.5-0.3,1-0.3,1.5
		c-0.3,1.7-0.2,3.5,0.6,5.2l0.6,1.1c0.7,1.3,1.4,2.5,2.1,3.8c1.1,2,2.3,3.9,3.9,5.5c0.6,0.6,1.2,1.2,1.8,1.8
		c1.2,1.2,2.1,2.6,2.7,4.1c0.3,0.8,0.4,1.7,0.3,2.5c-0.2,1-0.7,1.9-1.7,2.5c-0.8,0.5-1.8,0.5-2.5,0.1c-0.5-0.3-1-0.6-1.4-1
		c-1.3-1.2-1.8-2.7-2-4.3c-0.1-0.5-0.1-1-0.2-1.5c-0.1-0.6-0.5-1-1.3-1c-0.3,0-0.6,0-1,0c-0.4,0-0.7,0-1.1,0c-2.2,0.1-2.9,1-2.9,2.6
		c0.1,1,0.2,2.1,0.3,3.1c0.1,0.8,0.3,1.6,0.5,2.4c1,2.6,2.9,4.6,5.9,5.7c1,0.3,1.9,0.6,3,0.9c0.8,0.2,1.7,0.4,2.5,0.4
		c2.4,0.1,4.5-0.6,6.3-1.9c1.6-1.2,2.7-2.7,3.1-4.5c0.3-1.4,0.5-2.9,0.4-4.4C42.5,42,42.4,40.6,42,39.1z"/>
	<path class="st1" d="M46.8,49.6v-2c0-1.6,0-3.2-0.1-4.8c0-1.2-0.1-2.3-0.2-3.5v-0.2L46.4,38c-0.7-1.7-1.6-3.4-2.8-4.7h-0.1
		c-0.6-0.6-1.2-1.4-1.7-2.1l-0.2-0.1l-0.7-0.8c0.1,0,0.2,0,0.3,0c0.2,0,0.6-0.1,0.9-0.1h0.1l1.1-0.3h-0.1l2.4-0.7
		c0.2-0.1,0.4-0.2,0.6-0.3c0.1-0.9,0.1-1.8,0.2-2.8l0.3-5.6c0.1-0.9,0.1-1.6,0.1-2.4c-0.2-0.5-0.5-1-0.8-1.5c-0.4-0.6-1-1.2-1.6-1.7
		l-1.3-1.1c-1.3-1.6-3.2-2.9-5.5-3.4c0,0-4.9-0.7-10.4,0.9c-1.3,0.4-2.7,1.4-3.7,2.4l-1.6,1.8c-0.7,1-1.3,2.1-1.6,3.4L20.2,19
		c-0.2,0.4-0.2,1-0.3,1.4c-0.1,0.6-0.2,1.4-0.2,2c0,1.4,0.3,2.9,1,4.3l0.5,1.1l0.6,1.1c0.4,0.8,1.2,2.1,1.6,2.9
		c1.1,1.9,2.4,4,4.1,5.8c-0.5-0.3-1.1-0.4-1.7-0.5c-0.6,0-1,0-1.4,0h-0.8c-0.2,0-0.3,0-0.4,0c-4.2,0.2-5.6,2-5.5,4.9
		c0,1.2,0.1,2.3,0.3,3.3c0.1,0.9,0.3,2,0.6,2.8c0.9,2.3,2.5,4.3,4.7,5.7l1.8,1.2c1.1,1,2.5,1.7,4.1,2.3c0.9,0.4,2.2,0.7,3.2,1
		c0.9,0.3,2,0.5,3.1,0.5c3.1,0.2,5.8-0.7,8.1-2.4c1.6-1.2,2.8-2.7,3.5-4.5c-0.1-0.3-0.2-0.6-0.2-0.9C46.8,50.6,46.8,50,46.8,49.6z
		 M41.9,47.8c-0.4,1.8-1.5,3.3-3.1,4.5c-1.8,1.3-3.9,2-6.3,1.9c-0.8,0-1.7-0.2-2.5-0.4c-1.1-0.3-2-0.6-3-0.9c-3-1.1-4.9-3.1-5.9-5.7
		c-0.2-0.8-0.4-1.6-0.5-2.4c-0.1-1-0.2-2.1-0.3-3.1c0-1.6,0.7-2.5,2.9-2.6c0.4,0,0.7,0,1.1,0c0.4,0,0.7,0,1,0c0.8,0,1.2,0.4,1.3,1
		c0.1,0.5,0.1,1,0.2,1.5c0.2,1.6,0.7,3.1,2,4.3c0.4,0.4,0.9,0.7,1.4,1c0.7,0.4,1.7,0.4,2.5-0.1c1-0.6,1.5-1.5,1.7-2.5
		c0.1-0.8,0-1.7-0.3-2.5c-0.6-1.5-1.5-2.9-2.7-4.1c-0.6-0.6-1.2-1.2-1.8-1.8c-1.6-1.6-2.8-3.5-3.9-5.5c-0.7-1.3-1.4-2.5-2.1-3.8
		L23,25.5c-0.8-1.7-0.9-3.5-0.6-5.2c0-0.5,0.2-1,0.3-1.5c0.2-0.8,0.6-1.6,1.1-2.3l1.5-1.7c0.6-0.7,1.5-1.3,2.5-1.6
		c2.1-0.7,4.2-1.1,6.5-1.1c0.7,0,1.5,0.1,2.2,0.2c1.8,0.4,3.2,1.4,4.1,2.8c0.8,1.2,1.2,2.4,1.5,3.7c0.2,1.1,0.3,2.2,0.5,3.3
		c0,0.4,0,0.9-0.1,1.3c-0.1,0.6-0.5,1-1.1,1.2c-1,0.4-2.1,0.7-3.2,1c-0.1,0-0.3,0-0.5,0c-0.9,0.1-1.5-0.3-1.8-1
		c-0.1-0.4-0.2-0.8-0.3-1.2c-0.1-0.6-0.2-1.3-0.4-1.9c-0.1-0.4-0.3-0.7-0.6-1c-0.6-0.6-1.5-0.6-2.1,0c-0.5,0.5-0.7,1-0.7,1.6
		c-0.1,0.9,0.1,1.7,0.5,2.6c0.4,0.8,0.9,1.5,1.5,2.2c1,1.1,1.9,2.1,2.9,3.2l1.8,2.1c1.8,2.1,2.8,4.5,3.5,6.9
		c0.4,1.5,0.5,2.9,0.3,4.3C42.4,44.9,42.2,46.4,41.9,47.8z M30.7,44.8l0.2,0.2C30.8,45,30.8,44.9,30.7,44.8z"/>
	<path class="st1" d="M61.2,40.6v-1.5c0-0.1,0.1-0.2,0.1-0.3v-2.2l-0.4-12.8c0.1-1.8,0.2-3.8,0.7-5.6c0.1-0.4,0.2-0.9,0.4-1.3
		c0,0,0-0.1,0-0.1c-0.1-1-0.5-1.9-1.2-2.5l-1.9-1.6c-0.7-1-1.9-1.6-3.5-1.8c-0.5-0.1-1.3-0.1-1.9-0.1c-0.8,0-1.6,0.1-2.2,0.2
		c-2.2,0.5-3.6,1.6-4.1,3.4c-0.2,0.5-0.2,1-0.3,1.5c0,0.4-0.1,0.7-0.1,1v0.8c0,0.1,0,0.3,0,0.4c0.4,0.9,0.7,2,0.9,2.9
		c0.2,1,0.4,2.1,0.5,3.1c0,0.1,0.1,0.4,0.1,0.5c0.1,0.5-0.1,1.1-0.1,1.7c-0.2,1.2-0.9,2-2,2.6c-0.1,1.3-0.1,2.7-0.1,3.9
		c0,0.7,0,1.6,0.1,2.2c0,0.2,0.1,0.5,0.1,0.7c0,0.7,0.1,1.1,0.1,1.5l0,0.8c0.4,1,0.8,1.9,1.1,2.9c0.5,1.6,0.6,3.2,0.5,4.9v0.1
		c0.1,1.6-0.1,3.2-0.5,4.8c-0.1,0.4-0.2,0.8-0.4,1.2c0.3,0.9,0.8,1.5,1.6,2l2.3,1.7c0.6,0.5,1.4,0.8,2.5,1c0.6,0.1,1.1,0.2,1.7,0.2
		H57c3.4-0.1,4.9-1.2,5.1-4.1c0-0.7,0-1.4,0.1-2.1l0.1-2.4c-0.3-0.9-0.5-1.9-0.6-2.9L61.2,40.6z M57.2,43.1L57,48.4
		c0,0.7-0.1,1.4-0.1,2.1c-0.1,1.5-0.9,2.1-2.6,2.1h-1.8c-0.4,0-0.7,0-1.1-0.1c-1.2-0.2-1.7-0.7-1.8-1.7c-0.2-0.5-0.1-1-0.1-1.5
		c0-2.2,0-4.4-0.1-6.5c0-1.9-0.2-3.7-0.3-5.6c0-1.4-0.3-2.9-0.2-4.3c0-2.3,0.1-4.5,0.3-6.7l0.3-5.6c0.1-1.5,0.1-3,0.2-4.4
		c0-0.4,0.1-0.9,0.2-1.3c0.3-0.9,0.9-1.5,2-1.7c1-0.1,2.1-0.1,3.2,0c1.1,0.1,1.6,0.7,1.7,1.6c0,0.2,0,0.5,0.1,0.7h-0.1v1.4
		c0,2,0.1,3.7,0.1,5.5c0,2.8-0.1,5.5-0.1,8.2c0,1.8,0.1,3.5,0.2,5.3c0,1.3,0,2.6,0.1,4C57.2,41,57.3,42.1,57.2,43.1z"/>
	<path class="st1" d="M48,45.9L48,45.9c0.1-1.8,0-3.4-0.5-5C47.2,40,46.9,39,46.4,38l0.1,1.1v0.2c0.1,1.2,0.2,2.3,0.2,3.5
		c0.1,1.6,0.1,3.2,0.1,4.8v2c0,0.4,0,1,0.1,1.4c0,0.3,0.1,0.7,0.2,0.9c0.2-0.4,0.3-0.8,0.4-1.2C47.9,49.1,48.1,47.5,48,45.9z"/>
	<path class="st1" d="M46.4,26.1c0,0.9-0.1,1.8-0.2,2.8c1-0.6,1.7-1.4,2-2.6c0-0.6,0.2-1.2,0.1-1.7c0-0.1-0.1-0.4-0.1-0.5
		c-0.1-1-0.3-2.1-0.5-3.1c-0.2-1-0.5-2-0.9-2.9c0,0.8,0,1.6-0.1,2.4L46.4,26.1z"/>
	<path class="st1" d="M89.6,51.6v-1.3c0-0.4-0.1-0.8-0.1-1.3v-1.3c0-0.9-0.1-1.8,0-2.6c0-0.7-0.1-1.4-0.1-2V41
		c-0.1-1.2-0.1-3.2-0.1-4.4v-2.7c-0.1-0.2-0.3-0.4-0.5-0.5l-1.4-1.2c0.9-0.4,1.5-1,1.9-1.8v-4.1c0-0.4-0.1-0.9-0.1-1.3v-2.5
		c0-0.9-0.1-1.8,0-2.5v0c-0.3-1.1-0.8-2.3-1.5-3.4c-0.5-0.7-1.1-1.4-1.8-2l-1.6-1.3c-1.1-1.3-2.7-2.4-4.4-2.9
		c-1.4-0.5-3.1-0.8-4.8-0.8c-1.6,0-3.2,0.2-4.7,0.5c-3.1,0.7-5.6,2.2-7.2,4.6c-0.5,0.7-0.9,1.4-1.2,2.2c0,0.2,0,0.4,0.1,0.7v1.6
		c0,1,0.1,2,0.1,2.9v2.6c0,1.4-0.1,2.8-0.1,4.1c-0.1,1.4-0.1,2.7-0.1,4c0,1.1,0.1,2.3,0.1,3.4c0,0.6,0.1,1.2,0.1,1.8
		c0,1.3,0,2.5,0.1,3.9c0.1,1.1,0.2,2.3,0.1,3.4l-0.1,2.9c0.3,1,0.7,1.9,1.2,2.8c0.8,1.6,2,2.8,3.6,3.9l0.6,0.4l1.3,1.1l0.9,0.7
		c1.9,1.3,4.2,2,6.6,2c1.7,0.1,3.3-0.1,4.9-0.4c2.6-0.5,4.7-1.7,6.5-3.3c0.9-0.7,1.5-1.6,1.9-2.5c0-0.1-0.1-0.2-0.1-0.4
		C89.6,52.3,89.6,51.9,89.6,51.6z M85.5,46.4c-0.1,0.9-0.3,1.8-0.6,2.7c-0.3,0.9-0.8,1.7-1.6,2.4c-1.5,1.3-3.2,2.2-5.3,2.7
		c-1.4,0.3-2.8,0.4-4.2,0.4c-1.9,0-3.6-0.5-5.1-1.5c-1.3-0.8-2.3-1.8-2.9-3.1c-0.8-1.5-1.4-3.2-1.6-4.9l-0.5-4.7
		c0-0.5,0.1-1.1,0.1-1.6v-2.2l-0.5-13.2c0-1.6,0.1-3.4,0.6-5c0.3-1.1,0.8-2,1.4-3c1.2-1.8,3.1-3,5.5-3.5c1.2-0.3,2.5-0.4,3.9-0.4
		c1.4,0,2.7,0.2,3.9,0.6c1.7,0.5,2.9,1.5,3.8,2.8c0.7,1.1,1.2,2.3,1.5,3.5c0.2,1.1,0.3,2.2,0.3,3.4c0.1,1.1,0.1,2.1,0.1,3.2
		c0,0.4-0.1,0.9-0.2,1.3c-0.1,0.8-0.7,1.3-1.7,1.4c-1.2,0.1-2.3,0.2-3.5,0.2c-1,0-1.7-0.5-1.9-1.4c-0.1-0.6-0.1-1.2-0.2-1.8
		c-0.1-0.9-0.2-4.4-0.6-5.3c-0.2-0.3-0.4-0.7-0.7-1c-1-1.2-2.7-1.1-3.5,0.2c-0.2,0.3-0.3,0.7-0.4,1C71.2,21,71,24.9,71,26.3
		c0,1.5,0,3.1-0.2,4.6c-0.1,0.5-0.1,1.1-0.1,1.6c0.1,2.9,0.1,5.7,0.1,8.6c0,1.5,0.1,2.9,0.4,4.4c0.2,0.5,0.4,1,0.8,1.4
		c1.2,1.1,3.8,1.3,5-0.4c0.6-0.7,0.8-1.5,1-2.4c0.5-1.6,0.3-3.2,0.3-4.8c0-0.1-0.1-0.3-0.1-0.4C78,38.3,77.6,38,76.8,38h-1.6
		c-1.2,0.1-2.1-0.6-2.1-1.7c0-0.6-0.1-1.3,0-1.9c0-1.2,0.8-1.8,1.9-2l1.9-0.3l2.9-0.2l1.6-0.1c0.4,0,0.8,0,1.2,0
		c1.1,0,1.9,0.5,2.2,1.4c0.2,0.6,0.3,1.3,0.4,1.9c0.1,0.9,0.1,1.8,0.2,2.8c0.1,2.1,0.2,4.2,0.3,6.3C85.7,44.9,85.6,45.7,85.5,46.4z
		 M76.7,30.2h-0.3V30L76.7,30.2z"/>
	<path class="st1" d="M62.3,41.9c-0.1-1.4-0.1-2.6-0.1-3.9c0-0.6-0.1-1.2-0.1-1.8c0-1.1-0.1-2.3-0.1-3.4c0-1.3,0-2.6,0.1-4
		c0-1.3,0.1-2.7,0.1-4.1v-2.6c0-0.9-0.1-1.9-0.1-2.9v-1.6C62,17.4,62,17.2,62,16.9c-0.2,0.4-0.3,0.8-0.4,1.3
		C61.1,20,61,22,60.9,23.8l0.4,12.8v2.2c0,0.1-0.1,0.2-0.1,0.3v1.5l0.5,4.7c0.1,1,0.3,2,0.6,2.9l0.1-2.9
		C62.5,44.2,62.4,43,62.3,41.9z"/>
	<path class="st1" d="M123.7,32.2c-0.1-2.7-0.3-5.5-0.5-8.1c-0.1-0.6-0.2-1.6-0.4-2.5c-0.3-1.5-0.6-3-0.9-4.5l-0.2-0.8
		c-0.2-0.6-0.6-1.1-1.1-1.5l-0.2-0.1h-0.1l-1.6-1.4c-0.7-1.1-1.8-1.7-3.2-1.9c-1.4-0.1-2.7-0.1-4.1,0.4c-1.2,0.4-2.5,1.4-2.9,2.8
		v0.2c0,0.1-0.1,0.3-0.1,0.5l-0.2-0.1l-1.8-1.5c-0.6-0.8-1.6-1.5-2.6-2l-0.8-0.2c-1.6-0.4-3.1-0.6-4.4-0.7c-0.7-0.1-1.7-0.1-2.4-0.1
		s-1.4,0-2.2,0.1h-0.1c-2.7,0.5-4,1.5-4.5,3.9c-0.2,1.4-0.2,3-0.2,4.6V20c0.1,0.2,0.1,0.5,0.2,0.7c0.3,1.3,0.4,2.4,0.4,3.7
		c0.1,1,0.1,2.3,0.1,3.3c0,0.6-0.1,1.2-0.2,1.8h-0.1c-0.1,0.3-0.2,0.6-0.3,0.9v3.5c0.3,0.4,0.6,0.8,0.7,1.4c0.2,0.6,0.4,1.3,0.4,2.2
		c0.1,0.6,0.1,1.5,0.1,2c0,0.3,0.1,0.5,0.1,0.9c0.1,2,0.2,4.4,0.3,6.3c0,0.7-0.1,1.6-0.2,2.5c-0.2,1-0.4,1.9-0.7,2.9h0.1
		c-0.1,0.3-0.2,0.5-0.3,0.8c0.3,1.2,1,2,2,2.4l1.9,1.6c0.7,0.5,1.6,0.9,2.8,1h1.3l2.6-0.2h0.1c3.3-0.1,4.5-2.1,4.3-4.1
		c0-0.2-0.1-0.4-0.1-0.6c0-0.2-0.1-0.7-0.1-0.8c-0.1-0.2-0.1-0.2-0.1-0.3c-0.1-0.9-0.2-1.8-0.3-2.7l0.4,2.2l0.5,1.6
		c0.4,1.1,1.1,1.8,2.1,2.3l1.9,1.5c0.7,0.6,1.8,1,3.1,1.1h0.6l5,0.1c0.4,0,0.8-0.1,1.1-0.1c2.5-0.2,3.7-1.3,4.2-3.1
		c0.1-0.6,0.2-1.2,0.2-1.8l0.3-8.1c0-0.6,0-1.2,0.1-1.8c0-0.3,0.1-0.7,0.1-1c0-0.5,0.1-0.9,0.1-1.4c0-1,0.1-2.1,0.1-3.1
		c0-1.3-0.1-2.9-0.2-4.2C123.8,32.9,123.7,32.5,123.7,32.2z M118.5,39.7c-0.1,0.9-0.2,1.9-0.2,2.8l-0.3,8.2c0,0.5-0.1,0.9-0.2,1.4
		c-0.2,0.9-0.9,1.4-1.9,1.5c-0.4,0.1-0.6,0.1-0.9,0.1l-5-0.1h-0.3c-1-0.1-1.8-0.5-2.1-1.3c-0.1-0.4-0.3-0.9-0.4-1.4
		c-0.7-3.8-1.6-7.5-2.6-11.2c-0.4-1.4-0.9-2.8-1.3-4.2l-2.6-8.6c-0.2-0.8-0.5-1.5-0.8-2.2c-0.1-0.3-0.3-0.7-0.3-0.6
		c-0.3,0.1-0.3,0.4-0.4,0.7c-0.3,1-0.3,1.9-0.2,2.9c0.1,1.2-0.1,2.4-0.1,3.6v8.2c0.1,1.7,0.2,3.4,0.3,5.1c0,1.6,0.2,3.3,0.4,5
		c0,0.3,0.1,0.6,0.1,0.9c0,0.2,0.1,0.5,0.1,0.7c0.1,0.9-0.4,1.8-1.9,1.8l-2.6,0.2h-1c-1-0.1-1.6-0.5-1.7-1.4
		c-0.1-0.2-0.1-0.3-0.1-0.5c0-2-0.2-4.2-0.1-6.3c0-2.8-0.1-5.7-0.1-8.5c0.1-3.5,0-7,0-10.4c0-2.1-0.2-4.2-0.1-6.3
		c0-1.7-0.1-3.4,0.2-5.1c0.2-1.2,0.9-1.7,2.3-1.9c1.3-0.2,2.6-0.1,3.8,0c1.3,0,2.5,0.2,3.6,0.5l0.8,0.3c0.8,0.4,1.3,0.8,1.6,1.5
		c0.1,0.2,0.2,0.5,0.3,0.7c0.8,2.3,1.4,4.7,2.2,7.1l2.3,7.7l0.8,2.5c0.1,0.3,0.2,0.6,0.4,0.9c0.1,0.1,0.2,0.4,0.4,0.4
		c0.2-0.1,0.2-0.3,0.3-0.4c0.1-0.3,0.2-0.7,0.2-1.1c0.1-1.7,0.2-3.4,0.2-5.1c0-1.5-0.1-3.1-0.2-4.6c0-0.8,0-1.6-0.1-2.5
		c0-1.6-0.1-3.3-0.1-4.9c-0.1-0.3,0-0.7,0.1-1c0.1-0.5,0.6-0.8,1.1-1c0.8-0.3,1.7-0.4,2.6-0.3c0.7,0,1.2,0.4,1.5,1l0.2,0.6
		c0.3,1.5,0.6,3,0.9,4.5c0.1,0.8,0.2,1.5,0.3,2.3c0.2,2.7,0.3,5.3,0.5,8c0.1,1.7,0.3,3.5,0.3,5.3C118.7,36.7,118.6,38.2,118.5,39.7z
		"/>
	<path class="st1" d="M90,52.1c0.3-1,0.5-1.9,0.7-2.9c0.1-0.9,0.2-1.8,0.2-2.5c-0.1-1.9-0.2-4.3-0.3-6.3c0-0.4-0.1-0.6-0.1-0.9
		c0-0.5,0-1.4-0.1-2c0-0.9-0.2-1.6-0.4-2.2c-0.1-0.5-0.4-1-0.7-1.4v2.7c0,1.2,0,3.2,0.1,4.4v2.1c0,0.6,0.1,1.3,0.1,2
		c-0.1,0.8,0,1.7,0,2.6V49c0,0.5,0.1,0.9,0.1,1.3v1.3c0,0.3,0,0.7,0.1,0.9c0,0.1,0.1,0.3,0.1,0.4c0.1-0.3,0.2-0.5,0.3-0.8H90z"/>
	<path class="st1" d="M89.2,22.5V25c0,0.4,0.1,0.9,0.1,1.3v4.1c0.1-0.3,0.2-0.6,0.3-0.9h0.1c0.1-0.6,0.2-1.2,0.2-1.8
		c0-1,0-2.3-0.1-3.3c0-1.3-0.1-2.4-0.4-3.7c-0.1-0.3-0.1-0.5-0.2-0.7v0C89.1,20.7,89.2,21.6,89.2,22.5z"/>
	<path class="st1" d="M164.7,41.5l-0.2-1.7c-0.2-1.9-0.3-3.9-0.3-5.7v-1.2c0-0.4,0.1-0.9,0.1-1.3v-5c0.1-1.3,0.1-2.5,0.1-3.8
		c0-0.5-0.1-1-0.1-1.4V20c0-0.3-0.1-0.6-0.1-1v-1.2c0-0.3-0.1-0.6-0.2-1c-0.3-0.8-0.7-1.3-1.2-1.8l-2.2-1.8
		c-0.8-0.9-1.9-1.5-3.3-1.7c-0.6-0.1-1.6-0.2-2.2-0.2c-0.9,0-2.3,0-3.2,0c-2.9,0.2-4,1.3-4.4,2.7l-0.4-0.3c-0.6-1-1.7-1.6-3.1-2.1
		l-1.8-0.1h-0.8c-0.3,0-0.6,0-0.8,0c-0.5,0-1,0-1.6,0c-4.1-0.2-5.6,1.4-5.6,4.2c0,0.4-0.1,0.8-0.1,1.2V18c0,1.2,0.1,2.9,0.2,4.1
		c0.1,0.7,0,1.3,0,1.9v3.4c0,0.2-0.1,0.3-0.1,0.5v0.5c0,1.1,0.1,2.2,0.1,3.2l0.2,3.9c0,0.8,0.1,1.6,0.1,2.5c-0.1,1.8,0,4,0.4,5.8
		c0.4,2.4,1.4,4.8,3.2,6.8c0.9,1.1,2,2,3.2,2.8l1.3,1c1.7,1.5,3.8,2.5,6.3,3.1c0.7,0.2,2.1,0.3,3,0.3l0.9-0.1
		c0.5-0.1,1.2-0.2,1.8-0.2c3.7-0.4,7.7-3.2,8.8-6h0.1c0.8-1.8,1.3-3.6,1.6-5.3c0.1-0.7,0.2-1.4,0.3-2.1l0.1-0.9c0-0.2,0-0.3,0-0.5
		L164.7,41.5z M159.9,37.5c-0.1,0.9-0.3,1.7-0.4,2.6c-0.1,1.1-0.2,2.2-0.4,3.4c-0.3,1.6-0.8,3.3-1.5,4.9c-0.9,2.2-3.8,4.3-6.7,4.6
		c-0.9,0.1-1.7,0.2-2.5,0.3c-0.8,0.1-1.5-0.1-2.3-0.2c-2.8-0.6-4.8-2-6.5-3.9c-1.6-1.7-2.4-3.7-2.8-5.8c-0.3-1.7-0.5-3.5-0.4-5.3
		c0-0.9,0-1.8-0.1-2.7l-0.2-3.8c0-1,0-2.1-0.1-3.2c0-0.6,0.1-1.2,0.1-1.8c0-1.5,0.1-3,0-4.5c-0.2-2.1-0.2-4.2-0.1-6.3
		c0-1.3,0.7-2,2.6-1.9c0.9,0.1,2,0.1,3,0.1l1.7,0.1c1.1,0.1,1.6,0.6,1.7,1.5v0.8c-0.1,1.9,0,3.7,0.2,5.6v0.9
		c0.1,2.1,0.1,4.1,0.2,6.1c0.1,1.3,0.1,2.6,0,3.9c0,1.6,0,3.3,0.1,4.9c0,1.3,0,2.6,0.1,3.8c0,1,0.1,2,0.4,3c0.1,0.4,0.3,0.7,0.5,1.1
		c0.1,0.2,0.2,0.3,0.4,0.5c0.9,0.7,2,0.7,2.6-0.3c0.5-0.5,0.6-1.2,0.8-1.9c0.6-3.5,1.2-7,1.1-10.6v-2.3v-2.5c0-1.4-0.1-2.8-0.2-4.2
		c-0.3-2-0.5-4-0.8-6l-0.3-2.2l-0.1-1c0-0.8,0.3-1.7,1.9-1.7c1-0.1,1.9,0,2.9,0c0.6,0,1.2,0,1.8,0.1c1.2,0.1,1.8,0.6,2.1,1.5
		c0.2,0.4,0.2,0.8,0.3,1.3c0.5,3,0.8,6.1,1,9.1c0.1,2.1,0.2,4.2,0.2,6.3C160.2,33.7,160.2,35.6,159.9,37.5z"/>
	<path class="st1" d="M192.4,31.2c0-0.6,0-0.9-0.1-1.2h-0.1c-0.1-0.9-0.1-1.9-0.1-2.7c0-1.9-0.4-3.9-0.8-5.8
		c-0.3-1.7-1.4-3.5-3.1-4.9l-1.3-1c-1.7-2-4.3-3.6-7.6-4c-1.5-0.1-3.1-0.3-4.6-0.5c-1-0.1-2.2-0.2-3.1-0.2c-0.8,0-2,0.1-2.9,0.1
		c-2.4,0.2-3.9,1.5-4.3,3.3c-0.2,0.6-0.2,1.1-0.2,1.7v1.8c0,0.2,0.1,0.5,0.1,0.7h0.1c0.4,3,0.8,6.3,1,9.3c0.1,2.1,0.2,4.3,0.2,6.3
		s0,4.1-0.3,6l-0.2,1.2c-0.1,0.4-0.2,0.9-0.2,1.4l-0.1,0.5c0,0.6,0.1,1.2,0.2,1.7c0.2,1.7,0.3,3.3,0.4,4.8c0,0.9,0.1,2.1,0.2,3
		c0.1,1.2,0.8,2.2,2,2.9l2.1,1.7c0.7,0.5,1.6,0.9,2.8,1h-0.1c0.6,0,1.2,0.1,1.7,0c0.9-0.1,1.6-0.2,2.5-0.3c2.8-0.3,4.1-1.6,4.2-3.5
		c0.2-0.5,0.2-0.8,0-1.3c0-1.3,0-2.3-0.1-3.6c-0.1-1.9-0.2-3.9-0.3-5.8v-1l1.1-0.1c2.4-0.3,4.6-1.3,6.5-2.5c1.5-1,2.7-2.3,3.3-3.9
		l0.6-1.8c0.4-1,0.6-2.1,0.5-3.2V31.2z M186.7,31.7l-0.6,1.8c-0.4,1.2-1.3,2.1-2.4,2.9c-1.6,1-3.4,1.7-5.3,2l-1.8,0.2
		c-1.1,0.1-1.5,0.5-1.5,1.5c-0.1,0.4,0,0.9,0,1.4l0.3,5.9c0,1.3,0.1,2.7,0.1,4c0.1,0.2,0.1,0.3,0,0.4c0,1-0.4,1.8-1.9,1.9l-2.8,0.3
		c-0.3,0-0.5,0-0.8,0c-1.2-0.1-1.7-0.7-1.8-1.5c-0.1-1-0.2-1.9-0.2-2.9c0-1.7-0.2-3.3-0.4-5c-0.2-1.6-0.3-3.3-0.5-4.9
		c-0.4-4.2-0.1-8.4-0.2-12.6h-0.2v-0.2c0.3-2.3,0.3-4.6,0.2-6.9c0-1.4-0.1-2.7-0.1-4c0-0.5,0-0.9,0.1-1.3c0.1-0.8,0.8-1.4,1.8-1.4
		c1.9-0.1,3.7-0.2,5.5,0.1c1.6,0.2,3.2,0.5,4.8,0.6c4.1,0.3,6.7,3.3,7.1,5.7c0.4,1.8,0.7,3.6,0.7,5.4c0,1.3,0.2,2.7,0.3,4
		C187.2,30,187,30.8,186.7,31.7z"/>
	<path class="st1" d="M180,24c-0.2-0.8-0.3-1.7-0.8-2.5c-0.7-1.1-1.6-1.6-3.1-1.6c-1.4,0-2.1,0.5-2.2,1.7c-0.1,0.4-0.1,0.8,0.1,1.2
		c0,0.6,0.1,1.2,0.1,1.8l0.3,4.5c0,0.6,0.1,1.2,0.2,1.8c0.2,1,0.7,1.3,1.9,1.3c2-0.1,3.7-1.5,3.9-3.2c0.1-0.8,0-1.7-0.1-2.6
		C180.3,25.6,180.1,24.8,180,24z"/>
	<path class="st1" d="M164.3,18.5C164.3,18.6,164.4,18.6,164.3,18.5L164.3,18.5z"/>
	<path class="st1" d="M165.1,41.3l0.2-1.2c0.3-1.9,0.3-4,0.3-6s-0.1-4.2-0.2-6.3c-0.2-3-0.6-6.3-1-9.3h-0.1c0.1,0.1,0,0.1,0,0
		c0-0.3-0.1-0.5-0.1-0.7V19c0,0.4,0.1,0.7,0.1,1v1.4c0,0.4,0.1,0.9,0.1,1.4c0,1.3,0,2.5-0.1,3.8v5c0,0.4-0.1,0.9-0.1,1.3v1.2
		c0,1.8,0.1,3.8,0.3,5.7l0.2,1.7l0.1,1.2c0,0.2,0,0.3,0,0.5l0.1-0.5C164.9,42.2,165,41.7,165.1,41.3z"/>
</g>
</svg>
