<?xml version="1.0" encoding="utf-8"?>
<!-- Generator: Adobe Illustrator 25.2.0, SVG Export Plug-In . SVG Version: 6.00 Build 0)  -->
<svg version="1.1" id="Isolation_Mode" xmlns="http://www.w3.org/2000/svg" xmlns:xlink="http://www.w3.org/1999/xlink" x="0px"
	 y="0px" viewBox="0 0 144.4 141.6" style="enable-background:new 0 0 144.4 141.6;" xml:space="preserve">
<style type="text/css">
	.st0{fill:#FDBC2B;}
	.st1{fill:#FFFFFF;}
</style>
<g>
	<g>
		<g>
			<circle cx="74.9" cy="72.1" r="67.5"/>
			<path d="M74.9,141.6c-38.3,0-69.5-31.2-69.5-69.5S36.5,2.6,74.9,2.6s69.5,31.2,69.5,69.5S113.2,141.6,74.9,141.6z M74.9,6.6
				C38.7,6.6,9.4,36,9.4,72.1s29.4,65.5,65.5,65.5s65.5-29.4,65.5-65.5S111,6.6,74.9,6.6z"/>
		</g>
		<g>
			<g>
				<circle class="st0" cx="68.5" cy="68.7" r="67.5"/>
				<path d="M68.5,137.2C30.7,137.2,0,106.5,0,68.7S30.7,0.2,68.5,0.2S137,30.9,137,68.7S106.3,137.2,68.5,137.2z M68.5,2.2
					C31.8,2.2,2,32,2,68.7s29.8,66.5,66.5,66.5S135,105.4,135,68.7S105.2,2.2,68.5,2.2z"/>
			</g>
		</g>
	</g>
	<g>
		<g>
			<path d="M73.5,36.6C51.7,36.6,34,54.3,34,76.1s17.7,39.5,39.5,39.5c8.8,0,17.1-2.8,24-8.1c3.7-2.9-0.6-8.6-4.4-5.7
				c-5.7,4.4-12.5,6.7-19.6,6.7c-17.8,0-32.3-14.5-32.3-32.3s14.5-32.3,32.3-32.3c16.4,0,32.3,11.9,32.3,35.9c0,4-3.2,7.2-7.2,7.2
				c-4,0-7.2-3.2-7.2-7.2c0-8,0-10,0-18c0-2-1.6-3.6-3.6-3.6c-2,0-3.6,1.6-3.6,3.6v0.1c-3-2.3-6.7-3.7-10.8-3.7c-9.9,0-18,8.1-18,18
				c0,9.9,8.1,18,18,18c5.4,0,10.1-2.4,13.4-6.1c2.6,3.7,6.9,6.1,11.7,6.1c7.9,0,14.4-6.4,14.4-14.4C113,51.2,93.3,36.6,73.5,36.6z
				 M73.5,86.9c-5.9,0-10.8-4.8-10.8-10.8c0-5.9,4.8-10.8,10.8-10.8c5.9,0,10.8,4.8,10.8,10.8C84.3,82,79.4,86.9,73.5,86.9z"/>
			<path d="M73.5,117.6C50.6,117.6,32,99,32,76.1s18.6-41.5,41.5-41.5c20.6,0,41.5,15.5,41.5,45.1c0,9-7.3,16.4-16.4,16.4
				c-4.5,0-8.8-1.9-11.9-5.1c-3.7,3.3-8.4,5.1-13.3,5.1c-11,0-20-9-20-20s9-20,20-20c3.4,0,6.7,0.9,9.7,2.6c1-1.6,2.7-2.6,4.7-2.6
				c3.1,0,5.6,2.5,5.6,5.6v18c0,2.9,2.3,5.2,5.2,5.2s5.2-2.3,5.2-5.2c0-23.4-15.2-33.9-30.3-33.9c-16.7,0-30.3,13.6-30.3,30.3
				s13.6,30.3,30.3,30.3c6.7,0,13.1-2.2,18.4-6.2c2.9-2.2,6.2-1.1,7.8,1.1c1.6,2.2,1.9,5.6-1,7.8C91.4,114.6,82.7,117.6,73.5,117.6z
				 M73.5,38.6C52.8,38.6,36,55.4,36,76.1s16.8,37.5,37.5,37.5c8.3,0,16.2-2.7,22.8-7.7c1.1-0.9,0.5-1.9,0.3-2.2
				c-0.2-0.3-1.1-1.2-2.2-0.3c-6,4.6-13.2,7.1-20.9,7.1c-18.9,0-34.3-15.4-34.3-34.3s15.4-34.3,34.3-34.3
				c16.5,0,34.3,11.9,34.3,37.9c0,5.1-4.1,9.2-9.2,9.2s-9.2-4.1-9.2-9.2v-18c0-0.9-0.7-1.6-1.6-1.6c-0.9,0-1.6,0.7-1.6,1.6v4
				l-3.2-2.3c-2.8-2.1-6.1-3.3-9.6-3.3c-8.8,0-16,7.2-16,16s7.2,16,16,16c4.5,0,8.8-2,11.9-5.5l1.7-1.9l1.5,2.1
				c2.3,3.3,6.1,5.3,10.1,5.3c6.8,0,12.4-5.5,12.4-12.4C111,51.4,91.6,38.6,73.5,38.6z M73.5,88.9c-7,0-12.8-5.7-12.8-12.8
				s5.7-12.8,12.8-12.8S86.3,69,86.3,76.1S80.5,88.9,73.5,88.9z M73.5,67.3c-4.8,0-8.8,3.9-8.8,8.8s3.9,8.8,8.8,8.8s8.8-3.9,8.8-8.8
				S78.3,67.3,73.5,67.3z"/>
		</g>
	</g>
	<g>
		<g>
			<path class="st1" d="M68.5,32.6C46.7,32.6,29,50.3,29,72.1s17.7,39.5,39.5,39.5c8.8,0,17.1-2.8,24-8.1c3.7-2.9-0.6-8.6-4.4-5.7
				c-5.7,4.4-12.5,6.7-19.6,6.7c-17.8,0-32.3-14.5-32.3-32.3s14.5-32.3,32.3-32.3c16.4,0,32.3,11.9,32.3,35.9c0,4-3.2,7.2-7.2,7.2
				c-4,0-7.2-3.2-7.2-7.2c0-8,0-10,0-18c0-2-1.6-3.6-3.6-3.6c-2,0-3.6,1.6-3.6,3.6v0.1c-3-2.3-6.7-3.7-10.8-3.7c-9.9,0-18,8.1-18,18
				c0,9.9,8.1,18,18,18c5.4,0,10.1-2.4,13.4-6.1c2.6,3.7,6.9,6.1,11.7,6.1c7.9,0,14.4-6.4,14.4-14.4C108,47.2,88.3,32.6,68.5,32.6z
				 M68.5,82.9c-5.9,0-10.8-4.8-10.8-10.8c0-5.9,4.8-10.8,10.8-10.8c5.9,0,10.8,4.8,10.8,10.8C79.3,78,74.4,82.9,68.5,82.9z"/>
			<path d="M68.5,112.6C46.2,112.6,28,94.4,28,72.1s18.2-40.5,40.5-40.5c20.1,0,40.5,15.1,40.5,44.1c0,8.5-6.9,15.4-15.4,15.4
				c-4.6,0-8.9-2.1-11.8-5.6c-3.6,3.6-8.4,5.6-13.3,5.6c-10.5,0-19-8.5-19-19s8.5-19,19-19c3.6,0,7,1,10.1,3c0.7-1.8,2.3-3,4.3-3
				c2.5,0,4.6,2.1,4.6,4.6v18c0,3.4,2.8,6.2,6.2,6.2s6.2-2.8,6.2-6.2c0-24-16.2-34.9-31.3-34.9c-17.3,0-31.3,14.1-31.3,31.3
				s14.1,31.3,31.3,31.3c7,0,13.5-2.2,19-6.5c2.4-1.8,5-0.9,6.4,0.9c1.4,1.8,1.5,4.6-0.8,6.4C86,109.7,77.5,112.6,68.5,112.6z
				 M68.5,33.6C47.3,33.6,30,50.9,30,72.1s17.3,38.5,38.5,38.5c8.6,0,16.7-2.7,23.4-7.9c1.4-1.1,1.2-2.6,0.5-3.6
				c-0.8-1-2.2-1.6-3.6-0.5c-5.8,4.5-12.8,6.9-20.3,6.9c-18.4,0-33.3-14.9-33.3-33.3s14.9-33.3,33.3-33.3c16,0,33.3,11.6,33.3,36.9
				c0,4.5-3.7,8.2-8.2,8.2s-8.2-3.7-8.2-8.2v-18c0-1.4-1.2-2.6-2.6-2.6c-1.4,0-2.6,1.2-2.6,2.6v2l-1.6-1.1c-3-2.3-6.5-3.5-10.2-3.5
				c-9.4,0-17,7.6-17,17s7.6,17,17,17c4.8,0,9.4-2.1,12.7-5.8l0.8-0.9l0.7,1c2.5,3.6,6.6,5.7,10.9,5.7c7.4,0,13.4-6,13.4-13.4
				C107,46.8,87,33.6,68.5,33.6z M68.5,83.9c-6.5,0-11.8-5.3-11.8-11.8S62,60.3,68.5,60.3s11.8,5.3,11.8,11.8S75,83.9,68.5,83.9z
				 M68.5,62.3c-5.4,0-9.8,4.4-9.8,9.8s4.4,9.8,9.8,9.8c5.4,0,9.8-4.4,9.8-9.8S73.9,62.3,68.5,62.3z"/>
		</g>
	</g>
</g>
</svg>
