<?xml version="1.0" encoding="utf-8"?>
<!-- Generator: Adobe Illustrator 25.2.0, SVG Export Plug-In . SVG Version: 6.00 Build 0)  -->
<svg version="1.1" id="Layer_1" xmlns="http://www.w3.org/2000/svg" xmlns:xlink="http://www.w3.org/1999/xlink" x="0px" y="0px"
	 viewBox="0 0 800 800" style="enable-background:new 0 0 800 800;" xml:space="preserve">
<style type="text/css">
	.st0{fill:#D19620;}
	.st1{fill:none;}
	.st2{fill:#FDBC2B;}
</style>
<g>
	<rect x="369.8" y="176.9" class="st0" width="261.3" height="26.7"/>
	<polygon class="st0" points="713.5,198 86,198.8 400,415.9 	"/>
	<path class="st1" d="M544.5,420.3c0.8,0,1.6,0,2.4,0.1C546.1,420.3,545.3,420.3,544.5,420.3z"/>
	<polygon class="st1" points="41.5,580.8 233,432.3 41.5,580.8 	"/>
	<path class="st1" d="M554.2,422.4c1.2,0.6,2.4,1.3,3.5,2.2L759,580.8L557.7,424.6C556.6,423.7,555.4,423,554.2,422.4z"/>
	<path class="st1" d="M553.9,422.3c-0.9-0.4-1.9-0.8-2.8-1.1C552,421.5,553,421.9,553.9,422.3z"/>
	<path class="st1" d="M270.3,426.6c0.5,0.5,0.9,1,1.4,1.6c0.6,0.8,1.2,1.7,1.6,2.5c-0.5-0.9-1-1.7-1.6-2.5
		C271.2,427.7,270.8,427.1,270.3,426.6z"/>
	<path class="st1" d="M400.1,461.3c0.5,0,1,0,1.5-0.1C401.1,461.3,400.6,461.3,400.1,461.3c-4.1,0-8.1-1.2-11.7-3.6L41,217.6v0
		l347.4,240.1C391.9,460.1,396,461.3,400.1,461.3z"/>
	<path class="st1" d="M274.2,432.6c3.7,8.4,1.4,18.5-6.2,24.4L81,602h0l187-145C275.6,451.1,277.9,441,274.2,432.6z"/>
	<polygon class="st1" points="718.5,601.1 694.9,582.9 718.5,601.1 	"/>
	<path d="M799.4,197.9c0-22.6-18.4-40.9-41-40.9h-0.1l-220.9,0.3c-11.2,0-20.3,9-20.5,20.2v0c-0.2,11.4,9.1,20.8,20.5,20.8
		l175.9-0.2L400,415.9l-314-217l340-0.5c11.6,0,20.9-9.6,20.4-21.2l0,0c-0.4-11-9.5-19.8-20.5-19.7l-385,0.5c-10.9,0-21.2,4.3-29,12
		C4.2,177.7,0,188,0,199l0.6,403.2c0,10.9,4.3,21.2,12,29c7.7,7.7,18,12,28.9,12h0.1l717.5-1c22.6,0,41-18.4,40.9-41L799.4,197.9z
		 M532.6,457l162.4,125.9l23.5,18.2l0,0L81,602l0,0h0l187-145c7.6-5.9,9.9-16,6.2-24.4c-0.3-0.6-0.6-1.2-0.9-1.8
		c-0.5-0.9-1-1.7-1.6-2.5c-0.4-0.6-0.9-1.1-1.4-1.6c-7.2-7.5-19-8.5-27.4-2l-9.9,7.7L41.5,580.8v0l0,0L41,217.6l0,0v0l347.4,240.1
		c3.5,2.4,7.6,3.6,11.7,3.6c0.5,0,1,0,1.5-0.1c3.6-0.3,7.1-1.5,10.2-3.6l346.7-241l0.5,364.2L557.7,424.6c-1.1-0.9-2.3-1.6-3.5-2.2
		c-0.1,0-0.2-0.1-0.3-0.1c-0.9-0.4-1.9-0.8-2.8-1.1c-1.4-0.4-2.8-0.7-4.2-0.8c-0.8-0.1-1.6-0.1-2.4-0.1c-5.9,0.2-11.7,2.9-15.6,7.9
		C522,437.2,523.6,450.1,532.6,457z"/>
	<path class="st2" d="M528.9,428.2c3.9-5,9.7-7.7,15.6-7.9c0.8,0,1.6,0,2.4,0.1c1.4,0.1,2.8,0.4,4.2,0.8c1,0.3,1.9,0.6,2.8,1.1
		c0.1,0,0.2,0.1,0.3,0.1c1.2,0.6,2.4,1.3,3.5,2.2L759,580.8l-0.5-364.2l-346.7,241c-3.1,2.1-6.6,3.3-10.2,3.6c-0.5,0-1,0.1-1.5,0.1
		c-4.1,0-8.1-1.2-11.7-3.6L41,217.6l0.5,363.2L233,432.3l9.9-7.7c8.4-6.5,20.2-5.5,27.4,2c0.5,0.5,0.9,1,1.4,1.6
		c0.6,0.8,1.2,1.7,1.6,2.5c0.3,0.6,0.6,1.2,0.9,1.8c3.7,8.4,1.4,18.5-6.2,24.4L81,602l637.4-0.9l-23.5-18.2L532.6,457
		C523.6,450.1,522,437.2,528.9,428.2z"/>
	<path class="st2" d="M242.9,424.6l-9.9,7.7L242.9,424.6c8.4-6.5,20.2-5.5,27.4,2C263.1,419.1,251.3,418.1,242.9,424.6z"/>
	<rect x="81" y="601.6" transform="matrix(1 -1.382435e-03 1.382435e-03 1 -0.8313 0.5532)" class="st2" width="637.4" height="0"/>
	<path class="st2" d="M274.2,432.6c-0.3-0.6-0.6-1.2-0.9-1.8C273.6,431.3,273.9,431.9,274.2,432.6z"/>
	<path class="st2" d="M544.5,420.3c-5.9,0.2-11.7,2.9-15.6,7.9c-6.9,9-5.3,21.8,3.6,28.7l162.4,125.9L532.6,457
		c-8.9-6.9-10.6-19.8-3.6-28.7C532.8,423.2,538.6,420.5,544.5,420.3z"/>
	<path class="st2" d="M758.5,216.6l-346.7,241c-3.1,2.1-6.6,3.3-10.2,3.6c3.6-0.3,7.1-1.5,10.2-3.6L758.5,216.6z"/>
	
		<rect x="41.3" y="217.6" transform="matrix(1 -1.411009e-03 1.411009e-03 1 -0.5632 5.860702e-02)" class="st2" width="0" height="363.2"/>
	<path class="st2" d="M551.1,421.2c-1.4-0.4-2.8-0.7-4.2-0.8C548.3,420.5,549.7,420.8,551.1,421.2z"/>
	<path class="st2" d="M554.2,422.4c-0.1,0-0.2-0.1-0.3-0.1C554,422.3,554.1,422.4,554.2,422.4z"/>
</g>
</svg>
