<?xml version="1.0" encoding="utf-8"?>
<!-- Generator: Adobe Illustrator 25.2.0, SVG Export Plug-In . SVG Version: 6.00 Build 0)  -->
<svg version="1.1" id="Graphic_Elements" xmlns="http://www.w3.org/2000/svg" xmlns:xlink="http://www.w3.org/1999/xlink" x="0px"
	 y="0px" viewBox="0 0 144.4 144.4" style="enable-background:new 0 0 144.4 144.4;" xml:space="preserve">
<style type="text/css">
	.st0{fill:#FDBC2B;}
	.st1{fill:#FFFFFF;}
</style>
<g>
	<g>
		<circle class="st0" cx="72.2" cy="72.2" r="67.5"/>
		<g>
			<g>
				<g>
					<g>
						<path class="st1" d="M85.8,76l-7.7,7.7c-3.1,3.1-8.6,3.2-11.8,0L58.6,76l-27.6,27.7c1,0.5,2.2,0.8,3.4,0.8H110
							c1.2,0,2.3-0.3,3.4-0.8L85.8,76z"/>
					</g>
				</g>
				<g>
					<g>
						<path class="st1" d="M110,40H34.4c-1.2,0-2.3,0.3-3.4,0.8l29.5,29.6c0,0,0,0,0,0c0,0,0,0,0,0l9.6,9.6c1,1,3.1,1,4.2,0l9.6-9.6
							c0,0,0,0,0,0c0,0,0,0,0,0l29.5-29.6C112.3,40.3,111.2,40,110,40z"/>
					</g>
				</g>
				<g>
					<g>
						<path class="st1" d="M27.2,44.5c-0.5,1.1-0.9,2.3-0.9,3.5v48.3c0,1.3,0.3,2.5,0.9,3.5l27.6-27.7L27.2,44.5z"/>
					</g>
				</g>
			</g>
			<g>
				<g>
					<path class="st1" d="M117.2,44.5L89.6,72.2l27.6,27.7c0.5-1.1,0.9-2.3,0.9-3.5V48C118,46.8,117.7,45.6,117.2,44.5z"/>
				</g>
			</g>
		</g>
	</g>
</g>
</svg>
