<?xml version="1.0" encoding="utf-8"?>
<!-- Generator: Adobe Illustrator 25.2.0, SVG Export Plug-In . SVG Version: 6.00 Build 0)  -->
<svg version="1.1" id="Ñëîé_1" xmlns="http://www.w3.org/2000/svg" xmlns:xlink="http://www.w3.org/1999/xlink" x="0px" y="0px"
	 viewBox="0 0 2173 2379.7" style="enable-background:new 0 0 2173 2379.7;" xml:space="preserve">
<style type="text/css">
	.st0{fill:#EF4924;}
	.st1{opacity:0.3;}
	.st2{fill:#ED8526;stroke:#ED8526;stroke-miterlimit:10;}
	.st3{fill:#ED8526;stroke:#ED8526;stroke-width:1;stroke-miterlimit:10.0001;}
	.st4{fill:#ED8526;stroke:#ED8526;stroke-width:1;stroke-miterlimit:9.9998;}
	.st5{fill:#ED8526;stroke:#ED8526;stroke-width:1;stroke-miterlimit:10.0003;}
	.st6{fill:#676793;stroke:#1F130C;stroke-width:5;stroke-miterlimit:10;}
	.st7{fill:#11114F;stroke:#1F130C;stroke-width:5;stroke-miterlimit:10;}
	.st8{fill:#F0F6FF;stroke:#1F130C;stroke-width:5;stroke-miterlimit:10;}
	.st9{opacity:0.1;fill:#C4CCD6;}
	.st10{fill:#412412;stroke:#1F130C;stroke-width:5;stroke-miterlimit:10;}
	.st11{fill:#E6AD22;stroke:#1F130C;stroke-width:5;stroke-miterlimit:10;}
	.st12{fill:#FFFFFF;stroke:#1F130C;stroke-width:5;stroke-miterlimit:10;}
	.st13{fill:#1F1511;stroke:#1F130C;stroke-width:5;stroke-miterlimit:10;}
	.st14{fill:#1F1612;}
	.st15{fill:#C4CCD6;}
	.st16{opacity:0.1;fill:#000028;}
	.st17{fill:#282E30;stroke:#1F130C;stroke-width:5;stroke-miterlimit:10;}
	.st18{fill:#282E30;}
	.st19{fill:url(#SVGID_1_);}
	.st20{fill:#4C5E63;stroke:#1F130C;stroke-width:5;stroke-miterlimit:10;}
	.st21{fill:url(#SVGID_2_);}
	.st22{fill:url(#SVGID_3_);}
	.st23{fill:#515151;stroke:#1F130C;stroke-width:5;stroke-miterlimit:10;}
	.st24{fill:#2D2D2D;}
	.st25{fill:#160A5B;}
	.st26{fill:#1F1511;}
	.st27{fill:#0C0B0B;}
	.st28{fill:#FCD1C5;}
	.st29{clip-path:url(#SVGID_5_);fill:#334659;}
	.st30{clip-path:url(#SVGID_5_);fill:#263649;}
	.st31{fill:#4C5E63;}
	.st32{fill:#740DF8;stroke:#1F130C;stroke-width:5;stroke-miterlimit:10;}
	.st33{fill:#C4CCD6;stroke:#1F130C;stroke-width:5;stroke-miterlimit:10;}
	.st34{fill:#FFFFFF;stroke:#1F130C;stroke-width:4;stroke-miterlimit:10;}
	.st35{fill:#383331;stroke:#1F130C;stroke-width:5;stroke-miterlimit:10;}
	.st36{fill:url(#XMLID_33_);}
	.st37{fill:url(#XMLID_37_);}
	.st38{opacity:0.5;fill:url(#SVGID_6_);}
	.st39{fill:#9B7A5F;stroke:#1F130C;stroke-width:5;stroke-miterlimit:10;}
	.st40{fill:#CCAE92;stroke:#1F130C;stroke-width:5;stroke-miterlimit:10;}
	.st41{opacity:0.63;fill:#2D2D2D;}
	.st42{fill:#A08977;}
	.st43{fill:#C6C6C6;stroke:#1F130C;stroke-width:5;stroke-miterlimit:10;}
	.st44{opacity:0.4;fill:#06033E;}
	.st45{opacity:0.6;fill:#2D2D2D;}
	.st46{fill:#C6C6C6;}
	.st47{opacity:0.4;fill:#757575;}
	.st48{fill:#969696;stroke:#1F130C;stroke-width:5;stroke-miterlimit:10;}
	.st49{fill:#686867;}
	.st50{fill:#EF4A23;stroke:#1F130C;stroke-width:5;stroke-miterlimit:10;}
	.st51{fill:#AD3118;}
	.st52{fill:#020230;}
	.st53{fill:none;stroke:#1F130C;stroke-width:5;stroke-miterlimit:10;}
	.st54{fill:#FFFFFF;}
	.st55{fill:#22227A;stroke:#1F130C;stroke-width:5;stroke-miterlimit:10;}
	.st56{fill:#EF4924;stroke:#1F130C;stroke-width:5;stroke-miterlimit:10;}
	.st57{fill:#E8E8E8;stroke:#1F130C;stroke-width:5;stroke-linejoin:round;stroke-miterlimit:10;}
	.st58{fill:#969696;stroke:#1F130C;stroke-width:5;stroke-linejoin:round;stroke-miterlimit:10;}
	.st59{fill:#757575;stroke:#1F130C;stroke-width:5;stroke-linejoin:round;stroke-miterlimit:10;}
	.st60{opacity:0.4;fill:#757575;stroke:#1F130C;stroke-width:5;stroke-linejoin:round;stroke-miterlimit:10;}
	.st61{opacity:0.7;fill:url(#SVGID_7_);}
	.st62{fill:#6F7272;stroke:#1F130C;stroke-width:5;stroke-linejoin:round;stroke-miterlimit:10;}
	.st63{fill:#C6C6C6;stroke:#1F130C;stroke-width:5;stroke-linejoin:round;stroke-miterlimit:10;}
	.st64{fill:#EFEFEF;}
</style>
<path class="st0" d="M166.4,1401.8c0,0-96.4-1295.7,769.7-1039s696.2,1263.9,412.4,1260.6"/>
<g>
	<g class="st1">
		<path class="st2" d="M2051.9,777.2l-58,64.6l-84.9-39.4l-54,61l-80.1-38.6l0.7-4.2l0.2,0.5l78,37.5l53.2-60.1l-26.8-96.7l-72-32.1
			c-1.1,1.9-3.2,2.7-5.5,1.7c-2.8-1.3-4.7-5-4.1-8.2c0.6-3.2,3.4-4.9,6.2-3.7c2.4,1,4.1,3.8,4.2,6.5l73.8,32.9l0.9,3.3l0.5,1.8
			l5.3,19l21.1,76.2l82,38l55.2-61.7l2.6-2.9L2051.9,777.2z"/>
		<g>
			<path class="st2" d="M1421.2,309.6l-83.1-33.5l-23.5-104.2l57.3-72.8l83.2,29.9l26,106.4L1421.2,309.6z M1340.1,273.5l80.3,32.3
				l57.7-71.7l-25-102.7l-80.4-29l-55.4,70.3L1340.1,273.5z"/>
		</g>
		<g>
			<path class="st2" d="M1082.6,730.3l-74-40l-18.7-105.6l53.3-67.7l74.2,36.6l20.8,107.8L1082.6,730.3z M1010.4,687.9l71.5,38.6
				l53.6-66.6l-19.9-104l-71.6-35.4L992.4,586L1010.4,687.9z"/>
		</g>
		<g>
			<path class="st2" d="M1686.6,417.4l-93.4-37.7L1564.9,268l62.3-76.4l93.4,33.6l31.2,114.2L1686.6,417.4z M1595.4,377.1l90.2,36.3
				l63-75.4l-30-110.2l-90.2-32.5l-60.2,73.9L1595.4,377.1z"/>
		</g>
		<g>
			<path class="st2" d="M1578.3,1027.7l-93.2-51l-27.4-122.1l62.9-74.1l93.2,46.6l30.4,125.2L1578.3,1027.7z M1487.4,974.2l90,49.2
				l63.6-72.9l-29.2-120.8l-90-45l-60.8,71.6L1487.4,974.2z"/>
		</g>
		<g>
			<path class="st2" d="M1767.1,1267.4l-101.8-58.7l-31.3-131.4l67.3-76.2l101.9,53.7l34.7,134.9L1767.1,1267.4z M1667.5,1206.1
				l98.3,56.6l68.2-74.9l-33.3-130.1l-98.4-51.9l-65,73.6L1667.5,1206.1z"/>
		</g>
	</g>
	<g>
		<g>
			<path class="st2" d="M2112.6,987.5l-90.5-43.6l-30.2-106l57.9-64.6l90.5,40.3l32.8,108.3L2112.6,987.5z M2024.6,941l86.5,41.6
				l57.5-62.7l-31.1-103.3l-86.4-38.6l-55.3,61.8L2024.6,941z"/>
		</g>
		<g>
			<path class="st2" d="M1290.2,797.9c-49.4-26.6-78.7-99.3-66.3-162.4c12.4-62.8,61.8-94.9,111.4-71.2
				c50.7,24.3,82.8,97.6,70.3,163.4C1393.2,793.9,1340.9,825.2,1290.2,797.9z M1332.9,577.1c-44.3-21.2-88.5,7.3-99.5,63.5
				c-11,56.4,15.2,121.3,59.3,144.8c45.1,24,91.6-3.9,102.7-62.7C1406.6,664.2,1378.1,598.8,1332.9,577.1z"/>
			<path class="st2" d="M1425.7,738c15.1-80-24-168.8-85.6-197.8l-2,10.8c56.8,26.9,92.8,109,78.9,182.7c-14,74-72.7,109-129.3,78.4
				c-55.2-29.8-87.7-111.1-73.8-181.4l-8-4c-15,76.1,20,163.9,79.7,196.4C1346.8,856.2,1410.5,818.3,1425.7,738z"/>
			<path class="st2" d="M1428.9,608.9l-7.7,4.9c38,86.3,18.8,188.5-42.7,225.1l4.7,11.2C1449.3,810.9,1469.9,701.3,1428.9,608.9z"/>
			<polygon class="st3" points="1494.1,756.9 1445.1,732.2 1445.3,731.1 1494.3,755.8 			"/>
			<polygon class="st3" points="1511.4,819.1 1412.9,768.2 1413.1,767.2 1511.7,818 			"/>
			<polygon class="st3" points="1531.1,877.7 1364.3,789.9 1364.6,788.9 1531.3,876.6 			"/>
			<path class="st2" d="M1338.8,724.1c-5.5-2.8-10.9-1.7-14.8,2.2l-40.1-51.5c0.9-1.6,1.6-3.6,2-5.7c0.4-2.2,0.6-4.5,0.4-6.7
				l49.4-5.8c1.8,6.6,5.9,12.5,11.3,15.1c8.7,4.4,17.6-1.1,19.6-12.2c2.2-11-3.2-23.6-11.9-27.8c-8.6-4.3-17.5,1.2-19.5,12.2
				c-0.4,2.2-0.5,4.5-0.4,6.8l-49.4,5.9c-1.7-6.5-5.7-12.3-10.9-14.9c-8.3-4.3-16.9,1.2-19,12c-2.2,10.8,2.9,23.2,11.3,27.4
				c5.3,2.7,10.6,1.6,14.4-2.3l40.1,51.6c-0.9,1.6-1.6,3.6-2,5.8c-2.2,11,3.1,23.8,11.8,28.3c8.7,4.6,17.6-0.8,19.7-11.9
				C1352.8,741.3,1347.5,728.6,1338.8,724.1z"/>
			<path class="st2" d="M1492.9,763.6c3,1.5,6-0.2,6.7-3.9c0.7-3.7-1.2-8-4.2-9.5c-3-1.5-6,0.2-6.7,3.9
				C1488,757.9,1489.9,762,1492.9,763.6z"/>
			<path class="st2" d="M1510.5,824.5c3,1.5,6.1-0.2,6.8-3.9c0.7-3.7-1.2-8.1-4.2-9.6c-3-1.5-6.1,0.2-6.8,3.9
				C1505.5,818.6,1507.5,823,1510.5,824.5z"/>
			<path class="st2" d="M1530,884c3.1,1.6,6.2-0.1,6.8-3.9c0.7-3.8-1.2-8.2-4.3-9.8c-3.1-1.6-6.1,0.1-6.8,3.9
				C1525.1,878,1526.9,882.4,1530,884z"/>
		</g>
		<g>
			<g>
				<polygon class="st2" points="1723.6,881.4 1648.5,843.9 1625.5,750.6 1675.7,692 1673.3,689 1622.1,749 1646.1,846.6 
					1722.9,885 				"/>
			</g>
			<g>
				<path class="st2" d="M1828.7,1026.3L1747,984l-25.8-101.8l53.9-61.5l81.7,39.3l28,103.9L1828.7,1026.3z M1749.4,981.2l78.1,40.4
					l53.4-59.7l-26.6-99.2l-78.1-37.6l-51.4,58.8L1749.4,981.2z"/>
			</g>
			<g>
				<polygon class="st4" points="1853.7,1128.2 1826.6,1024.2 1829.7,1023.8 1856.9,1127.8 				"/>
			</g>
			<g>
				<polygon class="st2" points="1998.1,1112 1967.9,1003.3 1964.6,1003.8 1994,1109.9 1937.8,1171.2 1940.4,1174.7 				"/>
			</g>
			<g>
				<polygon class="st4" points="1967.4,1007.1 1964.7,1003.7 2022.1,940.4 2024.8,943.8 				"/>
			</g>
			<g>
				<polygon class="st2" points="2091.2,1162.4 1995.8,1113 1996.4,1109 2091.8,1158.4 				"/>
			</g>
		</g>
		<g>
			<g>
				<path class="st2" d="M1640.2,572.1l22.9,90.6l-49.3,58l-70.5-33.6l-21.2-89l47.6-57.1L1640.2,572.1z M1642.8,569.2l-74.1-32.6
					l-50,59.9L1541,690l74.1,35.4l51.9-60.9L1642.8,569.2L1642.8,569.2z"/>
			</g>
		</g>
		<g>
			<g>
				<path class="st2" d="M1625,743.8c-2.6-1.3-5.3,0.3-5.9,3.5c-0.6,3.2,1.2,6.9,3.8,8.1c2.6,1.3,5.3-0.3,5.9-3.5
					C1629.4,748.8,1627.6,745.1,1625,743.8z"/>
			</g>
			<g>
				<path class="st2" d="M1680.3,693.5c-0.6,3.2-3.2,4.8-5.9,3.6c-2.7-1.3-4.4-4.9-3.9-8.1c0.6-3.2,3.2-4.8,5.9-3.6
					C1679.1,686.6,1680.9,690.3,1680.3,693.5z"/>
			</g>
			<g>
				<path class="st2" d="M1777.8,817.1c-2.8-1.3-5.6,0.3-6.2,3.5c-0.6,3.3,1.3,7.1,4.1,8.5c2.8,1.4,5.6-0.3,6.2-3.5
					C1782.5,822.4,1780.6,818.5,1777.8,817.1z"/>
			</g>
			<g>
				<path class="st2" d="M2024.5,935.5c-3.1-1.5-6.2,0.2-6.7,3.6c-0.6,3.5,1.6,7.6,4.7,9.1c3.1,1.5,6.2-0.1,6.7-3.6
					C2029.7,941.2,2027.7,937.1,2024.5,935.5z"/>
			</g>
			<g>
				<path class="st2" d="M1855.8,1124c-2.9-1.6-5.9,0-6.5,3.4c-0.6,3.4,1.4,7.6,4.4,9.2c2.9,1.6,5.9,0,6.5-3.4
					C1860.8,1129.6,1858.9,1125.6,1855.8,1124z"/>
			</g>
			<g>
				<path class="st2" d="M1749.2,976.5c-2.8-1.4-5.6,0.1-6.2,3.4c-0.6,3.3,1.3,7.3,4.1,8.8c2.8,1.5,5.6-0.1,6.2-3.4
					C1753.9,981.9,1752.1,978,1749.2,976.5z"/>
			</g>
			<g>
				<path class="st2" d="M2086.6,1150.8c-3.2-1.7-6.4-0.1-7,3.5c-0.6,3.6,1.7,8,4.9,9.6c3.2,1.7,6.4,0.1,7-3.5
					C2092.1,1156.9,2089.8,1152.5,2086.6,1150.8z"/>
			</g>
			<g>
				<path class="st2" d="M1997,1104.5c-3.1-1.6-6.2,0-6.7,3.5c-0.6,3.5,1.6,7.8,4.7,9.4c3.1,1.6,6.2,0,6.8-3.5
					C2002.3,1110.4,2000.2,1106.2,1997,1104.5z"/>
			</g>
		</g>
		<g>
			<g>
				<path class="st2" d="M1198.2,304.7l-4-5.5l1.2-1.5l4,5.5L1198.2,304.7z M1192.1,296.2l-4-5.5l1.2-1.5l4,5.5L1192.1,296.2z
					 M1185.9,287.7l-3.9-5.5l1.2-1.5l3.9,5.5L1185.9,287.7z M1179.8,279.2l-3.9-5.5l1.2-1.5l3.9,5.5L1179.8,279.2z M1173.7,270.7
					l-3.9-5.4l1.2-1.5l3.9,5.4L1173.7,270.7z M1167.6,262.4l-3.9-5.4l1.2-1.5l3.9,5.4L1167.6,262.4z M1161.5,254l-3.9-5.4l1.2-1.5
					l3.9,5.4L1161.5,254z M1155.5,245.7l-3.9-5.4l1.2-1.5l3.9,5.4L1155.5,245.7z M1149.5,237.4l-3.9-5.4l1.2-1.5l3.9,5.4
					L1149.5,237.4z M1143.5,229.2l-3.8-5.3l1.2-1.5l3.8,5.3L1143.5,229.2z M1137.5,220.8l-3.8-5.3l1.2-1.5l3.8,5.3L1137.5,220.8z
					 M1131.6,212.7l-3.8-5.3l1.2-1.5l3.8,5.3L1131.6,212.7z M1125.6,204.5l-3.8-5.3l1.2-1.5l3.8,5.3L1125.6,204.5z M1119.8,196.3
					l-3.8-5.3l1.2-1.5l3.8,5.3L1119.8,196.3z"/>
			</g>
			<g>
				<path class="st2" d="M1179.7,484.4l-0.5-2.3l5.4-1.4l0.5,2.3L1179.7,484.4z M1188.1,482.3l-0.5-2.3l5.4-1.4l0.5,2.3
					L1188.1,482.3z M1196.5,480.1l-0.5-2.3l5.4-1.4l0.5,2.3L1196.5,480.1z M1204.9,478l-0.5-2.3l5.5-1.4l0.5,2.3L1204.9,478z
					 M1213.5,475.8l-0.5-2.3l5.5-1.4l0.5,2.3L1213.5,475.8z M1221.9,473.6l-0.5-2.3l5.5-1.4l0.5,2.3L1221.9,473.6z M1230.5,471.4
					l-0.5-2.3l5.5-1.4l0.5,2.3L1230.5,471.4z M1239,469.1l-0.5-2.3l5.5-1.4l0.5,2.3L1239,469.1z M1247.6,467l-0.5-2.3l5.5-1.4
					l0.5,2.3L1247.6,467z M1256.2,464.7l-0.5-2.3l5.6-1.4l0.5,2.3L1256.2,464.7z M1264.8,462.5l-0.5-2.3l5.6-1.4l0.5,2.3
					L1264.8,462.5z M1273.5,460.2l-0.5-2.3l5.6-1.5l0.5,2.3L1273.5,460.2z M1282.2,458.1l-0.5-2.4l5.6-1.5l0.5,2.4L1282.2,458.1z
					 M1290.9,455.8l-0.5-2.4l5.6-1.5l0.5,2.4L1290.9,455.8z"/>
			</g>
			<g>
				<path class="st2" d="M958,203.1l-0.1-2.1l4.9-0.6l0.1,2.1L958,203.1z M965.7,202.1l-0.1-2.1l4.9-0.6l0.1,2.1L965.7,202.1z
					 M973.3,201l-0.1-2.1l4.9-0.6l0.1,2.1L973.3,201z M980.9,200l-0.1-2.1l4.9-0.7l0.2,2.1L980.9,200z M988.7,198.9l-0.2-2.1l5-0.7
					l0.2,2.1L988.7,198.9z M996.4,197.9l-0.2-2.1l5-0.7l0.2,2.1L996.4,197.9z M1004.2,196.8l-0.2-2.1l5-0.7l0.2,2.1L1004.2,196.8z
					 M1012,195.8l-0.2-2.1l5-0.7l0.2,2.1L1012,195.8z M1019.7,194.7l-0.2-2.1l5-0.7l0.2,2.1L1019.7,194.7z M1027.6,193.6l-0.2-2.1
					l5-0.7l0.2,2.1L1027.6,193.6z M1035.5,192.5l-0.2-2.1l5.1-0.7l0.2,2.1L1035.5,192.5z M1043.4,191.5l-0.2-2.1l5.1-0.7l0.2,2.1
					L1043.4,191.5z M1051.3,190.4l-0.2-2.1l5.1-0.7l0.2,2.1L1051.3,190.4z M1059.3,189.3l-0.2-2.1l5.1-0.7l0.2,2.1L1059.3,189.3z
					 M1067.2,188.2l-0.2-2.1l5.1-0.7l0.2,2.1L1067.2,188.2z M1075.1,187.2l-0.2-2.1l5.1-0.7l0.2,2.1L1075.1,187.2z M1083.2,186.1
					l-0.2-2.1l5.2-0.7l0.2,2.1L1083.2,186.1z M1091.2,185l-0.2-2.2l5.2-0.7l0.2,2.2L1091.2,185z M1099.4,183.9l-0.2-2.2l5.2-0.7
					l0.2,2.2L1099.4,183.9z M1332.6,270.5l-4.2-5.7l1.3-1.6l4.2,5.7L1332.6,270.5z M1117.6,180.1l-0.4-2.2l5.2-1.6l0.4,2.2
					L1117.6,180.1z M1326,261.5l-4.2-5.7l1.3-1.6l4.2,5.7L1326,261.5z M1125.8,177.6l-0.4-2.2l5.2-1.6l0.5,2.2L1125.8,177.6z
					 M1319.4,252.7l-4.2-5.7l1.3-1.6l4.2,5.7L1319.4,252.7z M1134,175.1l-0.5-2.2l5.3-1.6l0.5,2.2L1134,175.1z M1312.9,243.8
					l-4.2-5.7l1.3-1.6l4.2,5.7L1312.9,243.8z M1142.3,172.7l-0.5-2.2l5.3-1.6l0.5,2.2L1142.3,172.7z M1306.4,235l-4.2-5.6l1.3-1.6
					l4.2,5.6L1306.4,235z M1150.5,170.1l-0.5-2.2l5.3-1.6l0.5,2.2L1150.5,170.1z M1299.8,226.1l-4.1-5.6l1.2-1.6l4.1,5.6
					L1299.8,226.1z M1158.8,167.6l-0.5-2.2l5.3-1.6l0.5,2.2L1158.8,167.6z M1293.3,217.3l-4.1-5.6l1.2-1.6l4.1,5.6L1293.3,217.3z
					 M1167.1,165.1l-0.5-2.2l5.3-1.6l0.5,2.2L1167.1,165.1z M1286.9,208.6l-4.1-5.6l1.2-1.6l4.1,5.6L1286.9,208.6z M1175.4,162.5
					l-0.5-2.2l5.3-1.7l0.5,2.2L1175.4,162.5z M1280.5,199.9l-4.1-5.5l1.2-1.6l4.1,5.5L1280.5,199.9z M1183.8,160l-0.5-2.2l5.4-1.7
					l0.5,2.2L1183.8,160z M1274.1,191.3l-4.1-5.5l1.2-1.5l4.1,5.5L1274.1,191.3z M1192.2,157.4l-0.5-2.2l5.4-1.7l0.5,2.2
					L1192.2,157.4z M1267.6,182.6l-4.1-5.5l1.2-1.5l4.1,5.5L1267.6,182.6z M1200.6,154.9l-0.5-2.2l5.4-1.7l0.5,2.2L1200.6,154.9z
					 M1261.3,173.9l-4-5.5l1.2-1.5l4,5.5L1261.3,173.9z M1209,152.3l-0.5-2.2l5.4-1.7l0.5,2.2L1209,152.3z M1255,165.4l-4-5.5
					l1.2-1.5l4,5.5L1255,165.4z M1217.5,149.7l-0.5-2.2l5.4-1.7l0.5,2.2L1217.5,149.7z M1248.7,156.8l-4-5.4l1.2-1.5l4,5.4
					L1248.7,156.8z M1226,147.2l-0.5-2.2l5.4-1.7l0.5,2.2L1226,147.2z"/>
			</g>
			<g>
				<path class="st2" d="M1479.4,230.9l-0.9,4.9l1.5,0.6l1.2,2.4l1.5-1L1479.4,230.9L1479.4,230.9z M1484.5,241.6l-1.5,1l3.2,6.6
					l1.5-1L1484.5,241.6L1484.5,241.6z M1479.6,240.6l-1.8-0.7l-1.3,7.1l1.8,0.7L1479.6,240.6L1479.6,240.6z M1489.4,252l-1.5,1
					l3.2,6.6l1.5-1L1489.4,252L1489.4,252z M1477.5,251.8l-1.8-0.7l-1.3,7.1l1.8,0.7L1477.5,251.8L1477.5,251.8z M1494.4,262.4
					l-1.5,1l3.2,6.6l1.5-1L1494.4,262.4L1494.4,262.4z M1475.4,262.8l-1.8-0.7l-1.3,7.1l1.8,0.7L1475.4,262.8L1475.4,262.8z
					 M1499.4,272.9l-1.5,1l3.2,6.7l1.5-1L1499.4,272.9L1499.4,272.9z M1504.4,283.4l-1.5,1l3.2,6.7l1.5-1L1504.4,283.4L1504.4,283.4
					z M1473.4,273.9l-1.8-0.7l-1.3,7.1l1.8,0.7L1473.4,273.9L1473.4,273.9z M1509.4,293.8l-1.5,1l3.2,6.7l1.5-1L1509.4,293.8
					L1509.4,293.8z M1471.3,285.1l-1.8-0.7l-1.3,7.1l1.8,0.7L1471.3,285.1L1471.3,285.1z M1514.5,304.4l-1.5,1l3.3,6.7l1.6-1
					L1514.5,304.4L1514.5,304.4z M1519.5,315l-1.6,1l3.3,6.8l1.6-1L1519.5,315L1519.5,315z M1469.2,296.2l-1.8-0.7l-1.3,7.1l1.8,0.7
					L1469.2,296.2L1469.2,296.2z M1524.5,325.6l-1.6,1l3.3,6.8l1.6-1L1524.5,325.6L1524.5,325.6z M1467.1,307.3l-1.8-0.7l-1.3,7.1
					l1.8,0.7L1467.1,307.3L1467.1,307.3z M1529.6,336.3l-1.6,1l3.3,6.8l1.6-1L1529.6,336.3L1529.6,336.3z M1465.1,318.5l-1.8-0.7
					l-1.3,7.1l1.8,0.7L1465.1,318.5L1465.1,318.5z M1534.7,347l-1.6,1l3.3,6.8l1.6-1L1534.7,347L1534.7,347z M1539.8,357.7l-1.6,1
					l3.3,6.9l1.6-1L1539.8,357.7L1539.8,357.7z M1463,329.7l-1.8-0.7l-1.3,7.1l1.8,0.7L1463,329.7L1463,329.7z M1545,368.5l-1.6,1
					l3.3,6.9l1.6-1L1545,368.5L1545,368.5z M1460.9,340.8l-1.8-0.7l-1.3,7.2l1.8,0.7L1460.9,340.8L1460.9,340.8z M1550.1,379.3
					l-1.6,1l3.3,6.9l1.6-1L1550.1,379.3L1550.1,379.3z M1555.3,390.2l-1.6,1l3.3,6.9l1.6-1L1555.3,390.2L1555.3,390.2z M1458.8,352
					l-1.8-0.7l-1.3,7.2l1.8,0.7L1458.8,352L1458.8,352z M1560.5,401.1l-1.6,1l3.4,6.9l1.6-1L1560.5,401.1L1560.5,401.1z
					 M1456.7,363.3l-1.8-0.7l-1.3,7.2l1.8,0.8L1456.7,363.3L1456.7,363.3z M1565.7,412.1l-1.6,1l3.4,7l1.6-1L1565.7,412.1
					L1565.7,412.1z M1454.7,374.4l-1.8-0.8l-1.3,7.2l1.8,0.8L1454.7,374.4L1454.7,374.4z M1570.9,423.1l-1.6,1l3.4,7l1.6-1
					L1570.9,423.1L1570.9,423.1z M1576.2,434l-1.6,1l3.4,7l1.6-1L1576.2,434L1576.2,434z M1452.6,385.6l-1.8-0.8l-1.3,7.2l1.8,0.8
					L1452.6,385.6L1452.6,385.6z M1581.5,445.1l-1.6,1l3.4,7l1.6-1L1581.5,445.1L1581.5,445.1z M1450.5,396.9l-1.8-0.8l-1.3,7.2
					l1.8,0.8L1450.5,396.9L1450.5,396.9z M1586.8,456.2l-1.6,1l3.4,7.1l1.6-1L1586.8,456.2L1586.8,456.2z M1592.1,467.3l-1.6,1
					l1.1,2.3l1.6-1L1592.1,467.3L1592.1,467.3z"/>
			</g>
			<g>
				<path class="st2" d="M1086.7,86.2l-5-1.9l0.4-2l5,1.9L1086.7,86.2z M1078.9,83.3l-5-1.9l0.4-2l5,1.9L1078.9,83.3z M1071,80.3
					l-5-1.9l0.4-2l5,1.9L1071,80.3z M1063.3,77.3l-4.9-1.9l0.4-2l4.9,1.9L1063.3,77.3z M1055.6,74.4l-4.9-1.9l0.4-2l4.9,1.9
					L1055.6,74.4z M1047.9,71.4l-4.9-1.9l0.4-2l4.9,1.9L1047.9,71.4z M1040.2,68.5l-4.9-1.9l0.4-2l4.9,1.9L1040.2,68.5z
					 M1032.6,65.6l-4.9-1.9l0.4-2l4.9,1.9L1032.6,65.6z M1024.9,62.7l-4.8-1.8l0.4-2l4.8,1.8L1024.9,62.7z"/>
			</g>
			<g>
				<path class="st2" d="M1082.9,345.2l-0.4-2.2l5.3-1.4l0.4,2.2L1082.9,345.2z M1091.2,343l-0.4-2.2l5.3-1.4l0.4,2.2L1091.2,343z
					 M1099.5,340.9l-0.4-2.2l5.3-1.4l0.4,2.2L1099.5,340.9z M1107.9,338.7l-0.4-2.2l5.4-1.4l0.5,2.2L1107.9,338.7z M1116.3,336.4
					l-0.5-2.2l5.4-1.4l0.5,2.2L1116.3,336.4z M1124.7,334.2l-0.5-2.2l5.4-1.4l0.5,2.2L1124.7,334.2z M1133.1,332l-0.5-2.2l5.4-1.5
					l0.5,2.2L1133.1,332z M1141.5,329.7l-0.5-2.2l5.4-1.5l0.5,2.2L1141.5,329.7z M1150,327.5l-0.5-2.2l5.4-1.5l0.5,2.2L1150,327.5z
					 M1158.5,325.2l-0.5-2.2l5.5-1.5l0.5,2.2L1158.5,325.2z M1167,323l-0.5-2.2l5.5-1.5l0.5,2.2L1167,323z M1175.6,320.7l-0.5-2.2
					l5.5-1.5l0.5,2.2L1175.6,320.7z M1184.2,318.4l-0.5-2.2l5.5-1.5l0.5,2.2L1184.2,318.4z M1192.8,316.1l-0.5-2.2l5.5-1.5l0.5,2.2
					L1192.8,316.1z"/>
			</g>
		</g>
		<g>
			<g>
				<polygon class="st2" points="1184.5,210.4 1111.7,181.1 1092.7,86.5 1144.5,18.6 1142.8,16.4 1090.2,85.5 1109.8,183.5 
					1184,213.4 				"/>
			</g>
			<g>
				<polygon class="st5" points="1117.7,555.2 1116,552.7 1170.6,484.1 1172.3,486.6 				"/>
			</g>
			<g>
				<path class="st2" d="M1282.9,347.3l-78.8-33.5l-21.4-102.5l55.3-71.1l79,30.1l23.6,104.6L1282.9,347.3z M1205.9,311.3l76.1,32.3
					l55.6-69.9l-22.7-100.9l-76.3-29.1l-53.4,68.6L1205.9,311.3z"/>
			</g>
			<g>
				<polygon class="st2" points="1306.8,451.7 1283.6,345.2 1281.2,345.8 1303.9,450.4 1248.1,519.8 1172.1,484.1 1151.6,381.5 
					1149.3,382.1 1170.3,486.5 1249,523.5 				"/>
			</g>
			<g>
				<polygon class="st2" points="1206.1,313.8 1204.4,311.5 1150.4,380.1 1078.4,347.9 1059.7,250.9 1111.1,184 1184,213.4 
					1184.5,210.4 1110.4,180.6 1057.1,249.8 1076.5,350.3 1151.1,383.7 				"/>
			</g>
			<g>
				<polygon class="st2" points="1447.7,415.8 1422,306 1339.2,272.7 1338.6,275.7 1419.9,308.5 1444.6,414.5 1386.1,486.4 
					1387.9,488.9 				"/>
			</g>
			<g>
				<polygon class="st4" points="1421.9,308.4 1420,306 1478.9,232.8 1480.8,235.2 				"/>
			</g>
			<g>
				<polygon class="st2" points="1596.2,480.6 1445.9,416.7 1446.5,413.5 1596.8,477.3 				"/>
			</g>
			<g>
				<polygon class="st2" points="1058.1,251.7 952.4,206.7 953,203.9 1058.7,248.8 				"/>
			</g>
		</g>
		<g>
			<g>
				<path class="st2" d="M1154.6,383.6c-0.5,2.8-2.7,4.2-4.7,3.3c-2.1-0.9-3.3-3.9-2.8-6.7c0.5-2.7,2.7-4.2,4.7-3.3
					C1153.9,377.8,1155.1,380.8,1154.6,383.6z"/>
			</g>
			<g>
				<path class="st2" d="M1081.1,350.7c-0.5,2.7-2.6,4.2-4.6,3.3c-2-0.9-3.2-3.8-2.7-6.5c0.5-2.7,2.6-4.2,4.6-3.3
					C1080.4,345.1,1081.6,348,1081.1,350.7z"/>
			</g>
			<g>
				<path class="st2" d="M1117.8,548.9c-2.1-1-4.2,0.4-4.7,3.2c-0.6,2.8,0.7,5.9,2.8,6.9c2.1,1,4.2-0.4,4.8-3.2
					C1121.1,553.1,1119.9,550.1,1117.8,548.9z"/>
			</g>
			<g>
				<path class="st2" d="M1206.1,307.7c-2.1-0.9-4.3,0.6-4.8,3.4c-0.5,2.8,0.7,5.7,2.9,6.6c2.1,0.9,4.3-0.6,4.8-3.4
					C1209.5,311.5,1208.3,308.6,1206.1,307.7z"/>
			</g>
			<g>
				<path class="st2" d="M1172.4,480.3c-2.1-1-4.3,0.5-4.8,3.3c-0.5,2.8,0.7,5.9,2.8,6.9c2.1,1,4.3-0.4,4.8-3.3
					C1175.8,484.4,1174.5,481.4,1172.4,480.3z"/>
			</g>
			<g>
				<path class="st2" d="M1287,347.5c-0.5,2.8-2.8,4.3-5,3.4c-2.2-0.9-3.5-4-3-6.8c0.5-2.8,2.8-4.3,5-3.4
					C1286.2,341.6,1287.6,344.7,1287,347.5z"/>
			</g>
			<g>
				<path class="st2" d="M1320.5,173.3c-0.5,2.8-2.8,4.4-5,3.5c-2.2-0.8-3.5-3.8-3-6.6c0.5-2.8,2.8-4.3,5-3.5
					C1319.7,167.6,1321,170.6,1320.5,173.3z"/>
			</g>
			<g>
				<path class="st2" d="M1239.2,137c-2.1-0.8-4.3,0.7-4.8,3.5c-0.5,2.7,0.7,5.6,2.9,6.4c2.1,0.8,4.3-0.7,4.8-3.5
					C1242.6,140.7,1241.3,137.9,1239.2,137z"/>
			</g>
			<g>
				<path class="st2" d="M1450.5,417c-0.5,2.9-2.9,4.5-5.3,3.5c-2.4-1-3.8-4.2-3.3-7.1c0.5-2.9,2.9-4.5,5.3-3.5
					C1449.5,410.8,1451,414,1450.5,417z"/>
			</g>
			<g>
				<path class="st2" d="M1597.4,473.5c-2.5-1.1-5,0.5-5.6,3.5c-0.6,3.1,1,6.4,3.6,7.4c2.6,1.1,5-0.5,5.6-3.5
					C1601.6,477.9,1600,474.6,1597.4,473.5z"/>
			</g>
			<g>
				<path class="st2" d="M1059.3,245.5c-2-0.8-4,0.6-4.5,3.3c-0.5,2.7,0.6,5.5,2.6,6.3c2,0.8,4-0.6,4.5-3.3
					C1062.4,249.1,1061.3,246.3,1059.3,245.5z"/>
			</g>
			<g>
				<path class="st2" d="M953.6,200.7c-1.9-0.8-3.8,0.6-4.3,3.2c-0.5,2.6,0.5,5.3,2.4,6.1c1.9,0.8,3.8-0.6,4.3-3.2
					C956.5,204.2,955.4,201.5,953.6,200.7z"/>
			</g>
			<g>
				<path class="st2" d="M1188,213.5c-0.5,2.7-2.7,4.2-4.7,3.4c-2.1-0.8-3.3-3.7-2.8-6.4c0.5-2.7,2.7-4.2,4.7-3.4
					C1187.3,207.9,1188.6,210.8,1188,213.5z"/>
			</g>
			<g>
				<path class="st2" d="M1114.4,183.8c-0.5,2.7-2.6,4.2-4.6,3.4c-2-0.8-3.2-3.6-2.7-6.3c0.5-2.7,2.6-4.2,4.6-3.4
					C1113.7,178.3,1114.9,181.1,1114.4,183.8z"/>
			</g>
			<g>
				<path class="st2" d="M1424.9,309c-0.5,2.9-2.9,4.5-5.2,3.5c-2.3-0.9-3.8-4-3.2-6.9c0.5-2.9,2.9-4.5,5.2-3.5
					C1424,303,1425.5,306.1,1424.9,309z"/>
			</g>
			<g>
				<path class="st2" d="M1484.2,235.7c-0.5,2.9-2.9,4.5-5.3,3.6c-2.4-0.9-3.9-4-3.3-6.9c0.5-2.9,2.9-4.5,5.3-3.6
					C1483.2,229.8,1484.7,232.8,1484.2,235.7z"/>
			</g>
			<g>
				<path class="st2" d="M1339.7,269.1c-2.3-0.9-4.5,0.6-5,3.5c-0.5,2.8,0.8,5.8,3.1,6.7c2.3,0.9,4.5-0.6,5-3.5
					C1343.3,273,1341.9,270,1339.7,269.1z"/>
			</g>
			<g>
				<path class="st2" d="M1250.2,516.7c-2.2-1-4.4,0.4-5,3.3c-0.6,2.9,0.8,6,3,7c2.2,1,4.4-0.4,5-3.3
					C1253.7,521,1252.4,517.9,1250.2,516.7z"/>
			</g>
			<g>
				<path class="st2" d="M1306,445.7c-2.2-1-4.5,0.5-5,3.4c-0.5,2.9,0.8,6,3.1,7c2.3,1,4.5-0.5,5-3.4
					C1309.6,449.9,1308.2,446.8,1306,445.7z"/>
			</g>
			<g>
				<path class="st2" d="M1391.1,489.4c-0.5,2.9-2.9,4.4-5.2,3.4c-2.3-1-3.8-4.3-3.2-7.2c0.5-2.9,2.9-4.4,5.2-3.4
					C1390.2,483.3,1391.6,486.5,1391.1,489.4z"/>
			</g>
			<g>
				<path class="st2" d="M1092.3,81.2c-2-0.8-4,0.8-4.5,3.4c-0.5,2.6,0.6,5.4,2.6,6.1c2,0.8,4-0.7,4.5-3.4
					C1095.5,84.7,1094.3,82,1092.3,81.2z"/>
			</g>
			<g>
				<path class="st2" d="M1147,20.2c-0.5,2.6-2.6,4.2-4.6,3.5c-2-0.7-3.2-3.5-2.7-6.1c0.5-2.6,2.6-4.2,4.6-3.5
					C1146.3,14.8,1147.6,17.5,1147,20.2z"/>
			</g>
		</g>
		<g>
			<g>
				<path class="st2" d="M1279,220.4c0.1,0.3,0.2,0.6,0.1,0.9c-0.1,0.3-0.2,0.5-0.4,0.7l-5.1,2.7l-3.3,1.7c-0.1,0-0.1,0.1-0.2,0
					l-8.6,4.5c-0.3,0.1-0.6,0-0.8-0.2c-0.2-0.2-0.3-0.6-0.3-1l1.6-8.1c-9-2.7-17.7,3.9-19.9,15c-1.1,5.5-0.5,11.5,1.8,16.8
					c0.1,0.1,0.1,0.5,0,0.7c0,0.2-0.2,0.5-0.4,0.6l-7.3,3.7c-0.1,0.1-0.3,0.1-0.5,0c-0.2-0.1-0.3-0.3-0.5-0.5c-3.1-8-4-16.8-2.4-25
					c3.4-17.5,17.1-27.9,31.3-23.5l1.6-8.1c0.1-0.4,0.3-0.7,0.6-0.7c0.3,0,0.5,0.1,0.8,0.4L1279,220.4z"/>
			</g>
			<g>
				<path class="st2" d="M1283.1,227.3c3.8,8.3,5,17.9,3.2,26.9c-3.6,18.9-18.8,28.9-33.5,22.7l-1.5,7.9c-0.1,0.3-0.3,0.6-0.6,0.6
					c-0.1,0.1-0.3,0-0.4,0c-0.2-0.1-0.2-0.2-0.4-0.4l-11.1-20.3c-0.2-0.2-0.2-0.6-0.1-0.8c0-0.2,0.2-0.4,0.4-0.6l7.8-3.8l0,0
					c0.1-0.2,0.3-0.2,0.4-0.2l8.4-4c0.3-0.1,0.6,0,0.8,0.2c0.2,0.3,0.3,0.7,0.3,1.1l-1.6,8.4c9.3,3.5,18.7-2.9,21-14.7
					c1.1-5.9,0.3-12.3-2.4-17.8c-0.2-0.2-0.2-0.6-0.1-0.8s0.2-0.4,0.4-0.6l7.9-4.1C1282.3,226.8,1282.8,226.9,1283.1,227.3z"/>
			</g>
		</g>
		<g>
			<path class="st2" d="M1631.2,756.3l-1.3,1.4l4.7,6.4l1.3-1.4L1631.2,756.3L1631.2,756.3z M1638.6,766.3l-1.3,1.4l4.7,6.4l1.3-1.4
				L1638.6,766.3L1638.6,766.3z M1646,776.2l-1.3,1.4l4.7,6.4l1.3-1.4L1646,776.2L1646,776.2z M1653.3,786.3l-1.3,1.4l4.8,6.5
				l1.3-1.4L1653.3,786.3L1653.3,786.3z M1660.8,796.4l-1.3,1.4l4.8,6.5l1.3-1.4L1660.8,796.4L1660.8,796.4z M1668.2,806.6l-1.3,1.4
				l4.8,6.5l1.3-1.4L1668.2,806.6L1668.2,806.6z M1675.6,816.7l-1.3,1.5l4.8,6.6l1.3-1.5L1675.6,816.7L1675.6,816.7z M1683.1,827
				l-1.3,1.5l4.8,6.6l1.3-1.5L1683.1,827L1683.1,827z M1690.7,837.3l-1.3,1.5l4.9,6.6l1.3-1.5L1690.7,837.3L1690.7,837.3z
				 M1698.2,847.6l-1.3,1.5l4.9,6.6l1.3-1.5L1698.2,847.6L1698.2,847.6z M1705.8,858l-1.3,1.5l4.9,6.7l1.3-1.5L1705.8,858
				L1705.8,858z M1713.5,868.4l-1.3,1.5l4.9,6.7l1.3-1.5L1713.5,868.4L1713.5,868.4z"/>
		</g>
		<path class="st2" d="M1756.7,982.8l-0.6-2.6l6.7-1l0.7,2.6L1756.7,982.8z M1767.1,981.3l-0.7-2.6l6.7-1l0.7,2.6L1767.1,981.3z
			 M1777.6,979.6l-0.5-2.6l6.7-1l0.7,2.7L1777.6,979.6z M1788.3,978.1l-0.7-2.7l6.7-1l0.7,2.7L1788.3,978.1z M1798.9,976.6l-0.7-2.7
			l6.8-1l0.7,2.7L1798.9,976.6z M1809.5,975.1l-0.7-2.7l6.8-1l0.7,2.7L1809.5,975.1z M1820.3,973.4l-0.7-2.7l6.8-1.1l0.7,2.7
			L1820.3,973.4z M1831,971.8l-0.7-2.7l6.8-1.1l0.7,2.7L1831,971.8z M1841.8,970.3l-0.7-2.7l6.9-1.1l0.7,2.7L1841.8,970.3z
			 M1852.6,968.8l-0.7-2.7l6.9-1.1l0.7,2.7L1852.6,968.8z M1863.4,967.1l-0.7-2.7l6.9-1.1l0.7,2.7L1863.4,967.1z M1874.4,965.6
			l-0.7-2.7l6.9-1.1l0.7,2.7L1874.4,965.6z M1885.2,964l-0.7-2.7l7-1.1l0.7,2.7L1885.2,964z M1896.2,962.4l-0.7-2.7l7-1.1l0.7,2.7
			L1896.2,962.4z M1907.2,960.7l-0.7-2.7l7-1.1l0.7,2.7L1907.2,960.7z M1918.3,959.1l-0.7-2.7l7-1.1l0.7,2.7L1918.3,959.1z
			 M1929.3,957.5l-0.7-2.7l7.1-1.1l0.7,2.7L1929.3,957.5z M1940.5,955.9l-0.7-2.7l7.1-1.1l0.7,2.7L1940.5,955.9z M1951.6,954.2
			l-0.7-2.7l7.1-1.1l0.7,2.7L1951.6,954.2z M1962.7,952.5l-0.6-2.7l7.1-1.1l0.7,2.7L1962.7,952.5z M1974,950.9l-0.7-2.7l7.2-1.1
			l0.7,2.7L1974,950.9z M1985.4,949.2l-0.7-2.7l7.2-1.1l0.7,2.7L1985.4,949.2z M1996.7,947.5l-0.7-2.7l7.2-1.1l0.7,2.7L1996.7,947.5
			z M2008.1,945.9l-0.8-2.7l7.2-1.1l0.8,2.7L2008.1,945.9z"/>
		<g>
			<g>
				<g>
					<g>
						<g>
							<g>
								<g>
									<path class="st2" d="M1509.8,267.8c5.9-6.7,9.9-15.4,11.5-25.5c4.4-28.1-11.5-57.2-34.8-63.3c-21-5.6-40.8,9.7-45.4,34.7
										c-1.8,10.3-1.1,21.2,2.3,31.2c0.3,0.7,0.1,1.5-0.4,2l-3.6,3c-0.7,0.6-1.7,0.2-2.1-0.8c-4.8-13.6-5.6-28.6-2.1-42.4
										c6.5-25.5,27.1-41,49.1-37c1.9,0.3,3.6,0.8,5.4,1.4c26.2,8.5,43.6,41.5,38.6,73.7c-2,12.3-7,23.2-14.3,30.9
										c-0.7,0.8-1.7,0.3-2.2-0.6l-2.4-5.1C1509.2,269.1,1509.3,268.3,1509.8,267.8z"/>
								</g>
							</g>
						</g>
						<g>
							<g>
								<g>
									<path class="st2" d="M1501,248.8c1.8-3.2,3-6.7,3.6-10.6c2-12.4-2.7-25.8-11.6-33.2c-5-4.1-10.8-6-16.5-5.4
										c-10.2,1.1-18.2,10.1-20.2,22.4c-0.6,3.7-0.5,7.7,0,11.7c0.2,0.8-0.1,1.5-0.6,1.9l-4.2,3.6c-0.8,0.7-2.1,0-2.4-1.3
										c-1.3-6.1-1.5-12.4-0.6-18.5c2.9-18.3,16.1-30.8,31.4-29.7c4.5,0.3,9.1,1.7,13.2,4.3c14.3,8.7,22.6,28.5,19.7,47.1
										c-1,6.1-3.1,11.7-6.3,16.4c-0.7,1-2,0.7-2.6-0.5l-2.8-6.1C1500.8,250,1500.9,249.2,1501,248.8z"/>
								</g>
							</g>
						</g>
					</g>
				</g>
			</g>
			<path class="st2" d="M1498.1,295.4c-0.8,4.7-3.2,8.3-6.4,10.5l-0.1,0.2l-0.1,0c-3.2,2-6.8,0.5-10.8-1c-4-1.4-7.3-4-8.9-6.2
				c0,0-2.1-2.2-2.4-3c-0.3-0.9-1.6-2.8-3.2-4.8c-0.5-0.6-1.6-2.5-2.1-3.2c-2.2-4.7-5.7-13.4-7.2-17.2c-0.9-2.3-2.4-3.7-3.2-4.7
				c-0.6-0.9-1.2-1.6-1.5-2.6c-0.5-2.2,0.8-4.3,2.3-5.4c0.2-0.2,0.5-0.3,0.7-0.5c0.8-0.4,1.8-0.3,3.1,0.3c2.4,1.2,5.9,4.4,7.5,7.9
				c0.6,1.5,1.5,3.1,2.1,4.5c0,0,2.1-12.7,2.3-13.2l3.4-18l1.2-6.5c0.3-1.6,0.7-3.2,1.9-4.1c1.2-0.8,2.7-1.1,4-0.6
				c2.4,0.9,3.9,3.8,3.7,6.7c-0.5,2.7-0.9,5.4-1.3,8.1l-2.2,13.8c1.1-1,2.5-1.5,4.2-1.1c2.3,0.5,3.7,2.2,4.2,4.6
				c1-0.4,2.5-0.7,4.3,0.4c1.6,0.9,2.5,2.6,2.6,4.8l0.1,0l0.2,0.1c1.1-0.2,2.3,0,3.4,1c2.4,2.1,2,5.8,1.8,6.9l-2.5,16.3
				C1499.2,290,1498.5,294.3,1498.1,295.4z"/>
			<path class="st2" d="M1491.8,232.5c-0.7,4.6-2.6,8.1-5.6,9.7l1.1-5.9c0.1-0.7,0.2-1.4,0.2-2.2c-0.1-4.3-2.5-8.4-6.1-9.8
				c-2.4-0.9-4.8-0.3-6.6,1.2c-1.2,1.1-2.3,2.9-2.7,5.1l-1.1,5.7c-1.8-3.2-2.3-7.2-1.7-11.2c1.2-7.5,7.1-12,13.3-9.9
				C1488.9,217.3,1493,225.1,1491.8,232.5z"/>
		</g>
		<path class="st2" d="M1184.8,94.2c-4.3-3.1-10.9-3.2-16.1,3.3c-1.9-8.1-7-13.8-12.6-14.2c-5.5-0.3-10,4.5-11.6,12.8
			c-3.7,18.5,13.2,49.6,13.9,50.9c0.1,0.2,0.4,0.4,0.5,0.4c0.2,0.1,0.4,0.1,0.6,0c0,0,6.9-3.8,13.9-9.7c9.7-8.1,15.5-16.3,17-24.2
			C1191.7,107,1190.9,98.6,1184.8,94.2z"/>
		<path class="st2" d="M1626,640.3l-19.1,7l2.1,26.5c0.1,1.8-0.6,3.2-1.9,3.7c-0.6,0.3-1.4,0.2-2-0.1c-0.7-0.3-1.3-0.9-1.7-1.6
			l-14-22.3l-19.1,6.8c-1.2,0.5-2.6-0.2-3.6-1.7c-0.9-1.5-1.1-3.3-0.4-4.7l10.4-20.5l-13.9-22c-0.9-1.5-1.1-3.3-0.4-4.7
			c0.7-1.4,2.1-1.8,3.4-1.2l20.3,9.3l10.5-20.5c0.7-1.4,2.1-1.9,3.4-1.3c1.3,0.6,2.4,2.1,2.5,3.9l2.1,26.3l20.7,9.4
			c1.4,0.6,2.4,2.2,2.6,4l0,0C1628.1,638.3,1627.3,639.8,1626,640.3z"/>
		<path class="st2" d="M1938.7,1053.1c-3.1-10.7-9.7-19.6-18.2-24.5c-1-0.5-1.9-1-2.9-1.5c-8.6-3.9-16.8-2.6-22.6,3.6
			c-5.9,6.3-8.2,16.5-6.1,27.5l13.8,60.5c0,0.6,0.6,1.3,1,1.6c0.5,0.3,1,0.1,1.4-0.3l30.3-37.6
			C1940.6,1075.1,1941.9,1064.2,1938.7,1053.1z M1912,1070.4c-6.2-3.2-10.4-11.7-9.2-18.9c1.2-7.1,7.3-10.4,13.5-7.2
			c6.2,3.2,10.5,11.6,9.3,18.9C1924.4,1070.6,1918.3,1073.7,1912,1070.4z"/>
		<path class="st2" d="M2122.1,877.3l-5.2,52.1c-0.7,7.3-7.2,9.5-14.7,4.9c-7.8-4.7-14-14.9-13.8-23c0.3-8.4,7.4-10.8,15.6-5.3
			c1.4,0.9,2.8,2,4,3.3l1.5-20.4l-37.2-18.1l0.1,40.2c0,8.2-6.9,10.5-15.7,5.3c-9.2-5.4-17.3-16.9-18-26c-0.7-9.5,6.9-12.1,16.8-5.7
			c1.7,1.1,3.4,2.3,4.9,3.8l-1.3-46.2c-0.1-3.5,2-5.1,5.3-3.2l51.8,27.4c1.8,1,3.4,2.8,4.5,4.9
			C2122,873.5,2122.5,875.9,2122.1,877.3z"/>
		<g>
			<path class="st2" d="M1252.5,426.4c0.8,1.8,1.1,4,0.8,5.9c-0.4,1.9-1.3,3.5-2.6,4.5c-2.8,2-6.3,0.5-8-3.2
				c-3.7-8.1-9.2-14-15.8-16.9c-6.5-2.9-13.2-2.5-19.1,1.2c-1.3,0.9-2.7,1-4.2,0.3c-1.5-0.7-2.9-2.1-3.6-4.1
				c-0.8-1.8-0.9-3.9-0.5-5.9c0.4-1.9,1.4-3.4,2.7-4.3c8.4-5.4,18.2-6,27.5-1.9C1239.1,406.3,1247.2,414.8,1252.5,426.4z"/>
			<path class="st2" d="M1269.2,417.5c-0.4,1.9-1.3,3.5-2.6,4.5c-2.8,2-6.3,0.5-8.1-3.2c-6.1-13.4-15.6-23.4-26.4-28.2
				c-10.9-4.8-22.3-4-32,2.3c-1.3,0.9-2.7,1-4.2,0.3c-1.5-0.7-2.8-2.1-3.6-4c-0.8-1.8-0.9-3.9-0.5-5.8c0.4-1.9,1.4-3.4,2.7-4.3
				c12.3-7.9,26.6-9,40.4-2.9c13.8,6,25.7,18.6,33.4,35.4C1269.1,413.4,1269.4,415.5,1269.2,417.5z"/>
			<path class="st2" d="M1225.6,428.8c-6-2.7-12,1.4-13.6,9.2c-1.5,7.8,2.1,16.3,8.1,19.1c6,2.7,12.1-1.4,13.6-9.2
				C1235.2,440.1,1231.6,431.5,1225.6,428.8z M1222.8,443C1222.9,443.1,1222.7,443,1222.8,443C1222.8,442.9,1222.8,442.9,1222.8,443
				C1222.8,443,1222.9,443,1222.8,443z"/>
		</g>
		<g>
			<path class="st2" d="M1923.4,609.1c14.5,3.6,28.8,1,40.3-7.2c11.7-8.4,19.6-22,22.3-38.3c0.6-3.8,0.9-7.8,1-12
				c0.1-12.7-2.7-25.6-8.3-37.5c-10.4-24.8-28.9-43.8-50.7-52.4c-4.5-1.8-9.1-3-13.7-3.9c-7.9-28.1-27.2-50.9-51.2-60.1
				c-14.9-5.8-30.5-5.5-43.7,0.7c-11.7,5.5-21.3,15.4-27.4,28.1c-28.1-10.9-55.2,6.3-60.8,38.4c-5.7,32.3,12.4,68.3,40.6,80.2
				l47.6,20.2l2-11.8l-47.6-20c-22.6-9.5-37.2-38.5-32.7-64.4c4.5-25.9,26.6-39.7,49.2-30.7c1,0.4,2,0.8,3.2,1.4l4.3,2.1l1.8-4.5
				c10.4-25.8,36.1-37.6,61.7-27.6c21.4,8.3,38.3,29.2,44.1,54.9l1.1,5.1l4.3,0.5c5.1,0.6,10.2,1.8,15.3,3.8
				c18.4,7.3,34.1,23.5,42.9,44.5l0.1,0.3c4.6,9.8,6.8,20.4,6.8,30.8c-0.1,3.5-0.4,6.8-0.9,9.9c-4.5,27.1-26.4,43.1-50.9,37.3
				l-59.4-25l-2,11.9l60.2,25.5L1923.4,609.1z"/>
			<path class="st2" d="M1856.3,603.7l-24.7,28.4c-1.1,1.2-3.1,0.3-3.6-1.6l-12-44.1c-0.5-2,0.8-3.5,2.4-2.8l10.8,4.6l9.7-56.4
				l15,6.2l-9.7,56.6l10.9,4.7C1856.7,600,1857.4,602.5,1856.3,603.7z"/>
		</g>
		<g>
			<g>
				<path class="st2" d="M1133.8,396.7l15.2,76.7l-40.4,50.9l-54.4-26.5l-14.1-75.6l39.2-50.2L1133.8,396.7z M1136,394l-57.4-25.9
					l-41.3,52.9l14.8,79.6l57.3,28l42.6-53.7L1136,394L1136,394z"/>
			</g>
			<path class="st2" d="M1100.8,418.7c-14.2-6.6-28.3,1.1-31.4,17.1c-3.2,16,5.7,34.5,19.9,41.3c2.9,1.4,5.7,2.1,8.5,2.4l4,9.9
				c0.4,0.8,1.3,0.9,1.5,0l3.5-11.2c6.9-2.6,12.4-9.1,14.2-18.3C1124.2,443.7,1115.1,425.2,1100.8,418.7z M1078.3,446
				c-2-0.9-3.1-3.7-2.6-6.4c0.5-2.6,2.5-4,4.4-3.1c2,0.9,3.1,3.7,2.6,6.4C1082.2,445.5,1080.2,446.9,1078.3,446z M1092.8,452.8
				c-2-0.9-3.1-3.8-2.6-6.4c0.5-2.6,2.5-4,4.5-3.1c2,0.9,3.1,3.7,2.6,6.4C1096.7,452.4,1094.7,453.7,1092.8,452.8z M1107.9,459.9
				c-2-0.9-3.1-3.8-2.6-6.4c0.5-2.7,2.5-4,4.5-3.1c2,0.9,3.1,3.8,2.6,6.4C1111.8,459.5,1109.8,460.8,1107.9,459.9z"/>
		</g>
	</g>
</g>
<path class="st6" d="M330.7,1027.5c0,0-6.9,117.3,44.3,165.1s536.1-139.4,536.1-139.4l-487.7-62.3"/>
<path class="st7" d="M330.7,1027.5c-2.4,2.6-1.1,6.2,2.5,7.5c33.9,11.4,138,36.9,419.8,29.4c34.2-4.3,68.4-7.8,103.1-7.9
	c21.1-0.1,42.2,0.5,63.3,1.1c3.5-0.9,5.2-1.5,5.2-1.5c-3.6-99.8,24-242.2,0-311.5c-8.8-25.4-30.2-97.4-77.5-141.4
	c-38.4-35.8-105.3-71.5-111.5-76.3c-8.5-6.5-27.3,36.9-27.3,36.9l-215.5,0.9c-23.1,0.1-45.4,7.7-61.4,21.4
	c-16.4,14-39.4,31.5-61.6,41.3c-40.9,18.1-46.5,171.2-46.5,171.2c5.4,22.1-21,57.3-28.2,113c-3.7,28.3,15.3,56.6,28,79.1
	C332,1006.6,338,1019.5,330.7,1027.5z"/>
<path class="st8" d="M357.4,671.3c17.4,37,66.1,126.2,168,223.9c5.4,5.2,14.1,5.5,19.9,0.7c50.8-42.2,274.1-228.7,292.7-264.3
	c20.9-40.1-39.2-25.8-61.6-41.2c-21-14.4-187.4,45.7-208.6,53.5c-1.5,0.5-3,0.8-4.6,0.9L370,652.4
	C359.9,652.8,353.3,662.6,357.4,671.3z"/>
<path class="st9" d="M795.6,666.6c0,0-51.8,115.1-57.3,131l-20.5-1.9l3.5,26L546.8,926.8l205.1-90.5l-4.7-23.2l18.6,1.7L795.6,666.6
	z"/>
<path class="st9" d="M349,650.3c0,0,23.3,113.5,23.5,130l11.4,1.4l-6.3,25l130.8,113.7L358.6,816.2l6.5-22l-10.4-1.3L349,650.3z"/>
<g>
	<path class="st10" d="M773.1,470.3c16.6-9.1,28.1-26.2,28.8-46.3c1-31.5-24.9-57.8-57.3-58.4c-23.4-0.5-43.5,12.6-52.7,31.7
		c-14.3-8.5-29.2-15.4-44.6-20.7c1.4-1.7,2.8-3.3,4.4-4.9c1.6-1.6,3.4-3.2,5.2-4.7c27.1-22.9,74-34.5,74-34.5
		c-42.7-10.7-81-11.5-114.3-6.8c16.5-17.7,34.2-30.3,34.2-30.3c-76.4,9.2-128.3,43.4-161.9,76.9c-4.3,4.3-8.3,8.6-12.1,12.8
		c-3.8,4.3-7.2,8.5-10.4,12.6c-1.1,1.1-1.6,1.7-1.6,1.7c-1.3-8.2-4.9-16.1-11-22.5c-7.4-7.8-17-11.9-26.4-12.1
		c-9.4-0.2-18.6,3.4-25.4,10.8c-13.5,14.7-12.7,39.1,1.6,54.5c4.6,4.9,10,8.3,15.7,10.3c-33,38.9-61.4,86.6-57.1,203.5
		c0.3,6.8,188.2,122,188.2,122L802.9,633c18.1-9.5,28.1-28.5,25.1-47.7C820.6,538.4,805.5,512.4,773.1,470.3z"/>
	<path class="st11" d="M774.6,423.1c-0.5,16.7-14.8,29.6-31.9,28.8c-17-0.7-30.4-14.6-30.1-31c0.3-16.5,14.3-29.6,31.4-29.1
		C761.3,392.2,775.1,406.3,774.6,423.1z"/>
	<path class="st11" d="M449.9,405.9c0.3,12.7-9.2,22.6-21.1,22.1c-11.8-0.5-21.6-11-22-23.5c-0.4-12.6,8.9-22.6,20.8-22.3
		C439.6,382.5,449.6,393.2,449.9,405.9z"/>
</g>
<g>
	<path id="XMLID_28_" class="st12" d="M479.1,668.2c1.1,9.2,2.9,18.2,5.4,26.7c2,6.7,7.1,11.7,12.8,12.7l21.6,3.7
		c8.1,1.4,14.8-5.2,15.1-14.7l1.1-40.6c-3.8,2.5-7.9,4.7-12.3,6.5C509.5,668.2,494.4,670.1,479.1,668.2"/>
	<path id="XMLID_27_" class="st12" d="M552.3,658.6l-1,40.8c-0.2,9.5,6.2,18.4,14.5,19.8l22.6,3.9c6.2,1,11.8-2.3,14.3-8.4
		c3.2-7.9,5.6-16.6,7.3-25.7c-16.5-3.1-32.2-10-45.7-20C560,665.8,556,662.3,552.3,658.6"/>
	<path id="XMLID_30_" class="st11" d="M683.2,637.7c0-6.9-1.8-11.9-5.1-15.8c-13.8-16.2-52.3-11.4-78.1-33.7c-2.8-2.4-5.5-4.5-8-6.4
		c-2.9-2.5-6.5-4.9-11.1-7.2c-7.5-3.7-16.9-6.6-26.9-8.4c-2.6-0.5-5.2-0.9-7.8-1.2c-2.6-0.3-5.2-0.5-7.8-0.7
		c-9.9-0.6-19.1,0-26.5,1.8c-4.5,1.1-8,2.6-10.8,4.3c-2.5,1.2-5.1,2.6-7.8,4.3c-24.6,15-58.1,1.3-70.6,12.9c-2.9,2.7-4.7,6.9-5,13.2
		c-0.3,7.7,0.9,15.2,3.5,22.4c8.4,23.8,31.4,43.6,59.7,48.2c0.1,0,0.2,0,0.2,0c1.1,0.2,2.1,0.3,3.1,0.4
		c18.7,2.2,47.5-11.9,47.5-11.9s1.7-1.2,3.9-2.4c2.5-1.3,5.7-2.7,8.2-2.3c2.5,0.4,5.6,2.7,8.1,4.7c2.2,1.9,3.8,3.6,3.8,3.6
		s28.8,23.4,48.8,27.4c1.1,0.2,2.2,0.5,3.4,0.6c0.1,0,0.2,0,0.3,0c31.3,4.9,58.6-8.2,69.8-30.9C681.3,653.9,683.2,646.1,683.2,637.7
		 M590.9,600.5c-0.2,8.9-2.9,16.9-7.4,23.3c-8.4,12-23,18.7-39.4,16.3c-16.2-2.4-29.9-13-37.3-27c-3.9-7.4-6.1-15.8-5.8-24.5
		c0.4-11.4,19.5-15.2,40-13.4c1.6,0.1,3.1,0.3,4.7,0.5c1.6,0.2,3.1,0.4,4.7,0.7C571.4,580,591.1,588.7,590.9,600.5"/>
	<path id="XMLID_29_" class="st13" d="M590.9,600.5c-0.2,8.9-2.9,16.9-7.4,23.3c-8.4,12-23,18.7-39.4,16.3
		c-16.2-2.4-29.9-13-37.3-27c-3.9-7.4-6.1-15.8-5.8-24.5c0.4-11.4,19.5-15.2,40-13.4c1.6,0.1,3.1,0.3,4.7,0.5
		c1.6,0.2,3.1,0.4,4.7,0.7C571.4,580,591.1,588.7,590.9,600.5"/>
	<path id="XMLID_22_" class="st12" d="M507.2,551.2c5.7-6,9.3-14.2,9.5-23.6c0.7-22-17.1-41.4-38.9-42
		c-18.1-0.5-33.2,12.9-35.2,31.2c-2.4,21.8,13.8,42.2,35.1,44.8c2.2,0.3,4.4,0.3,6.5,0.2c4-0.9,7.7-2.3,11.2-4.4
		C499.5,554.9,503.4,552.8,507.2,551.2"/>
	<path id="XMLID_21_" class="st12" d="M677.3,545.3c0.1-22.3-18.4-42.1-41.2-44.3c-22.4-2.2-40.7,13.5-41.1,35.3
		c-0.2,9.6,3.1,18.8,8.8,26.4c3.9,2.6,8,5.7,12.2,9.3c3.6,3.1,7.6,5.5,11.9,7.5c2.3,0.7,4.7,1.2,7.2,1.5
		C658.2,583.8,677.2,567.8,677.3,545.3"/>
	<path id="XMLID_20_" class="st14" d="M638.4,581.3c-11.4-1.4-20.4-11.5-20.3-22.6c0.2-11,9.4-18.9,20.8-17.7c1.6,0.2,3.1,0.5,4.6,1
		c-3.9,0.5-6.9,3.7-6.9,7.8c-0.1,4.9,4,9.3,9,9.9c5.1,0.6,9.2-2.9,9.3-7.9c0-0.7-0.1-1.4-0.2-2c3,3.9,4.9,8.6,4.8,13.6
		C659.3,574.8,649.8,582.7,638.4,581.3"/>
	<path id="XMLID_19_" class="st14" d="M480.6,561.9c-10.3-1.3-18.3-10.8-17.9-21.3c0.4-10.5,9-18,19.2-16.9c1.4,0.2,2.8,0.5,4.2,1
		c-3.6,0.5-6.3,3.5-6.5,7.4c-0.2,4.6,3.4,8.8,7.9,9.4c4.6,0.5,8.4-2.8,8.6-7.5c0-0.6,0-1.3-0.2-1.9c2.7,3.6,4.2,8.1,4,12.9
		C499.7,555.6,491,563.2,480.6,561.9"/>
</g>
<polygon class="st15" points="806.6,663.3 584.9,803.6 565.1,787.3 553.2,784.5 534.5,786 500.8,801.6 364.1,676.9 500.1,825.2 
	548.7,799.9 585.7,833.8 "/>
<path class="st16" d="M1845.3,1990.6c-519.4,724.2-1191.6,245.1-1465.2,87.2s-538.6-535.6-265.1-693.5s993.6-0.7,1267.2,157.2
	S1955.7,1836.8,1845.3,1990.6z"/>
<g>
	<path class="st17" d="M1074.3,1970.7c0,15.4-12.5,28-28,28c-15.4,0-28-12.5-28-28c0-15.4,12.5-28,28-28
		C1061.7,1942.7,1074.3,1955.2,1074.3,1970.7z"/>
	<circle class="st18" cx="1321.7" cy="1658.3" r="28"/>
	<path class="st17" d="M1409.8,1871.8c0,15.4-12.5,28-28,28s-28-12.5-28-28s12.5-28,28-28S1409.8,1856.3,1409.8,1871.8z"/>
	<g>
		<path class="st17" d="M805.7,1819.1c0,15.4-12.5,28-28,28c-15.4,0-28-12.5-28-28c0-15.4,12.5-28,28-28
			C793.1,1791.1,805.7,1803.6,805.7,1819.1z"/>
		<path class="st18" d="M978.5,1630.2c0,15.4-12.5,28-28,28c-15.4,0-28-12.5-28-28s12.5-28,28-28
			C966,1602.2,978.5,1614.7,978.5,1630.2z"/>
		<g>
			<path class="st17" d="M1086,1733.7l-307.4,59.2c-1.3,0.1-2.6,0.3-3.8,0.6l0.3-2l-14.8-3.7v17.4l0.1,0c0,0.7,0,1.4,0.2,2.1
				c1.9,6.8,13,11.5,24.8,10.4l307.4-59.2L1086,1733.7z"/>
			<path class="st18" d="M1343.5,1628.3l-9.4,7.9c-8-3.5-20.4-2.7-28.8,2.2l-218.9,95.3l30.6,17.7l218.9-95.3
				c5.1-3,7.6-6.8,7.4-10.4l0.1,0V1628.3z"/>
			<linearGradient id="SVGID_1_" gradientUnits="userSpaceOnUse" x1="1023.1627" y1="1677.733" x2="892.1057" y2="1551.0498">
				<stop  offset="0" style="stop-color:#5761D7"/>
				<stop  offset="0.1779" style="stop-color:#5C66D9"/>
				<stop  offset="0.3876" style="stop-color:#6A73DF"/>
				<stop  offset="0.6134" style="stop-color:#8289E8"/>
				<stop  offset="0.849" style="stop-color:#A3A7F5"/>
				<stop  offset="1" style="stop-color:#BCBEFF"/>
			</linearGradient>
			<path class="st19" d="M971.3,1607c-5.4-6.2-18.5-8.6-29.1-5.5h0c-1.3,0.4-2.4,0.8-3.5,1.3c-0.5-0.8-1.1-1.7-1.9-2.5
				c-1.9-1.9-6.4-4.6-6.4-4.6l0,17.4l0.1-0.1c0.1,1.8,0.8,3.6,2.3,5.3l141.3,129l38.6-11.4L971.3,1607z"/>
			<path class="st17" d="M1402,1842.2l-5.2,1.8l-3,6.2c-1.1-0.5-2.3-1-3.7-1.4l-277.3-112.7l-19.7,22.3l277.3,112.7
				c10.7,3.1,23.7,0.7,29.1-5.5v0c1.6-1.9,2.3-3.8,2.3-5.8l0.1,0.1L1402,1842.2z"/>
			<path class="st17" d="M1074,1747.6l-45.5,195.1l-3.4-1.7l0,18l0.1-0.1c0.6,5.7,8,10.6,18.2,11.6c11.8,1.1,22.9-3.6,24.8-10.4
				l48.7-208.6L1074,1747.6z"/>
			<path class="st20" d="M1390.2,1831.5L1133,1727l202.9-88.3c9.1-5.3,10.1-13.2,2.2-17.7l-2.1-1.2c-7.9-4.5-21.6-4-30.7,1.3
				l-203,88.3l-131.1-119.7c-5.4-6.2-18.5-8.6-29.1-5.5h0c-10.7,3.1-14.9,10.7-9.5,16.8l131,119.6l-285.1,54.9
				c-11.8,1.1-19.9,7.5-18,14.3c1.9,6.8,13,11.5,24.8,10.4l285.1-54.9l-45.2,193.4c-1.9,6.8,6.2,13.2,18,14.3
				c11.8,1.1,22.9-3.6,24.8-10.4l45.2-193.4l257.2,104.5c10.7,3.1,23.7,0.7,29.1-5.5C1405.1,1842.2,1400.8,1834.6,1390.2,1831.5z
				 M1105.4,1727.3l-4.8,5.4l-10.4-1l-1.7-6l9.4-2.8L1105.4,1727.3z"/>
		</g>
		<path class="st18" d="M1096.6,1743.3L1096.6,1743.3c-12.4,0-22.4-10-22.4-22.4v-259.7h44.9v259.7
			C1119,1733.2,1108.9,1743.3,1096.6,1743.3z"/>
	</g>
</g>
<g>
	<radialGradient id="SVGID_2_" cx="720.4145" cy="1127.9581" r="187.2632" gradientUnits="userSpaceOnUse">
		<stop  offset="0" style="stop-color:#E39A65"/>
		<stop  offset="0.401" style="stop-color:#A92FFB"/>
		<stop  offset="0.5473" style="stop-color:#891CFB"/>
		<stop  offset="0.7262" style="stop-color:#6507FA"/>
		<stop  offset="1" style="stop-color:#3919BB"/>
	</radialGradient>
	<path class="st21" d="M1012.9,1202l-0.1,0c-0.5-5.9-4.3-11.4-11.6-15.6l-4.7-2.7c-17.4-10.1-47.8-8.8-67.9,2.8l-141.8,81.8
		c-10.7,6.2-16.2,14-16.6,21.5l-0.1,0l0,24.7l0,0c0,6.4,3.8,12.5,11.7,17.1l4.7,2.7c17.4,10.1,47.8,8.8,67.9-2.8l141.8-81.8
		c10.3-6,15.9-13.5,16.5-20.8l0.1,0V1202z"/>
	<radialGradient id="SVGID_3_" cx="677.6526" cy="1115.9199" r="410.3254" gradientUnits="userSpaceOnUse">
		<stop  offset="0" style="stop-color:#E39A65"/>
		<stop  offset="0.401" style="stop-color:#A92FFB"/>
		<stop  offset="0.5473" style="stop-color:#891CFB"/>
		<stop  offset="0.7262" style="stop-color:#6507FA"/>
		<stop  offset="1" style="stop-color:#3919BB"/>
	</radialGradient>
	<path class="st22" d="M786.5,1310.3l-4.7-2.7c-17.4-10.1-15.2-27.6,4.9-39.2l141.8-81.8c20.1-11.6,50.5-12.9,67.9-2.8l4.7,2.7
		c17.4,10.1,15.2,27.6-4.9,39.2l-141.8,81.8C834.4,1319.1,803.9,1320.3,786.5,1310.3z"/>
</g>
<g>
	<path class="st23" d="M1030.2,1492.9l-384.8,218.6c-19.1,10.8-34.5-0.7-34.5-25.7l0,0c0-25,15.5-54.1,34.5-65l440.8-250.4v17.1
		C1086.2,1428.1,1061.2,1475.3,1030.2,1492.9z"/>
	<g>
		<path class="st20" d="M1022.9,1430.2l-34.7,27.9c13.8-3.1,28.2-5.7,44.1-7.8c40.6-5.4,78.6-6.2,119.4-5.4
			c53.5,1,107,1.7,160.3-3.2c24.1-3.4,48.1-6.6,72.3-9.4l54.8-683.2l-380.4-190l0,0c-13.4-7.1-30.6-6.2-49.4,4.5l-11.5,6.5
			c-42.5,24.2-77,89.1-77,145v749.5l102.2-58.1V1430.2z"/>
	</g>
</g>
<path class="st24" d="M887.2,1662c0,0-8-21.3,7.8-37.1c15.9-15.9,99.4-51,105.4-54.8c6-3.8,36.1-25.9,36.1-25.9l9.2-20.5
	c0,0-169.6,16.5-171.8,19.2c-2.3,2.6-79.4,71.8-77.1,74.8c2.3,3,53.1,15.4,53.1,15.4l9.8,13.5L887.2,1662z"/>
<path class="st17" d="M1406.2,744.2l-9.7,5.5c-36,20.5-65.2,75.4-65.2,122.8V1507l-233.1,132.4c-16.1,9.2-29.2,33.8-29.2,55l0,0
	c0,21.2,13.1,30.9,29.2,21.8l325.9-185.1c26.2-14.9,47.4-54.8,47.4-89.2v-14.5V792.7C1471.5,745.4,1442.3,723.7,1406.2,744.2z"/>
<path class="st25" d="M904.3,1734c-14.3-24.7-52.3-103.6-52.3-103.6s83.4-57.4,124.5-71.8s63.1-25.7,63.1-25.7
	c7.9-10.9,33.4-52.6,44.8-85.6c-94.8-27.8-197.7-48.7-223.6-32.3c9.2,22.7,57.5,22.5,57.5,22.5s18.1,43.9,30,49.5
	c12,5.6,40.6-0.5,40.6-0.5s-4.6,7.2-25.1,22c-20.4,14.7-148.3,119.5-148.3,119.5s7.3,4.2,41.3,65.7c34.1,61.6,38.5,102.1,38.5,102.1
	S918.6,1758.7,904.3,1734z"/>
<path class="st26" d="M1373.9,1180.5c-9.1-32.1-31.3-123.1-80.2-178.8c-39.8-45.2-109-90.5-115.4-96.5c-8.8-8.2-28.3,46.7-28.3,46.7
	l-223,1.1c-23.9,0.1-46.9,9.8-63.5,27c-17,17.7-40.8,39.9-63.7,52.3c-42.4,22.9-169.6,93.6-169.6,93.6l-20.2,15.7
	c20.5,40.9,32.9,86.6,35.2,134.6c2-2.2,3.2-3.5,3.2-3.5c36.2-7.6,103.3-23.8,103.3-23.8c5.6,28-21.7,72.4-29.2,142.9
	c-6.5,61,55.1,122.3,36.9,146.4c-2.5,3.3-1.1,7.9,2.6,9.4c40.8,16.8,191.3,39.3,191.3,39.3c18.5,121.2,122.5,157.3,199.7,144.9
	c74.7-12,130.4-132.4,133.9-140c-0.2,1,2.1,3.4,33.4-3.3c38.2-8.2,53.5-14.2,53.5-14.2C1370.1,1448.2,1398.7,1268,1373.9,1180.5z"/>
<path class="st8" d="M819.2,1039c0,0,69.8,155.2,131.1,290c0,0,318.8-285.3,338.3-325.4c19.5-40.1-50.3-12-71.2-27.4
	c-20.9-15.4-196.7,54.3-196.7,54.3L819.2,1039z"/>
<path class="st27" d="M1293.7,1007.8c0,0-52.4,125.2-57.8,142.5l-21.1-2.2l3.8,28.5L1052.9,1329l197.2-136.3l-5-25.3l19.1,2
	L1293.7,1007.8z"/>
<path class="st28" d="M585.3,1251.9c0,0-1,6.7-12.6,13.3c-11.6,6.6-41.2,21.2-46,25.4c-4.8,4.2-26.2,23-26.8,25.4
	c-0.6,2.5-7,23.7-7,25c0,1.3,2.1,11.1,2.1,11.1l-6.6,31.4c0,0-8.3,12.2,0.7,15.5c9.1,3.3,14.2-6.1,14.4-7.5c0,0,13.7-6.5,23.8-14.3
	c10.1-7.8,50.5-40.3,57.3-38.3c6.9,2,0.5,13.6-2.7,15.6c-3.3,2-24.7,22.9-15.7,37.5c9,14.5,14.8-8.2,20.7-12.8
	c5.9-4.6,18.7-22.8,26.6-25.1c7.8-2.2,22.1-31.5,24-44.6c1.9-13.1,11.2-21.5,14.6-25.7c3.3-4.2-7.2-36.7-7.2-36.7l-40-12.4l-14,9.1
	L585.3,1251.9z"/>
<g>
	<defs>
		<path id="SVGID_4_" d="M1193.3,1543.8l-4.7-2.7c-17.4-10.1-15.2-27.6,4.9-39.2l141.8-81.8c20.1-11.6,50.5-12.9,67.9-2.8l4.7,2.7
			c17.4,10.1,15.2,27.6-4.9,39.2l-141.8,81.8C1241.1,1552.6,1210.7,1553.8,1193.3,1543.8z"/>
	</defs>
	<clipPath id="SVGID_5_">
		<use xlink:href="#SVGID_4_"  style="overflow:visible;"/>
	</clipPath>
	<path class="st29" d="M1344.9,1080.3c-8.4-13.2-12.2-3.5-23.4,7.4c-15.1,14.7-34.2,37.5-44,66.3c-17.9,52.4-11.5,183.5-5.5,202.3
		c0,0-166.6,27.3-178.2,26.8c-11.5-0.5,14.3,81.6,14.3,81.6s266.1-8.7,272.9-13.5c6.8-4.8,8-73.3,7.4-113
		C1387.8,1304.2,1388.5,1149.2,1344.9,1080.3z"/>
	<path class="st30" d="M1108.1,1464.7c0,0,266.1-8.7,272.9-13.5c6.8-4.8,8-73.3,7.4-113c-0.4-27.8-0.1-136.7-23.9-213.1
		c18.7,64.7,8.8,293.4,0.4,305.1c-8.5,11.7-261.6,18.4-261.6,18.4l0,0C1106,1458.1,1108.1,1464.7,1108.1,1464.7z"/>
</g>
<g>
	<path class="st18" d="M1384,1386.3l-0.1,0c-0.5-5.9-4.3-11.4-11.6-15.6l-4.7-2.7c-17.4-10.1-47.8-8.8-67.9,2.8l-141.8,81.8
		c-10.7,6.2-16.2,14-16.6,21.5l-0.1,0l0,24.7l0,0c0,6.4,3.8,12.5,11.7,17.1l4.7,2.7c17.4,10.1,47.8,8.8,67.9-2.8l141.8-81.8
		c10.3-6,15.9-13.5,16.5-20.8l0.1,0V1386.3z"/>
	<path class="st31" d="M1157.7,1494.6l-4.7-2.7c-17.4-10.1-15.2-27.6,4.9-39.2l141.8-81.8c20.1-11.6,50.5-12.9,67.9-2.8l4.7,2.7
		c17.4,10.1,15.2,27.6-4.9,39.2l-141.8,81.8C1205.5,1503.4,1175.1,1504.6,1157.7,1494.6z"/>
</g>
<path class="st27" d="M936.9,2241.8c-5.7,0-11.1-1.4-15.8-4.2c-11.2-6.4-17.4-19.4-17.4-36.4V1819h16.6v382.2
	c0,10.7,3.3,18.7,9.1,22c5.8,3.3,14.3,2.1,23.6-3.2l318.3-183.7c22.2-12.8,41-45.3,41-71v-382.2h16.6v382.2
	c0,31.9-21.6,69.4-49.2,85.3l-318.3,183.7C952.8,2239.3,944.6,2241.8,936.9,2241.8z"/>
<path class="st27" d="M123.8,1789.3c-5.7,0-11.1-1.4-15.9-4.2c-11.2-6.5-17.3-19.4-17.3-36.4v-382.2h16.6v382.2
	c0,10.7,3.3,18.7,9.1,22c5.7,3.3,14.3,2.2,23.6-3.2l318.3-183.7c22.2-12.8,41-45.3,41-71v-382.2h16.6V1513
	c0,31.9-21.6,69.3-49.2,85.3L148.1,1782C139.7,1786.9,131.4,1789.3,123.8,1789.3z"/>
<path class="st32" d="M1408.7,1226.2c-51.1,31.5-133.2,356.9-82.8,424.7s391.2,100.5,613.7,52.7c86.6-175.5,23.4-378.6-2.5-446.7
	c-5.6-14.8-19.7-24.6-35.5-24.6c-0.2,0-0.3,0-0.5,0"/>
<path class="st33" d="M1406.7,1226.2c0,0-235.6,210.9-107.2,302.3c86.6,61.7,93-51.4,88-131.4c-3.2-51.3,1.4-102.9,14.4-152.6
	L1406.7,1226.2z"/>
<path class="st33" d="M1408.7,1226.2c0,0,52.3,161.4,119.3,308.6c0,0,368.9-224.4,390.2-268.2c21.3-43.8-54.9-13.1-77.8-29.9
	c-22.8-16.8-214.8,59.3-214.8,59.3L1408.7,1226.2z"/>
<path class="st15" d="M1536.5,1385l-22.6,15.7c0,0,18.5-0.5,22.6,3.6c4.1,4.1,9.7-13,9.7-13"/>
<g>
	<path class="st15" d="M1598,1373.3c0,0,0.4,0.3,1.1,0.8l1.4-0.9L1598,1373.3z"/>
</g>
<path id="XMLID_1_" class="st10" d="M1916.5,1260.5c0-135.9-25.8-185.3-65.8-230c6.6-1.9,12.8-5.4,17.9-10.5
	c16.2-16.2,16.2-42.7,0-59c-8.1-8.1-18.8-12.2-29.5-12.2c-10.7,0-21.4,4.1-29.5,12.2c-6.6,6.6-10.5,14.9-11.7,23.5
	c0,0-0.6-0.7-1.9-1.8c-3.7-4.4-7.6-9-11.8-13.6c-4.2-4.6-8.7-9.2-13.5-13.8c-36.9-35.3-91.7-70.3-168.8-79.6c0,0,17.5,12.4,34,30
	c-33.3-4.9-71-4.4-112.1,5.5c0,0,45,11.9,71.5,35c1.8,1.6,3.5,3.2,5.1,4.8c1.6,1.6,3,3.3,4.4,5c-20.9,6.6-40.8,16.3-59.3,28.6
	c-1.2-8.6-5.1-16.9-11.7-23.5c-8.1-8.1-18.8-12.2-29.5-12.2c-10.7,0-21.4,4.1-29.5,12.2c-16.2,16.2-16.2,42.7,0,59
	c5.1,5.1,11.3,8.7,17.9,10.5c-44.7,50-75.4,118.6-83.9,195.7c0,0,92.4,124.2,139.2,135.8C1667.6,1391.6,1916.5,1268.6,1916.5,1260.5
	z"/>
<path id="XMLID_5_" class="st34" d="M1544.4,1142.7c6.1-7.4,9.8-16.8,9.8-27.1c0-24.5-20.7-44.1-45.5-42.4
	c-20.9,1.4-37.9,18.4-39.3,39.3c-1.7,24.8,17.9,45.5,42.4,45.5c2.5,0,5-0.2,7.4-0.7c4.4-1.6,8.6-3.6,12.4-6.4
	C1535.9,1147.8,1540.2,1145,1544.4,1142.7"/>
<path id="XMLID_4_" class="st34" d="M1724.3,1115.6c0-23.5-19-42.5-42.5-42.5c-23.5,0-42.5,19-42.5,42.5c0,10.3,3.7,19.8,9.8,27.1
	c4.2,2.3,8.4,5.1,12.9,8.3c3.8,2.8,8,4.8,12.4,6.3c2.4,0.4,4.9,0.7,7.4,0.7C1705.3,1158,1724.3,1139,1724.3,1115.6"/>
<path id="XMLID_3_" class="st14" d="M1663.4,1149.2c-11.7,0-21.2-9.5-21.2-21.2c0-11.7,9.5-21.2,21.2-21.2c1.6,0,3.2,0.2,4.8,0.6
	c-4.1,1-7.1,4.7-7.1,9.1c0,5.2,4.2,9.4,9.4,9.4c5.2,0,9.4-4.2,9.4-9.4c0-0.7-0.1-1.4-0.2-2.1c3.1,3.7,5,8.5,5,13.7
	C1684.7,1139.7,1675.1,1149.2,1663.4,1149.2"/>
<path id="XMLID_2_" class="st14" d="M1493.3,1149.2c-11.7,0-21.2-9.5-21.2-21.2c0-11.7,9.5-21.2,21.2-21.2c1.6,0,3.2,0.2,4.7,0.6
	c-4.1,1-7,4.7-7,9.1c0,5.2,4.2,9.4,9.4,9.4c5.2,0,9.4-4.2,9.4-9.4c0-0.7-0.1-1.4-0.2-2.1c3.1,3.7,5,8.5,5,13.7
	C1514.5,1139.7,1505,1149.2,1493.3,1149.2"/>
<circle class="st11" cx="1840.6" cy="991.5" r="22.9"/>
<circle class="st11" cx="1502.9" cy="991.5" r="22.9"/>
<g id="XMLID_12_">
	<path id="XMLID_18_" class="st35" d="M1528,1826.8h-115.1c-40-32.2-67.1-105.1-87-175.9l310.3-2.6h325.7
		c-28.4,77.5-64.4,146.3-104.5,178.5l-179.3,2.5C1627.2,1703.9,1546.2,1773.5,1528,1826.8z"/>
	
		<linearGradient id="XMLID_33_" gradientUnits="userSpaceOnUse" x1="1327.121" y1="1841.4197" x2="2341.5015" y2="1841.4197" gradientTransform="matrix(-1 0 0 1 3345.5886 0)">
		<stop  offset="3.763440e-02" style="stop-color:#505B5C"/>
		<stop  offset="1" style="stop-color:#223032"/>
	</linearGradient>
	<path id="XMLID_16_" class="st36" d="M1796.9,1856.1c-20.1,0-104.1-6.9-116.8-24.3c-0.6-0.9-1.3-1.7-2-2.6l179.3-2.5
		c-7.9,6.3-15.9,12.4-24.1,18C1822.2,1852.4,1809.5,1856.1,1796.9,1856.1z"/>
	<path id="XMLID_15_" class="st26" d="M1767.8,1858.6c-21.3,0-77.6-8.2-90.9-26.7c-0.7-0.9-1.4-2.6-2.1-3.5l187.9-2.6
		c-8.3,6.7-16.8,13.1-25.5,19.1C1825.3,1853,1781.1,1858.6,1767.8,1858.6z"/>
	
		<linearGradient id="XMLID_37_" gradientUnits="userSpaceOnUse" x1="1384.7532" y1="1841.4197" x2="2036.1124" y2="1841.4197" gradientTransform="matrix(-1 0 0 1 3345.5886 0)">
		<stop  offset="3.763440e-02" style="stop-color:#505B5C"/>
		<stop  offset="1" style="stop-color:#223032"/>
	</linearGradient>
	<path id="XMLID_14_" class="st37" d="M1526,1829.3c-12.6,17.4-32.5,26.8-52.6,26.8c-12.6,0-25.3-3.7-36.4-11.3
		c-8.2-5.7-16.3-11.7-24.1-18H1528C1527.3,1827.6,1526.7,1828.4,1526,1829.3z"/>
	<path id="XMLID_13_" class="st26" d="M1530,1829.2c-13.5,18.6-34.8,27.9-56.4,27.9c-13.5,0-27.1-3.9-39-12.1
		c-8.8-6.1-17.4-11.5-25.8-18.3l122.2-1C1530.3,1826.6,1530.6,1828.3,1530,1829.2z"/>
</g>
<path class="st33" d="M1921.5,1568.9c-5.7,2.7-7.6,3.3-10.6,4.5c-3,1.2-5.3,2-7.9,2.8l-7.4,2.5l-7.1,2.1c-9.5,2.9-18.5,4.8-27.6,6.9
	c-18.1,3.6-35.9,6.5-53.7,7.8c-35.5,3-70.7,2.3-105-2.5c-8.6-0.9-17-2.8-25.5-4.3l-12.6-2.4c-4.2-0.9-8.3-2-12.4-3.1l-24.7-6.4
	l-23.9-8.1l-11.9-4.1c-3.9-1.4-7.7-3.2-11.5-4.8l-22.8-9.9c-15-6.9-29.2-15-43.6-22.5c-39.9-20.9-55.4-70.1-34.5-110.1
	c18.3-35.1,58.5-51.2,95.1-40.5l10.6,3.1c11.1,3.2,21.9,7.2,32.9,10l16.4,3.8c2.7,0.6,5.4,1.4,8.2,1.8l8.2,1.2l16.3,2.4l16.2,1.1
	c2.7,0.2,5.4,0.5,8,0.5l8-0.1c5.3-0.2,10.6,0.2,15.9-0.3c21-0.9,41.5-4.6,60.7-10c9.7-2.6,18.8-6,27.5-9.6c4.1-1.9,8.5-3.7,11.9-5.7
	l2.7-1.4l2.2-1.4c0.7-0.4,1.6-0.9,1.7-1.2c0.1-0.2,1.4-1-1.2,0.1c54.6-28,97.1-31,125.1,23.6
	C1973.1,1449.5,1976,1540.9,1921.5,1568.9z"/>
<g>
	<path class="st10" d="M1544.8,1516.1c-30.5,9-63.1-5.1-77.5-33.5c-5.2-10.3-9.4-19.1-9.9-21.6c-2.3-10.5-4.4-30.4,8-44.5
		c1.6-1.9,3.5-3.6,5.4-5.2c1.5-2.1,39.1-37.1,43.3-38.7c23.7-9.4,38-4,45.8,2.2c4.7,3.7,8.1,8,16.4,24.7
		c8.1,16.3-4.7,93.4-11.8,105.8C1562,1509.7,1554.3,1513.3,1544.8,1516.1z"/>
</g>
<path class="st10" d="M1388.6,1429c0,0-69.2,107.6-62.8,114s54.1,17.3,62.8-30.6C1397.3,1464.7,1388.6,1429,1388.6,1429z"/>
<rect x="497.2" y="1273.6" transform="matrix(0.4933 -0.8699 0.8699 0.4933 -1258.28 1321.8613)" class="st27" width="16.6" height="934.7"/>
<g>
	<linearGradient id="SVGID_6_" gradientUnits="userSpaceOnUse" x1="46.822" y1="1518.3838" x2="1380.1095" y2="1518.3838">
		<stop  offset="0" style="stop-color:#42E8E0"/>
		<stop  offset="0.1507" style="stop-color:#43E3E0"/>
		<stop  offset="0.3285" style="stop-color:#45D5DF"/>
		<stop  offset="0.5199" style="stop-color:#49BDDD"/>
		<stop  offset="0.7209" style="stop-color:#4E9CDB"/>
		<stop  offset="0.9274" style="stop-color:#5472D8"/>
		<stop  offset="1" style="stop-color:#5761D7"/>
	</linearGradient>
	<polygon class="st38" points="914.3,1903.3 46.8,1402.4 512.6,1133.5 1380.1,1634.3 	"/>
	<polygon class="st39" points="46.8,1360.9 46.8,1402.4 914.3,1903.3 1380.1,1634.3 1380.1,1592.8 914.3,1861.7 	"/>
	<polygon class="st40" points="914.3,1861.7 46.8,1360.9 512.6,1092 1380.1,1592.8 	"/>
</g>
<path class="st41" d="M574.4,1395.8c0,0,20.3-18.1,33.3-24.2s33.9-22.1,36.4-34.4c2.5-12.3,24.2-39.5,24.2-39.5l-34.7,20l-50.2,29
	l-83.6,48.5c0,0,5.1,5.9,15.7,2.3c10.6-3.6,30.4-16.3,39.7-17.4c9.3-1.1,24.6-4,24.6-4L574.4,1395.8z"/>
<polygon class="st42" points="303.6,1384.1 412.3,1434.3 468,1350.9 330.2,1325.9 "/>
<polygon class="st42" points="975.1,1725.9 1069.7,1768.1 1145.7,1724.2 1001.8,1667.7 "/>
<path class="st10" d="M1227.9,835.6c14.1-9,23.5-24.7,23.5-42.7c0-27.9-22.6-50.5-50.5-50.5c-20.4,0-38,12.1-46,29.6
	c-13-7.3-26.6-13.3-40.7-17.8c1.2-1.6,2.6-3.1,4-4.6c1.5-1.5,3-3,4.7-4.4c24.3-21.1,65.5-32,65.5-32c-37.7-9.1-72.2-9.5-102.7-5
	c15.1-16.1,31.1-27.5,31.1-27.5c-70.6,8.5-120.8,40.6-154.6,72.9c-4.4,4.2-8.5,8.4-12.4,12.6c-3.9,4.2-7.5,8.4-10.8,12.5
	c-1.1,1.1-1.7,1.7-1.7,1.7c-1.1-7.9-4.7-15.5-10.7-21.5c-7.4-7.4-17.2-11.1-27-11.1c-9.8,0-19.6,3.7-27,11.1
	c-14.8,14.8-14.8,39.1,0,54c4.7,4.7,10.4,7.9,16.4,9.6c-36.6,41-69.7,92.2-69.7,216.6c0,7.4,141.4,87.4,141.4,87.4l333.1-124.8
	C1286.6,937.6,1262.9,879.9,1227.9,835.6z"/>
<g>
	<g>
		<path class="st43" d="M361.1,1231.8h-115l10.7,124.5l0,0c0,6.9,4.6,13.8,13.7,19.1c18.3,10.6,47.9,10.6,66.2,0
			c9.1-5.3,13.7-12.2,13.7-19.1L361.1,1231.8z"/>
		<path class="st44" d="M338.6,1240.4c-19.3,11.2-50.7,11.2-70,0c-19.3-11.2-19.3-29.3,0-40.4c19.3-11.2,50.7-11.2,70,0
			C357.9,1211.1,357.9,1229.2,338.6,1240.4z"/>
		<path class="st45" d="M364.5,1230.3L364.5,1230.3L364.5,1230.3c0-0.1,0-0.2,0-0.3l-1.1-11.1l0,0.1c-0.5-8.4-6.3-16.8-17.5-23.2
			c-23.3-13.5-61.2-13.5-84.5,0c-11.4,6.6-17.3,15.2-17.5,23.9l0,0l-1.1,9.9c0,0.3-0.1,0.5-0.1,0.8l0,0.2l0,0
			c-0.6,9.5,5.3,19,17.8,26.2c23.8,13.7,62.4,13.7,86.2,0C359.2,1249.4,365.2,1239.8,364.5,1230.3z"/>
		<ellipse class="st46" cx="305.1" cy="1220.1" rx="53.2" ry="30.7"/>
		<path class="st47" d="M268.6,1204.9c19.3-11.2,50.7-11.2,70,0c8.6,5,13.3,11.3,14.3,17.7c1.2-8.1-3.5-16.5-14.3-22.7
			c-19.3-11.2-50.7-11.2-70,0c-10.8,6.2-15.5,14.6-14.3,22.7C255.2,1216.2,260,1209.8,268.6,1204.9z"/>
		<path class="st48" d="M346.2,1196c-23.3-13.7-61.3-14.1-84.8-0.7c-23.5,13.3-23.7,35.2-0.4,49c23.3,13.7,61.3,14.1,84.8,0.7
			S369.5,1209.8,346.2,1196z M334.2,1237.8c-5.6,3.3-12.5,5.4-19.7,6.5l-0.8-2.6c-0.3-1-1.3-1.8-2.4-1.8h-15.5c-1.1,0-2,0.7-2.4,1.8
			l-0.8,2.6c-7.2-1.1-14-3.2-19.7-6.5c-16.9-9.8-16.9-25.6,0-35.3c16.9-9.8,44.3-9.8,61.2,0C351.1,1212.2,351.1,1228,334.2,1237.8z"
			/>
		<path class="st49" d="M311.5,1250.2h-12.9c-0.1,0-0.2-0.1-0.2-0.2v-2.4c0-0.1,0.1-0.2,0.2-0.2h12.9c0.1,0,0.2,0.1,0.2,0.2v2.4
			C311.7,1250.1,311.6,1250.2,311.5,1250.2z"/>
	</g>
</g>
<path class="st10" d="M1054.5,1346.6c0,0-89.2,38.4-67.1,82.2c22.1,43.8,117.2,43.6,157.5,28.6
	C1185.2,1442.6,1054.5,1346.6,1054.5,1346.6z"/>
<circle class="st11" cx="1200.9" cy="792.9" r="27.2"/>
<circle class="st11" cx="899.2" cy="787.3" r="22.5"/>
<path class="st15" d="M997.1,1167.8c7.1,1.3,31.2,15.9,31.2,15.9c-7.1-12-18.9-22-27.3-28.1c-3.7-1.1-7.6-2.3-10.7-4.3l-5.7,4.3
	c0,0-23.8,26.9-24,29.4c-0.1,2.5,7.9,33.9,9.5,35.8c1.5,2,10.6,41.3,10.6,41.3l8.9-1l5.4-11.3c0,0-14.3-54.8-12.5-60.9
	C984.1,1182.8,997.1,1167.8,997.1,1167.8z"/>
<path class="st15" d="M930.6,1143.2l-16.3,8.3c0,0,14.7,29.5,18.4,33.3c3.8,3.8,6.7-41.9,6.7-41.9"/>
<path class="st50" d="M931.2,1143.2l27.5-8.3c9.4,2,34.5,19,34.5,19s2.2,8.1-9.6,18.6c-11.8,10.5-12.2,16.9-12.2,16.9
	s17.3,44.6,18.1,71.5c0,0-38,43.6-39.2,68l-36.1-79.4c0,0,8.5-25.3,11-33.6c2.6-8.3,9.6-52.9,3.8-60.7
	C923.3,1147.6,931.2,1143.2,931.2,1143.2z"/>
<path class="st51" d="M925.3,1216.1c2.6-8.3,9.6-52.9,3.8-60.7c-5.8-7.7,1.4-9.1,1.4-9.1s13-11.6,22.4-9.6c1,0.2,2.1-3.3,3.4-2.9
	c0,0.3,0,0.5,0,0.5s-7.7,20.5-9.3,25.5c-1.6,5-2,57.3-5.6,69.1c-3.6,11.8-12.1,59.4-12.1,59.4l-6.8-20.1
	c-6.1-12.5-8.4-18.4-8.4-18.4S922.8,1224.4,925.3,1216.1z"/>
<polyline class="st15" points="1007.1,1171.8 1034.3,1195.7 1237,1062 1024.5,1171.2 1010.3,1167.9 "/>
<path class="st52" d="M576.8,742.7"/>
<path class="st15" d="M60.9,976.3"/>
<polygon class="st9" points="331.8,888.1 327.8,1007.8 331.8,1017.5 345.5,990.7 336.6,871.3 "/>
<polyline class="st53" points="1253.2,1051.3 1024.5,1171.2 958.7,1135 911.5,1148.8 834.5,1073.1 822.6,1046.6 "/>
<g>
	<path id="XMLID_706_" class="st12" d="M901.7,1037.6c0.8,8.5,2.3,16.7,4.5,24.6c1.7,6.1,6.1,10.9,11.3,11.9l19.5,4.1
		c7.4,1.6,13.8-4.3,14.2-13.1l1.9-38c-3.6,2.3-7.5,4.3-11.6,6C929.2,1038.2,915.4,1039.7,901.7,1037.6"/>
	<path id="XMLID_705_" class="st12" d="M969.3,1029.8l-2,38.5c-0.5,8.9,5.4,17.5,13.2,19.1l21.7,4.6c6,1.3,11.6-1.6,14.3-7.4
		c3.4-7.5,6.2-15.7,8.2-24.5c-16.2-3.5-31.4-10.5-44.1-20.3C976.5,1036.8,972.7,1033.4,969.3,1029.8"/>
	<path id="XMLID_679_" class="st34" d="M929.2,925.7c5.4-6.1,9-14.2,9.4-23.4c1.1-21.8-15.3-39.9-35.5-39.1
		c-16.5,0.6-30.2,14.5-32.1,32c-2.3,20.7,11.8,39.5,30.9,41.3c2,0.2,4,0.2,5.9,0c3.6-1,7.1-2.4,10.3-4.6
		C922,929.5,925.7,927.4,929.2,925.7"/>
	<path id="XMLID_36_" class="st34" d="M1101.7,913.2c1.4-23.7-18-43.6-42.4-44.5c-23.5-0.8-43,16.5-44.1,38.7
		c-0.5,9.7,2.5,19,8,26.4c3.9,2.5,7.9,5.6,12.1,9.1c3.6,3,7.6,5.4,12,7.3c2.4,0.6,4.9,1.1,7.4,1.4
		C1078.9,953.9,1100.3,936.8,1101.7,913.2"/>
	<path id="XMLID_35_" class="st14" d="M1045.8,945.5c-11.6-1.1-20.4-11-19.8-22.2c0.6-11.2,10.4-19.6,22.1-18.9
		c1.6,0.1,3.2,0.4,4.8,0.8c-4.1,0.7-7.3,4.1-7.6,8.3c-0.3,5,3.7,9.4,8.9,9.8c5.3,0.4,9.8-3.4,10.1-8.5c0-0.7,0-1.4-0.1-2.1
		c3,3.9,4.7,8.7,4.4,13.8C1067.9,938.2,1057.6,946.6,1045.8,945.5"/>
	<path id="XMLID_34_" class="st14" d="M895,931.3c-9.1-0.9-16.1-9.6-15.6-19.5c0.5-9.9,8.2-17.5,17.3-16.9c1.3,0.1,2.5,0.3,3.7,0.7
		c-3.2,0.7-5.8,3.7-5.9,7.4c-0.2,4.4,2.9,8.3,7,8.6c4.1,0.3,7.7-3.1,7.9-7.6c0-0.6,0-1.2-0.1-1.8c2.4,3.4,3.7,7.7,3.5,12.2
		C912.3,924.6,904.3,932.2,895,931.3"/>
	<path id="XMLID_24_" class="st11" d="M1103.2,1009c0.4-7-1.4-12.2-4.7-16.1c-14.1-16.5-54.7-11.2-80.2-33.2
		c-2.7-2.4-5.4-4.4-7.9-6.2c-2.8-2.4-6.3-4.7-10.8-6.9c-7.3-3.5-16.4-6.1-26.2-7.6c-2.5-0.4-5-0.7-7.5-1c-2.5-0.2-5-0.4-7.5-0.5
		c-9.5-0.3-18.2,0.5-25,2.5c-4.2,1.2-7.5,2.7-10.1,4.4c-2.3,1.2-4.7,2.6-7.2,4.3c-22.5,14.7-51.9,2.5-62.7,13.5
		c-2.5,2.6-4.1,6.4-4.4,12.2c-0.3,7,0.7,13.9,2.8,20.4c7.1,21.6,26.7,39.8,51.5,44.4c0.1,0,0.1,0,0.2,0c0.9,0.2,1.9,0.3,2.8,0.4
		c16.8,2.4,43.6-10.3,43.6-10.3s1.6-1.1,3.7-2.2c2.4-1.2,5.4-2.4,7.8-2.1c2.3,0.4,5.3,2.6,7.5,4.6c2.1,1.8,3.6,3.5,3.6,3.5
		s27.1,23,46.6,27.4c1.1,0.2,2.2,0.5,3.3,0.7c0.1,0,0.2,0,0.2,0c31.4,5.7,60.4-6.4,73.5-28.9
		C1100.2,1025.4,1102.7,1017.6,1103.2,1009 M1008.7,972c-0.5,8.8-3.4,16.7-8.1,23c-8.6,11.7-23,18.1-38.5,15.7
		c-15.2-2.3-27.7-12.4-34.3-25.6c-3.5-7-5.3-15-4.9-23.2c0.5-10.9,18.4-15,37.9-13.8c1.5,0.1,3,0.2,4.5,0.4c1.5,0.2,3,0.3,4.5,0.6
		C990.1,952,1009.3,960.3,1008.7,972"/>
	<path id="XMLID_17_" class="st26" d="M1008.7,972c-0.5,8.8-3.4,16.7-8.1,23c-8.6,11.7-23,18.1-38.5,15.7
		c-15.2-2.3-27.7-12.4-34.3-25.6c-3.5-7-5.3-15-4.9-23.2c0.5-10.9,18.4-15,37.9-13.8c1.5,0.1,3,0.2,4.5,0.4c1.5,0.2,3,0.3,4.5,0.6
		C990.1,952,1009.3,960.3,1008.7,972"/>
</g>
<g>
	<path class="st26" d="M1516.8,1271.6c0,0,3.2,60.9,51.7,65.3c50.9,4.6,83.1-28.9,83.3-57.4c0.2-28.3-92.3-31.1-92.3-31.1
		l-28.2,10.2"/>
	<path id="XMLID_7_" class="st54" d="M1511.6,1246.1c1.2,9.6,3.2,18.9,5.9,27.7c2.1,6.9,7.4,11.6,13.4,12l22.5,1.5
		c8.4,0.6,15.5-7.3,15.7-17.5l0.8-43.7c-4,3.2-8.3,6.1-12.8,8.6C1543,1242.4,1527.4,1246.3,1511.6,1246.1"/>
	<path id="XMLID_6_" class="st54" d="M1587.9,1226.7l-0.7,44.1c-0.2,10.3,6.8,19.1,15.6,19.7l24.2,1.6c6.6,0.4,12.7-3.8,15.3-10.8
		c3.4-9,6-18.7,7.7-28.9c-17.8-1.4-34.8-6.9-49.2-16C1596.2,1233.5,1591.9,1230.2,1587.9,1226.7"/>
	<path id="XMLID_9_" class="st11" d="M1730.4,1215.6c0-7.7-2.1-13.1-5.9-17c-15.6-16.3-58.1-5.9-86.5-27.1c-3.1-2.3-6-4.3-8.8-6
		c-3.1-2.3-7-4.5-12-6.4c-8.1-3-18.1-4.9-28.9-5.6c-2.7-0.2-5.5-0.3-8.3-0.3c-2.8,0-5.5,0.1-8.3,0.3c-10.5,0.7-20.2,2.6-27.8,5.5
		c-4.7,1.8-8.3,3.9-11.3,6.1c-2.6,1.6-5.3,3.5-8.1,5.6c-25.3,19.2-59.6,8.8-72.1,22.7c-2.9,3.3-4.7,7.9-4.9,14.6
		c-0.3,8.2,1.1,16,3.7,23.3c8.8,24.3,32.3,42.7,61.3,44.6c0.1,0,0.2,0,0.2,0c1.1,0.1,2.2,0.1,3.2,0.1c19.4,0.3,49.5-18.1,49.5-18.1
		s1.8-1.5,4.1-3.1c2.6-1.7,6-3.5,8.6-3.4c2.6,0.1,6,2.2,8.6,4.2c2.4,1.8,4.1,3.5,4.1,3.5s31.1,22.3,52.7,24.5
		c1.2,0.1,2.4,0.3,3.7,0.3c0.1,0,0.2,0,0.3,0c34.2,2,64.4-15.5,76.8-42.1C1728.3,1233.9,1730.4,1225,1730.4,1215.6 M1628.3,1186.2
		c-0.1,9.8-3,18.9-7.8,26.5c-8.9,14.2-24.5,23.2-41.9,22.5c-17.1-0.7-31.6-10.5-39.5-24.7c-4.2-7.5-6.5-16.3-6.3-25.6
		c0.3-12.4,20.2-18.9,41.9-19.7c1.7-0.1,3.3-0.1,5-0.1c1.7,0,3.3,0.1,5,0.1C1607.2,1166.2,1628.5,1173.2,1628.3,1186.2"/>
</g>
<path id="XMLID_8_" class="st26" d="M1636.2,1186.2c0,10.2-2.9,19.7-7.9,27.7c-9.3,15-25.9,24.9-44.8,24.9c-18.9,0-35.5-10-44.8-25
	c-5-8-7.9-17.5-7.9-27.7c0-13.5,22.8-20.7,47.1-21.7c1.8-0.1,3.7-0.1,5.5-0.1c1.8,0,3.7,0,5.5,0.1
	C1613.4,1165.5,1636.2,1172.7,1636.2,1186.2"/>
<polyline class="st53" points="852.7,617.8 799.8,814.8 779.9,813.1 784.9,839 561.3,926.8 535.1,904.3 503.9,920.5 358.6,816.2 
	365.1,794.2 354.7,792.9 349.6,653.2 "/>
<polyline class="st53" points="355.7,667.6 502.3,800.5 551.7,781.8 584.9,803.6 810.4,666.6 "/>
<circle class="st55" cx="510.7" cy="952.2" r="24.1"/>
<circle class="st55" cx="510.7" cy="1019.2" r="24.1"/>
<path class="st56" d="M1776.6,1094.6c-1.7-1.7-5.4-2.7-10.7-3c-1.7-0.2-2.9-0.4-2.8-0.4c-0.2-0.2-0.2-0.2-0.8-1.8
	c-3.1-9.3-7.7-17.7-13.1-24.1c-13.6-16.2-32.3-24.2-57-24.7l-47.8,0.9c-15.1,0.3-28.9,15.2-28.9,15.2c-4.7,4.2-8.2,9.2-10.6,15.2
	c-0.7,1.8-1.3,3.8-1.9,5.9c-1.8-0.8-3.9-1.3-6.2-1.4l-1.3,0l-0.2,0.1c-1.9,0.2-3.6,0.8-5.2,1.4c-0.5-2.1-1.1-4-1.8-5.8
	c-1.2-3.1-2.8-5.9-4.6-8.5c-0.9-0.9-1.7-2-2.6-3.2c-1-1.1-2.1-2.2-3.3-3.2l0.2,0c-2.3-1.9-5.3-3.7-8.6-5.3
	c-11.6-5.9-24.1-8.6-36.6-8.3l-26,0.5l-1.6,0.1c-22,1.2-38.4,9.3-50.2,24.7c-4.7,6.2-8.5,13.9-11.3,22.9c-0.3,1-0.4,1-0.3,1
	c0,0-0.7,0.4-2.5,0.6c-4.6,0.4-7.7,1.3-9.1,2.8c-2.3,2.4-3.2,7.3-2.3,12.2l0.5,2.8l2.3,1c0.5,0.2,1.4,0.6,5.9,0.6
	c0.8,0,1.4,0.1,1.8,0.1c0,0.6,0,1.5-0.1,2.4c-0.4,16.2,3.7,31.2,11.8,43.5c11.6,17.6,29.9,27.6,51.9,28c13.4,0.2,27.3-3.2,39.1-9.8
	c26.6-14.8,48.6-52.2,49.6-84.4c1.1-0.9,2.7-1.9,4.2-2c2,0.1,3.7,1.4,4.9,2.6c0.5,31.2,23.2,69.8,50.8,85.6
	c12.6,7.2,27.6,11.3,42.2,11.6c24.5,0.5,45.4-9.5,58.8-28.1c9.6-13.4,14.2-29.6,13.7-48.5c0-0.3,0-0.8,0-1.1
	c0.6-0.1,1.5-0.2,2.8-0.2c2.4,0,7,0,9.5-4.3l0.8-2.3C1780.3,1102.4,1779.3,1097.1,1776.6,1094.6z M1537.2,1164.3
	c-10.2,5.7-22.2,8.8-33.7,8.6c-18.2-0.3-33.2-8.3-42.6-22.5c-15.2-23.1-10.5-54.7,2.8-72.1c10-13,24.5-19.6,44.6-20.1l2,0
	c3.7,0,7,0.1,9.9,0.2c1.7,0.1,3.7,0.1,6.7,0.1c14.7,0,42.2-0.1,50.1,19.7C1586.6,1102.5,1565.3,1148.6,1537.2,1164.3z M1742.4,1153
	c-10.7,15-27.8,23.1-48,22.8c-12.6-0.2-25.6-3.7-36.5-9.9c-29.4-16.7-51.2-63.3-41.3-88c8.1-20.2,37.1-21,53.5-21.4
	c2.4-0.1,4.5-0.1,6.2-0.3c3.1-0.2,6.8-0.5,10.8-0.6l2.2,0c22.2-0.2,38.6,6.4,50,20.1C1754.7,1094.1,1760.1,1128.3,1742.4,1153z"/>
<path class="st10" d="M661.1,1111.7c0,0-89.2,37.3-67.1,79.8c22.1,42.5,98.1,41.8,138.4,27.3S661.1,1111.7,661.1,1111.7z"/>
<g>
	<path class="st42" d="M438.9,1469.9L787.3,1671c3.8,2.2,9.6,2.4,12.9,0.5l207.9-120c3.3-1.9,2.9-5.2-0.9-7.4l-348.4-201.2
		c-3.8-2.2-9.6-2.4-12.9-0.5l-207.9,120C434.7,1464.4,435.1,1467.7,438.9,1469.9z"/>
	<g>
		<g>
			<g>
				<g>
					<g>
						<path class="st57" d="M411.7,1439.5l19.2,10l192.6-111.2c3.2-1.9,8.9-1.6,12.6,0.5l332.2,191.8c3.2-1.8,17.7-8.7,17.7-8.7
							l-7,18.3l0,0c-0.3,0.8-0.9,1.6-2,2.2l-202.9,117.1c-3.2,1.9-8.9,1.6-12.6-0.5l-340-196.3c-1.5-0.9-2.5-2-2.9-3l0,0
							L411.7,1439.5z"/>
						<path class="st58" d="M414.7,1442.6l348.4,201.2c3.8,2.2,9.6,2.4,12.9,0.5l207.9-120c3.3-1.9,2.9-5.2-0.9-7.4l-348.4-201.2
							c-3.8-2.2-9.6-2.4-12.9-0.5l-207.9,120C410.5,1437.1,410.9,1440.4,414.7,1442.6z"/>
						<g>
							<g>
								<polygon class="st59" points="535.7,1415.4 771.6,1551.6 782.8,1545.1 546.9,1408.9 								"/>
								<polygon class="st60" points="517.9,1425.7 795.6,1586 806.8,1579.6 529.1,1419.2 								"/>
								<polygon class="st60" points="500,1436 777.8,1596.3 788.9,1589.9 511.2,1429.5 								"/>
								<polygon class="st59" points="482.2,1446.3 759.9,1606.6 771.1,1600.2 493.3,1439.8 								"/>
								<polygon class="st60" points="843.1,1548.2 574.3,1393.1 563.1,1399.5 829.8,1553.5 841,1560 852.2,1553.5 								"/>
								<polygon class="st60" points="758.1,1543.7 813.6,1575.8 824.8,1569.3 768.8,1537 								"/>
							</g>
						</g>
					</g>
				</g>
			</g>
		</g>
	</g>
</g>
<radialGradient id="SVGID_7_" cx="477.5941" cy="1699.2034" r="991.4772" gradientUnits="userSpaceOnUse">
	<stop  offset="0" style="stop-color:#E6AD22"/>
	<stop  offset="0.2891" style="stop-color:#E6AA22;stop-opacity:0.7109"/>
	<stop  offset="0.4751" style="stop-color:#E7A222;stop-opacity:0.5249"/>
	<stop  offset="0.6322" style="stop-color:#E89323;stop-opacity:0.3678"/>
	<stop  offset="0.773" style="stop-color:#EA7E23;stop-opacity:0.227"/>
	<stop  offset="0.9018" style="stop-color:#ED6323;stop-opacity:9.824646e-02"/>
	<stop  offset="1" style="stop-color:#EF4924;stop-opacity:0"/>
</radialGradient>
<polygon class="st61" points="865.8,1619 1250.6,1568.8 1528,1534.9 1403.4,559.1 561.5,574.6 406.7,1438.9 763.3,1649.6 "/>
<g>
	<g>
		<path class="st62" d="M412.3,1434.3l44-261.3l-3.5-1.5l5.3-3.1l0,0c1-0.7,2.5-0.6,4.1,0.3l352,203.2c2.9,1.7,5.1,5.9,4.6,8.9
			l-44.4,263.4c-0.2,1.4-0.9,2.3-1.9,2.7l0,0l-5.2,3l-0.9-4.9l0.3,0.1l-349.9-202C414,1441.6,411.8,1437.3,412.3,1434.3z"/>
		<path class="st57" d="M812.2,1379.2l5.8-2.6c0.6,1.5,1,3,0.7,4.4l-44.4,263.4c-0.2,1.4-0.9,2.3-1.9,2.7l0,0l-5.2,3l-0.9-4.9
			l0.3,0.1L749,1635L812.2,1379.2z"/>
		<path class="st63" d="M411.3,1446.4l352,203.2c2.7,1.6,5,0.7,5.5-2.2l44.4-263.4c0.5-3-1.7-7.3-4.6-8.9l-352-203.2
			c-2.7-1.6-5-0.7-5.5,2.2l-44.4,263.4C406.3,1440.5,408.4,1444.8,411.3,1446.4z"/>
	</g>
	<g>
		<path class="st64" d="M599.2,1397.7c-0.1-0.1-0.1-0.2-0.2-0.3c-0.3-0.5-0.7-0.9-1.1-1.4c-0.1-0.1-0.1-0.2-0.2-0.3
			c-0.4-0.4-0.8-0.9-1.3-1.4c-1.1-0.9-2.5-1.9-4.1-2.6c-0.4-0.2-0.8-0.3-1.2-0.5c-0.4-0.2-0.8-0.3-1.2-0.5c-1.6-0.6-3.2-0.9-4.5-1
			c-0.6,0-1.2,0.1-1.7,0.1c-0.1,0-0.2,0-0.3,0.1c-0.5,0.1-0.9,0.2-1.4,0.3c-0.1,0-0.2,0-0.3,0.1c-5.7,1.3-12.5-4.8-13.9,0.5
			c-1.1,5.5,2.9,11.9,9,14.5c0.2,0.1,0.4,0.2,0.6,0.2c2.6,0.9,6.6,0.4,8.3,0.1l0.1,0c0.4,0,0.5,0,0.6-0.1c0.5-0.2,1-0.2,1.4,0
			c0.4,0.2,0.8,0.7,1.2,1.1c0.1,0,0.2,0.3,0.5,0.6l0.1,0.1c1.3,1.6,4.4,5.1,6.8,6.3c0.2,0.1,0.4,0.2,0.6,0.2
			c6.1,2.5,12.1,0.3,13.4-5.1C611.6,1403.4,603.5,1403.2,599.2,1397.7z M595.4,1402.5c-1.8,1.5-4.3,2-6.9,0.9
			c-2.5-1.1-4.5-3.4-5.4-6c-0.4-1.4-0.5-2.9-0.2-4.3c0.4-1.8,3.8-1.5,7.2-0.3c0.2,0.1,0.5,0.2,0.7,0.3c0.2,0.1,0.5,0.2,0.7,0.3
			c3.4,1.5,6.3,3.8,5.9,5.7C597,1400.5,596.3,1401.7,595.4,1402.5z"/>
		<path class="st64" d="M592.2,1419.9c0.9,0.4,1.9,0.1,2.4-0.7c0.7-1,1.3-2.2,1.9-3.4c-2.3-1.1-4.5-2.6-6.3-4.7
			c-0.6-0.6-1.1-1.2-1.5-2l-1.3,5.9c-0.3,1.4,0.4,2.9,1.6,3.4L592.2,1419.9z"/>
		<path class="st64" d="M570.3,1360.5c-1.6-0.7-3.2,0.1-3.5,1.8c-0.3,1.6,0.7,3.5,2.3,4.2c1.7,0.7,3.2-0.2,3.5-1.8
			C572.9,1363.1,571.9,1361.2,570.3,1360.5z"/>
		<path class="st64" d="M578.8,1414.2l3.2,1.4c1.2,0.5,2.4-0.2,2.7-1.6l1.3-5.9c-0.7,0.2-1.4,0.4-2.1,0.5c-2.3,0.3-4.7,0-7.1-0.9
			c-0.1,1.5,0,2.8,0.2,4.2C577.2,1413,577.9,1413.9,578.8,1414.2z"/>
		<path class="st64" d="M583.5,1425.6c-5.1-2.2-10.4-0.3-13.4,3.6c3.3,2.6,7.1,4.8,11.1,6.5c4,1.7,7.9,2.8,11.9,3.2
			C592.3,1433.6,588.7,1427.9,583.5,1425.6z"/>
		<path class="st64" d="M578.9,1387.7c0.7,0,1.4,0,2.1-0.2c0.8-0.2,1.5-0.5,2.3-0.5c1.2-0.8,2.1-2.1,2.4-3.7
			c0.8-3.7-1.5-8.1-5.2-9.6c-3.7-1.5-7.3,0.3-8.1,4c-0.8,3.7,1.5,8,5.3,9.5C578.2,1387.5,578.5,1387.7,578.9,1387.7z M575.6,1379.1
			c0.2-0.8,0.6-1.5,1.2-1.9l0,0.1c0,0.1,0,0.2-0.1,0.3c-0.1,0.8,0.4,1.7,1.2,2.1c0.8,0.3,1.6,0,1.8-0.8c0.1-0.6-0.2-1.4-0.7-1.8
			c0-0.1-0.1-0.1-0.1-0.1c0.3,0,0.5,0.1,0.8,0.2c1.8,0.8,3,2.9,2.6,4.8c-0.4,1.9-2.2,2.8-4.1,2
			C576.4,1383.1,575.2,1381,575.6,1379.1z"/>
		<path class="st64" d="M623.4,1385.9c0.4-1.6-0.5-3.5-2.2-4.2c-1.6-0.7-3.3,0.1-3.7,1.8c-0.4,1.6,0.6,3.6,2.2,4.2
			C621.3,1388.3,623,1387.6,623.4,1385.9z"/>
		<path class="st64" d="M601.2,1396c0.5,0.7,1.1,1.3,1.7,1.8c0.4,0.3,0.7,0.4,1.1,0.6c3.7,1.5,7.4-0.2,8.3-3.9
			c0.9-3.7-1.4-8-5.1-9.6c-3.7-1.5-7.4,0.3-8.3,4c-0.4,1.7-0.1,3.4,0.6,4.9C600.1,1394.5,600.7,1395.2,601.2,1396z M603.5,1388.3
			c0,0.1-0.1,0.3-0.1,0.3c-0.2,0.8,0.3,1.8,1.2,2.1c0.8,0.3,1.7,0,1.9-0.9c0.2-0.7-0.1-1.4-0.8-1.9c0.3,0,0.5,0.1,0.8,0.2
			c1.8,0.8,3,2.9,2.5,4.8c-0.4,1.8-2.3,2.7-4.1,2c-1.8-0.8-3-2.9-2.6-4.8C602.4,1389.4,602.8,1388.7,603.5,1388.3z"/>
		<path class="st64" d="M599.7,1352.7c-23.5-9.7-46.1,2.2-50.5,25.8c-0.9,4.6-0.9,9.3-0.3,14c0.3-0.8,0.6-1.7,0.9-2.5
			c3.6-9.4,9.6-16.7,17.1-20.9c-0.9-0.7-1.7-1.7-2.3-2.7c-1.9-3.5-1.1-7.7,1.8-9.2c1.4-0.8,3.2-0.7,4.8-0.1c1.6,0.7,3.1,1.9,4.1,3.8
			c0.8,1.4,1.1,2.9,1,4.4c0,0,0.1-0.1,0.3-0.2c0.6-0.5,1.4-1,2.2-1.4c0.7-0.5,1.6-1,2.5-1.3c6.8-3.3,16.4-5.4,28.6-2
			c0,0-3.1,0.8-6.3,2.6c5.3,1.3,11.1,3.8,17,8c0,0-7.4-1-12.3,0.9c-0.3,0.2-0.6,0.3-0.9,0.5c-0.3,0.2-0.6,0.3-0.9,0.5
			c3,2.4,5.7,5.2,8,8.3c0.5-1.2,1.4-2.3,2.6-2.9c1.5-0.8,3.3-0.7,5,0c1.6,0.7,3.1,1.9,4,3.8c1.8,3.5,0.8,7.6-2.3,9.1
			c-0.9,0.4-2,0.7-3.1,0.5c4.8,10.1,6.8,21.9,5.4,33.4c2.5-3.5,4.3-7.5,5.5-12C637.6,1389.9,623.3,1362.5,599.7,1352.7z"/>
	</g>
</g>
<g>
	<g>
		<path class="st43" d="M1084.7,1586.5h-115l10.7,124.5l0,0c0,6.9,4.6,13.8,13.7,19.1c18.3,10.6,47.9,10.6,66.2,0
			c9.1-5.3,13.7-12.2,13.7-19.1L1084.7,1586.5z"/>
		<path class="st44" d="M1062.2,1595c-19.3,11.2-50.7,11.2-70,0c-19.3-11.2-19.3-29.3,0-40.4c19.3-11.2,50.7-11.2,70,0
			S1081.5,1583.9,1062.2,1595z"/>
		<path class="st45" d="M1088.1,1585L1088.1,1585L1088.1,1585c0-0.1,0-0.2,0-0.3l-1.1-11.1l0,0.1c-0.5-8.4-6.3-16.8-17.5-23.2
			c-23.3-13.5-61.2-13.5-84.5,0c-11.4,6.6-17.3,15.2-17.5,23.9l0,0l-1.1,9.9c0,0.3-0.1,0.5-0.1,0.8l0,0.2l0,0
			c-0.6,9.5,5.3,19,17.8,26.2c23.8,13.7,62.4,13.7,86.2,0C1082.9,1604.1,1088.8,1594.5,1088.1,1585z"/>
		<ellipse class="st46" cx="1028.7" cy="1574.8" rx="53.2" ry="30.7"/>
		<path class="st47" d="M992.2,1559.6c19.3-11.2,50.7-11.2,70,0c8.6,5,13.3,11.3,14.3,17.7c1.2-8.1-3.5-16.5-14.3-22.7
			c-19.3-11.2-50.7-11.2-70,0c-10.8,6.2-15.5,14.6-14.3,22.7C978.8,1570.8,983.6,1564.5,992.2,1559.6z"/>
		<path class="st48" d="M1069.8,1550.7c-23.3-13.7-61.3-14.1-84.8-0.7c-23.5,13.3-23.7,35.2-0.4,49c23.3,13.7,61.3,14.1,84.8,0.7
			C1092.9,1586.4,1093.1,1564.4,1069.8,1550.7z M1057.8,1592.4c-5.6,3.3-12.5,5.4-19.7,6.5l-0.8-2.6c-0.3-1-1.3-1.8-2.4-1.8h-15.5
			c-1.1,0-2,0.7-2.4,1.8l-0.8,2.6c-7.2-1.1-14-3.2-19.7-6.5c-16.9-9.8-16.9-25.6,0-35.3c16.9-9.8,44.3-9.8,61.2,0
			S1074.7,1582.7,1057.8,1592.4z"/>
		<path class="st49" d="M1035.1,1604.8h-12.9c-0.1,0-0.2-0.1-0.2-0.2v-2.4c0-0.1,0.1-0.2,0.2-0.2h12.9c0.1,0,0.2,0.1,0.2,0.2v2.4
			C1035.3,1604.7,1035.2,1604.8,1035.1,1604.8z"/>
	</g>
</g>
</svg>
