<svg id="Isolation_Mode" data-name="Isolation Mode" xmlns="http://www.w3.org/2000/svg" viewBox="0 0 144.36 141.41"><defs><style>.cls-1{fill:#fdbc2b;}.cls-2{fill:#fff;}</style></defs><circle cx="74.86" cy="71.91" r="67.5"/><path d="M74.86,141.41a69.5,69.5,0,1,1,69.5-69.5A69.58,69.58,0,0,1,74.86,141.41Zm0-135a65.5,65.5,0,1,0,65.5,65.5A65.57,65.57,0,0,0,74.86,6.41Z" transform="translate(0 0)"/><circle class="cls-1" cx="68.5" cy="68.5" r="67.5"/><path d="M68.5,137A68.5,68.5,0,1,1,137,68.5,68.58,68.58,0,0,1,68.5,137Zm0-135A66.5,66.5,0,1,0,135,68.5,66.57,66.57,0,0,0,68.5,2Z" transform="translate(0 0)"/><path d="M92.31,22.05H50.69a7.19,7.19,0,0,0-7.19,7.2v84.51A7.18,7.18,0,0,0,50.69,121H92.31a7.2,7.2,0,0,0,7.2-7.19V29.25A7.21,7.21,0,0,0,92.31,22.05ZM61.23,26.42H81.78c.51,0,.94.78.94,1.74s-.43,1.73-.94,1.73H61.23c-.52,0-.94-.78-.94-1.73S60.71,26.42,61.23,26.42ZM71.5,113.84a4.6,4.6,0,1,1,4.59-4.6A4.6,4.6,0,0,1,71.5,113.84ZM94.11,98.1H48.89V34.2H94.11Z" transform="translate(0 0)"/><path d="M92.31,123H50.69a9.2,9.2,0,0,1-9.19-9.19V29.25a9.21,9.21,0,0,1,9.19-9.2H92.31a9.21,9.21,0,0,1,9.19,9.2v84.51A9.2,9.2,0,0,1,92.31,123ZM50.69,24.05a5.2,5.2,0,0,0-5.19,5.2v84.51A5.2,5.2,0,0,0,50.69,119H92.31a5.2,5.2,0,0,0,5.19-5.19V29.25a5.2,5.2,0,0,0-5.19-5.2ZM71.5,115.84a6.6,6.6,0,1,1,6.59-6.6A6.6,6.6,0,0,1,71.5,115.84Zm0-9.19a2.6,2.6,0,1,0,2.59,2.59A2.6,2.6,0,0,0,71.5,106.65Zm24.61-6.55H46.89V32.2H96.11Zm-45.22-4H92.11V36.2H50.89ZM81.78,31.89H61.23c-1.67,0-2.94-1.6-2.94-3.73s1.27-3.74,2.94-3.74H81.78c1.67,0,2.94,1.61,2.94,3.74S83.45,31.89,81.78,31.89Z" transform="translate(0 0)"/><path class="cls-2" d="M88.31,18.05H46.69a7.19,7.19,0,0,0-7.19,7.2v84.51A7.18,7.18,0,0,0,46.69,117H88.31a7.2,7.2,0,0,0,7.2-7.19V25.25A7.21,7.21,0,0,0,88.31,18.05ZM57.23,22.42H77.78c.51,0,.94.78.94,1.74s-.43,1.73-.94,1.73H57.23c-.52,0-.94-.78-.94-1.73S56.71,22.42,57.23,22.42ZM67.5,109.84a4.6,4.6,0,1,1,4.59-4.6A4.6,4.6,0,0,1,67.5,109.84ZM90.11,94.1H44.89V30.2H90.11Z" transform="translate(0 0)"/><path d="M88.31,118H46.69a8.19,8.19,0,0,1-8.19-8.19V25.25a8.2,8.2,0,0,1,8.19-8.2H88.31a8.2,8.2,0,0,1,8.19,8.2v84.51A8.19,8.19,0,0,1,88.31,118ZM46.69,19.05a6.2,6.2,0,0,0-6.19,6.2v84.51A6.2,6.2,0,0,0,46.69,116H88.31a6.2,6.2,0,0,0,6.19-6.19V25.25a6.2,6.2,0,0,0-6.19-6.2ZM67.5,110.84a5.6,5.6,0,1,1,5.59-5.6A5.6,5.6,0,0,1,67.5,110.84Zm0-9.19a3.6,3.6,0,1,0,3.59,3.59A3.59,3.59,0,0,0,67.5,101.65ZM91.11,95.1H43.89V29.2H91.11Zm-45.22-2H89.11V31.2H45.89ZM77.78,26.89H57.23c-1.12,0-1.94-1.15-1.94-2.73s.82-2.74,1.94-2.74H77.78c1.1,0,1.94,1.18,1.94,2.74S78.88,26.89,77.78,26.89Zm-20.34-2H77.57a1.6,1.6,0,0,0,.15-.73,1.65,1.65,0,0,0-.15-.74H57.44a1.65,1.65,0,0,0-.15.74A1.6,1.6,0,0,0,57.44,24.89Z" transform="translate(0 0)"/></svg>