<?xml version="1.0" encoding="utf-8"?>
<!-- Generator: Adobe Illustrator 25.2.0, SVG Export Plug-In . SVG Version: 6.00 Build 0)  -->
<svg version="1.1" id="Layer_1" xmlns="http://www.w3.org/2000/svg" xmlns:xlink="http://www.w3.org/1999/xlink" x="0px" y="0px"
	 viewBox="0 0 870.6 1046" style="enable-background:new 0 0 870.6 1046;" xml:space="preserve">
<style type="text/css">
	.st0{fill:none;}
	.st1{fill:#1F130C;}
	.st2{fill:#B06E29;stroke:#1F130C;stroke-width:4;stroke-linejoin:round;stroke-miterlimit:10;}
	.st3{fill:#F9A421;stroke:#1F130C;stroke-width:4;stroke-linejoin:round;stroke-miterlimit:10;}
	.st4{fill:#E0D080;stroke:#1F130C;stroke-width:4;stroke-linejoin:round;stroke-miterlimit:10;}
	.st5{fill:#D4DDD9;stroke:#1F130C;stroke-width:4;stroke-linejoin:round;stroke-miterlimit:10;}
	.st6{fill:#F8B928;}
	.st7{fill:#EF4923;}
	.st8{fill:#412412;}
	.st9{fill:#FFFFFF;}
	.st10{fill:#FBBB2B;}
	.st11{fill:#B06E29;}
	.st12{fill:#D4DDD9;}
	.st13{fill:#56EDB6;}
	.st14{opacity:0.4;fill:#FFFFFF;enable-background:new    ;}
	.st15{fill:none;stroke:#1F130C;stroke-width:3;stroke-miterlimit:10;}
	.st16{fill:#71B2FF;}
	.st17{clip-path:url(#SVGID_2_);}
	.st18{fill:#BCBCBC;}
	.st19{fill:#BE1E2D;}
</style>
<g>
	<g>
		<path class="st0" d="M305.3,88.3c-1.6-0.2-2.8-0.4-3.5-0.4l-5.1-5.1c-0.2,1.2-0.2,2.2-0.2,3.3v3.3c0,6.9,0.6,12.2,1.8,15.8
			c3,1.6,5.3,2.6,7.1,3.2L305.3,88.3L305.3,88.3z"/>
		<path class="st0" d="M164.5,97c7.1,0,13-3.2,17.1-9.3c3.7-5.3,5.7-11.8,5.7-19.5c0-5.1-1-9.5-3.2-13c-2.8-1.2-5.5-1.8-8.5-1.8
			c-6.7,0-12.6,3.3-18.1,10.2s-8.3,13.6-8.3,20.5c0,3.5,0.6,6.7,1.8,9.3C155.2,95.8,159.6,97,164.5,97z"/>
		<path class="st0" d="M314.9,146.6c3.5,0,8.7-0.8,14.8-2.6c7.7-2,11.4-4.3,11.4-6.5c0-33.7-1-62-3.2-85.1l-21.5,0.8
			c-8.3,0.2-15.2,1.4-20.7,3.2c-1,4.3-1.6,7.5-1.6,9.6c0,5.3,0.8,9.1,2.2,11.2c5.5,0.6,9.8,1,12.6,1.2v35.4c-10-3-16.3-6.1-19.1-9.5
			c-3.3-3.9-4.9-11.4-4.9-22.1c0-12.4,2.6-23.2,7.9-32.3c6.3-10.6,14.8-16.1,25.8-16.1c1.8,0,3.9,0.4,6.5,1.2l6.1,1.8
			c4.9-6.3,7.7-14.4,8.5-24c-8.5-3.9-14.2-5.9-17.5-5.9c-24.8,0-43.1,6.3-54.7,18.7c-11.2,12.2-16.7,30.7-16.7,55.7
			c0,18.7,5.9,34.3,17.9,46.5C281.1,140.3,296.4,146.6,314.9,146.6z"/>
		<path class="st0" d="M116.9,129.2c12.6,11.4,29.5,17.1,50.8,17.1c17.9,0,33.1-6.5,45.5-19.7c12.2-12.8,18.3-28.4,18.3-46.5
			c0-22.8-4.9-40.4-14.8-52.8c-10.8-13.8-27.4-20.7-49.6-20.7c-10.8,0-21.9,3.9-32.9,11.8c-10.2,7.3-18.7,16.1-25.6,26.8
			C101,57,97.2,68.6,97.2,80C97.2,101.1,103.9,117.4,116.9,129.2z M147.8,54.4c6.3-7.7,13.4-11.6,21.1-11.6c7.3,0,13,2.6,17.1,7.5
			c3.7,4.7,5.7,10.6,5.7,18.1c0,8.7-2.4,15.9-6.9,22.4c-5.1,6.9-11.8,10.4-20.1,10.4c-7.7,0-13.8-2.2-18.5-6.3s-7.1-10-7.1-17.5
			C138.9,69.4,141.9,61.7,147.8,54.4z"/>
		<path class="st0" d="M36.3,145.4l7.3,0.2c4.9,0.2,8.7,0.2,11.2,0.2c16.3,0,24.6-2.6,24.6-7.5c0-3-0.4-7.3-1.4-13.2
			c-1-5.9-1.4-10.2-1.4-13.2v-0.2c0,0,0-0.4,0.2-1v-4.5c0-4.5-2.6-6.7-7.5-6.5h-7.1c-4.7,0.2-8.1,0.2-10.4,0.2
			c-7.9,0-11.8-0.8-11.8-2.6c0-11,0.6-25.6,1.8-43.7c1.4-19.5,2-34.1,2-43.7h-6.3c-9.8,0-17.9,0.6-23.8,1.8L4.8,147
			C21.4,145.8,31.8,145.2,36.3,145.4z"/>
		<path class="st0" d="M406.5,105.4c0.2,1.4,0.4,2.4,0.4,2.8c1.4-0.8,2.2-2.4,2.2-4.7c0-0.4-0.2-1-0.6-1.8c-0.4-0.4-0.8-0.6-1-0.8
			c-2.8-1.6-5.3-3.3-7.9-5.3l6.5,6.3L406.5,105.4z"/>
		<path class="st0" d="M376.7,140.9c6.7,3.7,16.9,5.7,30.9,5.7c12.6,0,23-3.7,31.3-11.4s12.2-17.7,12.2-30.3
			c0-12.8-3.7-23-11.4-30.9c-3.7-3.9-10.8-8.7-21.1-14.2c-7.5-4.1-11.4-8.1-11.4-11.8c0-2.6,1-4.7,3.2-6.5s4.3-2.6,6.9-2.6
			c3.2,0,5.3,1.6,7.1,4.5l3.3,8.5c16.3-3.5,27.2-6.1,32.1-7.5c0-10.4-3.9-19.3-11.6-26.6c-7.9-7.1-16.9-10.6-27.6-10.6
			c-14.6,0-26.4,3.7-35.2,11.2c-8.9,7.5-14.4,18.5-16.3,32.7c1.2,9.5,5.5,17.7,13,24.8c2.6,2.4,5.9,5.1,9.8,7.9
			c3.5,2.4,6.9,4.7,10.4,7.1c7.1,4.7,10.6,9.1,10.6,12.8c0,6.5-3.2,9.6-9.5,9.6H402c-0.4,0-0.8,0-1.2-0.2c-2-2.6-3.3-5.3-4.1-7.9
			c-0.2-1-0.8-3.2-1.2-6.5h-17.2c-5.1,0-9.3,0-12.8-0.2c-1,3.3-1.4,8.5-1.4,15.2C364.1,126.9,368.3,135.9,376.7,140.9z"/>
		<path class="st0" d="M425.2,56.6l-2.6-6.7c-2.8,0.6-4.1,2.2-4.3,4.5c0.6,0.4,1.6,1,2.6,1.2c4.1,2.2,7.7,4.3,10.8,6.5l-5.7-5.7
			C425.8,56.6,425.4,56.6,425.2,56.6z"/>
		<path class="st0" d="M776.8,146.6c9.3-0.8,16.9-1.4,22.8-1.8c10.2-0.6,17.9-1.4,23-2.2c-1.8-15-2.8-30.5-3.5-47.1l-2-47.1
			c22.2,0,36,0,41.7-0.4c0.6-4.3,1-11.2,1-20.5c0-8.7-0.4-13.8-1.2-15.2c-2,0-4.3-0.2-7.5-0.4L832,10.3c-13-1-21.9-1.6-26.8-1.6
			c-20.5,0-36,0.8-46.5,2.2c-2.2,13.8-3.9,24.8-5.3,32.9c13.2,1.8,23,3.2,29.7,4.1L776.8,146.6z"/>
		<path class="st0" d="M460.2,44.4l-0.2-0.2v0.4L460.2,44.4z"/>
		<path class="st0" d="M667.3,97c7.1,0,13-3.2,17.1-9.3c3.7-5.3,5.7-11.8,5.7-19.5c0-5.1-1-9.5-3.2-13c-2.8-1.2-5.5-1.8-8.5-1.8
			c-6.7,0-12.6,3.3-18.1,10.2S652,77.2,652,84.1c0,3.5,0.6,6.7,1.8,9.3C657.9,95.8,662.4,97,667.3,97z"/>
		<path class="st0" d="M506.3,141.8l17.5-3.3c0-2.6-0.6-9.5-1.8-20.7c-0.8-7.5-1.2-13.2-1.2-17.1c0-1.4,0-2.6,0.2-3.7
			c13.6-5.1,22.6-8.5,27.4-10.2c24-9.1,35.8-22.8,35.8-41.3c0-12.6-5.3-22.4-16.1-29.5c-9.3-5.9-20.5-8.9-33.9-8.9
			c-17.9,0-34.8,2.6-50.8,7.9c0,11.2-0.8,30.5-2.4,57.7c-1.6,25.8-2.2,44.9-2.2,57.7c0,7.5,1,13,3,16.3
			C495.5,143.8,503.5,142.2,506.3,141.8z M534.8,42.4c1.8,0,3.7,1,5.7,2.8s3.2,3.7,3.2,5.5c0,3.5-3.2,6.7-9.3,8.9
			c-8.1,3.2-12.6,4.7-14,5.1c-0.2-3.5-0.6-7.3-0.8-10.8c-0.4-4.9-1-8.3-1.8-10.4C524.6,42.8,530.3,42.4,534.8,42.4z"/>
		<path class="st0" d="M619.7,129.2c12.6,11.4,29.5,17.1,50.8,17.1c17.9,0,33.1-6.5,45.5-19.7c12.2-12.8,18.3-28.4,18.3-46.5
			c0-22.8-4.9-40.4-14.8-52.8C708.7,13.5,692.1,6.6,670,6.6c-10.8,0-21.9,3.9-32.9,11.8c-10.2,7.3-18.7,16.1-25.6,26.8
			C603.8,57,600,68.6,600,80C599.8,101.1,606.5,117.4,619.7,129.2z M650.4,54.4c6.3-7.7,13.4-11.6,21.1-11.6c7.3,0,13,2.6,17.1,7.5
			c3.7,4.7,5.7,10.6,5.7,18.1c0,8.7-2.4,15.9-6.9,22.4c-5.1,6.9-11.8,10.4-20.1,10.4c-7.7,0-13.8-2.2-18.5-6.3s-7.1-10-7.1-17.5
			C641.6,69.4,644.5,61.7,650.4,54.4z"/>
		<path class="st0" d="M529.7,56.8c4.7-1.8,7.3-3,7.9-3.5c-3.5,0.2-6.3,0.4-8.3,0.6c0.2,0.4,0.2,1,0.2,1.6v1.4L529.7,56.8
			L529.7,56.8z"/>
		<path class="st1" d="M1.1,151.5l6.5,6.7c2,0,5.7-0.4,11-0.8l10.2-0.6c6.7-0.4,11.4-0.6,14.2-0.6l18.5,0.6
			c18.9,0,28.4-3.7,28.4-11.4c0-3-0.4-7.5-1.4-13.2c-1-5.9-1.4-10.2-1.4-13.2v-1c0-0.4,0-1,0.2-1.8V113c0-3.3-0.8-5.7-2.6-7.5
			l-5.1-5.1c-1.8-3.5-5.5-5.3-10.8-5.1l-6.9,0.2c-0.2,0-0.4,0-0.6,0.2h-3.9c-1,0-1.8,0.2-2.2,0.2h-4.7c0.4-8.3,1-19.9,1.8-34.8
			l0.8-14.4c0.2-2.4,0.4-6.9,0.8-13.2l0.2-11.4c0-3.7,0.2-6.7,0.2-8.9l-6.5-6.5V5.9H37.3c-10.6,0-18.9,0.6-24.8,2L9.3,9.1
			l-9.5,142.5h0.4C0.9,151.5,0.9,151.5,1.1,151.5z M13.7,11.9c6.1-1.2,14-1.8,23.8-1.8h6.3c0,9.6-0.6,24.2-2,43.7
			C40.6,71.9,40,86.5,40,97.5c0,1.8,3.9,2.6,11.8,2.6c2.2,0,5.7,0,10.4-0.2h6.9c5.1-0.2,7.5,2,7.5,6.5v4.5c0,0.6-0.2,0.8-0.2,1v0.2
			c0,3,0.4,7.3,1.4,13.2c0.8,5.9,1.4,10.2,1.4,13.2c0,4.9-8.3,7.5-24.6,7.5c-2.6,0-6.3,0-11.2-0.2l-7.3-0.2
			c-4.3-0.2-15,0.4-31.5,1.8L13.7,11.9z"/>
		<path class="st1" d="M114.3,132.2c1,0.8,2,1.6,2.8,2.4l1.8,1.8c14,14,32.5,20.9,55.7,20.9c19.1,0,35-6.9,48.2-20.9
			c12.8-13.6,19.3-29.9,19.3-49c0-27-6.7-47.1-19.9-60.2l-2.4-2.4C208.2,10,190.5,2.7,167,2.7c-11.6,0-23.4,4.3-35.4,12.8
			c-10.8,7.7-19.9,16.9-26.8,28.2C96.9,55.9,93,68.1,93,80.3C93,102.3,100.1,119.6,114.3,132.2z M108.8,45.4
			c6.9-10.4,15.4-19.5,25.6-26.8c11-7.9,22.1-11.8,32.9-11.8c22.2,0,38.8,6.9,49.6,20.7c9.8,12.4,14.8,29.9,14.8,52.8
			c0,18.1-6.1,33.5-18.3,46.5c-12.4,13.2-27.6,19.7-45.5,19.7c-21.1,0-38-5.7-50.8-17.1c-13.2-12-19.7-28.4-19.7-49.2
			C97.2,68.8,101.1,57.2,108.8,45.4z"/>
		<path class="st1" d="M146,95c4.7,4.1,11,6.3,18.5,6.3c8.3,0,15-3.5,20.1-10.4c4.7-6.3,6.9-13.8,6.9-22.4c0-7.3-2-13.4-5.7-18.1
			c-4.1-5.1-9.8-7.5-17.1-7.5c-7.7,0-14.8,3.9-21.1,11.6c-5.9,7.3-8.9,15-8.9,22.8C138.9,84.9,141.3,90.7,146,95z M157.8,63.9
			c5.5-6.9,11.4-10.2,18.1-10.2c3,0,5.9,0.6,8.5,1.8c2,3.5,3.2,7.9,3.2,13c0,7.5-2,14-5.7,19.5c-4.3,6.1-10,9.3-17.1,9.3
			c-4.9,0-9.3-1.2-13.2-3.5c-1.2-2.6-1.8-5.5-1.8-9.3C149.7,77.5,152.3,70.8,157.8,63.9z"/>
		<path class="st1" d="M272,135.9l2.4,2.4c12.6,12.6,28.5,19.1,47.6,19.1c4.1,0,9.5-1,15.8-2.6c9.5-2.6,14.2-6.1,14.2-10.2
			c0-33.9-1-62.4-3.2-85.3l-6.5-6.5V52l-4.1-3.7l-21.5,0.8c-1.4,0-3,0.2-4.9,0.4c4.1-3.2,8.9-4.7,14.4-4.7c1.2,0,2.8,0.4,5.1,1
			c4.7,1.4,7.7,2,9.3,2c6.1-8.1,9.6-18.1,10.8-30.1l-6.7-6.5c0-0.2,0-0.4,0.2-0.4v-0.2c-10.8-5.1-18.1-7.5-21.9-7.5
			c-26,0-45.3,6.7-57.7,20.1c-12,13-18.1,32.5-18.1,58.7c0,19.9,7.3,37.2,22.1,52C270,134.4,271,135.1,272,135.9z M268.1,25.7
			C279.7,13.3,298,7,322.8,7c3.3,0,9.1,2,17.5,5.9c-0.8,9.6-3.7,17.7-8.5,24l-6.1-1.8c-2.6-0.8-4.7-1.2-6.5-1.2
			c-10.8,0-19.5,5.3-25.8,16.1c-5.3,9.1-7.9,19.9-7.9,32.3c0,10.6,1.6,18.1,4.9,22.1c2.8,3.3,9.1,6.3,19.1,9.5V78.5
			c-2.8-0.2-6.9-0.6-12.6-1.2c-1.6-2.2-2.2-5.9-2.2-11.2c0-2.2,0.6-5.3,1.6-9.6c5.5-1.8,12.4-2.8,20.7-3.2l21.5-0.8
			c2,22.8,3.2,51.2,3.2,85.1c0,2.4-3.7,4.5-11.4,6.5c-6.3,1.8-11.2,2.6-14.8,2.6c-18.7,0-33.9-6.1-45.9-18.5
			c-12-12.2-17.9-27.8-17.9-46.5C251.3,56.4,256.8,37.9,268.1,25.7z M296.2,89.3V86c0-1.2,0-2.2,0.2-3.3l5.1,5.1
			c0.8,0,2,0.2,3.5,0.4v19.9c-1.8-0.6-4.1-1.6-7.1-3.2C296.8,101.5,296.2,96.2,296.2,89.3z"/>
		<path class="st1" d="M457.3,21.7L457.3,21.7L457.3,21.7C457.1,21.7,457.1,21.7,457.3,21.7L457.3,21.7z"/>
		<path class="st1" d="M372.4,143.2l3.5,3.5c7.1,7.1,19.9,10.4,38.4,10.4c13.6,0,24.8-4.3,33.9-12.8l-0.2-0.2
			c9.1-8.5,13.8-19.3,13.8-32.7c0-13.8-4.1-25-12.4-33.5l-0.6-0.4h0.2l-2.8-2.8c-0.2-0.2-1.4-1.6-3.5-4.1c-3-2.8-6.3-5.3-10-7.9
			c5.3-0.8,14.2-2.8,26.8-6.1l12.6-3.9c-0.2-5.3-1.4-10.8-3.9-16.3c-2.6-5.5-5.5-10-9.3-13.6l-1.6-1.4h-0.2l-0.2-0.2l0,0l-0.4-0.4
			c-8.9-12.4-20.9-18.5-36-18.5c-15.8,0-28.5,4.1-38.2,12.2c-9.6,8.3-15.6,20.1-17.5,35.8c1.4,11.6,6.3,21.3,15.2,28.9
			c0.2,0.2,0.6,0.6,1.4,1.2l3.5,3.3c0,0.2,0.4,0.6,0.8,0.8l0.6,0.6c1,1,4.9,3.9,11.4,8.7h-18.5h-3c-3.2,0-4.5-0.2-4.1-0.2h-6.5
			l-4.1,3.2c-1,3.5-1.6,8.9-1.6,16.1C359.8,127.7,364.1,137.5,372.4,143.2z M365.5,98.3c3.5,0,7.9,0.2,12.8,0.2h17.3
			c0.6,3.3,1,5.5,1.2,6.5c0.8,2.8,2.2,5.3,4.1,7.9c0.4,0,0.8,0.2,1.2,0.2h1.4c6.3,0,9.5-3.2,9.5-9.6c0-3.7-3.5-7.9-10.6-12.8
			c-3.5-2.4-7.1-4.7-10.4-7.1c-3.9-2.8-7.3-5.3-9.8-7.9c-7.5-7.1-11.8-15.4-13-24.8c2-14.4,7.5-25.2,16.3-32.7
			C394.4,10.7,406.2,7,420.7,7c10.6,0,19.9,3.5,27.6,10.6c7.9,7.1,11.6,15.9,11.6,26.6c0,0,0.2,0,0.2,0.2v0.2v-0.4
			c-5.1,1.6-15.8,3.9-32.1,7.5l-3.3-8.5c-1.6-3.2-3.9-4.5-7.1-4.5c-2.6,0-4.7,1-6.9,2.6c-2.2,1.8-3.2,3.9-3.2,6.5
			c0,3.7,3.7,7.7,11.4,11.8c10.2,5.5,17.3,10.4,21.1,14.2c7.5,7.9,11.4,18.1,11.4,30.9c0,12.6-4.1,22.6-12.2,30.3
			c-8.3,7.7-18.7,11.4-31.3,11.4c-14,0-24.2-2-30.9-5.7c-8.5-4.9-12.6-14-12.6-27.2C364.1,106.8,364.5,101.9,365.5,98.3z
			 M399.4,95.6c2.6,2,5.3,3.7,7.9,5.3c0.2,0.2,0.6,0.4,1,0.8c0.4,0.8,0.6,1.4,0.6,1.8c0,2.4-0.8,3.9-2.2,4.7c0-0.4-0.2-1.4-0.4-2.8
			l-0.6-3.5L399.4,95.6z M431.7,62.3c-3.2-2-6.9-4.1-10.8-6.5c-1-0.4-1.8-0.8-2.6-1.2c0.2-2.4,1.6-3.9,4.3-4.5l2.6,6.7
			c0.2,0,0.6,0,0.8-0.2L431.7,62.3z"/>
		<path class="st1" d="M457.7,22.1c0,0-0.2-0.2-0.4-0.4l0.2,0.2L457.7,22.1z"/>
		<path class="st1" d="M480.7,151.1l6.5,6.5c0.2,0,4.7-1,13.8-2.6l33.7-6.5c0-5.3-0.6-13.4-1.8-24.4c-0.8-7.3-1.2-13-1.2-16.7v-1
			c4.9-1.8,11.2-4.3,19.3-7.3c1-0.2,3-1,5.7-2c11.2-4.1,20.1-9.6,26.8-16.5c7.9-8.3,11.8-17.7,11.8-28.4c0-10.8-3.5-19.9-10.6-27
			l-0.6-0.4l-2.2-2c-9.5-13.6-25.4-20.3-47.4-20.3c-18.9,0-37.2,3-54.9,9.1c0,5.9-0.2,14.4-0.8,25.4L478,53.5
			c-0.2,3.3-0.6,9.5-1,18.5c-1.6,26.2-2.2,45.5-2.2,57.9c0,8.7,1.6,15.8,4.9,21.1C480.1,151.1,480.3,151.1,480.7,151.1z M481.5,72.5
			c1.6-27.4,2.4-46.5,2.4-57.7c15.9-5.3,32.9-7.9,50.8-7.9c13.4,0,24.6,3,33.9,8.9c10.8,6.9,16.1,16.7,16.1,29.5
			c0,18.5-12,32.3-35.8,41.3c-4.7,1.8-14,5.1-27.4,10.2c0,1.2-0.2,2.4-0.2,3.7c0,3.9,0.4,9.6,1.2,17.1c1.2,11.2,1.8,18.1,1.8,20.7
			l-17.5,3.3c-2.8,0.6-10.8,2.2-24.2,4.7c-2-3.3-3-8.9-3-16.3C479.3,117.4,479.9,98.3,481.5,72.5z"/>
		<path class="st1" d="M520.3,64.7c1.2-0.4,5.9-2.2,14-5.1c6.3-2.4,9.3-5.3,9.3-8.9c0-1.8-1-3.5-3.2-5.5c-2-1.8-3.9-2.8-5.7-2.8
			c-4.5,0-10.2,0.4-17.1,1.2c0.8,2,1.4,5.5,1.8,10.4C519.9,57.4,520.1,61.1,520.3,64.7z M537.6,53.2c-0.6,0.4-3.3,1.6-7.9,3.5v-1.4
			c0-0.6,0-1-0.2-1.6C531.3,53.8,534.1,53.6,537.6,53.2z"/>
		<path class="st1" d="M616.9,132.2c1,0.8,2,1.6,2.8,2.4l1.8,1.8c14,14,32.5,20.9,55.7,20.9c19.1,0,35-6.9,48.2-20.9
			c12.8-13.6,19.3-29.9,19.3-49c0-27-6.7-47.1-19.9-60.2l-2.4-2.4C710.8,10,693.1,2.7,669.6,2.7c-11.6,0-23.4,4.3-35.4,12.8
			c-10.8,7.7-19.9,16.9-26.8,28.2c-7.9,12.2-11.8,24.4-11.8,36.6C595.7,102.3,602.8,119.6,616.9,132.2z M611.4,45.4
			c6.9-10.4,15.4-19.5,25.6-26.8c11-7.9,22.1-11.8,32.9-11.8c22.2,0,38.8,6.9,49.6,20.7c9.8,12.4,14.8,29.9,14.8,52.8
			c0,18.1-6.1,33.5-18.3,46.5c-12.4,13.2-27.6,19.7-45.5,19.7c-21.1,0-38-5.7-50.8-17.1c-13.2-12-19.7-28.4-19.7-49.2
			C599.8,68.8,603.8,57.2,611.4,45.4z"/>
		<path class="st1" d="M648.6,95c4.7,4.1,11,6.3,18.5,6.3c8.3,0,15-3.5,20.1-10.4c4.7-6.3,6.9-13.8,6.9-22.4c0-7.3-2-13.4-5.7-18.1
			c-4.1-5.1-9.8-7.5-17.1-7.5c-7.7,0-14.8,3.9-21.1,11.6c-5.9,7.3-8.9,15-8.9,22.8C641.6,84.9,643.9,90.7,648.6,95z M660.5,63.9
			c5.5-6.9,11.4-10.2,18.1-10.2c3,0,5.9,0.6,8.5,1.8c2,3.5,3.2,7.9,3.2,13c0,7.5-2,14-5.7,19.5c-4.3,6.1-10,9.3-17.1,9.3
			c-4.9,0-9.3-1.2-13.2-3.5c-1.2-2.6-1.8-5.5-1.8-9.3C652.4,77.5,655.1,70.8,660.5,63.9z"/>
		<path class="st1" d="M756.5,54.2l12,1.6c0.6,0,3.9,0.6,10.2,1.6l-6.3,93.9h0.2c0.2,0,0.4-0.2,0.4-0.2l6.7,6.7l10.6-1
			c6.7-0.6,17.3-1.6,31.7-2.6c4.5-0.4,8.5-0.8,11.8-1.2c0,0-0.4-3.7-1-10.8l-1.2-12.4c-0.8-9.5-1.4-18.5-1.8-27.2L828,59.5h11.2
			c1.4,0,4.5,0,9.8-0.2l15.8-0.2c1,0,2.6,0,4.5-0.2c1-7.1,1.4-15.2,1.4-24.2c0-9.3-1-15.6-3-18.9l-6.1-5.9c0-0.6-0.4-1-0.8-1.6
			c-5.5-0.2-15-0.8-27.8-2c-12-1-21.3-1.6-27.8-1.6c-21.9,0-38.6,1-50.2,2.6c-0.8,4.7-1.4,8.5-1.8,11.4l-3.5,21.5
			c0,0.2-0.4,2.8-1.2,7.5c0.2,0,0.8,0,1.2,0.2L756.5,54.2z M759.3,11.1c10.4-1.6,26-2.2,46.5-2.2c4.9,0,13.8,0.6,26.8,1.6l19.1,1.6
			c3,0.2,5.5,0.4,7.5,0.4c0.8,1.4,1.2,6.5,1.2,15.2c0,9.5-0.4,16.3-1,20.5c-5.7,0.4-19.7,0.6-41.7,0.4l2,47.1
			c0.6,16.3,1.8,32.1,3.5,47.1c-5.1,0.8-12.8,1.4-23,2.2c-6.1,0.4-13.8,1-22.8,1.8l6.7-98.4c-6.7-1-16.5-2.4-29.7-4.1
			C755.4,35.9,757.1,25.1,759.3,11.1z"/>
	</g>
	<g>
		<g>
			<g>
				<path class="st2" d="M531.9,155.9L531.9,155.9c-6.8,0-15.1,6.5-20.7,15.2c-6.1,9.5-7.5,22.7-6.4,24.3c4.1,6.3,27,5.7,27,5.7l0,0
					c0,0,23,0.5,27-5.7c1.1-1.5-0.3-14.7-6.4-24.3C547,162.1,538.7,155.9,531.9,155.9z"/>
				<path class="st3" d="M519.8,161.2c0,0,5.2,23,0,27.4c-2.7,2.4-14.5-2.2-14.5-2.2c-0.3,1.2-0.4,2.4-0.5,3.5c0,0,14.3,5,17.8,1.9
					c6.5-5.6,1-33.4,1-33.4C522.2,159.3,521,160.1,519.8,161.2z"/>
				<path class="st3" d="M544,188.6c-5.2-4.5,0-27.4,0-27.4c-1.2-1-2.4-1.9-3.7-2.7c0,0-5.6,27.9,1,33.4c3.5,3.1,17.8-1.9,17.8-1.9
					c-0.1-1.1-0.3-2.3-0.5-3.5C558.4,186.6,546.7,191.1,544,188.6z"/>
				<path class="st4" d="M531.1,165.5c-1.2,0-2.3,1-2.3,2.3c0,1.2,1,2.3,2.3,2.3c1.2,0,2.3-1,2.3-2.3
					C533.2,166.7,532.3,165.5,531.1,165.5z"/>
				<path class="st3" d="M531.7,174.8c-1.2,0-2.3,1-2.3,2.3c0,1.2,1,2.3,2.3,2.3c1.2,0,2.3-1,2.3-2.3S533,174.8,531.7,174.8z"/>
				<path class="st3" d="M531.6,183.9c-1.2,0-2.3,1-2.3,2.3c0,1.2,1,2.3,2.3,2.3c1.2,0,2.3-1,2.3-2.3
					C533.9,185,532.8,183.9,531.6,183.9z"/>
				<path class="st3" d="M559,191.2c0,0.4-0.1,0.7-0.3,0.8c-4.1,6.3-27,5.7-27,5.7l0,0c0,0-23,0.5-27-5.7c-0.1-0.1-0.1-0.4-0.3-0.8
					c-1.2,0.1-1.6,2.4-0.8,3.9c3.8,6.4,28,5.8,28,5.8l0,0c0,0,24.3,0.5,28-5.8C560.8,193.7,560.3,191.3,559,191.2z"/>
				<path class="st5" d="M531.9,140.4L531.9,140.4c-1.2,0-5.6,16.6-5.6,16.6h5.6l0,0h5.6C537.4,157.1,533.1,140.4,531.9,140.4z"/>
				<path class="st5" d="M500.6,160.8c-6.4-6.1-6.5-21.6-6.3-24.1c0.3-2.4,2.7-7.7,0.7-8.6c-2-0.7-10.5,11.3-7.5,30.3
					s17.9,26.8,17.9,26.8s3.1-1.9,6.5-8.3c3.3-6.3,2.6-10.5,2.6-10.5S507,166.9,500.6,160.8z"/>
				<path class="st5" d="M568.7,128.2c-2,0.7,0.4,6.1,0.7,8.6c0.3,2.4,0.1,17.9-6.3,24.1c-6.4,6.1-14,5.7-14,5.7s-0.8,4.2,2.6,10.5
					c3.4,6.4,6.5,8.3,6.5,8.3s14.9-7.7,17.9-26.8C579.2,139.4,570.6,127.5,568.7,128.2z"/>
				<path class="st3" d="M537.4,155.9H526c-0.7,0-1.1,0.5-1.1,1.1c0,0.5,0.5,1.1,1.1,1.1h11.4c0.7,0,1.1-0.5,1.1-1.1
					S538,155.9,537.4,155.9z"/>
			</g>
			
				<ellipse transform="matrix(0.7071 -0.7071 0.7071 0.7071 -4.9702 442.7475)" class="st1" cx="532" cy="227.4" rx="61.3" ry="61.3"/>
			<path class="st6" d="M534.5,243C534.5,243,534.6,243,534.5,243C534.6,243,534.5,243,534.5,243L534.5,243z"/>
			<path class="st7" d="M494.1,206.2c-1.4-0.4-2.7-1.1-3.8-2.2c-3.4-3.4-3.4-9,0-12.5c1.8-1.8,3.9-2.6,6.3-2.6s4.5,0.8,6.3,2.6
				c1.4,1.4,2.2,3.1,2.4,5c0,0,0.1-0.1,0.4-0.4c0.8-1,1.6-1.9,2.4-2.9c1-1,1.9-1.9,2.9-2.9c7.7-7.5,19.3-14.8,35.6-16.8
				c0,0-3.7,2.6-7.2,6.4c7.1-1.1,14.9-1,23.6,1.2c0,0-9.5,2.4-15.1,7.3c-0.4,0.3-0.7,0.7-1.1,1c-0.3,0.4-0.7,0.7-1,1.1
				c4.3,1.4,8.6,3.4,12.5,6c0.3-1.8,1.1-3.5,2.4-5c1.8-1.8,3.9-2.6,6.3-2.6s4.5,0.8,6.3,2.6c3.4,3.4,3.4,9,0,12.5
				c-1.1,1.1-2.4,1.8-3.8,2.2c9.1,10.2,15.5,24.2,17.5,39.9c1.9-5.8,3-12.1,3-18.5c0-32.2-26.1-58.3-58.3-58.3s-58.3,26.1-58.3,58.3
				c0,6.5,1.1,12.6,3,18.5c0.1-1.2,0.4-2.4,0.5-3.7C479.6,228,485.7,215.5,494.1,206.2z"/>
			<path class="st6" d="M529.2,243C529.2,243,529.3,243,529.2,243l0.1-0.2C529.3,243,529.2,243,529.2,243z"/>
			<path class="st6" d="M512.3,209.7L512.3,209.7c0.7,0.3,1.4,1,1.4,1.9l0,0C513.7,210.6,513.1,210,512.3,209.7z"/>
			<path class="st6" d="M509.6,211.6c0-0.1,0-0.3,0-0.4l0,0C509.6,211.3,509.6,211.5,509.6,211.6L509.6,211.6z"/>
			<path class="st8" d="M496.5,263.2c-0.8-1.4-3-0.1-3-0.1s0.4,0.8,1,2.3c0.5,1.5,1.4,3.7,2,6.3c0.3,0.8,0.5,1.8,0.7,2.7
				c0.7,0.5,1.5,1.1,2.3,1.6c-0.5-1.8-1.2-3.4-1.8-4.8C496.7,268.7,497.4,264.7,496.5,263.2z"/>
			<path class="st8" d="M569,265.1c0.5-1.5,1-2.3,1-2.3s-0.5,0.8-1.2,2.2c-0.8,1.4-1.8,3.4-2.9,6c-0.5,1.5-1.2,3-1.8,4.8
				c0.8-0.5,1.5-1.1,2.3-1.6c0.3-1,0.5-1.9,0.7-2.7C567.6,268.7,568.3,266.6,569,265.1z"/>
			<path class="st6" d="M513.3,218.9c2.6,0,4.6-2,4.6-4.6l0,0C517.9,216.8,515.7,218.8,513.3,218.9c-2.6-0.1-4.6-2.2-4.6-4.8l0,0
				C508.5,216.8,510.7,218.9,513.3,218.9z"/>
			<path class="st9" d="M517.5,247.5L517.5,247.5c0.3,0,0.5,0,0.8,0C518,247.5,517.9,247.5,517.5,247.5
				C517.6,247.5,517.5,247.5,517.5,247.5z"/>
			<path class="st9" d="M517.9,250.5c0.3,1.9,0.8,3.8,1.4,5.4c0.5,1.4,1.6,2.2,2.9,2.2h4.8c1.8,0,3.1-1.6,3.1-3.5V246
				c-0.8,0.7-1.6,1.2-2.6,1.8C524.5,249.4,521.3,250.3,517.9,250.5z"/>
			<path class="st9" d="M533.8,246v8.6c0,2,1.4,3.5,3.1,3.5h4.8c1.2,0,2.4-0.8,2.9-2.2c0.7-1.8,1.1-3.5,1.4-5.4
				c-3.4-0.1-6.7-1.1-9.5-2.6C535.4,247.1,534.6,246.6,533.8,246z"/>
			<path class="st9" d="M546.3,221.9c0.8,0.5,1.8,1.1,2.7,1.4c0.5,0.1,1.1,0.1,1.6,0.1c5.2,0,9.4-4.2,9.4-9.4s-4.2-9.4-9.4-9.4
				c-5.2,0-9.4,4.3-9.4,9.5c0,2.3,0.8,4.3,2.2,6C544.2,220.6,545.2,221.2,546.3,221.9z M547,211c0,0.1,0,0.3,0,0.4c0,1.1,1,2,2,2
				s2-1,2-2s-0.7-1.8-1.5-2c0.3-0.1,0.7-0.1,1.1-0.1c2.6,0,4.6,2,4.6,4.6s-2,4.6-4.6,4.6s-4.6-2-4.6-4.6
				C545.9,213.1,546.3,212,547,211z"/>
			<path class="st9" d="M513.3,223.5c0.5,0,1.1,0,1.6-0.1c1-0.4,1.9-0.8,2.7-1.4c1-0.7,1.9-1.4,2.9-1.8c1.4-1.6,2.2-3.7,2.2-6
				c0-5.2-4.2-9.4-9.4-9.4s-9.4,4.2-9.4,9.4C503.9,219.2,508.1,223.5,513.3,223.5z M508.5,214.2c0-1.1,0.4-2.2,1.1-3v0.1l0,0
				c0,0.1,0,0.3,0,0.4c0,1.1,1,2,2,2s2-1,2-2s-0.7-1.8-1.5-1.9h0.1c0,0-0.1,0-0.1-0.1c0.3-0.1,0.7-0.1,1.1-0.1c2.6,0,4.6,2,4.6,4.6
				l0,0l0,0c0,2.6-2,4.6-4.6,4.6C510.7,218.9,508.5,216.8,508.5,214.2L508.5,214.2L508.5,214.2z"/>
			<path class="st10" d="M544.4,225.3c-0.1-0.1-0.3-0.1-0.3-0.3c-0.7-0.4-1.2-0.8-1.8-1.2c-0.1-0.1-0.3-0.1-0.4-0.3
				c-0.5-0.4-1.2-0.7-2.2-1.1c-1.6-0.7-3.8-1.1-6.1-1.2c-0.5,0-1.2,0-1.8,0c-0.5,0-1.2,0-1.8,0c-2.3,0.1-4.5,0.5-6.1,1.2
				c-0.8,0.3-1.5,0.7-2.2,1.1c-0.1,0.1-0.3,0.1-0.4,0.3c-0.5,0.4-1.2,0.7-1.8,1.2c-0.1,0.1-0.3,0.1-0.3,0.3
				c-7.1,4.8-17.7,0.5-17.7,8.2s7.1,14,15.8,14l0,0c0.3,0,0.5,0,0.7,0c3.5-0.1,8.7-3.1,10.9-4.3l0.1-0.1l0,0
				c0.4-0.3,0.7-0.4,0.8-0.5c0.5-0.4,1.2-0.8,1.9-0.8c0.7,0,1.2,0.4,1.9,0.8c0.1,0,0.4,0.3,0.8,0.5V243l0.1,0.1
				c2.2,1.4,7.3,4.2,10.9,4.3c0.3,0,0.5,0,0.7,0l0,0c8.7,0,15.8-6.3,15.8-14C562,225.9,551.4,230.1,544.4,225.3z M540.6,233.5
				c-1.8,2.9-5,4.9-8.7,4.9s-6.9-1.9-8.7-4.9c-1-1.6-1.5-3.4-1.5-5.4c0-2.6,4.5-4.1,9.2-4.2c0.4,0,0.7,0,1.1,0s0.7,0,1.1,0
				c4.8,0.1,9.2,1.6,9.2,4.2C542.2,230.1,541.5,231.8,540.6,233.5z"/>
			<path class="st9" d="M545.5,247.5c0.3,0,0.5,0,0.8,0l0,0l0,0C546,247.5,545.7,247.5,545.5,247.5z"/>
			<path class="st1" d="M513.3,218.8c2.6,0,4.6-2,4.6-4.6s-2-4.6-4.6-4.6c-0.3,0-0.5,0-1,0.1c0.8,0.3,1.4,1.1,1.4,1.9l0,0l0,0
				c0,1.1-1,2-2,2s-2-1-2-2l0,0l0,0c0-0.1,0-0.3,0-0.4c-0.7,0.8-1.1,1.8-1.1,3C508.5,216.8,510.7,218.8,513.3,218.8z"/>
			<path class="st8" d="M509.6,211c-0.7,0.8-1.1,1.9-1.1,3l0,0C508.5,213.1,508.9,212,509.6,211L509.6,211z"/>
			<path class="st8" d="M511.6,213.8c1.1,0,2-1,2-2l0,0C513.7,212.7,512.7,213.6,511.6,213.8c-1.1-0.1-2-1-2-2.2l0,0
				C509.6,212.8,510.5,213.8,511.6,213.8z"/>
			<path class="st8" d="M517.9,214.2L517.9,214.2c0-2.6-2-4.8-4.6-4.8c-0.4,0-0.7,0-1.1,0.1c0,0,0.1,0,0.1,0.1c0.3,0,0.5-0.1,1-0.1
				C515.7,209.6,517.9,211.6,517.9,214.2z"/>
			<path class="st1" d="M550.6,218.9c2.6,0,4.6-2,4.6-4.6s-2-4.6-4.6-4.6c-0.4,0-0.7,0-1.1,0.1c1,0.3,1.5,1.1,1.5,2c0,1.1-1,2-2,2
				s-2-1-2-2c0-0.1,0-0.3,0-0.4c-0.7,0.8-1.1,1.9-1.1,3C545.9,216.8,548,218.9,550.6,218.9z"/>
			<path class="st8" d="M587.2,246c-2-15.8-8.3-29.6-17.5-39.9c1.4-0.4,2.7-1.1,3.8-2.2c3.4-3.4,3.4-9,0-12.5
				c-1.8-1.8-3.9-2.6-6.3-2.6s-4.5,0.8-6.3,2.6c-1.4,1.4-2.2,3.1-2.4,5c-3.9-2.6-8.2-4.6-12.5-6c0.3-0.4,0.5-0.7,1-1.1
				c0.3-0.4,0.7-0.7,1.1-1c5.6-4.9,15.1-7.3,15.1-7.3c-8.7-2-16.6-2.2-23.6-1.2c3.5-3.7,7.2-6.4,7.2-6.4
				c-16.3,1.9-27.9,9.4-35.6,16.8c-1,1-1.9,1.9-2.9,2.9s-1.8,1.9-2.4,2.9c-0.3,0.3-0.4,0.4-0.4,0.4c-0.3-1.8-1.1-3.5-2.4-5
				c-1.8-1.8-3.9-2.6-6.3-2.6s-4.5,0.8-6.3,2.6c-3.4,3.4-3.4,9,0,12.5c1.1,1.1,2.4,1.8,3.8,2.2c-8.4,9.4-14.5,22-17,36.1
				c-0.3,1.2-0.4,2.4-0.5,3.7c3.8,11.4,11.1,21.3,20.7,28.4c-0.3-1-0.5-1.9-0.7-2.7c-0.8-2.6-1.5-4.8-2-6.3s-1-2.3-1-2.3
				s0.5,0.8,1.2,2.2c0.8,1.4,1.8,3.4,2.9,6c0.5,1.5,1.2,3,1.8,4.8c4.8,3.1,9.9,5.7,15.5,7.3c2.9-6.9,9.2-12.6,16.8-12.6
				c7.6,0,14,5.7,16.8,12.6c5.6-1.6,10.7-4.2,15.5-7.3c0.5-1.8,1.2-3.4,1.8-4.8c1.1-2.6,2.2-4.5,2.9-6c0.8-1.4,1.2-2.2,1.2-2.2
				s-0.4,0.8-1,2.3c-0.5,1.5-1.4,3.7-2,6.3c-0.3,0.8-0.5,1.8-0.7,2.7C576,267.3,583.4,257.5,587.2,246z M550.6,204.9
				c5.2,0,9.4,4.2,9.4,9.4s-4.2,9.4-9.4,9.4c-0.5,0-1.1,0-1.6-0.1c-1-0.4-1.9-0.8-2.7-1.4c-1-0.7-1.9-1.4-2.9-1.8
				c-1.4-1.6-2.2-3.7-2.2-6C541.2,209,545.5,204.9,550.6,204.9z M513.3,204.9c5.2,0,9.4,4.2,9.4,9.4c0,2.3-0.8,4.3-2.2,6
				c-1,0.5-1.9,1.1-2.9,1.8c-0.8,0.5-1.8,1.1-2.7,1.4c-0.5,0.1-1.1,0.1-1.6,0.1c-5.2,0-9.4-4.2-9.4-9.4
				C503.9,209,508.1,204.9,513.3,204.9z M496.5,201.8c-2.3,0-4.1-1.9-4.1-4.1c0-2.3,1.9-4.1,4.1-4.1c2.3,0,4.1,1.9,4.1,4.1
				S498.8,201.8,496.5,201.8z M530.1,254.5c0,2-1.4,3.5-3.1,3.5h-4.8c-1.2,0-2.4-0.8-2.9-2.2c-0.7-1.8-1.1-3.5-1.4-5.4
				c3.4-0.1,6.7-1.1,9.5-2.6c1-0.5,1.8-1.1,2.6-1.8L530.1,254.5L530.1,254.5z M544.5,255.9c-0.5,1.4-1.6,2.2-2.9,2.2h-4.8
				c-1.8,0-3.1-1.6-3.1-3.5V246c0.8,0.7,1.6,1.2,2.6,1.8c2.9,1.6,6.1,2.6,9.5,2.6C545.6,252.4,545.2,254.3,544.5,255.9z
				 M546.3,247.5L546.3,247.5c-0.3,0-0.5,0-0.8,0c-4.2-0.1-8-1.8-10.9-4.3c0,0-0.1,0-0.1-0.1l0.1,0.1c0,0-0.4-0.3-0.8-0.7
				c-0.5-0.4-1.2-0.8-1.9-0.8c-0.7,0-1.2,0.4-1.9,0.8c-0.5,0.4-0.8,0.7-0.8,0.7l0.1-0.1c0,0-0.1,0-0.1,0.1
				c-2.7,2.6-6.5,4.2-10.9,4.3c-0.3,0-0.5,0-0.8,0l0,0c-8.7,0-15.8-6.3-15.8-14c0-7.6,10.6-3.4,17.7-8.2c0.1-0.1,0.3-0.1,0.3-0.3
				c0.7-0.4,1.2-0.8,1.8-1.2c0.1-0.1,0.3-0.1,0.4-0.3c0.5-0.4,1.2-0.7,2.2-1.1c1.6-0.7,3.8-1.1,6.1-1.2c0.5,0,1.2,0,1.8,0
				c0.5,0,1.2,0,1.8,0c2.3,0.1,4.5,0.5,6.1,1.2c0.8,0.3,1.5,0.7,2.2,1.1c0.1,0.1,0.3,0.1,0.4,0.3c0.5,0.4,1.2,0.7,1.8,1.2
				c0.1,0.1,0.3,0.1,0.3,0.3c7.1,4.8,17.7,0.5,17.7,8.2C562,241.2,555,247.5,546.3,247.5z M567.2,201.8c-2.3,0-4.1-1.9-4.1-4.1
				c0-2.3,1.9-4.1,4.1-4.1c2.3,0,4.1,1.9,4.1,4.1S569.5,201.8,567.2,201.8z M571.5,261.7c-0.1-0.4-5.8,2.6-5.3,12.1"/>
			<path class="st8" d="M545.5,247.5c-3.5-0.1-8.7-3.1-10.9-4.3C537.4,245.6,541.2,247.1,545.5,247.5z"/>
			<path class="st8" d="M529.2,243c0,0,0.4-0.3,0.8-0.7c-0.1,0-0.4,0.3-0.8,0.5V243z"/>
			<path class="st8" d="M534.6,243L534.6,243c-0.5-0.4-0.8-0.5-0.9-0.6C534.2,242.8,534.6,243,534.6,243z"/>
			<path class="st8" d="M529.2,243c-2.2,1.4-7.3,4.2-10.9,4.3C522.5,247.1,526.4,245.6,529.2,243z"/>
			<path class="st1" d="M533,223.8c-0.4,0-0.7,0-1.1,0s-0.7,0-1.1,0c-4.8,0.1-9.2,1.6-9.2,4.2c0,2,0.5,3.8,1.5,5.4
				c1.8,2.9,5,4.9,8.7,4.9s6.9-1.9,8.7-4.9c1-1.6,1.5-3.4,1.5-5.4C542.2,225.3,537.7,224,533,223.8z"/>
			<path class="st10" d="M548.7,283.3c-2.9-6.9-9.2-12.6-16.8-12.6s-14,5.7-16.8,12.6c5.3,1.6,11,2.4,16.8,2.4
				S543.4,285,548.7,283.3z"/>
			<path class="st10" d="M496.5,193.4c-2.3,0-4.1,1.9-4.1,4.1c0,2.3,1.9,4.1,4.1,4.1c2.3,0,4.1-1.9,4.1-4.1
				C500.6,195.4,498.8,193.4,496.5,193.4z"/>
			<path class="st10" d="M571.3,197.5c0-2.3-1.9-4.1-4.1-4.1c-2.3,0-4.1,1.9-4.1,4.1c0,2.3,1.9,4.1,4.1,4.1
				C569.5,201.8,571.3,199.9,571.3,197.5z"/>
			<g>
				<path class="st11" d="M531.9,155.9L531.9,155.9c-6.8,0-15.1,6.5-20.7,15.2c-6.1,9.5-7.5,22.7-6.4,24.3c4.1,6.3,27,5.7,27,5.7
					l0,0c0,0,23,0.5,27-5.7c1.1-1.5-0.3-14.7-6.4-24.3C547,162.1,538.7,155.9,531.9,155.9z"/>
				<path class="st10" d="M519.8,161.2c0,0,5.2,23,0,27.4c-2.7,2.4-14.5-2.2-14.5-2.2c-0.3,1.2-0.4,2.4-0.5,3.5c0,0,14.3,5,17.8,1.9
					c6.5-5.6,1-33.4,1-33.4C522.2,159.3,521,160.1,519.8,161.2z"/>
				<path class="st10" d="M544,188.6c-5.2-4.5,0-27.4,0-27.4c-1.2-1-2.4-1.9-3.7-2.7c0,0-5.6,27.9,1,33.4c3.5,3.1,17.8-1.9,17.8-1.9
					c-0.1-1.1-0.3-2.3-0.5-3.5C558.4,186.6,546.7,191.1,544,188.6z"/>
				<path class="st10" d="M531.7,174.8c-1.2,0-2.3,1-2.3,2.3c0,1.2,1,2.3,2.3,2.3c1.2,0,2.3-1,2.3-2.3S533,174.8,531.7,174.8z"/>
				<path class="st10" d="M531.7,165.5c-1.2,0-2.3,1-2.3,2.3c0,1.2,1,2.3,2.3,2.3c1.2,0,2.3-1,2.3-2.3
					C534,166.7,533,165.5,531.7,165.5z"/>
				<path class="st10" d="M531.6,183.9c-1.2,0-2.3,1-2.3,2.3c0,1.2,1,2.3,2.3,2.3c1.2,0,2.3-1,2.3-2.3
					C533.9,185,532.8,183.9,531.6,183.9z"/>
				<path class="st10" d="M559,191.2c0,0.4-0.1,0.7-0.3,0.8c-4.1,6.3-27,5.7-27,5.7l0,0c0,0-23,0.5-27-5.7c-0.1-0.1-0.1-0.4-0.3-0.8
					c-1.2,0.1-1.6,2.4-0.8,3.9c3.8,6.4,28,5.8,28,5.8l0,0c0,0,24.3,0.5,28-5.8C560.8,193.7,560.3,191.3,559,191.2z"/>
				<path class="st12" d="M531.9,140.4L531.9,140.4c-1.2,0-5.6,16.6-5.6,16.6h5.6l0,0h5.6C537.4,157.1,533.1,140.4,531.9,140.4z"/>
				<path class="st12" d="M500.6,160.8c-6.4-6.1-6.5-21.6-6.3-24.1c0.3-2.4,2.7-7.7,0.7-8.6c-2-0.7-10.5,11.3-7.5,30.3
					s17.9,26.8,17.9,26.8s3.1-1.9,6.5-8.3c3.3-6.3,2.6-10.5,2.6-10.5S507,166.9,500.6,160.8z"/>
				<path class="st12" d="M568.7,128.2c-2,0.7,0.4,6.1,0.7,8.6c0.3,2.4,0.1,17.9-6.3,24.1c-6.4,6.1-14,5.7-14,5.7s-0.8,4.2,2.6,10.5
					c3.4,6.4,6.5,8.3,6.5,8.3s14.9-7.7,17.9-26.8C579.2,139.4,570.6,127.5,568.7,128.2z"/>
				<path class="st10" d="M537.4,155.9H526c-0.7,0-1.1,0.5-1.1,1.1c0,0.5,0.5,1.1,1.1,1.1h11.4c0.7,0,1.1-0.5,1.1-1.1
					S538,155.9,537.4,155.9z"/>
			</g>
			<g>
				<ellipse class="st8" cx="511.9" cy="220.6" rx="11.8" ry="4.1"/>
				<ellipse class="st8" cx="551.8" cy="220.6" rx="11.8" ry="4.1"/>
			</g>
		</g>
		<g>
			<path class="st0" d="M260.7,232.5c2.1,1.8,4.9,2.8,8.2,2.8c3.7,0,6.7-1.6,8.9-4.6c2.1-2.8,3.1-6.1,3.1-10c0-3.2-0.9-6-2.5-8.1
				c-1.8-2.3-4.4-3.3-7.6-3.3c-3.4,0-6.6,1.8-9.4,5.2c-2.6,3.2-3.9,6.7-3.9,10.2C257.6,228,258.6,230.6,260.7,232.5z"/>
			<path class="st0" d="M24.8,231.3c2.8-3.4,4.2-6.1,4.2-8.2c0-2.8-1.2-5.6-3.8-8.5c-2.5-2.8-5.2-4.3-8-4.3h-2.1
				c-0.5,3.1-0.8,7.9-0.8,14.6v2.4c0,0.3,0,0.6,0,1v8.2h3.2C19.6,236.4,22,234.7,24.8,231.3z"/>
			<path class="st0" d="M325.9,219c0.5-0.2,2.6-1,6.2-2.3c2.8-1.1,4.1-2.4,4.1-3.9c0-0.8-0.4-1.6-1.4-2.5c-0.9-0.8-1.8-1.2-2.5-1.2
				c-2,0-4.6,0.2-7.6,0.5c0.4,0.9,0.6,2.5,0.8,4.6C325.6,215.8,325.8,217.4,325.9,219z"/>
			<path class="st0" d="M669,232.5c2.1,1.8,4.9,2.8,8.2,2.8c3.7,0,6.7-1.6,8.9-4.6c2.1-2.8,3.2-6.1,3.2-10c0-3.2-0.9-6-2.5-8.1
				c-1.8-2.3-4.4-3.3-7.6-3.3c-3.4,0-6.6,1.8-9.4,5.2c-2.6,3.2-3.9,6.7-3.9,10.2C665.9,228,666.9,230.6,669,232.5z"/>
			<path class="st0" d="M435.5,205.8c-1.4-1.1-3-1.7-5.2-1.7c-1.2,0-2.2,0.2-2.8,0.6c-0.3,2.4-0.7,7.4-1.2,15.1c2.6,0,5-0.9,7.4-2.7
				c2.6-1.9,3.8-4.1,3.8-6.6C437.6,208.5,436.9,206.9,435.5,205.8z"/>
			<path class="st1" d="M394.1,254.4v-13c0-0.8-2.5-1.4-7.3-1.8c-4.6-0.4-7.9-0.6-10.2-0.8V232c0.5-0.2,1.3-0.4,2.5-0.6l3.3-0.7
				c2.9-0.6,4.7-1.1,5.7-1.5c0.9-2.3,1.3-5.7,1.3-10.3l-10-1.6c0.1-3.8,0.3-6.7,0.4-8.6c1.2,0,2.5,0,3.9,0c4.2,0,8.5-0.4,12.9-1.1
				l0.9-13.2c-3.8-0.7-8.9-1-15.4-1h-15.5c-0.3,1.7-0.5,3.5-1,5.4c-1.8,9.3-2.8,18.5-3.2,27.8l-1,27.9c3.7,0.4,5.7,0.5,6.2,0.5
				L394.1,254.4z"/>
			<path class="st1" d="M319.6,253.4l7.8-1.5c0-1.1-0.3-4.2-0.8-9.2c-0.4-3.3-0.5-5.9-0.5-7.6c0-0.6,0-1.1,0.1-1.7
				c6-2.3,10.1-3.8,12.2-4.6c10.7-4,16-10.2,16-18.4c0-5.6-2.4-10-7.2-13.1c-4.1-2.6-9.1-3.9-15.1-3.9c-8,0-15.5,1.1-22.6,3.5
				c0,5-0.4,13.6-1.1,25.7c-0.7,11.5-1,20-1,25.7c0,3.3,0.4,5.8,1.3,7.3C314.8,254.2,318.4,253.5,319.6,253.4z M332.3,209.1
				c0.8,0,1.7,0.4,2.5,1.2s1.4,1.7,1.4,2.5c0,1.6-1.4,3-4.1,3.9c-3.6,1.4-5.6,2.1-6.2,2.3c-0.1-1.6-0.3-3.2-0.4-4.8
				c-0.2-2.2-0.4-3.7-0.8-4.6C327.8,209.3,330.3,209.1,332.3,209.1z"/>
			<path class="st1" d="M621.2,251.7V243c0-0.8,0-1.4-0.1-2l-0.3-3.3c-0.1-1.5-0.1-2.5-0.1-3c0-1.1,0-1.8,0.1-2.4l7-0.3
				c3.7-0.1,5.4-0.7,5.4-1.8c0-1.7-0.4-5.8-1.1-12.4c-0.3-0.1-2-0.3-5.3-0.5c-2.9-0.3-4.6-0.6-5.3-1.1v-1.4c0-2.5,0.4-4.7,1-6.7
				c2.1-0.6,5-1,8.8-1.2c4.6-0.4,7.5-0.6,8.9-0.9v-6.7c0-2.7-0.4-4.7-1.4-6.2h-5.6c-8.2-0.1-17.1,0.5-26.5,1.9
				c0.1,8-0.1,20.4-0.5,37.4l-0.6,22.4c2.5,0,5.2-0.3,8.2-0.8C617.7,253.5,620.3,252.7,621.2,251.7z"/>
			<path class="st1" d="M437.6,230.9c5.3-3,9-6.2,11.2-9.8s3.2-8.4,3.2-14.5c0-4.6-2.4-8.2-7.2-10.5c-3.8-1.9-8.2-2.9-13.3-2.9
				c-8.9,0-16.4,1.8-22.5,5.5c-0.1,4.2-0.8,12-2,23.2c-1,8.8-1.4,16.6-1.4,23.2v8.4c1.2,1.1,3.5,1.7,6.7,1.7c0.5,0,1.3,0,2.5-0.1
				c1.1-0.1,1.9-0.1,2.5-0.1h1.2c1.1,0,2,0.1,2.7,0.4c1.2-0.2,1.9-3.1,2-8.7c0.1-5.2,0.2-8.6,0.3-10.4c1.1,1.5,1.9,2.8,2.5,3.9
				c3,5.5,5,9.3,6,11.2l1.9,3.5c2.8-0.1,6-0.6,9.5-1.4l9.4-2.3c-0.1-2.3-2.3-5.8-6.4-10.4L437.6,230.9z M431.4,218.3
				c-2,1.5-4,2.3-6.2,2.3c0.4-6.4,0.8-10.7,1.1-12.7c0.5-0.4,1.3-0.5,2.4-0.5c1.8,0,3.2,0.4,4.4,1.4s1.7,2.3,1.7,4
				C434.6,214.9,433.5,216.7,431.4,218.3z"/>
			<path class="st1" d="M247.8,247.8c5.6,5.1,13.1,7.6,22.6,7.6c8,0,14.7-2.9,20.2-8.8c5.4-5.7,8.2-12.6,8.2-20.7
				c0-10.2-2.2-18-6.6-23.5c-4.8-6.1-12.2-9.2-22.1-9.2c-4.8,0-9.7,1.8-14.6,5.3c-4.6,3.2-8.3,7.2-11.4,11.9
				c-3.4,5.3-5.1,10.4-5.1,15.5C239,235.2,241.9,242.5,247.8,247.8z M261.5,214.5c2.8-3.4,6-5.2,9.4-5.2c3.2,0,5.8,1.1,7.6,3.3
				c1.7,2.1,2.5,4.7,2.5,8.1c0,3.9-1.1,7.1-3.1,10c-2.3,3.1-5.3,4.6-8.9,4.6c-3.4,0-6.1-1-8.2-2.8s-3.2-4.5-3.2-7.8
				C257.6,221.1,258.9,217.7,261.5,214.5z"/>
			<path class="st1" d="M132.8,254.9c1.6-3.6,4.3-13.2,8.1-29c3.9-16,5.8-25.7,5.8-29l-0.5-2.4c-5.3-0.9-8.8-1.3-10.7-1.3
				c-2.2,0-3.9,0.2-5.3,0.5c-0.2,1.2-0.6,3-1.1,5.3l-1.8,7.8c-1.7,7.2-2.6,11.5-2.8,13c-0.4,2.4-0.5,4.4-0.7,6.2
				c-0.2,2.5-0.6,4.6-1.1,6.2c-2.3-4.2-4.5-10.1-6.6-17.7c-2.8-9.8-4.6-15.9-5.4-18.1l-15.3,1.1c0.9,0.9,3.9,9.7,9.3,26.6l9.5,30.1
				c4.5,0.9,9.6,1.3,15.3,1.3C130.8,255.6,132,255.4,132.8,254.9z"/>
			<path class="st1" d="M83.6,254.4v-13c0-0.8-2.5-1.4-7.3-1.8c-4.6-0.4-7.9-0.6-10.2-0.8V232c0.5-0.2,1.3-0.4,2.5-0.6l3.3-0.7
				c2.9-0.6,4.7-1.1,5.7-1.5c0.9-2.3,1.3-5.7,1.3-10.3l-10-1.6c0.1-3.8,0.3-6.7,0.4-8.6c1.2,0,2.5,0,3.9,0c4.2,0,8.5-0.4,12.9-1.1
				l0.9-13.2c-3.8-0.7-8.9-1-15.4-1H56.1c-0.3,1.7-0.5,3.5-1,5.4c-1.8,9.3-2.8,18.5-3.2,27.8l-1,27.9c3.7,0.4,5.7,0.5,6.2,0.5
				L83.6,254.4z"/>
			<path class="st1" d="M2,254.2c5.1,0.8,8.5,1.2,10.2,1.2c8.2,0,15.3-3,21.1-8.9c5.9-5.9,8.9-13,8.9-21.1c0-10.3-3.2-18.3-9.7-24
				c-6.2-5.4-14.5-8.2-25-8.2c-0.4,0-1.2,0.1-2.5,0.2c-1.1,0.1-1.8,0.2-2.5,0.1c0.1,3,0.2,6.1,0.2,9.5c0,4.7-0.2,11.9-0.5,21.6
				c-0.4,9.6-0.5,16.7-0.5,21.6c0,1.1,0,2.5,0.1,4C2,252.4,2,253.8,2,254.2z M14.4,228.2c0-0.4,0-0.8,0-1v-2.4
				c0-6.7,0.3-11.5,0.8-14.6h2.1c2.8,0,5.4,1.4,8,4.3c2.5,2.8,3.8,5.7,3.8,8.5c0,2.1-1.4,4.9-4.2,8.2c-2.8,3.4-5.3,5.1-7.3,5.1h-3.2
				L14.4,228.2L14.4,228.2z"/>
			<path class="st1" d="M211.9,254.9l3.2,0.1c2.2,0.1,3.9,0.1,5,0.1c7.3,0,11-1.1,11-3.3c0-1.3-0.2-3.2-0.6-5.9
				c-0.4-2.6-0.6-4.6-0.6-5.9v-0.1c0,0,0-0.2,0.1-0.4v-2c0-2-1.1-3-3.3-2.9h-3.1c-2.1,0.1-3.6,0.1-4.6,0.1c-3.5,0-5.3-0.4-5.3-1.1
				c0-4.9,0.3-11.4,0.8-19.5c0.6-8.7,0.9-15.2,0.9-19.5h-2.8c-4.4,0-8,0.3-10.6,0.8l-3.9,60.2C205.2,255.1,209.9,254.9,211.9,254.9z
				"/>
			<path class="st1" d="M158.7,193.3c-0.3,1.7-0.5,3.5-1,5.4c-1.8,9.3-2.8,18.5-3.1,27.8l-1,27.9c3.7,0.4,5.7,0.5,6.2,0.5l26.3-0.5
				v-13c0-0.8-2.5-1.4-7.3-1.8c-4.6-0.4-7.9-0.6-10.2-0.8V232c0.5-0.2,1.3-0.4,2.5-0.6l3.3-0.7c2.9-0.6,4.7-1.1,5.7-1.5
				c0.9-2.3,1.3-5.7,1.3-10.3l-10-1.7c0.1-3.8,0.3-6.7,0.4-8.6c1.2,0,2.5,0,3.9,0c4.2,0,8.5-0.4,12.9-1.1l0.9-13.2
				c-3.8-0.7-8.9-1-15.4-1L158.7,193.3L158.7,193.3z"/>
			<path class="st1" d="M756.3,248.3l-3.7-10.7c-6.3,0.2-11-0.4-14.2-1.8c-4.6-2-6.8-5.8-6.8-11.5c0-2.3,0.4-4.4,1.2-6.5
				c1-2.4,2.3-4.1,3.9-5.3c1.2-0.8,3.5-1.8,6.7-2.8c3-1,5.3-1.6,7.1-1.8c1.1-2.2,2.3-4.8,3.4-8.1l1.1-3.3c-0.8-2.2-3.8-3.2-9-3.2
				c-8.8,0-16,4-22,12c-5.4,7.5-8.2,15.6-8.2,24.5c0,7,2.3,13,6.8,18c4.6,5.2,10.4,7.7,17.4,7.7
				C744.9,255.5,750.3,253.1,756.3,248.3z"/>
			<path class="st1" d="M789.9,255.5c10.1,0,17.5-4.3,22.2-12.8c3.8-6.7,5.6-15.7,5.6-26.7c0-14.7-1.4-22.1-4.1-22l-6.3,0.1
				c-5.6,0-8.9,0.5-10,1.6c0,1.6,0.3,4.7,0.8,9.4c0.3,2.5,0.4,4.5,0.4,6.1c0,6-0.4,11-1.3,15.3c-1.5,7.3-4,11-7.6,11
				c-5.3,0-7.8-5.6-7.8-16.7c0-4,0.1-8.5,0.2-13.5c0.2-6.7,0.3-11.1,0.2-13.5l-2.7-0.4l-13.9,1c0.1,0.9,0.1,2.1-0.1,3.5
				c-0.3,1.9-0.4,3.2-0.4,3.6v10.9c0,12.2,1.3,21.6,3.9,28.1C772.8,250.4,779.8,255.5,789.9,255.5z"/>
			<path class="st1" d="M865.5,236.8c0-5.7-1.7-10.3-5.1-13.8c-1.7-1.8-4.8-3.9-9.4-6.3c-3.3-1.8-5.1-3.6-5.1-5.3
				c0-1.1,0.4-2.1,1.4-2.9c1-0.8,1.9-1.1,3.1-1.1c1.4,0,2.4,0.7,3.1,2l1.5,3.8c7.3-1.6,12.1-2.7,14.3-3.3c0-4.6-1.8-8.6-5.2-11.8
				c-3.5-3.2-7.5-4.7-12.3-4.7c-6.5,0-11.7,1.7-15.7,5c-3.9,3.3-6.4,8.2-7.3,14.6c0.5,4.2,2.5,7.9,5.8,11c1.1,1.1,2.6,2.3,4.4,3.5
				c1.6,1.1,3.1,2.1,4.6,3.2c3.2,2.1,4.7,4,4.7,5.7c0,2.9-1.4,4.3-4.2,4.3h-0.6c-0.2,0-0.4,0-0.5-0.1c-0.9-1.1-1.5-2.4-1.8-3.5
				c-0.1-0.4-0.4-1.4-0.5-2.9H833c-2.3,0-4.1,0-5.7-0.1c-0.4,1.5-0.6,3.8-0.6,6.7c0,6,1.8,10,5.6,12.1c3,1.7,7.5,2.5,13.8,2.5
				c5.6,0,10.3-1.7,13.9-5.1C863.6,247,865.5,242.4,865.5,236.8z"/>
			<path class="st1" d="M656.1,247.8c5.6,5.1,13.1,7.6,22.6,7.6c8,0,14.7-2.9,20.2-8.8c5.4-5.7,8.2-12.6,8.2-20.7
				c0-10.2-2.2-18-6.6-23.5c-4.8-6.1-12.2-9.2-22.1-9.2c-4.8,0-9.7,1.8-14.6,5.3c-4.6,3.2-8.3,7.2-11.4,11.9
				c-3.4,5.3-5.1,10.4-5.1,15.5C647.4,235.2,650.3,242.5,656.1,247.8z M669.9,214.5c2.8-3.4,6-5.2,9.4-5.2c3.2,0,5.8,1.1,7.6,3.3
				c1.7,2.1,2.5,4.7,2.5,8.1c0,3.9-1.1,7.1-3.2,10c-2.3,3.1-5.3,4.6-8.9,4.6c-3.4,0-6.1-1-8.2-2.8s-3.2-4.5-3.2-7.8
				C665.9,221.1,667.2,217.7,669.9,214.5z"/>
		</g>
	</g>
	<g>
		<path class="st0" d="M438.9,319.6c-1.3-1.1-2.9-1.6-5-1.6c-1.2,0-2.1,0.2-2.7,0.6c-0.3,2.3-0.7,7.1-1.2,14.5
			c2.5,0,4.8-0.9,7.1-2.6c2.5-1.8,3.7-3.9,3.7-6.3C440.8,322.2,440.2,320.6,438.9,319.6z"/>
		<path class="st0" d="M432.2,325.8c0.8,0.1,1.4,0.1,1.8,0.1c4.7,0,7-1.7,7-5c0-2.1-3.2-3.2-9.5-3.2h-1.7c0,1.7,0.2,4.4,0.6,8
			C430.9,325.7,431.5,325.8,432.2,325.8z"/>
		<path class="st0" d="M442,324.2c0-0.9-0.5-1.8-1.6-2.8c-1-0.9-2-1.4-2.9-1.4c-2.3,0-5.2,0.2-8.7,0.6c0.4,1,0.7,2.8,0.9,5.3
			c0.1,1.8,0.3,3.7,0.4,5.5c0.6-0.2,3-1.1,7.1-2.6C440.4,327.5,442,326,442,324.2z"/>
		<g>
			<path class="st0" d="M105.9,324c-3.5,4.4-5.3,8.9-5.3,13.7c0,4.5,1.4,8,4.2,10.5s6.6,3.8,11.1,3.8c4.9,0,8.9-2.1,12-6.2
				c2.8-3.8,4.1-8.2,4.1-13.4c0-4.4-1.2-8-3.4-10.8c-2.5-3.1-5.9-4.5-10.2-4.5C113.9,317.1,109.6,319.4,105.9,324z"/>
			<path class="st0" d="M657.3,317.1c-4.6,0-8.8,2.4-12.6,6.9c-3.5,4.4-5.3,8.9-5.3,13.7c0,4.5,1.4,8,4.2,10.5s6.6,3.8,11.1,3.8
				c4.9,0,8.9-2.1,12-6.2c2.8-3.8,4.1-8.2,4.1-13.4c0-4.4-1.2-8-3.4-10.8C665,318.6,661.6,317.1,657.3,317.1z"/>
			<path class="st0" d="M430.5,329.9c-0.7,4.1-1.1,7.3-1.2,9.4l6.9,0.1c1.4,0,2.7-0.1,3.9-0.4c-0.8-3.8-3.5-9.9-8.4-18.5
				C431.6,322.7,431.2,325.8,430.5,329.9z"/>
			<path class="st0" d="M198.5,344.3c-0.8-0.9-2.6-1.5-5.1-1.9c-1.4-0.2-3.3-0.5-5.7-0.8c-0.4,3.8-0.5,7.3-0.5,10.6
				c0,2.7,0.8,4,2.5,4c2.1,0,4.4-0.6,6.8-1.6c2.9-1.3,4.5-2.9,4.5-4.8c0-0.6-0.2-1.5-0.8-2.8C199.4,345.7,199,344.7,198.5,344.3z"/>
			<path class="st1" d="M433.8,296.1l-7.1,0.2c-2.2,0-4,0.1-5.3,0.1l-4.7-0.1c-3.2,10.1-5.9,22.7-8.1,38l-5.5,38.5
				c3.2,1.8,7.5,3.1,12.9,3.9l8.2,1.3c0.8-1.4,1.5-5.4,2.5-12c0.8-5.8,1.5-9.1,2.4-9.9c0.6-0.7,2.6-1.3,6.2-1.8
				c4.5-0.6,6.8-0.8,7.1-0.9c1.8,4.1,4,8.4,6.5,12.8l7.2,12.6l21.4-11.4c-8.2-23-18.7-47-31.3-72L433.8,296.1z M436.2,339.3
				l-6.9-0.1c0.1-2.1,0.5-5.2,1.2-9.4c0.7-4.1,1.1-7.3,1.2-9.4c4.8,8.6,7.5,14.7,8.4,18.5C438.9,339.3,437.7,339.3,436.2,339.3z"/>
			<path class="st1" d="M317.2,343.3c14.4-5.4,21.4-13.7,21.4-24.7c0-7.5-3.2-13.4-9.7-17.7c-5.5-3.5-12.2-5.3-20.2-5.3
				c-10.7,0-20.8,1.5-30.4,4.7c0,6.7-0.5,18.2-1.4,34.5c-0.9,15.4-1.3,26.8-1.3,34.5c0,4.5,0.6,7.8,1.8,9.8c8-1.5,12.8-2.5,14.5-2.8
				l10.5-2c0-1.5-0.4-5.7-1.1-12.4c-0.5-4.5-0.7-7.9-0.7-10.2c0-0.8,0-1.5,0.1-2.2C308.9,346.4,314.3,344.4,317.2,343.3z
				 M300.2,330.2c-0.1-2.1-0.4-4.4-0.5-6.5c-0.2-2.9-0.6-4.9-1.1-6.2c4.1-0.5,7.5-0.7,10.2-0.7c1.1,0,2.2,0.6,3.4,1.6
				c1.2,1.1,1.9,2.2,1.9,3.3c0,2.1-1.9,4-5.5,5.3C303.7,329,300.9,329.9,300.2,330.2z"/>
			<path class="st1" d="M579.2,362.4c0-1.1,0-1.9-0.1-2.7l-0.4-4.5c-0.1-2-0.1-3.3-0.1-4c0-1.4,0-2.5,0.1-3.2l9.4-0.4
				c4.9-0.1,7.3-0.9,7.3-2.5c0-2.2-0.5-7.8-1.4-16.6c-0.4-0.1-2.7-0.4-7.1-0.7c-3.9-0.4-6.2-0.8-7.2-1.4v-1.9c0-3.4,0.5-6.4,1.3-9.1
				c2.8-0.8,6.7-1.3,11.8-1.6c6.1-0.5,10.1-0.8,11.9-1.2v-8.9c0-3.6-0.6-6.4-1.9-8.4h-7.5c-11.1-0.1-23,0.7-35.6,2.6
				c0.1,10.7-0.1,27.4-0.7,50.3l-0.8,30c3.3,0,6.9-0.4,11.1-1.1c5.5-0.9,8.8-2,10-3.3v-11.5L579.2,362.4L579.2,362.4z"/>
			<path class="st1" d="M524,348.6l-1.2-28.1c13.3,0,21.5,0,25-0.2c0.4-2.6,0.6-6.7,0.6-12.2c0-5.2-0.2-8.2-0.7-9.1
				c-1.2,0-2.6-0.1-4.5-0.2l-11.4-0.9c-7.8-0.6-13.1-0.9-16-0.9c-12.2,0-21.5,0.5-27.8,1.3c-1.3,8.2-2.4,14.8-3.2,19.7
				c7.9,1.1,13.8,1.9,17.8,2.5l-4,58.9c5.5-0.5,10.1-0.8,13.7-1.1c6.1-0.4,10.7-0.8,13.8-1.3C525.1,367.8,524.4,358.5,524,348.6z"/>
			<path class="st1" d="M194.1,296.5H193c-0.5,0-0.9,0-1.3,0h-7.1c-11.3,0-17,0.8-17,2.5c0,3.2,0.1,7.9,0.5,14.2
				c0.4,6.4,0.5,11.1,0.5,14.2c0,25.4,0.9,41.2,2.8,47.4c0.6,2,2.4,3.3,5.1,3.9c1.3,0.2,3.5,0.5,6.8,0.5c10.8,0,19.5-2.2,26.1-6.8
				c7.5-5.3,11.4-13.1,11.4-23.5c0-4-0.8-7.4-2.5-10.2c-1.9-3.3-4.6-5.4-8.2-6.1c3.6-3.4,6.1-6.1,7.5-8c2.5-3.4,3.6-6.8,3.6-10
				c0-6.1-3.2-10.8-9.7-14C206.7,297.8,200.7,296.5,194.1,296.5z M188.8,314.3c7.4,0,11.2,1.3,11.2,3.8c0,3.9-2.7,5.9-8.2,5.9
				c-0.5,0-1.2,0-2.1-0.1s-1.6-0.1-2.1-0.1c-0.5-4.2-0.7-7.3-0.7-9.4h1.9V314.3z M196.5,354.5c-2.5,1.1-4.8,1.6-6.8,1.6
				c-1.6,0-2.5-1.3-2.5-4c0-3.3,0.1-6.8,0.5-10.6c2.4,0.4,4.2,0.6,5.7,0.8c2.6,0.4,4.2,1.1,5.1,1.9c0.5,0.5,0.9,1.4,1.5,2.6
				c0.6,1.3,0.8,2.1,0.8,2.8C201,351.6,199.4,353.2,196.5,354.5z"/>
			<path class="st1" d="M392.4,374.3c0-1.8-0.2-4.4-0.8-7.9c-0.6-3.5-0.8-6.1-0.8-7.9v-0.1c0,0,0-0.2,0.1-0.6v-2.7
				c0-2.7-1.5-4-4.5-3.9h-4.1c-2.8,0.1-4.8,0.1-6.2,0.1c-4.7,0-7.1-0.5-7.1-1.5c0-6.6,0.4-15.3,1.1-26.1c0.8-11.7,1.2-20.4,1.2-26.1
				h-3.8c-5.9,0-10.7,0.4-14.2,1.1l-5.3,80.9c10-0.8,16.2-1.1,18.8-1.1l4.4,0.1c2.9,0.1,5.2,0.1,6.7,0.1
				C387.6,378.8,392.4,377.2,392.4,374.3z"/>
			<path class="st1" d="M749.4,346.2c7.2-4,12.1-8.4,15.1-13.2s4.4-11.3,4.4-19.4c0-6.2-3.2-10.9-9.7-14.1
				c-5.1-2.6-11.1-3.9-17.9-3.9c-11.9,0-21.9,2.5-30.3,7.4c-0.1,5.7-1.1,16.1-2.7,31.2c-1.3,11.8-1.9,22.2-1.9,31.2v11.3
				c1.6,1.5,4.7,2.2,9.1,2.2c0.7,0,1.8,0,3.3-0.1c1.4-0.1,2.6-0.1,3.3-0.1h1.6c1.5,0,2.7,0.1,3.6,0.5c1.6-0.2,2.6-4.1,2.7-11.7
				c0.1-6.9,0.2-11.5,0.4-14c1.4,2,2.6,3.8,3.3,5.2c4,7.4,6.7,12.5,8.1,15.1l2.6,4.7c3.8-0.1,8-0.8,12.7-1.9l12.6-3.1
				c-0.1-3.1-3.1-7.8-8.6-14L749.4,346.2z M741.1,329.2c-2.7,2-5.4,3.1-8.4,3.1c0.6-8.6,1.1-14.4,1.4-17.1c0.7-0.5,1.8-0.7,3.2-0.7
				c2.4,0,4.4,0.6,5.9,1.9c1.5,1.3,2.2,3.1,2.2,5.4C745.4,324.6,744,327.1,741.1,329.2z"/>
			<path class="st1" d="M805.6,365.6l0.5-20.4c2,3.8,3.6,9.1,5.1,16c1.6,7.9,3.1,13.3,4.1,16.2c1.6-0.1,2.7-0.2,3.4-0.4
				c8.2-0.7,13.2-1.3,14.8-1.5c3.4-12.6,5.7-21.5,6.8-27c1.5,12.4,2.9,21.7,4,27.8h17.9c2.5,0,4.4-0.4,5.9-1.1
				c-0.2-6.6-0.6-12.1-0.9-16.4l-1.9-25.4c-1.8-23-3.1-35.7-3.9-38c-1.8,0-5.1,0.1-10.1,0.2l-20,0.7c-0.7,2.6-1.8,8.9-3.3,19.2
				c-1.1,7.9-2.8,14-5.1,18.6h-0.2c-4.5-13.9-8.1-26.1-10.9-36.5c-4.4,0.6-7.9,0.9-10.8,1.3c-4,0.5-7.5,1.2-10.5,2.4
				c-2.2,4.9-3.5,12.4-4,22.1l-1.3,29.1c-0.5,11.2-1.4,19.7-2.8,25.4c0.2,0.1,2.4,0.1,6.1,0c5.5-0.1,8.4-0.2,8.5-0.2
				c0.6,0,1.5,0.1,2.8,0.4c1.3,0.2,2.2,0.4,2.8,0.4c2,0,3.1-0.6,3.1-1.9C805.4,373.8,805.5,370.1,805.6,365.6z"/>
			<path class="st1" d="M97.7,302.6c-6.1,4.4-11.2,9.7-15.3,16c-4.6,7.1-6.8,14-6.8,20.8c0,12.5,3.9,22.2,11.8,29.4
				c7.5,6.8,17.7,10.2,30.4,10.2c10.7,0,19.8-3.9,27.2-11.8c7.3-7.7,10.9-17,10.9-27.8c0-13.7-2.9-24.1-8.8-31.5
				c-6.5-8.2-16.4-12.4-29.7-12.4C110.9,295.5,104.3,297.9,97.7,302.6z M128.7,321.6c2.2,2.8,3.4,6.4,3.4,10.8
				c0,5.2-1.4,9.5-4.1,13.4c-3.1,4.1-7.1,6.2-12,6.2c-4.6,0-8.2-1.3-11.1-3.8c-2.8-2.5-4.2-6-4.2-10.5c0-4.7,1.8-9.3,5.3-13.7
				c3.8-4.6,8-6.9,12.6-6.9C122.8,317.1,126.2,318.6,128.7,321.6z"/>
			<path class="st1" d="M2.7,346.8c1.1,21.5,10,32.4,27.2,32.4c10.7,0,19.3-5.5,25.5-16.6c5.2-9.3,7.9-19.8,7.9-31.3
				c0-14.1-1.4-25.5-4.2-34.1c-4.2-0.9-7.2-1.3-8.7-1.3c-4.7,0-8.1,0.6-10.2,1.5c1.3,10.5,2,17.5,2,21c0,9.1-0.6,16.7-1.6,23
				c-2,11.1-5.5,16.6-10.7,16.6c-6.1,0-9.1-4.6-9.1-13.9v-1.3C14.5,342.9,8.5,344.3,2.7,346.8z"/>
			<path class="st1" d="M656.2,295.5c-6.5,0-13.1,2.4-19.7,7.1c-6.1,4.4-11.2,9.7-15.3,16c-4.6,7.1-6.8,14-6.8,20.8
				c0,12.5,3.9,22.2,11.8,29.4c7.5,6.8,17.7,10.2,30.4,10.2c10.7,0,19.8-3.9,27.2-11.8c7.3-7.7,10.9-17,10.9-27.8
				c0-13.7-2.9-24.1-8.8-31.5C679.4,299.7,669.5,295.5,656.2,295.5z M666.7,345.7c-3.1,4.1-7.1,6.2-12,6.2c-4.6,0-8.2-1.3-11.1-3.8
				c-2.8-2.5-4.2-6-4.2-10.5c0-4.7,1.8-9.3,5.3-13.7c3.8-4.6,8-6.9,12.6-6.9c4.4,0,7.8,1.5,10.2,4.5c2.2,2.8,3.4,6.4,3.4,10.8
				C670.9,337.5,669.5,341.9,666.7,345.7z"/>
		</g>
	</g>
	<g>
		<path class="st0" d="M75.4,624.4h-1.7c-0.9,7.6-1.3,18.1-1.3,31.7v5.6c0,0.6,0,1.5,0,2.6v6.7c2.8-1.9,6.3-5.2,10.1-9.7
			C89,653.7,92,647.9,92,644c0-5-2.6-10.6-7.6-16.6C81.2,625.3,78.2,624.4,75.4,624.4z"/>
		<path class="st0" d="M301.4,570.9c-0.6,4.1-1.3,8.6-2.4,13.4c-4.3,22.9-6.9,45.5-7.8,68.4l-2.4,68.6c9.1,0.9,14,1.3,15.3,1.3
			l64.7-1.3v-31.9c0-1.9-6-3.5-17.9-4.5c-11.2-0.9-19.4-1.5-25-1.9v-16.8c1.3-0.4,3.2-0.9,6-1.5l8.2-1.7c7.1-1.5,11.6-2.8,14-3.7
			c2.2-5.6,3.2-14,3.2-25.2l-24.6-3.9c0.2-9.3,0.6-16.4,0.9-21.1c3,0,6.3,0,9.7,0c10.4,0,20.9-0.9,31.7-2.8l2.2-32.6
			c-9.3-1.7-22-2.4-38-2.4h-38v-0.4H301.4z"/>
		<path class="st0" d="M820.5,582.6c-8.6-7.8-18.6-11.6-30.2-11.6c-16,0-28.9,4.1-38.6,12.3c-9.7,8.2-15.7,20.3-17.9,35.8
			c1.3,10.4,6,19.4,14.2,27.2c2.8,2.6,6.5,5.6,10.8,8.6c3.9,2.6,7.6,5.2,11.4,7.8c7.8,5.2,11.6,9.9,11.6,14
			c0,7.1-3.5,10.6-10.4,10.6h-1.5c-0.4,0-0.9,0-1.3-0.2c-2.2-2.8-3.7-5.8-4.5-8.6c-0.2-1.1-0.9-3.5-1.3-7.1h-19
			c-5.6,0-10.1,0-14-0.2c-1.1,3.7-1.5,9.3-1.5,16.6c0,14.7,4.5,24.6,13.8,29.8c7.3,4.1,18.6,6.3,33.9,6.3c13.8,0,25.2-4.1,34.3-12.5
			s13.4-19.4,13.4-33.2c0-14-4.1-25.2-12.5-33.9c-4.1-4.3-11.9-9.5-23.1-15.5c-8.2-4.5-12.5-8.8-12.5-12.9c0-2.8,1.1-5.2,3.5-7.1
			s4.7-2.8,7.6-2.8c3.5,0,5.8,1.7,7.8,5l3.7,9.3c17.9-3.9,29.8-6.7,35.2-8.2C833.2,600.3,829.1,590.6,820.5,582.6z"/>
		<path class="st0" d="M795.3,625.3l-2.8-7.3c-3,0.6-4.5,2.4-4.7,5c0.6,0.4,1.7,1.1,2.8,1.3c4.5,2.4,8.4,4.7,11.9,7.1l-6.5-6.3
			C795.7,625.3,795.5,625.3,795.3,625.3z"/>
		<path class="st0" d="M774.6,678.8c0.2,1.5,0.4,2.6,0.4,3c1.5-0.9,2.4-2.6,2.4-5.2c0-0.4-0.2-1.1-0.6-1.9c-0.4-0.4-0.9-0.6-1.1-0.9
			c-3-1.7-5.8-3.7-8.6-5.8l7.1,6.9L774.6,678.8z"/>
		<path class="st0" d="M228.7,663.5c13.2-7.3,22.2-15.3,27.6-24.2c5.4-8.8,8-20.7,8-35.6c0-11.4-5.8-20.1-17.7-25.9
			c-9.3-4.7-20.3-7.1-32.8-7.1c-21.8,0-40.1,4.5-55.4,13.6c-0.2,10.4-1.9,29.6-5,57.2c-2.4,21.6-3.5,40.8-3.5,57.2v20.7
			c3,2.8,8.6,4.1,16.6,4.1c1.3,0,3.2,0,6-0.2c2.6-0.2,4.7-0.2,6-0.2h3c2.8,0,5,0.2,6.7,0.9c3-0.4,4.7-7.6,5-21.4
			c0.2-12.7,0.4-21.1,0.6-25.7c2.6,3.7,4.7,6.9,6,9.5c7.3,13.6,12.3,22.9,14.9,27.6l4.7,8.6c6.9-0.2,14.7-1.5,23.3-3.5l23.1-5.6
			c-0.2-5.6-5.6-14.2-15.7-25.7L228.7,663.5z M213.4,632.4c-5,3.7-9.9,5.6-15.3,5.6c1.1-15.7,1.9-26.3,2.6-31.3
			c1.3-0.9,3.2-1.3,5.8-1.3c4.3,0,8,1.1,10.8,3.5s4.1,5.6,4.1,9.9C221.4,624,218.8,628.5,213.4,632.4z"/>
		<path class="st0" d="M214.1,617.1c-0.9,0-1.5,0-1.9,0.2c-0.4,5-0.9,8.6-1.1,11.2c3.9-3,5.6-6.3,5.6-9.7v-0.9
			c0-0.2-0.2-0.4-0.2-0.6C215.8,617.1,214.9,617.1,214.1,617.1z"/>
		<path class="st0" d="M104.9,590.8c-15.3-13.4-35.6-20.1-61.5-20.1c-0.9,0-3,0.2-6,0.4c-2.6,0.2-4.5,0.4-6,0.2
			c0.2,7.3,0.4,15.1,0.4,23.3c0,11.6-0.4,29.3-1.3,53.1c-0.9,23.5-1.3,41.2-1.3,53.1c0,2.8,0,6,0.2,9.9c0.2,5.8,0.4,9.1,0.4,10.1
			c12.5,1.9,20.9,3,25,3c20.1,0,37.5-7.3,52-21.8s21.8-31.9,21.8-52C128.9,624.7,120.9,604.8,104.9,590.8z M86.1,664.4
			c-6.9,8.4-12.9,12.5-17.9,12.5h-7.8v-20.3c0-1.1,0-1.9,0-2.4v-5.8c0-16.4,0.6-28.3,1.9-35.8h5.2c6.9,0,13.4,3.5,19.6,10.6
			c6.3,6.9,9.3,14,9.3,20.9C96.5,649.2,93,655.9,86.1,664.4z"/>
		<path class="st0" d="M699.7,640.6c-3.2-42.1-5.6-65.4-7.1-69.7c-3.2,0-9.3,0.2-18.6,0.4l-36.7,1.3c-1.3,4.7-3.2,16.4-6,35.2
			c-1.9,14.5-5.2,25.7-9.3,34.1h-0.4c-8.2-25.5-14.9-47.9-20.1-66.9c-8,1.1-14.5,1.7-19.8,2.4c-7.3,0.9-13.8,2.2-19.2,4.3
			c-4.1,9.1-6.5,22.7-7.3,40.6l-2.4,53.3c-0.9,20.5-2.6,36-5.2,46.6c0.4,0.2,4.3,0.2,11.2,0c10.1-0.2,15.3-0.4,15.5-0.4
			c1.1,0,2.8,0.2,5.2,0.6c2.4,0.4,4.1,0.6,5.2,0.6c3.7,0,5.6-1.1,5.6-3.5c0-5.4,0-12.1,0.2-20.3l0.9-37.3c3.7,6.9,6.7,16.6,9.3,29.3
			c3,14.5,5.6,24.4,7.6,29.8c3-0.2,5-0.4,6.3-0.6c15.1-1.3,24.2-2.4,27.2-2.8c6.3-23.1,10.4-39.5,12.5-49.4
			c2.8,22.7,5.4,39.7,7.3,50.9h32.8c4.5,0,8-0.6,10.8-1.9c-0.4-12.1-1.1-22.2-1.7-30L699.7,640.6z"/>
		<path class="st0" d="M476.6,570.7l-22.4,1.1l-12.9,0.4c-4.1,0-7.3,0.2-9.7,0.2l-8.6-0.2c-5.8,18.6-10.8,41.6-14.9,69.7L398,712.4
			c5.8,3.2,13.8,5.6,23.7,7.1l15.1,2.4c1.5-2.6,2.8-9.9,4.5-22c1.5-10.6,2.8-16.6,4.3-18.1c1.1-1.3,4.7-2.4,11.4-3.2
			c8.2-1.1,12.5-1.5,12.9-1.7c3.2,7.6,7.3,15.3,11.9,23.5l13.2,23.1l39.3-20.9C518.7,660.7,499.7,616.7,476.6,570.7z M458.3,651
			l-12.7-0.2c0.2-3.9,0.9-9.5,2.2-17.3c1.3-7.6,1.9-13.4,2.2-17.3c8.8,15.7,13.8,27,15.3,33.9C463.2,651,461.1,651,458.3,651z"/>
		<path class="st1" d="M67.6,612.6h-5.2c-1.3,7.6-1.9,19.4-1.9,35.8v5.8c0,0.6,0,1.5,0,2.4v20.3h7.8c5.2,0,11.2-4.1,17.9-12.5
			c6.9-8.4,10.4-15.1,10.4-20.3c0-6.9-3-13.8-9.3-20.9S74.5,612.6,67.6,612.6z M82.3,661.3c-3.9,4.5-7.1,7.8-10.1,9.7v-6.7
			c0-1.1,0-1.9,0-2.6v-5.6c0-13.4,0.4-23.9,1.3-31.7h1.9c3,0,5.8,1.1,8.8,2.8c5.2,6,7.6,11.6,7.6,16.6
			C91.7,648,88.5,653.8,82.3,661.3z"/>
		<path class="st1" d="M116.6,596.4c-1.5-1.7-4.3-4.5-8.6-8.8c-15.3-14.2-36.9-21.4-64.5-21.4c-1.5,0-3.7,0.2-6.7,0.4
			c-1.9,0.2-3.2,0.2-3.5,0.2c-0.4,0-1.1,0-1.7-0.2h-5.2c0,0.4,0,2.6,0.2,6.3l0.4,21.6c0,11.6-0.4,29.3-1.3,53.1
			c-0.9,23.5-1.3,41.2-1.3,53.1c0,0.9,0,2.4,0.2,4.1c0,1.7,0.2,3.2,0.2,4.1v1.9c0,0.4,0,1.3,0.2,2.2v2.4l0.2,4.3
			c0,2.8,0.2,3.9,0.2,3.5v1.9c0,0,0.2,0,0.6,0.2h0.6l6.9,7.1c14.9,2.4,24.6,3.7,29.3,3.7c21.4,0,39.7-7.6,55-22.9s22.9-33.7,22.9-55
			c0-24.8-7.3-44.2-21.8-58.9L116.6,596.4z M107.1,702.1c-14.5,14.5-31.9,21.8-52,21.8c-4.3,0-12.7-1.1-25-3c0-1.1-0.2-4.3-0.4-10.1
			c-0.2-3.9-0.2-7.1-0.2-9.9c0-11.6,0.4-29.3,1.3-53.1c0.9-23.5,1.3-41.2,1.3-53.1c0-8.2-0.2-16-0.4-23.3c1.5,0.2,3.7,0.2,6-0.2
			c3.2-0.2,5.2-0.4,6-0.4c25.7,0,46.2,6.7,61.5,20.1c16,14,23.9,33.7,23.9,59.1C128.9,670.2,121.5,687.4,107.1,702.1z"/>
		<path class="st1" d="M217.3,608.9c-2.8-2.4-6.3-3.5-10.8-3.5c-2.6,0-4.5,0.4-5.8,1.3c-0.6,5-1.5,15.3-2.6,31.3
			c5.4,0,10.4-1.9,15.3-5.6c5.4-3.9,8-8.4,8-13.6C221.4,614.5,219.9,611.1,217.3,608.9z M216.9,618.8c0,3.5-1.9,6.7-5.6,9.7
			c0.2-2.4,0.6-6.3,1.1-11.2c0.4,0,1.1-0.2,1.9-0.2s1.7,0,2.4,0.2c0,0.2,0,0.4,0.2,0.6V618.8z"/>
		<path class="st1" d="M242.8,672.3c12.1-7.3,20.9-15.7,26.1-25.2c5-9.3,7.3-21.1,7.3-35.6c0-8.8-3-16-8.8-21.8l-3.7-3.5
			c-3.5-5-8.4-9.1-14.9-12.5c-9.7-5-21.4-7.6-34.7-7.6c-22.9,0-42.7,5.2-60,15.5c-0.2,11.9-1.9,31.7-5,59.3
			c-2.4,20.5-3.5,38.6-3.5,54.6v2.8l0.2,22.7c0.6,0.4,1.5,1.3,2.8,2.2l5.2,5.4c4.1,4.3,11.2,6.5,20.9,6.5h1.9c0.9,0,1.9,0,2.8-0.2
			h0.2c0.6,0,1.9,0,3.5-0.2c1.5,0,2.6-0.2,3.5-0.2h3c2.4,0,4.3,0.2,6,0.9c6.5-1.1,9.7-9.5,9.7-25.7v-5c0,0.2,0,0.4,0.2,0.6
			c4.3,8.4,8.2,15.5,11.6,21.4h0.9l7.1,7.1c8.6-0.4,17.5-1.7,26.5-3.9l26.3-5.6c-0.4-8.8-6-19.4-17-31.5L242.8,672.3z M243.2,718.9
			c-8.6,1.9-16.4,3.2-23.3,3.5l-4.7-8.6c-2.6-4.7-7.6-14-14.9-27.6c-1.5-2.6-3.5-5.8-6-9.5c0,4.5-0.2,13.2-0.6,25.7
			c-0.4,13.8-2.2,21.1-5,21.4c-1.5-0.4-3.7-0.9-6.7-0.9h-3c-1.3,0-3.2,0-6,0.2c-2.6,0.2-4.7,0.2-6,0.2c-8,0-13.6-1.3-16.6-4.1v-20.7
			c0-16.4,1.1-35.4,3.5-57.2c3.2-27.6,4.7-46.8,5-57.2c15.3-9.1,33.7-13.6,55.4-13.6c12.5,0,23.5,2.4,32.8,7.1
			c11.6,5.8,17.7,14.5,17.7,25.9c0,14.9-2.6,26.8-8,35.6c-5.4,8.8-14.7,17-27.6,24.2l21.8,24.4c10.1,11.4,15.5,20.1,15.7,25.7
			L243.2,718.9z"/>
		<path class="st1" d="M382.6,569.6c-12.9-2.2-27.2-3.2-42.9-3.2h-42.1c-1.1,6-1.9,10.8-2.4,14.2l-0.4,2.8
			c-4.5,28.7-7.1,51.6-7.6,69l-2.4,72.9h1.1l7.1,7.1c11.6,1.3,18.3,1.9,19.6,1.9l68.8-1.5v-36c0-1.3-0.4-2.4-1.5-3.5l-6-6
			c-1.5-3.9-8.6-6.3-21.6-7.1c-4.1-0.2-8.8-0.6-13.8-0.9v-2.6c1.9-0.4,8.6-1.9,20.3-5c3-0.6,5.4-1.5,7.1-2.2
			c2.8-7.1,4.1-17.9,4.1-32.1l-7.1-7.1v-1.1l-17-2.4c0-1.5,0-3.7,0.2-6.5h5.8c10.8,0,22.7-1.1,35.6-3.5l2.6-39.7l-7.3-7.1
			L382.6,569.6z M375.4,606.1c-10.8,1.9-21.4,2.8-31.7,2.8c-3.5,0-6.7,0-9.7,0c-0.2,4.7-0.4,11.6-0.9,21.1l24.6,3.9
			c0,11.2-1.1,19.6-3.2,25.2c-2.2,0.9-6.9,2.2-14,3.7l-8.2,1.7c-2.8,0.6-4.7,1.1-6,1.5v16.8c5.6,0.4,13.8,1.1,25,1.9
			c11.9,1.1,17.9,2.6,17.9,4.5v31.9l-64.7,1.3c-1.3,0-6.3-0.4-15.3-1.3l2.4-68.6c0.6-22.9,3.2-45.5,7.8-68.4c0.9-5,1.7-9.5,2.4-13.4
			h38.2c16,0,28.7,0.9,38,2.4L375.4,606.1z"/>
		<path class="st1" d="M447.9,633.7c-1.3,7.6-1.9,13.4-2.2,17.3l12.7,0.2c2.6,0,5-0.2,7.1-0.6c-1.5-6.9-6.5-18.1-15.3-33.9
			C449.9,620.6,449,626.2,447.9,633.7z"/>
		<path class="st1" d="M486.8,574.2l-6.7-6.7c-0.4-0.6-0.6-1.1-0.9-1.5l-25.5,1.3c-8.4,0.4-14.9,0.6-19.4,0.6h-3l-12.1-0.2
			c-6.7,21.1-12.1,45.5-16.2,73.8l-10.6,73.8c0.4,0,1.1,0.4,1.7,0.9l6.5,6.7c8.8,4.7,19,7.8,30,9.5l6,0.9c2.2,0.2,5.4,0.9,9.7,1.5
			c2.6-5.4,4.7-14,6.3-25.9c1.3-9.7,2.4-15.1,3.2-16.2c0.2-0.4,3.2-1.1,8.6-1.9c0.9,0,2.8-0.2,5.6-0.6c2.2,4.1,4.5,8.4,7.1,12.9
			l15.5,27.2l0.4-0.2l7.3,7.3l43.6-23.3c0.2-1.5,0.4-3.2,0.9-4.7C529,664.8,509.6,619.9,486.8,574.2z M494.5,723.9l-13.2-23.1
			c-4.7-8.2-8.6-16.2-11.9-23.5c-0.4,0-4.7,0.6-12.9,1.7c-6.5,0.9-10.4,1.9-11.4,3.2c-1.5,1.5-2.8,7.6-4.3,18.1
			c-1.5,11.9-3,19.2-4.5,22l-15.1-2.4c-9.9-1.7-17.9-4.1-23.7-7.1l10.1-70.5c3.9-28,8.8-51.1,14.9-69.7l8.6,0.2c2.4,0,5.6,0,9.7-0.2
			l12.9-0.4l22.4-1.1c23.1,46,42.1,90,57.4,132L494.5,723.9z"/>
		<path class="st1" d="M711.6,648c-3.2-42.5-6-67.1-8.2-73.6l-7.1-6.9c0-0.2,0-0.6-0.2-1.3c-1.7,0-4.3,0-8,0.2l-32.6,0.9
			c-1.1,0-8.2,0.2-21.8,0.9c-1.5,5.6-3.9,18.6-7.1,38.8c-0.6,4.7-1.5,9.1-2.4,12.9c-5.2-17.3-9.3-31.1-11.9-42.1l-7.1-7.1v-0.6
			c0-0.2-0.2-0.4-0.2-0.4c-3,0.2-7.6,0.9-13.4,1.5l-5.8,0.9c-0.9,0-2.4,0.2-4.5,0.4c-7.6,0.9-14.9,2.6-22.4,5.2
			c-4.7,10.1-7.6,24.8-8.4,44l-1.5,31.1c-0.2,3.9-0.4,11.2-0.9,22.2c-0.4,12.7-1.5,23.9-2.8,33.4c0.4,1.3,0.9,2.4,1.3,3.7l-2.2,1.1
			c-0.6,3.5-1.3,6.7-1.9,9.7c1.3,1.1,2.4,1.9,3,2.4l5,5c1.9,1.9,4.7,3,7.8,3h3.5c0.4,0,1.9,0,4.7-0.2c8.2-0.2,13.4-0.4,15.5-0.4
			c1.1,0,2.8,0.2,5.2,0.6c2.4,0.4,4.1,0.6,5.2,0.6c6.5,0,9.7-2.6,9.7-7.6v-10.4c1.1,3.5,2.2,6.7,3.5,9.5c0.2,0,0.4-0.2,0.9-0.2
			l7.1,7.1c3.7-0.6,8.6-1.3,15.1-1.7c7.8-0.4,12.7-0.9,15.1-1.3c2.8-0.4,5.8-0.9,9.1-1.5l3.7-13.4c0.4,3,0.9,5.8,1.3,8.4h0.9
			l7.1,7.1h36.2c5,0,9.9-1.1,15.1-3.5c-0.9-18.6-2.4-40.3-4.3-65.6L711.6,648z M694.3,719.1h-32.8c-1.9-11.4-4.5-28.3-7.3-50.9
			c-2.2,9.7-6.3,26.3-12.5,49.4c-3,0.6-12.1,1.5-27.2,2.8c-1.3,0-3.2,0.2-6.3,0.6c-2.2-5.4-4.7-15.3-7.6-29.8
			c-2.6-12.7-5.6-22.7-9.3-29.3l-0.9,37.3c-0.2,8.2-0.2,15.1-0.2,20.3c0,2.2-1.9,3.5-5.6,3.5c-1.1,0-2.8-0.2-5.2-0.6
			c-2.4-0.4-4.1-0.6-5.2-0.6c-0.2,0-5.4,0.2-15.5,0.4c-6.9,0.2-10.6,0.2-11.2,0c2.6-10.6,4.3-26.1,5.2-46.6l2.4-53.3
			c0.9-17.9,3.2-31.5,7.3-40.6c5.6-1.9,11.9-3.5,19.2-4.3c5.2-0.4,11.9-1.3,19.8-2.4c5.2,19,11.9,41.2,20.1,66.9h0.4
			c4.1-8.2,7.1-19.6,9.3-34.1c2.6-18.8,4.7-30.4,6-35.2l36.7-1.3c9.3-0.2,15.3-0.4,18.6-0.4c1.7,4.3,4.1,27.6,7.1,69.7l3.5,46.6
			c0.6,7.8,1.1,17.9,1.7,30C702.3,718.5,698.6,719.1,694.3,719.1z"/>
		<path class="st1" d="M545.2,708.8c-0.2,1.7-0.4,3.2-0.9,4.7l2.2-1.1C546.1,711.2,545.7,710.1,545.2,708.8z"/>
		<path class="st1" d="M846.4,621.4c-0.2-5.8-1.5-11.9-4.3-17.9s-6-11-10.1-14.9l-1.7-1.5h-0.2l-0.2-0.2l0,0l-0.4-0.4
			c-9.7-13.6-22.9-20.3-39.5-20.3c-17.3,0-31.3,4.5-41.9,13.4c-10.6,9.1-17,22-19.2,39.3c1.5,12.7,6.9,23.3,16.6,31.7
			c0.2,0.2,0.6,0.6,1.5,1.3l3.9,3.7c0,0.2,0.4,0.6,0.9,0.9l0.6,0.6c1.1,1.1,5.4,4.3,12.5,9.5h-20.3h-3.2c-3.5,0-5-0.2-4.5-0.2h-7.8
			l-4.5,3.5c-1.1,3.9-1.7,9.7-1.7,17.7c0,15.3,4.5,26.3,13.8,32.6l3.9,3.9c7.8,7.8,21.8,11.4,42.1,11.4c14.9,0,27.2-4.7,37.1-14
			l-0.2-0.2c9.9-9.3,15.1-21.1,15.1-35.8c0-15.1-4.5-27.4-13.6-36.7l-0.6-0.4h0.2l-3-3c-0.2-0.2-1.5-1.7-3.9-4.5
			c-3.2-3-6.9-5.8-11-8.6c5.8-0.9,15.5-3,29.3-6.7L846.4,621.4z M798.1,619.9l-3.7-9.3c-1.7-3.5-4.3-5-7.8-5c-2.8,0-5.2,1.1-7.6,2.8
			c-2.4,1.9-3.5,4.3-3.5,7.1c0,4.1,4.1,8.4,12.5,12.9c11.2,6,19,11.4,23.1,15.5c8.2,8.6,12.5,19.8,12.5,33.9
			c0,13.8-4.5,24.8-13.4,33.2c-9.1,8.4-20.5,12.5-34.3,12.5c-15.3,0-26.5-2.2-33.9-6.3c-9.3-5.4-13.8-15.3-13.8-29.8
			c0-7.3,0.4-12.9,1.5-16.6c3.9,0,8.6,0.2,14,0.2h19c0.6,3.7,1.1,6,1.3,7.1c0.9,3,2.4,5.8,4.5,8.6c0.4,0,0.9,0.2,1.3,0.2h1.5
			c6.9,0,10.4-3.5,10.4-10.6c0-4.1-3.9-8.6-11.6-14c-3.9-2.6-7.8-5.2-11.4-7.8c-4.3-3-8-5.8-10.8-8.6c-8.2-7.8-12.9-16.8-14.2-27.2
			c2.2-15.7,8.2-27.6,17.9-35.8s22.7-12.3,38.6-12.3c11.6,0,21.8,3.9,30.2,11.6c8.6,7.8,12.7,17.5,12.7,29.1c0,0,0.2,0,0.2,0.2
			l-0.2,0.2v-0.4C827.8,613.4,816,616,798.1,619.9z M802.2,631.6c-3.5-2.2-7.6-4.5-11.9-7.1c-1.1-0.4-1.9-0.9-2.8-1.3
			c0.2-2.6,1.7-4.3,4.7-5l2.8,7.3c0.2,0,0.6,0,0.9-0.2L802.2,631.6z M767,668c2.8,2.2,5.8,4.1,8.6,5.8c0.2,0.2,0.6,0.4,1.1,0.9
			c0.4,0.9,0.6,1.5,0.6,1.9c0,2.6-0.9,4.3-2.4,5.2c0-0.4-0.2-1.5-0.4-3l-0.6-3.9L767,668z"/>
	</g>
	<g>
		<path class="st0" d="M437.4,449.8c0-0.1-0.1-0.3-0.1-0.4c-0.6-0.1-1.2-0.1-1.6-0.1c-0.6,0-1,0-1.3,0.1c-0.3,3.4-0.6,6-0.7,7.8
			c2.7-2.1,3.9-4.3,3.9-6.7v-0.7H437.4z"/>
		<path class="st0" d="M109.3,419.3c-0.7,8.1-2.1,16.1-3.9,24.4l-5.4,23.9c-1.5-4.6-2.7-8.4-3.4-11.4l-2.7-11.5
			c-2.4-10-4.6-17.5-6.7-22.7c-3.1-0.7-8.4-1.3-15.7-1.9c-6.7-0.4-10.3-0.6-10.8-0.6L56.8,444c-1.6,10.5-3.7,18.4-6,23.9
			c-1.6-5.1-4.2-13.4-7.3-25.3c-2.8-10.8-5.4-19.1-7.5-25.1c-6.1,1-14.9,2.8-26.7,5.4c6.6,29.9,12,55.1,16.3,76.1
			c1,5.1,2.1,8.7,3,10.8c1.5,3.6,3.6,5.4,6.3,5.5l15.1,0.6c9.4,0.4,14.6,0.6,15.4,0.6c1.9-4.8,3.6-11.2,4.9-19
			c1.6-9.9,2.8-16.3,3.9-19.3c1.9,5.8,4,13.2,6,21.8c3.3,14,4.9,21.4,5.1,22l44.7-3.1l14.9-98.2l-3.4-3.4
			C129.1,418.2,118.5,419,109.3,419.3z"/>
		<path class="st0" d="M222.3,417.2c-1.8,0-3.3,0.1-4.5,0.3c-5.8,1-11.2,2.1-16.1,3.3c-1.2,3.6-1.6,7-1.6,10.3l0.3,9
			c0,3,0,4.8,0,5.1v3.9c0,1.9-0.1,4.9-0.6,9c-3.1,1.2-7.5,1.9-13.2,2.4c0-23.6-0.1-38-0.4-42.9l-7.5-0.1c-2.8,0-7.6,0-14,0.3
			c-5.2,20.2-7.8,53.6-7.8,100.1c0,3.6,1.3,5.4,4,5.4c4.2,0,12.3-0.4,24.4-1.3c-0.4-4.9-0.6-10.8-0.6-17.6v-4.5c0-0.6,0-1,0-1.5
			v-11.7l15.5-1.8l0.3,26.2c0,0.7,0,1.8-0.1,3.1c-0.1,1.5-0.3,2.7-0.3,3.1c0,1.9,0.6,3.4,1.9,4.6l23.9-1.2
			c0.9-5.4,1.3-10.2,1.3-14.5c0-13-0.3-28.7-1-46.9C224.9,434.1,223.7,420,222.3,417.2z"/>
		<path class="st0" d="M828.6,520.1c-1.3-11.4-2.1-23.2-2.7-35.7l-1.5-35.7c16.9,0,27.3,0,31.7-0.3c0.4-3.3,0.7-8.5,0.7-15.5
			c0-6.6-0.3-10.5-0.9-11.5c-1.5,0-3.3-0.1-5.7-0.3l-14.5-1.2c-9.9-0.7-16.6-1.2-20.3-1.2c-15.5,0-27.3,0.6-35.3,1.6
			c-1.6,10.5-3,18.8-4,25c10,1.3,17.5,2.4,22.6,3.1l-5.1,74.7c7-0.6,12.9-1,17.3-1.3C818.9,521.2,824.7,520.7,828.6,520.1z"/>
		<path class="st0" d="M757.5,421.5c-17.8,0-27.5,0.4-29.1,1.2c-1.8,13.3-3,66.6-3,81v14.2l0.4,10.6c10.6,0,20.9-1.6,31.2-4.9
			c0.7-8.7,1-19,1-31.2c0-2.7,0-4.9-0.1-6.4l-0.4-9c-0.3-6-0.1-50.5-0.1-54.8L757.5,421.5z"/>
		<path class="st0" d="M299.7,521.3v-22.1c0-1.3-4.2-2.4-12.4-3.1c-7.8-0.6-13.4-1-17.3-1.3v-11.7c0.9-0.3,2.2-0.6,4.2-1l5.7-1.2
			c4.9-1,8.1-1.9,9.7-2.5c1.5-3.9,2.2-9.7,2.2-17.5l-17-2.7c0.1-6.4,0.4-11.4,0.6-14.6c2.1,0,4.3,0,6.7,0c7.2,0,14.5-0.6,22-1.9
			l1.5-22.6c-6.4-1.2-15.2-1.6-26.3-1.6h-26.5c-0.4,2.8-0.9,6-1.6,9.3c-3,15.8-4.8,31.5-5.4,47.4l-1.6,47.5
			c6.3,0.6,9.7,0.9,10.6,0.9L299.7,521.3z"/>
		<path class="st0" d="M424.4,417.2c-0.4,2.8-0.9,6-1.6,9.3c-3,15.8-4.8,31.5-5.2,47.4l-1.6,47.5c6.3,0.6,9.7,0.9,10.6,0.9l44.8-0.9
			v-22.1c0-1.3-4.2-2.4-12.4-3.1c-7.8-0.6-13.4-1-17.3-1.3v-11.7c0.9-0.3,2.2-0.6,4.2-1l5.7-1.2c4.9-1,8.1-1.9,9.7-2.5
			c1.5-3.9,2.2-9.7,2.2-17.5l-17-2.7c0.1-6.4,0.4-11.4,0.6-14.6c2.1,0,4.3,0,6.7,0c7.2,0,14.5-0.6,22-1.9l1.5-22.6
			c-6.4-1.2-15.2-1.6-26.3-1.6L424.4,417.2L424.4,417.2z"/>
		<path class="st0" d="M349.6,508.2c0.1-8.8,0.3-14.6,0.4-17.8c1.8,2.5,3.3,4.8,4.2,6.6c5.1,9.4,8.5,15.8,10.3,19.1l3.3,6
			c4.8-0.1,10.2-1,16.1-2.4l16-3.9c-0.1-3.9-3.9-9.9-10.9-17.8L374,481.1c9.1-5.1,15.4-10.6,19.1-16.7s5.5-14.3,5.5-24.7
			c0-7.9-4-13.9-12.3-17.9c-6.4-3.3-14-4.9-22.7-4.9c-15.1,0-27.9,3.1-38.4,9.4c-0.1,7.2-1.3,20.5-3.4,39.6
			c-1.6,14.9-2.4,28.2-2.4,39.6v14.3c2.1,1.9,6,2.8,11.5,2.8c0.9,0,2.2,0,4.2-0.1c1.8-0.1,3.3-0.1,4.2-0.1h2.1
			c1.9,0,3.4,0.1,4.6,0.6C348.1,522.8,349.3,517.9,349.6,508.2z M354.6,442c0.9-0.6,2.2-0.9,4-0.9c3,0,5.5,0.7,7.5,2.4
			s2.8,3.9,2.8,6.9c0,3.6-1.8,6.7-5.5,9.4c-3.4,2.5-6.9,3.9-10.6,3.9C353.5,452.6,354.1,445.4,354.6,442z"/>
		<path class="st1" d="M148,419.7L148,419.7l-5.6-5.8c-14.6,1.3-26.6,2.1-36,2.4c-1,8.7-2.4,17.5-4,26.5c-0.3,1-0.6,2.2-0.9,3.7
			c0,0.1,0,0.4-0.1,0.7c-1.9-8.2-4.2-15.7-6.7-22.3l-4.8-4.6l-0.3-0.9c-4-0.9-10-1.6-17.8-2.4c-5.2-0.4-8.7-0.6-9.9-0.6
			c-1.5,0-2.8,0.6-4.2,1.9l-4,25.4c0,0.6-0.3,1.8-0.6,3.6l-0.6,3.4l-0.4-1.6c-2.8-11.4-5.8-21.2-8.8-29.4l-4.8-4.8
			c0-0.1-0.1-0.4-0.3-0.9c-5.4,0.7-12.4,2.1-20.9,3.9l-8.8,1.9l-2.7,0.9l16.9,79.2c0.6,3.1,1.6,6.9,3.1,11.4c1.3,3,3,5.1,5.1,6.4
			l3.6,3.6c1.6,1.6,3.6,2.4,5.8,2.4c0.7,0,5.7,0.1,14.9,0.6c7.8,0.3,12.6,0.6,14.3,0.6h3.1c2.2-5.7,4-12.1,5.4-19.4l3.4,14.2
			c0.4,1.9,0.9,3.9,1.5,6l0.4-0.1l5.1,5.1l49.3-3.6l15.5-101.9l-5.1-4.9v-0.4H148V419.7z M129.8,518.8l-44.7,3.1
			c-0.1-0.6-1.8-7.9-5.1-22c-2.1-8.7-4-16-6-21.8c-0.9,3-2.2,9.4-3.9,19.3c-1.3,7.9-3,14.2-4.9,19c-0.7,0-6-0.1-15.4-0.6l-15.1-0.6
			c-2.7-0.1-4.6-1.9-6.3-5.5c-0.9-2.1-1.9-5.7-3-10.8c-4.3-20.9-9.7-46.2-16.3-76.1c11.8-2.7,20.6-4.5,26.7-5.4
			c2.1,6,4.5,14.3,7.5,25.1c3.1,11.8,5.7,20.2,7.3,25.3c2.4-5.5,4.3-13.6,6-23.9l3.9-24.5c0.3-0.1,3.9,0,10.8,0.6
			c7.3,0.6,12.6,1.2,15.7,1.9c2.1,5.2,4.3,12.7,6.7,22.7l2.7,11.5c0.7,3,1.8,6.7,3.4,11.4l5.4-23.9c1.8-8.1,3.1-16.3,3.9-24.4
			c9.1-0.3,19.7-1,31.8-2.1l3.4,3.4L129.8,518.8z"/>
		<path class="st1" d="M229.3,419.6l-4.6-4.6c-0.1-0.1-0.3-0.6-0.4-0.9c-4,0-8.4,0.6-13,1.6c-3.1,0.7-5.2,1.2-6.4,1.3l-4.8,0.9h-0.4
			c-0.1,0-0.3,0.1-0.4,0.1c-1.6,5.1-2.4,9.4-2.4,13.3l0.1,17.8c0,0.4-0.1,2.7-0.4,6.7c-0.7,0.3-1.5,0.4-1.9,0.6v-23.5
			c0-4.2-0.1-8.4-0.4-12.7l-5.4-5.4l-12.6-0.6c-0.6,0-1.5,0-2.7,0l-7.5,0.1c-0.7,0-2.1,0-3.9,0.1c-5.5,22-8.4,56.3-8.4,103.3
			c0,4,1.2,6.7,3.6,7.9l4,4c1.2,1.2,2.7,1.6,4.9,1.6c4.3,0,12.6-0.4,24.5-1.3l2.7-3.1c-0.3-4.9-0.6-10.8-0.6-17.3V505
			c0-0.6,0-1,0-1.3v-9.3l4.2-0.4l0.1,17.6v1.9c0,2.1,0,3.3,0,3.6c0,2.8,1.3,5.5,4,7.8h0.3l4.2,4.2c0.1,0.1,0.3,0.3,0.6,0.6l0.3,0.3
			l27-1.3c1.2-7.2,1.6-13,1.6-17.2c0-13-0.3-28.7-1-47.1C233.1,439.1,231.4,424,229.3,419.6z M225.6,520.7l-23.9,1.2
			c-1.3-1-1.9-2.5-1.9-4.6c0-0.6,0.1-1.6,0.3-3.1c0.1-1.3,0.3-2.4,0.1-3.1l-0.3-26.2l-15.5,1.8v11.7c0,0.4,0,0.9,0,1.5v4.5
			c0,6.7,0.1,12.7,0.6,17.6c-12,0.9-20.2,1.3-24.4,1.3c-2.7,0-4-1.8-4-5.4c0-46.5,2.5-79.8,7.8-100.1c6.6-0.3,11.2-0.4,14-0.3
			l7.5,0.1c0.3,4.9,0.4,19.3,0.4,42.9c5.7-0.4,10-1.2,13.2-2.4c0.4-4,0.6-7.2,0.6-9v-3.9c0-0.3,0-2.1,0-5.1l-0.3-9
			c0-3.3,0.4-6.7,1.6-10.3c4.9-1.2,10.3-2.2,16.1-3.3c1.2-0.1,2.7-0.3,4.5-0.3c1.3,2.7,2.7,16.9,3.6,42.3c0.7,18.2,1,33.9,1,46.9
			C226.9,510.6,226.5,515.5,225.6,520.7z"/>
		<path class="st1" d="M260.3,530.4l47.7-1v-25c0-0.9-0.3-1.6-1-2.4l-4.2-4.2c-1-2.7-6-4.3-14.9-4.9c-2.8-0.1-6.1-0.4-9.6-0.6v-1.8
			c1.3-0.3,6-1.3,14-3.4c2.1-0.4,3.7-1,4.9-1.5c1.9-4.9,2.8-12.4,2.8-22.3l-4.9-4.9v-0.7l-11.8-1.6c0-1,0-2.5,0.1-4.5h4
			c7.5,0,15.7-0.7,24.7-2.4l1.8-27.5l-5.1-4.9l0.1-0.6c-9-1.5-18.8-2.2-29.7-2.2h-29.1c-0.7,4.2-1.3,7.5-1.6,9.9l-0.3,1.9
			c-3.1,19.9-4.9,35.7-5.2,47.8l-1.6,50.5h0.7l4.9,4.9C254.7,530.1,259.4,530.4,260.3,530.4z M245.9,473.8
			c0.4-15.8,2.2-31.5,5.4-47.4c0.6-3.4,1.2-6.6,1.6-9.3h26.5c11.1,0,19.9,0.6,26.3,1.6l-1.5,22.6c-7.5,1.3-14.8,1.9-22,1.9
			c-2.4,0-4.6,0-6.7,0c-0.1,3.3-0.3,8.1-0.6,14.6l17,2.7c0,7.8-0.7,13.6-2.2,17.5c-1.5,0.6-4.8,1.5-9.7,2.5l-5.7,1.2
			c-1.9,0.4-3.3,0.7-4.2,1v11.7c3.9,0.3,9.6,0.7,17.3,1.3c8.2,0.7,12.4,1.8,12.4,3.1v22.1l-44.8,0.9c-0.9,0-4.3-0.3-10.6-0.9
			L245.9,473.8z"/>
		<path class="st1" d="M368.9,450.3c0-3-0.9-5.2-2.8-6.9s-4.3-2.4-7.5-2.4c-1.8,0-3.1,0.3-4,0.9c-0.4,3.4-1,10.6-1.8,21.7
			c3.7,0,7.2-1.3,10.6-3.9C367.1,457.1,368.9,453.9,368.9,450.3z M361.7,456.9c0.1-1.6,0.4-4.3,0.7-7.8c0.3,0,0.7-0.1,1.3-0.1
			s1.2,0,1.6,0.1c0,0.1,0,0.3,0.1,0.4v0.6C365.8,452.6,364.4,454.8,361.7,456.9z"/>
		<path class="st1" d="M351.1,531.3c4.5-0.7,6.7-6.6,6.7-17.8v-3.4c0,0.1,0,0.3,0.1,0.4c3,5.8,5.7,10.8,8.1,14.8h0.6l4.9,4.9
			c6-0.3,12.1-1.2,18.4-2.7l18.4-4.3c-0.3-6.1-4.2-13.4-11.8-21.8l-12.7-14c8.4-5.1,14.5-10.9,18.1-17.5c3.4-6.4,5.1-14.6,5.1-24.7
			c0-6.1-2.1-11.1-6.1-15.1l-2.5-2.4c-2.4-3.4-5.8-6.3-10.3-8.7c-6.7-3.4-14.8-5.2-24.1-5.2c-15.8,0-29.6,3.6-41.5,10.8
			c-0.1,8.2-1.3,22-3.4,41.1c-1.6,14.2-2.4,26.7-2.4,37.8v1.9l0.1,15.7c0.4,0.3,1,0.9,1.9,1.5l3.6,3.7c2.8,3,7.8,4.5,14.5,4.5h1.3
			c0.6,0,1.3,0,1.9-0.1h0.1c0.4,0,1.3,0,2.4-0.1c1,0,1.8-0.1,2.4-0.1h2.1C348.4,530.7,349.9,530.9,351.1,531.3z M341.6,522.5h-2.1
			c-0.9,0-2.2,0-4.2,0.1c-1.8,0.1-3.3,0.1-4.2,0.1c-5.5,0-9.4-0.9-11.5-2.8v-14.3c0-11.4,0.7-24.5,2.4-39.6
			c2.2-19.1,3.3-32.4,3.4-39.6c10.6-6.3,23.3-9.4,38.4-9.4c8.7,0,16.3,1.6,22.7,4.9c8.1,4,12.3,10,12.3,17.9
			c0,10.3-1.8,18.5-5.5,24.7c-3.7,6.1-10.2,11.8-19.1,16.7l15.1,16.9c7,7.9,10.8,13.9,10.9,17.8l-16,3.9c-6,1.3-11.4,2.2-16.1,2.4
			l-3.3-6c-1.8-3.3-5.2-9.7-10.3-19.1c-1-1.8-2.4-4-4.2-6.6c0,3.1-0.1,9.1-0.4,17.8c-0.3,9.6-1.5,14.6-3.4,14.8
			C345,522.7,343.5,522.5,341.6,522.5z"/>
		<path class="st1" d="M480.5,416.3c-9-1.5-18.8-2.2-29.7-2.2h-29.1c-0.7,4.2-1.3,7.5-1.6,9.9l-0.3,1.9c-3.1,19.9-4.9,35.7-5.2,47.8
			l-1.6,50.5h0.7l4.9,4.9c8.1,0.9,12.7,1.3,13.6,1.3l47.7-1v-25c0-0.9-0.3-1.6-1-2.4l-4.2-4.2c-1-2.7-6-4.3-14.9-4.9
			c-2.8-0.1-6.1-0.4-9.6-0.6v-1.8c1.3-0.3,6-1.3,14-3.4c2.1-0.4,3.7-1,4.9-1.5c1.9-4.9,2.8-12.4,2.8-22.3l-4.9-4.9v-0.7l-11.8-1.6
			c0-1,0-2.5,0.1-4.5h4c7.5,0,15.7-0.7,24.7-2.4l1.8-27.5l-5.1-4.9L480.5,416.3z M475.6,441.5c-7.5,1.3-14.8,1.9-22,1.9
			c-2.4,0-4.6,0-6.7,0c-0.1,3.3-0.3,8.1-0.6,14.6l17,2.7c0,7.8-0.7,13.6-2.2,17.5c-1.5,0.6-4.8,1.5-9.7,2.5l-5.7,1.2
			c-1.9,0.4-3.3,0.7-4.2,1v11.7c3.9,0.3,9.6,0.7,17.3,1.3c8.2,0.7,12.4,1.8,12.4,3.1v22.1l-44.8,0.9c-0.9,0-4.3-0.3-10.6-0.9
			l1.6-47.5c0.4-15.8,2.2-31.5,5.2-47.4c0.6-3.4,1.2-6.6,1.6-9.3h26.5c11.1,0,19.9,0.6,26.3,1.6L475.6,441.5z"/>
		<path class="st1" d="M725.3,420.6c-1.9,14.5-3.3,68.4-3.3,82.9v14.3l0.6,13.7h0.6l4.9,4.9c12.6,0,24.7-1.9,36.5-5.7
			c0.9-10.3,1.3-21.4,1.3-33.3c0-2.8,0-4.9-0.1-6.4l-0.4-9c-0.3-6-0.1-50.4-0.1-54.2l0.6-4l-5.1-4.9v-0.3l-27.6,0.4
			C729.2,419.6,726.5,420,725.3,420.6z M757.9,485.9c0,1.5,0.1,3.6,0.1,6.4c0,12.1-0.3,22.6-1,31.2c-10.2,3.3-20.6,4.9-31.2,4.9
			l-0.4-10.6v-14.2c0-14.3,1.2-67.7,3-81c1.5-0.7,11.2-1.2,29.1-1.2l-0.1,0.7c0,4.3-0.1,48.9,0.1,54.8L757.9,485.9z"/>
		<path class="st1" d="M803.9,530.9c5.1-0.4,13.2-1.2,24.1-1.9c3.4-0.3,6.4-0.6,9-0.9c0,0-0.3-2.8-0.7-8.2l-0.9-9.4
			c-0.6-7.2-1-14-1.3-20.6l-1.3-32.7h8.5c1,0,3.4,0,7.5-0.1l12-0.1c0.7,0,1.9,0,3.4-0.1c0.7-5.4,1-11.5,1-18.4
			c0-7-0.7-11.8-2.2-14.3l-4.6-4.5c0-0.4-0.3-0.7-0.6-1.2c-4.2-0.1-11.2-0.6-21.1-1.5c-9.1-0.7-16.1-1.2-21.1-1.2
			c-16.6,0-29.3,0.7-38.1,1.9c-0.6,3.6-1,6.4-1.3,8.7l-2.7,16.3c0,0.1-0.3,2.1-0.9,5.7c0.1,0,0.6,0,0.9,0.1l4.8,4.8l9.1,1.2
			c0.4,0,3,0.4,7.8,1.2l-4.8,71.3h0.1c0.1,0,0.3-0.1,0.3-0.1l5.1,5.1L803.9,530.9z M798.8,448.4c-5.1-0.7-12.6-1.8-22.6-3.1
			c1-6.1,2.4-14.5,4-25c7.9-1.2,19.7-1.6,35.3-1.6c3.7,0,10.5,0.4,20.3,1.2l14.5,1.2c2.2,0.1,4.2,0.3,5.7,0.3
			c0.6,1,0.9,4.9,0.9,11.5c0,7.2-0.3,12.4-0.7,15.5c-4.3,0.3-14.9,0.4-31.7,0.3l1.5,35.7c0.4,12.4,1.3,24.4,2.7,35.7
			c-3.9,0.6-9.7,1-17.5,1.6c-4.6,0.3-10.5,0.7-17.3,1.3L798.8,448.4z"/>
		<g>
			<g>
				<circle class="st1" cx="604.9" cy="474.1" r="67.4"/>
				<path class="st6" d="M607.9,491C607.9,491,608,491,607.9,491C607.9,491.1,607.9,491,607.9,491L607.9,491z"/>
				<path class="st13" d="M563.4,450.6c-1.5-0.4-3-1.2-4.2-2.4c-3.7-3.7-3.7-9.9,0-13.7c1.9-1.9,4.3-2.8,6.9-2.8
					c2.5,0,4.9,0.9,6.9,2.8c1.5,1.5,2.4,3.4,2.7,5.5c0,0,0.1-0.1,0.4-0.4c0.9-1,1.8-2.1,2.7-3.1c1-1,2.1-2.1,3.1-3.1
					c8.5-8.2,21.2-16.3,39.2-18.5c0,0-4,2.8-7.9,7c7.8-1.2,16.4-1,26,1.3c0,0-10.5,2.7-16.6,8.1c-0.4,0.3-0.7,0.7-1.2,1
					c-0.3,0.4-0.7,0.7-1,1.2c4.8,1.5,9.4,3.7,13.7,6.6c0.3-1.9,1.2-3.9,2.7-5.5c1.9-1.9,4.3-2.8,6.9-2.8c2.5,0,4.9,0.9,6.9,2.8
					c3.7,3.7,3.7,9.9,0,13.7c-1.2,1.2-2.7,1.9-4.2,2.4c10,11.2,17,26.6,19.3,43.9c2.1-6.4,3.3-13.3,3.3-20.3
					c0-35.4-28.7-64.1-64.1-64.1s-64.1,28.7-64.1,64.1c0,7.2,1.2,13.9,3.3,20.3c0.1-1.3,0.4-2.7,0.6-4
					C547.5,474.7,554.1,461,563.4,450.6z"/>
				<path class="st6" d="M601.9,491.1C601.9,491.1,602,491.1,601.9,491.1l0.1-0.2C602.1,491,602.1,491.1,601.9,491.1z"/>
				<path class="st6" d="M583.4,454.4L583.4,454.4c0.8,0.3,1.5,1,1.5,2.1l0,0C585,455.6,584.3,454.7,583.4,454.4z"/>
				<path class="st6" d="M580.4,456.6c0-0.1,0-0.3,0-0.4l0,0C580.4,456.3,580.4,456.5,580.4,456.6L580.4,456.6z"/>
				<path class="st8" d="M564.3,515.7c-0.9-1.5-1.3-2.4-1.3-2.4s0.4,0.9,1,2.5s1.5,4,2.2,6.9c0.3,0.9,0.6,1.9,0.7,3
					c0.7,0.6,1.6,1.2,2.5,1.8c-0.6-1.9-1.3-3.7-1.9-5.2C566.2,519.4,565,517.1,564.3,515.7z"/>
				<path class="st8" d="M646.2,515.8c0.6-1.6,1-2.5,1-2.5s-0.6,0.9-1.3,2.4c-0.9,1.5-1.9,3.7-3.1,6.6c-0.6,1.6-1.3,3.3-1.9,5.2
					c0.9-0.6,1.6-1.2,2.5-1.8c0.3-1,0.6-2.1,0.7-3C644.7,519.8,645.6,517.4,646.2,515.8z"/>
				<path class="st6" d="M584.4,464.5c2.8,0,5.1-2.2,5.1-5.1l0,0C589.5,462.2,587.3,464.5,584.4,464.5c-2.8-0.1-5.1-2.4-5.1-5.2l0,0
					C579.4,462.3,581.6,464.5,584.4,464.5z"/>
				<path class="st9" d="M589.2,496.1L589.2,496.1c0.3,0,0.6,0,0.9,0C589.8,495.9,589.5,496.1,589.2,496.1L589.2,496.1z"/>
				<path class="st9" d="M589.5,499.4c0.3,2.1,0.9,4.2,1.5,6c0.6,1.5,1.8,2.4,3.1,2.4h5.2c1.9,0,3.4-1.8,3.4-3.9v-9.4
					c-0.9,0.7-1.8,1.3-2.8,1.9C596.9,498.2,593.3,499.2,589.5,499.4z"/>
				<path class="st9" d="M607,494.4v9.4c0,2.2,1.5,3.9,3.4,3.9h5.2c1.3,0,2.7-0.9,3.1-2.4c0.7-1.9,1.2-3.9,1.5-6
					c-3.7-0.1-7.3-1.2-10.5-2.8C608.8,495.8,607.9,495.2,607,494.4z"/>
				<path class="st9" d="M620.8,468c0.9,0.6,1.9,1.2,3,1.5c0.6,0.1,1.2,0.1,1.8,0.1c5.7,0,10.3-4.6,10.3-10.3s-4.6-10.3-10.3-10.3
					c-5.7,0-10.3,4.6-10.3,10.3c0,2.5,0.9,4.8,2.4,6.6C618.7,466.6,619.7,467.2,620.8,468z M621.7,456.2c0,0.1,0,0.3,0,0.4
					c0,1.2,1,2.2,2.2,2.2s2.2-1,2.2-2.2c0-1-0.7-1.9-1.6-2.2c0.3-0.1,0.7-0.1,1.2-0.1c2.8,0,5.1,2.2,5.1,5.1c0,2.8-2.2,5.1-5.1,5.1
					s-5.1-2.2-5.1-5.1C620.5,458.3,620.9,457.1,621.7,456.2z"/>
				<path class="st9" d="M584.4,469.8c0.6,0,1.2,0,1.8-0.1c1-0.4,2.1-0.9,3-1.5c1-0.7,2.1-1.5,3.1-1.9c1.5-1.8,2.4-4,2.4-6.6
					c0-5.7-4.6-10.3-10.3-10.3c-5.7,0-10.3,4.6-10.3,10.3C574.1,465.1,578.8,469.8,584.4,469.8z M579.4,459.3c0-1.2,0.4-2.4,1.2-3.3
					v0.1l0,0c0,0.1,0,0.3,0,0.4c0,1.2,1,2.2,2.2,2.2s2.2-1,2.2-2.2c0-1-0.7-1.9-1.6-2.1h0.1c0,0-0.1,0-0.1-0.1
					c0.3-0.1,0.7-0.1,1.2-0.1c2.8,0,5.1,2.2,5.1,5.1l0,0l0,0c0,2.8-2.2,5.1-5.1,5.1C581.6,464.5,579.4,462.3,579.4,459.3
					C579.4,459.5,579.4,459.5,579.4,459.3C579.4,459.5,579.4,459.3,579.4,459.3z"/>
				<path class="st10" d="M618.8,471.6c-0.1-0.1-0.3-0.1-0.3-0.3c-0.7-0.4-1.3-0.9-1.9-1.3c-0.1-0.1-0.3-0.1-0.4-0.3
					c-0.6-0.4-1.3-0.7-2.4-1.2c-1.8-0.7-4.2-1.2-6.7-1.3c-0.6,0-1.3,0-1.9,0s-1.3,0-1.9,0c-2.5,0.1-4.9,0.6-6.7,1.3
					c-0.9,0.3-1.6,0.7-2.4,1.2c-0.1,0.1-0.3,0.1-0.4,0.3c-0.6,0.4-1.3,0.7-1.9,1.3c-0.1,0.1-0.3,0.1-0.3,0.3
					c-7.8,5.2-19.4,0.6-19.4,9c0,8.5,7.8,15.4,17.3,15.4l0,0c0.3,0,0.6,0,0.7,0c3.9-0.1,9.6-3.4,12-4.8l0.1-0.1v0.1
					c0.4-0.3,0.7-0.4,0.9-0.6c0.6-0.4,1.3-0.9,2.1-0.9c0.6,0,1.3,0.4,2.1,0.9c0.1,0,0.4,0.3,0.9,0.6v-0.1l0.1,0.1
					c2.4,1.5,8.1,4.6,12,4.8c0.3,0,0.6,0,0.7,0l0,0c9.6,0,17.3-6.9,17.3-15.4C638.2,472.2,626.6,476.9,618.8,471.6z M614.6,480.7
					c-1.9,3.1-5.5,5.4-9.6,5.4s-7.6-2.1-9.6-5.4c-1-1.8-1.6-3.7-1.6-6c0-2.8,4.9-4.5,10.2-4.6c0.4,0,0.7,0,1.2,0c0.4,0,0.7,0,1.2,0
					c5.2,0.1,10.2,1.8,10.2,4.6C616.3,476.8,615.7,478.9,614.6,480.7z"/>
				<path class="st9" d="M619.9,495.9c0.3,0,0.6,0,0.9,0l0,0l0,0C620.5,496.1,620.2,495.9,619.9,495.9z"/>
				<path class="st8" d="M584.4,464.5c2.8,0,5.1-2.2,5.1-5.1s-2.2-5.1-5.1-5.1c-0.3,0-0.6,0-1,0.1c0.9,0.3,1.5,1.2,1.5,2.1l0,0l0,0
					c0,1.2-1,2.2-2.2,2.2s-2.2-1-2.2-2.2l0,0l0,0c0-0.1,0-0.3,0-0.4c-0.7,0.9-1.2,1.9-1.2,3.3C579.4,462.2,581.6,464.5,584.4,464.5z
					"/>
				<path class="st8" d="M580.6,456c-0.7,0.9-1.2,2.1-1.2,3.3l0,0C579.4,458.1,579.8,457.1,580.6,456
					C580.6,456.2,580.6,456,580.6,456z"/>
				<path class="st8" d="M582.7,458.9c1.2,0,2.2-1,2.2-2.2l0,0C584.9,457.8,584,458.9,582.7,458.9c-1.2-0.1-2.2-1-2.2-2.4l0,0
					C580.4,458,581.5,458.9,582.7,458.9z"/>
				<path class="st8" d="M589.5,459.5C589.5,459.5,589.5,459.3,589.5,459.5c0-2.8-2.2-5.2-5.1-5.2c-0.4,0-0.7,0-1.2,0.1
					c0,0,0.1,0,0.1,0.1c0.3,0,0.6-0.1,1-0.1C587.3,454.4,589.5,456.6,589.5,459.5z"/>
				<path class="st8" d="M625.5,464.5c2.8,0,5.1-2.2,5.1-5.1s-2.2-5.1-5.1-5.1c-0.4,0-0.7,0-1.2,0.1c1,0.3,1.6,1.2,1.6,2.2
					c0,1.2-1,2.2-2.2,2.2s-2.2-1-2.2-2.2c0-0.1,0-0.3,0-0.4c-0.7,0.9-1.2,2.1-1.2,3.3C620.5,462.3,622.7,464.5,625.5,464.5z"/>
				<path class="st8" d="M665.7,494.4c-2.2-17.3-9.1-32.6-19.3-43.9c1.5-0.4,3-1.2,4.2-2.4c3.7-3.7,3.7-9.9,0-13.7
					c-1.9-1.9-4.3-2.8-6.9-2.8c-2.5,0-4.9,0.9-6.9,2.8c-1.5,1.5-2.4,3.4-2.7,5.5c-4.3-2.8-9-5.1-13.7-6.6c0.3-0.4,0.6-0.7,1-1.2
					c0.3-0.4,0.7-0.7,1.2-1c6.1-5.4,16.6-8.1,16.6-8.1c-9.6-2.2-18.2-2.4-26-1.3c3.9-4,7.9-7,7.9-7c-17.9,2.1-30.6,10.3-39.2,18.5
					c-1,1-2.1,2.1-3.1,3.1s-1.9,2.1-2.7,3.1c-0.3,0.3-0.4,0.4-0.4,0.4c-0.3-1.9-1.2-3.9-2.7-5.5c-1.9-1.9-4.3-2.8-6.9-2.8
					c-2.5,0-4.9,0.9-6.9,2.8c-3.7,3.7-3.7,9.9,0,13.7c1.2,1.2,2.7,1.9,4.2,2.4c-9.3,10.3-16,24.2-18.7,39.8c-0.3,1.3-0.4,2.7-0.6,4
					c4.2,12.6,12.3,23.5,22.7,31.2c-0.3-1-0.6-2.1-0.7-3c-0.9-2.8-1.6-5.2-2.2-6.9s-1-2.5-1-2.5s0.6,0.9,1.3,2.4
					c0.9,1.5,1.9,3.7,3.1,6.6c0.6,1.6,1.3,3.3,1.9,5.2c5.2,3.4,10.9,6.3,17,8.1c3.1-7.6,10.2-13.9,18.5-13.9
					c8.4,0,15.4,6.3,18.5,13.9c6.1-1.8,11.8-4.6,17-8.1c0.6-1.9,1.3-3.7,1.9-5.2c1.2-2.8,2.4-4.9,3.1-6.6c0.9-1.5,1.3-2.4,1.3-2.4
					s-0.4,0.9-1,2.5s-1.5,4-2.2,6.9c-0.3,0.9-0.6,1.9-0.7,3C653.5,517.9,661.6,507,665.7,494.4z M625.5,449.2
					c5.7,0,10.3,4.6,10.3,10.3s-4.6,10.3-10.3,10.3c-0.6,0-1.2,0-1.8-0.1c-1-0.4-2.1-0.9-3-1.5c-1-0.7-2.1-1.5-3.1-1.9
					c-1.5-1.8-2.4-4-2.4-6.6C615.2,453.8,619.9,449.2,625.5,449.2z M584.4,449.2c5.7,0,10.3,4.6,10.3,10.3c0,2.5-0.9,4.8-2.4,6.6
					c-1,0.6-2.1,1.2-3.1,1.9c-0.9,0.6-1.9,1.2-3,1.5c-0.6,0.1-1.2,0.1-1.8,0.1c-5.7,0-10.3-4.6-10.3-10.3
					C574.1,453.8,578.8,449.2,584.4,449.2z M566.1,445.7c-2.5,0-4.5-2.1-4.5-4.5c0-2.5,2.1-4.5,4.5-4.5c2.5,0,4.5,2.1,4.5,4.5
					C570.7,443.8,568.6,445.7,566.1,445.7z M603,503.8c0,2.2-1.5,3.9-3.4,3.9h-5.2c-1.3,0-2.7-0.9-3.1-2.4c-0.7-1.9-1.2-3.9-1.5-6
					c3.7-0.1,7.3-1.2,10.5-2.8c1-0.6,1.9-1.2,2.8-1.9L603,503.8L603,503.8z M618.8,505.3c-0.6,1.5-1.8,2.4-3.1,2.4h-5.2
					c-1.9,0-3.4-1.8-3.4-3.9v-9.4c0.9,0.7,1.8,1.3,2.8,1.9c3.1,1.8,6.7,2.8,10.5,2.8C620,501.5,619.6,503.4,618.8,505.3z
					 M620.8,496.1L620.8,496.1c-0.3,0-0.6,0-0.9,0c-4.6-0.1-8.8-1.9-12-4.8c0,0-0.1,0-0.1-0.1l0.1,0.1c0,0-0.4-0.3-0.9-0.7
					c-0.6-0.4-1.3-0.9-2.1-0.9c-0.6,0-1.3,0.4-2.1,0.9c-0.6,0.4-0.9,0.7-0.9,0.7l0.1-0.1c0,0-0.1,0-0.1,0.1c-3,2.8-7.2,4.6-12,4.8
					c-0.3,0-0.6,0-0.9,0l0,0c-9.6,0-17.3-6.9-17.3-15.4c0-8.4,11.7-3.7,19.4-9c0.1-0.1,0.3-0.1,0.3-0.3c0.7-0.4,1.3-0.9,1.9-1.3
					c0.1-0.1,0.3-0.1,0.4-0.3c0.6-0.4,1.3-0.7,2.4-1.2c1.8-0.7,4.2-1.2,6.7-1.3c0.6,0,1.3,0,1.9,0s1.3,0,1.9,0
					c2.5,0.1,4.9,0.6,6.7,1.3c0.9,0.3,1.6,0.7,2.4,1.2c0.1,0.1,0.3,0.1,0.4,0.3c0.6,0.4,1.3,0.7,1.9,1.3c0.1,0.1,0.3,0.1,0.3,0.3
					c7.8,5.2,19.4,0.6,19.4,9C638.2,489.1,630.3,495.9,620.8,496.1z M643.8,445.7c-2.5,0-4.5-2.1-4.5-4.5c0-2.5,2.1-4.5,4.5-4.5
					c2.5,0,4.5,2.1,4.5,4.5C648.4,443.8,646.3,445.7,643.8,445.7z M648.6,511.9c0,0-5.7,6.4-6.4,14.5"/>
				<path class="st8" d="M619.9,495.9c-3.9-0.1-9.6-3.4-12-4.8C611,494,615.2,495.8,619.9,495.9z"/>
				<path class="st8" d="M601.9,491.3c0,0,0.4-0.3,0.9-0.7C602.7,490.6,602.4,490.9,601.9,491.3L601.9,491.3z"/>
				<path class="st8" d="M607.9,491.3L607.9,491.3c-0.5-0.4-0.8-0.5-1-0.7C607.6,490.8,607.9,491.3,607.9,491.3z"/>
				<path class="st8" d="M601.9,491.1c-2.4,1.5-8.1,4.6-12,4.8C594.8,495.8,598.9,494,601.9,491.1z"/>
				<path class="st1" d="M606.1,470.1c-0.4,0-0.7,0-1.2,0c-0.4,0-0.7,0-1.2,0c-5.2,0.1-10.2,1.8-10.2,4.6c0,2.2,0.6,4.2,1.6,6
					c1.9,3.1,5.5,5.4,9.6,5.4s7.6-2.1,9.6-5.4c1-1.8,1.6-3.7,1.6-6C616.3,471.7,611.3,470.2,606.1,470.1z"/>
				<path class="st10" d="M623.6,535.5c-3.1-7.6-10.2-13.9-18.5-13.9c-8.4,0-15.4,6.3-18.5,13.9c5.8,1.8,12.1,2.7,18.5,2.7
					C611.5,538.2,617.6,537.3,623.6,535.5z"/>
				<path class="st10" d="M566.1,436.8c-2.5,0-4.5,2.1-4.5,4.5c0,2.5,2.1,4.5,4.5,4.5c2.5,0,4.5-2.1,4.5-4.5
					C570.7,438.7,568.6,436.8,566.1,436.8z"/>
				<path class="st10" d="M648.4,441.2c0-2.5-2.1-4.5-4.5-4.5c-2.5,0-4.5,2.1-4.5,4.5c0,2.5,2.1,4.5,4.5,4.5
					S648.4,443.8,648.4,441.2z"/>
			</g>
			<g>
				<g>
					<g>
						<path class="st1" d="M599.4,453.3c0,0.3,0,0.6-0.1,0.9c0,0.3-0.1,0.7-0.1,1c-2.8,20.6-16.6,20.5-18.7,20.5
							c-7.6-0.1-11.5-4.8-13.2-10.2c-1.8-5.7-1.3-12.1-0.4-14.8c1.9-5.5,9.4-7.6,14.6-7.6c2.2,0,10.5-0.9,14.8,2.7
							C598.3,447.4,599.7,449.8,599.4,453.3z"/>
						<path class="st1" d="M629.4,475.9c-1.8,0-12.6,0.1-17-13.4c-0.7-2.1-1.2-4.3-1.6-7.2c0-0.3-0.1-0.7-0.1-1s0-0.6-0.1-0.9
							c-0.6-12.1,14.6-10.2,17.8-10.2c2.8,0,6.4,0.6,9.3,2.1c2.5,1.2,4.5,3,5.4,5.5C644.8,456.2,645,475.6,629.4,475.9z"/>
					</g>
					<g>
						<path class="st14" d="M596.6,445.9l-29.1,19.9c-1.8-5.7-1.3-12.1-0.4-14.8c1.9-5.5,9.4-7.6,14.6-7.6
							C583.8,443.2,592.1,442.3,596.6,445.9z"/>
						<path class="st14" d="M637.6,445.3l-25.3,17.2c-0.7-2.1-1.2-4.3-1.6-7.2c0-0.3-0.1-0.7-0.1-1s0-0.6-0.1-0.9
							c-0.6-12.1,14.6-10.2,17.8-10.2C631.2,443.2,634.7,443.8,637.6,445.3z"/>
					</g>
				</g>
				<path class="st1" d="M628.5,441.7h-47.2c-13,0-17.6,7.3-17.2,15.7c0.4,8.4,3,20,15.8,20s18.8-10.8,20.3-16.4
					c0.6-2.1,1.2-3.3,1.9-4c1.3-1.3,2.5-1,2.5-1s3.1-0.6,4.5,5.1c0,0.1,0.1,0.4,0.1,0.6c1.8,5.8,7.8,15.7,20.2,15.7
					c12.9,0,15.4-11.7,15.8-20C646.2,449,641.7,441.7,628.5,441.7z M599.4,453.3c0,0.3,0,0.6-0.1,0.9c0,0.3-0.1,0.7-0.1,1
					c-2.8,20.6-16.6,20.5-18.7,20.5c-15.5-0.1-15.4-19.7-13.6-25c1.9-5.5,9.4-7.6,14.6-7.6C584.9,443.2,600.1,441.4,599.4,453.3z
					 M608.8,450.5c0,0.4-0.4,0.6-0.7,0.6c-0.7-0.1-1.9-0.1-3-0.1c-0.7,0-1.8,0.1-2.5,0.1c-0.1,0-0.3,0-0.4,0c-0.4,0-0.7-0.3-0.7-0.6
					c-0.3-2.2-1.5-4.5-2.2-5.7c-0.3-0.4,0-1,0.6-1h10.8c0.6,0,0.9,0.6,0.6,1c-0.4,0.6-0.9,1.5-1.3,2.5
					C609.3,448.3,609,449.5,608.8,450.5z M629.4,475.9c-2.1,0-16,0.1-18.7-20.5c0-0.3-0.1-0.7-0.1-1s0-0.6-0.1-0.9
					c-0.6-12.1,14.6-10.2,17.8-10.2c5.2,0,12.9,2.1,14.6,7.6C644.8,456.2,645,475.6,629.4,475.9z"/>
			</g>
		</g>
	</g>
	<path class="st0" d="M714.6,803.4c-2.1-1.8-4.6-2.6-8-2.6c-1.9,0-3.3,0.3-4.3,1c-0.5,3.7-1.1,11.3-1.9,23.1c4,0,7.7-1.4,11.3-4.1
		c4-2.9,5.9-6.2,5.9-10C717.8,807.6,716.6,805,714.6,803.4z"/>
	<path class="st1" d="M730.9,780.8c-4.8-3.5-10.2-5.3-16.4-5.3c-5.6,0-10,2.1-13.4,6.4c-3,4-4.6,8.8-4.6,14.5c0,5.4,2.4,9.6,7,12.8
		c4.1,2.7,8.9,4.1,14.5,4.1c5.7,0,10.5-1.4,14.4-4.5c4.3-3.2,6.4-7.7,6.4-13.2C738.7,789.4,736.2,784.6,730.9,780.8z"/>
	<path class="st1" d="M144.5,780.8c-4.8-3.5-10.2-5.3-16.4-5.3c-5.6,0-10,2.1-13.4,6.4c-3,4-4.6,8.8-4.6,14.5c0,5.4,2.4,9.6,7,12.8
		c4.1,2.7,8.9,4.1,14.5,4.1c5.7,0,10.5-1.4,14.4-4.5c4.3-3.2,6.4-7.7,6.4-13.2C152.5,789.4,149.9,784.6,144.5,780.8z"/>
	<g>
		<path class="st0" d="M303,806.1h-3.8c-1,5.6-1.4,14.4-1.4,26.5v4.3c0,0.5,0,1.1,0,1.8v15h5.7c3.8,0,8.3-3,13.2-9.3
			c5.1-6.2,7.7-11.2,7.7-15c0-5.1-2.2-10.2-6.9-15.5S308.1,806.1,303,806.1z"/>
		<path class="st1" d="M499.7,779.5l-15.5-1.3c-10.5-0.8-17.7-1.3-21.7-1.3c-16.6,0-29.2,0.6-37.6,1.8c-1.8,11.2-3.2,20.1-4.3,26.6
			c10.7,1.4,18.7,2.6,24.1,3.3l-5.4,79.7c7.5-0.6,13.7-1.1,18.5-1.4c8.3-0.5,14.5-1.1,18.7-1.8c-1.4-12.1-2.2-24.7-2.9-38.1
			l-1.6-38.1c18,0,29.2,0,33.8-0.3c0.5-3.5,0.8-9.1,0.8-16.6c0-7-0.3-11.2-1-12.3C504,779.7,502.1,779.7,499.7,779.5z"/>
		<path class="st1" d="M330.6,790c-11.3-9.9-26.3-14.8-45.5-14.8c-0.6,0-2.2,0.2-4.5,0.3c-1.9,0.2-3.3,0.3-4.5,0.2
			c0.2,5.4,0.3,11.2,0.3,17.2c0,8.6-0.3,21.7-1,39.2c-0.6,17.4-1,30.5-1,39.2c0,2.1,0,4.5,0.2,7.3c0.2,4.3,0.3,6.7,0.3,7.5
			c9.3,1.4,15.5,2.2,18.5,2.2c14.8,0,27.8-5.4,38.4-16.1c10.7-10.7,16.1-23.6,16.1-38.4C348.3,815.1,342.4,800.4,330.6,790z
			 M316.8,844.4c-5.1,6.2-9.6,9.3-13.2,9.3H298v-15c0-0.8,0-1.4,0-1.8v-4.3c0-12.1,0.5-20.9,1.4-26.5h3.8c5.1,0,9.9,2.6,14.5,7.8
			c4.6,5.1,6.9,10.4,6.9,15.5C324.4,833.3,321.9,838.2,316.8,844.4z"/>
		<path class="st1" d="M730.1,839.3c-0.3-6.4-0.5-11.8-0.5-16.4l0.2-0.8c-19,0-29.3,0.5-31.1,1.3c-1.9,14.2-2.9,29-2.9,44.3v15.2
			l0.5,11.3c11.3,0,22.3-1.8,33.3-5.3c0.8-9.3,1.1-20.3,1.1-33.3c0-2.9,0-5.3-0.2-6.9L730.1,839.3z"/>
		<path class="st1" d="M621.9,775.4c-0.5,3-1,6.4-1.8,9.9c-3.2,16.9-5.1,33.7-5.7,50.6l-1.8,50.7c6.7,0.6,10.4,1,11.3,1l47.8-1V863
			c0-1.4-4.5-2.6-13.2-3.3c-8.3-0.6-14.4-1.1-18.5-1.4v-12.4c1-0.3,2.4-0.6,4.5-1.1l6.1-1.3c5.3-1.1,8.6-2.1,10.4-2.7
			c1.6-4.1,2.4-10.4,2.4-18.7l-18.2-2.9c0.2-6.9,0.5-12.1,0.6-15.6c2.2,0,4.6,0,7.2,0c7.7,0,15.5-0.6,23.4-2.1l1.6-24.1
			c-6.9-1.3-16.3-1.8-28.1-1.8h-28.1L621.9,775.4L621.9,775.4z"/>
		<path class="st1" d="M589.2,775.4c-1.9,0-3.5,0.2-4.8,0.3c-6.2,1.1-12,2.2-17.2,3.5c-1.3,3.8-1.8,7.5-1.8,11l0.3,9.6
			c0,3.2,0,5.1,0,5.4v4.1c0,2.1-0.2,5.3-0.6,9.6c-3.3,1.3-8,2.1-14,2.6c0-25.2-0.2-40.5-0.5-45.8l-8-0.2c-3,0-8.1,0-15,0.3
			c-5.6,21.5-8.3,57.3-8.3,106.9c0,3.8,1.4,5.7,4.3,5.7c4.5,0,13.1-0.5,26-1.4c-0.5-5.3-0.6-11.5-0.6-18.8v-4.8c0-0.6,0-1.1,0-1.6
			v-12.4l16.6-1.9l0.3,27.9c0,0.8,0,1.9-0.2,3.3c-0.2,1.6-0.3,2.9-0.3,3.3c0,2.1,0.6,3.7,2.1,4.9l25.5-1.3c1-5.7,1.4-10.8,1.4-15.5
			c0-13.9-0.3-30.6-1.1-50.1C592,793.4,590.8,778.4,589.2,775.4z"/>
		<path class="st1" d="M808.6,843.8c9.7-5.4,16.4-11.3,20.4-17.9s5.9-15.3,5.9-26.3c0-8.5-4.3-14.8-13.1-19.1
			c-6.9-3.5-15-5.3-24.2-5.3c-16.1,0-29.8,3.3-41,10c-0.2,7.7-1.4,21.8-3.7,42.3c-1.8,15.9-2.6,30.1-2.6,42.3v15.3
			c2.2,2.1,6.4,3,12.3,3c1,0,2.4,0,4.5-0.2c1.9-0.2,3.5-0.2,4.5-0.2h2.2c2.1,0,3.7,0.2,4.9,0.6c2.2-0.3,3.5-5.6,3.7-15.8
			c0.2-9.4,0.3-15.6,0.5-19c1.9,2.7,3.5,5.1,4.5,7c5.4,10,9.1,16.9,11,20.4l3.5,6.4c5.1-0.2,10.8-1.1,17.2-2.6l17.1-4.1
			c-0.2-4.1-4.1-10.5-11.6-19L808.6,843.8z M797.3,820.8c-3.7,2.7-7.3,4.1-11.3,4.1c0.8-11.6,1.4-19.5,1.9-23.1c1-0.6,2.4-1,4.3-1
			c3.2,0,5.9,0.8,8,2.6c2.1,1.8,3,4.1,3,7.3C803.2,814.6,801.1,817.9,797.3,820.8z"/>
		<path class="st1" d="M148,839.3c-0.3-6.4-0.5-11.8-0.5-16.4l0.2-0.8c-19,0-29.3,0.5-31.1,1.3c-1.9,14.2-2.9,29-2.9,44.3v15.2
			l0.5,11.3c11.3,0,22.3-1.8,33.3-5.3c0.8-9.3,1.1-20.3,1.1-33.3c0-2.9,0-5.3-0.2-6.9L148,839.3z"/>
		<path class="st1" d="M84.9,775.2c-15-0.2-31.1,1-48.2,3.5c0.2,14.5-0.2,37.2-1,68.1l-1.1,40.7c4.5,0,9.4-0.5,15-1.4
			c7.5-1.3,12-2.7,13.6-4.5v-15.8c0-1.4,0-2.6-0.2-3.7l-0.5-6.1c-0.2-2.7-0.2-4.5-0.2-5.4c0-1.9,0-3.3,0.2-4.3l12.8-0.5
			c6.7-0.2,9.9-1.3,9.9-3.3c0-3-0.6-10.5-1.9-22.5c-0.5-0.2-3.7-0.5-9.6-1c-5.3-0.5-8.5-1.1-9.7-1.9v-2.6c0-4.6,0.6-8.6,1.8-12.3
			c3.8-1.1,9.1-1.8,15.9-2.2c8.3-0.6,13.7-1.1,16.1-1.6v-12.1c0-4.9-0.8-8.6-2.6-11.3L84.9,775.2L84.9,775.2z"/>
		<path class="st1" d="M256.5,779.2l-33.8,0.2c0,1.3-0.2,3.2-0.3,5.6c-0.2,2.4-0.3,4.3-0.3,5.6c0,4.5,0.2,10,0.6,16.7
			c0.5,7.8,0.8,13.4,0.8,16.7c0,5.9-0.5,10.4-1.4,13.1c-3.7-8.1-7.3-18.3-11.2-30.6l-9.6-31.3l-28.5,3l-2.9,51
			c-1.3,22.3-1.9,39.2-1.9,51c0,3.5,0.8,6.1,2.2,7.8c20.3,0,30.5-1.3,30.3-3.7c-0.8-22.8-0.6-35.9,0.5-39.1
			c7,19.1,12.4,33.2,15.9,41.9c9.1-1,22.2-1.8,39.2-2.6c0-9.1-0.3-22.8-1-41.1c-0.5-16.1-0.8-29.8-0.8-41.1c0-1.8,0.3-6.7,1-14.7
			C256.2,783.2,256.3,780.3,256.5,779.2z"/>
	</g>
	<g>
		<path class="st15" d="M429,968.3"/>
		<path class="st15" d="M418.8,932.9"/>
		<g>
			<g>
				<g>
					<circle class="st1" cx="449.5" cy="976.3" r="67.4"/>
					<path class="st6" d="M452.5,993.4C452.5,993.4,452.6,993.4,452.5,993.4C452.5,993.4,452.5,993.4,452.5,993.4L452.5,993.4z"/>
					<path class="st16" d="M407.9,952.9c-1.5-0.4-3-1.2-4.2-2.4c-3.7-3.7-3.7-9.9,0-13.7c1.9-1.9,4.3-2.8,6.9-2.8
						c2.5,0,4.9,0.9,6.9,2.8c1.5,1.5,2.4,3.4,2.7,5.5c0,0,0.1-0.1,0.4-0.4c0.9-1,1.8-2.1,2.7-3.1c1-1,2.1-2.1,3.1-3.1
						c8.5-8.2,21.2-16.3,39.2-18.5c0,0-4,2.8-7.9,7c7.8-1.2,16.4-1,26,1.3c0,0-10.5,2.7-16.6,8.1c-0.4,0.3-0.7,0.7-1.2,1
						c-0.3,0.4-0.7,0.7-1,1.2c4.8,1.5,9.4,3.7,13.7,6.6c0.3-1.9,1.2-3.9,2.7-5.5c1.9-1.9,4.3-2.8,6.9-2.8s4.9,0.9,6.9,2.8
						c3.7,3.7,3.7,9.9,0,13.7c-1.2,1.2-2.7,1.9-4.2,2.4c10,11.2,17,26.6,19.3,43.9c2.1-6.4,3.3-13.3,3.3-20.3
						c0-35.4-28.7-64.1-64.1-64.1s-64.1,28.7-64.1,64.1c0,7.2,1.2,13.9,3.3,20.3c0.1-1.3,0.4-2.7,0.6-4
						C392.1,977.1,398.7,963.2,407.9,952.9z"/>
					<path class="st6" d="M446.5,993.4C446.5,993.4,446.6,993.4,446.5,993.4l0.1-0.2C446.6,993.4,446.5,993.4,446.5,993.4z"/>
					<path class="st6" d="M427.9,956.7L427.9,956.7c0.8,0.3,1.5,1,1.5,2.1l0,0C429.6,957.8,428.8,957,427.9,956.7z"/>
					<path class="st6" d="M425,958.8c0-0.1,0-0.3,0-0.4l0,0C425,958.5,425,958.7,425,958.8L425,958.8z"/>
					<path class="st8" d="M408.8,1017.9c-0.9-1.5-1.3-2.4-1.3-2.4s0.4,0.9,1,2.5s1.5,4,2.2,6.9c0.3,0.9,0.6,1.9,0.7,3
						c0.7,0.6,1.6,1.2,2.5,1.8c-0.6-1.9-1.3-3.7-1.9-5.2C410.8,1021.8,409.6,1019.5,408.8,1017.9z"/>
					<path class="st8" d="M490.7,1018.2c0.6-1.6,1-2.5,1-2.5s-0.6,0.9-1.3,2.4c-0.9,1.5-1.9,3.7-3.1,6.6c-0.6,1.6-1.3,3.3-1.9,5.2
						c0.9-0.6,1.6-1.2,2.5-1.8c0.3-1,0.6-2.1,0.7-3C489.2,1022.1,490.1,1019.8,490.7,1018.2z"/>
					<path class="st6" d="M429,966.9c2.8,0,5.1-2.2,5.1-5.1l0,0C434.1,964.5,431.8,966.8,429,966.9c-2.8-0.1-5.1-2.4-5.1-5.2l0,0
						C423.9,964.5,426.2,966.9,429,966.9z"/>
					<path class="st9" d="M433.8,998.3L433.8,998.3c0.3,0,0.6,0,0.9,0C434.4,998.3,434.1,998.3,433.8,998.3L433.8,998.3z"/>
					<path class="st9" d="M465.3,970.3c0.9,0.6,1.9,1.2,3,1.5c0.6,0.1,1.2,0.1,1.8,0.1c5.7,0,10.3-4.6,10.3-10.3
						s-4.6-10.3-10.3-10.3s-10.3,4.6-10.3,10.3c0,2.5,0.9,4.8,2.4,6.6C463.2,968.9,464.3,969.5,465.3,970.3z M466.2,958.4
						c0,0.1,0,0.3,0,0.4c0,1.2,1,2.2,2.2,2.2s2.2-1,2.2-2.2c0-1-0.7-1.9-1.6-2.2c0.3-0.1,0.7-0.1,1.2-0.1c2.8,0,5.1,2.2,5.1,5.1
						c0,2.8-2.2,5.1-5.1,5.1s-5.1-2.2-5.1-5.1C465,960.5,465.5,959.3,466.2,958.4z"/>
					<path class="st9" d="M429,972c0.6,0,1.2,0,1.8-0.1c1-0.4,2.1-0.9,3-1.5c1-0.7,2.1-1.5,3.1-1.9c1.5-1.8,2.4-4,2.4-6.6
						c0-5.7-4.6-10.3-10.3-10.3s-10.3,4.6-10.3,10.3C418.7,967.4,423.3,972,429,972z M423.9,961.7c0-1.2,0.4-2.4,1.2-3.3v0.1l0,0
						c0,0.1,0,0.3,0,0.4c0,1.2,1,2.2,2.2,2.2s2.2-1,2.2-2.2c0-1-0.7-1.9-1.6-2.1h0.1c0,0-0.1,0-0.1-0.1c0.3-0.1,0.7-0.1,1.2-0.1
						c2.8,0,5.1,2.2,5.1,5.1l0,0l0,0c0,2.8-2.2,5.1-5.1,5.1C426.2,966.9,423.9,964.5,423.9,961.7L423.9,961.7L423.9,961.7z"/>
					<path class="st9" d="M464.4,998.3c0.3,0,0.6,0,0.9,0l0,0l0,0C465,998.3,464.7,998.3,464.4,998.3z"/>
					<path class="st1" d="M429,966.8c2.8,0,5.1-2.2,5.1-5.1c0-2.8-2.2-5.1-5.1-5.1c-0.3,0-0.6,0-1,0.1c0.9,0.3,1.5,1.2,1.5,2.1l0,0
						l0,0c0,1.2-1,2.2-2.2,2.2s-2.2-1-2.2-2.2l0,0l0,0c0-0.1,0-0.3,0-0.4c-0.7,0.9-1.2,1.9-1.2,3.3
						C423.9,964.5,426.2,966.8,429,966.8z"/>
					<path class="st8" d="M425.1,958.4c-0.7,0.9-1.2,2.1-1.2,3.3l0,0C423.9,960.5,424.4,959.3,425.1,958.4L425.1,958.4z"/>
					<path class="st8" d="M427.2,961.2c1.2,0,2.2-1,2.2-2.2l0,0C429.4,960.2,428.5,961.1,427.2,961.2c-1.2-0.1-2.2-1-2.2-2.4l0,0
						C425,960.2,426,961.2,427.2,961.2z"/>
					<path class="st8" d="M434.1,961.7L434.1,961.7c0-2.8-2.2-5.2-5.1-5.2c-0.4,0-0.7,0-1.2,0.1c0,0,0.1,0,0.1,0.1
						c0.3,0,0.6-0.1,1-0.1C431.8,956.6,434.1,958.8,434.1,961.7z"/>
					<path class="st1" d="M470.1,966.9c2.8,0,5.1-2.2,5.1-5.1c0-2.8-2.2-5.1-5.1-5.1c-0.4,0-0.7,0-1.2,0.1c1,0.3,1.6,1.2,1.6,2.2
						c0,1.2-1,2.2-2.2,2.2s-2.2-1-2.2-2.2c0-0.1,0-0.3,0-0.4c-0.7,0.9-1.2,2.1-1.2,3.3C465,964.5,467.2,966.9,470.1,966.9z"/>
					<path class="st8" d="M510.3,996.8c-2.2-17.3-9.1-32.6-19.3-43.9c1.5-0.4,3-1.2,4.2-2.4c3.7-3.7,3.7-9.9,0-13.7
						c-1.9-1.9-4.3-2.8-6.9-2.8s-4.9,0.9-6.9,2.8c-1.5,1.5-2.4,3.4-2.7,5.5c-4.3-2.8-9-5.1-13.7-6.6c0.3-0.4,0.6-0.7,1-1.2
						c0.3-0.4,0.7-0.7,1.2-1c6.1-5.4,16.6-8.1,16.6-8.1c-9.6-2.2-18.2-2.4-26-1.3c3.9-4,7.9-7,7.9-7c-17.9,2.1-30.6,10.3-39.2,18.5
						c-1,1-2.1,2.1-3.1,3.1s-1.9,2.1-2.7,3.1c-0.3,0.3-0.4,0.4-0.4,0.4c-0.3-1.9-1.2-3.9-2.7-5.5c-1.9-1.9-4.3-2.8-6.9-2.8
						c-2.5,0-4.9,0.9-6.9,2.8c-3.7,3.7-3.7,9.9,0,13.7c1.2,1.2,2.7,1.9,4.2,2.4c-9.3,10.3-16,24.2-18.7,39.8c-0.3,1.3-0.4,2.7-0.6,4
						c4.2,12.6,12.3,23.5,22.7,31.2c-0.3-1-0.6-2.1-0.7-3c-0.9-2.8-1.6-5.2-2.2-6.9c-0.6-1.6-1-2.5-1-2.5s0.6,0.9,1.3,2.4
						c0.9,1.5,1.9,3.7,3.1,6.6c0.6,1.6,1.3,3.3,1.9,5.2c5.2,3.4,10.9,6.3,17,8.1c3.1-7.6,10.2-13.9,18.5-13.9s15.4,6.3,18.5,13.9
						c6.1-1.8,11.8-4.6,17-8.1c0.6-1.9,1.3-3.7,1.9-5.2c1.2-2.8,2.4-4.9,3.1-6.6c0.9-1.5,1.3-2.4,1.3-2.4s-0.4,0.9-1,2.5
						s-1.5,4-2.2,6.9c-0.3,0.9-0.6,1.9-0.7,3C498,1020.3,506.1,1009.4,510.3,996.8z M470.1,951.5c5.7,0,10.3,4.6,10.3,10.3
						c0,5.7-4.6,10.3-10.3,10.3c-0.6,0-1.2,0-1.8-0.1c-1-0.4-2.1-0.9-3-1.5c-1-0.7-2.1-1.5-3.1-1.9c-1.5-1.8-2.4-4-2.4-6.6
						C459.8,956.2,464.4,951.5,470.1,951.5z M429,951.5c5.7,0,10.3,4.6,10.3,10.3c0,2.5-0.9,4.8-2.4,6.6c-1,0.6-2.1,1.2-3.1,1.9
						c-0.9,0.6-1.9,1.2-3,1.5c-0.6,0.1-1.2,0.1-1.8,0.1c-5.7,0-10.3-4.6-10.3-10.3C418.7,956.2,423.3,951.5,429,951.5z M410.6,948.1
						c-2.5,0-4.5-2.1-4.5-4.5c0-2.5,2.1-4.5,4.5-4.5c2.5,0,4.5,2.1,4.5,4.5C415.2,946,413.2,948.1,410.6,948.1z M447.5,1006.1
						c0,2.2-1.5,3.9-3.4,3.9h-5.2c-1.3,0-2.7-0.9-3.1-2.4c-0.7-1.9-1.2-3.9-1.5-6c3.7-0.1,7.3-1.2,10.5-2.8c1-0.6,1.9-1.2,2.8-1.9
						v9.2H447.5z M463.4,1007.6c-0.6,1.5-1.8,2.4-3.1,2.4h-5.2c-1.9,0-3.4-1.8-3.4-3.9v-9.4c0.9,0.7,1.8,1.3,2.8,1.9
						c3.1,1.8,6.7,2.8,10.5,2.8C464.6,1003.7,464.1,1005.8,463.4,1007.6z M465.3,998.3L465.3,998.3c-0.3,0-0.6,0-0.9,0
						c-4.6-0.1-8.8-1.9-12-4.8c0,0-0.1,0-0.1-0.1l0.1,0.1c0,0-0.4-0.3-0.9-0.7c-0.6-0.4-1.3-0.9-2.1-0.9c-0.6,0-1.3,0.4-2.1,0.9
						c-0.6,0.4-0.9,0.7-0.9,0.7l0.1-0.1c0,0-0.1,0-0.1,0.1c-3,2.8-7.2,4.6-12,4.8c-0.3,0-0.6,0-0.9,0l0,0c-9.6,0-17.3-6.9-17.3-15.4
						c0-8.4,11.7-3.7,19.4-9c0.1-0.1,0.3-0.1,0.3-0.3c0.7-0.4,1.3-0.9,1.9-1.3c0.1-0.1,0.3-0.1,0.4-0.3c0.6-0.4,1.3-0.7,2.4-1.2
						c1.8-0.7,4.2-1.2,6.7-1.3c0.6,0,1.3,0,1.9,0s1.3,0,1.9,0c2.5,0.1,4.9,0.6,6.7,1.3c0.9,0.3,1.6,0.7,2.4,1.2
						c0.1,0.1,0.3,0.1,0.4,0.3c0.6,0.4,1.3,0.7,1.9,1.3c0.1,0.1,0.3,0.1,0.3,0.3c7.8,5.2,19.4,0.6,19.4,9
						C482.8,991.4,474.9,998.3,465.3,998.3z M488.3,948.1c-2.5,0-4.5-2.1-4.5-4.5c0-2.5,2.1-4.5,4.5-4.5c2.5,0,4.5,2.1,4.5,4.5
						C492.9,946,490.9,948.1,488.3,948.1z M493.1,1014.1c0,0-5.7,6.4-6.4,14.5"/>
					<path class="st8" d="M464.4,998.3c-3.9-0.1-9.6-3.4-12-4.8C455.6,996.2,459.8,998.1,464.4,998.3z"/>
					<path class="st8" d="M446.5,993.5c0,0,0.4-0.3,0.9-0.7C447.2,992.8,446.9,993.1,446.5,993.5L446.5,993.5z"/>
					<path class="st8" d="M452.5,993.5L452.5,993.5c-0.5-0.4-0.8-0.5-1-0.7C452.2,993.2,452.5,993.5,452.5,993.5z"/>
					<path class="st8" d="M446.5,993.4c-2.4,1.5-8.1,4.6-12,4.8C439.3,998.1,443.5,996.2,446.5,993.4z"/>
					<path class="st10" d="M468,1037.7c-3.1-7.6-10.2-13.9-18.5-13.9s-15.4,6.3-18.5,13.9c5.8,1.8,12.1,2.7,18.5,2.7
						C456,1040.4,462.2,1039.5,468,1037.7z"/>
					<path class="st10" d="M410.6,939c-2.5,0-4.5,2.1-4.5,4.5c0,2.5,2.1,4.5,4.5,4.5c2.5,0,4.5-2.1,4.5-4.5
						C415.2,941.1,413.2,939,410.6,939z"/>
					<path class="st10" d="M492.9,943.6c0-2.5-2.1-4.5-4.5-4.5c-2.5,0-4.5,2.1-4.5,4.5c0,2.5,2.1,4.5,4.5,4.5S492.9,946,492.9,943.6
						z"/>
					<path class="st1" d="M450.7,972.3c-0.4,0-0.7,0-1.2,0c-0.4,0-0.7,0-1.2,0c-5.2,0.1-10.2,1.8-10.2,4.6c0,2.2,0.6,4.2,1.6,6
						c1.9,3.1,5.5,5.4,9.6,5.4c4,0,7.6-2.1,9.6-5.4c1-1.8,1.6-3.7,1.6-6C460.8,974.1,455.9,972.4,450.7,972.3z"/>
					<path class="st9" d="M434.1,1001.6c0.3,2.1,0.9,4.2,1.5,6c0.6,1.5,1.8,2.4,3.1,2.4h5.2c1.9,0,3.4-1.8,3.4-3.9v-9.4
						c-0.9,0.7-1.8,1.3-2.8,1.9C441.4,1000.4,437.8,1001.4,434.1,1001.6z"/>
					<path class="st9" d="M451.6,996.6v9.4c0,2.2,1.5,3.9,3.4,3.9h5.2c1.3,0,2.7-0.9,3.1-2.4c0.7-1.9,1.2-3.9,1.5-6
						c-3.7-0.1-7.3-1.2-10.5-2.8C453.3,998.1,452.5,997.4,451.6,996.6z"/>
					<path class="st10" d="M463.4,973.9c-0.1-0.1-0.3-0.1-0.3-0.3c-0.7-0.4-1.3-0.9-1.9-1.3c-0.1-0.1-0.3-0.1-0.4-0.3
						c-0.6-0.4-1.3-0.7-2.4-1.2c-1.8-0.7-4.2-1.2-6.7-1.3c-0.6,0-1.3,0-1.9,0s-1.3,0-1.9,0c-2.5,0.1-4.9,0.6-6.7,1.3
						c-0.9,0.3-1.6,0.7-2.4,1.2c-0.1,0.1-0.3,0.1-0.4,0.3c-0.6,0.4-1.3,0.7-1.9,1.3c-0.1,0.1-0.3,0.1-0.3,0.3
						c-7.8,5.2-19.4,0.6-19.4,9c0,8.5,7.8,15.4,17.3,15.4l0,0c0.3,0,0.6,0,0.7,0c3.9-0.1,9.6-3.4,12-4.8l0.1-0.1v0.1
						c0.4-0.3,0.7-0.4,0.9-0.6c0.6-0.4,1.3-0.9,2.1-0.9c0.6,0,1.3,0.4,2.1,0.9c0.1,0,0.4,0.3,0.9,0.6v-0.1l0.1,0.1
						c2.4,1.5,8.1,4.6,12,4.8c0.3,0,0.6,0,0.7,0l0,0c9.6,0,17.3-6.9,17.3-15.4C482.8,974.5,471.1,979.2,463.4,973.9z M459.2,982.9
						c-1.9,3.1-5.5,5.4-9.6,5.4c-4,0-7.6-2.1-9.6-5.4c-1-1.8-1.6-3.7-1.6-6c0-2.8,4.9-4.5,10.2-4.6c0.4,0,0.7,0,1.2,0
						c0.4,0,0.7,0,1.2,0c5.2,0.1,10.2,1.8,10.2,4.6C460.8,979.2,460.2,981.1,459.2,982.9z"/>
				</g>
				<rect x="416.3" y="948.1" class="st8" width="67.5" height="9.7"/>
			</g>
			<g>
				<g>
					<g>
						<g>
							<defs>
								<circle id="SVGID_1_" cx="449.5" cy="976.3" r="64.1"/>
							</defs>
							<clipPath id="SVGID_2_">
								<use xlink:href="#SVGID_1_"  style="overflow:visible;"/>
							</clipPath>
							<g class="st17">
								<g>
									<g>
										<g>
											<polygon class="st18" points="439.8,1023.8 430.8,1027.7 419.3,1018 413.4,1039.2 442.9,1049.4 445.6,1034.3 
												439.2,1024.6 											"/>
											<polygon class="st18" points="385.8,1029.7 406.3,1036.7 387.1,1018.9 											"/>
											<polygon class="st18" points="468.1,1027.7 459.3,1023.8 459.9,1024.6 453.5,1034.3 456.2,1049.4 485.6,1039.2 
												479.8,1018 											"/>
											<polygon class="st18" points="511.8,1018.9 492.8,1036.7 513.3,1029.7 											"/>
										</g>
										<polygon class="st19" points="453.5,1034.3 459.9,1024.6 459.3,1023.8 449.5,1019.4 449.5,1019.4 449.5,1019.4 
											449.5,1019.4 449.5,1019.4 439.8,1023.8 439.2,1024.6 445.6,1034.3 442.9,1049.4 439.2,1070.9 449.5,1070.9 449.5,1070.9 
											459.9,1070.9 456.2,1049.4 										"/>
										<g>
											<polygon class="st1" points="383.7,1015.6 387.1,1018.9 406.3,1036.7 412.4,1042.5 413.4,1039.2 419.3,1018 422,1008.3 
												422.3,1007 389.4,992.6 											"/>
											<polygon class="st1" points="509.7,992.6 476.7,1007 477.1,1008.3 479.8,1018 485.6,1039.2 486.5,1042.5 492.8,1036.7 
												511.8,1018.9 515.4,1015.6 											"/>
										</g>
										<polygon class="st9" points="477.1,1008.3 476.7,1007 450.7,1018.3 449.9,1018.6 449.5,1018.8 449.2,1018.6 448.4,1018.3 
											422.3,1007 422,1008.3 419.3,1018 430.8,1027.7 439.8,1023.8 449.5,1019.4 459.3,1023.8 468.1,1027.7 479.8,1018 
																					"/>
									</g>
								</g>
							</g>
						</g>
					</g>
				</g>
			</g>
		</g>
		<path class="st0" d="M184.1,950.9h-3.8c-1,5.6-1.4,14.4-1.4,26.5v4.3c0,0.5,0,1.1,0,1.8v15h5.7c3.8,0,8.3-3,13.2-9.3
			c5.1-6.2,7.7-11.2,7.7-15c0-5.1-2.2-10.2-6.9-15.5C194,953.4,189.2,950.9,184.1,950.9z"/>
		<path class="st0" d="M282.2,966.5c-1,5.6-1.4,9.9-1.6,12.8l9.4,0.2c1.9,0,3.7-0.2,5.3-0.5c-1.1-5.1-4.8-13.4-11.3-25
			C283.6,956.8,283.1,960.9,282.2,966.5z"/>
		<path class="st1" d="M80.4,934.8C69.1,924.9,54.1,920,34.9,920c-0.6,0-2.2,0.2-4.5,0.3c-1.9,0.2-3.3,0.3-4.5,0.2
			c0.2,5.4,0.3,11.2,0.3,17.2c0,8.6-0.3,21.7-1,39.2c-0.6,17.4-1,30.5-1,39.2c0,2.1,0,4.5,0.2,7.3c0.2,4.3,0.3,6.7,0.3,7.5
			c9.3,1.4,15.5,2.2,18.5,2.2c14.8,0,27.8-5.4,38.4-16.1c10.7-10.7,16.1-23.6,16.1-38.4C98.1,959.8,92.2,945.1,80.4,934.8z
			 M66.5,989.2c-5.1,6.2-9.6,9.3-13.2,9.3h-5.7v-15c0-0.8,0-1.4,0-1.8v-4.3c0-12.1,0.5-20.9,1.4-26.5h3.8c5.1,0,9.9,2.6,14.5,7.8
			c4.6,5.1,6.9,10.4,6.9,15.5C74.2,978,71.6,982.9,66.5,989.2z"/>
		<path class="st1" d="M155.5,920.7l-9.6,0.3c-3,0-5.4,0.2-7.2,0.2l-6.4-0.2c-4.3,13.7-8,30.8-11,51.5l-7.5,52.2
			c4.3,2.4,10.2,4.1,17.5,5.3l11.2,1.8c1.1-1.9,2.1-7.3,3.3-16.3c1.1-7.8,2.1-12.3,3.2-13.4c0.8-1,3.5-1.8,8.5-2.4
			c6.1-0.8,9.3-1.1,9.6-1.3c2.4,5.6,5.4,11.3,8.8,17.4l9.7,17.1l29-15.5c-11.2-31.1-25.4-63.6-42.4-97.6L155.5,920.7z M158.7,979.3
			l-9.4-0.2c0.2-2.9,0.6-7,1.6-12.8c1-5.6,1.4-9.9,1.6-12.8c6.5,11.6,10.2,19.9,11.3,25C162.4,979.3,160.6,979.3,158.7,979.3z"/>
		<path class="st1" d="M337.2,971.6c-2.4-31.1-4.1-48.3-5.3-51.5c-2.4,0-6.9,0.2-13.7,0.3l-27.1,1c-1,3.5-2.4,12.1-4.5,26
			c-1.4,10.7-3.8,19-6.9,25.2h-0.3c-6.1-18.8-11-35.4-14.8-49.4c-5.9,0.8-10.7,1.3-14.7,1.8c-5.4,0.6-10.2,1.6-14.2,3.2
			c-3,6.7-4.8,16.7-5.4,30l-1.8,39.4c-0.6,15.2-1.9,26.6-3.8,34.4c0.3,0.2,3.2,0.2,8.3,0c7.5-0.2,11.3-0.3,11.5-0.3
			c0.8,0,2.1,0.2,3.8,0.5c1.8,0.3,3,0.5,3.8,0.5c2.7,0,4.1-0.8,4.1-2.6c0-4,0-8.9,0.2-15l0.6-27.6c2.7,5.1,4.9,12.3,6.9,21.7
			c2.2,10.7,4.1,18,5.6,22c2.2-0.2,3.7-0.3,4.6-0.5c11.2-1,17.9-1.8,20.1-2.1c4.6-17.1,7.7-29.2,9.3-36.5c2.1,16.7,4,29.3,5.4,37.6
			h24.2c3.3,0,5.9-0.5,8-1.4c-0.3-8.9-0.8-16.4-1.3-22.2L337.2,971.6z"/>
		<path class="st1" d="M831.2,970c4.9-4.6,8.3-8.3,10.2-10.8c3.3-4.6,4.9-9.3,4.9-13.6c0-8.3-4.3-14.7-13.1-19
			c-7-3.5-15-5.3-24.1-5.3h-1.4c-0.6,0-1.3,0-1.8,0h-9.6c-15.3,0-23,1.1-23,3.3c0,4.3,0.2,10.7,0.6,19.3c0.5,8.6,0.6,15,0.6,19.3
			c0,34.4,1.3,55.8,3.8,64.3c0.8,2.7,3.2,4.5,6.9,5.3c1.8,0.3,4.8,0.6,9.3,0.6c14.7,0,26.5-3,35.4-9.3c10.2-7.2,15.5-17.7,15.5-31.9
			c0-5.4-1.1-10-3.3-13.9C839.9,973.7,836.2,971,831.2,970z M802.2,945.3c10,0,15.2,1.8,15.2,5.1c0,5.3-3.7,8-11.2,8
			c-0.6,0-1.6,0-2.9-0.2s-2.2-0.2-2.9-0.2c-0.6-5.7-1-9.9-1-12.8L802.2,945.3L802.2,945.3z M812.6,999.8c-3.3,1.4-6.5,2.2-9.3,2.2
			c-2.2,0-3.3-1.8-3.3-5.4c0-4.5,0.2-9.3,0.6-14.4c3.2,0.5,5.7,0.8,7.7,1.1c3.5,0.5,5.7,1.4,6.9,2.6c0.6,0.6,1.3,1.9,2.1,3.5
			c0.8,1.8,1.1,2.9,1.1,3.8C818.6,995.9,816.6,998.1,812.6,999.8z"/>
		<path class="st1" d="M705.4,919.9c-8.8,0-17.7,3.2-26.6,9.6c-8.3,5.9-15.2,13.1-20.7,21.7c-6.2,9.6-9.3,19-9.3,28.2
			c0,16.9,5.3,30.1,15.9,39.9c10.2,9.3,23.9,13.9,41.1,13.9c14.5,0,26.8-5.3,36.8-15.9c9.9-10.4,14.8-23,14.8-37.6
			c0-18.5-4-32.7-12-42.7C736.7,925.5,723.3,919.9,705.4,919.9z M719.6,987.9c-4.1,5.6-9.6,8.5-16.3,8.5c-6.2,0-11.2-1.8-15-5.1
			c-3.8-3.3-5.7-8.1-5.7-14.2c0-6.4,2.4-12.6,7.2-18.5c5.1-6.2,10.8-9.4,17.1-9.4c5.9,0,10.5,2.1,13.9,6.1c3,3.8,4.6,8.6,4.6,14.7
			C725.3,976.7,723.4,982.8,719.6,987.9z"/>
		<path class="st1" d="M614.5,919.9c-6.4,0-11,0.8-13.9,2.1c1.8,14.2,2.7,23.8,2.7,28.4c0,12.3-0.8,22.6-2.2,31.1
			c-2.7,15-7.5,22.5-14.5,22.5c-8.3,0-12.3-6.2-12.3-18.8v-1.8c-8.3,0.5-16.3,2.4-24.2,5.7c1.4,29.2,13.6,43.9,36.8,43.9
			c14.5,0,26.2-7.5,34.6-22.5c7-12.6,10.7-26.8,10.7-42.4c0-19.1-1.9-34.6-5.6-46.3C620.6,920.6,616.7,919.9,614.5,919.9z"/>
	</g>
</g>
</svg>
