<?xml version="1.0" encoding="utf-8"?>
<!-- Generator: Adobe Illustrator 25.2.0, SVG Export Plug-In . SVG Version: 6.00 Build 0)  -->
<svg version="1.1" id="Layer_1" xmlns="http://www.w3.org/2000/svg" xmlns:xlink="http://www.w3.org/1999/xlink" x="0px" y="0px"
	 viewBox="0 0 165.7 84.6" style="enable-background:new 0 0 165.7 84.6;" xml:space="preserve">
<style type="text/css">
	.st0{fill:#FFFFFF;}
</style>
<g>
	<path class="st0" d="M84.1,4.3c-0.6-0.6-1.4-0.9-2.3-0.9c-1.3,0-2.3,0.3-3,0.9c-0.8,0.6-1.2,1.5-1.3,2.6C77.6,7.7,78,8.4,78.6,9
		c0.2,0.2,0.5,0.5,0.8,0.7c0.3,0.2,0.6,0.4,0.9,0.6c0.6,0.4,0.9,0.8,0.9,1.1c0,0.5-0.3,0.8-0.8,0.8h-0.1h-0.1
		c-0.2-0.2-0.3-0.5-0.4-0.7c0,0-0.1-0.2-0.1-0.5h-1.5c-0.4,0-0.8,0-1.1,0c-0.1,0.3-0.1,0.7,0,1.3c0,1.1,0.4,1.9,1.1,2.3
		c0.6,0.3,1.4,0.5,2.6,0.5c1,0,1.9-0.4,2.6-1c0.7-0.7,1-1.5,1-2.6s-0.4-1.9-1-2.6c-0.3-0.3-0.9-0.7-1.8-1.2c-0.7-0.4-1-0.7-1-1
		c0-0.2,0.1-0.4,0.3-0.5C81.1,6.1,81.3,6,81.5,6c0.3,0,0.5,0.1,0.6,0.4l0.3,0.7c1.4-0.3,2.3-0.5,2.7-0.6C85.1,5.6,84.8,4.9,84.1,4.3
		z"/>
	<path class="st0" d="M60.5,3.4c-0.9,0-1.9,0.3-2.8,1c-0.9,0.6-1.6,1.3-2.2,2.2c-0.7,1-1,1.9-0.9,3c0,1.7,0.6,3.1,1.7,4.1
		c1.1,0.9,2.5,1.4,4.3,1.4c1.5,0,2.8-0.6,3.8-1.7c1-1.1,1.5-2.4,1.5-3.9c0-1.9-0.4-3.4-1.2-4.4C63.8,4,62.4,3.4,60.5,3.4z
		 M61.9,10.4c-0.4,0.6-1,0.9-1.7,0.9c-0.6,0-1.2-0.2-1.6-0.5C58.2,10.4,58,9.9,58,9.3c0-0.7,0.3-1.4,0.8-1.9c0.6-0.7,1.1-1,1.8-1
		c0.6,0,1.1,0.2,1.4,0.6s0.5,0.9,0.5,1.5C62.5,9.2,62.3,9.9,61.9,10.4z"/>
	<path class="st0" d="M94.2,4.1c-0.7-0.5-1.7-0.8-2.8-0.8c-1.5,0-3,0.3-4.3,0.7c0,1-0.1,2.6-0.2,4.9c-0.1,2.1-0.2,3.7-0.1,4.8
		c0,0.7,0,1.1,0.2,1.4c1.1-0.2,1.8-0.4,2-0.4l1.5-0.3c0-0.2,0-0.8-0.1-1.7c-0.1-0.6-0.1-1.1-0.1-1.4c0-0.1,0-0.2,0-0.3
		c1.1-0.5,1.9-0.8,2.3-0.9c2-0.8,3-1.9,3-3.5C95.6,5.5,95.1,4.7,94.2,4.1z M91.4,7.8c-0.7,0.2-1.1,0.4-1.2,0.4
		c-0.1-0.3-0.1-0.6-0.1-0.9C90,6.9,90,6.6,90,6.4c0.5-0.1,1-0.1,1.4-0.1c0.2,0,0.3,0,0.5,0.2c0.2,0.2,0.3,0.4,0.3,0.5
		C92.2,7.4,91.9,7.6,91.4,7.8z"/>
	<path class="st0" d="M74.3,5.8c0.4-0.5,0.6-1.2,0.7-2c-0.7-0.3-1.2-0.5-1.5-0.5c-2.1,0-3.6,0.5-4.6,1.6c-0.9,1-1.4,2.6-1.5,4.7
		c0,1.6,0.5,2.9,1.5,3.9c1,1.1,2.3,1.6,3.9,1.6c0.3,0,0.7-0.1,1.2-0.2c0.7-0.2,1-0.4,1-0.6c0-2.9-0.1-5.3-0.3-7.2l-1.8,0.1
		c-0.6,0.1-1.2,0.2-1.7,0.3c-0.1,0.3-0.1,0.6-0.1,0.8c0,0.4,0.1,0.7,0.2,0.9c0.5,0.1,0.9,0.1,1.1,0.1v3c-0.9-0.2-1.4-0.5-1.6-0.8
		c-0.3-0.4-0.4-1-0.4-1.9c0-1,0.3-1.9,0.7-2.7c0.6-0.9,1.3-1.4,2.2-1.4c0.1,0,0.3,0,0.5,0.1L74.3,5.8z"/>
	<path class="st0" d="M102.8,3.4c-0.9,0-1.9,0.3-2.8,1c-0.9,0.6-1.6,1.3-2.2,2.2c-0.6,1-0.9,1.9-0.9,3c0,1.7,0.6,3.1,1.7,4.1
		c1.1,0.9,2.5,1.4,4.3,1.4c1.5,0,2.8-0.6,3.8-1.7c1-1.1,1.5-2.4,1.5-3.9c0-1.9-0.4-3.4-1.2-4.4C106.1,4,104.7,3.4,102.8,3.4z
		 M104.2,10.4c-0.4,0.6-1,0.9-1.7,0.9c-0.6,0-1.1-0.2-1.6-0.5c-0.4-0.4-0.6-0.9-0.6-1.5c0-0.6,0.3-1.3,0.8-1.9c0.6-0.7,1.1-1,1.8-1
		c0.6,0,1.1,0.2,1.4,0.6s0.5,0.9,0.5,1.5C104.8,9.2,104.6,9.9,104.2,10.4z"/>
	<path class="st0" d="M118,3.8l-1.6-0.2c-1-0.1-1.8-0.1-2.2-0.1c-1.7,0-3,0.1-3.9,0.2c-0.2,1.2-0.4,2.1-0.4,2.9
		c1.1,0.1,1.9,0.2,2.5,0.3l-0.6,8.3c0.7-0.1,1.4-0.2,1.9-0.2c0.8-0.1,1.5-0.1,1.9-0.2c-0.1-1.3-0.2-2.6-0.3-4l-0.2-4
		c1.8,0,3,0,3.5,0c0.1-0.3,0.1-0.9,0.1-1.7c0-0.8,0-1.2-0.1-1.3C118.5,3.8,118.3,3.8,118,3.8z"/>
	<path class="st0" d="M52.7,12.2v-0.1v-0.4c0-0.3-0.2-0.5-0.6-0.5h-0.6c-0.4,0-0.7,0-0.9,0c-0.7,0-1-0.1-1-0.2
		c0-0.9,0.1-2.2,0.2-3.7C49.9,5.6,50,4.4,50,3.6h-0.5c-0.8,0-1.5,0.1-2,0.2l-0.8,11.3C48.1,15,49,15,49.4,15H50c0.4,0,0.7,0,0.9,0
		c1.4,0,2.1-0.2,2.1-0.6c0-0.2,0-0.6-0.2-1.1C52.7,12.8,52.7,12.4,52.7,12.2z"/>
	<path d="M53.8,12.7c0,0,0-0.1,0-0.2v-0.2c0-0.3-0.1-0.5-0.2-0.6l-0.4-0.4c-0.3-0.4-0.6-0.5-1-0.5h-0.6h-0.3c-0.2,0-0.3,0-0.3,0
		h-0.4c0-0.7,0.1-1.7,0.2-2.9l0.1-1.2c0-0.2,0-0.6,0.1-1.1v-1c0-0.3,0-0.6,0-0.7l-0.6-0.6V3.2h-0.9c-0.9,0-1.6,0.1-2.1,0.2l-0.3,0.1
		l-0.7,12l0.6,0.6c0.2,0,0.5,0,0.9-0.1l0.9-0.1c0.6,0,1-0.1,1.2,0h1.6c1.6,0,2.4-0.3,2.4-1c0-0.3,0-0.6-0.1-1.1
		C53.8,13.3,53.8,12.9,53.8,12.7z M50.9,15c-0.2,0-0.5,0-0.9,0h-0.6c-0.4,0-1.3,0-2.7,0.1l0.8-11.3c0.5-0.1,1.2-0.2,2-0.2H50
		c0,0.8-0.1,2-0.2,3.7c-0.1,1.5-0.2,2.8-0.2,3.7c0,0.1,0.3,0.2,1,0.2c0.2,0,0.5,0,0.9,0h0.6c0.4,0,0.6,0.2,0.6,0.5v0.4v0.1
		c0,0.2,0,0.6,0.1,1.1c0.2,0.5,0.2,0.9,0.2,1.1C53,14.8,52.3,15,50.9,15z"/>
	<path d="M64.9,4.8c-1-1.2-2.5-1.9-4.4-1.9c-1,0-2,0.4-3,1.1c-0.9,0.6-1.7,1.4-2.3,2.4c-0.7,1-1,2.1-1,3.1c0,1.9,0.6,3.3,1.8,4.4
		c0.1,0.1,0.2,0.1,0.2,0.2l0.2,0.2c1.2,1.2,2.7,1.8,4.7,1.8c1.6,0,3-0.6,4.1-1.8c1.1-1.1,1.6-2.5,1.6-4.1c0-2.3-0.6-4-1.7-5.1
		L64.9,4.8z M64.4,13.4c-1,1.1-2.3,1.7-3.8,1.7c-1.8,0-3.2-0.5-4.3-1.4c-1.1-1-1.7-2.4-1.7-4.1c-0.1-1.1,0.2-2,0.9-3
		c0.6-0.9,1.3-1.6,2.2-2.2c0.9-0.7,1.9-1,2.8-1c1.9,0,3.3,0.6,4.2,1.7c0.8,1,1.2,2.5,1.2,4.4C65.9,11,65.4,12.3,64.4,13.4z"/>
	<path d="M60.6,6.4c-0.7,0-1.2,0.3-1.8,1C58.3,7.9,58,8.6,58,9.3c0,0.6,0.2,1.1,0.6,1.5c0.4,0.3,1,0.5,1.6,0.5
		c0.7,0,1.3-0.3,1.7-0.9c0.4-0.5,0.6-1.2,0.6-1.9c0-0.6-0.2-1.1-0.5-1.5S61.2,6.4,60.6,6.4z M61.6,10.1c-0.4,0.5-0.8,0.8-1.4,0.8
		c-0.4,0-0.8-0.1-1.1-0.3c-0.1-0.2-0.2-0.4-0.2-0.8c0-0.5,0.3-1.1,0.7-1.7c0.5-0.6,1-0.9,1.5-0.9c0.3,0,0.5,0.1,0.7,0.2
		c0.2,0.3,0.3,0.7,0.3,1.1C62.1,9.1,61.9,9.7,61.6,10.1z"/>
	<path d="M74.2,6.6c0.4,0.1,0.7,0.2,0.8,0.2c0.5-0.7,0.8-1.5,0.9-2.5l-0.6-0.6c-0.9-0.4-1.5-0.6-1.8-0.6c-2.2,0-3.8,0.6-4.9,1.7
		c-1,1.1-1.5,2.7-1.5,4.9c0,1.7,0.6,3.1,1.9,4.4c0.1,0,0.1,0,0.2,0.1l0.2,0.2c1.1,1.1,2.4,1.6,4,1.6c0.3,0,0.8-0.1,1.3-0.2
		c0.8-0.2,1.2-0.5,1.2-0.9c0-2.9-0.1-5.2-0.3-7.2L75,7.2V7.1l-0.2-0.3L73,6.9c-0.1,0-0.3,0-0.4,0c0.3-0.3,0.7-0.4,1.2-0.4
		C73.9,6.5,74,6.5,74.2,6.6z M71.1,6.9c-0.4,0.8-0.7,1.7-0.7,2.7c0,0.9,0.1,1.5,0.4,1.9c0.2,0.3,0.7,0.6,1.6,0.8v-3
		c-0.2,0-0.6,0-1.1-0.1c-0.1-0.2-0.2-0.5-0.2-0.9c0-0.2,0-0.5,0.1-0.8c0.5-0.1,1.1-0.2,1.7-0.3l1.8-0.1C74.9,9,75,11.4,75,14.3
		c0,0.2-0.3,0.4-1,0.6c-0.5,0.1-0.9,0.2-1.2,0.2c-1.6,0-2.9-0.5-3.9-1.6c-1-1-1.5-2.3-1.5-3.9c0.1-2.1,0.6-3.7,1.5-4.7
		c1-1.1,2.5-1.6,4.6-1.6c0.3,0,0.8,0.2,1.5,0.5c-0.1,0.8-0.3,1.5-0.7,2l-0.5-0.2c-0.2-0.1-0.4-0.1-0.5-0.1C72.4,5.5,71.7,6,71.1,6.9
		z M71.3,10.3V10c0-0.1,0-0.2,0-0.3l0.4,0.4c0.1,0,0.2,0,0.3,0v1.7c-0.1,0-0.3-0.1-0.6-0.3C71.3,11.3,71.3,10.9,71.3,10.3z"/>
	<path d="M86.1,7.3c0-0.5-0.1-0.9-0.3-1.4S85.3,5.1,85,4.8l-0.1-0.1c-0.7-1-1.8-1.6-3-1.6c-1.3,0-2.4,0.3-3.2,1
		c-0.8,0.7-1.3,1.7-1.5,3c0.1,1,0.5,1.8,1.3,2.4l0.1,0.1l0.3,0.3c0,0,0,0,0.1,0.1s0.4,0.3,1,0.7h-1.6H78c-0.1,0-0.2,0-0.3,0
		c0,0,0,0,0,0h-0.6L76.8,11c-0.1,0.3-0.1,0.7-0.1,1.4c-0.1,1.1,0.3,1.9,1,2.4l0.3,0.3c0.6,0.6,1.7,0.9,3.2,0.9
		c1.1,0,2.1-0.4,2.8-1.1c0.8-0.7,1.2-1.6,1.2-2.8c0-1.2-0.3-2.1-1-2.8L84,9.1c0,0-0.1-0.1-0.3-0.3s-0.5-0.4-0.8-0.7
		c0.3-0.1,1-0.3,2.1-0.5L86.1,7.3z M80.7,11.2C80.7,11.2,80.7,11.2,80.7,11.2c0.1,0.2,0.1,0.2,0.1,0.3c0,0.2-0.1,0.3-0.2,0.4
		c0,0,0-0.1,0-0.2v-0.3L80,10.8C80.2,11,80.4,11.1,80.7,11.2z M82.4,7.1l-0.3-0.7C82,6.1,81.8,6,81.5,6c-0.2,0-0.4,0.1-0.6,0.2
		c-0.2,0.1-0.3,0.3-0.3,0.5c0,0.3,0.3,0.6,1,1c0.9,0.5,1.5,0.9,1.8,1.2c0.6,0.7,1,1.5,1,2.6s-0.3,1.9-1,2.6c-0.7,0.6-1.6,1-2.6,1
		c-1.2,0-2-0.2-2.6-0.5c-0.7-0.4-1.1-1.2-1.1-2.3c-0.1-0.6-0.1-1,0-1.3c0.3,0,0.7,0,1.1,0h1.5c0,0.3,0.1,0.5,0.1,0.5
		c0.1,0.2,0.2,0.5,0.4,0.7h0.1h0.1c0.5,0,0.8-0.3,0.8-0.8c0-0.3-0.3-0.7-0.9-1.1c-0.3-0.2-0.6-0.4-0.9-0.6c-0.3-0.2-0.6-0.5-0.8-0.7
		c-0.6-0.6-1-1.3-1.1-2.1c0.1-1.1,0.5-2,1.3-2.6c0.7-0.6,1.7-0.9,3-0.9c0.9,0,1.7,0.3,2.3,0.9c0.7,0.6,1,1.3,1,2.2
		C84.7,6.6,83.8,6.8,82.4,7.1z M82.7,8c-0.3-0.2-0.6-0.4-0.9-0.5c-0.1,0-0.2-0.1-0.2-0.1c0-0.2,0.1-0.3,0.4-0.4l0.2,0.6
		c0,0,0,0,0.1,0L82.7,8z"/>
	<path d="M91.4,6.3c-0.4,0-0.9,0-1.4,0.1c0,0.2,0,0.5,0.1,0.9c0,0.3,0,0.6,0.1,0.9c0.1,0,0.5-0.2,1.2-0.4c0.5-0.2,0.8-0.4,0.8-0.8
		c0-0.1-0.1-0.3-0.3-0.5C91.7,6.3,91.6,6.3,91.4,6.3z M90.9,7.5L90.9,7.5V7.3c0.2,0,0.4,0,0.7-0.1C91.6,7.2,91.3,7.3,90.9,7.5z"/>
	<path d="M95.6,4.8l-0.2-0.2c-0.8-1.1-2.1-1.7-4-1.7c-1.6,0-3.1,0.3-4.6,0.8c0,0.5,0,1.2-0.1,2.1l-0.1,1.4c0,0.3,0,0.8-0.1,1.6
		c-0.1,2.2-0.2,3.8-0.2,4.9c0,0.7,0.2,1.3,0.5,1.8l0.6,0.6c0,0,0.4-0.1,1.2-0.2l2.8-0.5c0-0.4,0-1.1-0.1-2c-0.1-0.6-0.1-1.1-0.1-1.4
		v-0.3c0.4-0.2,0.9-0.4,1.6-0.6c0.1,0,0.2-0.1,0.5-0.2c0.9-0.3,1.7-0.8,2.2-1.4c0.7-0.7,1-1.5,1-2.4C96.5,6.2,96.2,5.4,95.6,4.8z
		 M92.6,10.1c-0.4,0.1-1.2,0.4-2.3,0.9c0,0.1,0,0.2,0,0.3c0,0.3,0,0.8,0.1,1.4c0.1,0.9,0.1,1.5,0.1,1.7L89,14.7
		c-0.2,0-0.9,0.2-2,0.4c-0.2-0.3-0.2-0.7-0.2-1.4c-0.1-1.1,0-2.7,0.1-4.8C87,6.6,87.1,5,87.1,4c1.3-0.4,2.8-0.7,4.3-0.7
		c1.1,0,2.1,0.3,2.8,0.8c0.9,0.6,1.4,1.4,1.4,2.5C95.6,8.2,94.6,9.3,92.6,10.1z"/>
	<path d="M102.9,6.4c-0.7,0-1.2,0.3-1.8,1c-0.5,0.6-0.8,1.3-0.8,1.9c0,0.6,0.2,1.1,0.6,1.5c0.5,0.3,1,0.5,1.6,0.5
		c0.7,0,1.3-0.3,1.7-0.9c0.4-0.5,0.6-1.2,0.6-1.9c0-0.6-0.2-1.1-0.5-1.5S103.5,6.4,102.9,6.4z M104,10.1c-0.4,0.5-0.8,0.8-1.4,0.8
		c-0.4,0-0.8-0.1-1.1-0.3c-0.1-0.2-0.2-0.5-0.2-0.8c0-0.5,0.2-1.1,0.7-1.7c0.5-0.6,1-0.9,1.5-0.9c0.3,0,0.5,0.1,0.7,0.2
		c0.2,0.3,0.3,0.7,0.3,1.1C104.5,9.1,104.3,9.7,104,10.1z"/>
	<path d="M107.2,4.8c-1-1.2-2.5-1.9-4.4-1.9c-1,0-2,0.4-3,1.1c-0.9,0.6-1.7,1.4-2.3,2.4c-0.7,1-1,2.1-1,3.1c0,1.9,0.6,3.3,1.8,4.4
		c0.1,0.1,0.2,0.1,0.2,0.2l0.2,0.2c1.2,1.2,2.7,1.8,4.7,1.8c1.6,0,3-0.6,4.1-1.8c1.1-1.1,1.6-2.5,1.6-4.1c0-2.3-0.6-4-1.7-5.1
		L107.2,4.8z M106.7,13.4c-1,1.1-2.3,1.7-3.8,1.7c-1.8,0-3.2-0.5-4.3-1.4c-1.1-1-1.7-2.4-1.7-4.1c0-1.1,0.3-2,0.9-3
		c0.6-0.9,1.3-1.6,2.2-2.2c0.9-0.7,1.9-1,2.8-1c1.9,0,3.3,0.6,4.2,1.7c0.8,1,1.2,2.5,1.2,4.4C108.2,11,107.7,12.3,106.7,13.4z"/>
	<path d="M118.8,3.7c0,0,0-0.1-0.1-0.1c-0.5,0-1.3-0.1-2.3-0.2c-1-0.1-1.8-0.1-2.3-0.1c-1.8,0-3.2,0.1-4.2,0.2
		c-0.1,0.4-0.1,0.7-0.2,1l-0.3,1.8c0,0,0,0.2-0.1,0.6h0.1l0.6,0.4l1,0.1c0,0,0.3,0.1,0.9,0.1l-0.5,7.9L112,16l0.9-0.1
		c0.6-0.1,1.5-0.1,2.7-0.2c0.4,0,0.7-0.1,1-0.1c0,0,0-0.3-0.1-0.9l-0.1-1c-0.1-0.8-0.1-1.6-0.2-2.3L116,7.8h0.9c0.1,0,0.4,0,0.8,0
		h1.3c0.1,0,0.2,0,0.4,0c0.1-0.6,0.1-1.3,0.1-2c0-0.8-0.1-1.3-0.2-1.6L118.8,3.7z M118.6,6.8c-0.5,0-1.7,0-3.5,0l0.2,4
		c0.1,1.4,0.2,2.7,0.3,4c-0.4,0.1-1.1,0.1-1.9,0.2c-0.5,0-1.2,0.1-1.9,0.2l0.6-8.3c-0.6-0.1-1.4-0.2-2.5-0.3c0-0.8,0.2-1.7,0.4-2.9
		c0.9-0.1,2.2-0.2,3.9-0.2c0.4,0,1.2,0,2.2,0.1l1.6,0.2c0.3,0,0.5,0,0.6,0c0.1,0.1,0.1,0.5,0.1,1.3C118.7,5.9,118.7,6.5,118.6,6.8z"
		/>
</g>
<path d="M8.2,20.9c-1.2-1-2.7-1.5-4.7-1.5c-0.1,0-0.3,0-0.5,0s-0.4,0-0.5,0c0,0.6,0,1.2,0,1.8c0,0.9,0,2.3-0.1,4.1
	c-0.1,1.8-0.1,3.2-0.1,4.1c0,0.2,0,0.5,0,0.8c0,0.5,0,0.7,0,0.8c0.9,0.1,1.6,0.2,1.9,0.2c1.6,0,2.9-0.6,4-1.7
	c1.1-1.1,1.6-2.4,1.8-4.1C10,23.5,9.4,22,8.2,20.9z M6.5,26.7c-0.5,0.7-1,1-1.4,1H4.5v-1.6c0-0.1,0-0.2,0-0.2v-0.4
	c0-1.3,0.1-2.2,0.2-2.8h0.4c0.6,0,1.1,0.2,1.5,0.8c0.5,0.5,0.7,1.1,0.7,1.6C7.3,25.5,7,26.1,6.5,26.7z"/>
<path d="M2,19.1L2,19.1L2,19.1z"/>
<path d="M11.7,25.7c0.1-1.7,0.3-3.5,0.6-5.2c0.1-0.4,0.1-0.7,0.2-1h2.9c1.2,0,2.2,0.1,2.9,0.2l-0.2,2.5c-0.8,0.1-1.6,0.2-2.4,0.2
	c-0.3,0-0.5,0-0.8,0c0,0.4,0,0.9-0.1,1.6l1.9,0.3c0,0.9-0.1,1.5-0.2,1.9c-0.2,0.1-0.5,0.2-1.1,0.3l-0.6,0.1c-0.2,0-0.4,0.1-0.5,0.1
	V28c0.4,0,1.1,0.1,1.9,0.2c0.9,0.1,1.4,0.2,1.4,0.3V31l-5,0.1c-0.1,0-0.5,0-1.2-0.1L11.7,25.7z"/>
<path d="M22.7,20.1c0.2,0.4,0.5,1.6,1,3.4c0.4,1.4,0.8,2.5,1.2,3.3c0.1-0.3,0.2-0.7,0.2-1.2c0-0.3,0.1-0.7,0.1-1.2
	c0-0.3,0.2-1.1,0.5-2.5l0.3-1.5c0.1-0.4,0.2-0.8,0.2-1c0.3-0.1,0.6-0.1,1-0.1s1,0.1,2,0.2l0.1,0.4c0,0.6-0.4,2.5-1.1,5.5
	s-1.2,4.8-1.5,5.5C26.6,31,26.3,31,26,31c-1.1,0-2.1-0.1-2.9-0.2l-1.8-5.7c-1-3.2-1.6-4.9-1.8-5L22.7,20.1z"/>
<path d="M31.4,25.7c0.1-1.7,0.3-3.5,0.6-5.2c0.1-0.4,0.1-0.7,0.2-1h2.9c1.2,0,2.2,0.1,2.9,0.2l-0.2,2.5c-0.8,0.1-1.6,0.2-2.4,0.2
	c-0.3,0-0.5,0-0.8,0c0,0.4,0,0.9-0.1,1.6l1.9,0.3c0,0.9-0.1,1.5-0.2,1.9c-0.2,0.1-0.5,0.2-1.1,0.3l-0.6,0.1c-0.2,0-0.4,0.1-0.5,0.1
	V28c0.4,0,1.1,0.1,1.9,0.2c0.9,0.1,1.4,0.2,1.4,0.3V31l-5,0.1c-0.1,0-0.5,0-1.2-0.1L31.4,25.7z"/>
<path d="M40.3,19.9c0.5-0.1,1.2-0.2,2-0.2h0.5c0,0.8-0.1,2-0.2,3.7c-0.1,1.5-0.2,2.8-0.2,3.7c0,0.1,0.3,0.2,1,0.2c0.2,0,0.5,0,0.9,0
	H45c0.4,0,0.6,0.2,0.6,0.5v0.4v0.1l0,0c0,0.2,0,0.6,0.1,1.1s0.1,0.9,0.1,1.1c0,0.4-0.7,0.6-2.1,0.6c-0.2,0-0.5,0-0.9,0h-0.6
	c-0.4,0-1.3,0-2.7,0.1L40.3,19.9z"/>
<path d="M57.5,21.3c-0.9-1.1-2.3-1.7-4.2-1.7c-0.9,0-1.9,0.3-2.8,1c-0.9,0.6-1.6,1.3-2.2,2.2c-0.7,1-1,1.9-1,2.9
	c0,1.7,0.6,3.1,1.7,4.1c1.1,0.9,2.5,1.4,4.3,1.4c1.5,0,2.7-0.6,3.9-1.6c1-1.1,1.5-2.4,1.5-3.9C58.7,23.8,58.3,22.3,57.5,21.3z
	 M54.7,26.5c-0.4,0.6-1,0.9-1.7,0.9s-1.2-0.1-1.6-0.5c-0.4-0.4-0.6-0.9-0.6-1.5c0-0.6,0.3-1.3,0.8-1.9c0.6-0.7,1.1-1,1.8-1
	c0.6,0,1.1,0.2,1.4,0.6c0.3,0.4,0.5,0.9,0.5,1.5C55.3,25.3,55.1,26,54.7,26.5z"/>
<g>
	<path d="M67.9,20.2c-0.7-0.5-1.7-0.8-2.8-0.8c-1.5,0-3,0.3-4.3,0.7c0,1-0.1,2.6-0.2,4.9c-0.1,2.1-0.2,3.7-0.2,4.8
		c0,0.7,0,1.1,0.2,1.4c1.1-0.2,1.8-0.4,2-0.4l1.5-0.3c0-0.2,0-0.8-0.1-1.7c-0.1-0.6-0.1-1.1-0.1-1.4c0-0.1,0-0.2,0-0.3
		c1.1-0.5,1.9-0.8,2.3-0.9c2-0.8,3-1.9,3-3.5C69.2,21.6,68.7,20.8,67.9,20.2z M65.1,23.9c-0.7,0.2-1.1,0.4-1.2,0.4
		c-0.1-0.3-0.1-0.6-0.1-0.9c-0.1-0.4-0.1-0.7-0.2-0.9c0.5-0.1,1-0.1,1.4-0.1c0.1,0,0.3,0.1,0.6,0.2c0.2,0.2,0.3,0.4,0.3,0.5
		C65.9,23.5,65.6,23.7,65.1,23.9z"/>
</g>
<path d="M75.8,24.3c0,0.9-0.1,1.5-0.2,1.9c-0.2,0.1-0.5,0.2-1.1,0.3l-0.6,0.1c-0.2,0-0.4,0.1-0.5,0.1V28c0.4,0,1.1,0.1,1.9,0.2
	c0.9,0.1,1.4,0.2,1.4,0.3V31l-5,0.1c-0.1,0-0.5,0-1.2-0.1l0.2-5.3c0.1-1.7,0.3-3.5,0.6-5.2c0.1-0.4,0.1-0.7,0.2-1h2.9
	c1.2,0,2.2,0.1,2.9,0.2l-0.2,2.5c-0.8,0.1-1.6,0.2-2.4,0.2c-0.3,0-0.5,0-0.8,0c0,0.4,0,0.9-0.1,1.6L75.8,24.3z"/>
<g>
	<path d="M86.6,28.5l-1.7-1.9c1-0.6,1.7-1.2,2.1-2c0.4-0.7,0.6-1.6,0.6-2.7c0-0.9-0.5-1.5-1.4-2c-0.7-0.3-1.5-0.5-2.5-0.5
		c-1.7,0-3.1,0.3-4.3,1c0,0.8-0.2,2.3-0.4,4.4c-0.2,1.7-0.3,3.1-0.3,4.4v1.6c0.3,0.2,0.7,0.3,1.3,0.3c0.1,0,0.3,0,0.5,0s0.4,0,0.5,0
		h0.3c0.2,0,0.4,0.1,0.5,0.1c0.2,0,0.4-0.5,0.4-1.6c0-1,0-1.7,0-2c0.2,0.3,0.4,0.5,0.5,0.7c0.5,1,0.9,1.7,1.1,2.1l0.4,0.7
		c0.5-0.1,1.1-0.1,1.8-0.3l1.8-0.3C87.8,30,87.4,29.4,86.6,28.5z M83.8,24.2c-0.4,0.3-0.8,0.4-1.2,0.4c0.1-1.2,0.2-2,0.2-2.4
		c0.1-0.1,0.2-0.1,0.4-0.1c0.3,0,0.6,0.1,0.9,0.3c0.2,0.2,0.3,0.5,0.3,0.8C84.4,23.6,84.2,23.9,83.8,24.2z"/>
</g>
<path d="M98.3,27.3c0,0.1,0,0.3,0,0.6v0.6c0,0.1,0,0.2,0,0.4v1.6c-0.2,0.2-0.6,0.3-1.4,0.5c-0.6,0.1-1.1,0.1-1.6,0.1l0.1-4.2
	c0.1-3.2,0.1-5.6,0.1-7.1c1.8-0.3,3.5-0.4,5-0.4h1.1c0.2,0.3,0.3,0.7,0.3,1.2v1.3c-0.3,0-0.8,0.1-1.7,0.2c-0.7,0-1.3,0.1-1.7,0.2
	c-0.1,0.4-0.2,0.8-0.2,1.3v0.2c0.1,0.1,0.5,0.2,1,0.2c0.6,0.1,1,0.1,1,0.1c0.1,1.2,0.2,2,0.2,2.3c0,0.2-0.3,0.3-1,0.3h-1.3
	C98.3,26.9,98.3,27.1,98.3,27.3z"/>
<g>
	<path d="M113.4,21.1c-0.9-1.1-2.3-1.7-4.2-1.7c-0.9,0-1.8,0.4-2.7,1.1c-0.9,0.6-1.6,1.3-2.2,2.2c-0.7,1-1,1.9-1,2.9
		c0,1.7,0.6,3.1,1.7,4.1c1.1,0.9,2.5,1.4,4.3,1.4c1.5,0,2.8-0.6,3.8-1.7c1-1.1,1.5-2.4,1.5-3.9C114.6,23.6,114.2,22.1,113.4,21.1z
		 M110.7,26.5c-0.4,0.6-1,0.9-1.7,0.9c-0.6,0-1.2-0.2-1.6-0.5c-0.4-0.4-0.6-0.9-0.6-1.5c0-0.6,0.3-1.3,0.8-1.9c0.6-0.7,1.1-1,1.8-1
		c0.6,0,1.1,0.2,1.4,0.6c0.3,0.4,0.5,0.9,0.5,1.5C111.3,25.3,111.1,26,110.7,26.5z"/>
</g>
<path d="M122,19.4c1,0,1.6,0.2,1.7,0.6l-0.2,0.6c-0.2,0.6-0.4,1.1-0.6,1.5c-0.3,0-0.8,0.2-1.3,0.4c-0.6,0.2-1,0.4-1.3,0.5
	c-0.3,0.2-0.6,0.5-0.7,1c-0.2,0.4-0.2,0.8-0.2,1.2c0,1.1,0.4,1.8,1.3,2.2c0.6,0.3,1.5,0.4,2.7,0.3l0.7,2c-1.1,0.9-2.2,1.4-3.1,1.4
	c-1.3,0-2.4-0.5-3.3-1.5c-0.9-0.9-1.3-2.1-1.3-3.4c0-1.7,0.5-3.2,1.6-4.6C119,20.2,120.4,19.4,122,19.4z"/>
<path d="M125.6,23v-2.1c0-0.1,0-0.3,0.1-0.7c0-0.3,0-0.5,0-0.7l2.6-0.2l0.5,0.1c0,0.4,0,1.3,0,2.6c0,0.9,0,1.8,0,2.6
	c0,2.1,0.5,3.2,1.5,3.2c0.7,0,1.2-0.7,1.4-2.1c0.2-0.8,0.2-1.8,0.2-2.9c0-0.3,0-0.7-0.1-1.2c-0.1-0.9-0.2-1.5-0.2-1.8
	c0.2-0.2,0.8-0.3,1.9-0.3h1.2c0.5,0,0.8,1.4,0.8,4.2c0,2.1-0.4,3.8-1.1,5c-0.9,1.6-2.3,2.4-4.2,2.4s-3.2-0.9-4-2.8
	C125.9,27.1,125.6,25.3,125.6,23z"/>
<path d="M145.1,20.7L145.1,20.7L145.1,20.7L145.1,20.7L145.1,20.7z"/>
<path d="M145.1,20.7L145.1,20.7L145.1,20.7L145.1,20.7z"/>
<path d="M137.4,27.2c0.3,0,0.7,0,1.1,0h1.5c0,0.3,0.1,0.5,0.1,0.5c0.1,0.2,0.2,0.5,0.4,0.7h0.1h0.1c0.5,0,0.8-0.3,0.8-0.8
	c0-0.3-0.3-0.7-0.9-1.1c-0.3-0.2-0.6-0.4-0.9-0.6c-0.3-0.2-0.6-0.5-0.8-0.7c-0.6-0.6-1-1.3-1.1-2.1c0.2-1.2,0.6-2.1,1.4-2.8
	c0.7-0.6,1.7-0.9,3-0.9c0.9,0,1.7,0.3,2.3,0.9c0.7,0.6,1,1.3,1,2.2l0,0l0,0l0,0c-0.4,0.1-1.3,0.3-2.7,0.6l-0.3-0.7
	c-0.1-0.3-0.3-0.4-0.6-0.4c-0.2,0-0.4,0.1-0.6,0.2c-0.2,0.1-0.3,0.3-0.3,0.5c0,0.3,0.3,0.6,1,1c0.9,0.5,1.5,0.9,1.8,1.2
	c0.6,0.7,1,1.5,1,2.6s-0.3,1.9-1,2.6c-0.7,0.6-1.6,1-2.6,1c-1.2,0-2-0.2-2.6-0.5c-0.7-0.4-1.1-1.2-1.1-2.3
	C137.3,27.9,137.3,27.4,137.4,27.2z"/>
<path d="M147.2,25.7c0.1-1.7,0.3-3.5,0.6-5.2c0.1-0.4,0.1-0.7,0.2-1h2.9c1.2,0,2.2,0.1,2.9,0.2l-0.2,2.5c-0.8,0.1-1.6,0.2-2.4,0.2
	c-0.3,0-0.5,0-0.8,0c0,0.4,0,0.9-0.1,1.6l1.9,0.3c0,0.9-0.1,1.5-0.2,1.9c-0.2,0.1-0.5,0.2-1.1,0.3l-0.6,0.1c-0.2,0-0.4,0.1-0.5,0.1
	V28c0.4,0,1.1,0.1,1.9,0.2c0.9,0.1,1.4,0.2,1.4,0.3V31l-5,0.1c-0.1,0-0.5,0-1.2-0.1L147.2,25.7z"/>
<path d="M155.2,19.1L155.2,19.1L155.2,19.1z"/>
<g>
	<path d="M161.3,20.9c-1.2-1-2.7-1.5-4.7-1.5c-0.1,0-0.3,0-0.5,0c-0.2,0-0.4,0-0.5,0c0,0.6,0,1.2,0,1.8c0,0.9,0,2.3-0.1,4.1
		c-0.1,1.8-0.1,3.2-0.1,4.1c0,0.2,0,0.5,0,0.8c0,0.5,0,0.7,0,0.8c1,0.1,1.6,0.2,2,0.1c1.6,0,2.9-0.6,4-1.7c1.1-1.1,1.7-2.5,1.7-4
		C163.1,23.5,162.5,22,161.3,20.9z M159.7,26.7c-0.5,0.7-1,1-1.4,1h-0.6v-1.6c0-0.1,0-0.2,0-0.2v-0.4c0-1.3,0.1-2.2,0.2-2.8h0.4
		c0.6,0,1.1,0.2,1.5,0.8c0.5,0.5,0.7,1.1,0.7,1.6C160.5,25.5,160.2,26.1,159.7,26.7z"/>
</g>
<path d="M29,45c-0.9,1.6-2.1,2.3-3.6,2.3c-2.4,0-3.7-1.5-3.8-4.6c0.8-0.4,1.7-0.6,2.5-0.6v0.2c0,1.3,0.4,2,1.3,2
	c0.7,0,1.2-0.8,1.5-2.3c0.2-0.9,0.2-1.9,0.2-3.2c0-0.5-0.1-1.5-0.3-3c0.3-0.1,0.8-0.2,1.4-0.2c0.2,0,0.6,0.1,1.2,0.2
	c0.4,1.2,0.6,2.8,0.6,4.8C30.1,42.2,29.7,43.7,29,45z"/>
<g>
	<path d="M42,37.5c-0.9-1.1-2.3-1.7-4.2-1.7c-0.9,0-1.9,0.3-2.8,1c-0.9,0.6-1.6,1.3-2.2,2.2c-0.7,1-1,1.9-1,2.9
		c0,1.7,0.6,3.1,1.7,4.1c1.1,0.9,2.5,1.4,4.3,1.4c1.5,0,2.8-0.6,3.8-1.7c1-1.1,1.5-2.4,1.6-3.8C43.2,40,42.8,38.5,42,37.5z
		 M39.2,42.6c-0.4,0.6-1,0.9-1.7,0.9s-1.2-0.1-1.6-0.5c-0.4-0.4-0.6-0.9-0.6-1.5s0.3-1.3,0.8-1.9c0.6-0.7,1.1-1,1.8-1
		c0.6,0,1.1,0.2,1.4,0.6c0.3,0.4,0.5,0.9,0.5,1.5C39.8,41.4,39.6,42.1,39.2,42.6z"/>
</g>
<g>
	<path d="M50.8,40.7c0.6-0.4,0.9-0.8,1.1-1.1c0.3-0.5,0.5-0.9,0.5-1.5c0-0.9-0.5-1.5-1.4-2c-0.7-0.4-1.6-0.6-2.5-0.6h-0.2
		c-0.1,0-0.1,0-0.2,0h-1c-1.6,0-2.4,0.2-2.4,0.4c0,0.4,0.1,1.1,0.1,2c0.1,0.9,0.1,1.6,0.1,2c0,3.6,0.1,5.8,0.4,6.7
		c0.1,0.3,0.3,0.5,0.7,0.6c0.2,0.1,0.5,0.1,1,0.1c1.6,0,2.8-0.4,3.7-1c1.1-0.7,1.6-1.8,1.6-3.3c0-0.5-0.1-1-0.3-1.4
		C51.7,41.1,51.3,40.8,50.8,40.7z M47.8,38.2c1.1,0,1.6,0.1,1.6,0.5c0,0.5-0.4,0.8-1.2,0.8c-0.1,0-0.2,0-0.3,0c-0.1,0-0.2,0-0.3,0
		c-0.1-0.6-0.1-1-0.1-1.3H47.8z M48.9,43.9c-0.4,0.1-0.7,0.2-1,0.2c-0.2,0-0.3-0.2-0.3-0.6c0-0.5,0.1-1,0.1-1.5
		c0.3,0,0.6,0.1,0.8,0.1c0.3,0.1,0.6,0.2,0.7,0.3c0,0.1,0.1,0.2,0.2,0.4c0.1,0.2,0.1,0.3,0.1,0.4C49.5,43.5,49.3,43.7,48.9,43.9z"/>
</g>
<g>
	<path d="M67.5,36.3c-0.7-0.5-1.7-0.8-2.8-0.8c-1.5,0-3,0.3-4.3,0.7c0,1-0.1,2.6-0.2,4.9c-0.1,2.1-0.2,3.7-0.2,4.8
		c0,0.7,0,1.1,0.2,1.4c1.1-0.2,1.8-0.4,2-0.4l1.5-0.3c0-0.2,0-0.8-0.1-1.7c0-0.6-0.1-1.1,0-1.4c0-0.1,0-0.2,0-0.3
		c1.1-0.5,1.9-0.8,2.3-0.9c2-0.8,3-1.9,3-3.5C68.9,37.7,68.4,36.9,67.5,36.3z M64.7,40c-0.7,0.2-1.1,0.4-1.2,0.4
		c-0.1-0.3-0.1-0.6-0.1-0.9c-0.1-0.4-0.1-0.7-0.2-0.9c0.5-0.1,1-0.1,1.4-0.1c0.2,0,0.3,0,0.5,0.2c0.2,0.2,0.3,0.4,0.3,0.5
		C65.4,39.6,65.2,39.8,64.7,40z"/>
</g>
<path d="M74.4,47.3c-0.2,0-0.5,0-0.9,0h-0.6c-0.4,0-1.3,0-2.7,0.1L71,36c0.5-0.1,1.2-0.2,2-0.2h0.5c0,0.8-0.1,2-0.2,3.7
	c-0.1,1.5-0.2,2.8-0.2,3.7c0,0.1,0.3,0.2,1,0.2c0.2,0,0.5,0,0.9,0h0.6c0.4,0,0.6,0.2,0.6,0.5v0.4v0.1l0,0c0,0.2,0,0.6,0.1,1.1
	s0.1,0.9,0.1,1.1C76.5,47.1,75.8,47.3,74.4,47.3z"/>
<g>
	<path d="M84,35.4l-1.7,0.1h-1c-0.3,0-0.5,0-0.7,0h-0.7c-0.4,1.5-0.8,3.3-1.1,5.4L78,46.3c0.4,0.3,1,0.5,1.8,0.6l1.2,0.2
		c0.1-0.2,0.2-0.8,0.3-1.7c0.1-0.8,0.2-1.3,0.3-1.4c0.1-0.1,0.4-0.1,0.9-0.2c0.6,0,1-0.1,1-0.1c0.2,0.6,0.5,1.2,0.9,1.8l1,1.8l3-1.8
		C87.2,42.3,85.8,38.9,84,35.4z M82.6,41.7h-1c0-0.3,0.1-0.7,0.2-1.3c0.1-0.6,0.2-1,0.1-1.3c0.7,1.2,1.1,2.1,1.2,2.6
		C83,41.7,82.8,41.7,82.6,41.7z"/>
</g>
<path d="M91.4,47.3L92,39c-0.6-0.1-1.4-0.2-2.5-0.3c0.1-0.7,0.3-1.6,0.4-2.8c0.9-0.1,2.2-0.2,3.9-0.2c0.4,0,1.2,0,2.2,0.1l1.6,0.1
	c0.3,0,0.5,0,0.6,0c0.1,0.1,0.1,0.5,0.1,1.3s0,1.4-0.1,1.7c-0.5,0-1.7,0-3.5,0l0.2,4c0.1,1.4,0.2,2.7,0.3,4
	c-0.4,0.1-1.1,0.1-1.9,0.2C92.8,47.2,92.2,47.2,91.4,47.3z"/>
<path d="M99.9,43c0.1-3.2,0.1-5.6,0.1-7.1c1.8-0.3,3.5-0.4,5-0.4h1.1c0.2,0.3,0.3,0.7,0.3,1.2V38c-0.3,0-0.8,0.1-1.7,0.2
	c-0.7,0-1.3,0.1-1.7,0.2c-0.1,0.4-0.2,0.8-0.2,1.3V40c0.1,0.1,0.5,0.2,1,0.2c0.6,0.1,1,0.1,1,0.1c0.1,1.2,0.2,2,0.2,2.3
	c0,0.2-0.3,0.3-1,0.3h-1.3c0,0.1,0,0.2,0,0.4c0,0.1,0,0.3,0,0.6v0.6c0,0.1,0,0.2,0,0.4v1.6c-0.2,0.2-0.6,0.3-1.4,0.5
	c-0.6,0.1-1.1,0.1-1.6,0.1L99.9,43z"/>
<g>
	<path d="M117.9,37.4c-0.9-1.1-2.3-1.7-4.2-1.7c-0.9,0-1.9,0.3-2.8,1c-0.9,0.6-1.6,1.3-2.2,2.2c-0.7,1-1,1.9-1,2.9
		c0,1.7,0.6,3.1,1.7,4.1c1,0.9,2.5,1.4,4.4,1.5c1.5,0,2.8-0.6,3.8-1.7c1-1.1,1.5-2.4,1.5-3.9C119.1,39.9,118.7,38.4,117.9,37.4z
		 M115.1,42.6c-0.4,0.6-1,0.9-1.7,0.9c-0.7,0-1.2-0.1-1.6-0.5c-0.4-0.4-0.6-0.9-0.6-1.5s0.3-1.3,0.8-1.9c0.6-0.7,1.1-1,1.8-1
		c0.6,0,1,0.2,1.4,0.6c0.3,0.4,0.5,0.9,0.5,1.5C115.7,41.4,115.5,42.1,115.1,42.6z"/>
</g>
<g>
	<path d="M128.4,44.6l-1.7-1.9c1-0.6,1.7-1.2,2.2-1.9c0.4-0.7,0.6-1.6,0.6-2.7c0-0.9-0.5-1.5-1.4-2c-0.7-0.3-1.5-0.5-2.5-0.5
		c-1.7,0-3.1,0.3-4.3,1c0,0.8-0.2,2.3-0.4,4.4c-0.2,1.7-0.3,3.1-0.3,4.4V47c0.3,0.2,0.7,0.3,1.3,0.3c0.1,0,0.3,0,0.5,0
		c0.2,0,0.4,0,0.5,0h0.2c0.2,0,0.4,0.1,0.5,0.1c0.2,0,0.4-0.5,0.4-1.6c0-1,0-1.7,0-2c0.2,0.3,0.4,0.5,0.5,0.7c0.5,1,0.9,1.7,1.1,2.1
		l0.4,0.7c0.5-0.1,1.1-0.1,1.8-0.3l1.8-0.4C129.6,46.1,129.2,45.5,128.4,44.6z M125.6,40.3c-0.4,0.3-0.8,0.4-1.2,0.4
		c0.1-1.2,0.2-2,0.2-2.4c0.1-0.1,0.2-0.1,0.4-0.1c0.4,0,0.6,0.1,0.9,0.3c0.2,0.2,0.3,0.5,0.3,0.8C126.2,39.7,126,40,125.6,40.3z"/>
</g>
<path d="M137,41L137,41c0.3-0.6,0.6-1.5,0.7-2.6c0.2-1.4,0.4-2.3,0.5-2.7l2.8-0.1c0.7,0,1.2,0,1.4,0c0.1,0.3,0.3,2.1,0.6,5.4
	l0.3,3.6c0,0.6,0.1,1.4,0.1,2.3c-0.2,0.1-0.5,0.1-0.8,0.1h-2.5c-0.2-0.9-0.3-2.2-0.6-3.9c-0.2,0.8-0.5,2-1,3.8
	c-0.2,0-0.9,0.1-2.1,0.2c-0.1,0-0.3,0-0.5,0c-0.2-0.4-0.4-1.2-0.6-2.3c-0.2-1-0.4-1.7-0.7-2.3l-0.1,2.9c0,0.6,0,1.2,0,1.6
	c0,0.2-0.1,0.3-0.4,0.3c-0.1,0-0.2,0-0.4,0s-0.3,0-0.4,0c0,0-0.4,0-1.2,0c-0.5,0-0.8,0-0.9,0c0.2-0.8,0.3-2,0.4-3.6l0.2-4.1
	c0.1-1.4,0.3-2.4,0.6-3.1c0.4-0.2,0.9-0.3,1.5-0.3c0.4,0,0.9-0.1,1.5-0.2C135.9,37.3,136.4,39.1,137,41z"/>
<path d="M8,70.2c-0.3,0-0.8,0.1-1.7,0.2c-0.7,0-1.3,0.1-1.7,0.2c-0.1,0.4-0.2,0.8-0.2,1.3v0.3c0.1,0.1,0.5,0.2,1,0.2
	c0.6,0.1,1,0.1,1,0.1c0.1,1.2,0.2,2,0.2,2.3c0,0.2-0.3,0.3-1,0.3H4.3c0,0.1,0,0.2,0,0.4c0,0.1,0,0.3,0,0.6v0.6c0,0.1,0,0.2,0,0.4
	v1.6c-0.2,0.2-0.6,0.3-1.4,0.5c-0.6,0.1-1.1,0.1-1.6,0.1l0.1-4.2c0.1-3.2,0.1-5.6,0.1-7.1c1.8-0.3,3.5-0.4,5-0.4h1.1
	C7.9,68.1,8,68.5,8,69V70.2z"/>
<path d="M13.2,79.6c-1.1,0.4-2.3,0.5-3.5,0.5v-1.2v-1.6c0-1.6,0.1-3.1,0.3-4.6c0.2-0.1,1.2-0.1,3.2-0.1v0.1c0,0.5,0,1,0,1.7v1
	c0,0.2,0,0.4,0,0.7C13.3,77.5,13.2,78.6,13.2,79.6z M13.1,71.3c-0.4,0.3-0.9,0.5-1.5,0.5s-1.1-0.1-1.5-0.4c-0.5-0.3-0.7-0.8-0.7-1.3
	c0-0.6,0.2-1.1,0.5-1.5s0.8-0.7,1.4-0.7c0.6,0,1.2,0.2,1.7,0.6s0.8,0.9,0.8,1.5C13.7,70.5,13.5,70.9,13.1,71.3z"/>
<path d="M24.4,74.9c0.1,1.9,0.1,3.3,0.1,4.3c-1.8,0.1-3.1,0.2-4.1,0.3c-0.4-0.9-0.9-2.4-1.7-4.4c-0.1,0.3-0.1,1.7,0,4.1
	c0,0.3-1,0.4-3.2,0.4c-0.2-0.2-0.2-0.5-0.2-0.8c0-1.2,0.1-3,0.2-5.3l0.3-5.3l3-0.3l1,3.2c0.4,1.3,0.8,2.3,1.2,3.2
	c0.1-0.3,0.1-0.7,0.1-1.4c0-0.3,0-0.9-0.1-1.7c0-0.7-0.1-1.3-0.1-1.7c0-0.1,0-0.3,0-0.6c0-0.3,0-0.4,0-0.6h3.5c0,0.1,0,0.4-0.1,0.9
	c-0.1,0.8-0.1,1.3-0.1,1.5C24.3,71.8,24.3,73.3,24.4,74.9z"/>
<g>
	<path d="M32.4,69.3c-1.2-1-2.7-1.5-4.7-1.5c-0.1,0-0.3,0-0.5,0s-0.4,0-0.5,0c0,0.6,0,1.2,0,1.8c0,0.9,0,2.3-0.1,4.1
		c-0.1,1.8-0.1,3.2-0.1,4.1c0,0.2,0,0.5,0,0.8c0,0.5,0,0.7,0,0.8c0.9,0.1,1.6,0.2,1.9,0.2c1.6,0,2.9-0.6,4-1.7
		c1.1-1.1,1.6-2.5,1.8-4.1C34.2,71.9,33.6,70.4,32.4,69.3z M30.7,75c-0.5,0.7-1,1-1.4,1h-0.6v-1.6c0-0.1,0-0.2,0-0.2v-0.4
		c0-1.3,0.1-2.2,0.2-2.8h0.4c0.5,0,1,0.3,1.5,0.8s0.7,1.1,0.7,1.6C31.5,73.8,31.2,74.4,30.7,75z"/>
</g>
<path d="M50.4,71.3c-0.5,0-1.7,0-3.5,0l0.2,4c0.1,1.4,0.2,2.7,0.3,4c-0.4,0.1-1.1,0.1-1.9,0.2c-0.5,0-1.2,0.1-1.9,0.2l0.6-8.3
	c-0.6-0.1-1.4-0.2-2.5-0.3c0.1-0.7,0.3-1.6,0.4-2.8c0.9-0.1,2.2-0.2,3.9-0.2c0.4,0,1.2,0,2.2,0.1l1.6,0.1c0.3,0,0.5,0,0.6,0
	c0.1,0.1,0.1,0.5,0.1,1.3C50.5,70.3,50.4,70.9,50.4,71.3z"/>
<path d="M59.5,79.3l-2.6,0.1c-0.1-0.1-0.2-0.3-0.2-0.5c0-0.1,0-0.2,0-0.4c0-0.1,0-0.3,0-0.3v-2.9L55,75.5v1.3c0,0,0,0.1,0,0.2v0.5
	c0,0.8,0,1.4,0.1,2c-1.3,0.1-2.2,0.1-2.7,0.1c-0.3,0-0.4-0.2-0.4-0.6c0-5.2,0.3-8.9,0.9-11.1c0.7,0,1.2,0,1.6,0h0.8
	c0,0.5,0,2.1,0,4.8c0.6,0,1.1-0.1,1.5-0.3c0-0.5,0.1-0.8,0.1-1V71c0,0,0-0.2,0-0.6v-1c0-0.4,0.1-0.7,0.2-1.1
	c0.5-0.1,1.1-0.2,1.8-0.4c0.1,0,0.3,0,0.5,0c0.2,0.3,0.3,1.9,0.4,4.7c0.1,2,0.1,3.8,0.1,5.2C59.6,78.2,59.5,78.7,59.5,79.3z"/>
<path d="M68.1,70.5c-0.8,0.1-1.6,0.2-2.4,0.2c-0.3,0-0.5,0-0.8,0c0,0.4,0,0.9-0.1,1.6l1.9,0.3c0,0.9-0.1,1.5-0.2,1.9
	c-0.2,0.1-0.5,0.2-1.1,0.3l-0.6,0.1c-0.2,0-0.4,0.1-0.5,0.1v1.3c0.4,0,1.1,0.1,1.9,0.2c0.9,0.1,1.4,0.2,1.4,0.3v2.5l-5,0.1
	c-0.1,0-0.5,0-1.2-0.1l0.2-5.3c0.1-1.7,0.3-3.5,0.6-5.2c0.1-0.4,0.1-0.7,0.2-1h2.9c1.2,0,2.2,0.1,2.9,0.2L68.1,70.5z"/>
<path d="M73.7,79.6c-1.1,0.4-2.3,0.5-3.5,0.5v-1.2v-1.6c0-1.6,0.1-3.1,0.3-4.6c0.2-0.1,1.2-0.1,3.2-0.1v0.1c0,0.5,0,1,0,1.7v1
	c0,0.2,0,0.4,0,0.7C73.8,77.5,73.7,78.6,73.7,79.6z M73.6,71.3c-0.4,0.3-0.9,0.5-1.5,0.5s-1.1-0.1-1.5-0.4c-0.5-0.3-0.7-0.8-0.7-1.3
	c0-0.6,0.2-1.1,0.5-1.5s0.8-0.7,1.4-0.7s1.2,0.2,1.7,0.6s0.8,0.9,0.8,1.5C74.3,70.5,74,70.9,73.6,71.3z"/>
<g>
	<path d="M83.6,76.8l-1.7-1.9c1-0.6,1.7-1.2,2.1-1.9c0.4-0.7,0.6-1.6,0.6-2.7c0-0.9-0.5-1.5-1.4-2c-0.7-0.3-1.5-0.5-2.5-0.5
		c-1.7,0-3.1,0.3-4.3,1c0,0.8-0.2,2.3-0.4,4.4c-0.2,1.7-0.3,3.1-0.3,4.4v1.6c0.3,0.2,0.7,0.3,1.3,0.3c0.1,0,0.3,0,0.5,0s0.4,0,0.5,0
		h0.3c0.2,0,0.4,0.1,0.5,0.1c0.2,0,0.4-0.5,0.4-1.6c0-1,0-1.7,0-2c0.2,0.3,0.4,0.5,0.5,0.7c0.5,1,0.9,1.7,1.1,2.1l0.4,0.7
		c0.5-0.1,1.1-0.1,1.8-0.3l1.8-0.4C84.8,78.3,84.4,77.7,83.6,76.8z M80.8,72.6C80.4,72.9,80,73,79.6,73c0.1-1.2,0.2-2,0.2-2.4
		c0.1-0.1,0.2-0.1,0.4-0.1c0.3,0,0.6,0,0.9,0.3c0.2,0.2,0.3,0.5,0.3,0.8C81.4,72,81.2,72.3,80.8,72.6z"/>
</g>
<g>
	<path d="M98.3,69.3c-1.2-1-2.7-1.5-4.7-1.5c-0.1,0-0.3,0-0.5,0c-0.2,0-0.4,0-0.5,0c0,0.6,0,1.2,0,1.8c0,0.9,0,2.3-0.1,4.1
		c-0.1,1.8-0.1,3.2-0.1,4.1c0,0.2,0,0.5,0,0.8c0,0.5,0,0.7,0,0.8c0.9,0.1,1.6,0.2,1.9,0.2c1.6,0,2.9-0.6,4-1.7
		c1.1-1.1,1.7-2.5,1.8-4.1C100.1,71.9,99.5,70.4,98.3,69.3z M96.7,75c-0.5,0.7-1,1-1.4,1h-0.6v-1.6c0-0.1,0-0.2,0-0.2v-0.4
		c0-1.3,0.1-2.2,0.2-2.8h0.4c0.5,0,1,0.3,1.5,0.8s0.7,1.1,0.7,1.6C97.5,73.8,97.2,74.4,96.7,75z"/>
</g>
<g>
	<path d="M132.1,62.4C132.1,62.4,132.1,62.4,132.1,62.4C132.1,62.4,132.1,62.4,132.1,62.4z"/>
	<path d="M132.1,62.6C132.1,62.6,132.1,62.5,132.1,62.6C132.1,62.5,132.1,62.6,132.1,62.6L132.1,62.6z"/>
	<path class="st0" d="M93.7,51.7c-0.1,0-0.3,0-0.5,0s-0.4,0-0.5,0c0,0.6,0,1.2,0,1.8c0,0.9,0,2.3-0.1,4.1c-0.1,1.8-0.1,3.2-0.1,4.1
		c0,0.2,0,0.5,0,0.8c0,0.5,0,0.7,0,0.8c0.9,0.1,1.6,0.2,1.9,0.2c1.6,0,2.9-0.6,4-1.7c1.1-1.2,1.7-2.5,1.8-4.1c0-1.4-0.3-2.5-0.9-3.4
		c-0.1-0.2-0.2-0.3-0.4-0.5l0,0c-0.2-0.2-0.3-0.4-0.5-0.6C97.2,52.2,95.7,51.7,93.7,51.7z M96.8,58.8c-0.5,0.7-1,1-1.4,1h-0.6v-1.5
		c0-0.1,0-0.2,0-0.2v-0.4c0-1.3,0.1-2.2,0.2-2.8h0.4c0.5,0,1,0.3,1.5,0.7c0.5,0.5,0.7,1.1,0.7,1.6C97.6,57.6,97.3,58.2,96.8,58.8z"
		/>
	<path class="st0" d="M84.5,52.2l-1.6-0.1c-1-0.1-1.8-0.1-2.2-0.1c-1.7,0-3,0.1-3.9,0.2c-0.1,1.2-0.3,2.1-0.4,2.8
		c1.1,0.1,1.9,0.2,2.5,0.3l-0.6,8.3c0.7-0.1,1.4-0.2,1.9-0.2c0.8-0.1,1.5-0.1,1.9-0.2c-0.1-1.3-0.2-2.6-0.3-4l-0.2-4
		c1.8,0,3,0,3.5,0c0.1-0.4,0.1-1,0.1-1.7c0-0.8,0-1.2-0.1-1.3C85,52.2,84.8,52.2,84.5,52.2z"/>
	<path class="st0" d="M12.9,62c0.2,0.4,0.4,0.6,0.7,0.6l1.7,0.1c1,0.1,1.6,0.1,1.7,0.1c0.2-0.5,0.4-1.2,0.5-2.1
		c0.2-1,0.3-1.8,0.4-2.1c0.2,0.6,0.5,1.4,0.7,2.4c0.4,1.5,0.6,2.3,0.6,2.4l5-0.4l1.7-10.9l-0.4-0.4c-1.3,0.1-2.5,0.2-3.5,0.2
		c-0.1,0.9-0.2,1.8-0.4,2.7L21,57.3c-0.2-0.6-0.3-1-0.4-1.3l-0.3-1.3c-0.2-1.1-0.5-1.9-0.7-2.5c-0.3-0.1-0.9-0.1-1.7-0.2
		c-0.8-0.1-1.2-0.1-1.2-0.1l-0.4,2.7c-0.2,1.2-0.4,2.1-0.7,2.7c-0.2-0.6-0.4-1.5-0.8-2.8c-0.3-1.2-0.6-2.1-0.8-2.8
		c-0.7,0.1-1.7,0.3-3.1,0.7l0.4,1.9c0.5,2.5,1,4.6,1.4,6.5C12.7,61.4,12.8,61.8,12.9,62z"/>
	<path class="st0" d="M113.3,51.7c-0.1,0.3-0.1,0.6-0.2,1c-0.3,1.7-0.5,3.5-0.6,5.2l-0.2,5.3c0.7,0.1,1.1,0.1,1.2,0.1l5-0.1v-2.5
		c0-0.1-0.5-0.2-1.4-0.3c-0.8-0.1-1.5-0.2-1.9-0.2v-1.3c0.1,0,0.3-0.1,0.5-0.1l0.6-0.1c0.6-0.1,0.9-0.2,1.1-0.3
		c0.1-0.4,0.2-1,0.2-1.9l-2-0.3c0.1-0.7,0.1-1.2,0.1-1.6c0.3,0,0.5,0,0.8,0c0.8,0,1.6-0.1,2.4-0.2l0.2-2.5c-0.7-0.1-1.7-0.2-2.9-0.2
		H113.3z"/>
	<path class="st0" d="M107.9,58.8c1-0.6,1.7-1.2,2.1-1.9c0.4-0.7,0.6-1.6,0.6-2.7c0-0.9-0.5-1.5-1.4-2c-0.7-0.3-1.5-0.5-2.5-0.5
		c-1.7,0-3.1,0.3-4.3,1c0,0.8-0.2,2.3-0.4,4.4c-0.2,1.7-0.3,3.1-0.3,4.4h0.1v1.6c0.3,0.2,0.7,0.3,1.3,0.3c0.1,0,0.3,0,0.5,0
		c0.2,0,0.4,0,0.5,0h0.2c0.2,0,0.4,0.1,0.5,0.1c0.2,0,0.4-0.5,0.4-1.6c0-1,0-1.7,0-2c0.2,0.3,0.4,0.5,0.5,0.7c0.5,1,0.9,1.7,1.1,2.1
		l0.4,0.7c0.5-0.1,1.1-0.1,1.8-0.3l1.8-0.4c0-0.5-0.4-1.1-1.2-2L107.9,58.8z M106.7,56.4c-0.4,0.3-0.8,0.4-1.2,0.4
		c0.1-1.2,0.2-2,0.2-2.4c0.1-0.1,0.2-0.1,0.4-0.1c0.3,0,0.6,0.1,0.8,0.3c0.2,0.2,0.3,0.5,0.3,0.8C107.2,55.8,107,56.1,106.7,56.4z"
		/>
	<path class="st0" d="M73.9,52.4c-0.5-0.4-1.1-0.6-1.7-0.6s-1.1,0.3-1.4,0.7c-0.3,0.4-0.5,0.9-0.5,1.5c0,0.5,0.2,1,0.7,1.3
		c0.4,0.3,0.9,0.4,1.5,0.4s1.1-0.2,1.5-0.5c0.5-0.4,0.7-0.8,0.7-1.3C74.7,53.3,74.4,52.8,73.9,52.4z"/>
	<path class="st0" d="M38,51.8c-0.1,0.3-0.1,0.6-0.2,1c-0.3,1.7-0.5,3.5-0.6,5.2L37,63.3c0.7,0.1,1.1,0.1,1.2,0.1l5-0.1h-0.1v-2.5
		c0-0.1-0.5-0.2-1.4-0.3c-0.8-0.1-1.5-0.2-1.9-0.2V59c0.1,0,0.3-0.1,0.5-0.1l0.6-0.1c0.6-0.1,0.9-0.2,1.1-0.3c0.1-0.4,0.2-1,0.2-1.9
		l-1.9-0.3c0.1-0.7,0.1-1.2,0.1-1.6c0.3,0,0.5,0,0.8,0c0.8,0,1.6-0.1,2.4-0.2l0.2-2.5c-0.7-0.1-1.7-0.2-2.9-0.2H38z"/>
	<path class="st0" d="M74.1,59.3v-1c0-0.7,0-1.2,0-1.7v-0.1c-2,0-3,0-3.2,0.1c-0.2,1.5-0.3,3-0.3,4.6v1.6V64c1.2,0,2.4-0.1,3.5-0.5
		c0.1-1,0.1-2.1,0-3.5C74.1,59.7,74.1,59.5,74.1,59.3z"/>
	<path class="st0" d="M34.9,51.7c-0.2,0-0.4,0-0.5,0c-0.7,0.2-1.3,0.3-1.8,0.4c-0.1,0.4-0.2,0.7-0.2,1.1v1c0,0.4,0,0.6,0,0.6v0.5
		c0,0.2-0.1,0.5-0.1,1c-0.4,0.2-0.9,0.3-1.5,0.3c0-2.7,0-4.3,0-4.8H30c-0.4,0-0.9,0-1.6,0c-0.6,2.2-0.9,5.9-0.9,11.1
		c0,0.4,0.1,0.6,0.4,0.6c0.5,0,1.4,0,2.7-0.1c-0.1-0.6-0.1-1.2-0.1-2v-0.5c0-0.1,0-0.2,0-0.2v-1.3l1.7-0.2v2.9c0,0,0,0.2,0,0.3
		c0,0.2,0,0.3,0,0.4c0,0.2,0.1,0.4,0.2,0.5l2.6-0.1c0.1-0.6,0.1-1.1,0.4-1.6c0-1.4,0-3.2-0.1-5.2C35.2,53.6,35.1,52,34.9,51.7z"/>
	<path class="st0" d="M51.6,58.8c1-0.6,1.7-1.2,2.1-1.9c0.4-0.7,0.6-1.6,0.6-2.7c0-0.9-0.5-1.5-1.4-2c-0.7-0.3-1.5-0.5-2.5-0.5
		c-1.7,0-3.1,0.3-4.3,1c0,0.8-0.2,2.3-0.4,4.4c-0.2,1.7-0.3,3.1-0.3,4.4h0.1v1.6c0.3,0.2,0.7,0.3,1.3,0.3c0.1,0,0.3,0,0.5,0
		c0.2,0,0.4,0,0.5,0H48c0.2,0,0.4,0.1,0.5,0.1c0.2,0,0.4-0.5,0.4-1.6c0-1,0-1.7,0-2c0.2,0.3,0.4,0.5,0.5,0.7c0.5,1,0.9,1.7,1.1,2.1
		l0.4,0.7c0.5-0.1,1.1-0.1,1.8-0.3l1.8-0.4c0-0.5-0.4-1.1-1.2-2L51.6,58.8z M50.4,56.4c-0.4,0.3-0.8,0.4-1.2,0.4
		c0.1-1.2,0.2-2,0.2-2.4c0.1-0.1,0.2-0.1,0.4-0.1c0.3,0,0.6,0.1,0.8,0.3c0.2,0.2,0.3,0.5,0.3,0.8C50.9,55.8,50.7,56.1,50.4,56.4z"/>
	<path class="st0" d="M57,51.7c-0.1,0.3-0.1,0.6-0.2,1c-0.3,1.7-0.5,3.5-0.6,5.2L56,63.2c0.7,0.1,1.1,0.1,1.2,0.1l5-0.1v-2.5
		c0-0.1-0.5-0.2-1.4-0.3c-0.8-0.1-1.5-0.2-1.9-0.2v-1.3c0.1,0,0.3-0.1,0.5-0.1l0.6-0.1c0.6-0.1,0.9-0.2,1.1-0.3
		c0.1-0.4,0.2-1,0.2-1.9l-2-0.3c0.1-0.7,0.1-1.2,0.1-1.6c0.3,0,0.5,0,0.8,0c0.8,0,1.6-0.1,2.4-0.2l0.2-2.5c-0.7-0.1-1.7-0.2-2.9-0.2
		H57z"/>
	<path class="st0" d="M150.7,56.1c-0.7-0.4-1-0.7-1-1c0-0.2,0.1-0.4,0.3-0.5c0.2-0.1,0.4-0.2,0.6-0.2c0.3,0,0.5,0.1,0.6,0.4l0.3,0.7
		c1.4-0.3,2.3-0.5,2.9-0.8c0-0.9-0.3-1.6-1-2.2c-0.6-0.6-1.4-0.9-2.3-0.9c-1.3,0-2.3,0.3-3,0.9c-0.8,0.7-1.2,1.6-1.4,2.8
		c0.1,0.8,0.5,1.5,1.1,2.1c0.2,0.2,0.5,0.5,0.8,0.7c0.3,0.2,0.6,0.4,0.9,0.6c0.6,0.4,0.9,0.8,0.9,1.1c0,0.5-0.3,0.8-0.8,0.8h-0.1
		h-0.1c-0.2-0.2-0.3-0.5-0.4-0.7c0,0-0.1-0.2-0.1-0.5h-1.5c-0.4,0-0.8,0-1.1,0c-0.1,0.3-0.1,0.7-0.1,1.3c0,1.1,0.4,1.9,1.1,2.3
		c0.6,0.3,1.4,0.5,2.6,0.5c1,0,1.9-0.4,2.6-1c0.7-0.7,1-1.5,1-2.6c0-1.1-0.4-1.9-1-2.6C152.2,57,151.6,56.6,150.7,56.1z"/>
	<path class="st0" d="M134.2,63.4c0.1,0,0.2,0,0.4,0c0.2,0,0.3,0,0.4,0c0.3,0,0.4-0.1,0.4-0.3c0-0.4,0-1,0-1.6l0.1-2.9
		c0.3,0.6,0.5,1.3,0.7,2.3c0.2,1.1,0.4,1.9,0.6,2.3c0.2,0,0.4,0,0.5,0c1.2-0.1,1.9-0.2,2.1-0.2c0.5-1.8,0.8-3,1-3.8
		c0.3,1.7,0.4,3,0.6,3.9h2.5c0.3,0,0.6,0,0.8-0.1c0-0.9-0.1-1.7-0.1-2.3l-0.3-3.6c-0.3-3.3-0.5-5.1-0.6-5.4c-0.2,0-0.7,0-1.4,0
		l-2.6,0.1c-0.1,0.5-0.3,1.4-0.5,2.8c-0.1,0.4-0.1,0.7-0.2,1c0-0.1-0.1-0.3-0.1-0.4c-0.2,0.8-0.3,1.5-0.6,1.9
		c-0.6-1.9-1.1-3.6-1.5-5.1c-0.6,0.1-1.1,0.2-1.5,0.2c0,0,0,0,0,0c-0.4,0.1-0.7,0.2-1.2,0.3c-0.4,0.8-0.6,1.9-0.6,3.4l-0.1,2.4
		c0,0.3,0,0.9-0.1,1.7c0,1-0.1,1.8-0.2,2.6c0,0.1,0.1,0.2,0.1,0.3l-0.2,0.1c0,0.1,0,0.2-0.1,0.3c0.1,0,0.3,0,0.5,0.1
		C133.8,63.4,134.2,63.4,134.2,63.4z"/>
	<path class="st0" d="M125.1,51.6h-1c-0.3,0-0.5,0-0.7,0h-0.7c-0.4,1.5-0.8,3.3-1.1,5.4l-0.8,5.4c0.4,0.3,1,0.5,1.8,0.6l1.2,0.2
		c0.1-0.2,0.2-0.8,0.3-1.7c0.1-0.8,0.2-1.3,0.3-1.4c0.1-0.1,0.4-0.1,0.9-0.2c0.6,0,1-0.1,1-0.1c0.2,0.6,0.5,1.2,0.9,1.8l1,1.8l3-1.8
		c-1.2-3.2-2.6-6.6-4.4-10.1L125.1,51.6z M125.4,57.8h-1c0-0.3,0.1-0.7,0.2-1.3c0.1-0.6,0.1-1,0.1-1.3c0.7,1.2,1.1,2.1,1.2,2.6
		C125.8,57.8,125.6,57.8,125.4,57.8z"/>
	<path d="M26.4,52.1l-0.6-0.6c-1.6,0.1-3,0.2-4,0.3c-0.1,1-0.3,1.9-0.4,2.9c0,0.1-0.1,0.2-0.1,0.4c0,0,0,0,0,0.1
		c-0.2-0.9-0.5-1.7-0.7-2.5l-0.5-0.5v-0.1c-0.5-0.1-1.1-0.2-2-0.3c-0.6,0-1-0.1-1.1-0.1c-0.2,0-0.3,0.1-0.5,0.2l-0.4,2.8
		c0,0.1,0,0.2-0.1,0.4l-0.1,0.4v-0.2c-0.3-1.3-0.6-2.4-1-3.3l-0.5-0.5c0,0,0,0,0-0.1c-0.6,0.1-1.4,0.2-2.3,0.4l-1,0.2l-0.3,0.1
		l0.1,0.3c1.5-0.4,2.5-0.6,3.1-0.7c0.2,0.7,0.5,1.6,0.8,2.8c0.4,1.3,0.6,2.2,0.8,2.8c0.3-0.6,0.5-1.5,0.7-2.7l0.4-2.7
		c0,0,0.4,0,1.2,0.1c0.8,0.1,1.4,0.1,1.7,0.2c0.2,0.6,0.5,1.4,0.7,2.5l0.3,1.3c0.1,0.3,0.2,0.7,0.4,1.3l0.6-2.7
		c0.2-0.9,0.3-1.8,0.4-2.7c1,0,2.2-0.1,3.5-0.2l0.4,0.4L24.2,63l-5,0.4c0-0.1-0.2-0.9-0.6-2.4c-0.2-1-0.5-1.8-0.7-2.4
		c-0.1,0.3-0.2,1.1-0.4,2.1c-0.1,0.9-0.3,1.6-0.5,2.1c-0.1,0-0.7,0-1.7-0.1l-1.7-0.1c-0.3,0-0.5-0.2-0.7-0.6
		c-0.1-0.2-0.2-0.6-0.3-1.2c-0.4-1.8-0.9-4-1.4-6.5l1.2,6.5c0.1,0.3,0.2,0.8,0.3,1.3c0.1,0.3,0.3,0.6,0.6,0.7l0.4,0.4
		c0.2,0.2,0.4,0.3,0.6,0.3c0.1,0,0.6,0,1.7,0.1c0.9,0,1.4,0.1,1.6,0.1H18c0.3-0.6,0.5-1.3,0.6-2.2l0.4,1.6c0,0.2,0.1,0.4,0.2,0.7
		l0.6,0.6l5.5-0.4L27,52.7L26.4,52.1z"/>
	<path d="M10.8,52.4c0.1,0.7,0.3,1.3,0.4,1.9L10.8,52.4C10.8,52.4,10.8,52.4,10.8,52.4z"/>
	<path d="M35.4,52l-0.5-0.5v-0.1c-0.4,0-0.9,0.1-1.4,0.2c-0.4,0.1-0.6,0.1-0.7,0.2h-0.7c-0.2,0.6-0.3,1-0.3,1.5v2c0,0,0,0.3,0,0.7
		c-0.1,0-0.2,0.1-0.2,0.1v-2.6c0-0.5,0-0.9,0-1.4L31,51.5l-1.4-0.1c-0.1,0-0.2,0-0.3,0h-0.8c-0.1,0-0.2,0-0.4,0
		c-0.8,2.4-1.1,6.2-1.1,11.4c0,0.4,0.1,0.7,0.4,0.9l0.4,0.4c0.1,0.1,0.3,0.2,0.5,0.2c0.5,0,1.4,0,2.7-0.1l0.3-0.4
		c0-0.5-0.1-1.2-0.1-1.9v-0.5c0-0.1,0-0.1,0-0.2v-1h0.5v2v0.2c0,0.2,0,0.4,0,0.4c0,0.3,0.1,0.6,0.4,0.9l0.5,0.5c0,0,0,0,0.1,0.1
		l3-0.1c0.1-0.8,0.2-1.4,0.2-1.9c0-1.4,0-3.2-0.1-5.2C35.8,54.1,35.6,52.5,35.4,52z M35,63.2l-2.6,0.1c-0.1-0.1-0.2-0.3-0.2-0.5
		c0-0.1,0-0.2,0-0.4c0-0.1,0-0.3,0-0.3v-2.9l-1.7,0.2v1.3c0,0,0,0.1,0,0.2v0.5c0,0.8,0,1.4,0.1,2c-1.3,0.1-2.2,0.1-2.7,0.1
		c-0.3,0-0.4-0.2-0.4-0.6c0-5.2,0.3-8.9,0.9-11.1c0.7,0,1.2,0,1.6,0h0.8c0,0.5,0,2.1,0,4.8c0.6,0,1.1-0.1,1.5-0.3
		c0-0.5,0.1-0.8,0.1-1v-0.5c0,0,0-0.2,0-0.6v-1c0-0.4,0.1-0.7,0.2-1.1c0.5-0.1,1.1-0.2,1.8-0.4c0.1,0,0.3,0,0.5,0
		c0.2,0.3,0.3,1.9,0.4,4.7c0.1,2,0.1,3.8,0.1,5.2C35.1,62.1,35.1,62.6,35,63.2z"/>
	<path d="M43.9,51.3c-1-0.2-2.1-0.2-3.3-0.2h-3.2c-0.1,0.5-0.1,0.8-0.2,1.1v0.2c-0.3,2.2-0.5,4-0.6,5.3l-0.2,5.6h0.1l0.5,0.6
		c0.9,0.1,1.4,0.1,1.5,0.1l5.3-0.1v-2.5h0.3c0-0.1,0-0.2-0.1-0.3l-0.5-0.5c-0.1-0.3-0.7-0.5-1.7-0.6c-0.3,0-0.7,0-1.1-0.1v-0.1
		c0.1,0,0.7-0.2,1.6-0.4c0.2-0.1,0.4-0.1,0.5-0.2c0.2-0.5,0.3-1.4,0.3-2.5l-0.6-0.6V56l-1.3-0.2c0-0.1,0-0.3,0-0.5h0.4
		c0.8,0,1.7-0.1,2.7-0.3l0.2-3l-0.6-0.6V51.3z M43.6,54.5c-0.8,0.1-1.6,0.2-2.4,0.2c-0.3,0-0.5,0-0.8,0c0,0.4,0,0.9-0.1,1.6l1.9,0.3
		c0,0.9-0.1,1.5-0.2,1.9c-0.2,0.1-0.5,0.2-1.1,0.3l-0.6,0.1c-0.2,0-0.4,0.1-0.5,0.1v1.3c0.4,0,1.1,0.1,1.9,0.2
		c0.9,0.1,1.4,0.2,1.4,0.3v2.5h0.1l-5,0.1c-0.1,0-0.5,0-1.2-0.1l0.2-5.3c0.1-1.7,0.3-3.5,0.6-5.2c0.1-0.4,0.1-0.7,0.2-1h2.9
		c1.2,0,2.2,0.1,2.9,0.2L43.6,54.5z"/>
	<path d="M52.6,59.4c0.9-0.6,1.6-1.2,2-1.9c0.4-0.7,0.6-1.6,0.6-2.7c0-0.7-0.2-1.2-0.7-1.7l-0.3-0.3c-0.3-0.4-0.6-0.7-1.1-1
		c-0.7-0.4-1.6-0.6-2.7-0.6c-1.7,0-3.3,0.4-4.6,1.2c0,0.9-0.1,2.4-0.4,4.6c-0.2,1.6-0.3,3-0.3,4.2v0.2v1.7c0,0.2,0.1,0.2,0.2,0.3
		l0.4,0.4c0.3,0.3,0.9,0.5,1.6,0.5h0.2c0.1,0,0.1,0,0.2,0c0.1,0,0.1,0,0.3,0s0.2,0,0.3,0h0.2c0.2,0,0.3,0,0.5,0.1
		c0.5-0.1,0.7-0.7,0.7-2V62c0.3,0.6,0.6,1.2,0.9,1.6h0.1l0.6,0.6c0.7,0,1.3-0.1,2-0.3l2-0.5c0-0.7-0.5-1.5-1.3-2.4L52.6,59.4z
		 M52.7,63.1c-0.7,0.2-1.3,0.2-1.8,0.3l-0.4-0.7c-0.2-0.4-0.6-1.1-1.1-2.1c-0.1-0.2-0.3-0.4-0.5-0.7c0,0.3,0,1,0,2
		c0,1.1-0.2,1.6-0.4,1.6c-0.1,0-0.3-0.1-0.5-0.1h-0.2c-0.1,0-0.3,0-0.5,0c-0.2,0-0.4,0-0.5,0c-0.6,0-1-0.1-1.3-0.3v-1.6h-0.1
		c0-1.3,0.1-2.7,0.3-4.4c0.2-2.1,0.4-3.6,0.4-4.4c1.2-0.7,2.6-1,4.3-1c1,0,1.8,0.2,2.5,0.5c0.9,0.5,1.4,1.1,1.4,2
		c0,1.1-0.2,2-0.6,2.7c-0.4,0.7-1.1,1.3-2.1,1.9l1.7,1.9c0.8,0.9,1.2,1.5,1.2,2L52.7,63.1z"/>
	<path d="M49.8,54.3c-0.2,0-0.3,0-0.4,0.1c0,0.4-0.1,1.2-0.2,2.4c0.4,0,0.8-0.1,1.2-0.4c0.3-0.3,0.5-0.6,0.5-1
		c0-0.3-0.1-0.6-0.3-0.8C50.4,54.4,50.1,54.3,49.8,54.3z M50.6,55.3c0,0.3-0.1,0.5-0.4,0.7c-0.1-0.1-0.1-0.4,0-0.8c0,0,0.1,0,0.2,0
		C50.5,55.2,50.5,55.2,50.6,55.3L50.6,55.3z"/>
	<path d="M63.1,51.5c-1-0.2-2.1-0.2-3.3-0.2h-3.2c-0.1,0.5-0.1,0.8-0.2,1.1v0.2c-0.3,2.2-0.5,4-0.6,5.3l-0.2,5.6h0.1l0.5,0.6
		c0.9,0.1,1.4,0.1,1.5,0.1l5.3-0.1v-2.8c0-0.1,0-0.2-0.1-0.3l-0.5-0.5c-0.1-0.3-0.7-0.5-1.7-0.6c-0.3,0-0.7,0-1.1-0.1
		c0.1,0,0.7-0.2,1.6-0.4c0.2-0.1,0.4-0.1,0.5-0.2c0.2-0.5,0.3-1.4,0.3-2.5l-0.6-0.6V56l-1.3-0.2c0-0.1,0-0.3,0-0.5h0.7v0.2
		c0.8,0,1.7-0.1,2.7-0.3l0.2-3L63.1,51.5L63.1,51.5z M62.6,54.4c-0.8,0.1-1.6,0.2-2.4,0.2c-0.3,0-0.5,0-0.8,0c0,0.4,0,0.9-0.1,1.6
		l2,0.3c0,0.9-0.1,1.5-0.2,1.9c-0.2,0.1-0.5,0.2-1.1,0.3l-0.6,0.1c-0.2,0-0.4,0.1-0.5,0.1v1.3c0.4,0,1.1,0.1,1.9,0.2
		c0.9,0.1,1.4,0.2,1.4,0.3v2.5l-5,0.1c-0.1,0-0.5,0-1.2-0.1l0.2-5.3c0.1-1.7,0.3-3.5,0.6-5.2c0.1-0.4,0.1-0.7,0.2-1h2.9
		c1.2,0,2.2,0.1,2.9,0.2L62.6,54.4z"/>
	<path d="M75.1,56.2c0.2-0.6,0.5-1.2,0.5-1.8c0-0.6-0.2-1.1-0.6-1.5l-0.3-0.3c-0.2-0.2-0.4-0.4-0.6-0.6c-0.5-0.4-1.2-0.6-1.9-0.6
		s-1.2,0.3-1.6,0.8C70.2,52.7,70,53.3,70,54s0.3,1.2,0.9,1.6l0.3,0.3c0.2,0.2,0.5,0.4,0.7,0.5c-0.7,0-1.1,0.1-1.2,0.2
		c-0.2,1.6-0.3,3.2-0.3,4.8V63l0.1,1.5h0.1l0.6,0.6c1.4,0,2.7-0.2,4-0.6c0.1-1.1,0.1-2.4,0.1-3.7c0-0.3,0-0.6,0-0.7v-1
		c0-0.7,0-1.2,0-1.6l0.1-0.4l-0.6-0.6v-0.1C74.9,56.4,75,56.3,75.1,56.2z M74.1,63.5C73,63.9,71.8,64,70.6,64v-1.2v-1.6
		c0-1.6,0.1-3.1,0.3-4.6c0.2-0.1,1.2-0.1,3.2-0.1v0.1c0,0.5,0,1,0,1.7v1c0,0.2,0,0.4,0,0.7C74.2,61.4,74.2,62.5,74.1,63.5z M74,55.2
		c-0.4,0.3-0.9,0.5-1.5,0.5s-1.1-0.1-1.5-0.4c-0.5-0.3-0.7-0.8-0.7-1.3c0-0.6,0.2-1.1,0.5-1.5c0.3-0.4,0.8-0.7,1.4-0.7
		s1.2,0.2,1.7,0.6c0.5,0.4,0.8,0.9,0.8,1.5C74.7,54.4,74.5,54.8,74,55.2z"/>
	<path d="M85.3,51.9c0,0,0-0.1-0.1-0.1c-0.5,0-1.3-0.1-2.3-0.2c-1-0.1-1.8-0.1-2.3-0.1c-1.8,0-3.2,0.1-4.2,0.2
		c-0.1,0.4-0.1,0.7-0.2,1l-0.3,1.8c0,0,0,0.2-0.1,0.6h0.1l0.5,0.5l1,0.1c0,0,0.3,0.1,0.9,0.1l-0.5,8l0.6,0.6l0.9-0.1
		c0.6-0.1,1.5-0.1,2.7-0.2c0.4,0,0.7-0.1,1-0.1c0,0,0-0.3-0.1-0.9l-0.1-1c-0.1-0.8-0.1-1.6-0.2-2.3l-0.2-3.6h0.9c0.1,0,0.4,0,0.8,0
		h1.3c0.1,0,0.2,0,0.4,0c0.1-0.6,0.1-1.3,0.1-2c0-0.8-0.1-1.3-0.2-1.6L85.3,51.9z M85.1,55.2c-0.5,0-1.7,0-3.5,0l0.2,4
		c0.1,1.4,0.2,2.7,0.3,4c-0.4,0.1-1.1,0.1-1.9,0.2c-0.5,0-1.2,0.1-1.9,0.2l0.6-8.3c-0.6-0.1-1.4-0.2-2.5-0.3
		c0.1-0.7,0.3-1.6,0.4-2.8c0.9-0.1,2.2-0.2,3.9-0.2c0.4,0,1.2,0,2.2,0.1l1.6,0.1c0.3,0,0.5,0,0.6,0c0.1,0.1,0.1,0.5,0.1,1.3
		C85.2,54.2,85.2,54.8,85.1,55.2z"/>
	<path d="M95.4,54.9H95c-0.1,0.6-0.2,1.5-0.2,2.8v0.4c0,0,0,0.1,0,0.2v1.5h0.6c0.4,0,0.9-0.3,1.4-1c0.5-0.6,0.8-1.2,0.8-1.6
		c0-0.5-0.2-1.1-0.7-1.6C96.4,55.2,95.9,54.9,95.4,54.9z M96.5,58.6c-0.3,0.3-0.5,0.6-0.8,0.7v-0.5c0-0.1,0-0.2,0-0.2v-0.4
		c0-1,0-1.8,0.1-2.4H96c0.2,0,0.5,0.1,0.7,0.2c0.4,0.5,0.6,0.9,0.6,1.3C97.2,57.6,97,58.1,96.5,58.6z"/>
	<path d="M99.3,54.2c-0.1-0.2-0.2-0.3-0.4-0.5l0,0C99,53.9,99.1,54.1,99.3,54.2z"/>
	<path d="M100.2,57.7c-0.1,1.6-0.7,2.9-1.8,4.1c-1.1,1.1-2.4,1.7-4,1.7c-0.3,0-1-0.1-1.9-0.2c0-0.1,0-0.3,0-0.8c0-0.3,0-0.6,0-0.8
		c0-0.9,0-2.3,0.1-4.1c0.1-1.8,0.1-3.2,0.1-4.1c0-0.6,0-1.2,0-1.8c0.1,0,0.3,0,0.5,0s0.4,0,0.5,0c2,0,3.5,0.5,4.7,1.5
		c0.2,0.2,0.3,0.4,0.5,0.6l0.2-0.2c-0.1-0.1-0.3-0.4-0.7-0.7c-1.2-1.1-2.8-1.6-5-1.6c-0.1,0-0.3,0-0.5,0c-0.1,0-0.2,0-0.3,0h-0.1
		h-0.4c0,0,0,0.2,0,0.5v1.7c0,0.9,0,2.3-0.1,4.1c-0.1,1.8-0.1,3.2-0.1,4.1c0,0.1,0,0.2,0,0.3s0,0.2,0,0.3v0.2c0,0,0,0.1,0,0.2v0.1
		v0.3c0,0.2,0,0.3,0,0.3v0.1l0.5,0.5c1.1,0.2,1.9,0.3,2.2,0.3c1.6,0,3-0.6,4.2-1.8s1.8-2.6,1.8-4.2c0-1.7-0.5-3-1.3-4
		C99.9,55.2,100.2,56.3,100.2,57.7z"/>
	<path d="M106.1,54.3c-0.2,0-0.3,0-0.4,0.1c0,0.4-0.1,1.2-0.2,2.4c0.4,0,0.8-0.1,1.2-0.4c0.3-0.3,0.5-0.6,0.5-1
		c0-0.3-0.1-0.6-0.3-0.8C106.7,54.4,106.4,54.3,106.1,54.3z M106.9,55.3c0,0.3-0.1,0.5-0.4,0.7c-0.1-0.1-0.1-0.4,0-0.8
		c0,0,0.1,0,0.2,0C106.8,55.2,106.8,55.2,106.9,55.3L106.9,55.3z"/>
	<path d="M108.9,59.4c0.9-0.6,1.6-1.2,2-1.9c0.4-0.7,0.6-1.6,0.6-2.7c0-0.7-0.2-1.2-0.7-1.7l-0.3-0.3c-0.3-0.4-0.6-0.7-1.1-1
		c-0.7-0.4-1.6-0.6-2.7-0.6c-1.7,0-3.3,0.4-4.6,1.2c0,0.9-0.1,2.4-0.4,4.6c-0.2,1.6-0.3,3-0.3,4.2v0.2v1.7c0,0.2,0.1,0.2,0.2,0.3
		l0.4,0.4c0.3,0.3,0.9,0.5,1.6,0.5h0.2c0.1,0,0.1,0,0.2,0s0.1,0,0.3,0s0.2,0,0.3,0h0.2c0.2,0,0.3,0,0.5,0.1c0.5-0.1,0.7-0.7,0.7-2
		V62c0.3,0.6,0.6,1.2,0.9,1.6h0.1l0.6,0.6c0.7,0,1.3-0.1,2-0.3l2-0.5c0-0.7-0.5-1.5-1.3-2.4L108.9,59.4z M109,63.1
		c-0.7,0.2-1.3,0.2-1.8,0.3l-0.4-0.7c-0.2-0.4-0.6-1.1-1.1-2.1c-0.1-0.2-0.3-0.4-0.5-0.7c0,0.3,0,1,0,2c0,1.1-0.2,1.6-0.4,1.6
		c-0.1,0-0.3-0.1-0.5-0.1h-0.2c-0.1,0-0.3,0-0.5,0c-0.2,0-0.4,0-0.5,0c-0.6,0-1-0.1-1.3-0.3v-1.6h-0.1c0-1.3,0.1-2.7,0.3-4.4
		c0.2-2.1,0.4-3.6,0.4-4.4c1.2-0.7,2.6-1,4.3-1c1,0,1.8,0.2,2.5,0.5c0.9,0.5,1.4,1.1,1.4,2c0,1.1-0.2,2-0.6,2.7
		c-0.4,0.7-1.1,1.3-2.1,1.9l1.7,1.9c0.8,0.9,1.2,1.5,1.2,2L109,63.1z"/>
	<path d="M119.5,51.5c-1-0.2-2.1-0.2-3.3-0.2H113c-0.1,0.5-0.1,0.8-0.2,1.1v0.2c-0.3,2.2-0.5,4-0.6,5.3l-0.2,5.6h0.1l0.5,0.6
		c0.9,0.1,1.4,0.1,1.5,0.1l5.3-0.1v-2.8c0-0.1,0-0.2-0.1-0.3l-0.5-0.5c-0.1-0.3-0.7-0.5-1.7-0.6c-0.3,0-0.7,0-1.1-0.1
		c0.1,0,0.7-0.2,1.6-0.4c0.2-0.1,0.4-0.1,0.5-0.2c0.2-0.5,0.3-1.4,0.3-2.5l-0.6-0.6V56l-1.3-0.2c0-0.1,0-0.3,0-0.5h0.7v0.2
		c0.8,0,1.7-0.1,2.7-0.3l0.2-3L119.5,51.5L119.5,51.5z M118.9,54.4c-0.8,0.1-1.6,0.2-2.4,0.2c-0.3,0-0.5,0-0.8,0
		c0,0.4,0,0.9-0.1,1.6l2,0.3c0,0.9-0.1,1.5-0.2,1.9c-0.2,0.1-0.5,0.2-1.1,0.3l-0.6,0.1c-0.2,0-0.4,0.1-0.5,0.1v1.3
		c0.4,0,1.1,0.1,1.9,0.2c0.9,0.1,1.4,0.2,1.4,0.3v2.5l-5,0.1c-0.1,0-0.5,0-1.2-0.1l0.2-5.3c0.1-1.7,0.3-3.5,0.6-5.2
		c0.1-0.4,0.1-0.7,0.2-1h2.9c1.2,0,2.2,0.1,2.9,0.2L118.9,54.4z"/>
	<path d="M132.1,62.5C132.1,62.5,132.1,62.5,132.1,62.5C132.1,62.5,132.1,62.5,132.1,62.5C132.1,62.5,132.1,62.5,132.1,62.5z"/>
	<path d="M132,62.3c0,0,0.1,0.1,0.1,0.1c-1.3-3.6-2.8-6.9-4.5-10.5l-0.5-0.5l-0.1-0.1l-2,0.1c-0.7,0-1.1,0-1.5,0h-0.2h-0.9
		c-0.5,1.6-0.9,3.5-1.2,5.7l-0.8,5.7c0,0,0.1,0,0.1,0.1l0.5,0.5c0.7,0.4,1.5,0.6,2.3,0.7l0.5,0.1c0.2,0,0.4,0.1,0.7,0.1
		c0.2-0.4,0.4-1.1,0.5-2c0.1-0.8,0.2-1.2,0.2-1.2s0.2-0.1,0.7-0.1c0.1,0,0.2,0,0.4,0c0.2,0.3,0.3,0.6,0.5,1l1.2,2.1l0.6,0.6l3.4-1.8
		c0-0.1,0-0.2,0-0.3l-0.1,0.1C132,62.6,132,62.4,132,62.3z M128.2,63.4l-1-1.8c-0.4-0.6-0.7-1.2-0.9-1.8c0,0-0.4,0.1-1,0.1
		c-0.5,0.1-0.8,0.1-0.9,0.2c-0.1,0.1-0.2,0.6-0.3,1.4c-0.1,0.9-0.2,1.5-0.3,1.7l-1.2-0.2c-0.8-0.1-1.4-0.3-1.8-0.6l0.8-5.4
		c0.3-2.1,0.7-3.9,1.1-5.4h0.7c0.2,0,0.4,0,0.7,0h1l1.7-0.1c1.8,3.5,3.2,6.9,4.4,10.1L128.2,63.4z"/>
	<path d="M132.1,62.4c0,0,0-0.1-0.1-0.1c0,0.1,0,0.3-0.1,0.4l0.1-0.1C132.1,62.6,132.1,62.5,132.1,62.4
		C132.1,62.5,132.1,62.5,132.1,62.4C132.1,62.4,132.1,62.4,132.1,62.4z"/>
	<path d="M124.6,56.5c-0.1,0.6-0.2,1-0.2,1.3h1c0.2,0,0.4,0,0.5,0c-0.1-0.5-0.5-1.4-1.2-2.6C124.7,55.5,124.7,55.9,124.6,56.5z"/>
	<path d="M138.8,54.6c0.2-1.4,0.3-2.3,0.5-2.8l-0.2,0c-0.1,0.4-0.3,1.3-0.5,2.7c0,0.2-0.1,0.5-0.1,0.7c0,0.1,0.1,0.3,0.1,0.4
		C138.7,55.3,138.7,55,138.8,54.6z"/>
	<path d="M145.2,57.6c-0.2-3.2-0.4-5.1-0.6-5.6l-0.5-0.5v-0.1c-0.1,0-0.3,0-0.6,0l-2.5,0.1c-0.1,0-0.6,0-1.7,0.1c0,0,0,0.1,0,0.2
		l2.6-0.1c0.7,0,1.2,0,1.4,0c0.1,0.3,0.3,2.1,0.6,5.4l0.3,3.6c0,0.6,0.1,1.4,0.1,2.3c-0.2,0.1-0.5,0.1-0.8,0.1H141
		c-0.2-0.9-0.3-2.2-0.6-3.9c-0.2,0.8-0.5,2-1,3.8c-0.2,0-0.9,0.1-2.1,0.2c-0.1,0-0.3,0-0.5,0c-0.2-0.4-0.4-1.2-0.6-2.3
		c-0.2-1-0.4-1.7-0.7-2.3l-0.1,2.9c0,0.6,0,1.2,0,1.6c0,0.2-0.1,0.3-0.4,0.3c-0.1,0-0.2,0-0.4,0c-0.2,0-0.3,0-0.4,0c0,0-0.4,0-1.2,0
		c-0.2,0-0.3-0.1-0.5-0.1c0,0.1-0.1,0.3-0.1,0.4c0.1,0.1,0.2,0.1,0.2,0.2l0.4,0.4c0.1,0.1,0.2,0.1,0.3,0.2v-0.3c0,0,0.2,0,0.4,0
		c0.6,0,1,0,1.2,0c0.1,0,0.2,0,0.4,0s0.3,0,0.4,0c0.5,0,0.7-0.2,0.7-0.6v-0.8c0.1,0.3,0.2,0.5,0.3,0.7c0,0,0,0,0.1,0l0.6,0.6
		c0.3-0.1,0.7-0.1,1.2-0.1c0.6,0,1-0.1,1.2-0.1s0.5-0.1,0.7-0.1l0.3-1c0,0.2,0.1,0.4,0.1,0.6h0.1l0.6,0.6h2.8c0.4,0,0.8-0.1,1.2-0.3
		c0-0.8-0.1-2.5-0.3-5L145.2,57.6z"/>
	<path d="M133.6,64.5c-0.1,0-0.2,0-0.3,0v0H133.6z"/>
	<path d="M136.4,52c0.4,1.5,0.9,3.2,1.5,5.1c0.2-0.5,0.4-1.1,0.6-1.9c-0.3-1.1-0.6-2.1-0.8-2.8l-0.6-0.5c-0.2,0-0.6,0.1-1,0.1
		l-0.4,0.1c-0.1,0-0.2,0-0.3,0c-0.2,0-0.4,0.1-0.5,0.1c0,0,0,0,0,0C135.3,52.2,135.8,52.1,136.4,52z"/>
	<path d="M132.8,62.9c0-0.1-0.1-0.2-0.1-0.3c0.1-0.8,0.2-1.6,0.2-2.6c0.1-0.8,0.1-1.4,0.1-1.7l0.1-2.4c0-1.5,0.2-2.6,0.6-3.4
		c0.4-0.1,0.8-0.2,1.2-0.3c-0.6,0-1.1,0.1-1.5,0.3c-0.3,0.7-0.5,1.7-0.6,3.1l-0.2,4.1c-0.1,1.6-0.2,2.8-0.4,3.6c0.1,0,0.2,0,0.3,0
		c0-0.1,0.1-0.2,0.1-0.3L132.8,62.9z"/>
	<path d="M153.4,57.5c0,0-0.1-0.1-0.3-0.3c-0.2-0.2-0.5-0.4-0.8-0.7c0.4-0.1,1.2-0.2,2.2-0.5l0.7-0.4c0-0.5-0.1-0.9-0.3-1.4
		c-0.2-0.5-0.5-0.8-0.8-1.1L154,53c-0.7-1-1.8-1.6-3-1.6c-1.3,0-2.4,0.3-3.2,1c-0.8,0.7-1.3,1.7-1.5,3c0.1,1,0.5,1.8,1.3,2.4
		l0.1,0.1l0.3,0.3c0,0,0,0,0.1,0.1c0.1,0.1,0.4,0.3,1,0.7h-1.6h-0.2c-0.1,0-0.2,0-0.3,0c0,0,0,0,0,0h-0.6l-0.3,0.3
		c-0.1,0.3-0.1,0.7-0.1,1.4c0,1.2,0.4,2,1.1,2.5l0.3,0.3c0.6,0.6,1.7,0.9,3.2,0.9c1.1,0,2.1-0.4,2.8-1.1c0.8-0.7,1.2-1.6,1.2-2.8
		s-0.3-2.1-1-2.8L153.4,57.5z M149.8,59.5c0,0,0,0,0.1,0.1c0,0.1,0,0.1,0,0.2c0,0.2-0.1,0.3-0.2,0.4c0,0,0-0.1,0-0.2v-0.3l-0.6-0.6
		C149.3,59.3,149.5,59.4,149.8,59.5z M152.5,62.5c-0.7,0.6-1.6,1-2.6,1c-1.2,0-2-0.2-2.6-0.5c-0.7-0.4-1.1-1.2-1.1-2.3
		c0-0.6,0-1,0.1-1.3c0.3,0,0.7,0,1.1,0h1.5c0,0.3,0.1,0.5,0.1,0.5c0.1,0.2,0.2,0.5,0.4,0.7h0.1h0.1c0.5,0,0.8-0.3,0.8-0.8
		c0-0.3-0.3-0.7-0.9-1.1c-0.3-0.2-0.6-0.4-0.9-0.6c-0.3-0.2-0.6-0.5-0.8-0.7c-0.6-0.6-1-1.3-1.1-2.1c0.2-1.2,0.6-2.1,1.4-2.8
		c0.7-0.6,1.7-0.9,3-0.9c0.9,0,1.7,0.3,2.3,0.9c0.7,0.6,1,1.3,1,2.2c-0.6,0.3-1.5,0.5-2.9,0.8l-0.3-0.7c-0.1-0.3-0.3-0.4-0.6-0.4
		c-0.2,0-0.4,0.1-0.6,0.2c-0.2,0.1-0.3,0.3-0.3,0.5c0,0.3,0.3,0.6,1,1c0.9,0.5,1.5,0.9,1.8,1.2c0.6,0.7,1,1.5,1,2.6
		C153.5,61,153.2,61.8,152.5,62.5z M151.8,56.3c-0.3-0.2-0.6-0.4-0.9-0.5c-0.1,0-0.2-0.1-0.2-0.1c0-0.2,0.1-0.3,0.4-0.4l0.2,0.6
		c0,0,0,0,0.1,0L151.8,56.3z"/>
</g>
<g>
	<path d="M107.7,67.7l-1.7,0.1h-1c-0.3,0-0.5,0-0.7,0h-0.7c-0.4,1.5-0.8,3.3-1.1,5.4l-0.8,5.4c0.4,0.3,1,0.5,1.8,0.6l1.2,0.2
		c0.1-0.2,0.2-0.8,0.3-1.7c0.1-0.8,0.2-1.3,0.3-1.4c0.1-0.1,0.4-0.1,0.9-0.2c0.6,0,1-0.1,1-0.1c0.2,0.6,0.5,1.2,0.9,1.8l1,1.8l3-1.8
		C110.9,74.6,109.5,71.2,107.7,67.7z M106.3,73.9h-1c0-0.3,0.1-0.7,0.2-1.3c0.1-0.5,0.1-1,0.1-1.3c0.7,1.2,1.1,2.1,1.2,2.6
		C106.7,73.9,106.5,73.9,106.3,73.9z"/>
</g>
<path d="M124.4,79.2h-2.5c-0.2-0.9-0.3-2.2-0.6-3.9c-0.2,0.8-0.5,2-1,3.8c-0.2,0-0.9,0.1-2.1,0.2c-0.1,0-0.3,0-0.5,0
	c-0.2-0.4-0.4-1.2-0.6-2.3c-0.2-1-0.4-1.7-0.7-2.3l-0.1,2.9c0,0.6,0,1.2,0,1.6c0,0.2-0.1,0.3-0.4,0.3c-0.1,0-0.2,0-0.4,0
	c-0.2,0-0.3,0-0.4,0c0,0-0.4,0-1.2,0c-0.5,0-0.8,0-0.9,0c0.2-0.8,0.3-2,0.4-3.6l0.2-4.1c0.1-1.4,0.3-2.4,0.6-3.1
	c0.4-0.2,0.9-0.3,1.5-0.3c0.4,0,0.9-0.1,1.5-0.2c0.4,1.5,0.9,3.2,1.5,5.1l0,0c0.3-0.6,0.5-1.5,0.7-2.6c0.2-1.4,0.4-2.3,0.5-2.7
	l2.8-0.1c0.7,0,1.2,0,1.4,0c0.1,0.3,0.3,2.1,0.6,5.4l0.3,3.6c0,0.6,0.1,1.4,0.1,2.3C125,79.1,124.8,79.2,124.4,79.2z"/>
<path d="M113,78.4c0,0.1,0,0.3-0.1,0.4l0.2-0.1C113,78.6,113,78.5,113,78.4z"/>
<path d="M140.3,77.2c-0.9,1.6-2.1,2.3-3.6,2.3c-2.4,0-3.7-1.5-3.8-4.6c0.8-0.4,1.7-0.6,2.5-0.6v0.2c0,1.3,0.4,2,1.3,2
	c0.7,0,1.2-0.8,1.5-2.3c0.2-0.9,0.2-1.9,0.2-3.2c0-0.5-0.1-1.5-0.3-3c0.3-0.1,0.8-0.2,1.4-0.2c0.2,0,0.6,0.1,1.2,0.2
	c0.4,1.2,0.6,2.8,0.6,4.8C141.4,74.4,141.1,75.9,140.3,77.2z"/>
<g>
	<path d="M153.3,69.7c-0.9-1.1-2.3-1.7-4.2-1.7c-0.9,0-1.9,0.3-2.8,1c-0.9,0.6-1.6,1.3-2.2,2.2c-0.7,1-1,1.9-1,2.9
		c0,1.7,0.6,3.1,1.7,4.1c1.1,0.9,2.5,1.4,4.3,1.4c1.5,0,2.8-0.6,3.8-1.7c1.1-1.1,1.6-2.4,1.6-3.8C154.5,72.2,154.1,70.7,153.3,69.7z
		 M150.5,74.8c-0.4,0.6-1,0.9-1.7,0.9s-1.2-0.1-1.6-0.5c-0.4-0.4-0.6-0.9-0.6-1.5c0-0.6,0.3-1.3,0.8-1.9c0.6-0.7,1.1-1,1.8-1
		c0.6,0,1.1,0.2,1.4,0.6c0.3,0.4,0.5,0.9,0.5,1.5C151.1,73.6,150.9,74.3,150.5,74.8z"/>
</g>
<g>
	<path d="M162.1,73c0.6-0.4,0.9-0.8,1.1-1.1c0.4-0.5,0.5-1,0.5-1.5c0-0.9-0.5-1.5-1.4-2c-0.7-0.4-1.6-0.6-2.5-0.6h-0.2
		c-0.1,0-0.1,0-0.2,0h-1c-1.6,0-2.4,0.2-2.4,0.4c0,0.4,0.1,1.1,0.1,2c0.1,0.9,0.1,1.6,0.1,2c0,3.6,0.1,5.8,0.4,6.7
		c0.1,0.3,0.3,0.5,0.7,0.6c0.2,0.1,0.5,0.1,1,0.1c1.6,0,2.8-0.4,3.7-1c1.1-0.7,1.6-1.8,1.6-3.3c0-0.5-0.1-1-0.3-1.4
		C163,73.4,162.6,73.1,162.1,73z M159.1,70.5c1.1,0,1.6,0.1,1.6,0.5c0,0.5-0.4,0.8-1.2,0.8c-0.1,0-0.2,0-0.3,0s-0.2-0.1-0.3,0
		c-0.1-0.6-0.1-1-0.1-1.3H159.1z M160.2,76.2c-0.4,0.1-0.7,0.2-1,0.2c-0.2,0-0.3-0.2-0.3-0.6c0-0.5,0.1-1,0.1-1.5
		c0.3,0,0.6,0.1,0.8,0.1c0.3,0.1,0.6,0.2,0.7,0.3c0.1,0,0.1,0.2,0.2,0.4c0.1,0.2,0.1,0.3,0.1,0.4C160.8,75.8,160.6,76,160.2,76.2z"
		/>
</g>
</svg>
