<?xml version="1.0" encoding="utf-8"?>
<!-- Generator: Adobe Illustrator 25.2.0, SVG Export Plug-In . SVG Version: 6.00 Build 0)  -->
<svg version="1.1" id="Layer_1" xmlns="http://www.w3.org/2000/svg" xmlns:xlink="http://www.w3.org/1999/xlink" x="0px" y="0px"
	 viewBox="0 0 1457.8 1256.7" style="enable-background:new 0 0 1457.8 1256.7;" xml:space="preserve">
<style type="text/css">
	.st0{fill:#EF4924;}
	.st1{fill:url(#SVGID_1_);}
	.st2{opacity:0.7;fill:#FFFFFF;}
	.st3{fill:url(#SVGID_2_);}
	.st4{fill:#1F130C;}
	.st5{opacity:0.7;}
	.st6{fill:#FFFFFF;}
	.st7{fill:#F5BB35;}
	.st8{fill:#5C3819;}
	.st9{fill:#F5B723;}
	.st10{fill:#BA882C;}
	.st11{fill:#F8B928;}
	.st12{fill:none;stroke:#5C3819;stroke-width:3;stroke-miterlimit:10;}
	.st13{fill:#221F1F;}
	.st14{opacity:0.49;fill:#FFFFFF;}
	.st15{opacity:0.71;}
	.st16{opacity:0.65;fill:#FFFFFF;}
	.st17{opacity:0.75;fill:#FFFFFF;}
	.st18{opacity:0.75;}
	.st19{fill:#D2D2D2;}
	.st20{fill:#EF4924;stroke:#1F130C;stroke-width:5;stroke-miterlimit:10;}
	.st21{fill:#D2D2D2;stroke:#1F130C;stroke-width:5;stroke-miterlimit:10;}
	.st22{fill:#412412;stroke:#1F130C;stroke-width:5;stroke-miterlimit:10;}
	.st23{fill:#FFFFFF;stroke:#1F130C;stroke-width:5;stroke-miterlimit:10;}
	.st24{fill:#1F1612;}
	.st25{fill:#E3AB23;stroke:#1F130C;stroke-width:5;stroke-miterlimit:10;}
	.st26{fill:#5C3617;}
	.st27{fill:url(#XMLID_14_);stroke:#1F130C;stroke-width:5;stroke-miterlimit:10;}
	.st28{fill:url(#XMLID_15_);}
	.st29{fill:#5C3617;stroke:#1F130C;stroke-width:5;stroke-miterlimit:10;}
	.st30{fill:url(#XMLID_16_);}
	.st31{fill:#A78057;}
	.st32{fill:#E4E5E6;stroke:#1F130C;stroke-width:5;stroke-linejoin:round;stroke-miterlimit:10;}
	.st33{fill:#666666;stroke:#1F130C;stroke-width:5;stroke-miterlimit:10;}
	.st34{fill:#5A382E;stroke:#1F130C;stroke-width:5;stroke-miterlimit:10;}
	.st35{fill:#E4E5E6;}
	.st36{fill:url(#SVGID_3_);stroke:#1F130C;stroke-width:5;stroke-miterlimit:10;}
	.st37{fill:url(#SVGID_4_);stroke:#1F130C;stroke-width:5;stroke-miterlimit:10;}
	.st38{fill:url(#SVGID_5_);}
	.st39{fill:#30282A;}
</style>
<g>
	<path class="st0" d="M1049.1,923.7c-21.5,21.8-40.8,34.7-55.6,44.3c-143.9,94.5-308.3,67.2-359.2,57.9
		c-82-15-151.3-25.6-210.8-78.5C288.4,827.4,295,576.9,398.3,421.6c12.2-18.4,115.4-168.8,280.2-189.9c4-0.5,7-0.8,9.7-1.1
		c25.5-2.7,183.5-16.7,312.3,89.5c18.4,15.2,48.1,42.6,75.6,84.4C1176.8,557.3,1177.1,794,1049.1,923.7z"/>
	<g>
		<linearGradient id="SVGID_1_" gradientUnits="userSpaceOnUse" x1="982.1776" y1="479.4471" x2="1158.6814" y2="479.4471">
			<stop  offset="0" style="stop-color:#201B59"/>
			<stop  offset="1" style="stop-color:#2D2D83"/>
		</linearGradient>
		<path class="st1" d="M1148.7,226.9c0.9-3.7-4.3-6.1-7.5-3.6c-32.2,26.1-109.6,104.3-90.3,241c24.2,171.5-17.2,234.1-68.7,272.3
			c0,0,70.7-18,115.2-81.5C1206.7,499.3,1133.3,292.4,1148.7,226.9z"/>
		<path class="st2" d="M1124.1,280.5c-4,19.1-7.6,38.2-10.4,57.5c-2.9,19.2-5.1,38.5-6.6,57.8c-1.4,19.3-2.4,38.7-2.5,58
			c-0.2,19.4,0.6,38.7,1.5,58.1c0.8,19.4,1.7,38.9,0.2,58.6c-1.4,19.6-5.5,39.5-13.7,58c-2.1,4.6-4.2,9.2-6.7,13.7
			c-2.4,4.5-4.9,8.9-7.6,13.3c-5.4,8.7-11.5,17.1-18.3,25.1c-13.6,16-30,30.1-48.1,42.1c-1.9,1.3-4.6,1-6.1-0.7
			c-1.4-1.6-1.1-3.9,0.7-5.2l0,0c4.3-3,8.6-6.1,12.6-9.3c2.1-1.6,4.1-3.2,6.1-4.9c1.9-1.7,4-3.3,5.9-5c7.7-6.8,14.8-14.1,21.2-21.8
			c13-15.3,23.4-32.5,31.3-50.2c3.8-8.9,6.9-18,9.1-27.3c2.2-9.3,3.6-18.8,4.4-28.3c1.5-19.1,0.8-38.5,0.3-57.9
			c-0.6-19.4-1-38.9-0.5-58.4c0.2-9.7,0.7-19.5,1.3-29.2c0.3-4.9,0.7-9.7,1.1-14.6c0.4-4.9,0.9-9.7,1.4-14.6
			c2.1-19.4,4.9-38.7,8.3-58c3.6-19.2,7.8-38.4,12.8-57.3c0.1-0.5,0.8-0.9,1.4-0.8C1123.9,279.4,1124.3,279.9,1124.1,280.5z"/>
	</g>
	<g>
		<g>
			<linearGradient id="SVGID_2_" gradientUnits="userSpaceOnUse" x1="983.3232" y1="471.2929" x2="1119.191" y2="471.2929">
				<stop  offset="0" style="stop-color:#201B59"/>
				<stop  offset="1" style="stop-color:#2D2D83"/>
			</linearGradient>
			<path class="st3" d="M1048.1,698.2c3.7,5.9,12.3,6.2,16.3,0.5c22.6-31.3,78.4-125.6,43.7-254.3
				c-29.3-108.6-34.9-170.3-35.5-198.5c-0.1-6-7.8-8.3-11.2-3.4C1023.4,296.2,914.2,482.9,1048.1,698.2z"/>
			<path class="st2" d="M1057.3,696.3c0.2,0.1,0.3,0.1,0.5,0.1c1.5,0.3,2.9-0.7,3.2-2.2c0.3-1.7,30.9-169.9-3.1-322.8
				c-0.3-1.5-1.8-2.4-3.3-2.1c-1.5,0.3-2.4,1.8-2.1,3.3c33.7,151.8,3.3,318.9,3,320.6C1055.4,694.5,1056.2,695.8,1057.3,696.3z"/>
		</g>
	</g>
	<g>
		<g>
			<g>
				<path class="st4" d="M448.9,290c-1.8-0.3-3-2-2.9-3.8c0.3-4,0.9-8.1,1.6-12.1c0.3-1.9,2.2-3.2,4.1-2.9c0,0,0,0,0.1,0
					c1.9,0.4,3.2,2.2,2.8,4.1c-0.7,3.8-1.2,7.6-1.5,11.5c-0.2,2-1.9,3.4-3.9,3.2C449.1,290.1,449,290.1,448.9,290z M455,259.6
					c-0.1,0-0.3-0.1-0.4-0.1c-1.9-0.6-2.9-2.6-2.3-4.5c1.2-3.9,2.6-7.7,4.2-11.4c0.8-1.8,2.8-2.7,4.7-1.9c1.8,0.8,2.7,2.8,1.9,4.7
					c-1.5,3.5-2.8,7.2-4,10.8C458.5,258.9,456.8,259.9,455,259.6z M467.7,231.2c-0.4-0.1-0.8-0.2-1.1-0.4c-1.7-1-2.3-3.2-1.3-4.9
					c2.1-3.5,4.3-6.9,6.6-10.2c1.1-1.6,3.4-2,5-0.8c1.6,1.1,2,3.4,0.8,5c-2.2,3.1-4.3,6.4-6.3,9.7
					C470.7,230.9,469.1,231.5,467.7,231.2z M486.4,206.4c-0.6-0.1-1.3-0.4-1.8-0.9c-1.4-1.4-1.5-3.6-0.1-5c2.8-2.9,5.7-5.8,8.7-8.5
					c1.5-1.3,3.7-1.2,5,0.3c1.3,1.5,1.2,3.7-0.3,5c-2.9,2.5-5.7,5.3-8.3,8C488.8,206.3,487.6,206.6,486.4,206.4z M510.2,186.4
					c-0.9-0.2-1.7-0.7-2.3-1.5c-1.1-1.6-0.7-3.9,1-4.9c3.4-2.2,6.9-4.4,10.4-6.3c1.7-1,3.9-0.3,4.8,1.4c1,1.7,0.3,3.9-1.4,4.8
					c-3.4,1.9-6.7,3.9-9.9,6C512,186.4,511.1,186.5,510.2,186.4z M537.8,172.1c-1.2-0.2-2.2-1-2.7-2.2c-0.7-1.8,0.2-3.9,2.1-4.6
					c3.8-1.4,7.7-2.7,11.5-3.9c1.9-0.5,3.9,0.5,4.4,2.4c0.5,1.9-0.5,3.9-2.4,4.4c-3.7,1.1-7.4,2.3-11,3.7
					C539.1,172.2,538.4,172.2,537.8,172.1z M667.7,188.6c-0.5-0.1-1-0.3-1.4-0.6c-3.1-2.2-6.4-4.3-9.7-6.3c-1.7-1-2.3-3.2-1.3-4.9
					c1-1.7,3.2-2.3,4.9-1.3c3.5,2,6.9,4.3,10.2,6.6c1.6,1.1,2,3.4,0.8,5C670.5,188.3,669.1,188.9,667.7,188.6z M567.9,164.3
					c-1.5-0.3-2.6-1.5-2.9-3c-0.3-2,1.1-3.8,3-4c4-0.6,8.1-1,12.1-1.2c2-0.1,3.7,1.4,3.8,3.4c0.1,2-1.4,3.6-3.4,3.8
					c-3.8,0.2-7.7,0.6-11.5,1.1C568.6,164.4,568.2,164.4,567.9,164.3z M640.5,173.6c-0.2,0-0.5-0.1-0.7-0.2c-3.5-1.5-7.2-2.8-10.9-4
					c-1.9-0.6-2.9-2.6-2.3-4.5c0.6-1.9,2.6-2.9,4.5-2.3c3.9,1.2,7.7,2.6,11.4,4.2c1.8,0.8,2.7,2.8,1.9,4.7
					C643.9,173,642.2,173.9,640.5,173.6z M598.9,163.5c-1.8-0.3-3-2-2.9-3.8c0.2-2,1.9-3.4,3.9-3.3c4,0.3,8.1,0.9,12.1,1.5
					c0,0,0.1,0,0.1,0c1.9,0.4,3.2,2.2,2.8,4.1c-0.3,1.9-2.2,3.2-4.1,2.9c-3.8-0.6-7.6-1.1-11.5-1.5
					C599.2,163.5,599,163.5,598.9,163.5z"/>
				<path class="st4" d="M686.8,204.9c-0.7-0.1-1.3-0.5-1.9-1c-1.3-1.3-2.6-2.6-4-3.9c-1.4-1.4-1.5-3.6-0.1-5c1.4-1.4,3.6-1.5,5-0.1
					c1.4,1.3,2.8,2.7,4.2,4.1c1.4,1.4,1.3,3.7-0.1,5C689.1,204.8,687.9,205.1,686.8,204.9z"/>
			</g>
			<g>
				<path class="st4" d="M726.2,306.2c-1.7-0.3-2.9-1.8-2.9-3.6c0.1-1.8,0.1-3.7,0.1-5.6c0-2,1.6-3.6,3.5-3.6c2,0,3.6,1.6,3.6,3.5
					c0,1.9,0,3.9-0.1,5.9c-0.1,2-1.7,3.5-3.7,3.5C726.6,306.3,726.4,306.3,726.2,306.2z"/>
				<path class="st4" d="M561.1,438.3c-1.6-0.3-3.2-0.7-4.8-1c-1.9-0.4-3.1-2.4-2.7-4.3c0.4-1.9,2.4-3.1,4.3-2.7
					c3.7,0.9,7.5,1.5,11.2,2.1c2,0.3,3.3,2.1,3,4c-0.3,2-2.1,3.3-4,3C565.7,439.1,563.4,438.7,561.1,438.3z M538.2,431.8
					c-0.2,0-0.4-0.1-0.6-0.2c-3.7-1.4-7.4-3-11-4.7c-1.8-0.8-2.5-3-1.7-4.8c0.8-1.8,3-2.5,4.8-1.7c3.4,1.6,6.9,3.1,10.5,4.5
					c1.8,0.7,2.8,2.8,2.1,4.6C541.6,431.2,539.9,432.2,538.2,431.8z M586.7,440.8c-1.7-0.3-2.9-1.8-2.9-3.5c0-2,1.6-3.6,3.6-3.5
					c3.8,0,7.6-0.1,11.4-0.4c2-0.2,3.7,1.3,3.8,3.3c0.2,2-1.3,3.7-3.3,3.8c-4,0.3-8,0.5-12,0.4C587.2,440.9,586.9,440.9,586.7,440.8
					z M511,418c-0.4-0.1-0.9-0.3-1.3-0.5c-3.3-2.2-6.6-4.5-9.7-7c-1.5-1.2-1.8-3.5-0.6-5c1.2-1.5,3.5-1.8,5-0.6
					c3,2.3,6.1,4.6,9.2,6.6c1.6,1.1,2.1,3.3,1,4.9C513.8,417.7,512.3,418.2,511,418z M617.1,437.6c-1.4-0.3-2.5-1.3-2.8-2.7
					c-0.4-1.9,0.8-3.8,2.7-4.3c3.7-0.8,7.4-1.8,11-2.9c1.9-0.6,3.9,0.5,4.5,2.3c0.6,1.9-0.5,3.9-2.3,4.5c-3.8,1.2-7.7,2.2-11.6,3.1
					C618.1,437.7,617.6,437.7,617.1,437.6z M646.1,427.8c-1.1-0.2-2.1-0.9-2.6-2c-0.8-1.8-0.1-3.9,1.7-4.7c3.4-1.6,6.8-3.4,10.1-5.2
					c1.7-1,3.9-0.4,4.9,1.3c1,1.7,0.4,3.9-1.3,4.9c-3.4,2-7,3.8-10.6,5.5C647.5,427.8,646.8,427.9,646.1,427.8z M672.2,411.9
					c-0.8-0.2-1.6-0.6-2.1-1.3c-1.2-1.6-0.9-3.8,0.6-5c3-2.3,5.9-4.8,8.7-7.3c1.5-1.3,3.7-1.2,5,0.2c1.3,1.5,1.2,3.7-0.2,5
					c-2.9,2.7-6,5.3-9.2,7.7C674.2,411.8,673.1,412.1,672.2,411.9z M694.2,390.7c-0.6-0.1-1.1-0.4-1.6-0.8c-1.5-1.3-1.7-3.5-0.5-5
					c2.4-2.9,4.7-5.9,6.9-9c1.1-1.6,3.4-2,5-0.9c1.6,1.1,2,3.4,0.9,5c-2.3,3.3-4.7,6.5-7.3,9.5C696.8,390.5,695.4,390.9,694.2,390.7
					z M711,365.1c-0.3-0.1-0.6-0.2-0.9-0.3c-1.8-0.9-2.5-3-1.6-4.8c1.7-3.4,3.3-6.8,4.7-10.3c0.7-1.8,2.8-2.7,4.6-2
					c1.8,0.7,2.7,2.8,2,4.7c-1.5,3.7-3.2,7.3-5,10.9C714.2,364.7,712.6,365.4,711,365.1z M721.8,336.5c-0.1,0-0.1,0-0.2,0
					c-1.9-0.5-3.1-2.4-2.6-4.3c0.7-2.7,1.3-5.4,1.8-8.2c0.2-1,0.4-2,0.5-3c0.3-1.9,2.2-3.2,4.1-2.9c2,0.3,3.2,2.2,2.9,4.1
					c-0.2,1-0.4,2.1-0.6,3.1c-0.6,2.9-1.2,5.8-1.9,8.6C725.5,335.7,723.7,336.9,721.8,336.5z"/>
				<path class="st4" d="M487.4,398.4c-0.7-0.1-1.4-0.5-1.9-1c-1.3-1.4-2.7-2.8-4-4.3c-1.3-1.5-1.2-3.7,0.3-5c1.5-1.3,3.7-1.2,5,0.3
					c1.2,1.4,2.5,2.8,3.8,4.1c1.4,1.4,1.3,3.7-0.1,5C489.6,398.3,488.5,398.6,487.4,398.4z"/>
			</g>
			<g>
				<path class="st4" d="M499.9,358.7c0.3,0.6,1,1,1.7,0.9l20-3.3c6.3,7.1,13.7,13.3,22.2,18.1l0.8,20.3c0,0.7,0.5,1.3,1.2,1.5
					l23.3,7c0.7,0.2,1.4,0,1.8-0.6l11.8-16.5c9.7,0.6,19.3-0.4,28.5-2.9l14.9,13.8c0.5,0.5,1.3,0.6,1.9,0.2l21.4-11.5
					c0.6-0.3,1-1,0.9-1.7l-3.3-20c7.1-6.3,13.3-13.7,18.1-22.2l20.3-0.8c0.7,0,1.3-0.5,1.5-1.2l7-23.3c0.2-0.7,0-1.4-0.6-1.8
					l-16.5-11.8c0.6-9.7-0.4-19.3-2.9-28.5l13.8-14.9c0.5-0.5,0.6-1.3,0.2-1.9L676.7,236c-0.3-0.6-1-1-1.7-0.9l-20,3.3
					c-6.3-7.1-13.7-13.3-22.2-18.1l-0.8-20.3c0-0.7-0.5-1.3-1.2-1.5l-23.3-7c-0.7-0.2-1.4,0-1.8,0.6l-11.8,16.5
					c-9.7-0.6-19.3,0.4-28.5,2.9l-14.9-13.8c-0.5-0.5-1.3-0.6-1.9-0.2L527,209c-0.6,0.3-1,1-0.9,1.7l3.3,20
					c-7.1,6.3-13.3,13.7-18.1,22.2l-20.3,0.8c-0.7,0-1.3,0.5-1.5,1.2l-7,23.3c-0.2,0.7,0,1.4,0.6,1.8l16.5,11.8
					c-0.6,9.7,0.4,19.3,2.9,28.5l-13.8,14.9c-0.5,0.5-0.6,1.3-0.2,1.9L499.9,358.7z"/>
				<g class="st5">
					<path class="st6" d="M583.6,321.4c-11.7-2.3-20.3-12.9-19.8-25.1c0.6-13.5,12.1-23.9,25.5-23.3c6.5,0.3,12.6,3.1,17,7.9
						c4.4,4.8,6.7,11.1,6.4,17.6c-0.6,13.5-12.1,23.9-25.5,23.3C586,321.7,584.8,321.6,583.6,321.4z M591.9,278.9
						c-0.9-0.2-1.8-0.3-2.8-0.3c-10.3-0.5-19.1,7.6-19.6,17.9c-0.5,10.3,7.6,19.1,17.9,19.6c10.3,0.5,19.1-7.6,19.6-17.9
						c0.2-5-1.5-9.8-4.9-13.5C599.4,281.7,595.8,279.7,591.9,278.9z"/>
				</g>
				<path class="st2" d="M577.4,356.1c-2-0.4-4-0.9-6-1.5l0,0c-0.6-0.2-1.2-0.4-1.9-0.6c-3.1-1-6-2.3-8.9-3.8c0,0-0.1,0-0.1-0.1
					c-0.1-0.1-0.2-0.1-0.3-0.2c-0.2-0.1-0.4-0.2-0.6-0.3c-0.6-0.3-0.8-0.9-0.7-1.5c0-0.1,0.1-0.3,0.2-0.4c0.4-0.7,1.2-0.9,1.9-0.6
					c3.5,2,7.3,3.5,11.2,4.7c19.4,5.8,39.6,0.8,54-11.5c8-6.9,14.2-16,17.4-26.8c0.6-1.9,1-3.8,1.4-5.7c2.5-12.9,0.5-26.2-5.8-37.9
					c-7.2-13.5-19.3-23.3-34-27.7c-30.3-9.1-62.3,8.1-71.4,38.4c-0.6,1.9-1,3.8-1.4,5.7c-1.6,8.2-1.4,16.7,0.7,24.9
					c0.1,0.2,0.1,0.4,0,0.6c-0.1,0.5-0.5,1-1.1,1.1c-0.8,0.2-1.5-0.3-1.7-1c-2.2-8.5-2.4-17.5-0.7-26.1c0.4-2,0.9-4,1.5-5.9
					c9.5-31.8,43.2-49.8,74.9-40.3c15.4,4.6,28.1,15,35.7,29.1c6.6,12.3,8.7,26.2,6.1,39.8c-0.4,2-0.9,4-1.5,6
					c-4.6,15.4-15,28.1-29.1,35.7C604.9,356.7,591,358.8,577.4,356.1z"/>
			</g>
		</g>
		<g>
			<g>
				<path class="st4" d="M311.5,359.2c-0.9-0.2-1.7-1-1.8-2c-0.2-1.9-0.3-3.8-0.4-5.6c0-1.2,0.9-2.2,2.1-2.3c1.2,0,2.2,0.9,2.3,2.1
					c0.1,1.8,0.2,3.6,0.3,5.4c0.1,1.2-0.8,2.3-2,2.4C311.9,359.3,311.7,359.2,311.5,359.2z"/>
				<path class="st4" d="M311.5,342.3c-1.1-0.2-1.9-1.2-1.8-2.4c0.3-3.2,0.7-6.4,1.4-9.6c0.1-0.7,0.3-1.3,0.4-2
					c0.3-1.2,1.5-1.9,2.6-1.7c1.2,0.3,1.9,1.4,1.7,2.6c-0.1,0.6-0.3,1.3-0.4,1.9c-0.6,3-1,6.1-1.3,9.2c-0.1,1.2-1.2,2.1-2.4,2
					C311.6,342.3,311.6,342.3,311.5,342.3z M316.3,319.9c-0.1,0-0.2,0-0.3-0.1c-1.1-0.4-1.8-1.7-1.4-2.8c1.3-3.7,2.8-7.3,4.5-10.8
					c0.5-1.1,1.9-1.5,2.9-1c1.1,0.5,1.5,1.9,1,2.9c-1.6,3.3-3.1,6.8-4.3,10.3C318.4,319.5,317.4,320.1,316.3,319.9z M326.4,299.4
					c-0.3-0.1-0.5-0.2-0.8-0.3c-1-0.7-1.3-2-0.6-3.1c2.1-3.3,4.5-6.4,7-9.4c0.8-0.9,2.2-1,3.1-0.2c0.9,0.8,1,2.2,0.2,3.1
					c-2.4,2.8-4.7,5.8-6.7,9C328.2,299.2,327.3,299.5,326.4,299.4z M341.2,282c-0.4-0.1-0.9-0.3-1.2-0.7c-0.8-0.9-0.8-2.3,0.1-3.1
					c2.9-2.6,5.9-5.1,9.1-7.4c1-0.7,2.4-0.5,3.1,0.5c0.7,1,0.5,2.4-0.5,3.1c-3,2.1-6,4.5-8.7,7C342.6,281.9,341.9,282.1,341.2,282z
					 M359.9,268.7c-0.6-0.1-1.2-0.5-1.5-1.1c-0.6-1.1-0.2-2.4,0.9-3c3.4-1.9,7-3.5,10.6-4.9c1.1-0.4,2.4,0.1,2.9,1.2
					c0.4,1.1-0.1,2.4-1.2,2.9c-3.5,1.4-6.9,2.9-10.1,4.7C360.9,268.7,360.4,268.8,359.9,268.7z M381.2,260.4
					c-0.8-0.2-1.5-0.8-1.7-1.6c-0.3-1.2,0.4-2.4,1.6-2.7c3.8-1,7.7-1.7,11.5-2.2c1.2-0.1,2.3,0.7,2.5,1.9c0.2,1.2-0.7,2.3-1.9,2.5
					c-3.7,0.5-7.4,1.2-11,2.1C381.8,260.4,381.5,260.4,381.2,260.4z M403.8,257.5c-1-0.2-1.8-1.1-1.8-2.2c0-1.2,1-2.2,2.2-2.2
					c3.9,0,7.8,0.2,11.7,0.7c1.2,0.2,2.1,1.2,1.9,2.5c-0.1,1.2-1.2,2.1-2.5,1.9c-3.7-0.5-7.5-0.7-11.2-0.7
					C404.1,257.5,404,257.5,403.8,257.5z M437.5,263.7c-0.1,0-0.3-0.1-0.4-0.1c-3-1.2-6.1-2.2-9.3-3c-0.5-0.1-0.9-0.3-1.4-0.4
					c-1.2-0.3-1.9-1.5-1.6-2.7c0.3-1.2,1.5-1.9,2.7-1.6c0.5,0.1,1,0.3,1.5,0.4c3.3,0.9,6.5,1.9,9.7,3.1c1.1,0.4,1.7,1.7,1.3,2.8
					C439.6,263.3,438.5,263.9,437.5,263.7z"/>
			</g>
			<g>
				<path class="st4" d="M387.7,441.9c-1.2-0.2-2-1.4-1.7-2.6c0.2-1.2,1.4-2,2.6-1.8c3.6,0.6,7.3,1.1,10.9,1.3
					c1.2,0.1,2.1,1.1,2.1,2.3c-0.1,1.2-1.1,2.1-2.3,2.1C395.4,443.1,391.5,442.6,387.7,441.9C387.7,442,387.7,441.9,387.7,441.9z
					 M376.8,439.3c-0.1,0-0.2,0-0.2-0.1c-3.7-1.1-7.3-2.5-10.8-4c-1.1-0.5-1.6-1.8-1.1-2.9c0.5-1.1,1.8-1.6,2.9-1.1
					c3.3,1.5,6.8,2.8,10.3,3.9c1.2,0.4,1.8,1.6,1.5,2.8C378.9,438.9,377.8,439.5,376.8,439.3z M410.2,443.2c-1-0.2-1.7-1-1.8-2
					c-0.1-1.2,0.8-2.3,2.1-2.3c3.7-0.2,7.3-0.7,10.9-1.4c1.2-0.2,2.3,0.6,2.6,1.8c0.2,1.2-0.6,2.3-1.8,2.6
					c-3.8,0.7-7.6,1.2-11.4,1.5C410.5,443.3,410.4,443.3,410.2,443.2z M356.2,430.1c-0.2,0-0.5-0.1-0.7-0.3c-3.3-2-6.5-4.2-9.5-6.5
					c-1-0.7-1.1-2.1-0.4-3.1c0.7-1,2.1-1.1,3.1-0.4c2.9,2.3,5.9,4.3,9.1,6.2c1,0.6,1.4,2,0.8,3C358,429.9,357.1,430.3,356.2,430.1z
					 M432.3,439c-0.8-0.1-1.4-0.7-1.7-1.5c-0.4-1.2,0.3-2.4,1.4-2.8c3.5-1.1,6.9-2.4,10.3-4c1.1-0.5,2.4,0,2.9,1.1
					c0.5,1.1,0,2.4-1.1,2.9c-3.5,1.6-7.1,3-10.8,4.2C433,439.1,432.6,439.1,432.3,439z M452.7,429.7c-0.6-0.1-1.1-0.5-1.5-1
					c-0.6-1-0.3-2.4,0.7-3c3.1-1.9,6.2-4,9-6.3c1-0.8,2.3-0.6,3.1,0.4c0.8,1,0.6,2.3-0.4,3.1c-3,2.4-6.2,4.6-9.5,6.6
					C453.8,429.7,453.2,429.8,452.7,429.7z M470.3,415.7c-0.4-0.1-0.8-0.3-1.1-0.6c-0.9-0.9-0.9-2.2,0-3.1c2.6-2.6,5-5.4,7.2-8.3
					c0.7-1,2.1-1.1,3.1-0.4c1,0.7,1.1,2.1,0.4,3.1c-2.3,3-4.9,6-7.6,8.7C471.8,415.6,471,415.8,470.3,415.7z"/>
				<path class="st4" d="M338.4,416.2c-0.4-0.1-0.8-0.3-1.1-0.6c-1.3-1.3-2.6-2.7-3.9-4.1c-0.8-0.9-0.7-2.3,0.2-3.1
					c0.9-0.8,2.3-0.7,3.1,0.2c1.2,1.3,2.4,2.6,3.7,3.9c0.9,0.9,0.9,2.3,0,3.1C339.8,416.1,339.1,416.3,338.4,416.2z"/>
			</g>
			<g>
				<path class="st4" d="M345.6,388.6c0.2,0.4,0.7,0.6,1.2,0.6l13.4-2.2c4.2,4.8,9.2,8.9,14.8,12.1l0.5,13.6c0,0.5,0.3,0.9,0.8,1
					l15.6,4.7c0.5,0.1,0.9,0,1.2-0.4l7.9-11c6.5,0.4,12.9-0.3,19.1-1.9l10,9.2c0.3,0.3,0.9,0.4,1.3,0.2l14.3-7.7
					c0.4-0.2,0.6-0.7,0.6-1.2l-2.2-13.4c4.8-4.2,8.9-9.2,12.1-14.8l13.6-0.5c0.5,0,0.9-0.3,1-0.8l4.7-15.6c0.1-0.5,0-0.9-0.4-1.2
					l-11-7.9c0.4-6.5-0.3-12.9-1.9-19.1l9.2-10c0.3-0.3,0.4-0.9,0.2-1.3l-7.7-14.3c-0.2-0.4-0.7-0.6-1.2-0.6l-13.4,2.2
					c-4.2-4.8-9.2-8.9-14.8-12.1l-0.5-13.6c0-0.5-0.3-0.9-0.8-1l-15.6-4.7c-0.5-0.1-0.9,0-1.2,0.4l-7.9,11
					c-6.5-0.4-12.9,0.3-19.1,1.9l-10-9.2c-0.3-0.3-0.9-0.4-1.3-0.2l-14.3,7.7c-0.4,0.2-0.6,0.7-0.6,1.2l2.2,13.4
					c-4.8,4.2-8.9,9.2-12.1,14.8l-13.6,0.5c-0.5,0-0.9,0.3-1,0.8l-4.7,15.6c-0.1,0.5,0,0.9,0.4,1.2l11,7.9
					c-0.4,6.5,0.3,12.9,1.9,19.1l-9.2,10c-0.3,0.3-0.4,0.9-0.2,1.3L345.6,388.6z"/>
				<g class="st5">
					<path class="st6" d="M401.5,363.9c-3.5-0.7-6.7-2.4-9.1-5.1c-3-3.3-4.5-7.5-4.3-12c0.4-9.2,8.2-16.3,17.4-15.9
						c9.2,0.4,16.3,8.2,15.9,17.4c-0.2,4.4-2.1,8.6-5.4,11.6c-3.3,3-7.5,4.5-12,4.3C403.1,364.2,402.3,364.1,401.5,363.9z
						 M407,335.5c-0.6-0.1-1.2-0.2-1.8-0.2c-6.8-0.3-12.5,4.9-12.8,11.7c-0.1,3.3,1,6.4,3.2,8.8c2.2,2.4,5.2,3.8,8.5,4l0,0
						c3.3,0.1,6.4-1,8.8-3.2c2.4-2.2,3.8-5.2,4-8.5C417.2,342,412.9,336.7,407,335.5z"/>
				</g>
				<path class="st2" d="M397.2,388.1c-1.4-0.3-2.7-0.6-4.1-1c-2.7-0.8-5.3-1.9-7.8-3.2c-0.1-0.1-0.2-0.1-0.3-0.2
					c-0.9-0.5-1.3-1.4-1.1-2.3c0-0.2,0.1-0.4,0.2-0.6c0.6-1.1,1.9-1.4,3-0.9c2.3,1.3,4.8,2.3,7.3,3.1l0,0c0.1,0,0.3,0.1,0.4,0.1
					c6,1.7,12.2,1.9,18.2,0.6c3.2-0.7,6.4-1.9,9.4-3.4c0,0,0,0,0.1,0c0.1,0,0.1-0.1,0.2-0.1c8.7-4.7,15.1-12.5,18-22
					c0.4-1.2,0.7-2.5,0.9-3.7c1.6-8.4,0.3-16.9-3.8-24.5c-4.7-8.7-12.5-15.1-22-18c-9.5-2.8-19.5-1.8-28.2,2.9
					c-8.7,4.7-15.1,12.5-18,22c-0.4,1.2-0.7,2.4-0.9,3.7c-1,5.3-0.9,10.8,0.5,16.1c0.1,0.3,0.1,0.7,0,1c-0.2,0.8-0.8,1.5-1.6,1.7
					c-1.2,0.3-2.4-0.4-2.7-1.6c-1.5-5.9-1.7-12-0.5-18c0.3-1.4,0.6-2.7,1-4.1c3.2-10.6,10.3-19.4,20.1-24.6c9.8-5.2,21-6.4,31.6-3.2
					c10.6,3.2,19.4,10.3,24.6,20.1c4.6,8.5,6,18.1,4.2,27.5c-0.3,1.4-0.6,2.8-1,4.1C438.6,379.9,417.8,392.1,397.2,388.1z"/>
			</g>
		</g>
	</g>
	<path class="st4" d="M472,926.7c0,7.4,6.1,13.5,13.5,13.5h729.7c7.4,0,13.5-6.1,13.5-13.5l6.1-419.3c0-7.4-8.7-21.9-24.7-20.8
		l-713.1-18.5c-9.3-0.2-18.3,3.3-24.9,9.9c-6.6,6.6-10.2,15.6-10,24.9L472,926.7z"/>
	<path class="st7" d="M485.3,913.8c0,7,5.7,12.8,12.8,12.8h699.5c7,0,12.8-5.7,12.8-12.8l5.7-380.7c-0.7-22.9-20.8-31.1-32.9-30.7
		l-683.5-18.3c-6.5-0.2-12.9,2.3-17.5,7c-4.6,4.6-7.2,10.9-7,17.5L485.3,913.8z"/>
	<path class="st7" d="M1202.7,732.9C1202.7,732.9,1202.7,732.9,1202.7,732.9c-1.1,0-1.9-0.9-1.9-1.9l0.5-30.9c0-1,0.8-1.8,1.9-1.8
		c0,0,0,0,0,0c1,0,1.9,0.9,1.8,1.9l-0.5,30.9C1204.6,732.1,1203.8,732.9,1202.7,732.9z"/>
	<path class="st7" d="M1203.9,657.3C1203.9,657.3,1203.8,657.3,1203.9,657.3c-1.1,0-1.9-0.9-1.9-1.9l1.7-118.2
		c0-7-2.2-12.6-6.3-16.6c-7.8-7.5-20.2-7.1-20.7-7.1l-218.5-5.9c-1,0-1.8-0.9-1.8-1.9c0-1,0.8-1.9,1.9-1.8l218.3,5.9
		c1.4-0.1,14.5-0.3,23.3,8.1c4.9,4.7,7.5,11.2,7.5,19.4l-1.7,118.3C1205.7,656.5,1204.9,657.3,1203.9,657.3z"/>
	<path class="st4" d="M434,975h820.9c3.1,0,5.7-2.5,5.7-5.7v-25.5c0-3.1-2.5-5.7-5.7-5.7H434c-3.1,0-5.7,2.5-5.7,5.7v25.5
		C428.4,972.5,430.9,975,434,975z"/>
	<path class="st8" d="M848.3,534.4C848.3,534.4,848.3,534.4,848.3,534.4C848.3,534.4,848.3,534.4,848.3,534.4
		c-32.3,0-58.5,26.2-58.5,58.5c0,32.3,26.2,58.5,58.5,58.5c0,0,0,0,0,0c0,0,0,0,0,0c32.3,0,58.5-26.2,58.5-58.5
		C906.8,560.6,880.6,534.4,848.3,534.4z"/>
	<path class="st9" d="M850.9,608.4c0.1,0,0.1,0.1,0.2,0.1C851,608.4,851,608.4,850.9,608.4L850.9,608.4z"/>
	<path class="st10" d="M810.4,571.4c-1.4-0.4-2.7-1.1-3.8-2.2c-3.4-3.4-3.4-9,0-12.5c1.7-1.7,4-2.6,6.2-2.6c2.3,0,4.5,0.9,6.2,2.6
		c1.4,1.4,2.2,3.2,2.5,5c0,0,0.1-0.1,0.4-0.4c0.8-0.9,1.6-1.9,2.5-2.9c0.9-1,1.8-1.9,2.9-2.9c7.8-7.5,19.4-14.9,35.7-16.8
		c0,0-3.7,2.6-7.2,6.3c7.1-1,15-0.9,23.7,1.2c0,0-9.5,2.5-15.1,7.4c-0.4,0.3-0.7,0.7-1.1,1c-0.3,0.3-0.6,0.7-0.9,1.1
		c4.4,1.4,8.6,3.4,12.6,6.1c0.3-1.8,1.1-3.6,2.5-5c1.7-1.7,4-2.6,6.2-2.6c2.3,0,4.5,0.9,6.2,2.6c3.4,3.4,3.4,9,0,12.5
		c-1.1,1.1-2.4,1.8-3.8,2.2c9.2,10.3,15.6,24.3,17.6,40c2-5.8,3-12.1,3-18.6c0-32.3-26.2-58.5-58.5-58.5s-58.5,26.2-58.5,58.5
		c0,6.5,1.1,12.7,3,18.6c0.2-1.3,0.3-2.5,0.6-3.7C795.9,593.5,802,580.9,810.4,571.4z"/>
	<path class="st9" d="M845.5,608.5c0.1,0,0.1-0.1,0.1-0.1l0-0.1C845.7,608.4,845.6,608.4,845.5,608.5z"/>
	<path class="st9" d="M828.7,575c-0.1,0-0.1,0-0.2,0c0.9,0.2,1.5,1,1.5,2c0,0,0,0,0,0C830.1,576,829.5,575.3,828.7,575z"/>
	<path class="st9" d="M825.9,576.9c0-0.1,0-0.3,0-0.4c0,0,0,0,0,0C826,576.7,825.9,576.8,825.9,576.9
		C825.9,576.9,825.9,576.9,825.9,576.9z"/>
	<path class="st9" d="M829.6,584.2c2.6,0,4.7-2.1,4.7-4.7c0,0,0,0,0,0C834.2,582.1,832.1,584.1,829.6,584.2
		c-2.6-0.1-4.7-2.2-4.7-4.7c0,0,0,0,0,0C824.9,582.1,827,584.2,829.6,584.2z"/>
	<path class="st6" d="M833.9,612.9C833.9,612.9,833.9,612.9,833.9,612.9c0.3,0,0.5,0,0.8,0C834.4,612.9,834.2,612.9,833.9,612.9
		C833.9,612.9,833.9,612.9,833.9,612.9z"/>
	<path class="st6" d="M834.2,615.9c0.3,1.9,0.8,3.8,1.4,5.5c0.5,1.3,1.6,2.2,2.9,2.2h4.7c1.7,0,3.2-1.6,3.2-3.6v-8.6
		c-0.8,0.7-1.7,1.3-2.6,1.8C841,614.9,837.6,615.8,834.2,615.9z"/>
	<path class="st6" d="M850.2,611.5v8.6c0,2,1.4,3.6,3.2,3.6h4.7c1.3,0,2.4-0.9,2.9-2.2c0.6-1.7,1.1-3.6,1.4-5.5
		c-3.4-0.1-6.7-1-9.6-2.7C851.9,612.7,851,612.1,850.2,611.5z"/>
	<path class="st6" d="M862.7,587.4c0.8,0.6,1.8,1.1,2.7,1.4c0.5,0.1,1.1,0.1,1.6,0.1c5.2,0,9.4-4.2,9.4-9.4c0-5.2-4.2-9.4-9.4-9.4
		c-5.2,0-9.4,4.2-9.4,9.4c0,2.3,0.8,4.4,2.2,6C860.8,586,861.7,586.6,862.7,587.4z M863.5,576.5c0,0.1-0.1,0.3-0.1,0.5
		c0,1.1,0.9,2.1,2.1,2.1c1.1,0,2.1-0.9,2.1-2.1c0-1-0.7-1.8-1.6-2c0.3-0.1,0.7-0.1,1-0.1c2.6,0,4.7,2.1,4.7,4.7
		c0,2.6-2.1,4.7-4.7,4.7c-2.6,0-4.7-2.1-4.7-4.7C862.4,578.4,862.8,577.3,863.5,576.5z"/>
	<path class="st6" d="M829.6,588.9c0.6,0,1.1-0.1,1.6-0.1c1-0.3,1.9-0.8,2.7-1.4c1-0.7,1.9-1.3,2.8-1.8c1.3-1.6,2.2-3.7,2.2-6
		c0-5.2-4.2-9.4-9.4-9.4c-5.2,0-9.4,4.2-9.4,9.4C820.2,584.7,824.4,588.9,829.6,588.9z M824.9,579.5c0-1.2,0.4-2.2,1.1-3
		c0,0,0,0.1,0,0.1c0,0,0,0,0,0c0,0.1,0,0.3,0,0.4c0,1.1,0.9,2,2.1,2c1.1,0,2-0.9,2.1-2c0-0.9-0.7-1.7-1.5-2c0.1,0,0.1,0,0.2,0
		c-0.1,0-0.1-0.1-0.2-0.1c0.3-0.1,0.7-0.1,1-0.1c2.6,0,4.7,2.1,4.7,4.7c0,0,0,0,0,0c0,0,0,0,0,0c0,2.6-2.1,4.7-4.7,4.7
		C827,584.2,824.9,582.1,824.9,579.5C824.9,579.5,824.9,579.5,824.9,579.5C824.9,579.5,824.9,579.5,824.9,579.5z"/>
	<path class="st11" d="M860.9,590.6c-0.1-0.1-0.2-0.1-0.3-0.2c-0.6-0.5-1.2-0.9-1.8-1.2c-0.1-0.1-0.2-0.2-0.4-0.2
		c-0.6-0.4-1.3-0.7-2.1-1.1c-1.7-0.6-3.8-1-6.1-1.2c-0.6,0-1.2-0.1-1.8-0.1c-0.6,0-1.2,0-1.8,0.1c-2.3,0.1-4.4,0.5-6.1,1.2
		c-0.9,0.3-1.6,0.7-2.1,1.1c-0.1,0.1-0.3,0.2-0.4,0.2c-0.6,0.3-1.2,0.7-1.8,1.2c-0.1,0.1-0.2,0.1-0.3,0.2
		c-7.1,4.8-17.7,0.6-17.7,8.2c0,7.7,7.1,14,15.9,14.1c0,0,0,0,0.1,0c0.2,0,0.5,0,0.7,0c3.5-0.1,8.7-3.1,10.9-4.4
		c0.1-0.1,0.1-0.1,0.2-0.2l0,0.1c0.4-0.3,0.7-0.4,0.8-0.5c0.6-0.4,1.3-0.8,1.8-0.8c0.6,0,1.3,0.4,1.8,0.8c0.1,0.1,0.4,0.2,0.8,0.5
		l0-0.1c0.1,0.1,0.1,0.1,0.2,0.2c2.1,1.3,7.3,4.3,10.8,4.4c0.2,0,0.5,0,0.7,0c0,0,0,0,0.1,0c8.8,0,15.9-6.3,15.9-14.1
		C878.6,591.2,868,595.5,860.9,590.6z M857.1,598.8c-1.8,2.9-5.1,4.9-8.8,4.9c-3.7,0-6.9-2-8.8-4.9c-1-1.6-1.5-3.4-1.5-5.4
		c0-2.6,4.5-4.1,9.2-4.2c0.4,0,0.7,0,1.1,0c0.4,0,0.7,0,1.1,0c4.8,0.2,9.2,1.6,9.2,4.2C858.6,595.4,858,597.3,857.1,598.8z"/>
	<path class="st6" d="M861.9,612.9c0.3,0,0.5,0,0.8,0l0,0c0,0,0,0-0.1,0C862.4,612.9,862.2,612.9,861.9,612.9z"/>
	<path class="st11" d="M864,647c-2.6-6.5-8.7-11.8-15.7-11.8c-7.1,0-13.1,5.3-15.7,11.8c5,1.5,10.3,2.3,15.7,2.3
		C853.8,649.4,859.1,648.6,864,647z"/>
	<path class="st11" d="M812.9,558.8c-2.3,0-4.1,1.9-4.1,4.1c0,2.3,1.9,4.1,4.1,4.1c2.3,0,4.1-1.9,4.1-4.1
		C817,560.6,815.1,558.8,812.9,558.8z"/>
	<path class="st11" d="M887.9,562.9c0-2.3-1.9-4.1-4.1-4.1c-2.3,0-4.1,1.9-4.1,4.1c0,2.3,1.9,4.1,4.1,4.1
		C886.1,567.1,887.9,565.2,887.9,562.9z"/>
	<circle class="st12" cx="848.3" cy="592.9" r="58.5"/>
	<g id="XMLID_9_">
		<path id="XMLID_11_" class="st13" d="M828.7,594.8c-8.6,0-15.6-7-15.6-15.6s7-15.6,15.6-15.6s15.6,7,15.6,15.6
			S837.3,594.8,828.7,594.8z M828.7,567.1c-6.7,0-12.1,5.4-12.1,12.1c0,6.7,5.4,12.1,12.1,12.1c6.7,0,12.1-5.4,12.1-12.1
			C840.8,572.6,835.4,567.1,828.7,567.1z"/>
		<circle id="XMLID_10_" class="st14" cx="828.7" cy="579.2" r="12.5"/>
	</g>
	<path id="XMLID_8_" class="st13" d="M843.8,575.1c1.3-1.5,2.9-2.3,4.6-2.3c1.7,0,3.3,0.9,4.6,2.3h3.4c-1.9-3.7-4.8-6.1-8-6.1
		c-3.2,0-6.1,2.4-8,6.1H843.8z"/>
	<g id="XMLID_3_">
		<path id="XMLID_5_" class="st13" d="M867.9,594.8c-8.6,0-15.6-7-15.6-15.6s7-15.6,15.6-15.6s15.6,7,15.6,15.6
			S876.5,594.8,867.9,594.8z M867.9,567.1c-6.7,0-12.1,5.4-12.1,12.1c0,6.7,5.4,12.1,12.1,12.1c6.7,0,12.1-5.4,12.1-12.1
			C880,572.6,874.6,567.1,867.9,567.1z"/>
		<circle id="XMLID_4_" class="st14" cx="867.9" cy="579.2" r="12.5"/>
	</g>
	<g class="st15">
		<path class="st16" d="M681.5,724.2h342.6c3.7,0,6.7-3,6.7-6.7v-41.3c0-3.7-3-6.7-6.7-6.7H681.5c-3.7,0-6.7,3-6.7,6.7v41.3
			C674.8,721.2,677.8,724.2,681.5,724.2z"/>
		<path class="st16" d="M683.4,813.6H1026c3.7,0,6.7-3,6.7-6.7v-41.3c0-3.7-3-6.7-6.7-6.7H683.4c-3.7,0-6.7,3-6.7,6.7v41.3
			C676.7,810.6,679.7,813.6,683.4,813.6z"/>
		<path class="st16" d="M764.9,907.1h213.4c4.6,0,8.3-3.7,8.3-8.3v-53.2c0-4.6-3.7-8.3-8.3-8.3H764.9c-4.6,0-8.3,3.7-8.3,8.3v53.2
			C756.5,903.4,760.3,907.1,764.9,907.1z"/>
	</g>
	<path class="st17" d="M759.7,712.3h188.1c6.6,0,12-5.4,12-12v-6.4c0-6.6-5.4-12-12-12H759.7c-6.6,0-12,5.4-12,12v6.4
		C747.7,706.9,753.1,712.3,759.7,712.3z"/>
	<g class="st18">
		
			<ellipse transform="matrix(0.3827 -0.9239 0.9239 0.3827 -145.4061 1351.7664)" class="st6" cx="938.8" cy="784.7" rx="12.5" ry="12.5"/>
		<circle class="st6" cx="904.5" cy="785.3" r="12.5"/>
		
			<ellipse transform="matrix(0.9732 -0.2298 0.2298 0.9732 -157.4855 221.2932)" class="st6" cx="871.6" cy="786.9" rx="12.5" ry="12.5"/>
		<circle class="st6" cx="837.3" cy="787.6" r="12.5"/>
		<circle class="st6" cx="803" cy="787.3" r="12.5"/>
		<circle class="st6" cx="768.7" cy="787.9" r="12.5"/>
	</g>
	<g id="XMLID_273_">
		<g id="XMLID_323_">
			<path id="XMLID_328_" class="st19" d="M285.3,846l-86.1-46.1c0-0.2,0-0.3,0-0.5l62.5,17.7l40.6,11.5v0l0,0l25.8,7.3l108.3,30.8h0
				h0L545,836.1l-0.1,0.3l25.8-7.3c0-0.1,0.1-0.2,0.1-0.3L674,799.4c0,0,0,0.1,0,0.1l-111.9,31.9l-125.5,93L285.3,846z"/>
			<path id="XMLID_325_" class="st20" d="M676,829.9c-0.3-10.2-0.9-20.3-2-30.3l-121.6,34.6l-115.8,90.2l-134.1-95.7l-103.2-28.8
				c-1.4,12.7-2.1,25.7-2.1,38.8c0,35.6,14.4,101.8,35.6,150.4h408.7c3-6.6,6.1-13.5,8.6-19.1c1.3-2.3,2.4-4.5,3.5-6.6
				c0.2-0.4,0.7-2,1.5-4.6c0.1-0.3,0.2-0.4,0.2-0.4s0.1-0.5,0.4-1.5c5.8-20.5,21.4-83.5,21.4-118.3c0-1.9,0-3.8-0.1-5.8L676,829.9z
				 M220.7,958.1L220.7,958.1L220.7,958.1z"/>
			<path id="XMLID_324_" class="st21" d="M633.6,1006.1c0.1,0-1,2.4-1.8,3.7c-0.2,0.3-0.3,0.5-0.5,0.8l-1.7,1.2H436.7v0H243.6
				c0,0-0.1-0.1-0.1-0.1c-0.1-0.2-0.3-0.5-0.4-0.8c-0.2-0.4-0.5-0.7-0.7-1.1c-0.5-0.8-5-10.5-9.6-20.6h408.7
				C638.6,995.6,635.8,1001.8,633.6,1006.1z"/>
		</g>
		<path id="XMLID_322_" class="st22" d="M674.9,799.4c-0.8-7.4-1.8-14.7-3.1-21.9c-10.6-60.7-36.5-114.4-72.6-154.8
			c5.9-1.7,11.5-4.9,16.2-9.5c14.6-14.6,14.6-38.6,0-53.2c-7.3-7.3-17-11-26.6-11c-9.6,0-19.3,3.7-26.6,11c-6,6-9.5,13.4-10.6,21.2
			c0,0-0.6-0.6-1.7-1.7c-3.3-4-6.8-8.1-10.7-12.3c-3.8-4.1-7.9-8.3-12.2-12.4c-33.3-31.9-82.8-63.5-152.3-71.9
			c0,0,15.8,11.2,30.7,27.1c-30.1-4.4-64.1-4-101.2,5c0,0,40.6,10.8,64.5,31.6c1.6,1.4,3.2,2.9,4.6,4.4c1.4,1.5,2.7,3,3.9,4.5
			c-18.9,6-36.8,14.7-53.6,25.8c-1.1-7.8-4.6-15.3-10.6-21.2c-7.3-7.3-17-11-26.6-11c-9.6,0-19.3,3.7-26.6,11
			c-14.6,14.6-14.6,38.6,0,53.2c4.6,4.6,10.2,7.8,16.2,9.5c-40.4,45.2-68.1,107-75.7,176.7l237.3,67.4L674.9,799.4z"/>
		<path id="XMLID_321_" class="st6" d="M376.1,799.5c0.1,0,0.2,0,0.2,0c1.1,0,2.1-0.1,3.1-0.1C378.3,799.5,377.2,799.5,376.1,799.5
			C376.1,799.5,376.1,799.5,376.1,799.5"/>
		<path id="XMLID_320_" class="st6" d="M495.7,799.4c1,0,2.1,0.1,3.1,0.1c0.1,0,0.2,0,0.2,0c0,0,0,0,0,0
			C497.9,799.5,496.8,799.5,495.7,799.4"/>
		<path id="XMLID_319_" class="st23" d="M388.3,682.8c5.8-6.9,9.2-15.8,9.2-25.5c0-23-19.4-41.4-42.7-39.8
			c-19.7,1.4-35.6,17.3-37,37c-1.6,23.3,16.8,42.7,39.8,42.7c2.4,0,4.7-0.2,6.9-0.6c4.2-1.5,8.1-3.4,11.6-6
			C380.4,687.6,384.4,685,388.3,682.8"/>
		<path id="XMLID_318_" class="st23" d="M557.4,657.3c0-22-17.9-39.9-39.9-39.9c-22,0-39.9,17.9-39.9,39.9c0,9.7,3.5,18.6,9.2,25.5
			c3.9,2.2,7.9,4.8,12.1,7.8c3.6,2.6,7.5,4.5,11.6,6c2.3,0.4,4.6,0.6,6.9,0.6C539.6,697.2,557.4,679.3,557.4,657.3"/>
		<path id="XMLID_317_" class="st24" d="M525.4,694.9c-11,0-20-8.9-20-20c0-11,8.9-20,20-20c1.5,0,3,0.2,4.5,0.5
			c-3.8,1-6.6,4.4-6.6,8.5c0,4.9,3.9,8.8,8.8,8.8c4.9,0,8.8-3.9,8.8-8.8c0-0.7-0.1-1.3-0.2-2c2.9,3.5,4.7,8,4.7,12.9
			C545.4,685.9,536.4,694.9,525.4,694.9"/>
		<path id="XMLID_316_" class="st24" d="M365.5,694.9c-11,0-20-8.9-20-20c0-11,8.9-20,20-20c1.5,0,3,0.2,4.5,0.5
			c-3.8,1-6.6,4.4-6.6,8.5c0,4.9,3.9,8.8,8.8,8.8c4.9,0,8.8-3.9,8.8-8.8c0-0.7-0.1-1.3-0.2-2c2.9,3.5,4.7,8,4.7,12.9
			C385.5,685.9,376.5,694.9,365.5,694.9"/>
		<path id="XMLID_315_" class="st25" d="M588.8,568.7c9.8,0,17.7,7.9,17.7,17.7c0,9.8-7.9,17.7-17.7,17.7c-9.8,0-17.7-7.9-17.7-17.7
			C571.1,576.7,579,568.7,588.8,568.7"/>
		<path id="XMLID_314_" class="st25" d="M268.7,586.4c0-9.8,7.9-17.7,17.7-17.7c9.8,0,17.7,7.9,17.7,17.7c0,9.8-7.9,17.7-17.7,17.7
			C276.6,604.1,268.7,596.2,268.7,586.4"/>
		<path id="XMLID_313_" class="st23" d="M497.6,796.5c-1.3,8.2-3.4,16.1-6,23.4c-2.1,5.7-7,9.4-12.5,9.4h-20.2
			c-7.4,0-13.5-6.9-13.5-15.3v-36.5c3.5,2.8,7.2,5.3,11.2,7.6C468.9,792.2,483.1,796.1,497.6,796.5"/>
		<path id="XMLID_312_" class="st23" d="M429.7,777.6v36.5c0,8.5-6,15.3-13.5,15.3H396c-5.4,0-10.4-3.7-12.4-9.4
			c-2.7-7.4-4.7-15.2-6-23.4c14.6-0.5,28.7-4.4,41-11.3C422.5,782.9,426.2,780.4,429.7,777.6"/>
		<path id="XMLID_311_" class="st24" d="M433,698.4c1.5-0.1,3.1-0.1,4.6-0.1c1.5,0,3.1,0,4.6,0.1c20.3,0.8,39.3,6.8,39.3,18.1
			c0,8.5-2.4,16.4-6.6,23.1c-7.7,12.5-21.6,20.8-37.3,20.8c-15.8,0-29.6-8.3-37.3-20.8c-4.2-6.7-6.6-14.6-6.6-23.1
			C393.7,705.2,412.6,699.2,433,698.4"/>
		<path id="XMLID_308_" class="st25" d="M308.4,739.6c0,7.7,1.7,15.1,4.7,21.8c9.9,22.2,34.4,38,63,38.1c0.1,0,0.2,0,0.2,0
			c1.1,0,2.1-0.1,3.1-0.1c18.7-0.8,46.5-18.5,46.5-18.5s1.6-1.4,3.8-2.9c2.4-1.6,5.5-3.3,7.9-3.3c2.4,0,5.5,1.7,7.9,3.3
			c2.2,1.5,3.8,2.9,3.8,2.9s27.8,17.7,46.5,18.5c1,0,2.1,0.1,3.1,0.1c0.1,0,0.2,0,0.2,0c28.7-0.1,53.2-15.9,63-38.1
			c3-6.8,4.7-14.1,4.7-21.8c0-6.3-1.7-10.7-4.7-13.9c-12.6-13.3-47.8-4.1-72.3-22c-2.7-2-5.3-3.7-7.7-5.2c-2.8-2-6.3-3.9-10.7-5.6
			c-7.3-2.7-16.4-4.4-26.2-5c-2.5-0.1-5.1-0.2-7.7-0.2c-2.6,0-5.1,0.1-7.6,0.2c-9.8,0.6-18.9,2.3-26.2,5c-4.4,1.6-7.9,3.5-10.7,5.6
			c-2.5,1.5-5,3.2-7.7,5.2c-24.5,17.9-59.7,8.7-72.3,22C310.1,728.9,308.4,733.3,308.4,739.6 M393.7,716.5c0-11.3,19-17.3,39.3-18.1
			c1.5-0.1,3.1-0.1,4.6-0.1c1.5,0,3.1,0,4.6,0.1c20.3,0.8,39.3,6.8,39.3,18.1c0,8.5-2.4,16.4-6.6,23.1
			c-7.7,12.5-21.6,20.8-37.3,20.8c-15.8,0-29.6-8.3-37.3-20.8C396.1,732.9,393.7,725,393.7,716.5"/>
		<path id="XMLID_305_" class="st26" d="M674.9,799.4l-7.7,2.2L677,833C676.8,821.6,676.1,810.4,674.9,799.4z"/>
		<g id="XMLID_299_">
			<linearGradient id="XMLID_14_" gradientUnits="userSpaceOnUse" x1="243.5788" y1="1047.4829" x2="629.7224" y2="1047.4829">
				<stop  offset="0" style="stop-color:#201B59"/>
				<stop  offset="1" style="stop-color:#2D2D83"/>
			</linearGradient>
			<path id="XMLID_304_" class="st27" d="M436.7,1051.6L436.7,1051.6L436.7,1051.6L436.7,1051.6L436.7,1051.6
				c-25.9,0-48.9,12.4-63.5,31.5h-68.2c-23.7-19.2-44.5-43.3-61.3-71.3h193.1h193.1c-16.8,28-37.6,52.1-61.3,71.3h-68.2
				C485.6,1064,462.6,1051.6,436.7,1051.6z"/>
			
				<linearGradient id="XMLID_15_" gradientUnits="userSpaceOnUse" x1="-1486.3727" y1="1091.8538" x2="-1100.2291" y2="1091.8538" gradientTransform="matrix(-1 0 0 1 -856.6503 0)">
				<stop  offset="3.763440e-02" style="stop-color:#505B5C"/>
				<stop  offset="1" style="stop-color:#223032"/>
			</linearGradient>
			<path id="XMLID_303_" class="st28" d="M532.5,1100.6c-11.9,0-23.7-5.6-31.2-15.9c-0.4-0.5-0.8-1-1.2-1.5h68.2
				c-4.7,3.8-9.4,7.4-14.3,10.7C547.5,1098.4,540,1100.6,532.5,1100.6z"/>
			<path id="XMLID_302_" class="st29" d="M532.5,1100.6c-11.9,0-23.7-5.6-31.2-15.9c-0.4-0.5-0.8-1-1.2-1.5h68.2
				c-4.7,3.8-9.4,7.4-14.3,10.7C547.5,1098.4,540,1100.6,532.5,1100.6z"/>
			
				<linearGradient id="XMLID_16_" gradientUnits="userSpaceOnUse" x1="-1486.3727" y1="1091.8538" x2="-1100.2291" y2="1091.8538" gradientTransform="matrix(-1 0 0 1 -856.6503 0)">
				<stop  offset="3.763440e-02" style="stop-color:#505B5C"/>
				<stop  offset="1" style="stop-color:#223032"/>
			</linearGradient>
			<path id="XMLID_301_" class="st30" d="M372,1084.7c-7.5,10.3-19.3,15.9-31.2,15.9c-7.5,0-15-2.2-21.6-6.7
				c-4.9-3.4-9.6-7-14.3-10.7h68.2C372.7,1083.6,372.3,1084.1,372,1084.7z"/>
			<path id="XMLID_300_" class="st29" d="M372,1084.7c-7.5,10.3-19.3,15.9-31.2,15.9c-7.5,0-15-2.2-21.6-6.7
				c-4.9-3.4-9.6-7-14.3-10.7h68.2C372.7,1083.6,372.3,1084.1,372,1084.7z"/>
		</g>
		<path class="st20" d="M455.7,850.4l-12.3,7.4c-1.6,0-18.7,0-20.4,0l-12.3-7.4c-4.9,0-8.8,4-8.8,8.8v26c0,4.9,4,8.8,8.8,8.8
			l12.3-7.4c3,0,17.4,0,20.4,0l12.3,7.4c4.9,0,8.8-4,8.8-8.8v-26C464.6,854.3,460.6,850.4,455.7,850.4z"/>
		<circle id="XMLID_293_" class="st31" cx="422.5" cy="940.6" r="10.7"/>
		<circle id="XMLID_292_" class="st31" cx="422.5" cy="966.3" r="10.7"/>
		<g id="XMLID_277_">
			<path id="XMLID_284_" class="st32" d="M370.8,927.9v81.9c0,8,20.5,14.5,45.9,14.5c25.3,0,45.9-6.5,45.9-14.5v-81.9H370.8z"/>
			<g id="XMLID_279_">
				<path id="XMLID_283_" class="st33" d="M459.1,933.4c2.2-1.7,3.4-3.5,3.4-5.5c0-8-20.5-14.5-45.9-14.5
					c-25.3,0-45.9,6.5-45.9,14.5c0,1.9,1.2,3.8,3.4,5.5c6.9-5.3,22.5,5.4,41.6,5.4C435,938.8,452.2,928.1,459.1,933.4z"/>
				<ellipse id="XMLID_280_" class="st34" cx="416.6" cy="933.4" rx="42.4" ry="9"/>
			</g>
			<g id="XMLID_278_">
				<g>
					<path class="st35" d="M372.5,997.3c-14.5,0-26.2-11.8-26.2-26.2s11.8-26.2,26.2-26.2h2.5v12h-2.5c-7.8,0-14.2,6.4-14.2,14.2
						s6.4,14.2,14.2,14.2h2.5v12H372.5z"/>
					<path class="st4" d="M372.5,947.4v7c-9.2,0-16.7,7.5-16.7,16.7s7.5,16.7,16.7,16.7v7c-13.1,0-23.7-10.6-23.7-23.7
						S359.4,947.4,372.5,947.4 M377.5,942.4h-5c-15.8,0-28.7,12.9-28.7,28.7c0,15.8,12.9,28.7,28.7,28.7h5v-5v-7v-5h-5
						c-6.5,0-11.7-5.3-11.7-11.7s5.3-11.7,11.7-11.7h5v-5v-7V942.4L377.5,942.4z"/>
				</g>
			</g>
		</g>
		<g id="XMLID_274_">
			<path id="XMLID_276_" class="st22" d="M344.4,923.7c0,0,0.3,0.1,0.7,0.5c0.1,0.1,0.2,0.2,0.4,0.3c0.1,0.1,0.3,0.3,0.3,0.3
				c0,0.1,0,0.1,0,0.2c0,0.1-0.1,0-0.2,0c-0.1,0-0.2-0.1-0.4-0.1c-0.2,0-0.7-0.4-1.2-0.6c-0.4-0.2-1-0.7-1.7-1.1
				c-0.6-0.4-1.4-1-2.1-1.6c-0.8-0.6-1.6-1.3-2.5-2c-0.9-0.7-1.8-1.5-2.8-2.4c-1.9-1.7-4-3.6-6.1-5.7c-2.1-2.1-4.4-4.3-6.6-6.6
				c-2.3-2.3-4.6-4.8-6.8-7.2c-6.2-6.7-12.2-13.6-17.6-19.8l-57.5,39.5c3.5,6.1,7.4,12.7,11.5,19.3c2,3.2,4,6.4,6.1,9.5
				c2.1,3.2,4.2,6.3,6.3,9.3c2.1,3,4.3,6,6.5,8.9c1.1,1.4,2.2,2.8,3.3,4.2c1.1,1.4,2.2,2.7,3.4,4c1.1,1.3,2.2,2.6,3.4,3.8
				c1.2,1.2,2.2,2.4,3.5,3.6c1.2,1.2,2.2,2.2,3.6,3.4c0.6,0.5,1.2,1.1,1.8,1.6c0.6,0.5,1.1,0.9,1.8,1.5c1.3,1,2.5,1.9,3.5,2.7
				c0.5,0.4,1.2,0.8,1.7,1.2c0.6,0.4,1.1,0.7,1.6,1c1.9,1.2,3,1.8,3,1.8c21.2,10.7,48,3.9,59.9-15.2
				C373.1,958.6,365.6,934.4,344.4,923.7z"/>
			<path id="XMLID_275_" class="st21" d="M326,888c-4.6-5.7-8.4-10.6-11-13.9c-1.3-1.6-2.3-2.9-3-3.8c-0.1-0.2-0.1,0-0.1,0l0,0.1
				c0,0.1,0,0.2,0,0.2c-0.2-0.2-0.3-0.4-0.3-0.4l-1.1-1.5c-12.3-16.8-36.1-23.6-56.9-15.1c-23.4,9.5-34,34.9-23.7,56.6
				c0,0,0.1,0.1,0.2,0.4c0.3,0.6,0.8,1.4,1.4,2.5c0.6,1.1,1.4,2.8,2.5,4.9c2.1,4.1,5.1,9.9,8.8,16.8c3.5,6.7,7.7,14.4,12.3,22.6
				l80.8-57.2C332.5,895.9,329.1,891.8,326,888z"/>
		</g>
		<g>
			
				<linearGradient id="SVGID_3_" gradientUnits="userSpaceOnUse" x1="-42.5284" y1="982.4198" x2="-187.1381" y2="1022.0535" gradientTransform="matrix(-0.9999 -1.537571e-02 -1.537571e-02 0.9999 438.1705 -108.0596)">
				<stop  offset="0" style="stop-color:#201B59"/>
				<stop  offset="1" style="stop-color:#2D2D83"/>
			</linearGradient>
			<path class="st36" d="M497.6,921.5c0.1,0,0.3,0,0.4,0l179.4-6.3c4.4-0.2,7.9-3.8,7.8-8.2c-0.2-4.4-3.9-7.9-8.3-7.7l-179.4,6.3
				c-4.4,0.2-7.9,3.8-7.8,8.2C489.9,918,493.4,921.4,497.6,921.5z"/>
			
				<linearGradient id="SVGID_4_" gradientUnits="userSpaceOnUse" x1="-172.2187" y1="781.1634" x2="-274.2225" y2="888.9751" gradientTransform="matrix(-0.9994 3.403651e-02 3.403651e-02 0.9994 459.7321 1.1705)">
				<stop  offset="0" style="stop-color:#201B59"/>
				<stop  offset="1" style="stop-color:#2D2D83"/>
			</linearGradient>
			<path class="st37" d="M833.2,748.7l-149.4,5.1c-11,0.4-20.8,7-25.2,17l-64.1,147.3l185.7-6.3c7.1-0.2,13.3-4.8,15.7-11.4
				l49-135.9C847.7,756.6,841.6,748.4,833.2,748.7z"/>
			
				<linearGradient id="SVGID_5_" gradientUnits="userSpaceOnUse" x1="-234.0716" y1="808.1099" x2="-280.1805" y2="877.5446" gradientTransform="matrix(-0.9994 3.403651e-02 3.403651e-02 0.9994 459.7321 1.1705)">
				<stop  offset="0" style="stop-color:#5560AA"/>
				<stop  offset="1" style="stop-color:#4C57A5"/>
			</linearGradient>
			<path class="st38" d="M730.5,826.6c-2.9,10.1-0.2,19.6,6.1,21.4c6.3,1.8,13.7-5,16.6-15c2.9-10.1,0.2-19.6-6.1-21.4
				C740.8,809.8,733.4,816.5,730.5,826.6z"/>
		</g>
		<path id="XMLID_285_" class="st22" d="M528,925.8c0,0,25.9,49.6,81.7,47.9c55.8-1.7,76.9-57.7,50-63.1
			C632.9,905.3,552.6,904.1,528,925.8z"/>
	</g>
	<g id="XMLID_177_">
		<g id="XMLID_268_">
			<path id="XMLID_270_" class="st13" d="M454.6,673.5c0-40,32.5-72.6,72.6-72.6s72.6,32.5,72.6,72.6s-32.5,72.6-72.6,72.6
				S454.6,713.6,454.6,673.5z M470.8,673.5c0,31.1,25.3,56.4,56.4,56.4c31.1,0,56.4-25.3,56.4-56.4c0-31.1-25.3-56.4-56.4-56.4
				C496.1,617.1,470.8,642.4,470.8,673.5z"/>
			<circle id="XMLID_269_" class="st14" cx="527.2" cy="673.5" r="58.3"/>
		</g>
		<path id="XMLID_266_" class="st13" d="M456.9,654.2c-6.1-6.8-13.5-10.8-21.5-10.8c-8,0-15.4,4-21.5,10.8H398
			c8.9-17.2,22.4-28.2,37.4-28.2s28.5,11,37.4,28.2H456.9z"/>
		<g id="XMLID_183_">
			<path id="XMLID_262_" class="st13" d="M271.8,673.5c0-40,32.5-72.6,72.6-72.6s72.6,32.5,72.6,72.6s-32.5,72.6-72.6,72.6
				S271.8,713.6,271.8,673.5z M287.9,673.5c0,31.1,25.3,56.4,56.4,56.4s56.4-25.3,56.4-56.4c0-31.1-25.3-56.4-56.4-56.4
				S287.9,642.4,287.9,673.5z"/>
			<circle id="XMLID_261_" class="st14" cx="344.3" cy="673.5" r="58.3"/>
		</g>
	</g>
	<path class="st39" d="M240.8,603.8"/>
</g>
</svg>
