<?xml version="1.0" encoding="utf-8"?>
<!-- Generator: Adobe Illustrator 25.2.0, SVG Export Plug-In . SVG Version: 6.00 Build 0)  -->
<svg version="1.1" id="Layer_1" xmlns="http://www.w3.org/2000/svg" xmlns:xlink="http://www.w3.org/1999/xlink" x="0px" y="0px"
	 viewBox="0 0 122.6 13.7" style="enable-background:new 0 0 122.6 13.7;" xml:space="preserve">
<g>
	<path d="M28.7,7.4c0-0.7,0-1.3,0-1.7l0-0.1c-2,0-3.1,0-3.3,0.1C25.2,7.2,25,8.7,25,10.4V12l0,1.2c1.2,0,2.4-0.2,3.5-0.6
		c0.1-1,0.1-2.2,0.1-3.5c0-0.3,0-0.6,0-0.7L28.7,7.4z"/>
	<path d="M4.9,12.6c1.5,0,2.8-0.8,3.7-2.4c0.8-1.3,1.1-2.8,1.1-4.5c0-2-0.2-3.7-0.6-4.9c-0.6-0.1-1-0.2-1.2-0.2
		c-0.7,0-1.2,0.1-1.5,0.2c0.2,1.5,0.3,2.5,0.3,3c0,1.3-0.1,2.4-0.2,3.3C6.2,8.7,5.7,9.5,4.9,9.5c-0.9,0-1.3-0.7-1.3-2V7.3
		C2.7,7.4,1.9,7.6,1,7.9C1.2,11,2.5,12.6,4.9,12.6z"/>
	<path d="M25.5,4.2c0.4,0.3,0.9,0.4,1.5,0.4c0.6,0,1.1-0.2,1.5-0.5c0.5-0.3,0.7-0.8,0.7-1.4c0-0.6-0.3-1.2-0.8-1.6
		c-0.5-0.4-1.1-0.6-1.7-0.6c-0.6,0-1.1,0.2-1.4,0.7c-0.3,0.4-0.5,0.9-0.5,1.5C24.7,3.4,25,3.8,25.5,4.2z"/>
	<path d="M21.8,2.4c-0.9-1.2-2.4-1.8-4.3-1.8c-0.9,0-1.9,0.3-2.8,1c-0.9,0.6-1.6,1.4-2.2,2.3c-0.7,1-1,2-1,3c0,1.8,0.6,3.2,1.7,4.2
		c1.1,1,2.5,1.5,4.4,1.5c1.5,0,2.8-0.6,3.9-1.7c1-1.1,1.6-2.4,1.6-4C23,4.9,22.6,3.4,21.8,2.4z M19,7.8c-0.4,0.6-1,0.9-1.7,0.9
		c-0.7,0-1.2-0.2-1.6-0.5c-0.4-0.4-0.6-0.9-0.6-1.5c0-0.7,0.3-1.3,0.8-2c0.5-0.7,1.1-1,1.8-1c0.6,0,1.1,0.2,1.5,0.6
		c0.3,0.4,0.5,0.9,0.5,1.5C19.6,6.6,19.4,7.2,19,7.8z"/>
	<path d="M87.2,3.8C87.2,3.8,87.2,3.8,87.2,3.8L87.2,3.8L87.2,3.8z"/>
	<path d="M91.2,12.2l1.5-0.3c0-0.2,0-0.8-0.1-1.8c-0.1-0.6-0.1-1.1-0.1-1.5c0-0.1,0-0.2,0-0.3c1.2-0.4,1.9-0.7,2.4-0.9
		c2.1-0.8,3.1-2,3.1-3.6c0-1.1-0.5-1.9-1.4-2.5c-0.8-0.5-1.8-0.8-2.9-0.8c-1.5,0-3,0.2-4.4,0.7c0,1-0.1,2.6-0.2,5
		c-0.1,2.2-0.2,3.9-0.2,4.9c0,0.6,0.1,1.1,0.3,1.4C90.3,12.3,90.9,12.2,91.2,12.2z M93.6,3.6c0.2,0,0.3,0.1,0.5,0.2
		c0.2,0.2,0.3,0.3,0.3,0.5c0,0.3-0.3,0.6-0.8,0.8c-0.7,0.3-1.1,0.4-1.2,0.4c0-0.3,0-0.6-0.1-0.9c0-0.4-0.1-0.7-0.2-0.9
		C92.8,3.7,93.2,3.6,93.6,3.6z"/>
	<path d="M105.3,12.6c1.5,0,2.8-0.6,3.9-1.7c1-1.1,1.6-2.4,1.6-4c0-2-0.4-3.5-1.3-4.5c-0.9-1.2-2.4-1.8-4.3-1.8
		c-0.9,0-1.9,0.3-2.8,1c-0.9,0.6-1.6,1.4-2.2,2.3c-0.7,1-1,2-1,3c0,1.8,0.6,3.2,1.7,4.2C102,12.1,103.5,12.6,105.3,12.6z M103.6,4.7
		c0.5-0.7,1.1-1,1.8-1c0.6,0,1.1,0.2,1.5,0.6c0.3,0.4,0.5,0.9,0.5,1.5c0,0.7-0.2,1.4-0.6,1.9c-0.4,0.6-1,0.9-1.7,0.9
		c-0.7,0-1.2-0.2-1.6-0.5c-0.4-0.4-0.6-0.9-0.6-1.5C102.8,5.9,103.1,5.3,103.6,4.7z"/>
	<path d="M34.3,12.2c-0.1-2.4-0.1-3.8,0-4.1c0.8,2,1.3,3.5,1.7,4.4c1-0.1,2.3-0.2,4.2-0.3c0-1,0-2.4-0.1-4.4C40,6.1,40,4.7,40,3.5
		c0-0.2,0-0.7,0.1-1.6c0-0.5,0.1-0.8,0.1-0.9l-3.6,0c0,0.1,0,0.3,0,0.6c0,0.3,0,0.5,0,0.6c0,0.5,0,1.1,0.1,1.8
		c0.1,0.8,0.1,1.4,0.1,1.8c0,0.6,0,1.1-0.1,1.4c-0.4-0.9-0.8-1.9-1.2-3.2l-1-3.3l-3,0.3L31,6.3c-0.1,2.4-0.2,4.2-0.2,5.4
		c0,0.4,0.1,0.6,0.2,0.8C33.2,12.6,34.3,12.4,34.3,12.2z"/>
	<path d="M80,12.1c0.6,0.3,1.5,0.5,2.7,0.5c1.1,0,2-0.3,2.7-1c0.7-0.7,1.1-1.5,1.1-2.6c0-1.1-0.3-2-1-2.7c-0.3-0.3-0.9-0.7-1.8-1.2
		c-0.6-0.4-1-0.7-1-1c0-0.2,0.1-0.4,0.3-0.6c0.2-0.2,0.4-0.2,0.6-0.2c0.3,0,0.5,0.1,0.6,0.4l0.3,0.7c1.4-0.3,2.3-0.5,2.8-0.6
		c0-0.9-0.3-1.7-1-2.3c-0.7-0.6-1.5-0.9-2.4-0.9c-1.3,0-2.3,0.3-3,1s-1.2,1.6-1.4,2.8c0.1,0.8,0.5,1.5,1.1,2.1
		c0.2,0.2,0.5,0.4,0.9,0.7c0.3,0.2,0.6,0.4,0.9,0.6c0.6,0.4,0.9,0.8,0.9,1.1c0,0.6-0.3,0.8-0.8,0.8h-0.1c0,0-0.1,0-0.1,0
		C82,9.5,81.8,9.2,81.8,9c0-0.1-0.1-0.3-0.1-0.6h-1.5c-0.4,0-0.8,0-1.1,0c-0.1,0.3-0.1,0.7-0.1,1.3C78.9,10.9,79.3,11.7,80,12.1z"/>
	<path d="M50.8,12.5l0.6,0c0.4,0,0.7,0,1,0c1.4,0,2.1-0.2,2.1-0.6c0-0.3,0-0.6-0.1-1.1c-0.1-0.5-0.1-0.9-0.1-1.1v0c0,0,0,0,0-0.1
		V9.1c0-0.4-0.2-0.6-0.6-0.6H53c-0.4,0-0.7,0-0.9,0c-0.7,0-1-0.1-1-0.2c0-0.9,0.1-2.2,0.2-3.8c0.1-1.7,0.2-2.9,0.2-3.8h-0.5
		c-0.8,0-1.5,0.1-2.1,0.2l-0.8,11.6C49.5,12.5,50.4,12.5,50.8,12.5z"/>
	<path d="M74.7,12.6c0.3,0,0.7-0.1,1.3-0.2c0.7-0.2,1-0.4,1-0.6c0-2.9-0.1-5.3-0.3-7.3l-1.8,0.1c-0.7,0-1.3,0.1-1.8,0.3
		C73,5.2,73,5.5,73,5.7c0,0.5,0.1,0.8,0.2,1c0.5,0,0.8,0.1,1.1,0.1v3c-0.9-0.3-1.4-0.5-1.6-0.8c-0.3-0.3-0.4-1-0.4-1.9
		c0-1.1,0.2-2,0.7-2.8c0.5-0.9,1.3-1.4,2.2-1.4c0.2,0,0.3,0,0.6,0.1l0.5,0.2c0.4-0.5,0.7-1.2,0.7-2.1c-0.7-0.3-1.2-0.5-1.5-0.5
		c-2.1,0-3.7,0.5-4.7,1.6c-1,1-1.4,2.6-1.4,4.8c0,1.6,0.5,2.9,1.5,4C71.8,12,73.1,12.6,74.7,12.6z"/>
	<path d="M66.3,2.4c-0.9-1.2-2.4-1.8-4.3-1.8c-0.9,0-1.9,0.3-2.8,1C58.3,2.2,57.6,3,57,3.9c-0.7,1-1,2-1,3c0,1.8,0.6,3.2,1.7,4.2
		c1.1,1,2.5,1.5,4.4,1.5c1.5,0,2.8-0.6,3.9-1.7c1-1.1,1.6-2.4,1.6-4C67.6,4.9,67.1,3.4,66.3,2.4z M63.6,7.8c-0.4,0.6-1,0.9-1.7,0.9
		c-0.7,0-1.2-0.2-1.6-0.5c-0.4-0.4-0.6-0.9-0.6-1.5c0-0.7,0.3-1.3,0.8-2c0.5-0.7,1.1-1,1.8-1c0.6,0,1.1,0.2,1.5,0.6
		c0.3,0.4,0.5,0.9,0.5,1.5C64.2,6.6,64,7.2,63.6,7.8z"/>
	<path d="M118.4,12.2c-0.1-1.3-0.2-2.6-0.3-4l-0.2-4c1.9,0,3.1,0,3.6,0c0.1-0.4,0.1-1,0.1-1.8c0-0.7,0-1.2-0.1-1.3
		c-0.2,0-0.4,0-0.6,0l-1.6-0.1c-1.1-0.1-1.9-0.1-2.3-0.1c-1.8,0-3.1,0.1-4,0.2c-0.2,1.2-0.3,2.1-0.5,2.8c1.1,0.2,2,0.3,2.5,0.3
		l-0.6,8.4c0.8-0.1,1.4-0.1,2-0.2C117.3,12.4,117.9,12.3,118.4,12.2z"/>
</g>
</svg>
