<?xml version="1.0" encoding="utf-8"?>
<!-- Generator: Adobe Illustrator 25.2.0, SVG Export Plug-In . SVG Version: 6.00 Build 0)  -->
<svg version="1.1" id="Layer_1" xmlns="http://www.w3.org/2000/svg" xmlns:xlink="http://www.w3.org/1999/xlink" x="0px" y="0px"
	 viewBox="0 0 595.28 196.02" style="enable-background:new 0 0 595.28 196.02;" xml:space="preserve">
<style type="text/css">
	.st0{fill:none;}
	.st1{fill:#FFFFFF;}
	.st2{fill:#010101;}
	.st3{fill:#412614;}
	.st4{fill:#EE9722;}
</style>
<g>
	<g>
		<path class="st0" d="M148.5,99.56c0.23,0.01,0.46,0.02,0.69,0.02l0-0.01c-0.02,0-0.03,0-0.05,0
			C148.93,99.58,148.72,99.57,148.5,99.56z"/>
		<path class="st1" d="M125.74,106.93c0.42,1.16,1.42,1.92,2.53,1.92h4.1c1.51,0,2.74-1.39,2.74-3.11v-7.41
			c-0.7,0.57-1.46,1.09-2.27,1.54c-2.5,1.42-5.36,2.2-8.32,2.3C124.79,103.84,125.2,105.44,125.74,106.93z"/>
		<path class="st1" d="M124.91,99.56c-0.21,0.01-0.42,0.02-0.64,0.02c-0.02,0-0.03,0-0.05,0c0,0,0,0.01,0,0.01
			C124.46,99.58,124.69,99.57,124.91,99.56z"/>
		<path class="st1" d="M141.04,108.85h4.1c1.1,0,2.11-0.75,2.53-1.92c0.54-1.49,0.96-3.09,1.23-4.76c-2.96-0.1-5.82-0.89-8.32-2.3
			c-0.81-0.46-1.57-0.98-2.27-1.54v7.41C138.31,107.46,139.53,108.85,141.04,108.85z"/>
		<path class="st1" d="M120.48,78.81c0.48,0,0.95-0.04,1.41-0.12c0.84-0.3,1.64-0.68,2.36-1.21c0.85-0.62,1.66-1.15,2.46-1.59
			c1.17-1.4,1.87-3.21,1.87-5.18c0-4.48-3.63-8.1-8.1-8.1c-4.47,0-8.1,3.63-8.1,8.1C112.38,75.18,116.01,78.81,120.48,78.81z
			 M117.39,68.1c-0.03,0.13-0.05,0.26-0.05,0.4c0,0.99,0.8,1.79,1.79,1.79c0.99,0,1.79-0.8,1.79-1.79c0-0.83-0.57-1.53-1.35-1.73
			c0.29-0.07,0.59-0.11,0.91-0.11c2.24,0,4.05,1.81,4.05,4.05c0,2.24-1.81,4.05-4.05,4.05c-2.24,0-4.05-1.81-4.05-4.05
			C116.43,69.71,116.79,68.8,117.39,68.1z"/>
		<path class="st1" d="M152.94,62.61c-4.47,0-8.1,3.63-8.1,8.1c0,1.97,0.7,3.77,1.87,5.18c0.79,0.44,1.61,0.97,2.46,1.59
			c0.72,0.53,1.52,0.92,2.36,1.21c0.46,0.08,0.93,0.12,1.41,0.12c4.47,0,8.1-3.63,8.1-8.1C161.04,66.23,157.41,62.61,152.94,62.61z
			 M152.94,74.76c-2.24,0-4.05-1.81-4.05-4.05c0-1,0.36-1.91,0.96-2.61c-0.03,0.13-0.05,0.26-0.05,0.4c0,0.99,0.8,1.79,1.79,1.79
			c0.99,0,1.79-0.8,1.79-1.79c0-0.83-0.57-1.53-1.35-1.73c0.29-0.07,0.59-0.11,0.91-0.11c2.24,0,4.05,1.81,4.05,4.05
			C156.99,72.95,155.17,74.76,152.94,74.76z"/>
		<path class="st2" d="M120.48,74.76c2.24,0,4.05-1.81,4.05-4.05c0-2.24-1.81-4.05-4.05-4.05c-0.31,0-0.61,0.04-0.91,0.11
			c0.77,0.2,1.35,0.9,1.35,1.73c0,0.99-0.8,1.79-1.79,1.79c-0.99,0-1.79-0.8-1.79-1.79c0-0.14,0.02-0.27,0.05-0.4
			c-0.6,0.71-0.96,1.62-0.96,2.61C116.43,72.95,118.24,74.76,120.48,74.76z"/>
		<path class="st2" d="M152.94,66.66c-0.31,0-0.61,0.04-0.91,0.11c0.77,0.2,1.35,0.9,1.35,1.73c0,0.99-0.8,1.79-1.79,1.79
			c-0.99,0-1.79-0.8-1.79-1.79c0-0.14,0.02-0.27,0.05-0.4c-0.6,0.71-0.96,1.62-0.96,2.61c0,2.24,1.81,4.05,4.05,4.05
			c2.24,0,4.05-1.81,4.05-4.05C156.99,68.47,155.17,66.66,152.94,66.66z"/>
		<g>
			<path class="st3" d="M91.91,136.77c-0.6-1.02-1.06-1.99-1.4-2.87c-0.37-0.94-0.63-1.78-0.81-2.47c-0.11-0.41-0.19-0.76-0.26-1.07
				c-2.37-7.22-3.6-14.97-3.6-22.82c0-5.87,0.67-11.6,1.99-17.13c-0.31-1.31-0.59-2.63-0.83-3.99c-0.94-5.58-2.66-10.81-4.98-15.92
				c-2.37-4.98-14.28-16.33-25.59-5.39c-5.52,5.34-7.9,16.47-5.91,27.4c2.02,12.33,7.63,23.2,14.52,31.19
				c6.9,8.07,15.06,13.28,22.45,16.07c2.4,0.91,4.72,1.57,6.92,2.01c-0.52-0.94-1.02-1.89-1.5-2.87
				C92.57,138.22,92.24,137.5,91.91,136.77z"/>
			<path class="st3" d="M169.51,63.7c1.2-0.34,2.34-0.99,3.28-1.93c2.97-2.97,2.97-7.83,0-10.8c-1.49-1.49-3.44-2.23-5.4-2.23
				c-1.96,0-3.92,0.74-5.4,2.23c-1.21,1.21-1.92,2.73-2.15,4.31c-3.4-2.25-7.04-4.02-10.87-5.24c0.25-0.31,0.51-0.62,0.8-0.91
				c0.29-0.3,0.61-0.6,0.94-0.88c4.85-4.22,13.1-6.4,13.1-6.4c-7.55-1.82-14.44-1.91-20.55-1.01c3.02-3.22,6.23-5.49,6.23-5.49
				c-14.13,1.7-24.17,8.11-30.93,14.59c-0.88,0.84-1.71,1.69-2.48,2.53c-0.78,0.84-1.5,1.68-2.17,2.49
				c-0.22,0.22-0.34,0.34-0.34,0.34c-0.23-1.58-0.94-3.1-2.15-4.31c-1.48-1.49-3.44-2.23-5.4-2.23c-1.96,0-3.92,0.74-5.4,2.23
				c-2.97,2.97-2.97,7.83,0,10.8c0.94,0.94,2.08,1.59,3.28,1.93c-7.33,8.2-12.59,19.1-14.74,31.42c-0.7,4.01-1.07,8.16-1.07,12.42
				c0,8.33,1.4,16.25,3.93,23.45c0.22,0.55,0.49,1.19,0.83,1.89c0.41,0.81,0.87,1.71,1.49,2.59c0.62,0.88,1.34,1.77,2.25,2.47
				c0.44,0.36,0.93,0.65,1.45,0.9c0.53,0.21,1.07,0.4,1.66,0.46c1.17,0.16,2.46-0.05,3.75-0.52l0.12-0.04l0.06-0.02l0.03-0.01
				l0.01,0l0.2-0.09l0.53-0.25c0.21-0.08,0.27-0.16,0.4-0.24c0.11-0.08,0.23-0.15,0.35-0.22c0.47-0.4,0.94-0.83,1.27-1.39
				c0.7-1.08,1.09-2.45,1.24-3.87c0.15-1.42,0.08-2.88-0.07-4.29c-0.15-1.42-0.4-2.79-0.7-4.08c-0.02-0.09-0.04-0.18-0.06-0.27
				c-0.27-1.19-0.57-2.33-0.88-3.37c-0.65-2.24-1.31-4.09-1.78-5.38c-0.47-1.29-0.78-2.02-0.78-2.02s0.43,0.66,1.11,1.87
				c0.67,1.21,1.58,2.96,2.53,5.15c0.79,1.9,1.63,4.11,2.23,6.6c0.09,0.4,0.18,0.8,0.26,1.21c0.3,1.49,0.47,3.08,0.42,4.75
				c-0.01,0.42-0.06,0.84-0.1,1.26c-0.07,0.42-0.13,0.85-0.23,1.28l-0.18,0.64l-0.09,0.32l-0.13,0.31l-0.26,0.63
				c-0.1,0.21-0.22,0.4-0.33,0.61c-0.21,0.41-0.51,0.78-0.8,1.15c-0.14,0.19-0.31,0.35-0.48,0.51l-0.51,0.49l-0.61,0.44
				c-0.2,0.13-0.44,0.31-0.59,0.38l-0.52,0.27l-0.26,0.13l-0.1,0.05l-0.02,0.01l-0.04,0.01l-0.07,0.03l-0.15,0.06
				c-1.58,0.64-3.37,1.02-5.13,0.8c-0.88-0.1-1.72-0.37-2.5-0.7c-0.02-0.01-0.03-0.02-0.05-0.03c0.15,0.27,0.31,0.54,0.47,0.81
				c4.12,6.97,9.44,12.81,15.59,17.05c1.34,0.92,2.86,1.36,4.38,1.36c2.42,0,4.81-1.13,6.33-3.23c2.95-4.06,7.73-6.71,13.13-6.71
				c5.4,0,10.19,2.64,13.13,6.71c1.52,2.1,3.9,3.21,6.31,3.21c1.55,0,3.12-0.46,4.49-1.41c6.35-4.4,11.81-10.5,15.97-17.8
				c-0.02,0.01-0.03,0.02-0.05,0.03c-0.78,0.33-1.62,0.6-2.5,0.7c-1.76,0.22-3.55-0.16-5.13-0.8l-0.15-0.06l-0.08-0.03l-0.04-0.01
				l-0.02-0.01l-0.1-0.05l-0.26-0.13l-0.52-0.27c-0.16-0.07-0.39-0.25-0.59-0.38l-0.61-0.44l-0.51-0.49
				c-0.17-0.17-0.35-0.32-0.48-0.51c-0.29-0.37-0.59-0.74-0.8-1.15c-0.11-0.2-0.24-0.4-0.33-0.61l-0.26-0.63l-0.13-0.31l-0.09-0.32
				l-0.18-0.64c-0.1-0.43-0.16-0.86-0.23-1.28c-0.03-0.42-0.08-0.85-0.09-1.26c-0.05-1.66,0.13-3.25,0.42-4.75
				c0.59-2.99,1.57-5.61,2.49-7.81c0.94-2.19,1.85-3.94,2.53-5.15c0.68-1.2,1.11-1.87,1.11-1.87s-0.3,0.73-0.78,2.02
				c-0.47,1.29-1.13,3.14-1.78,5.38c-0.33,1.12-0.65,2.34-0.94,3.64c-0.3,1.29-0.55,2.67-0.7,4.08c-0.14,1.41-0.22,2.87-0.07,4.29
				c0.14,1.42,0.54,2.79,1.24,3.87c0.33,0.56,0.8,0.98,1.27,1.39c0.12,0.07,0.24,0.15,0.35,0.22c0.13,0.08,0.19,0.16,0.4,0.24
				l0.53,0.25l0.2,0.09l0.01,0l0.03,0.01l0.06,0.02l0.12,0.04c1.29,0.46,2.59,0.68,3.75,0.52c0.59-0.06,1.14-0.25,1.66-0.46
				c0.51-0.25,1-0.54,1.45-0.9c0.91-0.69,1.63-1.59,2.25-2.47c0.62-0.88,1.09-1.78,1.49-2.59c0.34-0.69,0.6-1.32,0.83-1.87
				c2.53-7.2,3.94-15.13,3.94-23.46C185.32,90.18,179.23,74.56,169.51,63.7z M106.01,59.9c-1.98,0-3.59-1.61-3.59-3.59
				c0-1.98,1.61-3.59,3.59-3.59s3.59,1.61,3.59,3.59C109.6,58.3,107.99,59.9,106.01,59.9z M152.94,78.81
				c-0.48,0-0.95-0.04-1.41-0.12c-0.84-0.3-1.64-0.68-2.36-1.21c-0.85-0.62-1.67-1.15-2.46-1.59c-1.17-1.4-1.87-3.21-1.87-5.18
				c0-4.48,3.63-8.1,8.1-8.1c4.47,0,8.1,3.63,8.1,8.1C161.04,75.18,157.41,78.81,152.94,78.81z M128.58,70.71
				c0,1.97-0.7,3.77-1.87,5.18c-0.79,0.44-1.61,0.97-2.46,1.59c-0.72,0.53-1.52,0.92-2.36,1.21c-0.46,0.08-0.93,0.12-1.41,0.12
				c-4.47,0-8.1-3.63-8.1-8.1c0-4.48,3.63-8.1,8.1-8.1C124.95,62.61,128.58,66.23,128.58,70.71z M138.31,105.74v-7.41
				c0.7,0.57,1.46,1.09,2.27,1.54c2.5,1.42,5.36,2.2,8.32,2.3c-0.27,1.67-0.68,3.27-1.23,4.76c-0.42,1.16-1.42,1.92-2.53,1.92h-4.1
				C139.53,108.85,138.31,107.46,138.31,105.74z M135.11,98.33v7.41c0,1.72-1.22,3.11-2.74,3.11h-4.1c-1.1,0-2.1-0.75-2.53-1.92
				c-0.54-1.49-0.95-3.09-1.22-4.76c2.96-0.1,5.82-0.89,8.32-2.3C133.65,99.41,134.4,98.9,135.11,98.33z M136.71,140.2
				c-8.81,0-15.96,5.45-15.96-3.04c0-8.49,7.14-17.36,15.96-17.36c8.81,0,15.96,8.87,15.96,17.36
				C152.67,145.65,145.52,140.2,136.71,140.2z M149.19,99.58L149.19,99.58c-0.23,0-0.46,0-0.69-0.02c-3.79-0.15-7.17-1.65-9.56-3.97
				l0.13,0.22c0,0-0.32-0.29-0.76-0.58c-0.48-0.33-1.11-0.68-1.6-0.68c-0.49,0-1.12,0.35-1.6,0.68c-0.44,0.3-0.76,0.58-0.76,0.58
				l0.13-0.22c-0.86,0.84-1.85,1.56-2.95,2.16c-1.94,1.06-4.19,1.71-6.61,1.81c-0.23,0.01-0.46,0.02-0.69,0.02c0,0,0,0,0-0.01
				c-0.02,0-0.04,0-0.06,0c-7.57-0.05-13.68-5.48-13.68-12.16c0-6.61,9.18-2.92,15.32-7.1c0.1-0.07,0.2-0.12,0.29-0.19
				c0.54-0.4,1.07-0.75,1.57-1.05c0.1-0.07,0.21-0.14,0.32-0.21c0.51-0.33,1.11-0.64,1.86-0.92c1.47-0.54,3.32-0.89,5.32-1.01
				c0.51-0.03,1.03-0.05,1.55-0.05c0.53,0,1.04,0.02,1.55,0.05c2,0.12,3.84,0.46,5.32,1.01c0.74,0.27,1.35,0.59,1.86,0.92
				c0.11,0.07,0.22,0.14,0.32,0.21c0.5,0.3,1.02,0.65,1.57,1.05c0.09,0.07,0.2,0.12,0.29,0.18c6.15,4.18,15.33,0.49,15.33,7.1
				C162.94,94.12,156.79,99.55,149.19,99.58z M167.41,59.9c-1.98,0-3.59-1.61-3.59-3.59c0-1.98,1.61-3.59,3.59-3.59
				c1.98,0,3.59,1.61,3.59,3.59C170.99,58.3,169.39,59.9,167.41,59.9z"/>
		</g>
		<path class="st2" d="M136.71,91.64c3.2,0,6.01-1.69,7.58-4.22c0.85-1.36,1.33-2.97,1.33-4.69c0-2.29-3.85-3.51-7.98-3.67
			c-0.31-0.01-0.62-0.02-0.94-0.02c-0.31,0-0.63,0.01-0.94,0.02c-4.12,0.16-7.98,1.38-7.98,3.67c0,1.72,0.49,3.33,1.33,4.69
			C130.7,89.95,133.51,91.64,136.71,91.64z"/>
		<g>
			<path class="st4" d="M136.71,119.8c-8.81,0-15.96,8.87-15.96,17.36c0,8.49,7.14,3.04,15.96,3.04c8.81,0,15.96,5.45,15.96-3.04
				C152.67,128.67,145.52,119.8,136.71,119.8z"/>
			<path class="st4" d="M147.61,80.31c-0.1-0.07-0.2-0.12-0.29-0.18c-0.55-0.4-1.07-0.75-1.57-1.05c-0.1-0.07-0.21-0.14-0.32-0.21
				c-0.51-0.33-1.11-0.64-1.86-0.92c-1.47-0.54-3.32-0.89-5.32-1.01c-0.51-0.03-1.03-0.05-1.55-0.05c-0.53,0-1.04,0.02-1.55,0.05
				c-1.99,0.12-3.84,0.46-5.32,1.01c-0.74,0.27-1.35,0.59-1.86,0.92c-0.11,0.07-0.22,0.14-0.32,0.21c-0.5,0.3-1.02,0.65-1.57,1.05
				c-0.09,0.07-0.2,0.12-0.29,0.19c-6.15,4.18-15.32,0.49-15.32,7.1c0,6.69,6.12,12.11,13.68,12.16c0.02,0,0.04,0,0.06,0
				c0.02,0,0.03,0,0.05,0c0.21,0,0.43-0.01,0.64-0.02c2.42-0.1,4.68-0.75,6.61-1.81c1.09-0.6,2.09-1.32,2.95-2.16l-0.13,0.22
				c0,0,0.32-0.28,0.76-0.58c0.48-0.33,1.11-0.68,1.6-0.68c0.49,0,1.11,0.35,1.6,0.68c0.44,0.3,0.76,0.58,0.76,0.58l-0.13-0.22
				c2.39,2.32,5.77,3.81,9.56,3.97c0.21,0.01,0.42,0.02,0.64,0.02c0.02,0,0.03,0,0.05,0c7.6-0.02,13.75-5.46,13.75-12.17
				C162.94,80.79,153.76,84.49,147.61,80.31z M135.77,79.05c0.31-0.01,0.62-0.02,0.94-0.02c0.31,0,0.63,0.01,0.94,0.02
				c4.12,0.16,7.98,1.38,7.98,3.67c0,1.72-0.49,3.33-1.33,4.69c-1.57,2.53-4.38,4.22-7.58,4.22c-3.2,0-6.01-1.69-7.58-4.23
				c-0.84-1.36-1.33-2.97-1.33-4.69C127.8,80.44,131.65,79.22,135.77,79.05z"/>
			<path class="st4" d="M106.01,52.73c-1.98,0-3.59,1.61-3.59,3.59c0,1.98,1.61,3.59,3.59,3.59s3.59-1.61,3.59-3.59
				C109.6,54.34,107.99,52.73,106.01,52.73z"/>
			<path class="st4" d="M167.41,52.73c-1.98,0-3.59,1.61-3.59,3.59c0,1.98,1.61,3.59,3.59,3.59c1.98,0,3.59-1.61,3.59-3.59
				C170.99,54.34,169.39,52.73,167.41,52.73z"/>
		</g>
	</g>
	<g>
		<g>
			<path class="st2" d="M204.74,128.93c6.64-0.52,10.84-0.74,12.58-0.67l2.89,0.11c1.93,0.07,3.41,0.11,4.45,0.11
				c6.53,0,9.8-1,9.8-2.99c0-1.18-0.18-2.93-0.53-5.26c-0.35-2.32-0.53-4.08-0.53-5.26v-0.11c0-0.04,0.02-0.17,0.06-0.39v-1.77
				c0-1.81-1-2.67-3.01-2.6h-2.78c-1.86,0.07-3.23,0.11-4.12,0.11c-3.15,0-4.73-0.33-4.73-1c0-4.38,0.24-10.19,0.72-17.43
				c0.52-7.79,0.78-13.6,0.78-17.43h-2.51c-3.93,0-7.11,0.24-9.52,0.72L204.74,128.93z"/>
			<path class="st2" d="M289.19,81.33c-4.34-5.49-10.93-8.24-19.76-8.24c-4.31,0-8.67,1.56-13.08,4.68
				c-4.08,2.89-7.48,6.44-10.19,10.63c-3.04,4.71-4.57,9.33-4.57,13.86c0,8.31,2.62,14.85,7.85,19.6
				c5.05,4.57,11.78,6.85,20.21,6.85c7.13,0,13.16-2.62,18.09-7.85c4.86-5.12,7.29-11.28,7.29-18.48
				C295.04,93.28,293.09,86.27,289.19,81.33z M276.44,106.49c-2.04,2.78-4.71,4.18-8.02,4.18c-3.04,0-5.51-0.84-7.4-2.51
				c-1.89-1.67-2.84-4.01-2.84-7.01c0-3.15,1.19-6.2,3.56-9.13c2.52-3.08,5.33-4.62,8.41-4.62c2.89,0,5.16,1,6.79,3.01
				c1.52,1.86,2.28,4.25,2.28,7.18C279.23,101,278.3,103.97,276.44,106.49z"/>
			<path class="st2" d="M329.05,91.57c-3.27,0.11-6.01,0.52-8.24,1.22c-0.41,1.71-0.61,2.99-0.61,3.84c0,2.12,0.3,3.6,0.89,4.45
				c2.23,0.22,3.9,0.37,5.01,0.45v14.14c-3.97-1.19-6.49-2.43-7.57-3.73c-1.3-1.6-1.95-4.53-1.95-8.8c0-4.93,1.06-9.22,3.17-12.86
				c2.49-4.27,5.9-6.4,10.24-6.4c0.7,0,1.56,0.15,2.56,0.45l2.45,0.72c1.93-2.52,3.06-5.72,3.4-9.58c-3.34-1.56-5.66-2.34-6.96-2.34
				c-9.91,0-17.18,2.49-21.82,7.46c-4.45,4.83-6.68,12.23-6.68,22.21c0,7.46,2.37,13.64,7.13,18.54s10.84,7.35,18.26,7.35
				c1.45,0,3.41-0.33,5.9-1c3.04-0.82,4.56-1.69,4.56-2.62c0-13.43-0.41-24.72-1.22-33.85L329.05,91.57z"/>
			<path class="st2" d="M347.87,115.57c0,5.31,1.67,8.93,5.01,10.86c2.63,1.52,6.74,2.28,12.3,2.28c5.05,0,9.2-1.52,12.47-4.56
				c3.27-3.04,4.9-7.07,4.9-12.08c0-5.08-1.5-9.19-4.51-12.3c-1.52-1.56-4.32-3.45-8.41-5.68c-3.01-1.63-4.51-3.19-4.51-4.68
				c0-1,0.42-1.86,1.25-2.56c0.84-0.7,1.75-1.06,2.76-1.06c1.22,0,2.15,0.61,2.78,1.84l1.34,3.34c6.53-1.41,10.8-2.41,12.8-3.01
				v0.17l0.11-0.11c-0.04-0.04-0.07-0.06-0.11-0.06c0-4.19-1.55-7.71-4.65-10.55c-3.1-2.84-6.76-4.26-10.99-4.26
				c-5.83,0-10.51,1.49-14.06,4.48c-3.55,2.99-5.71,7.34-6.49,13.06c0.45,3.79,2.17,7.09,5.18,9.91c1.04,0.96,2.36,2,3.95,3.12
				c1.37,0.93,2.77,1.86,4.18,2.78c2.82,1.89,4.23,3.58,4.23,5.07c0,2.56-1.24,3.84-3.73,3.84h-0.56c-0.15,0-0.32-0.02-0.5-0.06
				c-0.78-1.04-1.34-2.1-1.67-3.17c-0.11-0.37-0.28-1.22-0.5-2.56h-6.9c-2,0-3.71-0.02-5.12-0.06
				C348.05,110.89,347.87,112.89,347.87,115.57z M384.89,78.99c0.11,0.07,0.19,0.13,0.22,0.17l-0.17-0.11L384.89,78.99z"/>
			<path class="st2" d="M395.58,76.26c0,4.45-0.32,12.12-0.95,22.99c-0.59,10.24-0.89,17.89-0.89,22.94c0,3.01,0.39,5.18,1.17,6.51
				c5.31-1.04,8.52-1.67,9.63-1.89l7.01-1.34c0-1.04-0.22-3.78-0.67-8.24c-0.3-2.97-0.45-5.23-0.45-6.79c0-0.56,0.02-1.06,0.06-1.5
				c5.38-2,9.02-3.36,10.91-4.06c9.54-3.64,14.31-9.13,14.31-16.48c0-5.05-2.15-8.96-6.46-11.75c-3.67-2.37-8.17-3.56-13.47-3.56
				C408.66,73.09,401.93,74.15,395.58,76.26z M409.77,91.79c-0.19-1.93-0.43-3.3-0.72-4.12c2.73-0.3,5-0.45,6.81-0.45
				c0.7,0,1.46,0.37,2.27,1.11c0.81,0.74,1.22,1.47,1.22,2.17c0,1.45-1.24,2.64-3.71,3.56c-3.21,1.22-5.06,1.91-5.53,2.06
				C410,94.69,409.89,93.24,409.77,91.79z M435.5,80.22c0.04,0,0.06,0.02,0.06,0.06L435.5,80.22z"/>
			<path class="st2" d="M489.38,81.33c-4.34-5.49-10.93-8.24-19.76-8.24c-4.31,0-8.67,1.56-13.08,4.68
				c-4.08,2.89-7.48,6.44-10.19,10.63c-3.04,4.71-4.56,9.33-4.56,13.86c0,8.31,2.62,14.85,7.85,19.6
				c5.05,4.57,11.78,6.85,20.21,6.85c7.13,0,13.16-2.62,18.09-7.85c4.86-5.12,7.29-11.28,7.29-18.48
				C495.23,93.28,493.28,86.27,489.38,81.33z M476.64,106.49c-2.04,2.78-4.71,4.18-8.02,4.18c-3.04,0-5.51-0.84-7.4-2.51
				c-1.89-1.67-2.84-4.01-2.84-7.01c0-3.15,1.19-6.2,3.56-9.13c2.52-3.08,5.33-4.62,8.41-4.62c2.89,0,5.16,1,6.79,3.01
				c1.52,1.86,2.28,4.25,2.28,7.18C479.42,101,478.49,103.97,476.64,106.49z"/>
			<path class="st2" d="M512.27,128.71c3.67-0.33,6.72-0.58,9.13-0.72c4.08-0.26,7.14-0.54,9.18-0.83
				c-0.67-5.94-1.13-12.17-1.39-18.71l-0.78-18.76c8.83,0.04,14.38-0.02,16.65-0.17c0.26-1.71,0.39-4.43,0.39-8.18
				c0-3.45-0.17-5.46-0.5-6.01c-0.78-0.04-1.76-0.09-2.95-0.17l-7.63-0.61c-5.16-0.41-8.7-0.61-10.63-0.61
				c-8.17,0-14.33,0.3-18.48,0.89c-0.85,5.49-1.56,9.85-2.11,13.08c5.23,0.71,9.17,1.24,11.8,1.61L512.27,128.71z"/>
		</g>
	</g>
</g>
</svg>
