<?xml version="1.0" encoding="utf-8"?>
<!-- Generator: Adobe Illustrator 25.2.0, SVG Export Plug-In . SVG Version: 6.00 Build 0)  -->
<svg version="1.1" id="Layer_1" xmlns="http://www.w3.org/2000/svg" xmlns:xlink="http://www.w3.org/1999/xlink" x="0px" y="0px"
	 viewBox="0 0 324.8 71.9" style="enable-background:new 0 0 324.8 71.9;" xml:space="preserve">
<style type="text/css">
	.st0{fill:#F8BB27;}
</style>
<g>
	<path class="st0" d="M171.4,22.2c0,0-0.1-0.1-0.1-0.1v0.2L171.4,22.2z"/>
	<path class="st0" d="M167,12.3c-2.9-2.6-6.3-4-10.2-4c-5.4,0-9.8,1.4-13,4.2c-3.3,2.8-5.3,6.8-6,12.1c0.4,3.5,2,6.6,4.8,9.2
		c1,0.9,2.2,1.9,3.7,2.9c1.3,0.9,2.6,1.7,3.9,2.6c2.6,1.8,3.9,3.3,3.9,4.7c0,2.4-1.2,3.6-3.5,3.6H150c-0.1,0-0.3,0-0.5-0.1
		c-0.7-1-1.2-1.9-1.5-2.9c-0.1-0.3-0.3-1.1-0.5-2.4h-6.4c-1.9,0-3.4,0-4.8-0.1c-0.3,1.2-0.5,3.1-0.5,5.6c0,4.9,1.5,8.3,4.6,10.1
		c2.4,1.4,6.2,2.1,11.4,2.1c4.7,0,8.5-1.4,11.6-4.2c3-2.8,4.5-6.6,4.5-11.2c0-4.7-1.4-8.5-4.2-11.4c-1.4-1.4-4-3.2-7.8-5.3
		c-2.8-1.5-4.2-3-4.2-4.3c0-0.9,0.4-1.7,1.2-2.4c0.8-0.7,1.6-1,2.6-1c1.1,0,2,0.6,2.6,1.7l1.2,3.1c6.1-1.3,10-2.2,11.9-2.8
		C171.3,18.2,169.8,15,167,12.3z"/>
	<path class="st0" d="M118.4,25.5c-3,0.1-5.6,0.5-7.6,1.1c-0.4,1.6-0.6,2.8-0.6,3.6c0,2,0.3,3.3,0.8,4.1c2.1,0.2,3.6,0.3,4.6,0.4
		v13.1c-3.7-1.1-6-2.3-7-3.5c-1.2-1.5-1.8-4.2-1.8-8.2c0-4.6,1-8.6,2.9-11.9c2.3-4,5.5-5.9,9.5-5.9c0.7,0,1.4,0.1,2.4,0.4l2.3,0.7
		c1.8-2.3,2.8-5.3,3.1-8.9c-3.1-1.4-5.2-2.2-6.5-2.2c-9.2,0-15.9,2.3-20.2,6.9c-4.1,4.5-6.2,11.3-6.2,20.6c0,6.9,2.2,12.7,6.6,17.2
		c4.4,4.5,10.1,6.8,16.9,6.8c1.3,0,3.2-0.3,5.5-0.9c2.8-0.8,4.2-1.6,4.2-2.4c0-12.5-0.4-22.9-1.1-31.4L118.4,25.5z"/>
	<path class="st0" d="M63.1,8.3c-4,0-8,1.4-12.1,4.3c-3.8,2.7-6.9,6-9.4,9.9c-2.8,4.4-4.2,8.7-4.2,12.9c0,7.7,2.4,13.8,7.3,18.2
		c4.7,4.2,10.9,6.4,18.7,6.4c6.6,0,12.2-2.4,16.8-7.3c4.5-4.8,6.8-10.5,6.8-17.1c0-8.4-1.8-14.9-5.4-19.5
		C77.4,10.9,71.3,8.3,63.1,8.3z M69.6,39.3c-1.9,2.6-4.4,3.9-7.4,3.9c-2.8,0-5.1-0.8-6.9-2.3c-1.8-1.5-2.6-3.7-2.6-6.5
		c0-2.9,1.1-5.7,3.3-8.5c2.3-2.9,4.9-4.3,7.8-4.3c2.7,0,4.8,0.9,6.3,2.8c1.4,1.7,2.1,3.9,2.1,6.7C72.2,34.2,71.3,37,69.6,39.3z"/>
	<path class="st0" d="M248.8,8.3c-4,0-8,1.4-12.1,4.3c-3.8,2.7-6.9,6-9.4,9.9c-2.8,4.4-4.2,8.7-4.2,12.9c0,7.7,2.4,13.8,7.3,18.2
		c4.7,4.2,10.9,6.4,18.7,6.4c6.6,0,12.2-2.4,16.8-7.3c4.5-4.8,6.8-10.5,6.8-17.1c0-8.4-1.8-14.9-5.4-19.5
		C263.1,10.9,257,8.3,248.8,8.3z M255.3,39.3c-1.9,2.6-4.4,3.9-7.4,3.9c-2.8,0-5.1-0.8-6.9-2.3c-1.8-1.5-2.6-3.7-2.6-6.5
		c0-2.9,1.1-5.7,3.3-8.5c2.3-2.9,4.9-4.3,7.8-4.3c2.7,0,4.8,0.9,6.3,2.8c1.4,1.7,2.1,3.9,2.1,6.7C257.9,34.2,257,37,255.3,39.3z"/>
	<path class="st0" d="M315.9,10.2l-7.1-0.6c-4.8-0.4-8.1-0.6-9.9-0.6c-7.6,0-13.3,0.3-17.1,0.8c-0.8,5.1-1.4,9.1-2,12.1
		c4.9,0.7,8.5,1.2,10.9,1.5l-2.5,36.4c3.4-0.3,6.2-0.5,8.5-0.7c3.8-0.2,6.6-0.5,8.5-0.8c-0.6-5.5-1.1-11.3-1.3-17.4l-0.7-17.4
		c8.2,0,13.3,0,15.4-0.2c0.2-1.6,0.4-4.1,0.4-7.6c0-3.2-0.2-5.1-0.5-5.6C317.9,10.4,317,10.3,315.9,10.2z"/>
	<path class="st0" d="M29.7,47.2v-0.1c0,0,0-0.2,0.1-0.4v-1.6c0-1.7-0.9-2.5-2.8-2.4h-2.6c-1.7,0.1-3,0.1-3.8,0.1
		c-2.9,0-4.4-0.3-4.4-0.9c0-4.1,0.2-9.4,0.7-16.2c0.5-7.2,0.7-12.6,0.7-16.2h-2.3c-3.6,0-6.6,0.2-8.8,0.7L3.1,60.1
		c6.2-0.5,10.1-0.7,11.7-0.6l2.7,0.1c1.8,0.1,3.2,0.1,4.1,0.1c6.1,0,9.1-0.9,9.1-2.8c0-1.1-0.2-2.7-0.5-4.9
		C29.8,49.9,29.7,48.3,29.7,47.2z"/>
	<path class="st0" d="M211.3,11.6c-3.4-2.2-7.6-3.3-12.5-3.3c-6.6,0-12.9,1-18.7,2.9c0,4.1-0.3,11.2-0.9,21.3
		c-0.6,9.5-0.8,16.6-0.8,21.3c0,2.8,0.4,4.8,1.1,6c4.9-1,7.9-1.5,8.9-1.8l6.5-1.2c0-1-0.2-3.5-0.6-7.6c-0.3-2.8-0.4-4.9-0.4-6.3
		c0-0.5,0-1,0.1-1.4c5-1.9,8.4-3.1,10.1-3.8c8.8-3.4,13.3-8.5,13.3-15.3C217.3,17.9,215.3,14.2,211.3,11.6z M198.7,27.8
		c-3,1.1-4.7,1.8-5.1,1.9c-0.1-1.3-0.2-2.7-0.3-4c-0.2-1.8-0.4-3.1-0.7-3.8c2.5-0.3,4.6-0.4,6.3-0.4c0.7,0,1.4,0.3,2.1,1
		c0.8,0.7,1.1,1.4,1.1,2C202.1,25.8,201,26.9,198.7,27.8z"/>
	<path d="M33.7,49.8v-0.4c0-0.2,0-0.4,0.1-0.7v-1.1c0-1.2-0.3-2.1-0.9-2.7l-1.9-1.9c-0.7-1.3-2-2-4-1.9l-2.6,0.1
		c-0.1,0-0.1,0-0.2,0.1h-1.4c-0.4,0-0.6,0.1-0.8,0.1h-1.8c0.1-3,0.4-7.3,0.7-12.9l0.3-5.3c0.1-0.9,0.2-2.5,0.3-4.9l0.1-4.2
		c0-1.4,0.1-2.5,0.1-3.3l-2.4-2.4V8h-3.9c-3.9,0-7,0.2-9.1,0.7L4.9,9.1L1.4,61.8h0.2c0.1,0,0.1-0.1,0.2-0.1l2.4,2.5
		c0.8,0,2.1-0.1,4.1-0.3l3.8-0.3c2.5-0.2,4.2-0.2,5.3-0.2l6.9,0.2c7,0,10.5-1.4,10.5-4.2c0-1.1-0.2-2.7-0.5-4.9
		C33.8,52.5,33.7,50.9,33.7,49.8z M21.6,59.7c-1,0-2.3,0-4.1-0.1l-2.7-0.1c-1.6-0.1-5.5,0.1-11.7,0.6l3.3-49.9
		c2.2-0.4,5.2-0.7,8.8-0.7h2.3c0,3.5-0.2,8.9-0.7,16.2c-0.4,6.7-0.7,12.1-0.7,16.2c0,0.6,1.5,0.9,4.4,0.9c0.8,0,2.1,0,3.8-0.1h2.6
		c1.9-0.1,2.8,0.7,2.8,2.4v1.6c0,0.2-0.1,0.3-0.1,0.4v0.1c0,1.1,0.2,2.7,0.5,4.9c0.3,2.2,0.5,3.8,0.5,4.9
		C30.7,58.8,27.6,59.7,21.6,59.7z"/>
	<path d="M82.6,14.9c-4.3-5.4-10.8-8.2-19.5-8.2c-4.3,0-8.7,1.6-13.1,4.7c-4,2.8-7.3,6.3-9.9,10.4c-2.9,4.5-4.3,9.1-4.3,13.5
		c0,8.2,2.6,14.6,7.8,19.2c0.4,0.3,0.7,0.6,1,0.9l0.7,0.7c5.2,5.2,12,7.7,20.6,7.7c7,0,13-2.6,17.8-7.7c4.8-5,7.1-11,7.1-18.1
		c0-9.9-2.4-17.4-7.3-22.3L82.6,14.9z M80.1,52.6c-4.6,4.9-10.2,7.3-16.8,7.3c-7.8,0-14.1-2.1-18.7-6.4c-4.9-4.4-7.3-10.5-7.3-18.2
		c0-4.2,1.4-8.5,4.2-12.9c2.5-3.9,5.7-7.2,9.4-9.9c4.1-2.9,8.1-4.3,12.1-4.3c8.2,0,14.3,2.5,18.3,7.6c3.6,4.6,5.4,11.1,5.4,19.5
		C86.8,42.2,84.6,47.9,80.1,52.6z"/>
	<path d="M63.8,21.6c-2.9,0-5.5,1.4-7.8,4.3c-2.2,2.7-3.3,5.5-3.3,8.5c0,2.8,0.9,5,2.6,6.5c1.8,1.5,4,2.3,6.9,2.3
		c3.1,0,5.5-1.3,7.4-3.9c1.7-2.3,2.6-5.1,2.6-8.3c0-2.7-0.7-4.9-2.1-6.7C68.5,22.5,66.4,21.6,63.8,21.6z M68.5,38.2
		c-1.6,2.3-3.7,3.4-6.4,3.4c-1.8,0-3.4-0.4-4.9-1.3c-0.4-0.9-0.7-2.1-0.7-3.4c0-2.5,1-5,3-7.6c2-2.5,4.2-3.8,6.7-3.8
		c1.1,0,2.2,0.2,3.1,0.7c0.8,1.3,1.1,2.9,1.1,4.8C70.6,33.8,69.9,36.2,68.5,38.2z"/>
	<path d="M127.8,25.3V25l-1.5-1.4l-8,0.3c-0.5,0-1.1,0.1-1.8,0.2c1.5-1.2,3.3-1.8,5.3-1.8c0.4,0,1,0.1,1.9,0.4
		c1.7,0.5,2.9,0.7,3.4,0.7c2.3-3,3.6-6.7,4-11.1l-2.5-2.4c0-0.1,0-0.1,0.1-0.2V9.6c-4-1.9-6.7-2.8-8.1-2.8c-9.6,0-16.7,2.5-21.3,7.4
		c-4.4,4.8-6.7,12-6.7,21.7c0,7.4,2.7,13.8,8.2,19.2c0.3,0.3,0.7,0.6,1,0.9l0.9,0.9c4.7,4.7,10.6,7,17.6,7c1.5,0,3.5-0.3,5.8-1
		c3.5-1,5.3-2.2,5.3-3.8c0-12.5-0.4-23-1.1-31.5L127.8,25.3z M123.2,59c-2.3,0.6-4.1,0.9-5.5,0.9c-6.9,0-12.5-2.3-16.9-6.8
		c-4.4-4.5-6.6-10.3-6.6-17.2c0-9.3,2.1-16.1,6.2-20.6c4.3-4.6,11.1-6.9,20.2-6.9c1.2,0,3.4,0.7,6.5,2.2c-0.3,3.6-1.4,6.5-3.1,8.9
		l-2.3-0.7c-0.9-0.3-1.7-0.4-2.4-0.4c-4,0-7.2,2-9.5,5.9c-2,3.4-2.9,7.4-2.9,11.9c0,4,0.6,6.7,1.8,8.2c1,1.2,3.3,2.4,7,3.5V34.7
		c-1-0.1-2.6-0.2-4.6-0.4c-0.6-0.8-0.8-2.2-0.8-4.1c0-0.8,0.2-2,0.6-3.6c2.1-0.7,4.6-1,7.6-1.1l7.9-0.3c0.8,8.5,1.1,18.9,1.1,31.4
		C127.4,57.4,126,58.2,123.2,59z M110.8,38.8v-1.2c0-0.4,0-0.8,0.1-1.2l1.9,1.9c0.3,0,0.7,0.1,1.3,0.2v7.3c-0.7-0.2-1.5-0.6-2.6-1.1
		C111,43.3,110.8,41.4,110.8,38.8z"/>
	<path d="M170.4,14c0,0-0.1-0.1-0.2-0.1l0.1,0.1L170.4,14z"/>
	<path d="M175.7,25.4c-0.1-2-0.5-4-1.4-6c-0.9-2-2-3.7-3.4-5l-0.6-0.5l0,0l-0.1-0.1c0,0,0,0,0,0l-0.1-0.1c-3.3-4.6-7.7-6.9-13.3-6.9
		c-5.9,0-10.6,1.5-14.1,4.5c-3.5,3-5.7,7.4-6.5,13.2c0.5,4.3,2.4,7.8,5.6,10.7c0.1,0.1,0.2,0.2,0.5,0.5l1.3,1.2
		c0,0.1,0.1,0.2,0.3,0.3l0.2,0.2c0.4,0.4,1.8,1.4,4.2,3.2h-6.8h-1.1c-1.2,0-1.7-0.1-1.5-0.1h-2.6l-1.5,1.1c-0.4,1.3-0.6,3.3-0.6,6
		c0,5.2,1.5,8.8,4.6,10.9l1.3,1.3c2.6,2.6,7.3,3.9,14.2,3.9c5,0,9.2-1.6,12.5-4.7l-0.1-0.1c3.4-3.1,5.1-7.1,5.1-12.1
		c0-5.1-1.5-9.2-4.6-12.4l-0.2-0.2h0.1l-1-1c-0.1-0.1-0.5-0.6-1.3-1.5c-1.1-1-2.3-2-3.7-2.9c1.9-0.3,5.2-1,9.9-2.2L175.7,25.4z
		 M159.4,24.9l-1.2-3.1c-0.6-1.1-1.4-1.7-2.6-1.7c-0.9,0-1.8,0.3-2.6,1c-0.8,0.7-1.2,1.4-1.2,2.4c0,1.4,1.4,2.8,4.2,4.3
		c3.8,2.1,6.4,3.8,7.8,5.3c2.8,2.9,4.2,6.7,4.2,11.4c0,4.6-1.5,8.4-4.5,11.2c-3,2.8-6.9,4.2-11.6,4.2c-5.2,0-9-0.7-11.4-2.1
		c-3.1-1.8-4.6-5.1-4.6-10.1c0-2.5,0.2-4.3,0.5-5.6c1.3,0,2.9,0.1,4.8,0.1h6.4c0.2,1.2,0.4,2,0.5,2.4c0.3,1,0.8,2,1.5,2.9
		c0.2,0,0.3,0.1,0.5,0.1h0.5c2.3,0,3.5-1.2,3.5-3.6c0-1.4-1.3-2.9-3.9-4.7c-1.3-0.9-2.6-1.7-3.9-2.6c-1.5-1-2.7-2-3.7-2.9
		c-2.8-2.6-4.4-5.7-4.8-9.2c0.7-5.3,2.7-9.3,6-12.1c3.3-2.8,7.6-4.2,13-4.2c3.9,0,7.3,1.3,10.2,4c2.9,2.6,4.3,5.9,4.3,9.8
		c0,0,0.1,0,0.1,0.1l-0.1,0.1v-0.2C169.4,22.7,165.4,23.6,159.4,24.9z M160.8,28.8c-1.2-0.8-2.5-1.5-4-2.4c-0.4-0.1-0.7-0.3-0.9-0.5
		c0.1-0.9,0.6-1.5,1.6-1.7l1,2.5c0.1,0,0.2,0,0.3-0.1L160.8,28.8z M148.9,41.1c1,0.7,1.9,1.4,2.9,2c0.1,0.1,0.2,0.2,0.4,0.3
		c0.1,0.3,0.2,0.5,0.2,0.7c0,0.9-0.3,1.4-0.8,1.8c0-0.2-0.1-0.5-0.2-1l-0.2-1.3L148.9,41.1z"/>
	<path d="M170.2,13.9L170.2,13.9L170.2,13.9C170.2,13.8,170.2,13.8,170.2,13.9L170.2,13.9z"/>
	<path d="M198.9,21.5c-1.7,0-3.8,0.1-6.3,0.4c0.3,0.8,0.5,2,0.7,3.8c0.1,1.3,0.2,2.7,0.3,4c0.4-0.1,2.2-0.8,5.1-1.9
		c2.3-0.9,3.4-2,3.4-3.3c0-0.7-0.4-1.3-1.1-2C200.3,21.8,199.6,21.5,198.9,21.5z M197,26.8v-0.5c0-0.2,0-0.4-0.1-0.6
		c0.7,0,1.7-0.1,3-0.2C199.7,25.7,198.8,26.1,197,26.8z"/>
	<path d="M217.2,15l-0.8-0.7c-3.5-5-9.4-7.5-17.6-7.5c-7,0-13.7,1.1-20.3,3.4c0,2.2-0.1,5.3-0.3,9.4l-0.3,6.1
		c-0.1,1.2-0.2,3.5-0.4,6.8c-0.6,9.6-0.8,16.8-0.8,21.4c0,3.2,0.6,5.8,1.8,7.8c0.1,0,0.2-0.1,0.3-0.1l2.4,2.4c0.1,0,1.8-0.3,5.1-1
		l12.4-2.4c0-1.9-0.2-4.9-0.6-9c-0.3-2.7-0.4-4.8-0.4-6.2v-0.4c1.8-0.7,4.2-1.6,7.1-2.7c0.4-0.1,1.1-0.3,2.1-0.7
		c4.1-1.5,7.4-3.6,9.9-6.1c2.9-3,4.3-6.5,4.3-10.5c0-4-1.3-7.3-3.9-10L217.2,15z M204.1,37.8c-1.8,0.7-5.1,1.9-10.1,3.8
		c0,0.4-0.1,0.9-0.1,1.4c0,1.4,0.1,3.5,0.4,6.3c0.4,4.1,0.6,6.7,0.6,7.6l-6.5,1.2c-1,0.2-4,0.8-8.9,1.8c-0.7-1.2-1.1-3.3-1.1-6
		c0-4.7,0.3-11.8,0.8-21.3c0.6-10.1,0.9-17.2,0.9-21.3c5.9-2,12.1-2.9,18.7-2.9c4.9,0,9.1,1.1,12.5,3.3c4,2.6,6,6.2,6,10.9
		C217.3,29.4,212.9,34.5,204.1,37.8z"/>
	<path d="M268.3,14.9c-4.3-5.4-10.8-8.2-19.5-8.2c-4.3,0-8.7,1.6-13.1,4.7c-4,2.8-7.3,6.3-9.9,10.4c-2.9,4.5-4.3,9.1-4.3,13.5
		c0,8.2,2.6,14.6,7.8,19.2c0.4,0.3,0.7,0.6,1,0.9l0.7,0.7c5.2,5.2,12,7.7,20.6,7.7c7,0,13-2.6,17.8-7.7c4.8-5,7.1-11,7.1-18.1
		c0-9.9-2.4-17.4-7.3-22.3L268.3,14.9z M265.8,52.6c-4.6,4.9-10.2,7.3-16.8,7.3c-7.8,0-14.1-2.1-18.7-6.4
		c-4.9-4.4-7.3-10.5-7.3-18.2c0-4.2,1.4-8.5,4.2-12.9c2.5-3.9,5.7-7.2,9.4-9.9c4.1-2.9,8.1-4.3,12.1-4.3c8.2,0,14.3,2.5,18.3,7.6
		c3.6,4.6,5.4,11.1,5.4,19.5C272.5,42.2,270.3,47.9,265.8,52.6z"/>
	<path d="M249.4,21.6c-2.9,0-5.5,1.4-7.8,4.3c-2.2,2.7-3.3,5.5-3.3,8.5c0,2.8,0.9,5,2.6,6.5c1.8,1.5,4,2.3,6.9,2.3
		c3.1,0,5.5-1.3,7.4-3.9c1.7-2.3,2.6-5.1,2.6-8.3c0-2.7-0.7-4.9-2.1-6.7C254.2,22.5,252.1,21.6,249.4,21.6z M254.2,38.2
		c-1.6,2.3-3.7,3.4-6.4,3.4c-1.8,0-3.4-0.4-4.9-1.3c-0.4-0.9-0.7-2.1-0.7-3.4c0-2.5,1-5,3-7.6c2-2.5,4.2-3.8,6.7-3.8
		c1.1,0,2.2,0.2,3.1,0.7c0.8,1.3,1.1,2.9,1.1,4.8C256.3,33.8,255.6,36.2,254.2,38.2z"/>
	<path d="M319.8,9.4c0-0.2-0.1-0.4-0.3-0.6c-2.1-0.1-5.5-0.3-10.3-0.7c-4.4-0.4-7.8-0.6-10.3-0.6c-8.1,0-14.2,0.3-18.5,1
		c-0.3,1.8-0.5,3.1-0.7,4.2l-1.3,8c0,0.1-0.1,1-0.4,2.7c0.1,0,0.3,0,0.5,0.1l2.3,2.3l4.4,0.6c0.2,0,1.5,0.2,3.8,0.6l-2.3,34.7h0.1
		c0.1,0,0.1-0.1,0.2-0.1l2.5,2.5l3.9-0.4c2.5-0.2,6.4-0.6,11.7-1c1.7-0.1,3.1-0.3,4.4-0.5c0,0-0.1-1.4-0.4-4l-0.4-4.6
		c-0.3-3.5-0.5-6.8-0.7-10l-0.7-16h4.1c0.5,0,1.7,0,3.6-0.1l5.8-0.1c0.3,0,0.9,0,1.7-0.1c0.3-2.6,0.5-5.6,0.5-8.9
		c0-3.4-0.4-5.8-1.1-7L319.8,9.4z M318.7,23.6c-2.1,0.1-7.2,0.2-15.4,0.2l0.7,17.4c0.2,6.1,0.7,11.8,1.3,17.4
		c-1.9,0.3-4.7,0.5-8.5,0.8c-2.2,0.1-5.1,0.4-8.5,0.7l2.5-36.4c-2.4-0.3-6.1-0.8-10.9-1.5c0.5-3,1.2-7,2-12.1
		c3.9-0.6,9.6-0.8,17.1-0.8c1.8,0,5.1,0.2,9.9,0.6l7.1,0.6c1.1,0.1,2,0.1,2.7,0.2c0.3,0.5,0.5,2.4,0.5,5.6
		C319.1,19.5,319,22,318.7,23.6z"/>
</g>
</svg>
