<?xml version="1.0" standalone="no"?>
<!DOCTYPE svg PUBLIC "-//W3C//DTD SVG 20010904//EN"
 "http://www.w3.org/TR/2001/REC-SVG-20010904/DTD/svg10.dtd">
<svg version="1.0" xmlns="http://www.w3.org/2000/svg"
 width="920.000000pt" height="920.000000pt" viewBox="0 0 920.000000 920.000000"
 preserveAspectRatio="xMidYMid meet">

<g transform="translate(0.000000,920.000000) scale(0.100000,-0.100000)"
fill="#000000" stroke="none">
<path d="M6440 8566 c-789 -143 -1461 -523 -2002 -1133 l-102 -115 -13 51
c-28 112 -122 239 -217 295 -152 89 -364 88 -506 -2 -323 -206 -298 -686 44
-848 l76 -36 -40 -47 c-22 -25 -87 -107 -143 -181 -441 -581 -716 -1302 -804
-2110 -24 -225 -24 -710 0 -930 50 -452 167 -918 292 -1167 146 -293 330 -427
539 -393 279 44 395 201 396 534 0 250 -78 598 -221 983 -27 72 -49 135 -49
140 1 17 86 -139 166 -302 215 -442 299 -854 229 -1120 -55 -208 -204 -352
-425 -411 -92 -25 -246 -23 -326 3 l-62 20 60 -99 c224 -371 550 -730 893
-983 166 -123 313 -160 470 -120 98 26 170 71 243 154 212 238 329 329 510
397 144 54 232 67 406 61 184 -6 265 -25 421 -102 134 -65 254 -158 332 -257
126 -159 208 -219 345 -254 79 -21 189 -14 273 15 177 62 565 403 813 714 94
118 236 323 296 428 l26 46 -57 -20 c-76 -26 -231 -28 -323 -4 -331 88 -480
331 -449 731 21 267 141 619 325 956 78 143 102 176 73 100 -174 -450 -272
-887 -255 -1140 16 -244 97 -374 272 -440 267 -100 487 16 655 345 128 251
239 679 296 1145 25 208 25 802 0 1010 -65 534 -191 977 -401 1415 -145 301
-326 583 -518 807 -32 37 -58 71 -58 76 0 6 12 13 28 17 40 10 110 53 160 99
277 256 168 712 -197 820 -110 32 -251 17 -365 -41 -103 -52 -206 -186 -237
-307 -6 -25 -12 -46 -14 -46 -1 0 -40 23 -86 51 -122 74 -377 198 -502 243
l-108 40 68 69 c152 153 430 306 760 417 l116 39 -39 10 c-74 19 -250 50 -389
67 -177 23 -604 24 -768 2 l-108 -14 73 74 c66 66 187 172 278 244 l35 27 -30
0 c-16 -1 -86 -11 -155 -23z m-2479 -1114 c142 -74 162 -269 39 -375 -164
-140 -415 10 -369 222 32 150 193 224 330 153z m3915 9 c49 -22 111 -92 124
-140 15 -55 12 -112 -11 -161 -42 -92 -107 -134 -210 -135 -56 0 -73 4 -115
30 -156 97 -146 323 18 404 54 27 138 28 194 2z m-2967 -626 c95 -25 162 -65
236 -139 113 -114 162 -241 152 -391 -7 -97 -26 -162 -69 -235 -27 -45 -51
-67 -143 -128 -147 -98 -203 -124 -284 -129 -239 -17 -481 168 -530 405 -16
79 -13 179 8 254 46 168 196 318 362 362 70 19 200 20 268 1z m2076 0 c172
-45 313 -177 366 -345 24 -76 29 -219 10 -290 -32 -115 -107 -222 -204 -291
-94 -66 -178 -93 -292 -94 -109 0 -145 15 -319 129 l-115 77 -41 82 c-145 296
13 646 331 731 72 19 191 20 264 1z m-906 -921 c143 -25 231 -60 354 -141 209
-140 295 -170 593 -208 270 -36 346 -58 406 -122 44 -46 58 -93 58 -191 0
-241 -125 -460 -349 -611 -182 -123 -437 -180 -659 -147 -192 29 -318 84 -485
210 -121 92 -165 111 -214 95 -20 -6 -73 -40 -120 -76 -116 -88 -184 -130
-262 -163 -266 -109 -582 -96 -829 36 -169 89 -279 200 -358 359 -54 110 -78
219 -72 325 6 92 32 148 90 190 65 48 118 60 448 104 227 31 329 68 503 186
60 40 139 85 175 101 173 72 478 94 721 53z m-361 -1661 c-3 -296 -4 -310 -25
-350 -26 -48 -70 -82 -116 -90 -18 -3 -98 3 -177 12 -168 19 -214 38 -259 110
-28 44 -71 186 -95 316 l-14 69 38 0 c163 0 435 93 580 198 30 22 59 41 63 41
4 1 7 -137 5 -306z m407 182 c131 -63 330 -115 443 -115 19 0 32 -5 32 -12 0
-25 -50 -234 -70 -294 -23 -69 -74 -134 -122 -157 -41 -19 -308 -51 -354 -42
-43 8 -89 47 -114 96 -19 35 -20 60 -20 343 l0 306 68 -46 c37 -25 99 -60 137
-79z m-95 -1270 c100 -26 275 -115 366 -188 137 -109 255 -261 334 -430 125
-266 144 -602 42 -711 -68 -72 -160 -74 -480 -12 -426 84 -534 83 -973 -5
-363 -72 -467 -47 -510 124 -19 80 -6 302 26 417 53 192 170 391 313 533 152
151 307 238 502 282 83 19 289 13 380 -10z"/>
<path d="M4752 6572 c30 -18 58 -67 58 -102 0 -29 -26 -76 -52 -94 -12 -9 -42
-16 -66 -16 -37 0 -50 6 -78 34 -25 25 -34 43 -34 66 0 27 -2 30 -14 21 -22
-19 -46 -99 -46 -155 0 -29 9 -70 21 -96 91 -201 354 -213 467 -21 23 39 27
57 27 121 -1 90 -22 138 -89 197 -51 45 -101 63 -172 63 l-49 -1 27 -17z"/>
<path d="M6819 6577 c107 -55 69 -217 -51 -217 -54 0 -95 32 -111 86 l-13 47
-24 -49 c-51 -108 -17 -247 77 -319 113 -86 283 -64 364 48 129 177 10 417
-206 417 -54 0 -58 -2 -36 -13z"/>
<path d="M5680 5793 c-176 -19 -323 -70 -385 -133 -36 -36 -39 -46 -43 -103
-14 -226 169 -471 405 -540 140 -42 277 -28 418 42 156 77 266 227 302 410 25
127 1 183 -104 239 -133 71 -387 107 -593 85z"/>
<path d="M1146 6959 c-218 -53 -458 -226 -596 -429 -215 -317 -324 -835 -280
-1330 26 -280 100 -622 200 -914 366 -1070 1128 -1918 2091 -2329 157 -67 520
-180 534 -166 2 2 -50 112 -114 244 -119 242 -135 283 -212 545 -231 793 -269
1566 -115 2333 l34 167 -53 263 c-70 350 -136 574 -252 857 -83 201 -145 296
-282 430 -180 175 -383 291 -594 335 -97 21 -264 18 -361 -6z"/>
</g>
</svg>
