<?xml version="1.0" encoding="utf-8"?>
<!-- Generator: Adobe Illustrator 25.2.0, SVG Export Plug-In . SVG Version: 6.00 Build 0)  -->
<svg version="1.1" id="Layer_1" xmlns="http://www.w3.org/2000/svg" xmlns:xlink="http://www.w3.org/1999/xlink" x="0px" y="0px"
	 viewBox="0 0 77.2 77.2" style="enable-background:new 0 0 77.2 77.2;" xml:space="preserve">
<g>
	<path d="M39.3,36.2c-0.2,0-0.5,0-0.7,0c-0.2,0-0.5,0-0.7,0c-3,0.2-5.8,1-5.8,2.7c0,0,0,0,0,0.1c0,0,0,0,0,0c0,1.2,0.4,2.4,1,3.4
		c1.1,1.8,3.2,3.1,5.5,3.1c2.3,0,4.3-1.2,5.5-3.1c0.6-1,1-2.1,1-3.4c0,0,0,0,0,0c0,0,0,0,0-0.1C45.1,37.2,42.3,36.3,39.3,36.2z"/>
	<path d="M37.4,48.1c-0.1,0.1-0.3,0.2-0.3,0.2C37.2,48.2,37.3,48.1,37.4,48.1z"/>
	<path d="M36.9,48.4c0,0,0,0,0.1-0.1c0,0,0,0,0,0L36.9,48.4z"/>
	<path d="M38.7,0.1C17.4,0.1,0.1,17.4,0.1,38.7c0,21.3,17.3,38.6,38.6,38.6C60,77.3,77.3,60,77.3,38.7C77.3,17.4,60,0.1,38.7,0.1z
		 M16.5,22.5c-1.4,0-2.6-1.2-2.6-2.6c0-1.4,1.2-2.6,2.6-2.6c1.4,0,2.6,1.2,2.6,2.6C19.1,21.3,17.9,22.5,16.5,22.5z M38.8,75.4
		c-3.7,0-7.2-0.6-10.6-1.6c1.8-4.3,5.8-7.9,10.6-7.9c4.7,0,8.8,3.5,10.6,7.9C46,74.8,42.4,75.4,38.8,75.4z M29.9,53.1
		c2.2-0.1,4.2-0.6,6.1-1.8c0.5-0.3,1.1-0.7,1.6-1.1v5.4c0,1.3-0.9,2.3-2,2.3h-3c-0.8,0-1.5-0.6-1.8-1.4
		C30.4,55.5,30.1,54.3,29.9,53.1z M39.9,55.7v-5.4c0.5,0.4,1.1,0.8,1.7,1.2c1.8,1.1,3.9,1.6,6,1.7c-0.2,1.2-0.5,2.3-0.9,3.4
		c-0.3,0.9-1,1.4-1.8,1.4h-3C40.8,58,39.9,56.9,39.9,55.7z M48.3,51.2c-0.2,0-0.3,0-0.5,0c-2.2-0.1-5.5-2-6.8-2.8l-0.1-0.1
		c-0.3-0.1-0.4-0.3-0.5-0.3c-0.4-0.2-0.8-0.5-1.2-0.5c-0.4,0-0.8,0.3-1.2,0.5c-0.1,0-0.2,0.1-0.5,0.3l-0.1,0.1
		c-0.3,0.2-0.6,0.4-1,0.7c0.2-0.2,0.4-0.4,0.6-0.6c-1.1,0.7-3.5,2.1-5.6,2.6c-0.3,0.1-0.5,0.1-0.8,0.1c-0.2,0-0.3,0-0.5,0
		c-5.5,0-10-3.9-10-8.8c0-4.7,6.6-2.1,11.1-5.1c0.1,0,2.3-1.6,2.8-1.8c1-0.4,2.4-0.6,3.8-0.7c0.3,0,0.7,0,1.1,0c0.4,0,0.7,0,1.1,0
		c1.4,0.1,2.7,0.3,3.8,0.7c0.5,0.2,2.7,1.8,2.8,1.8c4.5,3,11.1,0.3,11.7,5.1C58.3,47.2,53.8,51.2,48.3,51.2z M21,30.3
		c0-3.3,2.7-5.9,5.9-5.9c3.3,0,5.9,2.7,5.9,5.9c0,1.4-0.6,2.7-1.4,3.7c-0.6,0.3-1.2,0.7-1.8,1.1c-0.5,0.4-1.1,0.7-1.7,0.9
		c-0.3,0.1-0.7,0.1-1,0.1C23.7,36.1,21,33.5,21,30.3z M44.5,30.2c0-3.3,2.7-5.9,5.9-5.9c3.3,0,5.9,2.7,5.9,5.9
		c0,3.3-2.7,5.9-5.9,5.9c-0.3,0-0.7,0-1-0.1c-0.6-0.2-1.2-0.5-1.7-0.9c-0.7-0.4-1.2-0.8-1.8-1.2C45,32.9,44.5,31.6,44.5,30.2z
		 M58.4,19.9c0-1.4,1.2-2.6,2.6-2.6c1.4,0,2.6,1.2,2.6,2.6c0,1.4-1.2,2.6-2.6,2.6C59.6,22.5,58.4,21.3,58.4,19.9z M62.5,25.3
		c0.9-0.3,1.7-0.7,2.4-1.4c2.2-2.1,2.2-5.6,0-7.8c-1.1-1.1-2.5-1.6-3.9-1.6c-1.4,0-2.8,0.5-3.9,1.6c-0.9,0.9-1.4,2-1.6,3.1
		c-2.5-1.6-5.1-2.9-7.9-3.8c0.2-0.3,0.4-0.5,0.6-0.7c0.2-0.2,0.5-0.4,0.7-0.6c3.5-3,9.5-4.6,9.5-4.6c-5.5-1.3-10.5-1.4-14.9-0.7
		c2.2-2.4,4.5-4,4.5-4c-10.2,1.3-17.5,5.9-22.4,10.6c-0.6,0.6-1.2,1.2-1.8,1.8c-0.6,0.6-1.1,1.2-1.6,1.8c-0.1,0.1-0.2,0.2-0.2,0.2
		c-0.2-1.1-0.7-2.2-1.6-3.1c-1.1-1.1-2.5-1.6-3.9-1.6c-1.4,0-2.8,0.5-3.9,1.6c-2.2,2.1-2.2,5.6,0,7.8c0.7,0.7,1.5,1.2,2.4,1.4
		C9.7,31.2,5.9,39.1,4.2,48.1c-0.1,0.7-0.2,1.5-0.3,2.3C2.7,46.8,2,42.9,2,38.8C2,18.5,18.4,2.1,38.7,2.1
		c20.3,0,36.7,16.4,36.7,36.7c0,4-0.7,7.9-1.9,11.6C72.3,40.5,68.3,31.7,62.5,25.3z"/>
	<path d="M29.9,30.3c0-1.6-1.3-2.9-2.9-2.9c-0.3,0-0.5,0.1-0.7,0.1c0.6,0.1,1,0.6,1,1.2c0,0.7-0.6,1.3-1.3,1.3s-1.3-0.6-1.3-1.3
		c0-0.1,0-0.2,0-0.3c0-0.1,0-0.1,0-0.1c-0.4,0.5-0.7,1.2-0.7,1.9c0,1.7,1.3,3,3,3C28.6,33.2,29.9,31.9,29.9,30.3z"/>
	<path d="M50.5,33c1.6,0,2.9-1.3,2.9-2.9c0-1.6-1.3-2.9-2.9-2.9c-0.3,0-0.5,0.1-0.7,0.1c0.6,0.2,1,0.7,1,1.3c0,0.7-0.6,1.3-1.3,1.3
		s-1.3-0.6-1.3-1.3c0-0.1,0-0.2,0-0.3c-0.5,0.6-0.7,1.2-0.6,1.8C47.6,31.7,48.9,33,50.5,33z"/>
</g>
</svg>
