<?xml version="1.0" encoding="utf-8"?>
<!-- Generator: Adobe Illustrator 25.2.0, SVG Export Plug-In . SVG Version: 6.00 Build 0)  -->
<svg version="1.1" id="Layer_1" xmlns="http://www.w3.org/2000/svg" xmlns:xlink="http://www.w3.org/1999/xlink" x="0px" y="0px"
	 viewBox="0 0 135.49 125.36" style="enable-background:new 0 0 135.49 125.36;" xml:space="preserve">
<style type="text/css">
	.st0{fill:none;}
	.st1{fill:#FFFFFF;}
	.st2{fill:#010101;}
	.st3{fill:#412614;}
	.st4{fill:#EE9722;}
</style>
<g>
	<g>
		<path class="st0" d="M98.67,64.23c0.23,0.01,0.46,0.02,0.69,0.02l0-0.01c-0.02,0-0.03,0-0.05,0
			C99.1,64.25,98.89,64.24,98.67,64.23z"/>
		<path class="st1" d="M75.91,71.6c0.42,1.16,1.42,1.92,2.53,1.92h4.1c1.51,0,2.74-1.39,2.74-3.11V63c-0.7,0.57-1.46,1.09-2.27,1.54
			c-2.5,1.42-5.36,2.2-8.32,2.3C74.96,68.51,75.37,70.11,75.91,71.6z"/>
		<path class="st1" d="M75.08,64.23c-0.21,0.01-0.42,0.02-0.64,0.02c-0.02,0-0.03,0-0.05,0c0,0,0,0.01,0,0.01
			C74.63,64.25,74.86,64.24,75.08,64.23z"/>
		<path class="st1" d="M91.21,73.52h4.1c1.1,0,2.11-0.75,2.53-1.92c0.54-1.49,0.96-3.09,1.23-4.76c-2.96-0.1-5.82-0.89-8.32-2.3
			c-0.81-0.46-1.57-0.98-2.27-1.54v7.41C88.48,72.12,89.7,73.52,91.21,73.52z"/>
		<path class="st1" d="M70.65,43.48c0.48,0,0.95-0.04,1.41-0.12c0.84-0.3,1.64-0.68,2.36-1.21c0.85-0.62,1.66-1.15,2.46-1.59
			c1.17-1.4,1.87-3.21,1.87-5.18c0-4.48-3.63-8.1-8.1-8.1c-4.47,0-8.1,3.63-8.1,8.1C62.55,39.85,66.18,43.48,70.65,43.48z
			 M67.56,32.76c-0.03,0.13-0.05,0.26-0.05,0.4c0,0.99,0.8,1.79,1.79,1.79c0.99,0,1.79-0.8,1.79-1.79c0-0.83-0.57-1.53-1.35-1.73
			c0.29-0.07,0.59-0.11,0.91-0.11c2.24,0,4.05,1.81,4.05,4.05c0,2.24-1.81,4.05-4.05,4.05c-2.24,0-4.05-1.81-4.05-4.05
			C66.6,34.38,66.96,33.47,67.56,32.76z"/>
		<path class="st1" d="M103.11,27.28c-4.47,0-8.1,3.63-8.1,8.1c0,1.97,0.7,3.77,1.87,5.18c0.79,0.44,1.61,0.97,2.46,1.59
			c0.72,0.53,1.52,0.92,2.36,1.21c0.46,0.08,0.93,0.12,1.41,0.12c4.47,0,8.1-3.63,8.1-8.1C111.21,30.9,107.58,27.28,103.11,27.28z
			 M103.11,39.43c-2.24,0-4.05-1.81-4.05-4.05c0-1,0.36-1.91,0.96-2.61c-0.03,0.13-0.05,0.26-0.05,0.4c0,0.99,0.8,1.79,1.79,1.79
			c0.99,0,1.79-0.8,1.79-1.79c0-0.83-0.57-1.53-1.35-1.73c0.29-0.07,0.59-0.11,0.91-0.11c2.24,0,4.05,1.81,4.05,4.05
			C107.16,37.62,105.34,39.43,103.11,39.43z"/>
		<path class="st2" d="M70.65,39.43c2.24,0,4.05-1.81,4.05-4.05c0-2.24-1.81-4.05-4.05-4.05c-0.31,0-0.61,0.04-0.91,0.11
			c0.77,0.2,1.35,0.9,1.35,1.73c0,0.99-0.8,1.79-1.79,1.79c-0.99,0-1.79-0.8-1.79-1.79c0-0.14,0.02-0.27,0.05-0.4
			c-0.6,0.71-0.96,1.62-0.96,2.61C66.6,37.62,68.41,39.43,70.65,39.43z"/>
		<path class="st2" d="M103.11,31.33c-0.31,0-0.61,0.04-0.91,0.11c0.77,0.2,1.35,0.9,1.35,1.73c0,0.99-0.8,1.79-1.79,1.79
			c-0.99,0-1.79-0.8-1.79-1.79c0-0.14,0.02-0.27,0.05-0.4c-0.6,0.71-0.96,1.62-0.96,2.61c0,2.24,1.81,4.05,4.05,4.05
			c2.24,0,4.05-1.81,4.05-4.05C107.16,33.14,105.34,31.33,103.11,31.33z"/>
		<g>
			<path class="st3" d="M42.08,101.44c-0.6-1.02-1.06-1.99-1.4-2.87c-0.37-0.94-0.63-1.78-0.81-2.47c-0.11-0.41-0.19-0.76-0.26-1.07
				c-2.37-7.22-3.6-14.97-3.6-22.82c0-5.87,0.67-11.6,1.99-17.13c-0.31-1.31-0.59-2.63-0.83-3.99c-0.94-5.58-2.66-10.81-4.98-15.92
				c-2.37-4.98-14.28-16.33-25.59-5.39c-5.52,5.34-7.9,16.47-5.91,27.4c2.02,12.33,7.63,23.2,14.52,31.19
				c6.9,8.07,15.06,13.28,22.45,16.07c2.4,0.91,4.72,1.57,6.92,2.01c-0.52-0.94-1.02-1.89-1.5-2.87
				C42.74,102.89,42.41,102.17,42.08,101.44z"/>
			<path class="st3" d="M119.68,28.37c1.2-0.34,2.34-0.99,3.28-1.93c2.97-2.97,2.97-7.83,0-10.8c-1.49-1.49-3.44-2.23-5.4-2.23
				c-1.96,0-3.92,0.74-5.4,2.23c-1.21,1.21-1.92,2.73-2.15,4.31c-3.4-2.25-7.04-4.02-10.87-5.24c0.25-0.31,0.51-0.62,0.8-0.91
				c0.29-0.3,0.61-0.6,0.94-0.88c4.85-4.22,13.1-6.4,13.1-6.4c-7.55-1.82-14.44-1.91-20.55-1.01C96.45,2.27,99.65,0,99.65,0
				C85.53,1.7,75.48,8.11,68.73,14.59c-0.88,0.84-1.71,1.69-2.48,2.53c-0.78,0.84-1.5,1.68-2.17,2.49
				c-0.22,0.22-0.34,0.34-0.34,0.34c-0.23-1.58-0.94-3.1-2.15-4.31c-1.48-1.49-3.44-2.23-5.4-2.23c-1.96,0-3.92,0.74-5.4,2.23
				c-2.97,2.97-2.97,7.83,0,10.8c0.94,0.94,2.08,1.59,3.28,1.93c-7.33,8.2-12.59,19.1-14.74,31.42c-0.7,4.01-1.07,8.16-1.07,12.42
				c0,8.33,1.4,16.25,3.93,23.45c0.22,0.55,0.49,1.19,0.83,1.89c0.41,0.81,0.87,1.71,1.49,2.59c0.62,0.88,1.34,1.77,2.25,2.47
				c0.44,0.36,0.93,0.65,1.45,0.9c0.53,0.21,1.07,0.4,1.66,0.46c1.17,0.16,2.46-0.05,3.75-0.52l0.12-0.04l0.06-0.02l0.03-0.01
				l0.01,0l0.2-0.09l0.53-0.25c0.21-0.08,0.27-0.16,0.4-0.24c0.11-0.08,0.23-0.15,0.35-0.22c0.47-0.4,0.94-0.83,1.27-1.39
				c0.7-1.08,1.09-2.45,1.24-3.87c0.15-1.42,0.08-2.88-0.07-4.29c-0.15-1.42-0.4-2.79-0.7-4.08c-0.02-0.09-0.04-0.18-0.06-0.27
				c-0.27-1.19-0.57-2.33-0.88-3.37c-0.65-2.24-1.31-4.09-1.78-5.38c-0.47-1.29-0.78-2.02-0.78-2.02s0.43,0.66,1.11,1.87
				c0.67,1.21,1.58,2.96,2.53,5.15c0.79,1.9,1.63,4.11,2.23,6.6c0.09,0.4,0.18,0.8,0.26,1.21c0.3,1.49,0.47,3.08,0.42,4.75
				c-0.01,0.42-0.06,0.84-0.1,1.26c-0.07,0.42-0.13,0.85-0.23,1.28l-0.18,0.64l-0.09,0.32l-0.13,0.31l-0.26,0.63
				c-0.1,0.21-0.22,0.4-0.33,0.61c-0.21,0.41-0.51,0.78-0.8,1.15c-0.14,0.19-0.31,0.35-0.48,0.51l-0.51,0.49l-0.61,0.44
				c-0.2,0.13-0.44,0.31-0.59,0.38l-0.52,0.27l-0.26,0.13l-0.1,0.05l-0.02,0.01l-0.04,0.01l-0.07,0.03l-0.15,0.06
				c-1.58,0.64-3.37,1.02-5.13,0.8c-0.88-0.1-1.72-0.37-2.5-0.7c-0.02-0.01-0.03-0.02-0.05-0.03c0.15,0.27,0.31,0.54,0.47,0.81
				c4.12,6.97,9.44,12.81,15.59,17.05c1.34,0.92,2.86,1.36,4.38,1.36c2.42,0,4.81-1.13,6.33-3.23c2.95-4.06,7.73-6.71,13.13-6.71
				c5.4,0,10.19,2.64,13.13,6.71c1.52,2.1,3.9,3.21,6.31,3.21c1.55,0,3.12-0.46,4.49-1.41c6.35-4.4,11.81-10.5,15.97-17.8
				c-0.02,0.01-0.03,0.02-0.05,0.03c-0.78,0.33-1.62,0.6-2.5,0.7c-1.76,0.22-3.55-0.16-5.13-0.8l-0.15-0.06l-0.08-0.03l-0.04-0.01
				l-0.02-0.01l-0.1-0.05l-0.26-0.13l-0.52-0.27c-0.16-0.07-0.39-0.25-0.59-0.38l-0.61-0.44l-0.51-0.49
				c-0.17-0.17-0.35-0.32-0.48-0.51c-0.29-0.37-0.59-0.74-0.8-1.15c-0.11-0.2-0.24-0.4-0.33-0.61l-0.26-0.63l-0.13-0.31l-0.09-0.32
				l-0.18-0.64c-0.1-0.43-0.16-0.86-0.23-1.28c-0.03-0.42-0.08-0.85-0.09-1.26c-0.05-1.66,0.13-3.25,0.42-4.75
				c0.59-2.99,1.57-5.61,2.49-7.81c0.94-2.19,1.85-3.94,2.53-5.15c0.68-1.2,1.11-1.87,1.11-1.87s-0.3,0.73-0.78,2.02
				c-0.47,1.29-1.13,3.14-1.78,5.38c-0.33,1.12-0.65,2.34-0.94,3.64c-0.3,1.29-0.55,2.67-0.7,4.08c-0.14,1.41-0.22,2.87-0.07,4.29
				c0.14,1.42,0.54,2.79,1.24,3.87c0.33,0.56,0.8,0.98,1.27,1.39c0.12,0.07,0.24,0.15,0.35,0.22c0.13,0.08,0.19,0.16,0.4,0.24
				l0.53,0.25l0.2,0.09l0.01,0l0.03,0.01l0.06,0.02l0.12,0.04c1.29,0.46,2.59,0.68,3.75,0.52c0.59-0.06,1.14-0.25,1.66-0.46
				c0.51-0.25,1-0.54,1.45-0.9c0.91-0.69,1.63-1.59,2.25-2.47c0.62-0.88,1.09-1.78,1.49-2.59c0.34-0.69,0.6-1.32,0.83-1.87
				c2.53-7.2,3.94-15.13,3.94-23.46C135.49,54.85,129.4,39.23,119.68,28.37z M56.18,24.57c-1.98,0-3.59-1.61-3.59-3.59
				c0-1.98,1.61-3.59,3.59-3.59s3.59,1.61,3.59,3.59C59.77,22.97,58.16,24.57,56.18,24.57z M103.11,43.48
				c-0.48,0-0.95-0.04-1.41-0.12c-0.84-0.3-1.64-0.68-2.36-1.21c-0.85-0.62-1.67-1.15-2.46-1.59c-1.17-1.4-1.87-3.21-1.87-5.18
				c0-4.48,3.63-8.1,8.1-8.1c4.47,0,8.1,3.63,8.1,8.1C111.21,39.85,107.58,43.48,103.11,43.48z M78.75,35.38
				c0,1.97-0.7,3.77-1.87,5.18c-0.79,0.44-1.61,0.97-2.46,1.59c-0.72,0.53-1.52,0.92-2.36,1.21c-0.46,0.08-0.93,0.12-1.41,0.12
				c-4.47,0-8.1-3.63-8.1-8.1c0-4.48,3.63-8.1,8.1-8.1C75.12,27.28,78.75,30.9,78.75,35.38z M88.48,70.41V63
				c0.7,0.57,1.46,1.09,2.27,1.54c2.5,1.42,5.36,2.2,8.32,2.3c-0.27,1.67-0.68,3.27-1.23,4.76c-0.42,1.16-1.42,1.92-2.53,1.92h-4.1
				C89.7,73.52,88.48,72.12,88.48,70.41z M85.28,63v7.41c0,1.72-1.22,3.11-2.74,3.11h-4.1c-1.1,0-2.1-0.75-2.53-1.92
				c-0.54-1.49-0.95-3.09-1.22-4.76c2.96-0.1,5.82-0.89,8.32-2.3C83.82,64.08,84.57,63.57,85.28,63z M86.88,104.87
				c-8.81,0-15.96,5.45-15.96-3.04c0-8.49,7.14-17.36,15.96-17.36c8.81,0,15.96,8.87,15.96,17.36
				C102.84,110.32,95.69,104.87,86.88,104.87z M99.36,64.24L99.36,64.24c-0.23,0-0.46,0-0.69-0.02c-3.79-0.15-7.17-1.65-9.56-3.97
				l0.13,0.22c0,0-0.32-0.29-0.76-0.58c-0.48-0.33-1.11-0.68-1.6-0.68c-0.49,0-1.12,0.35-1.6,0.68c-0.44,0.3-0.76,0.58-0.76,0.58
				l0.13-0.22c-0.86,0.84-1.85,1.56-2.95,2.16c-1.94,1.06-4.19,1.71-6.61,1.81c-0.23,0.01-0.46,0.02-0.69,0.02c0,0,0,0,0-0.01
				c-0.02,0-0.04,0-0.06,0c-7.57-0.05-13.68-5.48-13.68-12.16c0-6.61,9.18-2.92,15.32-7.1c0.1-0.07,0.2-0.12,0.29-0.19
				c0.54-0.4,1.07-0.75,1.57-1.05c0.1-0.07,0.21-0.14,0.32-0.21c0.51-0.33,1.11-0.64,1.86-0.92c1.47-0.54,3.32-0.89,5.32-1.01
				c0.51-0.03,1.03-0.05,1.55-0.05c0.53,0,1.04,0.02,1.55,0.05c2,0.12,3.84,0.46,5.32,1.01c0.74,0.27,1.35,0.59,1.86,0.92
				c0.11,0.07,0.22,0.14,0.32,0.21c0.5,0.3,1.02,0.65,1.57,1.05c0.09,0.07,0.2,0.12,0.29,0.18c6.15,4.18,15.33,0.49,15.33,7.1
				C113.11,58.78,106.96,64.22,99.36,64.24z M117.58,24.57c-1.98,0-3.59-1.61-3.59-3.59c0-1.98,1.61-3.59,3.59-3.59
				c1.98,0,3.59,1.61,3.59,3.59C121.16,22.97,119.56,24.57,117.58,24.57z"/>
		</g>
		<path class="st2" d="M86.88,56.31c3.2,0,6.01-1.69,7.58-4.22c0.85-1.36,1.33-2.97,1.33-4.69c0-2.29-3.85-3.51-7.98-3.67
			c-0.31-0.01-0.62-0.02-0.94-0.02c-0.31,0-0.63,0.01-0.94,0.02c-4.12,0.16-7.98,1.38-7.98,3.67c0,1.72,0.49,3.33,1.33,4.69
			C80.87,54.62,83.68,56.31,86.88,56.31z"/>
		<g>
			<path class="st4" d="M86.88,84.47c-8.81,0-15.96,8.87-15.96,17.36c0,8.49,7.14,3.04,15.96,3.04c8.81,0,15.96,5.45,15.96-3.04
				C102.84,93.34,95.69,84.47,86.88,84.47z"/>
			<path class="st4" d="M97.78,44.98c-0.1-0.07-0.2-0.12-0.29-0.18c-0.55-0.4-1.07-0.75-1.57-1.05c-0.1-0.07-0.21-0.14-0.32-0.21
				c-0.51-0.33-1.11-0.64-1.86-0.92c-1.47-0.54-3.32-0.89-5.32-1.01c-0.51-0.03-1.03-0.05-1.55-0.05c-0.53,0-1.04,0.02-1.55,0.05
				c-1.99,0.12-3.84,0.46-5.32,1.01c-0.74,0.27-1.35,0.59-1.86,0.92c-0.11,0.07-0.22,0.14-0.32,0.21c-0.5,0.3-1.02,0.65-1.57,1.05
				c-0.09,0.07-0.2,0.12-0.29,0.19c-6.15,4.18-15.32,0.49-15.32,7.1c0,6.69,6.12,12.11,13.68,12.16c0.02,0,0.04,0,0.06,0
				c0.02,0,0.03,0,0.05,0c0.21,0,0.43-0.01,0.64-0.02c2.42-0.1,4.68-0.75,6.61-1.81c1.09-0.6,2.09-1.32,2.95-2.16l-0.13,0.22
				c0,0,0.32-0.28,0.76-0.58c0.48-0.33,1.11-0.68,1.6-0.68c0.49,0,1.11,0.35,1.6,0.68c0.44,0.3,0.76,0.58,0.76,0.58l-0.13-0.22
				c2.39,2.32,5.77,3.81,9.56,3.97c0.21,0.01,0.42,0.02,0.64,0.02c0.02,0,0.03,0,0.05,0c7.6-0.02,13.75-5.46,13.75-12.17
				C113.11,45.46,103.93,49.16,97.78,44.98z M85.94,43.72c0.31-0.01,0.62-0.02,0.94-0.02c0.31,0,0.63,0.01,0.94,0.02
				c4.12,0.16,7.98,1.38,7.98,3.67c0,1.72-0.49,3.33-1.33,4.69c-1.57,2.53-4.38,4.22-7.58,4.22c-3.2,0-6.01-1.69-7.58-4.23
				c-0.84-1.36-1.33-2.97-1.33-4.69C77.97,45.11,81.82,43.88,85.94,43.72z"/>
			<path class="st4" d="M56.18,17.4c-1.98,0-3.59,1.61-3.59,3.59c0,1.98,1.61,3.59,3.59,3.59s3.59-1.61,3.59-3.59
				C59.77,19.01,58.16,17.4,56.18,17.4z"/>
			<path class="st4" d="M117.58,17.4c-1.98,0-3.59,1.61-3.59,3.59c0,1.98,1.61,3.59,3.59,3.59c1.98,0,3.59-1.61,3.59-3.59
				C121.16,19.01,119.56,17.4,117.58,17.4z"/>
		</g>
	</g>
</g>
</svg>
