<?xml version="1.0" encoding="utf-8"?>
<!-- Generator: Adobe Illustrator 25.2.0, SVG Export Plug-In . SVG Version: 6.00 Build 0)  -->
<svg version="1.1" id="Layer_1" xmlns="http://www.w3.org/2000/svg" xmlns:xlink="http://www.w3.org/1999/xlink" x="0px" y="0px"
	 viewBox="0 0 771.9 54.3" style="enable-background:new 0 0 771.9 54.3;" xml:space="preserve">
<g>
	<path d="M372.3,1.9c-0.2,1.3-0.4,2.7-0.7,4.2c-1.4,7.2-2.2,14.3-2.4,21.5l-0.7,21.6c2.8,0.3,4.4,0.4,4.8,0.4l20.3-0.4V39.2
		c0-0.6-1.9-1.1-5.6-1.4c-3.5-0.3-6.1-0.5-7.9-0.6v-5.3c0.4-0.1,1-0.3,1.9-0.5l2.6-0.6c2.2-0.5,3.7-0.9,4.4-1.2c0.7-1.8,1-4.4,1-8
		l-7.7-1.2c0.1-2.9,0.2-5.2,0.2-6.6c1,0,2,0,3.1,0c3.3,0,6.6-0.3,10-0.9l0.7-10.3c-2.9-0.5-6.9-0.8-12-0.8H372.3z"/>
	<path d="M349.4,31c4.1-2.3,7-4.8,8.7-7.6c1.7-2.8,2.5-6.5,2.5-11.2c0-3.6-1.8-6.3-5.5-8.1c-2.9-1.5-6.4-2.2-10.3-2.2
		c-6.8,0-12.7,1.4-17.4,4.3c-0.1,3.3-0.6,9.3-1.6,18c-0.7,6.8-1.1,12.8-1.1,18v6.5c1,0.9,2.7,1.3,5.3,1.3c0.4,0,1,0,1.9-0.1
		c0.8,0,1.5-0.1,1.9-0.1h1c0.9,0,1.6,0.1,2.1,0.2c0.9-0.1,1.5-2.4,1.6-6.7c0.1-4,0.2-6.7,0.2-8.1c0.8,1.2,1.5,2.2,1.9,3
		c2.3,4.3,3.9,7.2,4.7,8.7l1.5,2.7c2.2-0.1,4.6-0.5,7.3-1.1l7.3-1.7c-0.1-1.8-1.8-4.5-5-8.1L349.4,31z M344.6,21.2
		c-1.5,1.2-3.1,1.7-4.8,1.7c0.4-5,0.6-8.3,0.8-9.8c0.4-0.3,1-0.4,1.8-0.4c1.4,0,2.5,0.4,3.4,1.1c0.9,0.7,1.3,1.8,1.3,3.1
		C347.1,18.6,346.3,20,344.6,21.2z"/>
	<path d="M465.1,31c4.1-2.3,7-4.8,8.7-7.6c1.7-2.8,2.5-6.5,2.5-11.2c0-3.6-1.8-6.3-5.5-8.1c-2.9-1.5-6.4-2.2-10.3-2.2
		c-6.8,0-12.7,1.4-17.4,4.3c-0.1,3.3-0.6,9.3-1.6,18c-0.7,6.8-1.1,12.8-1.1,18v6.5c1,0.9,2.7,1.3,5.3,1.3c0.4,0,1,0,1.9-0.1
		c0.8,0,1.5-0.1,1.9-0.1h1c0.9,0,1.6,0.1,2.1,0.2c0.9-0.1,1.5-2.4,1.6-6.7c0.1-4,0.2-6.7,0.2-8.1c0.8,1.2,1.5,2.2,1.9,3
		c2.3,4.3,3.9,7.2,4.7,8.7l1.5,2.7c2.2-0.1,4.6-0.5,7.3-1.1l7.3-1.7c-0.1-1.8-1.8-4.5-5-8.1L465.1,31z M460.3,21.2
		c-1.5,1.2-3.1,1.7-4.8,1.7c0.4-5,0.6-8.3,0.8-9.8c0.4-0.3,1-0.4,1.8-0.4c1.4,0,2.5,0.4,3.4,1.1c0.9,0.7,1.3,1.8,1.3,3.1
		C462.8,18.6,461.9,20,460.3,21.2z"/>
	<path d="M157.1,14.8C157,14.8,157,14.7,157.1,14.8L157.1,14.8L157.1,14.8z"/>
	<path d="M420,34.8c-3.5-1.5-5.3-4.5-5.3-8.9c0-1.7,0.3-3.4,1-5c0.7-1.8,1.8-3.2,3-4c1-0.6,2.7-1.4,5.2-2.2c2.3-0.8,4.1-1.3,5.5-1.4
		c0.9-1.7,1.8-3.8,2.7-6.3l0.9-2.6c-0.6-1.7-2.9-2.5-7-2.5c-6.8,0-12.5,3.1-17,9.3c-4.2,5.8-6.4,12.1-6.4,18.9
		c0,5.4,1.8,10,5.3,13.9c3.6,4,8.1,6,13.4,6c3.7,0,7.9-1.8,12.5-5.5l-2.8-8.3C426.1,36.3,422.4,35.9,420,34.8z"/>
	<path d="M152.9,5.6c-2.7-2.5-5.9-3.7-9.5-3.7c-5,0-9.1,1.3-12.2,3.9c-3.1,2.6-4.9,6.4-5.6,11.3c0.4,3.3,1.9,6.1,4.5,8.6
		c0.9,0.8,2,1.7,3.4,2.7c1.2,0.8,2.4,1.6,3.6,2.4c2.4,1.6,3.7,3.1,3.7,4.4c0,2.2-1.1,3.3-3.2,3.3h-0.5c-0.1,0-0.3,0-0.4,0
		c-0.7-0.9-1.2-1.8-1.4-2.7c-0.1-0.3-0.2-1.1-0.4-2.2h-6c-1.7,0-3.2,0-4.4,0c-0.3,1.2-0.5,2.9-0.5,5.2c0,4.6,1.4,7.7,4.3,9.4
		c2.3,1.3,5.8,2,10.7,2c4.4,0,8-1.3,10.8-3.9c2.8-2.6,4.2-6.1,4.2-10.5c0-4.4-1.3-8-3.9-10.7c-1.3-1.3-3.7-3-7.3-4.9
		c-2.6-1.4-3.9-2.8-3.9-4c0-0.9,0.4-1.6,1.1-2.2c0.7-0.6,1.5-0.9,2.4-0.9c1.1,0,1.9,0.5,2.4,1.6l1.2,2.9c5.7-1.2,9.4-2.1,11.1-2.6
		C157,11.1,155.6,8.1,152.9,5.6z"/>
	<path d="M229.4,1.9c-3.7,0-7.5,1.4-11.3,4.1c-3.6,2.5-6.5,5.6-8.8,9.2c-2.6,4.1-4,8.1-4,12c0,7.2,2.3,12.9,6.8,17
		c4.4,3.9,10.2,5.9,17.5,5.9c6.2,0,11.4-2.3,15.7-6.8c4.2-4.4,6.3-9.8,6.3-16c0-7.9-1.7-13.9-5.1-18.2C242.8,4.3,237,1.9,229.4,1.9z
		 M235.5,30.8c-1.8,2.4-4.1,3.6-6.9,3.6c-2.6,0-4.8-0.7-6.4-2.2c-1.6-1.4-2.5-3.5-2.5-6.1c0-2.7,1-5.4,3.1-7.9c2.2-2.7,4.6-4,7.3-4
		c2.5,0,4.5,0.9,5.9,2.6c1.3,1.6,2,3.7,2,6.2C237.9,26,237.1,28.6,235.5,30.8z"/>
	<path d="M292.1,3.7l-6.6-0.5c-4.5-0.4-7.5-0.5-9.2-0.5c-7.1,0-12.4,0.3-16,0.8c-0.7,4.8-1.3,8.5-1.8,11.3c4.5,0.6,7.9,1.1,10.2,1.4
		L266.3,50c3.2-0.3,5.8-0.5,7.9-0.6c3.5-0.2,6.2-0.5,8-0.7c-0.6-5.1-1-10.5-1.2-16.2l-0.7-16.2c7.6,0,12.5,0,14.4-0.1
		c0.2-1.5,0.3-3.8,0.3-7.1c0-3-0.1-4.7-0.4-5.2C293.9,3.8,293.1,3.7,292.1,3.7z"/>
	<path d="M107.6,17.9c-2.8,0.1-5.2,0.5-7.1,1.1c-0.4,1.5-0.5,2.6-0.5,3.3c0,1.8,0.3,3.1,0.8,3.9c1.9,0.2,3.4,0.3,4.3,0.4v12.2
		c-3.4-1-5.6-2.1-6.6-3.2c-1.1-1.4-1.7-3.9-1.7-7.6c0-4.3,0.9-8,2.7-11.1c2.2-3.7,5.1-5.5,8.9-5.5c0.6,0,1.3,0.1,2.2,0.4l2.1,0.6
		c1.7-2.2,2.7-4.9,2.9-8.3c-2.9-1.3-4.9-2-6-2c-8.6,0-14.9,2.2-18.9,6.5C86.9,12.6,85,19,85,27.6c0,6.5,2.1,11.8,6.2,16
		c4.1,4.2,9.4,6.4,15.8,6.4c1.3,0,3-0.3,5.1-0.9c2.6-0.7,4-1.5,4-2.3c0-11.6-0.4-21.4-1.1-29.3L107.6,17.9z"/>
	<path d="M727.5,3.6l-14.4,0c0,0.5,0,1.3-0.1,2.4c-0.1,1-0.1,1.8-0.1,2.4c0,1.9,0.1,4.3,0.3,7.1c0.2,3.3,0.3,5.7,0.3,7.1
		c0,2.5-0.2,4.4-0.6,5.6c-1.5-3.4-3.1-7.8-4.7-13l-4-13.3L692,3.2L690.8,25c-0.5,9.5-0.8,16.7-0.8,21.7c0,1.5,0.3,2.6,1,3.3
		c8.6,0,12.9-0.5,12.9-1.5c-0.3-9.7-0.3-15.3,0.2-16.6c3,8.2,5.3,14.1,6.8,17.8c3.9-0.4,9.4-0.8,16.7-1.1c0-3.9-0.1-9.7-0.4-17.5
		c-0.2-6.8-0.3-12.7-0.3-17.5c0-0.7,0.1-2.8,0.4-6.3C727.4,5.3,727.5,4,727.5,3.6z"/>
	<path d="M659.7,1.9c-0.2,1.3-0.4,2.7-0.7,4.2c-1.4,7.2-2.2,14.3-2.4,21.5l-0.7,21.6c2.8,0.3,4.4,0.4,4.8,0.4l20.3-0.4V39.2
		c0-0.6-1.9-1.1-5.6-1.4c-3.5-0.3-6.1-0.5-7.9-0.6v-5.3c0.4-0.1,1-0.3,1.9-0.5l2.6-0.6c2.2-0.5,3.7-0.9,4.4-1.2c0.7-1.8,1-4.4,1-8
		l-7.7-1.2c0.1-2.9,0.2-5.2,0.2-6.6c1,0,2,0,3.1,0c3.3,0,6.6-0.3,10-0.9l0.7-10.3c-2.9-0.5-6.9-0.8-12-0.8H659.7z"/>
	<path d="M646.6,23.9c-1-13.3-1.8-20.6-2.3-21.9c-1,0-2.9,0-5.8,0.1l-11.6,0.4c-0.4,1.5-1,5.2-1.9,11c-0.6,4.5-1.6,8.1-2.9,10.7H622
		c-2.6-8-4.7-15-6.3-21c-2.5,0.3-4.6,0.6-6.2,0.7c-2.3,0.3-4.3,0.7-6.1,1.3c-1.3,2.9-2.1,7.1-2.3,12.8l-0.8,16.8
		c-0.3,6.5-0.8,11.3-1.6,14.7c0.2,0.1,1.3,0.1,3.5,0c3.2-0.1,4.8-0.1,4.9-0.1c0.4,0,0.9,0.1,1.6,0.2c0.7,0.1,1.3,0.2,1.6,0.2
		c1.2,0,1.7-0.4,1.7-1.1c0-1.7,0-3.8,0.1-6.4l0.3-11.7c1.1,2.1,2.1,5.2,2.9,9.3c0.9,4.6,1.7,7.7,2.4,9.4c0.9-0.1,1.6-0.2,2-0.2
		c4.8-0.4,7.6-0.7,8.5-0.9c2-7.3,3.3-12.4,4-15.5c0.9,7.1,1.7,12.5,2.3,16h10.3c1.4,0,2.5-0.2,3.4-0.6c-0.2-3.8-0.3-7-0.5-9.4
		L646.6,23.9z"/>
	<path d="M24.8,38.1L24.8,38.1c0-0.1,0-0.2,0-0.4v-1.5c0-1.6-0.9-2.3-2.6-2.3h-2.4C18.2,34,17.1,34,16.3,34c-2.7,0-4.1-0.3-4.1-0.9
		c0-3.8,0.2-8.8,0.6-15.1c0.4-6.7,0.7-11.8,0.7-15.1h-2.2C7.9,3,5.2,3.2,3.1,3.6L0,50.2c5.7-0.5,9.4-0.6,10.9-0.6l2.5,0.1
		c1.7,0.1,3,0.1,3.9,0.1c5.7,0,8.5-0.9,8.5-2.6c0-1-0.2-2.5-0.5-4.5C25,40.7,24.8,39.2,24.8,38.1z"/>
	<path d="M522,2.4l-4.9,0.1c-4.3,0-6.9,0.4-7.8,1.2c0,1.2,0.2,3.6,0.6,7.3c0.2,1.9,0.3,3.5,0.3,4.8c0,4.6-0.3,8.5-1,11.9
		c-1.2,5.7-3.1,8.5-5.9,8.5c-4,0-6.1-4.3-6.1-13c0-3.1,0-6.6,0.1-10.5c0.1-5.1,0.2-8.6,0.1-10.5l-2.1-0.2l-10.7,0.7
		c0.1,0.7,0.1,1.6-0.1,2.7c-0.2,1.5-0.3,2.4-0.3,2.8v8.4c0,9.4,1,16.7,3,21.8c3.1,7.8,8.5,11.7,16.3,11.7c7.8,0,13.5-3.3,17.2-9.9
		c2.9-5.2,4.3-12.1,4.3-20.7C525.2,8,524.1,2.3,522,2.4z"/>
	<path d="M56,1.9c-3.7,0-7.5,1.4-11.3,4.1c-3.6,2.5-6.5,5.6-8.8,9.2c-2.6,4.1-4,8.1-4,12c0,7.2,2.3,12.9,6.8,17
		C43.1,48,48.9,50,56.2,50c6.2,0,11.4-2.3,15.7-6.8c4.2-4.4,6.3-9.8,6.3-16c0-7.9-1.7-13.9-5.1-18.2C69.4,4.3,63.6,1.9,56,1.9z
		 M62.1,30.8c-1.8,2.4-4.1,3.6-6.9,3.6c-2.6,0-4.8-0.7-6.4-2.2c-1.6-1.4-2.5-3.5-2.5-6.1c0-2.7,1-5.4,3.1-7.9c2.2-2.7,4.6-4,7.3-4
		c2.5,0,4.5,0.9,5.9,2.6c1.3,1.6,2,3.7,2,6.2C64.5,26,63.7,28.6,62.1,30.8z"/>
	<path d="M768.9,3.7l-6.6-0.5c-4.5-0.4-7.5-0.5-9.2-0.5c-7.1,0-12.4,0.3-16,0.8c-0.7,4.8-1.3,8.5-1.8,11.3c4.5,0.6,7.9,1.1,10.2,1.4
		L743.1,50c3.2-0.3,5.8-0.5,7.9-0.6c3.5-0.2,6.2-0.5,8-0.7c-0.6-5.1-1-10.5-1.2-16.2l-0.7-16.2c7.6,0,12.5,0,14.4-0.1
		c0.2-1.5,0.3-3.8,0.3-7.1c0-3-0.1-4.7-0.4-5.2C770.8,3.8,769.9,3.7,768.9,3.7z"/>
	<path d="M194.5,5c-3.2-2.1-7.1-3.1-11.7-3.1c-6.2,0-12,0.9-17.5,2.7c0,3.9-0.3,10.5-0.8,19.9c-0.5,8.9-0.8,15.5-0.8,19.9
		c0,2.6,0.3,4.5,1,5.6c4.6-0.9,7.4-1.4,8.3-1.6l6.1-1.2c0-0.9-0.2-3.3-0.6-7.1c-0.3-2.6-0.4-4.5-0.4-5.9c0-0.5,0-0.9,0-1.3
		c4.7-1.7,7.8-2.9,9.4-3.5c8.3-3.1,12.4-7.9,12.4-14.3C200.1,10.8,198.2,7.4,194.5,5z M182.7,20c-2.8,1.1-4.4,1.7-4.8,1.8
		c-0.1-1.3-0.2-2.5-0.3-3.8c-0.2-1.7-0.4-2.9-0.6-3.6c2.4-0.3,4.3-0.4,5.9-0.4c0.6,0,1.3,0.3,2,1c0.7,0.6,1.1,1.3,1.1,1.9
		C185.9,18.2,184.8,19.2,182.7,20z"/>
	<path d="M590.2,3.7l-6.6-0.5c-4.5-0.4-7.5-0.5-9.2-0.5c-7.1,0-12.4,0.3-16,0.8c-0.7,4.8-1.3,8.5-1.8,11.3c4.5,0.6,7.9,1.1,10.2,1.4
		L564.4,50c3.2-0.3,5.8-0.5,7.9-0.6c3.5-0.2,6.2-0.5,8-0.7c-0.6-5.1-1-10.5-1.2-16.2l-0.7-16.2c7.6,0,12.5,0,14.4-0.1
		c0.2-1.5,0.3-3.8,0.3-7.1c0-3-0.1-4.7-0.4-5.2C592.1,3.8,591.2,3.7,590.2,3.7z"/>
	<path d="M548,29.1c-0.1-2.7,0.2-24.5,0.2-26.4l0-0.3c-8.1,0-12.5,0.2-13.2,0.5c-0.8,6-1.6,31.8-1.6,38.3v6.5l0.2,4.8
		c4.8,0,9.5-0.7,14.2-2.2c0.3-3.9,0.5-8.6,0.5-14.2c0-1.3,0-2.2,0-2.9L548,29.1z"/>
</g>
</svg>
