<?xml version="1.0" encoding="utf-8"?>
<!-- Generator: Adobe Illustrator 25.2.0, SVG Export Plug-In . SVG Version: 6.00 Build 0)  -->
<svg version="1.1" id="Layer_1" xmlns="http://www.w3.org/2000/svg" xmlns:xlink="http://www.w3.org/1999/xlink" x="0px" y="0px"
	 viewBox="0 0 1690.9 259" style="enable-background:new 0 0 1690.9 259;" xml:space="preserve">
<style type="text/css">
	.st0{fill:none;}
	.st1{fill:#FCBB29;}
	.st2{fill:#F04A23;}
</style>
<g>
	<path class="st0" d="M535.6,82.9c-1.3,0-2.2,0.1-2.7,0.2c-0.7,6.9-1.2,12-1.5,15.3c5.2-4.2,7.8-8.6,7.8-13.2v-1
		c-0.1-0.3-0.2-0.6-0.2-0.8C537.9,83,536.8,82.9,535.6,82.9z"/>
	<path class="st0" d="M124.5,89.6c-9.9,0-19,5.1-27.2,15.4C89.1,115.3,85,125.6,85,135.8c0,5.5,0.9,10.1,2.7,13.9
		c5.7,3.5,12.3,5.2,19.7,5.2c10.8,0,19.4-4.6,25.8-13.9c5.7-8.1,8.6-17.8,8.6-29.2c0-7.6-1.5-14.1-4.6-19.5
		C133.3,90.5,129,89.6,124.5,89.6z"/>
	<path class="st1" d="M1153.8,19.5c-16.2,0-32.7,5.9-49.3,17.6c-15.4,10.9-28.2,24.3-38.4,40.1c-11.5,17.8-17.2,35.2-17.2,52.3
		c0,31.4,9.9,56,29.6,73.9c19,17.2,44.4,25.8,76.2,25.8c26.9,0,49.6-9.9,68.2-29.6c18.3-19.3,27.5-42.6,27.5-69.7
		c0-34.3-7.3-60.8-22-79.4C1211.9,29.9,1187.1,19.5,1153.8,19.5z M1180.2,145.5c-7.7,10.5-17.8,15.7-30.2,15.7
		c-11.5,0-20.8-3.2-27.9-9.4c-7.1-6.3-10.7-15.1-10.7-26.5c0-11.9,4.5-23.4,13.4-34.4c9.5-11.6,20.1-17.4,31.7-17.4
		c10.9,0,19.5,3.8,25.6,11.3c5.7,7,8.6,16,8.6,27.1C1190.7,124.8,1187.2,136,1180.2,145.5z"/>
	<path class="st1" d="M1012.2,27.3L983.5,25c-19.5-1.5-32.8-2.3-40.1-2.3c-30.8,0-54,1.1-69.7,3.4c-3.2,20.7-5.9,37.2-8,49.3
		c19.7,2.7,34.6,4.7,44.5,6.1l-10.1,147.8c13.9-1.3,25.3-2.2,34.4-2.7c15.4-1,26.9-2,34.6-3.1c-2.5-22.4-4.3-45.9-5.2-70.6L961,82.1
		c33.3,0.1,54.2-0.1,62.8-0.6c1-6.4,1.5-16.7,1.5-30.9c0-13-0.6-20.6-1.9-22.7C1020.4,27.8,1016.7,27.5,1012.2,27.3z"/>
	<path class="st1" d="M837.1,75.8c-0.1-0.1-0.3-0.2-0.4-0.2v0.6L837.1,75.8z"/>
	<path class="st1" d="M1574.8,81.2c-9.1-14.4-15.1-23.9-18.1-28.6c-6.9-10.6-13.9-19.4-21-26.2c-0.1,0-0.2,0-0.3,0
		c-4.5,0.4-14.9,1.5-31.2,3.4c-19.7,2.2-31.1,3.7-34,4.4c11.9,16.2,24.3,32.1,37.2,47.7l38.4,46.6l0.4,46
		c0.1,15.4,0.2,24.7,0.2,27.9v18.5c0,1.5-0.4,3.9-1.3,7.1c1.7,0,4.3,0.3,8,1c3.6,0.7,6.4,1,8.4,0.8l27.3-1.5
		c5.2-0.3,8.4-0.4,9.7-0.4c6.9,0,12.4,0.4,16.6,1.3c0.7-5.3,1-9.5,1-12.6c0-60.5-1.3-90.7-4-90.7l-0.6,0.6
		c7.4-14.6,11.8-22.7,13-24.6l33.4-51.4c8.7-13.3,13.8-23.7,15.3-31.1c-20.7,2.2-45.6,3.7-74.5,4.4
		C1588.2,51.1,1580.2,70.2,1574.8,81.2z"/>
	<path class="st1" d="M1388.1,146.5c17.9-9.9,30.6-21,37.9-33.2c7.3-12.2,11-28.4,11-48.7c0-15.5-8.1-27.4-24.1-35.5
		c-12.7-6.4-27.7-9.7-44.9-9.7c-29.8,0-55.2,6.2-76,18.7c-0.3,14.3-2.6,40.4-6.9,78.3c-3.2,29.7-4.8,55.8-4.6,78.3v28.3
		c4.2,3.8,11.8,5.7,22.9,5.7c1.8,0,4.5-0.1,8.2-0.3c3.6-0.2,6.4-0.3,8.2-0.3h4.2c3.9,0,6.9,0.3,9,1c4.1-0.6,6.4-10.4,6.9-29.4
		c0.4-17.4,0.7-29.1,0.8-35.3c3.6,5,6.4,9.4,8.4,13c10.1,18.6,16.9,31.2,20.4,37.8l6.5,12c9.5-0.4,20.2-2,31.9-4.8l31.7-7.6
		c-0.4-7.7-7.6-19.4-21.6-35.1L1388.1,146.5z M1367.1,103.9c-6.7,5-13.7,7.6-21,7.6c1.5-21.7,2.7-36,3.6-42.8c1.8-1.3,4.5-1.9,8-1.9
		c6,0,10.9,1.6,14.7,4.8c3.8,3.2,5.7,7.8,5.7,13.6C1378,92.4,1374.4,98.6,1367.1,103.9z"/>
	<path class="st1" d="M819.2,35.8c-11.7-10.7-25.5-16.1-41.5-16.1c-22,0-39.7,5.6-53,16.9c-13.4,11.3-21.5,27.7-24.5,49.2
		c1.7,14.3,8.2,26.7,19.5,37.4c3.9,3.6,8.9,7.6,14.9,11.8c5.2,3.5,10.4,7,15.7,10.5c10.6,7.1,16,13.5,16,19.1
		c0,9.7-4.7,14.5-14.1,14.5h-2.1c-0.6,0-1.2-0.1-1.9-0.2c-2.9-3.9-5-7.9-6.3-12c-0.4-1.4-1-4.6-1.9-9.7h-26c-7.6,0-14-0.1-19.3-0.2
		c-1.4,5-2.1,12.6-2.1,22.7c0,20,6.3,33.7,18.9,40.9c9.9,5.7,25.4,8.6,46.4,8.6c19,0,34.7-5.7,47-17.2
		c12.3-11.5,18.5-26.7,18.5-45.6c0-19.2-5.7-34.6-17-46.4c-5.7-5.9-16.3-13-31.7-21.4c-11.3-6.2-17-12-17-17.6c0-3.8,1.6-7,4.7-9.7
		c3.1-2.7,6.6-4,10.4-4c4.6,0,8.1,2.3,10.5,6.9l5,12.6c24.6-5.3,40.7-9.1,48.3-11.3C836.7,59.7,830.9,46.5,819.2,35.8z"/>
	<path class="st2" d="M111.3,19.5c-16.2,0-32.7,5.9-49.3,17.6C46.5,48.1,33.7,61.4,23.5,77.2C12,95,6.3,112.4,6.3,129.5
		c0,31.4,9.9,56,29.6,73.9c19,17.2,44.4,25.8,76.2,25.8c26.9,0,49.6-9.9,68.2-29.6c18.3-19.3,27.5-42.6,27.5-69.7
		c0-34.3-7.3-60.8-22-79.4C169.4,29.9,144.6,19.5,111.3,19.5z M137.7,145.5c-7.7,10.5-17.8,15.7-30.2,15.7
		c-11.5,0-20.8-3.2-27.9-9.4c-7.1-6.3-10.7-15.1-10.7-26.5c0-11.9,4.5-23.4,13.4-34.4c9.5-11.6,20.1-17.4,31.7-17.4
		c10.9,0,19.5,3.8,25.6,11.3c5.7,7,8.6,16,8.6,27.1C148.2,124.8,144.7,136,137.7,145.5z"/>
	<path class="st2" d="M555.6,146.5c17.9-9.9,30.6-21,37.9-33.2c7.3-12.2,11-28.4,11-48.7c0-15.5-8.1-27.4-24.1-35.5
		c-12.7-6.4-27.7-9.7-44.9-9.7c-29.8,0-55.2,6.2-76,18.7c-0.3,14.3-2.6,40.4-6.9,78.3c-3.2,29.7-4.8,55.8-4.6,78.3v28.3
		c4.2,3.8,11.8,5.7,22.9,5.7c1.8,0,4.5-0.1,8.2-0.3c3.6-0.2,6.4-0.3,8.2-0.3h4.2c3.9,0,6.9,0.3,9,1c4.1-0.6,6.4-10.4,6.9-29.4
		c0.4-17.4,0.7-29.1,0.8-35.3c3.6,5,6.4,9.4,8.4,13c10.1,18.6,16.9,31.2,20.4,37.8l6.5,12c9.5-0.4,20.2-2,31.9-4.8L607,215
		c-0.4-7.7-7.6-19.4-21.6-35.1L555.6,146.5z M534.6,103.9c-6.7,5-13.7,7.6-21,7.6c1.5-21.7,2.7-36,3.6-42.8c1.8-1.3,4.5-1.9,8-1.9
		c6,0,10.9,1.6,14.7,4.8c3.8,3.2,5.7,7.8,5.7,13.6C545.5,92.4,541.9,98.6,534.6,103.9z"/>
	<path class="st2" d="M403.6,21.6l-21.2,0.2c-18.9,0.1-30.2,1.9-33.8,5.2c0,5.3,0.9,15.9,2.7,31.7c1,8.3,1.5,15.2,1.5,20.8
		c0,20-1.5,37.2-4.4,51.7c-5,24.6-13.6,37-25.8,37c-17.6,0-26.5-18.8-26.5-56.5c0-13.6,0.2-28.8,0.6-45.6
		c0.6-22.4,0.8-37.6,0.6-45.6l-9.2-1l-46.8,3.2c0.4,3.1,0.3,7.1-0.4,12c-1,6.6-1.5,10.6-1.5,12.2v36.7c0,41.2,4.3,72.8,13,94.9
		c13.3,33.9,37,50.8,71.2,50.8c34,0,59-14.4,75-43.3c12.6-22.8,18.9-52.8,18.9-90.1C417.4,46.2,412.8,21.5,403.6,21.6z"/>
	<path d="M114,73.5c-11.6,0-22.2,5.8-31.7,17.4c-9,11.1-13.4,22.5-13.4,34.4c0,11.3,3.6,20.2,10.7,26.5c7.1,6.3,16.4,9.4,27.9,9.4
		c12.5,0,22.5-5.2,30.2-15.7c7-9.5,10.5-20.7,10.5-33.6c0-11.1-2.9-20.1-8.6-27.1C133.5,77.2,124.9,73.5,114,73.5z M133.3,141.1
		c-6.4,9.2-15,13.9-25.8,13.9c-7.4,0-14-1.7-19.7-5.2c-1.8-3.8-2.7-8.4-2.7-13.9c0-10.2,4.1-20.5,12.3-30.8
		c8.2-10.3,17.3-15.4,27.2-15.4c4.5,0,8.7,0.9,12.8,2.7c3.1,5.5,4.6,12,4.6,19.5C141.9,123.2,139.1,133,133.3,141.1z"/>
	<path d="M190.7,46.4c-17.5-22.1-44-33.2-79.4-33.2C93.8,13.2,76,19.6,58,32.3C41.6,43.8,28.1,57.9,17.6,74.5
		C5.9,93,0,111.3,0,129.5c0,33.2,10.6,59.2,31.9,78.1c1.5,1.1,2.9,2.3,4.2,3.6l2.7,2.7c21,21,48.9,31.5,83.8,31.5
		c28.6,0,52.7-10.4,72.4-31.3c19.3-20.3,29-44.9,29-73.7c0-40.5-9.9-70.6-29.8-90.5L190.7,46.4z M180.4,199.7
		c-18.6,19.7-41.4,29.6-68.2,29.6c-31.8,0-57.2-8.6-76.2-25.8c-19.7-17.9-29.6-42.6-29.6-73.9c0-17.1,5.7-34.5,17.2-52.3
		c10.2-15.8,23-29.2,38.4-40.1C78.6,25.4,95,19.5,111.3,19.5c33.3,0,58.2,10.4,74.5,31.1c14.7,18.6,22,45.1,22,79.4
		C207.9,157.1,198.7,180.3,180.4,199.7z"/>
	<path d="M413.6,22.2c-2.8-4.6-6.1-6.9-9.9-6.9h-0.2l-21.2,0.2c-20.3,0.1-33.7,3.1-40.1,8.8c0,6.2,0.7,15.4,2.1,27.6
		c1.4,12.3,2.1,21.5,2.1,27.6c0,20.3-1.4,37.1-4.2,50.4c-4.5,21.3-11.1,31.9-19.7,31.9c-1.8,0-3.4-0.2-4.8-0.6
		c-3.6-8.1-5.5-21.1-5.5-39.1c0-9.2,0.2-23.2,0.6-41.8c0.4-18.6,0.6-32.5,0.6-41.8V26l-9.9-9.9v-1.3l-15.3-1.7l-54.6,3.6
		c1,5,1.5,8.1,1.5,9.2c0,1.1-0.3,3.7-0.8,7.8c-0.8,6-1.3,10.4-1.3,13v36.7c0,70.4,13.8,116,41.4,136.7l4,4
		c14.1,14.1,32.7,21.2,55.6,21.2c36.3,0,62.9-15.4,80-46.2c13-23.5,19.5-54.5,19.5-92.8c0-43.3-4.1-68.9-12.4-76.8L413.6,22.2z
		 M398.5,186c-16,28.8-40.9,43.3-75,43.3c-34.2,0-57.9-16.9-71.2-50.8c-8.7-22.1-13-53.8-13-94.9V46.8c0-1.5,0.5-5.6,1.5-12.2
		c0.7-4.9,0.8-8.9,0.4-12l46.8-3.2l9.2,1c0.1,8-0.1,23.2-0.6,45.6c-0.4,16.8-0.6,32-0.6,45.6c0,37.7,8.8,56.5,26.5,56.5
		c12.2,0,20.8-12.3,25.8-37c2.9-14.4,4.4-31.6,4.4-51.7c0-5.6-0.5-12.5-1.5-20.8c-1.8-15.8-2.7-26.4-2.7-31.7
		c3.6-3.4,14.9-5.1,33.8-5.2l21.2-0.2c9.2-0.1,13.9,24.6,13.9,74.3C417.4,133.2,411.1,163.2,398.5,186z"/>
	<path d="M539.8,71.6c-3.8-3.2-8.7-4.8-14.7-4.8c-3.5,0-6.2,0.6-8,1.9c-0.8,6.9-2,21.1-3.6,42.8c7.3,0,14.3-2.5,21-7.6
		c7.3-5.3,10.9-11.5,10.9-18.7C545.5,79.3,543.6,74.8,539.8,71.6z M539.2,85.2c0,4.6-2.6,9-7.8,13.2c0.3-3.4,0.8-8.5,1.5-15.3
		c0.6-0.1,1.5-0.2,2.7-0.2c1.1,0,2.2,0.1,3.4,0.4c0,0.3,0.1,0.6,0.2,0.8V85.2z"/>
	<path d="M574.9,158.7c16.7-9.9,28.6-21.5,35.7-34.6c6.7-12.7,10.1-29,10.1-48.9c0-12-4.1-22-12.2-29.8l-5-4.8
		c-4.6-6.7-11.4-12.4-20.4-17c-13.3-6.9-29.2-10.3-47.7-10.3c-31.2,0-58.7,7.1-82.3,21.4c-0.3,16.4-2.6,43.5-6.9,81.3
		c-3.2,28-4.8,53-4.8,75v4l0.2,31.1c0.8,0.7,2.2,1.7,4,2.9l7.1,7.3c5.7,5.9,15.3,8.8,28.6,8.8h2.7c1.3,0,2.6-0.1,4-0.2h0.4
		c1,0,2.5-0.1,4.6-0.2c2.1-0.1,3.6-0.2,4.6-0.2h4.2c3.2,0,6,0.4,8.4,1.3c8.8-1.4,13.2-13.1,13.2-35.1v-6.9c0,0.3,0.1,0.6,0.4,0.8
		c5.9,11.5,11.2,21.3,16,29.4h1.1l9.9,9.9c11.8-0.6,23.9-2.3,36.3-5.2l36.3-8.6c-0.6-12.2-8.3-26.6-23.3-43.3L574.9,158.7z
		 M575.3,222.5c-11.8,2.8-22.4,4.4-31.9,4.8l-6.5-12c-3.5-6.6-10.3-19.2-20.4-37.8c-2-3.6-4.8-8-8.4-13c-0.1,6.2-0.4,17.9-0.8,35.3
		c-0.6,19-2.9,28.8-6.9,29.4c-2.1-0.7-5.1-1-9-1h-4.2c-1.8,0-4.6,0.1-8.2,0.3c-3.6,0.2-6.4,0.3-8.2,0.3c-11.1,0-18.7-1.9-22.9-5.7
		v-28.3c-0.1-22.5,1.4-48.6,4.6-78.3c4.3-37.9,6.6-64,6.9-78.3c20.9-12.5,46.2-18.7,76-18.7c17.2,0,32.2,3.2,44.9,9.7
		c16.1,8.1,24.1,19.9,24.1,35.5c0,20.3-3.7,36.5-11,48.7c-7.3,12.2-20,23.2-37.9,33.2l29.8,33.4c14,15.7,21.2,27.4,21.6,35.1
		L575.3,222.5z"/>
	<path d="M833.1,42.4c-0.1-0.1-0.4-0.3-0.7-0.5l0.2,0.2L833.1,42.4z"/>
	<path d="M832.5,42l0.2,0.1l-0.2-0.2c0,0-0.1-0.1-0.1-0.1L832.5,42z"/>
	<path d="M854.8,89c-0.3-8.1-2.2-16.3-5.8-24.5c-3.6-8.2-8.2-14.9-14-20.3l-2.4-2.2l-0.2-0.1l-0.2-0.2c0,0,0.1,0.1,0.1,0.1l-0.5-0.5
		c-13.3-18.6-31.4-27.9-54.2-27.9c-23.8,0-42.9,6.2-57.3,18.5c-14.4,12.3-23.2,30.2-26.5,53.8c2,17.4,9.6,31.8,22.9,43.5
		c0.3,0.3,1,0.9,2.1,1.9l5.2,5c0.1,0.4,0.6,0.8,1.3,1l0.8,0.8c1.5,1.5,7.3,5.9,17.2,13h-27.7h-4.4c-4.8-0.1-6.8-0.2-6.1-0.2h-10.5
		l-6.1,4.6c-1.5,5.2-2.3,13.3-2.3,24.4c0,21.1,6.3,36,18.9,44.5l5.5,5.5c10.5,10.5,29.7,15.7,57.7,15.7c20.3,0,37.2-6.4,50.8-19.1
		l-0.2-0.2c13.7-12.6,20.6-29,20.6-49.1c0-20.7-6.2-37.5-18.7-50.4l-0.8-0.6h0.2l-4.2-4.2c-0.3-0.4-2-2.4-5.2-6.1
		c-4.3-4.1-9.4-8-15.1-11.8c7.8-1.3,21.2-4.3,40.1-9L854.8,89z M788.4,86.9l-5-12.6c-2.4-4.6-5.9-6.9-10.5-6.9
		c-3.8,0-7.2,1.3-10.4,4c-3.1,2.7-4.7,5.9-4.7,9.7c0,5.6,5.7,11.5,17,17.6c15.4,8.4,26,15.5,31.7,21.4c11.3,11.8,17,27.2,17,46.4
		c0,18.9-6.2,34.1-18.5,45.6c-12.3,11.5-28,17.2-47,17.2c-21,0-36.5-2.9-46.4-8.6c-12.6-7.3-18.9-20.9-18.9-40.9
		c0-10.1,0.7-17.6,2.1-22.7c5.3,0.1,11.8,0.2,19.3,0.2h26c0.8,5,1.5,8.3,1.9,9.7c1.3,4.1,3.4,8.1,6.3,12c0.7,0.1,1.3,0.2,1.9,0.2
		h2.1c9.4,0,14.1-4.8,14.1-14.5c0-5.6-5.3-12-16-19.1c-5.3-3.5-10.6-7-15.7-10.5c-6-4.2-11-8.1-14.9-11.8
		c-11.3-10.6-17.8-23.1-19.5-37.4c2.9-21.6,11.1-38,24.5-49.2c13.4-11.3,31-16.9,53-16.9c16,0,29.8,5.4,41.5,16.1
		c11.7,10.7,17.5,24,17.5,39.8c0.1,0,0.3,0.1,0.4,0.2l-0.4,0.4v-0.6C829.1,77.8,813,81.6,788.4,86.9z M794.1,102.6
		c-4.8-3.1-10.2-6.3-16.4-9.7c-1.5-0.6-2.8-1.2-3.8-1.9c0.3-3.6,2.4-5.9,6.5-6.9l4,10.1c0.4,0,0.8-0.1,1-0.2L794.1,102.6z
		 M745.8,152.6c3.9,2.9,7.9,5.6,12,8c0.3,0.3,0.8,0.7,1.5,1.3c0.6,1.1,0.8,2,0.8,2.7c0,3.5-1,5.9-3.1,7.1c-0.1-0.7-0.4-2.1-0.6-4.2
		l-0.8-5.5L745.8,152.6z"/>
	<path d="M1028,23.9c-0.1-0.8-0.5-1.6-1-2.3c-8.4-0.3-22.3-1.3-41.8-2.9c-17.9-1.5-31.8-2.3-41.8-2.3c-32.8,0-57.9,1.3-75.4,4
		c-1.1,7.1-2,12.8-2.7,17l-5.5,32.3c0,0.4-0.6,4.1-1.7,11.1c0.4,0,1,0.1,1.9,0.4l9.4,9.4l18.1,2.3c0.8,0.1,5.9,0.9,15.3,2.3
		l-9.4,141.1h0.4c0.3-0.1,0.5-0.2,0.6-0.2l10.1,10.1l16-1.5c10.1-1,26-2.3,47.7-4c6.7-0.6,12.7-1.2,17.8-1.9c0-0.1-0.5-5.6-1.5-16.4
		l-1.7-18.7c-1.3-14.1-2.2-27.7-2.7-40.7l-2.7-64.9h16.8c2,0,6.9-0.1,14.7-0.2l23.5-0.4c1.4,0,3.7-0.1,6.9-0.2
		c1.4-10.6,2.1-22.7,2.1-36.3c0-14-1.5-23.4-4.4-28.3L1028,23.9z M1023.8,81.4c-8.5,0.6-29.5,0.8-62.8,0.6l2.9,70.8
		c1,24.6,2.7,48.2,5.2,70.6c-7.7,1.1-19.2,2.2-34.6,3.1c-9.1,0.6-20.6,1.5-34.4,2.7l10.1-147.8c-9.9-1.4-24.8-3.4-44.5-6.1
		c2.1-12.2,4.8-28.6,8-49.3c15.7-2.2,38.9-3.4,69.7-3.4c7.3,0,20.6,0.8,40.1,2.3l28.8,2.3c4.5,0.3,8.2,0.5,11.1,0.6
		c1.3,2.1,1.9,9.7,1.9,22.7C1025.3,64.7,1024.8,75,1023.8,81.4z"/>
	<path d="M1233.1,46.4c-17.5-22.1-44-33.2-79.4-33.2c-17.5,0-35.3,6.4-53.3,19.1c-16.4,11.5-29.8,25.5-40.3,42.2
		c-11.8,18.5-17.6,36.8-17.6,55c0,33.2,10.6,59.2,31.9,78.1c1.5,1.1,2.9,2.3,4.2,3.6l2.7,2.7c21,21,48.9,31.5,83.8,31.5
		c28.6,0,52.7-10.4,72.4-31.3c19.3-20.3,29-44.9,29-73.7c0-40.5-9.9-70.6-29.8-90.5L1233.1,46.4z M1222.8,199.7
		c-18.6,19.7-41.4,29.6-68.2,29.6c-31.8,0-57.2-8.6-76.2-25.8c-19.7-17.9-29.6-42.6-29.6-73.9c0-17.1,5.7-34.5,17.2-52.3
		c10.2-15.8,23-29.2,38.4-40.1c16.7-11.8,33.1-17.6,49.3-17.6c33.3,0,58.2,10.4,74.5,31.1c14.7,18.6,22,45.1,22,79.4
		C1250.3,157.1,1241.2,180.3,1222.8,199.7z"/>
	<path d="M1156.5,73.5c-11.6,0-22.2,5.8-31.7,17.4c-9,11.1-13.4,22.5-13.4,34.4c0,11.3,3.6,20.2,10.7,26.5
		c7.1,6.3,16.4,9.4,27.9,9.4c12.5,0,22.5-5.2,30.2-15.7c7-9.5,10.5-20.7,10.5-33.6c0-11.1-2.9-20.1-8.6-27.1
		C1175.9,77.2,1167.4,73.5,1156.5,73.5z M1175.8,141.1c-6.4,9.2-15,13.9-25.8,13.9c-7.4,0-14-1.7-19.7-5.2
		c-1.8-3.8-2.7-8.4-2.7-13.9c0-10.2,4.1-20.5,12.3-30.8c8.2-10.3,17.3-15.4,27.2-15.4c4.5,0,8.7,0.9,12.8,2.7
		c3.1,5.5,4.6,12,4.6,19.5C1184.4,123.2,1181.5,133,1175.8,141.1z"/>
	<path d="M1407.4,158.7c16.7-9.9,28.6-21.5,35.7-34.6c6.7-12.7,10.1-29,10.1-48.9c0-12-4.1-22-12.2-29.8l-5-4.8
		c-4.6-6.7-11.4-12.4-20.4-17c-13.3-6.9-29.2-10.3-47.7-10.3c-31.2,0-58.7,7.1-82.3,21.4c-0.3,16.4-2.6,43.5-6.9,81.3
		c-3.2,28-4.8,53-4.8,75v4l0.2,31.1c0.8,0.7,2.2,1.7,4,2.9l7.1,7.3c5.7,5.9,15.3,8.8,28.6,8.8h2.7c1.3,0,2.6-0.1,4-0.2h0.4
		c1,0,2.5-0.1,4.6-0.2c2.1-0.1,3.6-0.2,4.6-0.2h4.2c3.2,0,6,0.4,8.4,1.3c8.8-1.4,13.2-13.1,13.2-35.1v-6.9c0,0.3,0.1,0.6,0.4,0.8
		c5.9,11.5,11.2,21.3,16,29.4h1l9.9,9.9c11.8-0.6,23.9-2.3,36.3-5.2l36.3-8.6c-0.6-12.2-8.3-26.6-23.3-43.3L1407.4,158.7z
		 M1407.8,222.5c-11.8,2.8-22.4,4.4-31.9,4.8l-6.5-12c-3.5-6.6-10.3-19.2-20.4-37.8c-2-3.6-4.8-8-8.4-13c-0.1,6.2-0.4,17.9-0.8,35.3
		c-0.6,19-2.9,28.8-6.9,29.4c-2.1-0.7-5.1-1-9-1h-4.2c-1.8,0-4.6,0.1-8.2,0.3c-3.6,0.2-6.4,0.3-8.2,0.3c-11.1,0-18.7-1.9-22.9-5.7
		v-28.3c-0.1-22.5,1.4-48.6,4.6-78.3c4.3-37.9,6.6-64,6.9-78.3c20.9-12.5,46.2-18.7,76-18.7c17.2,0,32.2,3.2,44.9,9.7
		c16.1,8.1,24.1,19.9,24.1,35.5c0,20.3-3.7,36.5-11,48.7c-7.3,12.2-20,23.2-37.9,33.2l29.8,33.4c14,15.7,21.2,27.4,21.6,35.1
		L1407.8,222.5z"/>
	<path d="M1372.3,71.6c-3.8-3.2-8.7-4.8-14.7-4.8c-3.5,0-6.2,0.6-8,1.9c-0.8,6.9-2,21.1-3.6,42.8c7.3,0,14.3-2.5,21-7.6
		c7.3-5.3,10.9-11.5,10.9-18.7C1378,79.3,1376.1,74.8,1372.3,71.6z M1371.7,85.2c0,4.6-2.6,9-7.8,13.2c0.3-3.4,0.8-8.5,1.5-15.3
		c0.6-0.1,1.5-0.2,2.7-0.2c1.1,0,2.2,0.1,3.4,0.4c0,0.3,0.1,0.6,0.2,0.8V85.2z"/>
	<path d="M1681.2,12.4c-26.7,2.9-55.7,4.7-86.9,5.2l-10.9,27.3c-3.1,7.6-5.9,14.4-8.4,20.6c-0.6-1.4-1.5-3.1-2.9-5.3
		c-8-12-14.4-20.3-19.3-24.8l-1.9-1.7l-5.2-6.3c-1.3-1.5-3.1-3.4-5.7-5.7l-1.3-0.4l-0.2-0.2l0.6-1.3h-1.3c-2,0-5.4,0.3-10.3,0.8
		l-23.9,2.7c-9.5,1.1-16.9,2-22,2.7c-8.1,1.1-15.4,2.6-21.8,4.4l8.8,11.8c11.9,16,23.2,30.4,34,43.5l37,44.9l0.6,90.1
		c0,4.8-0.3,8.5-0.8,11.3l15.3,14.5c0.3,0,1,0,1.9,0c2,0,3.1,0,3.4,0h2.3c4.1,0,7.4-0.1,10.1-0.3l27.3-1.8c5.2-0.3,8.3-0.5,9.4-0.5
		c5.6,0,12.7,0.8,21.4,2.5c1.3-8.6,1.9-15,1.9-19.4c0-45.3-2-74.7-6.1-88.1l0.8,0.4l8.6-16.2c0.7-1.4,2.1-4,4.2-7.8
		c4.8-7.7,15.8-24.8,33.2-51.4c9-13.7,14.9-27.3,17.8-40.7l-9.9-9.9C1681,13.1,1681.1,12.6,1681.2,12.4z M1657.9,50.6l-33.4,51.4
		c-1.3,1.8-5.6,10-13,24.6l0.6-0.6c2.7,0,4,30.2,4,90.7c0,3.1-0.4,7.3-1,12.6c-4.2-0.8-9.7-1.3-16.6-1.3c-1.3,0-4.5,0.1-9.7,0.4
		l-27.3,1.5c-2,0.1-4.8-0.1-8.4-0.8c-3.6-0.7-6.3-1-8-1c0.8-3.2,1.3-5.6,1.3-7.1v-18.5c0-3.2-0.1-12.5-0.2-27.9l-0.4-46l-38.4-46.6
		c-12.9-15.5-25.3-31.4-37.2-47.7c2.9-0.7,14.3-2.2,34-4.4c16.3-1.9,26.7-3,31.2-3.4c-1.1-0.1-1.8-0.3-2-0.6h2.1
		c1,0.1,1.8,0.3,2.5,0.4c-0.1,0-1,0-2.6,0.2c0.1,0,0.2,0,0.3,0c7.1,6.9,14.1,15.6,21,26.2c2.9,4.6,9,14.1,18.1,28.6
		c5.5-11.1,13.4-30.2,23.9-57.3c29-0.7,53.8-2.2,74.5-4.4C1671.7,26.9,1666.6,37.3,1657.9,50.6z"/>
	<path d="M1538,26.2c-0.7-0.1-1.5-0.3-2.5-0.4h-2.1c0.3,0.3,0.9,0.5,2,0.6C1537,26.2,1537.9,26.2,1538,26.2z"/>
</g>
</svg>
