<?xml version="1.0" encoding="utf-8"?>
<!-- Generator: Adobe Illustrator 25.2.0, SVG Export Plug-In . SVG Version: 6.00 Build 0)  -->
<svg version="1.1" id="Layer_1" xmlns="http://www.w3.org/2000/svg" xmlns:xlink="http://www.w3.org/1999/xlink" x="0px" y="0px"
	 viewBox="0 0 99.6 15.4" style="enable-background:new 0 0 99.6 15.4;" xml:space="preserve">
<style type="text/css">
	.st0{fill:#F04A23;}
	.st1{fill:#FABC2A;}
</style>
<g>
	<path class="st0" d="M33.9,8.4c1-0.6,1.7-1.2,2.2-1.9c0.4-0.7,0.6-1.6,0.6-2.8c0-0.9-0.5-1.6-1.4-2c-0.7-0.4-1.6-0.6-2.6-0.6
		c-1.7,0-3.2,0.4-4.3,1.1c0,0.8-0.1,2.3-0.4,4.5c-0.2,1.7-0.3,3.2-0.3,4.5v1.6c0.2,0.2,0.7,0.3,1.3,0.3c0.1,0,0.3,0,0.5,0
		s0.4,0,0.5,0h0.2c0.2,0,0.4,0,0.5,0.1c0.2,0,0.4-0.6,0.4-1.7c0-1,0-1.7,0-2c0.2,0.3,0.4,0.5,0.5,0.7c0.6,1.1,1,1.8,1.2,2.2l0.4,0.7
		c0.5,0,1.2-0.1,1.8-0.3l1.8-0.4c0-0.4-0.4-1.1-1.2-2L33.9,8.4z M32.7,6c-0.4,0.3-0.8,0.4-1.2,0.4c0.1-1.2,0.2-2.1,0.2-2.4
		c0.1-0.1,0.3-0.1,0.5-0.1c0.3,0,0.6,0.1,0.8,0.3c0.2,0.2,0.3,0.4,0.3,0.8C33.3,5.3,33.1,5.7,32.7,6z"/>
	<path class="st1" d="M50.6,1.1c-0.9,0-1.9,0.3-2.8,1c-0.9,0.6-1.6,1.4-2.2,2.3c-0.7,1-1,2-1,3c0,1.8,0.6,3.2,1.7,4.2
		c1.1,1,2.5,1.5,4.4,1.5c1.5,0,2.8-0.6,3.9-1.7c1-1.1,1.6-2.4,1.6-4c0-2-0.4-3.5-1.3-4.5C53.9,1.7,52.5,1.1,50.6,1.1z M52.1,8.3
		c-0.4,0.6-1,0.9-1.7,0.9S49.2,9,48.8,8.7c-0.4-0.4-0.6-0.9-0.6-1.5c0-0.7,0.3-1.3,0.8-2s1.1-1,1.8-1c0.6,0,1.1,0.2,1.5,0.6
		c0.3,0.4,0.5,0.9,0.5,1.5C52.7,7.2,52.5,7.8,52.1,8.3z"/>
	<path class="st1" d="M63.2,1.1c-1.6,0-3.3,0.1-5.1,0.4c0,1.5,0,3.9-0.1,7.2L57.8,13c0.5,0,1,0,1.6-0.1c0.8-0.1,1.3-0.3,1.4-0.5
		v-1.7c0-0.1,0-0.3,0-0.4V9.7c0-0.3,0-0.5,0-0.6c0-0.2,0-0.4,0-0.5h1.4c0.7,0,1.1-0.1,1.1-0.3c0-0.3-0.1-1.1-0.2-2.4
		c0,0-0.4-0.1-1-0.1s-0.9-0.1-1-0.2V5.3C61,4.8,61,4.4,61.1,4c0.4-0.1,1-0.2,1.7-0.2c0.9-0.1,1.4-0.1,1.7-0.2V2.3
		c0-0.5-0.1-0.9-0.3-1.2C64.2,1.1,63.2,1.1,63.2,1.1z"/>
	<path class="st1" d="M71.3,1.1c-1.6,0-3.3,0.1-5.1,0.4c0,1.5,0,3.9-0.1,7.2L66,13c0.5,0,1,0,1.6-0.1c0.8-0.1,1.3-0.3,1.4-0.5v-1.7
		c0-0.1,0-0.3,0-0.4V9.7c0-0.3,0-0.5,0-0.6c0-0.2,0-0.4,0-0.5h1.4c0.7,0,1.1-0.1,1.1-0.3c0-0.3-0.1-1.1-0.2-2.4c0,0-0.4-0.1-1-0.1
		s-0.9-0.1-1-0.2V5.3c0-0.5,0.1-0.9,0.2-1.3c0.4-0.1,1-0.2,1.7-0.2c0.9-0.1,1.4-0.1,1.7-0.2V2.3c0-0.5-0.1-0.9-0.3-1.2
		C72.6,1.1,71.3,1.1,71.3,1.1z"/>
	<path class="st0" d="M25.2,1.3H24c-1.1,0-1.7,0.1-1.9,0.3c0,0.3,0.1,0.9,0.2,1.8c0.1,0.5,0.1,0.9,0.1,1.2c0,1.1-0.1,2.1-0.3,3
		c-0.3,1.4-0.8,2.1-1.5,2.1c-1,0-1.5-1.1-1.5-3.2c0-0.8,0-1.6,0-2.6c0-1.3,0-2.1,0-2.6l-0.5-0.1l-2.7,0.2c0,0.2,0,0.4,0,0.7
		c-0.1,0.4-0.1,0.6-0.1,0.7v2.1c0,2.4,0.2,4.2,0.7,5.4c0.8,1.9,2.1,2.9,4.1,2.9c1.9,0,3.4-0.8,4.3-2.5c0.7-1.3,1.1-3,1.1-5.1
		C26,2.7,25.7,1.3,25.2,1.3z"/>
	<path class="st0" d="M8.5,1.1c-0.9,0-1.9,0.3-2.8,1S4,3.5,3.5,4.4c-0.7,1-1,2-1,3c0,1.8,0.6,3.2,1.7,4.2s2.5,1.5,4.4,1.5
		c1.5,0,2.8-0.6,3.9-1.7c1-1.1,1.6-2.4,1.6-4c0-2-0.4-3.5-1.3-4.5C11.8,1.7,10.4,1.1,8.5,1.1z M10,8.3C9.6,8.9,9,9.2,8.3,9.2
		S7.1,9,6.7,8.7C6.3,8.3,6.1,7.8,6.1,7.2c0-0.7,0.3-1.3,0.8-2s1.1-1,1.8-1c0.6,0,1.1,0.2,1.5,0.6c0.3,0.4,0.5,0.9,0.5,1.5
		C10.6,7.2,10.4,7.8,10,8.3z"/>
	<path class="st1" d="M77.7,1.7c-0.5-0.4-1.1-0.6-1.7-0.6s-1.1,0.2-1.4,0.7c-0.3,0.4-0.5,0.9-0.5,1.5s0.2,1,0.7,1.3
		C75.2,4.9,75.7,5,76.3,5s1.1-0.2,1.5-0.5c0.5-0.3,0.7-0.8,0.7-1.4C78.6,2.6,78.3,2.1,77.7,1.7z"/>
	<path class="st1" d="M84.5,9.3c-0.9-0.4-1.3-1.1-1.3-2.2c0-0.4,0.1-0.8,0.2-1.2c0.2-0.5,0.4-0.8,0.8-1c0.2-0.2,0.7-0.3,1.3-0.5
		C86,4.1,86.5,4,86.8,4c0.2-0.4,0.5-1,0.7-1.6l0.2-0.6C87.6,1.3,87,1.1,86,1.1c-1.7,0-3.1,0.8-4.2,2.3c-1.1,1.4-1.6,3-1.6,4.7
		c0,1.3,0.4,2.5,1.3,3.5s2,1.5,3.3,1.5c0.9,0,2-0.5,3.1-1.4l-0.7-2.1C86,9.7,85.1,9.6,84.5,9.3z"/>
	<path class="st1" d="M90.5,1.2c0,0.3-0.1,0.7-0.2,1.1C90,4,89.8,5.8,89.7,7.6L89.5,13c0.7,0.1,1.1,0.1,1.2,0.1l5.1-0.1v-2.5
		c0-0.2-0.5-0.3-1.4-0.3c-0.9-0.1-1.5-0.1-2-0.2V8.6c0.1,0,0.3-0.1,0.5-0.1l0.6-0.1c0.6-0.1,0.9-0.2,1.1-0.3c0.2-0.4,0.3-1.1,0.3-2
		L93,5.8c0-0.7,0-1.3,0.1-1.6c0.2,0,0.5,0,0.8,0c0.8,0,1.6-0.1,2.5-0.2l0.2-2.6c-0.7-0.1-1.7-0.2-3-0.2C93.6,1.2,90.5,1.2,90.5,1.2z
		"/>
	<path class="st1" d="M78,7.9c0-0.7,0-1.3,0-1.7V6.1c-2,0-3.1,0-3.3,0.1c-0.2,1.5-0.3,3.1-0.3,4.7v1.6v1.2c1.2,0,2.4-0.2,3.5-0.6
		c0.1-1,0.1-2.2,0.1-3.5c0-0.3,0-0.6,0-0.7L78,7.9z"/>
	<path d="M8.6,4.2c-0.7,0-1.3,0.3-1.8,1C6.3,5.8,6,6.5,6,7.2c0,0.6,0.2,1.2,0.6,1.5C7,9.1,7.5,9.2,8.2,9.2C9,9.2,9.6,8.9,10,8.3
		c0.4-0.5,0.6-1.2,0.6-1.9c0-0.6-0.2-1.1-0.5-1.5C9.8,4.4,9.3,4.2,8.6,4.2z M9.7,8.1C9.4,8.6,8.9,8.9,8.3,8.9
		c-0.4,0-0.8-0.1-1.1-0.3C7,8.4,7,8.1,7,7.8C7,7.2,7.2,6.6,7.7,6s1-0.9,1.6-0.9c0.3,0,0.5,0.1,0.7,0.2c0.2,0.3,0.3,0.7,0.3,1.1
		C10.2,7.1,10.1,7.6,9.7,8.1z"/>
	<path d="M13,2.7c-1-1.3-2.5-1.9-4.5-1.9c-1,0-2,0.4-3,1.1c-1,0.6-1.8,1.4-2.4,2.4c-0.7,1.1-1,2.1-1,3.1c0,1.9,0.6,3.4,1.8,4.5
		C4,12,4.1,12,4.2,12.1l0.2,0.2c1.2,1.2,2.8,1.8,4.8,1.8c1.6,0,3-0.6,4.1-1.8S15,9.7,15,8.1c0-2.3-0.6-4-1.7-5.2L13,2.7z M12.4,11.4
		c-1.1,1.1-2.4,1.7-3.9,1.7c-1.8,0-3.3-0.5-4.4-1.5S2.4,9.2,2.4,7.4c0-1,0.3-2,1-3C4,3.5,4.8,2.8,5.7,2.1c1-0.7,1.9-1,2.8-1
		c1.9,0,3.3,0.6,4.3,1.8C13.6,4,14,5.5,14,7.5C14,9,13.5,10.3,12.4,11.4z"/>
	<path d="M25.8,1.3c-0.2-0.3-0.3-0.4-0.6-0.4l0,0H24c-1.2,0-1.9,0.2-2.3,0.5c0,0.4,0,0.9,0.1,1.6s0.1,1.2,0.1,1.6
		c0,1.2-0.1,2.1-0.2,2.9c-0.3,1.2-0.6,1.8-1.1,1.8c-0.1,0-0.2,0-0.3,0C20.1,8.8,20,8,20,7c0-0.5,0-1.3,0-2.4s0-1.9,0-2.4V1.5
		l-0.6-0.6l0,0l-0.9-0.1l-3,0.2c0.1,0.3,0.1,0.5,0.1,0.5s0,0.2,0,0.4c0,0.3-0.1,0.6-0.1,0.7v2.1c0,4,0.8,6.6,2.4,7.8l0.2,0.2
		c0.8,0.8,1.9,1.2,3.2,1.2c2.1,0,3.6-0.9,4.6-2.6C26.6,10,27,8.2,27,6c0-2.5-0.2-3.9-0.7-4.4L25.8,1.3z M24.9,10.7
		c-0.9,1.6-2.3,2.5-4.3,2.5s-3.3-1-4.1-2.9C16,9,15.8,7.2,15.8,4.9V2.7c0-0.1,0-0.3,0.1-0.7c0-0.3,0-0.5,0-0.7l2.7-0.2l0.5,0.1
		c0,0.5,0,1.3,0,2.6c0,1,0,1.8,0,2.6c0,2.2,0.5,3.2,1.5,3.2c0.7,0,1.2-0.7,1.5-2.1c0.2-0.8,0.3-1.8,0.3-3c0-0.3,0-0.7-0.1-1.2
		C22.1,2.5,22,1.9,22,1.6c0.2-0.2,0.9-0.3,1.9-0.3h1.2c0.5,0,0.8,1.4,0.8,4.2C26,7.6,25.6,9.4,24.9,10.7z"/>
	<path d="M32.1,3.8c-0.2,0-0.4,0-0.5,0.1c0,0.4-0.1,1.2-0.2,2.4c0.4,0,0.8-0.1,1.2-0.4s0.6-0.7,0.6-1.1c0-0.3-0.1-0.6-0.3-0.8
		C32.8,3.9,32.5,3.8,32.1,3.8z M32.9,4.9c0,0.3-0.1,0.5-0.4,0.8c0-0.2,0-0.5,0.1-0.9c0,0,0.1,0,0.2,0C32.9,4.8,32.9,4.8,32.9,4.9
		C32.9,4.8,32.9,4.8,32.9,4.9L32.9,4.9z"/>
	<path d="M35,9.1c1-0.6,1.6-1.2,2-2c0.4-0.7,0.6-1.7,0.6-2.8c0-0.7-0.2-1.3-0.7-1.7l-0.3-0.3c-0.3-0.4-0.7-0.7-1.2-1
		c-0.8-0.4-1.7-0.6-2.7-0.6c-1.8,0-3.4,0.4-4.7,1.2c0,0.9-0.1,2.5-0.4,4.6c-0.2,1.6-0.3,3-0.3,4.3V11v1.8c0,0,0.1,0.1,0.2,0.2
		l0.4,0.4c0.3,0.3,0.9,0.5,1.6,0.5h0.2c0.1,0,0.1,0,0.2,0l0,0c0.1,0,0.1,0,0.3,0s0.2,0,0.3,0h0.2c0.2,0,0.3,0,0.5,0.1
		c0.5-0.1,0.8-0.7,0.8-2v-0.4l0,0c0.3,0.7,0.6,1.2,0.9,1.7H33l0.6,0.6c0.7,0,1.4-0.1,2.1-0.3l2.1-0.5c0-0.7-0.5-1.5-1.3-2.5L35,9.1z
		 M35,12.7c-0.7,0.2-1.3,0.3-1.8,0.3l-0.4-0.7c-0.2-0.4-0.6-1.1-1.2-2.2c-0.1-0.2-0.3-0.5-0.5-0.7c0,0.4,0,1,0,2
		c0,1.1-0.2,1.6-0.4,1.7c-0.1,0-0.3-0.1-0.5-0.1H30c-0.1,0-0.3,0-0.5,0s-0.4,0-0.5,0c-0.6,0-1.1-0.1-1.3-0.3v-1.6
		c0-1.3,0.1-2.8,0.3-4.5c0.2-2.2,0.4-3.7,0.4-4.5C29.6,1.4,31,1,32.7,1c1,0,1.8,0.2,2.6,0.6c0.9,0.5,1.4,1.1,1.4,2
		c0,1.2-0.2,2.1-0.6,2.8c-0.4,0.7-1.1,1.3-2.2,1.9l1.7,1.9c0.8,0.9,1.2,1.6,1.2,2L35,12.7z"/>
	<path d="M50.7,4.2c-0.7,0-1.3,0.3-1.8,1c-0.5,0.6-0.8,1.3-0.8,2c0,0.6,0.2,1.2,0.6,1.5c0.4,0.4,0.9,0.5,1.6,0.5
		c0.7,0,1.3-0.3,1.7-0.9c0.4-0.5,0.6-1.2,0.6-1.9c0-0.6-0.2-1.1-0.5-1.5C51.8,4.4,51.4,4.2,50.7,4.2z M51.8,8.1
		c-0.4,0.5-0.9,0.8-1.5,0.8c-0.4,0-0.8-0.1-1.1-0.3C49.1,8.4,49,8.1,49,7.8c0-0.6,0.2-1.2,0.7-1.8s1-0.9,1.6-0.9
		c0.3,0,0.5,0.1,0.7,0.2c0.2,0.3,0.3,0.7,0.3,1.1C52.3,7.1,52.2,7.6,51.8,8.1z"/>
	<path d="M55.1,2.7c-1-1.3-2.5-1.9-4.5-1.9c-1,0-2,0.4-3,1.1c-0.9,0.7-1.7,1.5-2.3,2.4c-0.7,1.1-1,2.1-1,3.1c0,1.9,0.6,3.4,1.8,4.5
		c0.1,0.1,0.2,0.1,0.2,0.2l0.2,0.2c1.2,1.2,2.8,1.8,4.8,1.8c1.6,0,3-0.6,4.1-1.8s1.7-2.6,1.7-4.2c0-2.3-0.6-4-1.7-5.2L55.1,2.7z
		 M54.5,11.4c-1.1,1.1-2.4,1.7-3.9,1.7c-1.8,0-3.3-0.5-4.4-1.5c-1.1-1-1.7-2.4-1.7-4.2c0-1,0.3-2,1-3c0.6-0.9,1.3-1.7,2.2-2.3
		c1-0.7,1.9-1,2.8-1c1.9,0,3.3,0.6,4.3,1.8c0.8,1.1,1.3,2.6,1.3,4.5C56.1,9,55.6,10.3,54.5,11.4z"/>
	<path d="M64.5,0.9c0,0,0-0.1-0.1-0.1h-1.5c-1.5,0-3.3,0.1-5.3,0.4v1c0,0,0,0,0,0.2v0.1c0,1.6,0,3.6-0.1,6.2l0,2.3
		c0,0.4,0,0.8,0,1.3v0.5v0.6h0.1l0.6,0.6c0.7,0,1.4,0,2-0.1c0.9-0.1,1.4-0.4,1.7-0.7v-1.8c0-0.2,0-0.6-0.1-1.1c0-0.2,0-0.3,0-0.3
		V9.6h1.1c0.9,0,1.4-0.3,1.4-0.7c0-0.3-0.1-1.2-0.2-2.6l-0.6-0.6V5.6C63,5.5,62.6,5.4,62,5.4h-0.1c0-0.1,0-0.3,0.1-0.5
		c0.4-0.1,0.8-0.1,1.5-0.2l1.2-0.1c0.4,0,0.7-0.1,0.9-0.1V2.9c0-0.6-0.1-1.1-0.4-1.5L64.5,0.9z M64.5,3.6c-0.3,0-0.8,0.1-1.7,0.2
		c-0.7,0-1.3,0.1-1.7,0.2C61,4.4,61,4.8,61,5.3v0.3c0.1,0.1,0.5,0.2,1,0.2c0.6,0.1,1,0.1,1,0.1c0.1,1.3,0.2,2.1,0.2,2.4
		c0,0.2-0.4,0.3-1.1,0.3h-1.4c0,0.1,0,0.2,0,0.5c0,0.1,0,0.3,0,0.6v0.6c0,0.1,0,0.2,0,0.4v1.7c-0.2,0.2-0.6,0.4-1.4,0.5
		c-0.5,0.1-1,0.1-1.5,0.1L58,8.7c0.1-3.3,0.1-5.7,0.1-7.2c1.8-0.3,3.5-0.4,5.1-0.4h1.1c0.2,0.3,0.3,0.7,0.3,1.2L64.5,3.6L64.5,3.6z"
		/>
	<path d="M72.7,0.9c0,0,0-0.1-0.1-0.1h-1.5c-1.5,0-3.3,0.1-5.3,0.4v1c0,0,0,0,0,0.2v0.1c0,1.6,0,3.6-0.1,6.2V11c0,0.4,0,0.8,0,1.3
		v0.5v0.6h0.1l0.6,0.6c0.7,0,1.4,0,2-0.1c0.9-0.1,1.4-0.4,1.7-0.7v-1.8c0-0.2,0-0.6-0.1-1.1c0-0.2,0-0.3,0-0.3V9.6h1.1
		c0.9,0,1.4-0.3,1.4-0.7c0-0.3-0.1-1.2-0.2-2.6l-0.6-0.6V5.6c-0.3-0.1-0.8-0.2-1.3-0.2H70c0-0.1,0-0.3,0.1-0.5
		c0.4-0.1,0.8-0.1,1.5-0.2l1.2-0.1c0.4,0,0.7-0.1,0.9-0.1V2.9c0-0.6-0.1-1.1-0.4-1.5L72.7,0.9z M72.7,3.6c-0.3,0-0.8,0.1-1.7,0.2
		c-0.7,0-1.3,0.1-1.7,0.2c-0.1,0.4-0.2,0.8-0.2,1.3v0.3c0.1,0.1,0.5,0.2,1,0.2c0.6,0.1,1,0.1,1,0.1c0.1,1.3,0.2,2.1,0.2,2.4
		c0,0.2-0.4,0.3-1.1,0.3h-1.4c0,0.1,0,0.2,0,0.5c0,0.1,0,0.3,0,0.6v0.6c0,0.1,0,0.2,0,0.4v1.7c-0.2,0.2-0.6,0.4-1.4,0.5
		C67,13,66.5,13,66,13l0.1-4.3c0.1-3.3,0.1-5.7,0.1-7.2c1.8-0.3,3.5-0.4,5.1-0.4h1.1c0.2,0.3,0.3,0.7,0.3,1.2V3.6z"/>
	<path d="M78.5,2c-0.2-0.2-0.4-0.4-0.6-0.6c-0.6-0.4-1.2-0.6-2-0.6c-0.7,0-1.2,0.3-1.7,0.8c-0.4,0.5-0.6,1.1-0.6,1.8
		s0.3,1.2,0.9,1.7l0.3,0.3c0.2,0.2,0.5,0.4,0.7,0.5c-0.7,0-1.1,0.1-1.3,0.2C74.1,7.6,74,9.3,74,10.9v1.6l0.1,1.5h0.1l0.6,0.6
		c1.4,0,2.8-0.2,4.1-0.6c0.1-1.2,0.1-2.4,0.1-3.8c0-0.3,0-0.6,0-0.7v-1c0-0.7,0-1.2,0-1.7l0-0.4l-0.6-0.6V5.7l0,0
		c0.1,0,0.2-0.1,0.3-0.2c0.5-0.4,0.8-1,0.8-1.7c0-0.6-0.2-1.1-0.6-1.5L78.5,2z M78,13.2c-1.2,0.4-2.3,0.6-3.5,0.6v-1.2V11
		c0-1.6,0.1-3.2,0.3-4.7C74.9,6.1,76,6.1,78,6.1v0.1c0,0.5,0,1.1,0,1.7v1c0,0.2,0,0.4,0,0.7C78.1,11,78,12.2,78,13.2z M77.9,4.7
		C77.5,5,77,5.1,76.3,5.1c-0.6,0-1.1-0.1-1.5-0.4c-0.5-0.3-0.7-0.8-0.7-1.3c0-0.6,0.2-1.1,0.5-1.5C75,1.4,75.4,1.2,76,1.2
		c0.7,0,1.2,0.2,1.7,0.6c0.6,0.4,0.8,0.9,0.8,1.6C78.6,3.9,78.3,4.3,77.9,4.7z"/>
	<path d="M87.5,9.4L87.5,9.4l-0.2-0.1c-0.1,0-0.1,0-0.2,0h-0.3c-1.1,0-1.9-0.2-2.5-0.5c-0.2-0.3-0.2-0.7-0.2-1.1s0.1-0.8,0.2-1.1
		c0.2-0.4,0.4-0.7,0.6-0.9c0.2-0.2,0.7-0.3,1.3-0.5c0.6-0.2,1-0.3,1.4-0.3c0.1-0.2,0.2-0.4,0.3-0.6l0.3-0.6l0,0
		c0.1-0.1,0.1-0.3,0.2-0.5l0.3-0.7c-0.1-0.2-0.1-0.3-0.3-0.4L88,1.5c-0.3-0.5-1-0.8-2-0.8c-1.8,0-3.3,0.8-4.5,2.5
		c-1.1,1.5-1.7,3.1-1.7,4.9c0,1.4,0.5,2.6,1.4,3.7c0.2,0.3,0.5,0.5,0.6,0.6l0.2,0.2c0.9,0.9,2.1,1.4,3.4,1.4c1,0,2.1-0.5,3.3-1.5
		l0.1-0.4L88.1,10L87.5,9.4z M84.8,13.1c-1.3,0-2.5-0.5-3.3-1.5c-0.9-1-1.3-2.1-1.3-3.5c0-1.7,0.5-3.3,1.6-4.7
		c1.1-1.5,2.5-2.3,4.2-2.3c1,0,1.6,0.2,1.7,0.6l-0.2,0.6C87.3,3,87,3.6,86.8,4c-0.3,0-0.8,0.2-1.4,0.4c-0.6,0.2-1,0.4-1.3,0.5
		c-0.3,0.2-0.6,0.6-0.8,1c-0.2,0.4-0.2,0.8-0.2,1.2c0,1.1,0.4,1.8,1.3,2.2c0.6,0.3,1.5,0.4,2.7,0.3l0.7,2.1
		C86.8,12.7,85.7,13.1,84.8,13.1z"/>
	<path d="M96.9,1c-1-0.2-2.1-0.3-3.4-0.3h-3.3C90.1,1.2,90,1.6,90,1.8V2c-0.4,2.2-0.6,4-0.6,5.4l-0.2,5.7h0.1l0.6,0.6
		c0.9,0.1,1.4,0.1,1.5,0.1l5.4-0.1V11c0-0.1,0-0.2-0.1-0.3l-0.5-0.5C96,10,95.5,9.8,94.5,9.7c-0.3,0-0.7,0-1.1-0.1V9.4
		c0.1,0,0.7-0.2,1.6-0.4c0.2-0.1,0.4-0.1,0.6-0.2c0.2-0.6,0.3-1.4,0.3-2.5l-0.6-0.6v0L94,5.5c0-0.1,0-0.3,0-0.5h0.5
		c0.8,0,1.8-0.1,2.8-0.3l0.2-3.1L96.9,1L96.9,1z M96.3,3.9c-0.8,0.1-1.7,0.2-2.5,0.2c-0.3,0-0.5,0-0.8,0c0,0.4,0,0.9,0,1.7l1.9,0.3
		c0,0.9-0.1,1.5-0.3,2c-0.2,0.1-0.5,0.2-1.1,0.3l-0.6,0.1c-0.2,0-0.4,0.1-0.5,0.1v1.3c0.4,0,1.1,0.1,2,0.2c0.9,0.1,1.4,0.2,1.4,0.3
		v2.5l-5,0.1c-0.1,0-0.5,0-1.2-0.1l0.2-5.4c0-1.7,0.2-3.5,0.5-5.3c0.1-0.4,0.1-0.7,0.2-1.1h3c1.3,0,2.2,0.1,3,0.2L96.3,3.9z"/>
</g>
</svg>
