<?xml version="1.0" encoding="utf-8"?>
<!-- Generator: Adobe Illustrator 25.2.0, SVG Export Plug-In . SVG Version: 6.00 Build 0)  -->
<svg version="1.1" id="Graphic_Elements" xmlns="http://www.w3.org/2000/svg" xmlns:xlink="http://www.w3.org/1999/xlink" x="0px"
	 y="0px" viewBox="0 0 21.3 21.3" style="enable-background:new 0 0 21.3 21.3;" xml:space="preserve">
<style type="text/css">
	.st0{fill:#FDBC2B;}
</style>
<g>
	<g>
		<polygon class="st0" points="9.3,15.6 4.3,10.6 5.8,9.2 9.3,12.8 19.2,2.9 20.6,4.3 		"/>
	</g>
	<g>
		<path class="st0" d="M18,9l-1.8,1.8c-0.1,3.4-2.8,6.1-6.2,6.2c0,0-0.1,0-0.1,0c-0.5,0-1-0.1-1.5-0.2c-2.3-0.6-4.1-2.4-4.7-4.7
			c-0.1-0.2-0.1-0.5-0.1-0.7c0-0.2,0-0.5,0-0.7c0-3.5,2.8-6.3,6.3-6.3c1.5,0,3,0.6,4.1,1.6l1.4-1.4c-1.5-1.4-3.5-2.1-5.6-2.1
			c-4.6,0-8.3,3.7-8.3,8.3c0,4.6,3.7,8.3,8.3,8.3c4.6,0,8.3-3.7,8.3-8.3C18.2,10.1,18.1,9.5,18,9z"/>
	</g>
</g>
</svg>
