<?xml version="1.0" encoding="utf-8"?>
<!-- Generator: Adobe Illustrator 25.2.0, SVG Export Plug-In . SVG Version: 6.00 Build 0)  -->
<svg version="1.1" id="Layer_1" xmlns="http://www.w3.org/2000/svg" xmlns:xlink="http://www.w3.org/1999/xlink" x="0px" y="0px"
	 viewBox="0 0 116.5 18.1" style="enable-background:new 0 0 116.5 18.1;" xml:space="preserve">
<style type="text/css">
	.st0{fill:#FFFFFF;}
	.st1{fill:#FABC2A;}
</style>
<g>
	<g>
		<path class="st0" d="M12.6,9.2c0-0.5,0-1,0-1.4l0-0.1c-1.6,0-2.5,0-2.6,0.1c-0.2,1.2-0.2,2.4-0.2,3.7v1.3l0,1c1,0,1.9-0.1,2.8-0.4
			c0.1-0.8,0.1-1.7,0.1-2.8c0-0.2,0-0.4,0-0.6L12.6,9.2z"/>
		<path class="st0" d="M18.8,7c-0.6,0-1,0.1-1.4,0.2c-0.1,0.3-0.1,0.5-0.1,0.7c0,0.4,0.1,0.6,0.2,0.8c0.4,0,0.7,0.1,0.9,0.1v2.4
			c-0.7-0.2-1.1-0.4-1.3-0.6c-0.2-0.3-0.3-0.8-0.3-1.5c0-0.8,0.2-1.6,0.5-2.2c0.4-0.7,1-1.1,1.8-1.1c0.1,0,0.3,0,0.4,0.1l0.4,0.1
			c0.3-0.4,0.5-1,0.6-1.6c-0.6-0.3-1-0.4-1.2-0.4c-1.7,0-2.9,0.4-3.7,1.3c-0.8,0.8-1.1,2.1-1.1,3.8c0,1.3,0.4,2.3,1.2,3.2
			c0.8,0.8,1.9,1.3,3.1,1.3c0.2,0,0.6-0.1,1-0.2c0.5-0.1,0.8-0.3,0.8-0.4c0-2.3-0.1-4.2-0.2-5.8L18.8,7z"/>
		<path class="st0" d="M29.4,4.2l-2.8,0c0,0.1,0,0.3,0,0.5c0,0.2,0,0.4,0,0.5c0,0.4,0,0.8,0.1,1.4c0,0.7,0.1,1.1,0.1,1.4
			c0,0.5,0,0.9-0.1,1.1c-0.3-0.7-0.6-1.5-0.9-2.6l-0.8-2.6l-2.4,0.3l-0.2,4.3C22,10.3,22,11.7,22,12.7c0,0.3,0.1,0.5,0.2,0.7
			c1.7,0,2.6-0.1,2.6-0.3c-0.1-1.9-0.1-3,0-3.3c0.6,1.6,1,2.8,1.3,3.5c0.8-0.1,1.9-0.1,3.3-0.2c0-0.8,0-1.9-0.1-3.5
			c0-1.4-0.1-2.5-0.1-3.5c0-0.1,0-0.6,0.1-1.2C29.4,4.5,29.4,4.2,29.4,4.2z"/>
		<path class="st0" d="M43.3,3.9l-1,0c-0.9,0-1.4,0.1-1.5,0.2c0,0.2,0,0.7,0.1,1.4C40.9,6,41,6.3,41,6.6c0,0.9-0.1,1.7-0.2,2.3
			c-0.2,1.1-0.6,1.7-1.2,1.7c-0.8,0-1.2-0.9-1.2-2.6c0-0.6,0-1.3,0-2.1c0-1,0-1.7,0-2.1l-0.4,0L35.9,4c0,0.1,0,0.3,0,0.5
			c0,0.3-0.1,0.5-0.1,0.6v1.7c0,1.9,0.2,3.3,0.6,4.3c0.6,1.5,1.7,2.3,3.2,2.3c1.5,0,2.7-0.7,3.4-2c0.6-1,0.9-2.4,0.9-4.1
			C43.9,5,43.7,3.9,43.3,3.9z"/>
		<path class="st0" d="M12.3,4.3C11.9,4,11.5,3.8,11,3.8c-0.5,0-0.8,0.2-1.1,0.5C9.6,4.7,9.4,5.1,9.4,5.6c0,0.5,0.2,0.8,0.6,1.1
			C10.4,6.9,10.8,7,11.3,7c0.5,0,0.9-0.1,1.2-0.4C12.8,6.4,13,6,13,5.5C13,5,12.8,4.6,12.3,4.3z"/>
		<path class="st0" d="M8.1,6.4C8.1,6.4,8.1,6.4,8.1,6.4L8.1,6.4L8.1,6.4z"/>
		<path class="st0" d="M7.3,4.6C6.8,4.1,6.2,3.8,5.4,3.8c-1,0-1.8,0.3-2.4,0.8S2,5.9,1.9,6.8C2,7.5,2.3,8.1,2.8,8.5
			C3,8.7,3.2,8.9,3.5,9.1c0.2,0.2,0.5,0.3,0.7,0.5c0.5,0.3,0.7,0.6,0.7,0.9c0,0.4-0.2,0.7-0.6,0.7H4.2c0,0-0.1,0-0.1,0
			c-0.1-0.2-0.2-0.4-0.3-0.5c0-0.1,0-0.2-0.1-0.4H2.5c-0.3,0-0.6,0-0.9,0c-0.1,0.2-0.1,0.6-0.1,1c0,0.9,0.3,1.5,0.9,1.9
			c0.5,0.3,1.2,0.4,2.1,0.4c0.9,0,1.6-0.3,2.1-0.8s0.8-1.2,0.8-2.1c0-0.9-0.3-1.6-0.8-2.1C6.5,8.1,6,7.8,5.3,7.4
			C4.8,7.1,4.5,6.9,4.5,6.6c0-0.2,0.1-0.3,0.2-0.4C4.9,6.1,5,6,5.2,6c0.2,0,0.4,0.1,0.5,0.3l0.2,0.6C7,6.6,7.8,6.5,8.1,6.4
			C8.1,5.7,7.8,5.1,7.3,4.6z"/>
		<path class="st0" d="M51.4,4.4C50.7,4,50,3.8,49.1,3.8c-1.2,0-2.4,0.2-3.5,0.5c0,0.8-0.1,2.1-0.2,3.9c-0.1,1.8-0.2,3.1-0.2,3.9
			c0,0.5,0.1,0.9,0.2,1.1c0.9-0.2,1.5-0.3,1.7-0.3l1.2-0.2c0-0.2,0-0.6-0.1-1.4c-0.1-0.5-0.1-0.9-0.1-1.2c0-0.1,0-0.2,0-0.3
			c0.9-0.3,1.5-0.6,1.9-0.7c1.6-0.6,2.5-1.6,2.5-2.8C52.5,5.6,52.1,4.9,51.4,4.4z M49,7.4c-0.6,0.2-0.9,0.3-0.9,0.4
			c0-0.2,0-0.5-0.1-0.7c0-0.3-0.1-0.6-0.1-0.7c0.5-0.1,0.9-0.1,1.2-0.1c0.1,0,0.2,0.1,0.4,0.2c0.1,0.1,0.2,0.3,0.2,0.4
			C49.7,7.1,49.5,7.3,49,7.4z"/>
		<polygon points="7.9,4.8 7.9,4.8 7.9,4.8 7.9,4.8 		"/>
		<path d="M8.9,7c0-0.4-0.1-0.7-0.3-1.1C8.5,5.5,8.3,5.2,8,4.9L7.9,4.8l0,0l0,0c0,0,0,0,0,0l0,0C7.3,4,6.5,3.5,5.4,3.5
			c-1.1,0-2,0.3-2.6,0.8C2.2,4.9,1.8,5.8,1.6,6.8c0.1,0.8,0.4,1.4,1,2c0,0,0,0,0.1,0.1L3,9.1c0,0,0,0,0.1,0l0,0
			c0.1,0.1,0.3,0.3,0.8,0.6H2.6H2.4c-0.2,0-0.3,0-0.3,0H1.7L1.4,10c-0.1,0.2-0.1,0.6-0.1,1.1c0,1,0.3,1.6,0.9,2l0.2,0.2
			c0.5,0.5,1.4,0.7,2.6,0.7c0.9,0,1.7-0.3,2.3-0.9l0,0c0.6-0.6,0.9-1.3,0.9-2.2C8.2,10,8,9.3,7.4,8.7l0,0h0L7.2,8.5
			c0,0-0.1-0.1-0.2-0.3C6.7,8,6.5,7.8,6.2,7.7c0.4-0.1,1-0.2,1.8-0.4L8.9,7z M5.9,6.9L5.7,6.3C5.6,6.1,5.4,6,5.2,6
			C5,6,4.9,6.1,4.7,6.2C4.6,6.3,4.5,6.4,4.5,6.6c0,0.3,0.3,0.5,0.8,0.8c0.7,0.4,1.2,0.7,1.4,1c0.5,0.5,0.8,1.2,0.8,2.1
			c0,0.9-0.3,1.5-0.8,2.1s-1.3,0.8-2.1,0.8c-1,0-1.7-0.1-2.1-0.4c-0.6-0.3-0.9-1-0.9-1.9c0-0.5,0-0.8,0.1-1c0.2,0,0.5,0,0.9,0h1.2
			c0,0.2,0.1,0.4,0.1,0.4c0.1,0.2,0.2,0.4,0.3,0.5c0,0,0.1,0,0.1,0h0.1c0.4,0,0.6-0.2,0.6-0.7c0-0.3-0.2-0.5-0.7-0.9
			C3.9,9.4,3.7,9.2,3.5,9.1C3.2,8.9,3,8.7,2.8,8.5C2.3,8.1,2,7.5,1.9,6.8C2,5.9,2.4,5.1,3,4.6s1.4-0.8,2.4-0.8
			c0.7,0,1.4,0.2,1.9,0.7c0.5,0.5,0.8,1.1,0.8,1.8c0,0,0,0,0,0l0,0v0C7.8,6.5,7,6.6,5.9,6.9z M6.2,7.6C6,7.5,5.7,7.3,5.4,7.2
			c-0.1,0-0.1-0.1-0.2-0.1c0-0.2,0.1-0.3,0.3-0.3l0.2,0.5c0,0,0,0,0,0L6.2,7.6z M4,9.9c0.2,0.1,0.4,0.3,0.5,0.4c0,0,0,0,0.1,0.1
			c0,0.1,0,0.1,0,0.1c0,0.2,0,0.3-0.1,0.3c0,0,0-0.1,0-0.2l0-0.2L4,9.9z"/>
		<path d="M7.9,4.9C7.9,4.9,7.9,4.8,7.9,4.9L7.9,4.9L7.9,4.9z"/>
		<path d="M13,4.5c-0.1-0.2-0.3-0.3-0.5-0.5c-0.4-0.3-1-0.5-1.6-0.5c-0.5,0-1,0.2-1.3,0.6C9.3,4.6,9.2,5,9.2,5.6
			c0,0.5,0.2,1,0.7,1.3l0.2,0.2c0.2,0.2,0.4,0.3,0.6,0.4c-0.5,0-0.9,0.1-1,0.2C9.5,9,9.4,10.3,9.4,11.6v1.3l0.1,1.2h0.1l0.4,0.4
			c1.1,0,2.2-0.2,3.3-0.5c0.1-0.9,0.1-1.9,0.1-3c0-0.3,0-0.4,0-0.6l0-0.8c0-0.5,0-1,0-1.3l0-0.4l-0.5-0.4l0-0.1h0
			c0.1,0,0.2-0.1,0.2-0.2C13.5,7,13.8,6.5,13.8,6c0-0.5-0.2-0.9-0.5-1.2L13,4.5z M12.5,13.4c-0.9,0.3-1.9,0.4-2.8,0.4l0-1v-1.3
			c0-1.3,0.1-2.5,0.2-3.7c0.1-0.1,1-0.1,2.6-0.1l0,0.1c0,0.4,0,0.8,0,1.4l0,0.8c0,0.1,0,0.3,0,0.6C12.6,11.7,12.6,12.6,12.5,13.4z
			 M12.5,6.6C12.1,6.9,11.7,7,11.3,7c-0.5,0-0.9-0.1-1.2-0.3C9.6,6.4,9.4,6.1,9.4,5.6c0-0.5,0.1-0.9,0.4-1.2C10.1,4,10.5,3.8,11,3.8
			c0.5,0,1,0.1,1.4,0.4C12.8,4.6,13,5,13,5.5C13,6,12.8,6.4,12.5,6.6z"/>
		<path d="M20.5,7L20.5,7l-0.3-0.3l-1.5,0.1c-0.1,0-0.2,0-0.3,0c0.3-0.2,0.6-0.3,1-0.3c0.1,0,0.2,0,0.4,0.1c0.3,0.1,0.5,0.1,0.6,0.1
			c0.4-0.6,0.7-1.2,0.7-2.1l-0.5-0.4c0,0,0,0,0,0v0c-0.7-0.3-1.2-0.5-1.5-0.5c-1.8,0-3.1,0.5-3.9,1.4c-0.8,0.9-1.2,2.2-1.2,4
			c0,1.4,0.5,2.5,1.5,3.6c0.1,0.1,0.1,0.1,0.2,0.2l0.2,0.2c0.9,0.9,2,1.3,3.3,1.3c0.3,0,0.6-0.1,1.1-0.2c0.6-0.2,1-0.4,1-0.7
			c0-2.3-0.1-4.3-0.2-5.8L20.5,7z M19.7,13.2c-0.4,0.1-0.8,0.2-1,0.2c-1.3,0-2.3-0.4-3.1-1.3c-0.8-0.8-1.2-1.9-1.2-3.2
			c0-1.7,0.4-3,1.1-3.8c0.8-0.9,2-1.3,3.7-1.3c0.2,0,0.6,0.1,1.2,0.4c-0.1,0.7-0.3,1.2-0.6,1.6l-0.4-0.1c-0.2-0.1-0.3-0.1-0.4-0.1
			c-0.7,0-1.3,0.4-1.8,1.1c-0.4,0.6-0.5,1.4-0.5,2.2c0,0.7,0.1,1.2,0.3,1.5c0.2,0.2,0.6,0.4,1.3,0.6V8.7c-0.2,0-0.5,0-0.9-0.1
			c-0.1-0.1-0.2-0.4-0.2-0.8c0-0.1,0-0.4,0.1-0.7C17.7,7.1,18.2,7,18.8,7l1.5-0.1c0.1,1.6,0.2,3.5,0.2,5.8
			C20.4,12.9,20.2,13,19.7,13.2z M17.4,9.5V9.2c0-0.1,0-0.2,0-0.2l0.4,0.4c0.1,0,0.1,0,0.2,0v1.4c-0.1,0-0.3-0.1-0.5-0.2
			C17.4,10.3,17.4,9.9,17.4,9.5z"/>
		<path d="M29.7,3.9l-3.4,0c0,0.1,0,0.2,0,0.4c0,0.2,0,0.3,0,0.4v0c0,0.1,0,0.1,0,0.2v0.2c0,0.7,0,1.3,0.1,1.7L25.5,4L25,3.6l0-0.1
			l-2.9,0.3l-0.3,4.6c-0.1,1.9-0.2,3.4-0.2,4.3c0,0.4,0.1,0.7,0.4,0.9h0l0.4,0.4c2,0,2.9-0.2,2.9-0.6c0-0.1,0-0.3,0-0.6l0-0.6
			c0.2,0.4,0.3,0.9,0.5,1.3h0c0,0,0,0,0,0l0.5,0.5l0.8-0.1c0.9-0.1,1.9-0.1,3-0.2v-0.7c0-0.5,0-1.5-0.1-3C30,8.8,30,7.6,30,6.6
			c0-0.3,0-0.7,0.1-1.2l0-0.3l0-0.6c0-0.1,0-0.1,0-0.2L29.7,3.9L29.7,3.9z M29.4,9.6c0.1,1.5,0.1,2.7,0.1,3.5
			c-1.4,0.1-2.5,0.1-3.3,0.2c-0.3-0.7-0.7-1.9-1.3-3.5c-0.1,0.3-0.1,1.4,0,3.3c0,0.2-0.8,0.3-2.6,0.3C22.1,13.2,22,13,22,12.7
			c0-1,0.1-2.4,0.2-4.3l0.2-4.3l2.4-0.3l0.8,2.6c0.3,1,0.6,1.9,0.9,2.6c0.1-0.2,0.1-0.6,0.1-1.1c0-0.3,0-0.8-0.1-1.4
			c0-0.6-0.1-1-0.1-1.4c0-0.1,0-0.3,0-0.5c0-0.2,0-0.4,0-0.5l2.8,0c0,0.1,0,0.3-0.1,0.7c-0.1,0.7-0.1,1.1-0.1,1.2
			C29.3,7.1,29.3,8.3,29.4,9.6z"/>
		<path d="M43.7,3.9c-0.1-0.2-0.3-0.3-0.4-0.3h0l-1,0c-0.9,0-1.5,0.1-1.8,0.4c0,0.3,0,0.7,0.1,1.3c0.1,0.6,0.1,1,0.1,1.3
			c0,0.9-0.1,1.7-0.2,2.3c-0.2,1-0.5,1.5-0.9,1.5c-0.1,0-0.2,0-0.2,0c-0.2-0.4-0.2-1-0.2-1.8c0-0.4,0-1.1,0-1.9c0-0.8,0-1.5,0-1.9
			V4.1l-0.4-0.4V3.6L38,3.5l-2.5,0.2c0,0.2,0.1,0.4,0.1,0.4c0,0.1,0,0.2,0,0.4c0,0.3-0.1,0.5-0.1,0.6v1.7c0,3.2,0.6,5.3,1.9,6.2
			l0.2,0.2c0.6,0.6,1.5,1,2.5,1c1.6,0,2.9-0.7,3.6-2.1c0.6-1.1,0.9-2.5,0.9-4.2c0-2-0.2-3.1-0.6-3.5L43.7,3.9z M43.1,11.4
			c-0.7,1.3-1.9,2-3.4,2c-1.6,0-2.6-0.8-3.2-2.3c-0.4-1-0.6-2.4-0.6-4.3V5.1c0-0.1,0-0.3,0.1-0.6c0-0.2,0-0.4,0-0.5L38,3.8l0.4,0
			c0,0.4,0,1.1,0,2.1c0,0.8,0,1.5,0,2.1c0,1.7,0.4,2.6,1.2,2.6c0.6,0,0.9-0.6,1.2-1.7C40.9,8.2,41,7.5,41,6.6c0-0.3,0-0.6-0.1-0.9
			c-0.1-0.7-0.1-1.2-0.1-1.4c0.2-0.2,0.7-0.2,1.5-0.2l1,0c0.4,0,0.6,1.1,0.6,3.4C43.9,9,43.6,10.4,43.1,11.4z"/>
		<path d="M52.5,5.1l-0.1-0.1c-0.6-0.9-1.7-1.4-3.2-1.4c-1.3,0-2.5,0.2-3.8,0.6c0,0.4,0,1,0,1.7l0,1.1c0,0.2,0,0.6-0.1,1.3
			c-0.1,1.8-0.2,3.1-0.2,4c0,0.6,0.1,1.1,0.3,1.4c0,0,0,0,0,0l0.4,0.4c0,0,0.3-0.1,0.9-0.2l2.3-0.4c0-0.4,0-0.9-0.1-1.7
			c-0.1-0.5-0.1-0.9-0.1-1.1v-0.1c0.3-0.1,0.8-0.3,1.3-0.5c0.1,0,0.2-0.1,0.4-0.1c0.8-0.3,1.4-0.7,1.8-1.1c0.5-0.6,0.8-1.2,0.8-1.9
			C53.2,6.2,53,5.6,52.5,5.1L52.5,5.1z M50,9.3c-0.3,0.1-0.9,0.4-1.9,0.7c0,0.1,0,0.2,0,0.3c0,0.3,0,0.7,0.1,1.2
			c0.1,0.8,0.1,1.2,0.1,1.4L47.1,13c-0.2,0-0.7,0.1-1.7,0.3c-0.1-0.2-0.2-0.6-0.2-1.1c0-0.9,0.1-2.2,0.2-3.9
			c0.1-1.9,0.2-3.2,0.2-3.9c1.1-0.4,2.2-0.5,3.5-0.5c0.9,0,1.7,0.2,2.3,0.6c0.7,0.5,1.1,1.1,1.1,2C52.5,7.7,51.7,8.7,50,9.3z"/>
		<path d="M49.1,6.2c-0.3,0-0.7,0-1.2,0.1C48,6.5,48,6.7,48,7c0,0.2,0,0.5,0.1,0.7c0.1,0,0.4-0.1,0.9-0.4c0.4-0.2,0.6-0.4,0.6-0.6
			c0-0.1-0.1-0.2-0.2-0.4C49.3,6.3,49.2,6.2,49.1,6.2z M48.7,7.2L48.7,7.2c0-0.1,0-0.2,0-0.2c0.1,0,0.3,0,0.6,0
			C49.2,7,49.1,7.1,48.7,7.2z"/>
	</g>
	<g>
		<path class="st1" d="M64.4,4.4C63.8,4,63,3.8,62.1,3.8c-1.2,0-2.4,0.2-3.5,0.5c0,0.8-0.1,2.1-0.2,3.9c-0.1,1.8-0.2,3.1-0.2,3.9
			c0,0.5,0.1,0.9,0.2,1.1c0.9-0.2,1.5-0.3,1.7-0.3l1.2-0.2c0-0.2,0-0.6-0.1-1.4c-0.1-0.5-0.1-0.9-0.1-1.2c0-0.1,0-0.2,0-0.3
			c0.9-0.3,1.5-0.6,1.9-0.7c1.6-0.6,2.5-1.6,2.5-2.8C65.5,5.6,65.1,4.9,64.4,4.4z M62.1,7.4c-0.6,0.2-0.9,0.3-0.9,0.4
			c0-0.2,0-0.5-0.1-0.7c0-0.3-0.1-0.6-0.1-0.7c0.5-0.1,0.9-0.1,1.2-0.1c0.1,0,0.2,0.1,0.4,0.2c0.1,0.1,0.2,0.3,0.2,0.4
			C62.7,7.1,62.5,7.3,62.1,7.4z"/>
		<path class="st1" d="M113.6,4.6c-0.5-0.5-1.2-0.7-1.9-0.7c-1,0-1.8,0.3-2.4,0.8c-0.6,0.5-1,1.3-1.1,2.2c0.1,0.6,0.4,1.2,0.9,1.7
			c0.2,0.2,0.4,0.3,0.7,0.5c0.2,0.2,0.5,0.3,0.7,0.5c0.5,0.3,0.7,0.6,0.7,0.9c0,0.4-0.2,0.7-0.6,0.7h-0.1c0,0-0.1,0-0.1,0
			c-0.1-0.2-0.2-0.4-0.3-0.5c0-0.1,0-0.2-0.1-0.4h-1.2c-0.3,0-0.6,0-0.9,0c-0.1,0.2-0.1,0.6-0.1,1c0,0.9,0.3,1.5,0.9,1.9
			c0.5,0.3,1.2,0.4,2.1,0.4c0.9,0,1.6-0.3,2.1-0.8c0.6-0.5,0.8-1.2,0.8-2.1c0-0.9-0.3-1.6-0.8-2.1c-0.3-0.3-0.7-0.6-1.4-1
			c-0.5-0.3-0.8-0.5-0.8-0.8c0-0.2,0.1-0.3,0.2-0.4c0.1-0.1,0.3-0.2,0.5-0.2c0.2,0,0.4,0.1,0.5,0.3l0.2,0.6c1.1-0.2,1.9-0.4,2.2-0.5
			C114.4,5.7,114.1,5.1,113.6,4.6z"/>
		<path class="st1" d="M114.4,6.4C114.4,6.4,114.4,6.4,114.4,6.4L114.4,6.4L114.4,6.4z"/>
		<path class="st1" d="M71.4,9.6c0.8-0.5,1.4-1,1.7-1.5s0.5-1.3,0.5-2.2c0-0.7-0.4-1.2-1.1-1.6c-0.6-0.3-1.3-0.4-2-0.4
			c-1.4,0-2.5,0.3-3.5,0.8c0,0.6-0.1,1.8-0.3,3.6c-0.1,1.3-0.2,2.5-0.2,3.6v1.3c0.2,0.2,0.5,0.3,1,0.3c0.1,0,0.2,0,0.4,0
			c0.2,0,0.3,0,0.4,0h0.2c0.2,0,0.3,0,0.4,0c0.2,0,0.3-0.5,0.3-1.3c0-0.8,0-1.3,0-1.6c0.2,0.2,0.3,0.4,0.4,0.6
			c0.5,0.8,0.8,1.4,0.9,1.7l0.3,0.5c0.4,0,0.9-0.1,1.5-0.2l1.4-0.3c0-0.4-0.3-0.9-1-1.6L71.4,9.6z M70.5,7.7c-0.3,0.2-0.6,0.3-1,0.3
			c0.1-1,0.1-1.6,0.2-1.9C69.8,6,69.9,6,70.1,6c0.3,0,0.5,0.1,0.7,0.2S71,6.5,71,6.8C71,7.1,70.8,7.4,70.5,7.7z"/>
		<path class="st1" d="M89.2,10.3c-0.7-0.3-1.1-0.9-1.1-1.8c0-0.3,0.1-0.7,0.2-1c0.1-0.4,0.3-0.6,0.6-0.8c0.2-0.1,0.5-0.3,1-0.4
			c0.5-0.2,0.8-0.2,1.1-0.3c0.2-0.3,0.4-0.7,0.5-1.2l0.2-0.5c-0.1-0.3-0.6-0.5-1.4-0.5c-1.3,0-2.5,0.6-3.4,1.8
			c-0.8,1.1-1.3,2.4-1.3,3.8c0,1.1,0.3,2,1,2.8c0.7,0.8,1.6,1.2,2.7,1.2c0.7,0,1.6-0.4,2.5-1.1l-0.6-1.6
			C90.4,10.6,89.6,10.6,89.2,10.3z"/>
		<path class="st1" d="M94,3.8c0,0.3-0.1,0.5-0.1,0.8c-0.3,1.4-0.4,2.8-0.5,4.3l-0.1,4.3c0.6,0.1,0.9,0.1,1,0.1l4-0.1v-2
			c0-0.1-0.4-0.2-1.1-0.3c-0.7-0.1-1.2-0.1-1.6-0.1V9.8c0.1,0,0.2-0.1,0.4-0.1l0.5-0.1c0.4-0.1,0.7-0.2,0.9-0.2
			c0.1-0.3,0.2-0.9,0.2-1.6l-1.5-0.2c0-0.6,0-1,0-1.3c0.2,0,0.4,0,0.6,0c0.6,0,1.3-0.1,2-0.2l0.1-2c-0.6-0.1-1.4-0.2-2.4-0.2H94z"/>
		<path class="st1" d="M105.7,4.6c-0.5-0.5-1.2-0.7-1.9-0.7c-1,0-1.8,0.3-2.4,0.8c-0.6,0.5-1,1.3-1.1,2.2c0.1,0.6,0.4,1.2,0.9,1.7
			c0.2,0.2,0.4,0.3,0.7,0.5c0.2,0.2,0.5,0.3,0.7,0.5c0.5,0.3,0.7,0.6,0.7,0.9c0,0.4-0.2,0.7-0.6,0.7h-0.1c0,0-0.1,0-0.1,0
			c-0.1-0.2-0.2-0.4-0.3-0.5c0-0.1,0-0.2-0.1-0.4h-1.2c-0.3,0-0.6,0-0.9,0c-0.1,0.2-0.1,0.6-0.1,1c0,0.9,0.3,1.5,0.9,1.9
			c0.5,0.3,1.2,0.4,2.1,0.4c0.9,0,1.6-0.3,2.1-0.8c0.6-0.5,0.8-1.2,0.8-2.1c0-0.9-0.3-1.6-0.8-2.1c-0.3-0.3-0.7-0.6-1.4-1
			c-0.5-0.3-0.8-0.5-0.8-0.8c0-0.2,0.1-0.3,0.2-0.4c0.1-0.1,0.3-0.2,0.5-0.2c0.2,0,0.4,0.1,0.5,0.3l0.2,0.6c1.1-0.2,1.9-0.4,2.2-0.5
			C106.5,5.7,106.3,5.1,105.7,4.6z"/>
		<path class="st1" d="M106.5,6.4C106.5,6.4,106.5,6.4,106.5,6.4L106.5,6.4L106.5,6.4z"/>
		<path class="st1" d="M79.9,3.8c-0.7,0-1.5,0.3-2.2,0.8C77,5.1,76.4,5.7,76,6.4c-0.5,0.8-0.8,1.6-0.8,2.4c0,1.4,0.4,2.5,1.3,3.4
			c0.9,0.8,2,1.2,3.5,1.2c1.2,0,2.3-0.4,3.1-1.3c0.8-0.9,1.3-1.9,1.3-3.2c0-1.6-0.3-2.8-1-3.6C82.6,4.3,81.5,3.8,79.9,3.8z
			 M81.2,9.6c-0.4,0.5-0.8,0.7-1.4,0.7c-0.5,0-0.9-0.1-1.3-0.4C78.2,9.6,78,9.2,78,8.6c0-0.5,0.2-1.1,0.6-1.6
			c0.4-0.5,0.9-0.8,1.4-0.8c0.5,0,0.9,0.2,1.2,0.5c0.3,0.3,0.4,0.7,0.4,1.2C81.6,8.6,81.5,9.1,81.2,9.6z"/>
		<path d="M62.1,6.2c-0.3,0-0.7,0-1.2,0.1C61,6.5,61,6.7,61,7c0,0.2,0,0.5,0.1,0.7c0.1,0,0.4-0.1,0.9-0.4c0.4-0.2,0.6-0.4,0.6-0.6
			c0-0.1-0.1-0.2-0.2-0.4C62.3,6.3,62.2,6.2,62.1,6.2z M61.7,7.2L61.7,7.2c0-0.1,0-0.2,0-0.2c0.1,0,0.3,0,0.6,0
			C62.2,7,62.1,7.1,61.7,7.2z"/>
		<path d="M65.5,5.1l-0.1-0.1c-0.6-0.9-1.7-1.4-3.2-1.4c-1.3,0-2.5,0.2-3.8,0.6c0,0.4,0,1,0,1.7l0,1.1c0,0.2,0,0.6-0.1,1.3
			c-0.1,1.8-0.2,3.1-0.2,4c0,0.6,0.1,1.1,0.3,1.4c0,0,0,0,0,0l0.4,0.4c0,0,0.3-0.1,0.9-0.2l2.3-0.4c0-0.4,0-0.9-0.1-1.7
			c-0.1-0.5-0.1-0.9-0.1-1.1v-0.1c0.3-0.1,0.8-0.3,1.3-0.5c0.1,0,0.2-0.1,0.4-0.1c0.8-0.3,1.4-0.7,1.8-1.1c0.5-0.6,0.8-1.2,0.8-1.9
			C66.2,6.2,66,5.6,65.5,5.1L65.5,5.1z M63,9.3c-0.3,0.1-0.9,0.4-1.9,0.7c0,0.1,0,0.2,0,0.3c0,0.3,0,0.7,0.1,1.2
			c0.1,0.8,0.1,1.2,0.1,1.4L60.1,13c-0.2,0-0.7,0.1-1.7,0.3c-0.1-0.2-0.2-0.6-0.2-1.1c0-0.9,0.1-2.2,0.2-3.9
			c0.1-1.9,0.2-3.2,0.2-3.9c1.1-0.4,2.2-0.5,3.5-0.5c0.9,0,1.7,0.2,2.3,0.6c0.7,0.5,1.1,1.1,1.1,2C65.5,7.7,64.7,8.7,63,9.3z"/>
		<path d="M72.3,10.2c0.8-0.5,1.3-1,1.6-1.6c0.3-0.6,0.5-1.3,0.5-2.2c0-0.5-0.2-1-0.6-1.4l-0.2-0.2c-0.2-0.3-0.5-0.6-0.9-0.8
			c-0.6-0.3-1.3-0.5-2.2-0.5c-1.4,0-2.7,0.3-3.7,1c0,0.7-0.1,2-0.3,3.7c-0.1,1.3-0.2,2.4-0.2,3.4v0.2l0,1.4c0,0,0.1,0.1,0.2,0.1
			l0.3,0.3c0.3,0.3,0.7,0.4,1.3,0.4h0.1c0.1,0,0.1,0,0.2,0h0c0,0,0.1,0,0.2,0c0.1,0,0.2,0,0.2,0H69c0.1,0,0.3,0,0.4,0.1
			c0.4-0.1,0.6-0.6,0.6-1.6v-0.3c0,0,0,0,0,0c0.3,0.5,0.5,1,0.7,1.3h0l0.4,0.4c0.5,0,1.1-0.1,1.7-0.2l1.7-0.4c0-0.6-0.4-1.2-1.1-2
			L72.3,10.2z M72.3,13.1c-0.5,0.1-1,0.2-1.5,0.2l-0.3-0.5c-0.2-0.3-0.5-0.9-0.9-1.7c-0.1-0.2-0.2-0.4-0.4-0.6c0,0.3,0,0.8,0,1.6
			c0,0.9-0.1,1.3-0.3,1.3c-0.1,0-0.2,0-0.4,0h-0.2c-0.1,0-0.2,0-0.4,0c-0.2,0-0.3,0-0.4,0c-0.5,0-0.8-0.1-1-0.3v-1.3
			c0-1,0.1-2.2,0.2-3.6c0.2-1.7,0.3-2.9,0.3-3.6c0.9-0.6,2.1-0.8,3.5-0.8c0.8,0,1.5,0.1,2,0.4c0.7,0.4,1.1,0.9,1.1,1.6
			c0,0.9-0.2,1.7-0.5,2.2s-0.9,1.1-1.7,1.5l1.4,1.5c0.6,0.7,1,1.2,1,1.6L72.3,13.1z"/>
		<path d="M70.1,6c-0.2,0-0.3,0-0.4,0.1c0,0.3-0.1,1-0.2,1.9c0.3,0,0.6-0.1,1-0.3C70.8,7.4,71,7.1,71,6.8c0-0.3-0.1-0.5-0.3-0.6
			S70.3,6,70.1,6z M70.7,6.8c0,0.2-0.1,0.4-0.4,0.6c0-0.2,0-0.4,0.1-0.7c0,0,0.1,0,0.1,0C70.6,6.7,70.6,6.7,70.7,6.8
			C70.7,6.7,70.7,6.8,70.7,6.8L70.7,6.8z"/>
		<path d="M83.6,5c-0.8-1-2-1.5-3.6-1.5c-0.8,0-1.6,0.3-2.4,0.9c-0.7,0.5-1.4,1.2-1.8,1.9c-0.5,0.8-0.8,1.7-0.8,2.5
			c0,1.5,0.5,2.7,1.5,3.6c0.1,0.1,0.1,0.1,0.2,0.2l0.1,0.1c1,1,2.2,1.4,3.8,1.4c1.3,0,2.4-0.5,3.3-1.4c0.9-0.9,1.3-2,1.3-3.4
			c0-1.8-0.5-3.2-1.4-4.1L83.6,5z M83.1,12c-0.8,0.9-1.9,1.3-3.1,1.3c-1.4,0-2.6-0.4-3.5-1.2c-0.9-0.8-1.3-1.9-1.3-3.4
			c0-0.8,0.3-1.6,0.8-2.4c0.5-0.7,1-1.3,1.7-1.8c0.8-0.5,1.5-0.8,2.2-0.8c1.5,0,2.6,0.5,3.4,1.4c0.7,0.8,1,2,1,3.6
			C84.3,10.1,83.9,11.1,83.1,12z"/>
		<path d="M80.1,6.3c-0.5,0-1,0.3-1.4,0.8c-0.4,0.5-0.6,1-0.6,1.6c0,0.5,0.2,0.9,0.5,1.2c0.3,0.3,0.7,0.4,1.3,0.4
			c0.6,0,1-0.2,1.4-0.7c0.3-0.4,0.5-0.9,0.5-1.5c0-0.5-0.1-0.9-0.4-1.2C81,6.4,80.6,6.3,80.1,6.3z M81,9.4c-0.3,0.4-0.7,0.6-1.2,0.6
			c-0.3,0-0.6-0.1-0.9-0.2c-0.1-0.2-0.1-0.4-0.1-0.6c0-0.5,0.2-0.9,0.6-1.4C79.7,7.2,80.1,7,80.6,7c0.2,0,0.4,0,0.6,0.1
			c0.1,0.2,0.2,0.5,0.2,0.9C81.3,8.5,81.2,9,81,9.4z"/>
		<path d="M91.6,10.4L91.6,10.4l-0.2-0.1c-0.1,0-0.1,0-0.1,0H91c-0.9,0-1.5-0.1-2-0.4c-0.1-0.2-0.2-0.5-0.2-0.9
			c0-0.3,0.1-0.6,0.2-0.9c0.1-0.3,0.3-0.6,0.5-0.7c0.2-0.1,0.5-0.3,1-0.4c0.4-0.1,0.8-0.2,1.1-0.3c0.1-0.1,0.2-0.3,0.2-0.5l0.2-0.5
			h0c0-0.1,0.1-0.2,0.2-0.4l0.2-0.6c0-0.1-0.1-0.2-0.2-0.3l-0.3-0.3c-0.3-0.4-0.8-0.6-1.6-0.6c-1.4,0-2.6,0.7-3.6,2
			c-0.9,1.2-1.3,2.5-1.3,3.9c0,1.1,0.4,2.1,1.1,2.9c0.2,0.2,0.4,0.4,0.5,0.5l0.1,0.1c0.8,0.8,1.6,1.1,2.7,1.1c0.8,0,1.7-0.4,2.6-1.2
			l0.1-0.3L92,10.8L91.6,10.4z M89.4,13.4c-1.1,0-2-0.4-2.7-1.2c-0.7-0.8-1-1.7-1-2.8c0-1.4,0.4-2.6,1.3-3.8c0.9-1.2,2-1.8,3.4-1.8
			c0.8,0,1.3,0.2,1.4,0.5l-0.2,0.5c-0.2,0.5-0.3,0.9-0.5,1.2c-0.3,0-0.6,0.1-1.1,0.3c-0.5,0.2-0.8,0.3-1,0.4
			c-0.3,0.2-0.5,0.4-0.6,0.8c-0.1,0.3-0.2,0.6-0.2,1c0,0.9,0.4,1.5,1.1,1.8c0.5,0.2,1.2,0.3,2.2,0.3l0.6,1.6
			C91,13,90.1,13.4,89.4,13.4z"/>
		<path d="M99,3.7c-0.8-0.1-1.7-0.2-2.7-0.2h-2.6c-0.1,0.4-0.1,0.7-0.2,0.9l0,0.2c-0.3,1.8-0.4,3.2-0.5,4.3l-0.2,4.5H93l0.4,0.4
			c0.7,0.1,1.1,0.1,1.2,0.1l4.3-0.1v-2.2c0-0.1,0-0.1-0.1-0.2l-0.4-0.4c-0.1-0.2-0.5-0.4-1.3-0.4c-0.3,0-0.5,0-0.9-0.1v-0.2
			c0.1,0,0.5-0.1,1.3-0.3c0.2,0,0.3-0.1,0.4-0.1c0.2-0.4,0.3-1.1,0.3-2l-0.4-0.4V7.5l-1.1-0.2c0-0.1,0-0.2,0-0.4h0.4
			c0.7,0,1.4-0.1,2.2-0.2l0.2-2.5L99,3.7L99,3.7z M98.6,6c-0.7,0.1-1.3,0.2-2,0.2c-0.2,0-0.4,0-0.6,0c0,0.3,0,0.7,0,1.3l1.5,0.2
			c0,0.7-0.1,1.2-0.2,1.6c-0.1,0.1-0.4,0.1-0.9,0.2l-0.5,0.1c-0.2,0-0.3,0.1-0.4,0.1v1.1c0.3,0,0.9,0.1,1.6,0.1
			c0.7,0.1,1.1,0.2,1.1,0.3v2l-4,0.1c-0.1,0-0.4,0-1-0.1l0.1-4.3c0-1.4,0.2-2.8,0.5-4.3c0.1-0.3,0.1-0.6,0.1-0.8h2.4
			c1,0,1.8,0.1,2.4,0.2L98.6,6z"/>
		<polygon points="106.3,4.8 106.3,4.8 106.3,4.8 106.3,4.8 		"/>
		<path d="M107.3,7c0-0.4-0.1-0.7-0.3-1.1c-0.2-0.4-0.4-0.7-0.6-0.9l-0.1-0.1l0,0l0,0c0,0,0,0,0,0l0,0c-0.6-0.8-1.4-1.3-2.5-1.3
			c-1.1,0-2,0.3-2.6,0.8s-1.1,1.4-1.2,2.4c0.1,0.8,0.4,1.4,1,2c0,0,0,0,0.1,0.1l0.2,0.2c0,0,0,0,0.1,0l0,0c0.1,0.1,0.3,0.3,0.8,0.6
			H101h-0.2c-0.2,0-0.3,0-0.3,0h-0.5L99.8,10c-0.1,0.2-0.1,0.6-0.1,1.1c0,1,0.3,1.6,0.9,2l0.2,0.2c0.5,0.5,1.4,0.7,2.6,0.7
			c0.9,0,1.7-0.3,2.3-0.9l0,0c0.6-0.6,0.9-1.3,0.9-2.2c0-0.9-0.3-1.7-0.8-2.3l0,0h0l-0.2-0.2c0,0-0.1-0.1-0.2-0.3
			c-0.2-0.2-0.4-0.4-0.7-0.5c0.4-0.1,1-0.2,1.8-0.4L107.3,7z M104.3,6.9l-0.2-0.6C104,6.1,103.8,6,103.6,6c-0.2,0-0.3,0.1-0.5,0.2
			c-0.1,0.1-0.2,0.3-0.2,0.4c0,0.3,0.3,0.5,0.8,0.8c0.7,0.4,1.2,0.7,1.4,1c0.5,0.5,0.8,1.2,0.8,2.1c0,0.9-0.3,1.5-0.8,2.1
			c-0.6,0.5-1.3,0.8-2.1,0.8c-1,0-1.7-0.1-2.1-0.4c-0.6-0.3-0.9-1-0.9-1.9c0-0.5,0-0.8,0.1-1c0.2,0,0.5,0,0.9,0h1.2
			c0,0.2,0.1,0.4,0.1,0.4c0.1,0.2,0.2,0.4,0.3,0.5c0,0,0.1,0,0.1,0h0.1c0.4,0,0.6-0.2,0.6-0.7c0-0.3-0.2-0.5-0.7-0.9
			c-0.2-0.2-0.5-0.3-0.7-0.5c-0.3-0.2-0.5-0.4-0.7-0.5c-0.5-0.5-0.8-1.1-0.9-1.7c0.1-1,0.5-1.7,1.1-2.2c0.6-0.5,1.4-0.8,2.4-0.8
			c0.7,0,1.4,0.2,1.9,0.7c0.5,0.5,0.8,1.1,0.8,1.8c0,0,0,0,0,0l0,0v0C106.2,6.5,105.4,6.6,104.3,6.9z M104.6,7.6
			c-0.2-0.1-0.5-0.3-0.7-0.4c-0.1,0-0.1-0.1-0.2-0.1c0-0.2,0.1-0.3,0.3-0.3l0.2,0.5c0,0,0,0,0,0L104.6,7.6z M102.4,9.9
			c0.2,0.1,0.4,0.3,0.5,0.4c0,0,0,0,0.1,0.1c0,0.1,0,0.1,0,0.1c0,0.2,0,0.3-0.1,0.3c0,0,0-0.1,0-0.2l0-0.2L102.4,9.9z"/>
		<path d="M106.4,4.9C106.4,4.9,106.3,4.8,106.4,4.9L106.4,4.9L106.4,4.9z"/>
		<path d="M115.2,7c0-0.4-0.1-0.7-0.3-1.1c-0.2-0.4-0.4-0.7-0.6-0.9l-0.1-0.1l0,0l0,0c0,0,0,0,0,0l0,0c-0.6-0.8-1.4-1.3-2.5-1.3
			c-1.1,0-2,0.3-2.6,0.8s-1.1,1.4-1.2,2.4c0.1,0.8,0.4,1.4,1,2c0,0,0,0,0.1,0.1l0.2,0.2c0,0,0,0,0.1,0l0,0c0.1,0.1,0.3,0.3,0.8,0.6
			h-1.3h-0.2c-0.2,0-0.3,0-0.3,0H108l-0.3,0.2c-0.1,0.2-0.1,0.6-0.1,1.1c0,1,0.3,1.6,0.9,2l0.2,0.2c0.5,0.5,1.4,0.7,2.6,0.7
			c0.9,0,1.7-0.3,2.3-0.9l0,0c0.6-0.6,0.9-1.3,0.9-2.2c0-0.9-0.3-1.7-0.8-2.3l0,0h0l-0.2-0.2c0,0-0.1-0.1-0.2-0.3
			c-0.2-0.2-0.4-0.4-0.7-0.5c0.4-0.1,1-0.2,1.8-0.4L115.2,7z M112.2,6.9L112,6.3c-0.1-0.2-0.3-0.3-0.5-0.3c-0.2,0-0.3,0.1-0.5,0.2
			c-0.1,0.1-0.2,0.3-0.2,0.4c0,0.3,0.3,0.5,0.8,0.8c0.7,0.4,1.2,0.7,1.4,1c0.5,0.5,0.8,1.2,0.8,2.1c0,0.9-0.3,1.5-0.8,2.1
			c-0.6,0.5-1.3,0.8-2.1,0.8c-1,0-1.7-0.1-2.1-0.4c-0.6-0.3-0.9-1-0.9-1.9c0-0.5,0-0.8,0.1-1c0.2,0,0.5,0,0.9,0h1.2
			c0,0.2,0.1,0.4,0.1,0.4c0.1,0.2,0.2,0.4,0.3,0.5c0,0,0.1,0,0.1,0h0.1c0.4,0,0.6-0.2,0.6-0.7c0-0.3-0.2-0.5-0.7-0.9
			c-0.2-0.2-0.5-0.3-0.7-0.5c-0.3-0.2-0.5-0.4-0.7-0.5c-0.5-0.5-0.8-1.1-0.9-1.7c0.1-1,0.5-1.7,1.1-2.2c0.6-0.5,1.4-0.8,2.4-0.8
			c0.7,0,1.4,0.2,1.9,0.7c0.5,0.5,0.8,1.1,0.8,1.8c0,0,0,0,0,0l0,0v0C114.1,6.5,113.3,6.6,112.2,6.9z M112.5,7.6
			c-0.2-0.1-0.5-0.3-0.7-0.4c-0.1,0-0.1-0.1-0.2-0.1c0-0.2,0.1-0.3,0.3-0.3l0.2,0.5c0,0,0,0,0,0L112.5,7.6z M110.3,9.9
			c0.2,0.1,0.4,0.3,0.5,0.4c0,0,0,0,0.1,0.1c0,0.1,0,0.1,0,0.1c0,0.2,0,0.3-0.1,0.3c0,0,0-0.1,0-0.2l0-0.2L110.3,9.9z"/>
		<path d="M114.2,4.9C114.2,4.9,114.2,4.8,114.2,4.9L114.2,4.9L114.2,4.9z"/>
		<polygon points="114.2,4.8 114.2,4.8 114.2,4.8 114.2,4.8 		"/>
	</g>
</g>
</svg>
