<?xml version="1.0" encoding="utf-8"?>
<!-- Generator: Adobe Illustrator 25.2.0, SVG Export Plug-In . SVG Version: 6.00 Build 0)  -->
<svg version="1.1" id="Layer_1" xmlns="http://www.w3.org/2000/svg" xmlns:xlink="http://www.w3.org/1999/xlink" x="0px" y="0px"
	 viewBox="0 0 116.5 18.1" style="enable-background:new 0 0 116.5 18.1;" xml:space="preserve">
<style type="text/css">
	.st0{fill:none;}
	.st1{fill:#FABC2A;}
</style>
<g>
	<path class="st0" d="M19.5,7c-0.5,0-1,0.1-1.4,0.2C18.1,7.5,18,7.7,18,7.9c0,0.4,0,0.6,0.1,0.7c0.4,0,0.7,0.1,0.8,0.1v2.4
		c-0.7-0.2-1.1-0.4-1.3-0.6c-0.2-0.3-0.3-0.8-0.3-1.5c0-0.8,0.2-1.6,0.5-2.2c0.4-0.7,1-1.1,1.7-1.1c0.1,0,0.3,0,0.4,0.1l0.4,0.1
		c0.3-0.4,0.5-1,0.6-1.6c-0.6-0.3-1-0.4-1.2-0.4c-1.7,0-2.9,0.4-3.7,1.3c-0.7,0.8-1.1,2.1-1.1,3.7c0,1.3,0.4,2.3,1.2,3.1
		c0.8,0.8,1.8,1.2,3.1,1.2c0.2,0,0.6-0.1,1-0.2c0.5-0.1,0.8-0.3,0.8-0.4c0-2.3-0.1-4.2-0.2-5.7L19.5,7z"/>
	<path class="st0" d="M18.7,9.4c-0.1,0-0.2,0-0.2,0L18.2,9c0,0.1,0,0.1,0,0.2v0.2c0,0.5,0,0.8,0.1,1c0.2,0.1,0.4,0.2,0.5,0.2V9.4z"
		/>
	<path class="st0" d="M30,4.2l-2.8,0c0,0.1,0,0.3,0,0.5c0,0.2,0,0.4,0,0.5c0,0.4,0,0.8,0.1,1.4c0,0.6,0.1,1.1,0.1,1.4
		c0,0.5,0,0.9-0.1,1.1c-0.3-0.7-0.6-1.5-0.9-2.5l-0.8-2.6l-2.4,0.3l-0.2,4.2c-0.1,1.8-0.2,3.2-0.2,4.2c0,0.3,0.1,0.5,0.2,0.6
		c1.7,0,2.5-0.1,2.5-0.3c-0.1-1.9,0-3,0-3.2c0.6,1.6,1,2.7,1.3,3.5c0.7-0.1,1.8-0.1,3.2-0.2c0-0.7,0-1.9-0.1-3.4
		c0-1.3-0.1-2.5-0.1-3.4c0-0.1,0-0.5,0.1-1.2C30,4.6,30,4.3,30,4.2z"/>
	<path class="st0" d="M13.2,4.4c-0.4-0.3-0.8-0.4-1.4-0.4c-0.5,0-0.8,0.2-1.1,0.5c-0.3,0.3-0.4,0.7-0.4,1.2c0,0.4,0.2,0.8,0.6,1
		C11.3,6.9,11.7,7,12.2,7c0.5,0,0.9-0.1,1.2-0.4c0.4-0.3,0.5-0.6,0.5-1.1C13.9,5.1,13.7,4.7,13.2,4.4z"/>
	<path class="st0" d="M48.9,7.2L48.9,7.2c0.3,0,0.5-0.1,0.5-0.1c-0.2,0-0.4,0-0.6,0C48.9,7.1,48.9,7.1,48.9,7.2z"/>
	<path class="st0" d="M5.5,10.5c0,0.1,0,0.2,0,0.2c0.1-0.1,0.1-0.2,0.1-0.3c0,0,0-0.1,0-0.1c0,0-0.1,0-0.1-0.1
		C5.4,10.1,5.2,10,5,9.9l0.4,0.4L5.5,10.5z"/>
	<path class="st0" d="M13.5,9.2c0-0.5,0-1,0-1.4l0-0.1c-1.6,0-2.4,0-2.6,0.1c-0.2,1.2-0.2,2.4-0.2,3.7v1.3l0,0.9
		c0.9,0,1.9-0.1,2.8-0.4c0.1-0.8,0.1-1.7,0.1-2.8c0-0.2,0-0.4,0-0.6L13.5,9.2z"/>
	<path class="st0" d="M9.1,6.4C9.1,6.4,9.1,6.4,9.1,6.4L9.1,6.4L9.1,6.4z"/>
	<path class="st0" d="M8.3,4.6C7.8,4.2,7.2,3.9,6.4,3.9c-1,0-1.8,0.3-2.4,0.8C3.5,5.2,3.1,5.9,3,6.9c0.1,0.6,0.4,1.2,0.9,1.7
		C4,8.7,4.3,8.9,4.5,9.1C4.8,9.2,5,9.4,5.2,9.5c0.5,0.3,0.7,0.6,0.7,0.9c0,0.4-0.2,0.6-0.6,0.6H5.2c0,0-0.1,0-0.1,0
		c-0.1-0.2-0.2-0.4-0.3-0.5c0-0.1,0-0.2-0.1-0.4H3.6c-0.3,0-0.6,0-0.9,0c-0.1,0.2-0.1,0.6-0.1,1c0,0.9,0.3,1.5,0.8,1.8
		c0.4,0.3,1.1,0.4,2.1,0.4c0.8,0,1.5-0.3,2.1-0.8c0.5-0.5,0.8-1.2,0.8-2c0-0.9-0.3-1.5-0.8-2.1C7.5,8.1,7,7.8,6.3,7.4
		C5.8,7.2,5.5,6.9,5.5,6.7c0-0.2,0.1-0.3,0.2-0.4C5.9,6.1,6.1,6,6.2,6c0.2,0,0.4,0.1,0.5,0.3l0.2,0.6C8,6.7,8.7,6.5,9.1,6.4
		C9.1,5.7,8.8,5.1,8.3,4.6z"/>
	<path class="st0" d="M6.7,7.2L6.6,6.8c-0.2,0-0.3,0.1-0.3,0.3c0,0,0.1,0.1,0.2,0.1C6.7,7.3,7,7.5,7.2,7.6L6.7,7.2
		C6.8,7.2,6.8,7.2,6.7,7.2z"/>
	<path class="st0" d="M51.5,4.5c-0.6-0.4-1.4-0.6-2.3-0.6c-1.2,0-2.3,0.2-3.4,0.5c0,0.7-0.1,2-0.2,3.9c-0.1,1.7-0.2,3-0.2,3.9
		c0,0.5,0.1,0.9,0.2,1.1c0.9-0.2,1.4-0.3,1.6-0.3l1.2-0.2c0-0.2,0-0.6-0.1-1.4c-0.1-0.5-0.1-0.9-0.1-1.1c0-0.1,0-0.2,0-0.3
		c0.9-0.3,1.5-0.6,1.8-0.7c1.6-0.6,2.4-1.5,2.4-2.8C52.6,5.6,52.2,5,51.5,4.5z M49.2,7.4c-0.5,0.2-0.8,0.3-0.9,0.3
		c0-0.2,0-0.5-0.1-0.7c0-0.3-0.1-0.6-0.1-0.7c0.5,0,0.8-0.1,1.1-0.1c0.1,0,0.2,0.1,0.4,0.2c0.1,0.1,0.2,0.2,0.2,0.4
		C49.8,7.1,49.6,7.3,49.2,7.4z"/>
	<path class="st0" d="M43.6,4l-0.9,0c-0.8,0-1.3,0.1-1.5,0.2c0,0.2,0,0.7,0.1,1.4c0,0.4,0.1,0.7,0.1,0.9c0,0.9-0.1,1.7-0.2,2.3
		c-0.2,1.1-0.6,1.6-1.2,1.6c-0.8,0-1.2-0.8-1.2-2.5c0-0.6,0-1.3,0-2c0-1,0-1.7,0-2l-0.4,0l-2.1,0.1c0,0.1,0,0.3,0,0.5
		c0,0.3-0.1,0.5-0.1,0.5v1.6c0,1.8,0.2,3.2,0.6,4.2c0.6,1.5,1.7,2.3,3.2,2.3c1.5,0,2.6-0.6,3.3-1.9c0.6-1,0.8-2.4,0.8-4
		C44.2,5.1,44,4,43.6,4z"/>
	<path class="st1" d="M64.3,4.5c-0.6-0.4-1.4-0.6-2.3-0.6c-1.2,0-2.3,0.2-3.4,0.5c0,0.7-0.1,2-0.2,3.9c-0.1,1.7-0.2,3-0.2,3.9
		c0,0.5,0.1,0.9,0.2,1.1c0.9-0.2,1.4-0.3,1.6-0.3l1.2-0.2c0-0.2,0-0.6-0.1-1.4c-0.1-0.5-0.1-0.9-0.1-1.1c0-0.1,0-0.2,0-0.3
		C62,9.6,62.6,9.4,63,9.3c1.6-0.6,2.4-1.5,2.4-2.8C65.4,5.6,65,5,64.3,4.5z M62,7.4c-0.5,0.2-0.8,0.3-0.9,0.3c0-0.2,0-0.5-0.1-0.7
		c0-0.3-0.1-0.6-0.1-0.7c0.5,0,0.8-0.1,1.1-0.1c0.1,0,0.2,0.1,0.4,0.2c0.1,0.1,0.2,0.2,0.2,0.4C62.6,7.1,62.4,7.3,62,7.4z"/>
	<path class="st1" d="M105.6,6.4C105.6,6.4,105.6,6.4,105.6,6.4L105.6,6.4L105.6,6.4z"/>
	<path class="st1" d="M113.4,6.4C113.4,6.4,113.4,6.4,113.4,6.4L113.4,6.4L113.4,6.4z"/>
	<path class="st1" d="M112.6,4.6c-0.5-0.5-1.1-0.7-1.8-0.7c-1,0-1.8,0.3-2.4,0.8c-0.6,0.5-1,1.2-1.1,2.2c0.1,0.6,0.4,1.2,0.9,1.7
		c0.2,0.2,0.4,0.3,0.7,0.5c0.2,0.2,0.5,0.3,0.7,0.5c0.5,0.3,0.7,0.6,0.7,0.9c0,0.4-0.2,0.6-0.6,0.6h-0.1c0,0-0.1,0-0.1,0
		c-0.1-0.2-0.2-0.4-0.3-0.5c0-0.1,0-0.2-0.1-0.4h-1.2c-0.3,0-0.6,0-0.9,0c-0.1,0.2-0.1,0.6-0.1,1c0,0.9,0.3,1.5,0.8,1.8
		c0.4,0.3,1.1,0.4,2.1,0.4c0.8,0,1.5-0.3,2.1-0.8c0.5-0.5,0.8-1.2,0.8-2c0-0.9-0.3-1.5-0.8-2.1c-0.3-0.3-0.7-0.6-1.4-1
		c-0.5-0.3-0.8-0.5-0.8-0.8c0-0.2,0.1-0.3,0.2-0.4c0.1-0.1,0.3-0.2,0.5-0.2c0.2,0,0.4,0.1,0.5,0.3l0.2,0.6c1.1-0.2,1.8-0.4,2.2-0.5
		C113.3,5.7,113.1,5.1,112.6,4.6z"/>
	<path class="st1" d="M71.2,9.6c0.8-0.4,1.4-0.9,1.7-1.5c0.3-0.5,0.5-1.3,0.5-2.2c0-0.7-0.4-1.2-1.1-1.6c-0.6-0.3-1.2-0.4-2-0.4
		c-1.3,0-2.5,0.3-3.4,0.8c0,0.6-0.1,1.8-0.3,3.5c-0.1,1.3-0.2,2.5-0.2,3.5V13c0.2,0.2,0.5,0.3,1,0.3c0.1,0,0.2,0,0.4,0
		c0.2,0,0.3,0,0.4,0h0.2c0.2,0,0.3,0,0.4,0c0.2,0,0.3-0.5,0.3-1.3c0-0.8,0-1.3,0-1.6c0.2,0.2,0.3,0.4,0.4,0.6
		c0.4,0.8,0.8,1.4,0.9,1.7l0.3,0.5c0.4,0,0.9-0.1,1.4-0.2l1.4-0.3c0-0.3-0.3-0.9-1-1.6L71.2,9.6z M70.3,7.7C70,7.9,69.7,8,69.3,8
		c0.1-1,0.1-1.6,0.2-1.9C69.6,6,69.7,6,69.8,6c0.3,0,0.5,0.1,0.7,0.2c0.2,0.1,0.3,0.3,0.3,0.6C70.8,7.2,70.6,7.4,70.3,7.7z"/>
	<path class="st1" d="M93.3,3.9c0,0.2-0.1,0.5-0.1,0.8c-0.3,1.4-0.4,2.8-0.5,4.2l-0.1,4.2c0.5,0.1,0.9,0.1,0.9,0.1l4-0.1v-2
		c0-0.1-0.4-0.2-1.1-0.3c-0.7-0.1-1.2-0.1-1.5-0.1v-1c0.1,0,0.2-0.1,0.4-0.1l0.5-0.1c0.4-0.1,0.7-0.2,0.9-0.2
		c0.1-0.3,0.2-0.9,0.2-1.5l-1.5-0.2c0-0.6,0-1,0-1.3c0.2,0,0.4,0,0.6,0c0.6,0,1.3-0.1,1.9-0.2l0.1-2c-0.6-0.1-1.3-0.2-2.3-0.2H93.3z
		"/>
	<path class="st1" d="M79.5,3.9c-0.7,0-1.5,0.3-2.2,0.8c-0.7,0.5-1.3,1.1-1.7,1.8c-0.5,0.8-0.8,1.6-0.8,2.3c0,1.4,0.4,2.5,1.3,3.3
		c0.8,0.8,2,1.2,3.4,1.2c1.2,0,2.2-0.4,3-1.3c0.8-0.9,1.2-1.9,1.2-3.1c0-1.5-0.3-2.7-1-3.5C82.1,4.4,81,3.9,79.5,3.9z M80.7,9.5
		c-0.3,0.5-0.8,0.7-1.3,0.7c-0.5,0-0.9-0.1-1.2-0.4c-0.3-0.3-0.5-0.7-0.5-1.2c0-0.5,0.2-1,0.6-1.5c0.4-0.5,0.9-0.8,1.4-0.8
		c0.5,0,0.9,0.2,1.1,0.5c0.3,0.3,0.4,0.7,0.4,1.2C81.2,8.6,81,9.1,80.7,9.5z"/>
	<path class="st1" d="M88.6,10.3c-0.7-0.3-1-0.9-1-1.7c0-0.3,0.1-0.7,0.2-1c0.1-0.4,0.3-0.6,0.6-0.8c0.2-0.1,0.5-0.3,1-0.4
		c0.4-0.1,0.8-0.2,1.1-0.3c0.2-0.3,0.3-0.7,0.5-1.2l0.2-0.5c-0.1-0.3-0.6-0.5-1.4-0.5c-1.3,0-2.4,0.6-3.3,1.8
		c-0.8,1.1-1.2,2.3-1.2,3.7c0,1,0.3,2,1,2.7c0.7,0.8,1.6,1.2,2.6,1.2c0.7,0,1.5-0.4,2.4-1.1l-0.6-1.6C89.8,10.6,89.1,10.5,88.6,10.3
		z"/>
	<path class="st1" d="M104.8,4.6c-0.5-0.5-1.1-0.7-1.8-0.7c-1,0-1.8,0.3-2.4,0.8c-0.6,0.5-1,1.2-1.1,2.2c0.1,0.6,0.4,1.2,0.9,1.7
		c0.2,0.2,0.4,0.3,0.7,0.5c0.2,0.2,0.5,0.3,0.7,0.5c0.5,0.3,0.7,0.6,0.7,0.9c0,0.4-0.2,0.6-0.6,0.6h-0.1c0,0-0.1,0-0.1,0
		c-0.1-0.2-0.2-0.4-0.3-0.5c0-0.1,0-0.2-0.1-0.4h-1.2c-0.3,0-0.6,0-0.9,0c-0.1,0.2-0.1,0.6-0.1,1c0,0.9,0.3,1.5,0.8,1.8
		c0.4,0.3,1.1,0.4,2.1,0.4c0.8,0,1.5-0.3,2.1-0.8c0.5-0.5,0.8-1.2,0.8-2c0-0.9-0.3-1.5-0.8-2.1c-0.3-0.3-0.7-0.6-1.4-1
		c-0.5-0.3-0.8-0.5-0.8-0.8c0-0.2,0.1-0.3,0.2-0.4c0.1-0.1,0.3-0.2,0.5-0.2c0.2,0,0.4,0.1,0.5,0.3l0.2,0.6c1.1-0.2,1.8-0.4,2.2-0.5
		C105.6,5.7,105.4,5.1,104.8,4.6z"/>
	<path d="M8.9,4.9C8.9,4.9,8.9,4.9,8.9,4.9L8.9,4.9L8.9,4.9z"/>
	<polygon points="8.9,4.9 8.9,4.9 8.9,4.9 8.9,4.9 	"/>
	<path d="M9.9,7c0-0.4-0.1-0.7-0.3-1.1C9.5,5.6,9.3,5.3,9,5L8.9,4.9l0,0l0,0c0,0,0,0,0,0l0,0C8.3,4.1,7.5,3.6,6.4,3.6
		c-1.1,0-1.9,0.3-2.6,0.8C3.2,5,2.8,5.8,2.7,6.9c0.1,0.8,0.4,1.4,1,1.9c0,0,0,0,0.1,0.1l0.2,0.2c0,0,0,0,0.1,0l0,0
		c0.1,0.1,0.3,0.3,0.8,0.6H3.7H3.5c-0.2,0-0.3,0-0.3,0H2.7L2.5,10c-0.1,0.2-0.1,0.6-0.1,1.1c0,0.9,0.3,1.6,0.8,2l0.2,0.2
		C3.9,13.8,4.8,14,6,14c0.9,0,1.7-0.3,2.3-0.9l0,0c0.6-0.6,0.9-1.3,0.9-2.2c0-0.9-0.3-1.7-0.8-2.2l0,0h0L8.2,8.5
		c0,0-0.1-0.1-0.2-0.3C7.7,8,7.5,7.8,7.2,7.7C7.6,7.6,8.2,7.5,9,7.3L9.9,7z M6.9,6.9L6.7,6.4C6.6,6.2,6.4,6,6.2,6
		C6.1,6,5.9,6.1,5.8,6.2C5.6,6.3,5.5,6.5,5.5,6.7c0,0.2,0.3,0.5,0.8,0.8c0.7,0.4,1.2,0.7,1.4,1c0.5,0.5,0.8,1.2,0.8,2.1
		c0,0.8-0.3,1.5-0.8,2c-0.5,0.5-1.2,0.8-2.1,0.8c-0.9,0-1.6-0.1-2.1-0.4c-0.6-0.3-0.8-0.9-0.8-1.8c0-0.4,0-0.8,0.1-1
		c0.2,0,0.5,0,0.9,0h1.2c0,0.2,0.1,0.4,0.1,0.4C4.9,10.7,5,10.8,5.1,11c0,0,0.1,0,0.1,0h0.1c0.4,0,0.6-0.2,0.6-0.6
		c0-0.2-0.2-0.5-0.7-0.9C5,9.4,4.8,9.2,4.5,9.1C4.3,8.9,4,8.7,3.9,8.5C3.3,8.1,3.1,7.5,3,6.9c0.1-1,0.5-1.7,1.1-2.2
		c0.6-0.5,1.4-0.8,2.4-0.8c0.7,0,1.3,0.2,1.8,0.7c0.5,0.5,0.8,1.1,0.8,1.8c0,0,0,0,0,0l0,0v0C8.7,6.5,8,6.7,6.9,6.9z M7.2,7.6
		C7,7.5,6.7,7.3,6.4,7.2c-0.1,0-0.1-0.1-0.2-0.1c0-0.2,0.1-0.3,0.3-0.3l0.2,0.4c0,0,0,0,0,0L7.2,7.6z M5,9.9
		c0.2,0.1,0.4,0.2,0.5,0.4c0,0,0,0,0.1,0.1c0,0.1,0,0.1,0,0.1c0,0.2,0,0.3-0.1,0.3c0,0,0-0.1,0-0.2l0-0.2L5,9.9z"/>
	<path d="M13.9,4.6c-0.1-0.2-0.3-0.3-0.5-0.5c-0.4-0.3-0.9-0.5-1.5-0.5c-0.5,0-1,0.2-1.3,0.6c-0.3,0.4-0.5,0.8-0.5,1.4
		c0,0.5,0.2,1,0.7,1.3L11,7.2c0.2,0.2,0.4,0.3,0.6,0.4c-0.5,0-0.9,0.1-1,0.1c-0.2,1.3-0.3,2.6-0.3,3.8v1.3l0.1,1.2h0.1l0.4,0.4
		c1.1,0,2.2-0.2,3.2-0.5c0.1-0.9,0.1-1.9,0.1-2.9c0-0.2,0-0.4,0-0.6l0-0.8c0-0.5,0-1,0-1.3l0-0.4l-0.4-0.4l0-0.1h0
		c0.1,0,0.2-0.1,0.2-0.2C14.4,7,14.6,6.6,14.6,6c0-0.5-0.2-0.9-0.5-1.2L13.9,4.6z M13.4,13.3c-0.9,0.3-1.8,0.4-2.8,0.4l0-0.9v-1.3
		c0-1.3,0.1-2.5,0.2-3.7c0.1-0.1,1-0.1,2.6-0.1l0,0.1c0,0.4,0,0.8,0,1.4l0,0.8c0,0.1,0,0.3,0,0.6C13.5,11.6,13.5,12.5,13.4,13.3z
		 M13.4,6.7C13,6.9,12.6,7,12.2,7c-0.5,0-0.9-0.1-1.2-0.3c-0.4-0.3-0.6-0.6-0.6-1c0-0.5,0.1-0.9,0.4-1.2c0.3-0.4,0.6-0.5,1.1-0.5
		c0.5,0,1,0.1,1.4,0.4c0.4,0.3,0.7,0.7,0.7,1.2C13.9,6,13.7,6.4,13.4,6.7z"/>
	<path d="M21.2,7L21.2,7L21,6.7l-1.4,0.1c-0.1,0-0.2,0-0.3,0c0.3-0.2,0.6-0.3,1-0.3c0.1,0,0.2,0,0.3,0.1c0.3,0.1,0.5,0.1,0.6,0.1
		c0.4-0.5,0.7-1.2,0.7-2l-0.4-0.4c0,0,0,0,0,0v0c-0.7-0.3-1.2-0.5-1.5-0.5c-1.7,0-3,0.4-3.9,1.3c-0.8,0.9-1.2,2.2-1.2,3.9
		c0,1.3,0.5,2.5,1.5,3.5c0.1,0.1,0.1,0.1,0.2,0.2l0.2,0.2c0.8,0.8,1.9,1.3,3.2,1.3c0.3,0,0.6-0.1,1.1-0.2c0.6-0.2,1-0.4,1-0.7
		c0-2.3-0.1-4.2-0.2-5.7L21.2,7z M20.4,13.1c-0.4,0.1-0.7,0.2-1,0.2c-1.2,0-2.3-0.4-3.1-1.2c-0.8-0.8-1.2-1.9-1.2-3.1
		c0-1.7,0.4-2.9,1.1-3.7c0.8-0.8,2-1.3,3.7-1.3c0.2,0,0.6,0.1,1.2,0.4C21,5,20.8,5.5,20.5,5.9l-0.4-0.1c-0.2,0-0.3-0.1-0.4-0.1
		c-0.7,0-1.3,0.4-1.7,1.1c-0.4,0.6-0.5,1.3-0.5,2.2c0,0.7,0.1,1.2,0.3,1.5c0.2,0.2,0.6,0.4,1.3,0.6V8.7c-0.2,0-0.5,0-0.8-0.1
		C18.1,8.5,18,8.2,18,7.9c0-0.1,0-0.4,0.1-0.6C18.5,7.1,19,7,19.5,7L21,7c0.1,1.5,0.2,3.4,0.2,5.7C21.2,12.8,20.9,13,20.4,13.1z
		 M18.1,9.4V9.2c0-0.1,0-0.1,0-0.2l0.3,0.3c0,0,0.1,0,0.2,0v1.3c-0.1,0-0.3-0.1-0.5-0.2C18.2,10.3,18.1,9.9,18.1,9.4z"/>
	<path d="M30.3,4l-3.4,0c0,0.1,0,0.2,0,0.4c0,0.2,0,0.3,0,0.4v0c0,0.1,0,0.1,0,0.2v0.2c0,0.7,0,1.3,0.1,1.7l-0.8-2.8l-0.4-0.4l0-0.1
		l-2.8,0.3l-0.3,4.5c-0.1,1.9-0.2,3.3-0.2,4.2c0,0.4,0.1,0.7,0.3,0.9h0l0.4,0.4c1.9,0,2.9-0.2,2.9-0.6c0-0.1,0-0.3,0-0.6l0-0.6
		c0.2,0.4,0.3,0.8,0.5,1.2h0c0,0,0,0,0,0l0.4,0.4l0.7-0.1c0.9-0.1,1.9-0.1,2.9-0.2V13c0-0.5,0-1.5-0.1-3c0-1.3-0.1-2.4-0.1-3.4
		c0-0.3,0-0.7,0.1-1.2l0-0.3l0-0.5c0-0.1,0-0.1,0-0.2L30.3,4L30.3,4z M29.9,9.6C30,11.1,30,12.2,30,13c-1.4,0.1-2.5,0.1-3.2,0.2
		c-0.3-0.7-0.7-1.9-1.3-3.5c-0.1,0.3-0.1,1.3,0,3.2c0,0.2-0.8,0.3-2.5,0.3c-0.1-0.1-0.2-0.4-0.2-0.6c0-1,0.1-2.4,0.2-4.2l0.2-4.2
		l2.4-0.3l0.8,2.6c0.3,1,0.6,1.9,0.9,2.5c0.1-0.2,0.1-0.6,0.1-1.1c0-0.3,0-0.7-0.1-1.4c0-0.6-0.1-1-0.1-1.4c0-0.1,0-0.3,0-0.5
		c0-0.2,0-0.4,0-0.5l2.8,0c0,0.1,0,0.3-0.1,0.7c-0.1,0.7-0.1,1.1-0.1,1.2C29.8,7.1,29.9,8.3,29.9,9.6z"/>
	<path d="M44,4c-0.1-0.2-0.3-0.3-0.4-0.3h0l-0.9,0c-0.9,0-1.5,0.1-1.8,0.4c0,0.3,0,0.7,0.1,1.2C41,5.9,41,6.3,41,6.6
		c0,0.9-0.1,1.7-0.2,2.2c-0.2,0.9-0.5,1.4-0.9,1.4c-0.1,0-0.2,0-0.2,0c-0.2-0.4-0.2-0.9-0.2-1.7c0-0.4,0-1,0-1.9c0-0.8,0-1.5,0-1.9
		V4.2l-0.4-0.4V3.7l-0.7-0.1L36,3.8c0,0.2,0.1,0.4,0.1,0.4s0,0.2,0,0.3C36,4.8,36,5,36,5.1v1.6c0,3.1,0.6,5.2,1.8,6.1L38,13
		c0.6,0.6,1.5,0.9,2.5,0.9c1.6,0,2.8-0.7,3.6-2.1c0.6-1,0.9-2.4,0.9-4.1c0-1.9-0.2-3.1-0.6-3.4L44,4z M43.3,11.3
		c-0.7,1.3-1.8,1.9-3.3,1.9c-1.5,0-2.6-0.8-3.2-2.3c-0.4-1-0.6-2.4-0.6-4.2V5.1c0-0.1,0-0.2,0.1-0.5c0-0.2,0-0.4,0-0.5l2.1-0.1
		l0.4,0c0,0.4,0,1,0,2c0,0.7,0,1.4,0,2c0,1.7,0.4,2.5,1.2,2.5c0.5,0,0.9-0.5,1.2-1.6c0.1-0.6,0.2-1.4,0.2-2.3c0-0.2,0-0.6-0.1-0.9
		c-0.1-0.7-0.1-1.2-0.1-1.4C41.3,4.1,41.8,4,42.6,4l0.9,0c0.4,0,0.6,1.1,0.6,3.3C44.2,9,43.9,10.3,43.3,11.3z"/>
	<path d="M52.6,5.1C52.6,5.1,52.6,5.1,52.6,5.1C52.6,5.1,52.6,5.1,52.6,5.1L52.4,5c-0.6-0.9-1.7-1.4-3.2-1.4c-1.3,0-2.5,0.2-3.7,0.6
		c0,0.4,0,1,0,1.7l0,1.1c0,0.2,0,0.6-0.1,1.2c-0.1,1.7-0.1,3-0.1,3.9c0,0.6,0.1,1.1,0.3,1.4c0,0,0,0,0,0l0.4,0.4
		c0,0,0.3-0.1,0.9-0.2l2.3-0.4c0-0.3,0-0.9-0.1-1.6c0-0.5-0.1-0.9-0.1-1.1v-0.1c0.3-0.1,0.8-0.3,1.3-0.5c0.1,0,0.2-0.1,0.4-0.1
		c0.7-0.3,1.3-0.6,1.8-1.1c0.5-0.5,0.8-1.2,0.8-1.9C53.3,6.2,53.1,5.6,52.6,5.1L52.6,5.1z M50.2,9.3c-0.3,0.1-0.9,0.3-1.8,0.7
		c0,0.1,0,0.2,0,0.3c0,0.3,0,0.6,0.1,1.1c0.1,0.7,0.1,1.2,0.1,1.4L47.4,13c-0.2,0-0.7,0.1-1.6,0.3c-0.1-0.2-0.2-0.6-0.2-1.1
		c0-0.8,0.1-2.1,0.2-3.9c0.1-1.8,0.2-3.1,0.2-3.9c1.1-0.4,2.2-0.5,3.4-0.5c0.9,0,1.6,0.2,2.3,0.6c0.7,0.5,1.1,1.1,1.1,2
		C52.6,7.7,51.8,8.7,50.2,9.3z"/>
	<path d="M49.3,6.3c-0.3,0-0.7,0-1.1,0.1c0.1,0.1,0.1,0.4,0.1,0.7c0,0.2,0,0.5,0.1,0.7c0.1,0,0.4-0.1,0.9-0.3
		c0.4-0.2,0.6-0.4,0.6-0.6c0-0.1-0.1-0.2-0.2-0.4C49.5,6.4,49.4,6.3,49.3,6.3z M48.9,7.3L48.9,7.3c0-0.1,0-0.2,0-0.2
		c0.1,0,0.3,0,0.6,0C49.4,7.1,49.2,7.1,48.9,7.3z"/>
	<path d="M65.3,5.1C65.3,5.1,65.3,5.1,65.3,5.1C65.3,5.1,65.3,5.1,65.3,5.1L65.2,5c-0.6-0.9-1.7-1.4-3.2-1.4c-1.3,0-2.5,0.2-3.7,0.6
		c0,0.4,0,1,0,1.7l0,1.1c0,0.2,0,0.6-0.1,1.2c-0.1,1.7-0.1,3-0.1,3.9c0,0.6,0.1,1.1,0.3,1.4c0,0,0,0,0,0l0.4,0.4
		c0,0,0.3-0.1,0.9-0.2l2.3-0.4c0-0.3,0-0.9-0.1-1.6c0-0.5-0.1-0.9-0.1-1.1v-0.1c0.3-0.1,0.8-0.3,1.3-0.5c0.1,0,0.2-0.1,0.4-0.1
		c0.7-0.3,1.3-0.6,1.8-1.1c0.5-0.5,0.8-1.2,0.8-1.9C66.1,6.2,65.9,5.6,65.3,5.1L65.3,5.1z M63,9.3c-0.3,0.1-0.9,0.3-1.8,0.7
		c0,0.1,0,0.2,0,0.3c0,0.3,0,0.6,0.1,1.1c0.1,0.7,0.1,1.2,0.1,1.4L60.1,13c-0.2,0-0.7,0.1-1.6,0.3c-0.1-0.2-0.2-0.6-0.2-1.1
		c0-0.8,0.1-2.1,0.2-3.9c0.1-1.8,0.2-3.1,0.2-3.9c1.1-0.4,2.2-0.5,3.4-0.5c0.9,0,1.6,0.2,2.3,0.6c0.7,0.5,1.1,1.1,1.1,2
		C65.4,7.7,64.6,8.7,63,9.3z"/>
	<path d="M62,6.3c-0.3,0-0.7,0-1.1,0.1C60.9,6.5,61,6.7,61,7.1c0,0.2,0,0.5,0.1,0.7c0.1,0,0.4-0.1,0.9-0.3c0.4-0.2,0.6-0.4,0.6-0.6
		c0-0.1-0.1-0.2-0.2-0.4C62.3,6.4,62.1,6.3,62,6.3z M61.7,7.3L61.7,7.3c0-0.1,0-0.2,0-0.2c0.1,0,0.3,0,0.6,0
		C62.2,7.1,62,7.1,61.7,7.3z"/>
	<path d="M69.8,6c-0.2,0-0.3,0-0.4,0.1c0,0.3-0.1,0.9-0.2,1.9c0.3,0,0.6-0.1,0.9-0.3c0.3-0.2,0.5-0.5,0.5-0.8c0-0.3-0.1-0.5-0.3-0.6
		C70.3,6.1,70.1,6,69.8,6z M70.5,6.8c0,0.2-0.1,0.4-0.3,0.6c0-0.1,0-0.4,0.1-0.7c0,0,0.1,0,0.1,0C70.4,6.7,70.4,6.7,70.5,6.8
		C70.5,6.8,70.5,6.8,70.5,6.8L70.5,6.8z"/>
	<path d="M72.1,10.1c0.7-0.4,1.3-1,1.6-1.5C74,8,74.1,7.3,74.1,6.4c0-0.5-0.2-1-0.5-1.3l-0.2-0.2c-0.2-0.3-0.5-0.6-0.9-0.8
		c-0.6-0.3-1.3-0.5-2.1-0.5c-1.4,0-2.6,0.3-3.7,1c0,0.7-0.1,1.9-0.3,3.6c-0.1,1.2-0.2,2.4-0.2,3.3v0.2l0,1.4c0,0,0.1,0.1,0.2,0.1
		l0.3,0.3c0.3,0.3,0.7,0.4,1.3,0.4H68c0.1,0,0.1,0,0.2,0h0c0,0,0.1,0,0.2,0c0.1,0,0.2,0,0.2,0h0.2c0.1,0,0.3,0,0.4,0.1
		c0.4-0.1,0.6-0.6,0.6-1.6v-0.3c0,0,0,0,0,0c0.3,0.5,0.5,0.9,0.7,1.3h0l0.4,0.4c0.5,0,1.1-0.1,1.6-0.2l1.6-0.4c0-0.5-0.4-1.2-1-1.9
		L72.1,10.1z M72.1,13c-0.5,0.1-1,0.2-1.4,0.2l-0.3-0.5c-0.2-0.3-0.5-0.9-0.9-1.7c-0.1-0.2-0.2-0.4-0.4-0.6c0,0.3,0,0.8,0,1.6
		c0,0.8-0.1,1.3-0.3,1.3c-0.1,0-0.2,0-0.4,0h-0.2c-0.1,0-0.2,0-0.4,0c-0.2,0-0.3,0-0.4,0c-0.5,0-0.8-0.1-1-0.3v-1.3
		c0-1,0.1-2.2,0.2-3.5c0.2-1.7,0.3-2.9,0.3-3.5c0.9-0.6,2.1-0.8,3.4-0.8c0.8,0,1.4,0.1,2,0.4c0.7,0.4,1.1,0.9,1.1,1.6
		c0,0.9-0.2,1.6-0.5,2.2c-0.3,0.5-0.9,1-1.7,1.5l1.3,1.5c0.6,0.7,0.9,1.2,1,1.6L72.1,13z"/>
	<path d="M83.1,5.1c-0.8-1-2-1.5-3.5-1.5c-0.8,0-1.6,0.3-2.4,0.9c-0.7,0.5-1.3,1.1-1.8,1.9c-0.5,0.8-0.8,1.6-0.8,2.5
		c0,1.5,0.5,2.6,1.4,3.5c0.1,0,0.1,0.1,0.2,0.2l0.1,0.1c0.9,0.9,2.2,1.4,3.7,1.4c1.3,0,2.4-0.5,3.2-1.4c0.9-0.9,1.3-2,1.3-3.3
		c0-1.8-0.4-3.2-1.3-4L83.1,5.1z M82.6,12c-0.8,0.9-1.8,1.3-3,1.3c-1.4,0-2.6-0.4-3.4-1.2c-0.9-0.8-1.3-1.9-1.3-3.3
		c0-0.8,0.3-1.5,0.8-2.3c0.4-0.7,1-1.3,1.7-1.8c0.7-0.5,1.5-0.8,2.2-0.8c1.5,0,2.6,0.5,3.3,1.4c0.7,0.8,1,2,1,3.5
		C83.9,10.1,83.4,11.1,82.6,12z"/>
	<path d="M79.7,6.3c-0.5,0-1,0.3-1.4,0.8c-0.4,0.5-0.6,1-0.6,1.5c0,0.5,0.2,0.9,0.5,1.2c0.3,0.3,0.7,0.4,1.2,0.4
		c0.6,0,1-0.2,1.3-0.7C81,9.1,81.2,8.6,81.2,8c0-0.5-0.1-0.9-0.4-1.2C80.5,6.5,80.2,6.3,79.7,6.3z M80.5,9.3
		c-0.3,0.4-0.7,0.6-1.2,0.6c-0.3,0-0.6-0.1-0.9-0.2c-0.1-0.2-0.1-0.4-0.1-0.6c0-0.5,0.2-0.9,0.5-1.4C79.3,7.3,79.7,7,80.1,7
		c0.2,0,0.4,0,0.6,0.1c0.1,0.2,0.2,0.5,0.2,0.9C80.9,8.5,80.8,9,80.5,9.3z"/>
	<path d="M90.9,10.4L90.9,10.4l-0.2-0.1c-0.1,0-0.1,0-0.1,0h-0.2c-0.9,0-1.5-0.1-1.9-0.4c-0.1-0.2-0.2-0.5-0.2-0.9
		c0-0.3,0.1-0.6,0.2-0.9c0.1-0.3,0.3-0.5,0.5-0.7c0.2-0.1,0.5-0.3,1-0.4C90.4,7,90.7,6.9,91,6.8c0.1-0.1,0.1-0.3,0.2-0.5l0.2-0.5h0
		c0-0.1,0.1-0.2,0.2-0.4l0.2-0.6c0-0.1-0.1-0.2-0.2-0.3l-0.3-0.3c-0.2-0.4-0.8-0.6-1.6-0.6c-1.4,0-2.6,0.6-3.5,1.9
		c-0.9,1.2-1.3,2.5-1.3,3.8c0,1.1,0.4,2.1,1.1,2.9c0.2,0.2,0.4,0.4,0.5,0.5l0.1,0.1c0.7,0.7,1.6,1.1,2.6,1.1c0.8,0,1.6-0.4,2.6-1.1
		l0.1-0.3l-0.6-1.8L90.9,10.4z M88.8,13.3c-1,0-1.9-0.4-2.6-1.2c-0.7-0.8-1-1.7-1-2.7c0-1.3,0.4-2.6,1.2-3.7c0.9-1.2,2-1.8,3.3-1.8
		c0.8,0,1.2,0.2,1.4,0.5l-0.2,0.5c-0.2,0.5-0.3,0.9-0.5,1.2c-0.3,0-0.6,0.1-1.1,0.3c-0.5,0.2-0.8,0.3-1,0.4
		c-0.2,0.2-0.4,0.4-0.6,0.8c-0.1,0.3-0.2,0.6-0.2,1c0,0.8,0.3,1.4,1,1.7c0.5,0.2,1.2,0.3,2.1,0.3l0.6,1.6
		C90.4,12.9,89.5,13.3,88.8,13.3z"/>
	<path d="M98.3,3.8c-0.8-0.1-1.7-0.2-2.6-0.2h-2.6C93,4,92.9,4.3,92.9,4.5l0,0.2c-0.3,1.7-0.4,3.2-0.5,4.2l-0.1,4.5h0.1l0.4,0.4
		c0.7,0.1,1.1,0.1,1.2,0.1l4.2-0.1v-2.2c0-0.1,0-0.1-0.1-0.2l-0.4-0.4c-0.1-0.2-0.5-0.4-1.3-0.4c-0.3,0-0.5,0-0.8-0.1v-0.2
		c0.1,0,0.5-0.1,1.2-0.3c0.2,0,0.3-0.1,0.4-0.1c0.2-0.4,0.3-1.1,0.3-2L97,7.6V7.5l-1-0.2c0-0.1,0-0.2,0-0.4h0.4
		c0.7,0,1.4-0.1,2.2-0.2l0.2-2.4L98.3,3.8L98.3,3.8z M97.8,6.1c-0.7,0.1-1.3,0.2-1.9,0.2c-0.2,0-0.4,0-0.6,0c0,0.3,0,0.7,0,1.3
		l1.5,0.2c0,0.7-0.1,1.2-0.2,1.5c-0.1,0.1-0.4,0.1-0.9,0.2l-0.5,0.1c-0.2,0-0.3,0.1-0.4,0.1v1c0.3,0,0.8,0.1,1.5,0.1
		c0.7,0.1,1.1,0.2,1.1,0.3v2l-4,0.1c-0.1,0-0.4,0-0.9-0.1l0.1-4.2c0-1.4,0.2-2.8,0.5-4.2c0.1-0.3,0.1-0.6,0.1-0.8h2.3
		c1,0,1.8,0.1,2.3,0.2L97.8,6.1z"/>
	<path d="M106.4,7c0-0.4-0.1-0.7-0.3-1.1c-0.2-0.4-0.4-0.7-0.6-0.9l-0.1-0.1l0,0l0,0c0,0,0,0,0,0l0,0c-0.6-0.8-1.4-1.2-2.4-1.2
		c-1.1,0-1.9,0.3-2.6,0.8c-0.6,0.5-1,1.3-1.2,2.4c0.1,0.8,0.4,1.4,1,1.9c0,0,0,0,0.1,0.1l0.2,0.2c0,0,0,0,0.1,0l0,0
		c0.1,0.1,0.3,0.3,0.8,0.6h-1.2H100c-0.2,0-0.3,0-0.3,0h-0.5L99,10c-0.1,0.2-0.1,0.6-0.1,1.1c0,0.9,0.3,1.6,0.8,2l0.2,0.2
		c0.5,0.5,1.3,0.7,2.6,0.7c0.9,0,1.7-0.3,2.3-0.9l0,0c0.6-0.6,0.9-1.3,0.9-2.2c0-0.9-0.3-1.7-0.8-2.2l0,0h0l-0.2-0.2
		c0,0-0.1-0.1-0.2-0.3c-0.2-0.2-0.4-0.4-0.7-0.5c0.3-0.1,0.9-0.2,1.8-0.4L106.4,7z M103.5,6.9l-0.2-0.6C103.1,6.2,103,6,102.8,6
		c-0.2,0-0.3,0.1-0.5,0.2c-0.1,0.1-0.2,0.3-0.2,0.4c0,0.2,0.3,0.5,0.8,0.8c0.7,0.4,1.2,0.7,1.4,1c0.5,0.5,0.8,1.2,0.8,2.1
		c0,0.8-0.3,1.5-0.8,2c-0.5,0.5-1.2,0.8-2.1,0.8c-0.9,0-1.6-0.1-2.1-0.4c-0.6-0.3-0.8-0.9-0.8-1.8c0-0.4,0-0.8,0.1-1
		c0.2,0,0.5,0,0.9,0h1.2c0,0.2,0.1,0.4,0.1,0.4c0.1,0.2,0.2,0.4,0.3,0.5c0,0,0.1,0,0.1,0h0.1c0.4,0,0.6-0.2,0.6-0.6
		c0-0.2-0.2-0.5-0.7-0.9c-0.2-0.2-0.5-0.3-0.7-0.5c-0.3-0.2-0.5-0.4-0.7-0.5c-0.5-0.5-0.8-1-0.9-1.7c0.1-1,0.5-1.7,1.1-2.2
		c0.6-0.5,1.4-0.8,2.4-0.8c0.7,0,1.3,0.2,1.8,0.7c0.5,0.5,0.8,1.1,0.8,1.8c0,0,0,0,0,0l0,0v0C105.3,6.5,104.6,6.7,103.5,6.9z
		 M103.7,7.6c-0.2-0.1-0.5-0.3-0.7-0.4c-0.1,0-0.1-0.1-0.2-0.1c0-0.2,0.1-0.3,0.3-0.3l0.2,0.4c0,0,0,0,0,0L103.7,7.6z M101.6,9.9
		c0.2,0.1,0.4,0.2,0.5,0.4c0,0,0,0,0.1,0.1c0,0.1,0,0.1,0,0.1c0,0.2,0,0.3-0.1,0.3c0,0,0-0.1,0-0.2l0-0.2L101.6,9.9z"/>
	<path d="M105.5,4.9C105.4,4.9,105.4,4.9,105.5,4.9L105.5,4.9L105.5,4.9z"/>
	<polygon points="105.4,4.9 105.4,4.9 105.4,4.9 105.4,4.9 	"/>
	<polygon points="113.2,4.9 113.2,4.9 113.2,4.9 113.2,4.9 	"/>
	<path d="M113.2,4.9C113.2,4.9,113.2,4.9,113.2,4.9L113.2,4.9L113.2,4.9z"/>
	<path d="M114.2,7c0-0.4-0.1-0.7-0.3-1.1c-0.2-0.4-0.4-0.7-0.6-0.9l-0.1-0.1l0,0l0,0c0,0,0,0,0,0l0,0c-0.6-0.8-1.4-1.2-2.4-1.2
		c-1.1,0-1.9,0.3-2.6,0.8c-0.6,0.5-1,1.3-1.2,2.4c0.1,0.8,0.4,1.4,1,1.9c0,0,0,0,0.1,0.1l0.2,0.2c0,0,0,0,0.1,0l0,0
		c0.1,0.1,0.3,0.3,0.8,0.6H108h-0.2c-0.2,0-0.3,0-0.3,0H107l-0.3,0.2c-0.1,0.2-0.1,0.6-0.1,1.1c0,0.9,0.3,1.6,0.8,2l0.2,0.2
		c0.5,0.5,1.3,0.7,2.6,0.7c0.9,0,1.7-0.3,2.3-0.9l0,0c0.6-0.6,0.9-1.3,0.9-2.2c0-0.9-0.3-1.7-0.8-2.2l0,0h0l-0.2-0.2
		c0,0-0.1-0.1-0.2-0.3c-0.2-0.2-0.4-0.4-0.7-0.5c0.3-0.1,0.9-0.2,1.8-0.4L114.2,7z M111.2,6.9L111,6.4c-0.1-0.2-0.3-0.3-0.5-0.3
		c-0.2,0-0.3,0.1-0.5,0.2c-0.1,0.1-0.2,0.3-0.2,0.4c0,0.2,0.3,0.5,0.8,0.8c0.7,0.4,1.2,0.7,1.4,1c0.5,0.5,0.8,1.2,0.8,2.1
		c0,0.8-0.3,1.5-0.8,2c-0.5,0.5-1.2,0.8-2.1,0.8c-0.9,0-1.6-0.1-2.1-0.4c-0.6-0.3-0.8-0.9-0.8-1.8c0-0.4,0-0.8,0.1-1
		c0.2,0,0.5,0,0.9,0h1.2c0,0.2,0.1,0.4,0.1,0.4c0.1,0.2,0.2,0.4,0.3,0.5c0,0,0.1,0,0.1,0h0.1c0.4,0,0.6-0.2,0.6-0.6
		c0-0.2-0.2-0.5-0.7-0.9c-0.2-0.2-0.5-0.3-0.7-0.5c-0.3-0.2-0.5-0.4-0.7-0.5c-0.5-0.5-0.8-1-0.9-1.7c0.1-1,0.5-1.7,1.1-2.2
		c0.6-0.5,1.4-0.8,2.4-0.8c0.7,0,1.3,0.2,1.8,0.7c0.5,0.5,0.8,1.1,0.8,1.8c0,0,0,0,0,0l0,0v0C113,6.5,112.3,6.7,111.2,6.9z
		 M111.4,7.6c-0.2-0.1-0.5-0.3-0.7-0.4c-0.1,0-0.1-0.1-0.2-0.1c0-0.2,0.1-0.3,0.3-0.3l0.2,0.4c0,0,0,0,0,0L111.4,7.6z M109.3,9.9
		c0.2,0.1,0.4,0.2,0.5,0.4c0,0,0,0,0.1,0.1c0,0.1,0,0.1,0,0.1c0,0.2,0,0.3-0.1,0.3c0,0,0-0.1,0-0.2l0-0.2L109.3,9.9z"/>
</g>
</svg>
