<?xml version="1.0" encoding="utf-8"?>
<!-- Generator: Adobe Illustrator 25.2.0, SVG Export Plug-In . SVG Version: 6.00 Build 0)  -->
<svg version="1.1" id="Graphic_Elements" xmlns="http://www.w3.org/2000/svg" xmlns:xlink="http://www.w3.org/1999/xlink" x="0px"
	 y="0px" viewBox="0 0 144.4 144.4" style="enable-background:new 0 0 144.4 144.4;" xml:space="preserve">
<style type="text/css">
	.st0{fill:#FDBC2B;}
	.st1{fill:#FFFFFF;}
</style>
<g>
	<circle class="st0" cx="72.2" cy="76.9" r="67.5"/>
	<g>
		<path class="st1" d="M93,27.4H51.4c-4,0-7.2,3.2-7.2,7.2v84.5c0,4,3.2,7.2,7.2,7.2H93c4,0,7.2-3.2,7.2-7.2V34.7
			C100.2,30.7,97,27.4,93,27.4z M61.9,31.8h20.5c0.5,0,0.9,0.8,0.9,1.7c0,1-0.4,1.7-0.9,1.7H61.9c-0.5,0-0.9-0.8-0.9-1.7
			C61,32.6,61.4,31.8,61.9,31.8z M72.2,119.2c-2.5,0-4.6-2.1-4.6-4.6s2.1-4.6,4.6-4.6c2.5,0,4.6,2.1,4.6,4.6S74.7,119.2,72.2,119.2z
			 M94.8,103.5H49.6V39.6h45.2C94.8,39.6,94.8,103.5,94.8,103.5z"/>
	</g>
</g>
</svg>
