<?xml version="1.0" encoding="utf-8"?>
<!-- Generator: Adobe Illustrator 25.2.0, SVG Export Plug-In . SVG Version: 6.00 Build 0)  -->
<svg version="1.1" id="Layer_1" xmlns="http://www.w3.org/2000/svg" xmlns:xlink="http://www.w3.org/1999/xlink" x="0px" y="0px"
	 viewBox="0 0 800 800" style="enable-background:new 0 0 800 800;" xml:space="preserve">
<style type="text/css">
	.st0{fill:#FDBC2B;}
	.st1{fill:#D19620;}
	.st2{fill:#FFFFFF;}
	.st3{fill:#E5E5E5;}
</style>
<path class="st0" d="M480.2,12.5H319.8c-147.6,0-267.3,119.7-267.3,267.3v120.3c0,109.6,66,203.8,160.4,245v142.5l120.3-120.3h147
	c147.6,0,267.3-119.7,267.3-267.3V279.8C747.4,132.2,627.8,12.5,480.2,12.5z"/>
<path class="st1" d="M266.4,734.1V645C172,603.8,106,509.6,106,400.1V279.8c0-147.6,119.7-267.3,267.3-267.3h-53.5
	c-147.6,0-267.3,119.7-267.3,267.3v120.3c0,109.6,66,203.8,160.4,245v142.5L266.4,734.1z"/>
<path class="st2" d="M576.6,434.6l-94.5-18.9l-44.8,44.8c-75.8-32.1-115.9-72.2-151.2-151.2l44.8-44.8L312,170l-65.1-12
	c-14.2,3.2-27.8,10.4-38.9,21.5c-21.6,21.6-24.6,51.5-20.1,79.7c10,63.7,41,148.9,95.3,203.4l0,0c0.1,0.1,0.3,0.3,0.4,0.4
	c0.1,0.1,0.3,0.3,0.4,0.4l0,0c54.5,54.3,139.7,85.3,203.4,95.3c28.2,4.4,58.1,1.4,79.7-20.1c11.1-11.1,18.2-24.6,21.5-38.9
	L576.6,434.6z"/>
<path class="st3" d="M512.7,533.5c-63.7-10-148.9-41-203.4-95.3l0,0c-0.1-0.1-0.3-0.3-0.4-0.4c-0.1-0.1-0.3-0.3-0.4-0.4l0,0
	c-54.3-54.5-85.3-139.7-95.3-203.4c-3.6-22.6-2.3-46.3,9.4-65.9c-5.1,3.2-10,7-14.5,11.4c-21.6,21.6-24.6,51.5-20.1,79.7
	c10,63.7,41,148.9,95.3,203.4l0,0c0.1,0.1,0.3,0.3,0.4,0.4c0.1,0.1,0.3,0.3,0.4,0.4l0,0c54.5,54.3,139.7,85.3,203.4,95.3
	c28.2,4.4,58.1,1.4,79.7-20.1c4.5-4.5,8.3-9.3,11.4-14.5C559,535.8,535.2,537,512.7,533.5z"/>
<path d="M680,83.9c-4.8-4.9-12.8-5-17.7-0.2c-4.9,4.8-5,12.8-0.2,17.7c47,47.9,72.8,111.2,72.8,178.3V400
	c0,140.5-114.3,254.7-254.7,254.7h-147c-3.3,0-6.5,1.3-8.9,3.7l-98.9,98.9V645c0-5-3-9.5-7.5-11.5C125.1,593,65.1,501.3,65.1,400.1
	V279.8c0-140.5,114.3-254.7,254.7-254.7h160.4c50.1,0,98.5,14.5,140.1,42c5.8,3.8,13.5,2.2,17.4-3.6c3.8-5.8,2.2-13.5-3.6-17.4
	C588.4,15.9,535.2,0,480.2,0H319.8C165.6,0,40,125.5,40,279.8V400c0,108.5,62.7,206.9,160.4,253.1v134.5c0,10.9,13.6,16.6,21.4,8.9
	l116.6-116.6h141.8c154.3,0,279.8-125.5,279.8-279.8V279.8C760,206.1,731.6,136.6,680,83.9z"/>
<path d="M489.4,546.3c-59.9-9.4-143-38.5-196.5-91.8l-0.8-0.8c-24.6-24.7-46.6-58.8-63.5-98.6c-2.7-6.4-10.1-9.3-16.4-6.6
	c-6.4,2.7-9.3,10.1-6.6,16.4c18.1,42.7,41.9,79.5,68.8,106.6l0.8,0.8C333,529.8,421.8,561,485.5,571c8,1.3,15.7,1.9,23.1,1.9
	c27.5,0,50.5-8.7,67.4-25.5c12.4-12.4,21-27.9,24.8-44.9c0.4-1.7,0.4-3.4,0.1-5l-12-65.1c-0.9-5-4.8-9-9.9-10l-94.5-18.9
	c-4.1-0.8-8.4,0.5-11.3,3.4l-38.8,38.8c-65.4-29.2-101.5-65.4-133.3-133.6l38.7-38.7c3-3,4.2-7.2,3.4-11.3l-18.9-94.5
	c-1-5-5-8.9-10-9.9l-65.1-12c-1.7-0.3-3.4-0.3-5,0.1c-17,3.9-32.6,12.5-44.9,24.8c-21.4,21.4-29.6,52.7-23.6,90.5
	c2.7,17.2,6.7,35,12,53c1.9,6.6,8.9,10.5,15.5,8.5c6.6-1.9,10.5-8.9,8.5-15.5c-4.9-16.9-8.7-33.7-11.3-49.8
	c-4.7-30,0.9-53.1,16.6-68.9c8.4-8.4,18.9-14.5,30.4-17.5l54.1,10l15.9,79.6l-40.1,40.1c-3.7,3.7-4.7,9.2-2.6,14
	C311.1,396,353.8,438.8,432.4,472c4.7,2,10.1,0.9,13.7-2.7l40.1-40.1l79.6,15.9l10,54.1c-3.1,11.5-9.1,21.9-17.5,30.4
	C542.5,545.4,519.4,551,489.4,546.3z"/>
<path d="M426.7,227.2c-6.9,0-12.5,5.6-12.5,12.5s5.6,12.5,12.5,12.5c29.9,0,54.3,24.4,54.3,54.3c0,6.8,5.7,12.5,12.5,12.5
	c6.8,0,12.5-5.7,12.5-12.5C506.1,262.8,470.5,227.2,426.7,227.2z"/>
<path d="M544.9,332.3c6.8,0.7,13.1-4.3,13.8-11.1c0.5-4.9,0.8-9.8,0.8-14.7c0-73.2-59.6-132.8-132.8-132.8c-4.9,0-9.9,0.3-14.7,0.8
	c-6.9,0.8-11.8,6.9-11.1,13.8c0.8,6.9,6.9,11.8,13.8,11.1c4-0.4,8-0.7,12-0.7c59.4,0,107.7,48.3,107.7,107.7c0,4-0.2,8-0.7,12
	C533,325.4,538,331.6,544.9,332.3z"/>
<path d="M608,349.5c3.3-14,5-28.5,5-43c0-102.7-83.5-186.2-186.2-186.2c-4.8,0-9.6,0.2-14.3,0.5c-6.9,0.5-12.1,6.5-11.5,13.4
	c0.5,6.9,6.5,12.1,13.4,11.5c4.1-0.3,8.3-0.5,12.4-0.5c88.9,0,161.2,72.3,161.2,161.2c0,12.6-1.5,25.1-4.3,37.2
	c-1.6,6.6,2.6,13.3,9.1,15C599.4,360.5,606.4,356.2,608,349.5z"/>
</svg>
