<?xml version="1.0" encoding="utf-8"?>
<!-- Generator: Adobe Illustrator 25.2.0, SVG Export Plug-In . SVG Version: 6.00 Build 0)  -->
<svg version="1.1" id="Layer_1" xmlns="http://www.w3.org/2000/svg" xmlns:xlink="http://www.w3.org/1999/xlink" x="0px" y="0px"
	 viewBox="0 0 1457.8 1256.7" style="enable-background:new 0 0 1457.8 1256.7;" xml:space="preserve">
<style type="text/css">
	.st0{fill:#EF4924;}
	.st1{opacity:0.3;}
	.st2{fill:#ED8526;stroke:#ED8526;stroke-miterlimit:10;}
	.st3{fill:#292929;}
	.st4{fill:#FBBB2B;}
	.st5{fill:#2D2D2D;stroke:#000000;stroke-width:6;stroke-miterlimit:10;}
	.st6{fill:#1E1D1E;}
	.st7{fill:#6B6A6B;}
	.st8{fill:#412412;stroke:#1F130C;stroke-width:4;stroke-miterlimit:10;}
	.st9{fill:#F6F7F7;}
	.st10{fill:#1F130C;}
	.st11{fill:#412412;stroke:#1F130C;stroke-width:5;stroke-miterlimit:10;}
	.st12{fill:#FFFFFF;}
	.st13{fill:#FFFFFF;stroke:#1F130C;stroke-width:4;stroke-miterlimit:10;}
	.st14{fill:#FCBD2C;stroke:#1F130C;stroke-width:4;stroke-miterlimit:10;}
	.st15{fill:#EF4924;stroke:#1F130C;stroke-width:4;stroke-miterlimit:10;}
	.st16{fill:#5C3617;}
	.st17{fill:#2D2D2D;}
	.st18{fill:none;stroke:#000000;stroke-width:4;stroke-miterlimit:10;}
	.st19{fill:none;stroke:#1F130C;stroke-width:8;stroke-miterlimit:10;}
	.st20{fill:#001438;}
	.st21{fill:#0C0F3F;}
	.st22{fill:url(#SVGID_1_);stroke:#000000;stroke-width:4;stroke-miterlimit:10;}
	.st23{fill:#3D0E53;}
	.st24{fill:url(#SVGID_2_);}
	.st25{fill:none;stroke:#000000;stroke-width:5;stroke-miterlimit:10;}
	.st26{fill:#4B4DF2;}
</style>
<g>
	<path class="st0" d="M1110.6,849.9c-24.4,23.8-46.2,37.7-62.9,48.3c-162.8,102.8-348.8,73.2-406.4,63
		c-92.8-16.3-171.2-27.9-238.5-85.4c-153-130.7-145.5-403.4-28.6-572.3c13.9-20,130.6-183.6,317-206.7c4.6-0.6,8-0.9,10.9-1.2
		c28.8-2.9,207.6-18.1,353.4,97.4c20.9,16.5,54.4,46.4,85.6,91.8C1255,451.2,1255.3,708.8,1110.6,849.9z"/>
	<g>
		<g class="st1">
			<path class="st2" d="M139.9,370.8l1.6,2.8l34.2,59.3h68.4l26.9-46.5l6.8-11.7l0.6-1.1l1.2-2h64.7c0.5-1.9,2.3-3.3,4.4-3.3
				c2.5,0,4.6,2.1,4.6,4.6c0,2.5-2.1,4.6-4.6,4.6c-2,0-3.7-1.3-4.3-3h-63.1L247,433.7l34.2,59.2h68.5l0.2-0.3v3.2h-70.3l-34.7-60.1
				h-70.8l-35.9-62.1L139.9,370.8z"/>
			<g>
				<path class="st2" d="M708.3,147.8l45.3-78.4h90.5l45.3,78.4l-45.3,78.4h-90.5L708.3,147.8z M886.2,147.8l-43.7-75.7h-87.4
					l-43.7,75.7l43.7,75.7h87.4L886.2,147.8z"/>
			</g>
			<g>
				<path class="st2" d="M975.8,611.4l45.3-78.4h90.5l45.3,78.4l-45.3,78.4h-90.5L975.8,611.4z M1153.7,611.4l-43.7-75.7h-87.4
					L979,611.4l43.7,75.7h87.4L1153.7,611.4z"/>
			</g>
			<g>
				<path class="st2" d="M440.9,148.4L486.2,70h90.5l45.3,78.4l-45.3,78.4h-90.5L440.9,148.4z M618.8,148.4l-43.7-75.7h-87.4
					l-43.7,75.7l43.7,75.7h87.4L618.8,148.4z"/>
			</g>
			<g>
				<path class="st2" d="M440.9,632.2l45.3-78.4h90.5l45.3,78.4l-45.3,78.4h-90.5L440.9,632.2z M618.8,632.2l-43.7-75.7h-87.4
					l-43.7,75.7l43.7,75.7h87.4L618.8,632.2z"/>
			</g>
			<g>
				<path class="st2" d="M249.9,724l45.3-78.4h90.5L431,724l-45.3,78.4h-90.5L249.9,724z M427.8,724l-43.7-75.7h-87.4L253.1,724
					l43.7,75.7h87.4L427.8,724z"/>
			</g>
		</g>
		<g>
			<g>
				<path class="st2" d="M32.7,433.7l35.9-62.1h71.7l35.9,62.1l-35.9,62.1H68.6L32.7,433.7z M172.9,433.7l-34.2-59.3H70.2L36,433.7
					L70.2,493h68.5L172.9,433.7z"/>
			</g>
			<g>
				<path class="st2" d="M692.8,557.4c-0.3-54.6,43.9-99.2,98.5-99.5c54.6-0.3,99.2,43.9,99.5,98.5c0.3,54.6-43.9,99.2-98.5,99.5
					C737.6,656.2,693,612,692.8,557.4z M703.4,557.4c0.2,48.7,40,88.1,88.7,87.9c48.7-0.2,88.1-40,87.9-88.7
					c-0.2-48.7-40-88.1-88.7-87.9C742.6,468.9,703.2,508.7,703.4,557.4z"/>
				<path class="st2" d="M792.3,676.8c66.1-0.3,119.5-54.3,119.2-120.4l-9.2,0c0.3,61-49.1,110.9-110.1,111.2
					c-61,0.3-110.9-49.1-111.2-110.1c-0.3-61,49.1-110.9,110.1-111.2l0-9.2c-66.1,0.3-119.5,54.3-119.2,120.4
					C672.3,623.6,726.3,677.1,792.3,676.8z"/>
				<path class="st2" d="M692.5,657.9l6.5-6.5c-51.7-51.2-52.1-135-0.9-186.7l-6.5-6.5C636.7,513.5,637.2,603.1,692.5,657.9z"/>
				
					<rect x="604.9" y="545.1" transform="matrix(1 -4.893945e-03 4.893945e-03 1 -2.6622 3.0886)" class="st2" width="49.7" height="0.9"/>
				
					<rect x="578.7" y="584.5" transform="matrix(1 -4.894906e-03 4.894906e-03 1 -2.856 3.0849)" class="st2" width="100.1" height="0.9"/>
				
					<rect x="551.4" y="619.8" transform="matrix(1 -4.897342e-03 4.897342e-03 1 -3.0299 3.1237)" class="st2" width="169.9" height="0.9"/>
				<path class="st2" d="M741.3,597.2c0,9.3,7.7,16.9,17,16.8c9.3,0,16.9-7.7,16.8-17c0-1.8-0.3-3.6-0.9-5.2l49.7-24.1
					c3.1,4.5,8.2,7.4,14.1,7.4c9.3,0,16.9-7.7,16.8-17c0-9.3-7.7-16.9-17-16.8c-5.8,0-10.9,3-13.9,7.4l-48.2-23.5
					c0.6-1.7,0.9-3.5,0.9-5.4c0-9.3-7.7-16.9-17-16.8c-9.3,0-16.9,7.7-16.8,17c0,9.3,7.7,16.9,17,16.8c5.8,0,10.9-3,13.9-7.4
					l48.2,23.5c-0.6,1.7-0.9,3.5-0.9,5.4c0,1.8,0.3,3.6,0.9,5.2l-49.7,24.1c-3.1-4.5-8.2-7.4-14.1-7.4
					C748.8,580.3,741.3,587.9,741.3,597.2z"/>
				<path class="st2" d="M610.3,546.1c0-3-2.5-5.4-5.5-5.4c-3,0-5.4,2.5-5.4,5.5c0,3,2.5,5.4,5.5,5.4
					C607.9,551.5,610.3,549.1,610.3,546.1z"/>
				<path class="st2" d="M584.1,584.5c0-3-2.5-5.4-5.5-5.4c-3,0-5.4,2.5-5.4,5.5c0,3,2.5,5.4,5.5,5.4
					C581.7,590,584.2,587.5,584.1,584.5z"/>
				<path class="st2" d="M556.8,620.6c0-3-2.5-5.4-5.5-5.4c-3,0-5.4,2.5-5.4,5.5c0,3,2.5,5.4,5.5,5.4
					C554.4,626.1,556.8,623.6,556.8,620.6z"/>
			</g>
			<g>
				<g>
					<polygon class="st2" points="384.4,556.3 455.3,556.3 491.1,494.2 455.7,432.8 453.2,434.2 487.9,494.2 453.6,553.5 
						384.4,553.5 					"/>
				</g>
				<g>
					<path class="st2" d="M242.8,554.9l35.9-62.1h71.7l35.9,62.1L350.4,617h-71.7L242.8,554.9z M383,554.9l-34.2-59.3h-68.5
						l-34.2,59.3l34.2,59.3h68.5L383,554.9z"/>
				</g>
				<g>
					
						<rect x="226.9" y="644.5" transform="matrix(0.5 -0.866 0.866 0.5 -428.4238 549.8459)" class="st2" width="70.1" height="2.8"/>
				</g>
				<g>
					<polygon class="st2" points="173.3,677 175.7,675.6 141.1,615.6 176.2,554.9 173.7,553.5 137.8,615.6 					"/>
				</g>
				<g>
					
						<rect x="155.8" y="489.4" transform="matrix(0.866 -0.5 0.5 0.866 -241.3894 148.9242)" class="st2" width="2.8" height="70.9"/>
				</g>
				<g>
					<rect x="64" y="614.2" class="st2" width="75.4" height="2.8"/>
				</g>
			</g>
			<g>
				<g>
					<path class="st2" d="M571.4,357.6l34.3,59.4l-34.3,59.4h-68.6L468.6,417l34.3-59.4H571.4z M501.1,354.6L465,417l36,62.4h72.1
						l36-62.4l-36-62.4H501.1L501.1,354.6z"/>
				</g>
			</g>
			<g>
				<g>
					<path class="st2" d="M484.8,494c0,2.5,2.1,4.6,4.6,4.6c2.5,0,4.6-2.1,4.6-4.6s-2.1-4.6-4.6-4.6
						C486.9,489.4,484.8,491.5,484.8,494z"/>
				</g>
				<g>
					<circle class="st2" cx="453.6" cy="433.7" r="4.6"/>
				</g>
				<g>
					<path class="st2" d="M344,494c0,2.5,2.1,4.6,4.6,4.6c2.5,0,4.6-2.1,4.6-4.6s-2.1-4.6-4.6-4.6C346.1,489.4,344,491.5,344,494z"
						/>
				</g>
				<g>
					<path class="st2" d="M134.9,494c0,2.5,2.1,4.6,4.6,4.6c2.5,0,4.6-2.1,4.6-4.6s-2.1-4.6-4.6-4.6
						C136.9,489.4,134.9,491.5,134.9,494z"/>
				</g>
				<g>
					<path class="st2" d="M239.9,678c0,2.5,2.1,4.6,4.6,4.6c2.5,0,4.6-2.1,4.6-4.6c0-2.5-2.1-4.6-4.6-4.6
						C241.9,673.4,239.9,675.4,239.9,678z"/>
				</g>
				<g>
					<path class="st2" d="M345,615.6c0,2.5,2.1,4.6,4.6,4.6c2.5,0,4.6-2.1,4.6-4.6c0-2.5-2.1-4.6-4.6-4.6
						C347,611,345,613.1,345,615.6z"/>
				</g>
				<g>
					<path class="st2" d="M64,615.6c0,2.5,2.1,4.6,4.6,4.6s4.6-2.1,4.6-4.6c0-2.5-2.1-4.6-4.6-4.6S64,613.1,64,615.6z"/>
				</g>
				<g>
					<path class="st2" d="M134.9,615.6c0,2.5,2.1,4.6,4.6,4.6c2.5,0,4.6-2.1,4.6-4.6c0-2.5-2.1-4.6-4.6-4.6
						C136.9,611,134.9,613.1,134.9,615.6z"/>
				</g>
			</g>
			<g>
				<g>
					<path class="st2" d="M985.2,295.9l5.5-3.2l1,1.7l-5.5,3.2L985.2,295.9z M993.7,291l5.5-3.2l1,1.7l-5.5,3.2L993.7,291z
						 M1002.3,286l5.5-3.2l1,1.7l-5.5,3.2L1002.3,286z M1010.8,281.1l5.5-3.2l1,1.7l-5.5,3.2L1010.8,281.1z M1019.4,276.1l5.5-3.2
						l1,1.7l-5.5,3.2L1019.4,276.1z M1027.9,271.2l5.5-3.2l1,1.7l-5.5,3.2L1027.9,271.2z M1036.5,266.3l5.5-3.2l1,1.7l-5.5,3.2
						L1036.5,266.3z M1045,261.3l5.5-3.2l1,1.7l-5.5,3.2L1045,261.3z M1053.6,256.4l5.5-3.2l1,1.7l-5.5,3.2L1053.6,256.4z
						 M1062.1,251.5l5.5-3.2l1,1.7l-5.5,3.2L1062.1,251.5z M1070.7,246.5l5.5-3.2l1,1.7l-5.5,3.2L1070.7,246.5z M1079.2,241.6
						l5.5-3.2l1,1.7l-5.5,3.2L1079.2,241.6z M1087.8,236.7l5.5-3.2l1,1.7l-5.5,3.2L1087.8,236.7z M1096.3,231.7l5.5-3.2l1,1.7
						l-5.5,3.2L1096.3,231.7z"/>
				</g>
				<g>
					<path class="st2" d="M962.8,449.2l1-1.7l5.5,3.2l-1,1.7L962.8,449.2z M954.2,444.3l1-1.7l5.5,3.2l-1,1.7L954.2,444.3z
						 M945.7,439.3l1-1.7l5.5,3.2l-1,1.7L945.7,439.3z M937.2,434.4l1-1.7l5.5,3.2l-1,1.7L937.2,434.4z M928.6,429.4l1-1.7l5.5,3.2
						l-1,1.7L928.6,429.4z M920.1,424.5l1-1.7l5.5,3.2l-1,1.7L920.1,424.5z M911.5,419.5l1-1.7l5.5,3.2l-1,1.7L911.5,419.5z
						 M903,414.5l1-1.7l5.5,3.2l-1,1.7L903,414.5z M894.5,409.6l1-1.7l5.5,3.2l-1,1.7L894.5,409.6z M885.9,404.6l1-1.7l5.5,3.2
						l-1,1.7L885.9,404.6z M877.4,399.7l1-1.7l5.5,3.2l-1,1.7L877.4,399.7z M868.9,394.7l1-1.7l5.5,3.2l-1,1.7L868.9,394.7z
						 M860.3,389.8l1-1.7l5.5,3.2l-1,1.7L860.3,389.8z M851.8,384.8l1-1.7l5.5,3.2l-1,1.7L851.8,384.8z"/>
				</g>
				<g>
					<path class="st2" d="M1280.5,295.4l0.7-1.8l5.8,2.4l-0.7,1.8L1280.5,295.4z M1271.4,291.6l0.7-1.8l5.8,2.4l-0.7,1.8
						L1271.4,291.6z M1262.4,287.8l0.7-1.8l5.8,2.4l-0.7,1.8L1262.4,287.8z M1253.4,284.1l0.7-1.8l5.8,2.4l-0.7,1.8L1253.4,284.1z
						 M1244.3,280.3l0.7-1.8l5.8,2.4l-0.7,1.8L1244.3,280.3z M1235.3,276.5l0.7-1.8l5.8,2.4l-0.7,1.8L1235.3,276.5z M1226.2,272.7
						l0.7-1.8l5.8,2.4l-0.7,1.8L1226.2,272.7z M1217.2,269l0.7-1.8l5.8,2.4l-0.7,1.8L1217.2,269z M1208.2,265.2l0.7-1.8l5.8,2.4
						l-0.7,1.8L1208.2,265.2z M1199.1,261.4l0.7-1.8l5.8,2.4l-0.7,1.8L1199.1,261.4z M1190.1,257.6l0.7-1.8l5.8,2.4l-0.7,1.8
						L1190.1,257.6z M1181,253.9l0.7-1.8l5.8,2.4l-0.7,1.8L1181,253.9z M1172,250.1l0.7-1.8l5.8,2.4l-0.7,1.8L1172,250.1z
						 M1162.9,246.3l0.7-1.8l5.8,2.4l-0.7,1.8L1162.9,246.3z M1153.9,242.5l0.7-1.8l5.8,2.4l-0.7,1.8L1153.9,242.5z M1144.9,238.8
						l0.7-1.8l5.8,2.4l-0.7,1.8L1144.9,238.8z M1135.8,235l0.7-1.8l5.8,2.4l-0.7,1.8L1135.8,235z M1126.8,231.2l0.7-1.8l5.8,2.4
						l-0.7,1.8L1126.8,231.2z M1117.7,227.4l0.7-1.8l5.8,2.4l-0.7,1.8L1117.7,227.4z M849.8,221.8l5.5-3.3l1,1.7l-5.5,3.3
						L849.8,221.8z M1097.8,217l1-1.7l5.6,3.2l-1,1.7L1097.8,217z M858.4,216.6l5.5-3.3l1,1.7l-5.5,3.3L858.4,216.6z M1089.1,212
						l1-1.7l5.6,3.2l-1,1.7L1089.1,212z M867,211.5l5.5-3.3l1,1.7l-5.5,3.3L867,211.5z M1080.3,207l1-1.7l5.6,3.2l-1,1.7L1080.3,207
						z M875.6,206.3l5.5-3.3l1,1.7l-5.5,3.3L875.6,206.3z M1071.5,202.1l1-1.7l5.6,3.2l-1,1.7L1071.5,202.1z M884.2,201.2l5.5-3.3
						l1,1.7l-5.5,3.3L884.2,201.2z M1062.8,197.1l1-1.7l5.6,3.2l-1,1.7L1062.8,197.1z M892.9,196l5.5-3.3l1,1.7l-5.5,3.3L892.9,196z
						 M1054,192.1l1-1.7l5.6,3.2l-1,1.7L1054,192.1z M901.5,190.8l5.5-3.3l1,1.7l-5.5,3.3L901.5,190.8z M1045.3,187.2l1-1.7l5.6,3.2
						l-1,1.7L1045.3,187.2z M910.1,185.7l5.5-3.3l1,1.7l-5.5,3.3L910.1,185.7z M1036.5,182.2l1-1.7l5.6,3.2l-1,1.7L1036.5,182.2z
						 M918.7,180.5l5.5-3.3l1,1.7l-5.5,3.3L918.7,180.5z M1027.7,177.2l1-1.7l5.6,3.2l-1,1.7L1027.7,177.2z M927.3,175.4l5.5-3.3
						l1,1.7l-5.5,3.3L927.3,175.4z M1019,172.2l1-1.7l5.6,3.2l-1,1.7L1019,172.2z M936,170.2l5.5-3.3l1,1.7l-5.5,3.3L936,170.2z
						 M1010.2,167.3l1-1.7l5.6,3.2l-1,1.7L1010.2,167.3z M944.6,165l5.5-3.3l1,1.7l-5.5,3.3L944.6,165z M1001.5,162.3l1-1.7l5.6,3.2
						l-1,1.7L1001.5,162.3z M953.2,159.9l5.5-3.3l1,1.7l-5.5,3.3L953.2,159.9z M992.7,157.3l1-1.7l5.6,3.2l-1,1.7L992.7,157.3z
						 M961.8,154.7l5.5-3.3l1,1.7l-5.5,3.3L961.8,154.7z M984,152.4l1-1.7l5.6,3.2l-1,1.7L984,152.4z"/>
				</g>
				<g>
					<path class="st2" d="M710.7,144.8l-4.5,4.5l1.3,1.3l1.6-1.6h1.6V144.8L710.7,144.8z M703.8,151.8l-4.3,4.3l1.3,1.3l4.3-4.3
						L703.8,151.8L703.8,151.8z M708.8,152.5v6.1h1.9v-6.1H708.8L708.8,152.5z M697.1,158.6l-4.3,4.3l1.3,1.3l4.3-4.3L697.1,158.6
						L697.1,158.6z M708.8,162.1v6.1h1.9v-6.1H708.8L708.8,162.1z M690.4,165.4l-4.3,4.3l1.3,1.3l4.3-4.3L690.4,165.4L690.4,165.4z
						 M708.8,171.6v6.1h1.9v-6.1H708.8L708.8,171.6z M683.7,172.2l-4.3,4.3l1.3,1.3l4.3-4.3L683.7,172.2L683.7,172.2z M677,179
						l-4.3,4.3l1.3,1.3l4.3-4.3L677,179L677,179z M708.8,181.1v6.1h1.9v-6.1H708.8L708.8,181.1z M670.3,185.7l-4.3,4.3l1.3,1.3
						l4.3-4.3L670.3,185.7L670.3,185.7z M708.8,190.7v6.1h1.9v-6.1H708.8L708.8,190.7z M663.6,192.5l-4.3,4.3l1.3,1.3l4.3-4.3
						L663.6,192.5L663.6,192.5z M656.9,199.3l-4.3,4.3l1.3,1.3l4.3-4.3L656.9,199.3L656.9,199.3z M708.8,200.2v6.1h1.9v-6.1H708.8
						L708.8,200.2z M650.3,206.1l-4.3,4.3l1.3,1.3l4.3-4.3L650.3,206.1L650.3,206.1z M708.8,209.7v6.1h1.9v-6.1H708.8L708.8,209.7z
						 M643.6,212.9l-4.3,4.3l1.3,1.3l4.3-4.3L643.6,212.9L643.6,212.9z M708.8,219.2v6.1h1.9v-6.1H708.8L708.8,219.2z M636.9,219.7
						l-4.3,4.3l1.3,1.3l4.3-4.3L636.9,219.7L636.9,219.7z M630.2,226.4l-4.3,4.3l1.3,1.3l4.3-4.3L630.2,226.4L630.2,226.4z
						 M708.8,228.8v6.1h1.9v-6.1H708.8L708.8,228.8z M623.5,233.2l-4.3,4.3l1.3,1.3l4.3-4.3L623.5,233.2L623.5,233.2z M708.8,238.3
						v6.1h1.9v-6.1H708.8L708.8,238.3z M616.8,240l-4.3,4.3l1.3,1.3l4.3-4.3L616.8,240L616.8,240z M610.1,246.8l-4.3,4.3l1.3,1.3
						l4.3-4.3L610.1,246.8L610.1,246.8z M708.8,247.8v6.1h1.9v-6.1H708.8L708.8,247.8z M603.4,253.6l-4.3,4.3l1.3,1.3l4.3-4.3
						L603.4,253.6L603.4,253.6z M708.8,257.4v6.1h1.9v-6.1H708.8L708.8,257.4z M596.7,260.4l-4.3,4.3l1.3,1.3l4.3-4.3L596.7,260.4
						L596.7,260.4z M708.8,266.9v6.1h1.9v-6.1H708.8L708.8,266.9z M590,267.2l-4.3,4.3l1.3,1.3l4.3-4.3L590,267.2L590,267.2z
						 M583.3,273.9l-4.3,4.3l1.3,1.3l4.3-4.3L583.3,273.9L583.3,273.9z M708.8,276.4v6.1h1.9v-6.1H708.8L708.8,276.4z M576.6,280.7
						l-4.3,4.3l1.3,1.3l4.3-4.3L576.6,280.7L576.6,280.7z M708.8,286v6.1h1.9V286H708.8L708.8,286z M569.9,287.5l-4.3,4.3l1.3,1.3
						l4.3-4.3L569.9,287.5L569.9,287.5z M563.2,294.3l-1.4,1.4l1.3,1.3l1.4-1.4L563.2,294.3L563.2,294.3z"/>
				</g>
				<g>
					<path class="st2" d="M1160.9,147.1h6.3v1.9h-6.3V147.1z M1170.8,147.1h6.3v1.9h-6.3V147.1z M1180.7,147.1h6.3v1.9h-6.3V147.1z
						 M1190.6,147.1h6.3v1.9h-6.3V147.1z M1200.4,147.1h6.3v1.9h-6.3V147.1z M1210.3,147.1h6.3v1.9h-6.3V147.1z M1220.2,147.1h6.3
						v1.9h-6.3V147.1z M1230,147.1h6.3v1.9h-6.3V147.1z M1239.9,147.1h6.3v1.9h-6.3V147.1z"/>
				</g>
				<g>
					<path class="st2" d="M1099.7,370.5l1-1.7l5.7,3.2l-1,1.7L1099.7,370.5z M1090.8,365.5l1-1.7l5.7,3.2l-1,1.7L1090.8,365.5z
						 M1081.9,360.6l1-1.7l5.7,3.2l-1,1.7L1081.9,360.6z M1073,355.6l1-1.7l5.7,3.2l-1,1.7L1073,355.6z M1064.1,350.6l1-1.7l5.7,3.2
						l-1,1.7L1064.1,350.6z M1055.2,345.6l1-1.7l5.7,3.2l-1,1.7L1055.2,345.6z M1046.3,340.7l1-1.7l5.7,3.2l-1,1.7L1046.3,340.7z
						 M1037.4,335.7l1-1.7l5.7,3.2l-1,1.7L1037.4,335.7z M1028.5,330.7l1-1.7l5.7,3.2l-1,1.7L1028.5,330.7z M1019.6,325.7l1-1.7
						l5.7,3.2l-1,1.7L1019.6,325.7z M1010.7,320.8l1-1.7l5.7,3.2l-1,1.7L1010.7,320.8z M1001.8,315.8l1-1.7l5.7,3.2l-1,1.7
						L1001.8,315.8z M992.9,310.8l1-1.7l5.7,3.2l-1,1.7L992.9,310.8z M984,305.8l1-1.7l5.7,3.2l-1,1.7L984,305.8z"/>
				</g>
			</g>
			<g>
				<g>
					<polygon class="st2" points="1021.5,225.8 1111.6,225.8 1157,147.2 1112,69.2 1109.6,70.6 1153.8,147.2 1110,223.1 
						1021.5,223.1 					"/>
				</g>
				<g>
					
						<rect x="997.9" y="450.4" transform="matrix(0.866 -0.5001 0.5001 0.866 -113.6093 565.9974)" class="st2" width="2.7" height="89.2"/>
				</g>
				<g>
					<path class="st2" d="M841.8,224.5l45.4-78.7H978l45.4,78.7L978,303.1h-90.8L841.8,224.5z M1020.3,224.5l-43.8-75.9h-87.7
						L845,224.5l43.8,75.9h87.7L1020.3,224.5z"/>
				</g>
				<g>
					<polygon class="st2" points="887.2,457.7 978,457.7 1023.1,379.7 1020.7,378.4 976.5,455 888.8,455 845,379 889.2,302.4 
						886.8,301.1 841.8,379 					"/>
				</g>
				<g>
					<polygon class="st2" points="1020.8,380.4 1111.6,380.4 1157,301.8 1111.6,223.1 1021.5,223.1 1021.5,225.8 1110,225.8 
						1153.8,301.8 1110,377.7 1022.3,377.7 978.1,301.1 975.7,302.4 					"/>
				</g>
				<g>
					<polygon class="st2" points="753.2,379.7 755.5,378.4 711.3,301.8 755.1,225.8 843.6,225.8 843.6,223.1 753.5,223.1 
						708.1,301.8 					"/>
				</g>
				<g>
					<rect x="730.7" y="141.2" transform="matrix(0.866 -0.5 0.5 0.866 5.1525 390.8902)" class="st2" width="2.7" height="89.2"/>
				</g>
				<g>
					<rect x="557.2" y="300.4" class="st2" width="152.5" height="2.7"/>
				</g>
				<g>
					<rect x="1155.4" y="300.4" class="st2" width="136.8" height="2.7"/>
				</g>
			</g>
			<g>
				<g>
					<circle class="st2" cx="1021.5" cy="379" r="4.5"/>
				</g>
				<g>
					<circle class="st2" cx="1110.8" cy="379" r="4.5"/>
				</g>
				<g>
					<path class="st2" d="M1017.1,533.6c0,2.5,2,4.5,4.5,4.5c2.5,0,4.5-2,4.5-4.5c0-2.5-2-4.5-4.5-4.5
						C1019.1,529.2,1017.1,531.2,1017.1,533.6z"/>
				</g>
				<g>
					<path class="st2" d="M972.5,301.8c0,2.5,2,4.5,4.5,4.5c2.5,0,4.5-2,4.5-4.5s-2-4.5-4.5-4.5
						C974.5,297.3,972.5,299.3,972.5,301.8z"/>
				</g>
				<g>
					<path class="st2" d="M972.5,456.3c0,2.5,2,4.5,4.5,4.5c2.5,0,4.5-2,4.5-4.5c0-2.5-2-4.5-4.5-4.5
						C974.5,451.9,972.5,453.9,972.5,456.3z"/>
				</g>
				<g>
					<circle class="st2" cx="887.3" cy="301.8" r="4.5"/>
				</g>
				<g>
					<circle class="st2" cx="887.3" cy="147.2" r="4.5"/>
				</g>
				<g>
					<path class="st2" d="M972.8,147.2c0,2.5,2,4.5,4.5,4.5c2.5,0,4.5-2,4.5-4.5c0-2.5-2-4.5-4.5-4.5
						C974.8,142.7,972.8,144.7,972.8,147.2z"/>
				</g>
				<g>
					<circle class="st2" cx="709.7" cy="301.8" r="4.5"/>
				</g>
				<g>
					<path class="st2" d="M552.8,301.8c0,2.5,2,4.5,4.5,4.5c2.5,0,4.5-2,4.5-4.5s-2-4.5-4.5-4.5
						C554.8,297.3,552.8,299.3,552.8,301.8z"/>
				</g>
				<g>
					<path class="st2" d="M1151,301.8c0,2.5,2,4.5,4.5,4.5s4.5-2,4.5-4.5s-2-4.5-4.5-4.5S1151,299.3,1151,301.8z"/>
				</g>
				<g>
					<path class="st2" d="M1287.8,301.8c0,2.5,2,4.5,4.5,4.5s4.5-2,4.5-4.5s-2-4.5-4.5-4.5S1287.8,299.3,1287.8,301.8z"/>
				</g>
				<g>
					<circle class="st2" cx="1021.5" cy="224.5" r="4.5"/>
				</g>
				<g>
					<circle class="st2" cx="1110.8" cy="224.5" r="4.5"/>
				</g>
				<g>
					<circle class="st2" cx="754.5" cy="224.5" r="4.5"/>
				</g>
				<g>
					<circle class="st2" cx="709.7" cy="147.2" r="4.5"/>
				</g>
				<g>
					<path class="st2" d="M839.3,224.5c0,2.5,2,4.5,4.5,4.5c2.5,0,4.5-2,4.5-4.5s-2-4.5-4.5-4.5C841.3,220,839.3,222,839.3,224.5z"
						/>
				</g>
				<g>
					<path class="st2" d="M882.8,456.3c0,2.5,2,4.5,4.5,4.5c2.5,0,4.5-2,4.5-4.5c0-2.5-2-4.5-4.5-4.5
						C884.8,451.9,882.8,453.9,882.8,456.3z"/>
				</g>
				<g>
					<path class="st2" d="M839.3,379c0,2.5,2,4.5,4.5,4.5c2.5,0,4.5-2,4.5-4.5c0-2.5-2-4.5-4.5-4.5
						C841.3,374.6,839.3,376.6,839.3,379z"/>
				</g>
				<g>
					<circle class="st2" cx="754.5" cy="379" r="4.5"/>
				</g>
				<g>
					<path class="st2" d="M1151,147.2c0,2.5,2,4.5,4.5,4.5s4.5-2,4.5-4.5c0-2.5-2-4.5-4.5-4.5S1151,144.7,1151,147.2z"/>
				</g>
				<g>
					<circle class="st2" cx="1110.8" cy="71.2" r="4.5"/>
				</g>
			</g>
			<g>
				<g>
					<path class="st2" d="M933.7,187.5c0.3-0.2,0.6-0.2,0.9-0.1c0.3,0.1,0.5,0.4,0.5,0.8v7.3c16.1,1,28.7,14.3,28.7,30.1
						c0,7.4-2.8,14.5-7.8,20.1c-0.2,0.2-0.4,0.3-0.6,0.3c-0.2,0-0.4-0.1-0.5-0.2l-7.1-5.6c-0.2-0.1-0.3-0.4-0.3-0.6
						c0-0.2,0.1-0.5,0.2-0.6c3.6-3.6,5.5-8.4,5.5-13.4c0-10-8-18.5-18.2-19.2v7.3c0,0.3-0.2,0.6-0.5,0.7c-0.3,0.1-0.6,0.1-0.9-0.1
						l-8.3-6.6c-0.1,0-0.1-0.1-0.2-0.1l-3.2-2.5l-4.9-3.9c-0.2-0.2-0.3-0.4-0.3-0.7c0-0.3,0.1-0.5,0.3-0.7L933.7,187.5z"/>
				</g>
				<g>
					<path class="st2" d="M912.6,204.3l7.6,6c0.2,0.2,0.3,0.4,0.3,0.6c0,0.2-0.1,0.5-0.3,0.6c-4,3.7-6.2,8.7-6.2,14
						c0,10.6,8.7,19.1,19.3,19.3v-7.5c0-0.3,0.2-0.6,0.5-0.8c0.3-0.1,0.6-0.1,0.9,0.1l8.1,6.2c0.1,0,0.3,0.1,0.4,0.3c0,0,0,0,0,0
						l7.6,5.8c0.2,0.2,0.3,0.4,0.3,0.6c0,0.2-0.1,0.5-0.3,0.6l-16.1,13.1c-0.2,0.1-0.3,0.2-0.5,0.2c-0.1,0-0.3,0-0.4-0.1
						c-0.3-0.1-0.5-0.4-0.5-0.7v-7.1c-16.9,0.1-30.9-13.3-30.9-30.1c0-8,3.2-15.6,8.9-21.2C911.7,204,912.2,204,912.6,204.3z"/>
				</g>
			</g>
			<g>
				<path class="st2" d="M482,496.3l-5.1,3l0.9,1.5l5.1-3L482,496.3L482,496.3z M474,501l-5.1,3l0.9,1.5l5.1-3L474,501L474,501z
					 M466.1,505.6l-5.1,3l0.9,1.5l5.1-3L466.1,505.6L466.1,505.6z M458.2,510.3l-5.1,3l0.9,1.5l5.1-3L458.2,510.3L458.2,510.3z
					 M450.2,515l-5.1,3l0.9,1.5l5.1-3L450.2,515L450.2,515z M442.3,519.7l-5.1,3l0.9,1.5l5.1-3L442.3,519.7L442.3,519.7z
					 M434.4,524.4l-5.1,3l0.9,1.5l5.1-3L434.4,524.4L434.4,524.4z M426.5,529.1l-5.1,3l0.9,1.5l5.1-3L426.5,529.1L426.5,529.1z
					 M418.5,533.8l-5.1,3l0.9,1.5l5.1-3L418.5,533.8L418.5,533.8z M410.6,538.5l-5.1,3l0.9,1.5l5.1-3L410.6,538.5L410.6,538.5z
					 M402.7,543.2l-5.1,3l0.9,1.5l5.1-3L402.7,543.2L402.7,543.2z M394.7,547.9l-5.1,3l0.9,1.5l5.1-3L394.7,547.9L394.7,547.9z"/>
			</g>
			<path class="st2" d="M337.3,609.6l0.9-1.6l5.3,3.1l-0.9,1.6L337.3,609.6z M329,604.8l0.9-1.6l5.3,3.1l-0.9,1.6L329,604.8z
				 M320.6,599.9l0.9-1.6l5.3,3.1L326,603L320.6,599.9z M312.3,595.1l0.9-1.6l5.3,3.1l-0.9,1.6L312.3,595.1z M303.9,590.3l0.9-1.6
				l5.3,3.1l-0.9,1.6L303.9,590.3z M295.6,585.5l0.9-1.6l5.3,3.1l-0.9,1.6L295.6,585.5z M287.2,580.6l0.9-1.6l5.3,3.1l-0.9,1.6
				L287.2,580.6z M278.9,575.8l0.9-1.6l5.3,3.1l-0.9,1.6L278.9,575.8z M270.5,571l0.9-1.6l5.3,3.1l-0.9,1.6L270.5,571z M262.1,566.2
				l0.9-1.6l5.3,3.1l-0.9,1.6L262.1,566.2z M253.8,561.3l0.9-1.6l5.3,3.1l-0.9,1.6L253.8,561.3z M245.4,556.5l0.9-1.6l5.3,3.1
				l-0.9,1.6L245.4,556.5z M237.1,551.7l0.9-1.6l5.3,3.1l-0.9,1.6L237.1,551.7z M228.7,546.9l0.9-1.6l5.3,3.1l-0.9,1.6L228.7,546.9z
				 M220.4,542l0.9-1.6l5.3,3.1l-0.9,1.6L220.4,542z M212,537.2l0.9-1.6l5.3,3.1l-0.9,1.6L212,537.2z M203.7,532.4l0.9-1.6l5.3,3.1
				l-0.9,1.6L203.7,532.4z M195.3,527.6l0.9-1.6l5.3,3.1l-0.9,1.6L195.3,527.6z M187,522.7l0.9-1.6l5.3,3.1l-0.9,1.6L187,522.7z
				 M178.6,517.9l0.9-1.6l5.3,3.1L184,521L178.6,517.9z M170.3,513.1l0.9-1.6l5.3,3.1l-0.9,1.6L170.3,513.1z M161.9,508.2l0.9-1.6
				l5.3,3.1l-0.9,1.6L161.9,508.2z M153.6,503.4l0.9-1.6l5.3,3.1l-0.9,1.6L153.6,503.4z M145.2,498.6l0.9-1.6l5.3,3.1l-0.9,1.6
				L145.2,498.6z"/>
			<g>
				<g>
					<g>
						<g>
							<g>
								<g>
									<g>
										<path class="st2" d="M674.5,166.7l-3.2,3.3c-0.6,0.6-1.7,0.6-2.2-0.2c-5.7-8.4-8.6-18.5-8.3-28.9
											c0.9-27.1,23.6-48.4,50.7-47.5c1.9,0.1,3.7,0.2,5.6,0.5c22.5,3.3,40.1,22.1,41.8,44.8c0.9,12.3-2.7,24.2-10,33.7
											c-0.5,0.7-1.6,0.7-2.2,0l-3-3.5c-0.4-0.5-0.4-1.2,0-1.7c5.2-7,8-15.6,8.1-24.5c0.1-21.7-16.8-40.1-38.5-41.8
											c-23.9-2-44.4,16.6-45.2,40.3c-0.3,8.5,2,16.7,6.5,23.8C675,165.5,674.9,166.2,674.5,166.7z"/>
									</g>
								</g>
							</g>
							<g>
								<g>
									<g>
										<path class="st2" d="M686,154l-3.8,4c-0.8,0.8-2.1,0.6-2.6-0.4c-2.2-4.7-3.2-9.8-3.1-15c0.5-15.7,12.1-29.1,27.6-31.8
											c4.5-0.8,9.2-0.6,13.7,0.5c15.3,3.7,26,17.8,25.5,33.5c-0.2,5.3-1.6,10.3-4,14.8c-0.5,1-1.9,1.1-2.6,0.3l-3.5-4.2
											c-0.4-0.5-0.5-1.1-0.2-1.7c1.3-3,2.1-6.2,2.2-9.4c0.3-10.5-6-20.2-15.8-24.2c-5.5-2.2-11.6-2.4-17.2-0.6
											c-10,3.3-17,12.6-17.3,23.1c-0.1,3.3,0.4,6.5,1.6,9.6C686.5,152.9,686.4,153.5,686,154z"/>
									</g>
								</g>
							</g>
						</g>
					</g>
				</g>
				<path class="st2" d="M680.8,185.2l0.5-13.7c0-0.9,0.3-4,3-4.9c1.3-0.4,2.5-0.2,3.5,0.3l0.2,0l0.1,0c0.5-1.7,1.7-2.8,3.4-3
					c2-0.3,3.4,0.4,4.3,1c0.9-1.8,2.6-2.7,4.9-2.4c1.7,0.2,3,1.1,3.9,2.2l0.4-11.7c0.1-2.3,0.2-4.6,0.2-6.9c0.3-2.4,2.3-4.3,4.8-4.3
					c1.4,0,2.8,0.7,3.8,1.7c1,1.1,1.1,2.5,1.1,3.9l0,5.6l0,15.5c0.1,0.5-0.2,11.3-0.2,11.3c0.9-0.9,2-1.9,2.9-2.9
					c2.2-2.3,6.2-3.8,8.8-4c1.4-0.1,2.4,0.1,3.1,0.7c0.2,0.2,0.4,0.4,0.6,0.6c1.3,1.4,2.2,3.5,1.3,5.1c-0.4,0.7-1.1,1.1-1.9,1.6
					c-1,0.6-2.7,1.2-4,2.8c-2.2,2.6-7.2,8.4-10.2,11.5c-0.6,0.4-2,1.6-2.6,1.9c-1.9,1.1-3.5,2.2-4,2.8c-0.4,0.5-2.9,1.6-2.9,1.6
					c-2,1.2-5.7,2.2-9.8,2.1c-4.1-0.1-7.9,0-10.6-2.6l-0.1,0l-0.1-0.2c-2.7-2.7-4.4-6.3-4.3-10.3
					C680.7,189.5,680.8,185.8,680.8,185.2z"/>
				<path class="st2" d="M710.3,131.2c6.4,0.2,11.4,5.6,11.2,12c-0.1,3.4-1.3,6.5-3.7,8.5v-4.9c0-1.9-0.7-3.6-1.7-4.9
					c-1.4-1.8-3.7-3-6.2-3c-3.7,0-6.8,2.6-7.7,6c-0.1,0.6-0.2,1.2-0.2,1.8l0,5.1c-2.6-2.2-3.8-5.6-3.7-9.5
					C698.5,136,703.9,131,710.3,131.2z"/>
			</g>
			<path class="st2" d="M1036.2,138.4c0,7.3,4.6,16.2,13.7,26.4c6.6,7.4,13.5,13,13.5,13c0.2,0.1,0.4,0.2,0.7,0.2
				c0.2,0,0.5-0.1,0.7-0.2c1.1-0.9,27.2-22.1,27.2-39.4c0-7.7-4-13.4-10.3-14.9c-6.5-1.5-13.5,1.8-17.5,8.2
				c-4.4-7.3-11.9-9.4-17.4-8.1C1038.9,125.4,1036.2,132.4,1036.2,138.4z"/>
			<path class="st2" d="M503.7,409.6L503.7,409.6c0.4-1.3,1.6-2.1,2.9-2.1h19.9l6.1-18.9c0.4-1.3,1.6-2.1,2.9-2.1s2.5,0.8,2.9,2.1
				l6.1,18.9h19.9c1.3,0,2.5,0.8,2.9,2.1c0.4,1.3,0,2.6-1.1,3.4L550,424.7l6.1,18.9c0.4,1.3,0,2.6-1.1,3.4c-1.1,0.8-2.5,0.8-3.5,0
				l-16.1-11.7l-16.1,11.7c-0.5,0.4-1.1,0.6-1.8,0.6c-0.6,0-1.3-0.2-1.8-0.6c-1.1-0.8-1.5-2.1-1.1-3.4l6.1-18.9L504.8,413
				C503.7,412.2,503.2,410.8,503.7,409.6z"/>
			<path class="st2" d="M188.5,617.5l18.4,35.7c0.2,0.4,0.6,0.7,1,0.7s0.9-0.3,1-0.7l18.4-35.7c3-6.7,2.6-14.4-1.2-20.7
				c-3.7-6.2-9.9-9.9-17-10.2c-0.8,0-1.6,0-2.4,0c-7.1,0.4-13.3,4.1-17,10.2C185.9,603.1,185.5,610.8,188.5,617.5z M198.4,608.1
				c0-5.3,4.3-9.5,9.5-9.5s9.5,4.3,9.5,9.5c0,5.3-4.3,9.5-9.5,9.5S198.4,613.4,198.4,608.1z"/>
			<path class="st2" d="M126.3,409.8c-0.8-0.7-1.9-1-3.1-0.8L92,415.3c-1.8,0.3-3,1.9-3,3.7v26c-0.9-0.3-1.9-0.4-2.9-0.4
				c-5.7,0-10.3,4.6-10.3,10.3c0,5.7,4.6,10.3,10.3,10.3c5.7,0,10.3-4.6,10.3-10.3v-25.3l23.7-4.8v13.6c-0.9-0.3-1.9-0.4-2.9-0.4
				c-5.7,0-10.3,4.6-10.3,10.3c0,5.7,4.6,10.3,10.3,10.3c5.7,0,10.3-4.6,10.3-10.3v-35.7C127.7,411.6,127.2,410.5,126.3,409.8z"/>
			<g>
				<path class="st2" d="M932,366.7c10.8,0,21.1,4.1,29,11.6c1.2,1.2,2,2.8,2,4.5c0,1.7-0.6,3.4-1.8,4.6c-1.2,1.3-2.9,2-4.7,2
					c-1.7,0-3.2-0.6-4.4-1.8c-5.5-5.2-12.6-8-20.1-8c-7.5,0-14.6,2.8-20.1,8c-2.6,2.4-6.6,2.3-9.1-0.3c-1.2-1.3-1.8-2.9-1.8-4.6
					c0-1.7,0.8-3.3,2-4.5C910.9,370.7,921.2,366.7,932,366.7z"/>
				<path class="st2" d="M889.5,360.6c11.5-10.9,26.6-16.9,42.4-16.9c15.9,0,31,6,42.6,17c1.2,1.2,2,2.8,2,4.5
					c0,1.7-0.6,3.4-1.8,4.6c-1.2,1.3-2.9,2-4.7,2c-1.7,0-3.2-0.6-4.4-1.8c-9.1-8.7-21.1-13.5-33.7-13.5c-12.5,0-24.5,4.7-33.6,13.4
					c-2.6,2.4-6.6,2.3-9.1-0.3c-1.2-1.3-1.8-2.9-1.8-4.6C887.5,363.3,888.3,361.7,889.5,360.6z"/>
				<path class="st2" d="M918.4,402.5c0,6.9,5.6,12.5,12.5,12.5c6.9,0,12.5-5.6,12.5-12.5c0-6.9-5.6-12.5-12.5-12.5
					C924,390,918.4,395.6,918.4,402.5z M930.9,402.5C931,402.5,931,402.5,930.9,402.5C931,402.6,930.8,402.6,930.9,402.5
					C930.8,402.5,930.9,402.5,930.9,402.5z"/>
			</g>
			<g>
				<path class="st2" d="M259.5,295.7h52.1v-9.2h-51.4c-20.2-3.2-35.4-21-35.4-41.5c0-2.4,0.2-4.8,0.6-7.3c1.3-7.4,4.5-14.3,9.4-20
					l0.1-0.2c9.8-12.5,24.5-19.7,40.3-19.7c4.4,0,8.7,0.6,12.9,1.6l3.6,0.9l1.6-3.4c8.3-17,25.1-27.5,44-27.5
					c22.8,0,42.8,16.1,47.8,38.3l0.9,3.9l4-0.3c1.1-0.1,2-0.1,2.9-0.1c20.7,0,37.6,16.9,37.6,37.6s-16.9,37.6-37.6,37.6h-42.9v9.2
					h42.9c25.8,0,46.8-21,46.8-46.8c0-25.7-20.8-46.6-46.5-46.8c-3.3-11.2-10-21.3-19.1-28.8c-10.3-8.4-23.3-13-36.6-13
					c-21.2,0-40.2,11.2-50.5,29.4c-3.8-0.7-7.7-1.1-11.6-1.1c-18.7,0-36,8.4-47.5,23.2c-5.9,6.9-9.8,15.3-11.4,24.3
					c-0.5,3-0.8,5.9-0.8,8.8c0,12.3,4.4,24.2,12.5,33.6c8,9.2,19,15.3,31,17.1L259.5,295.7z"/>
				<path class="st2" d="M315.7,309.2h9.6v-43.8h13.3v43.8h9.6c1.4,0,2.3,1.5,1.6,2.8l-16.2,28.1c-0.7,1.2-2.5,1.2-3.2,0L314.1,312
					C313.4,310.8,314.3,309.2,315.7,309.2z"/>
			</g>
			<g>
				<g>
					<path class="st2" d="M1103.4,397.7l33.2,57.5l-33.2,57.5H1037l-33.2-57.5l33.2-57.5H1103.4z M1035.2,394.6l-35,60.6l35,60.6h70
						l35-60.6l-35-60.6H1035.2L1035.2,394.6z"/>
				</g>
				<path class="st2" d="M1037.4,454.9c0,8.3,4.6,15.7,11.7,20.6l1.4,10.6c0.1,0.8,1.1,1.1,1.7,0.6l6.6-6.6c3.2,0.9,6.5,1.4,10,1.4
					c17.4,0,31.5-11.9,31.5-26.5s-14.1-26.5-31.5-26.5C1051.5,428.5,1037.4,440.3,1037.4,454.9z M1083.7,455.7
					c0-2.4,1.9-4.3,4.3-4.3c2.4,0,4.3,1.9,4.3,4.3c0,2.4-1.9,4.3-4.3,4.3C1085.6,460,1083.7,458.1,1083.7,455.7z M1065.9,455.7
					c0-2.4,1.9-4.3,4.3-4.3c2.4,0,4.3,1.9,4.3,4.3c0,2.4-1.9,4.3-4.3,4.3C1067.9,460,1065.9,458.1,1065.9,455.7z M1047.6,455.7
					c0-2.4,1.9-4.3,4.3-4.3c2.4,0,4.3,1.9,4.3,4.3c0,2.4-1.9,4.3-4.3,4.3C1049.5,460,1047.6,458.1,1047.6,455.7z"/>
			</g>
		</g>
	</g>
	<g id="XMLID_41_">
		<path id="XMLID_145_" class="st3" d="M553.3,895.4c0.1,0.1,0.2,0.1,0.3,0.2l468.5-0.2c-0.3,0.5-2.8,5.6-3,6.1
			c-0.2,0.4-0.4,0.7-0.5,0.9c0,0-0.1,0.1-0.1,0.1c-18.5,30.8-41,57.8-66.6,79.8c-7.6,6.5-15.5,12.6-23.6,18.3
			c-7.9,5.4-16.9,8-25.8,8c-14.2,0-28.3-6.7-37.2-19c-1.8-2.5-3.8-4.9-5.8-7.3c-17.5-19.8-43-32.2-71.4-32.2
			c-28.4,0-53.9,12.5-71.4,32.2c-2.1,2.3-4,4.7-5.8,7.3c-9,12.4-22.9,18.9-37.1,18.9c-9.1,0-18.3-2.7-26.4-8.3
			c-7.9-5.5-15.6-11.5-23.1-17.9C596.5,958.6,572.5,929.2,553.3,895.4"/>
		<rect id="XMLID_144_" x="681.9" y="1065.5" class="st4" width="72.7" height="40.8"/>
		<polygon class="st5" points="450.5,875.8 450.5,1131.3 450.5,1131.3 450.5,1190.4 548.5,1190.4 548.5,1131.3 1221.7,1131.3 
			1221.7,1190.4 1319.7,1190.4 1319.7,1131.3 1319.7,1106.3 1319.7,875.8 		"/>
		<rect id="XMLID_142_" x="1294.1" y="875.9" class="st6" width="25.7" height="314.5"/>
		<rect id="XMLID_140_" x="450.5" y="898.1" class="st7" width="10" height="292.4"/>
		<rect id="XMLID_139_" x="522.7" y="875.9" class="st6" width="25.7" height="314.5"/>
		<polygon id="XMLID_138_" class="st6" points="1221.7,898.1 545.6,943.8 549.6,887 		"/>
		<path id="XMLID_137_" class="st8" d="M1206.5,795.8c-2.5-8.1,0.5-35.5,6-70.9c14.4-92.8,46.7-240.7,46.7-240.7
			s178,110.4,165.9,174.7c-28.8,153.6-163.8,152.3-163.8,152.3"/>
		<path id="XMLID_136_" class="st8" d="M871.6,625.2c6.2-5.8,17.5-30.9,30.5-64.3c34.2-87.5,80.8-231.5,80.8-231.5
			s-209.3,5.6-231.2,67.3C699.3,544.1,816.6,611,816.6,611"/>
		<path id="XMLID_135_" class="st9" d="M754.8,583.7c2.8-13,6.2-26,10.3-39c2.4-7.4,4.9-14.8,7.6-22l251.9,149.4l291.9,23.1
			c-1.9,7.4-4,14.8-6.3,22.2c-8.7,27.6-31.1,68.1-48.5,97.4c0,0-34.7,74.3-62.7,74.3c-28,0-96-30.4-96-30.4l-41.3-13.1l-45.4-14.4
			L940.1,807l-133,76.3l-56.2-15c0,0,0.8-135.2-1.3-159.3c-1.3-4.8-2.1-9.4-2.7-13.6c-0.7-4.5-1-8.5-1.3-12
			c-0.4-12.5-0.2-25.1,0.6-37.9C745.8,617.4,747.8,592.4,754.8,583.7C754.7,583.7,754.8,583.7,754.8,583.7"/>
		<path id="XMLID_134_" class="st10" d="M1313.7,648c0,0,5.1-106.7-25.2-173.5c0,0,58,56,53.3,173.7c-4.7,117.7-41.1-14.4-41.1-14.4
			"/>
		<path id="XMLID_132_" class="st10" d="M824.2,453.7c0,0,62.4-86.7,127.6-120.1c0,0-80.2,7.7-149.7,102.8s41.1,14.3,41.1,14.3"/>
		<path id="XMLID_126_" class="st11" d="M772.7,522.8c32.7-87,90.7-155.6,158.8-196c-6.1-4.1-11.4-9.7-15-16.7
			c-11.4-22-2.8-49.2,19.2-60.6c11-5.7,23.3-6.4,34.2-2.9c11,3.5,20.6,11.1,26.3,22.1c4.6,8.9,5.9,18.7,4.4,28
			c23.1-6.6,46.6-10.1,70.2-10.1c-0.8-2.2-1.8-4.4-2.8-6.5c-1.1-2.2-2.3-4.4-3.7-6.6c-19.7-32.3-62.1-59.2-62.1-59.2
			c45.5,3.2,84.4,14.9,117,30.8c-11.2-23.5-25.2-41.9-25.2-41.9c76.2,34.6,121.1,88.5,147.5,136.8c3.4,6.3,6.6,12.5,9.4,18.6
			c2.9,6.1,5.4,12.1,7.7,17.8c0.9,1.6,1.3,2.5,1.3,2.5c4.1-8.5,10.8-15.7,19.7-20.4c11-5.7,23.3-6.4,34.2-2.9
			c11,3.5,20.6,11.1,26.3,22.1c11.4,21.9,2.8,49.2-19.2,60.6c-7,3.6-14.5,5.2-21.8,5c26.5,59,36.7,129.6,26.9,202.5
			c-2.2,16.4-5.4,32.9-9.7,49.4l-294.3-8.1L772.7,522.8z M962.8,268.9c-11.1-3.5-23,2.6-26.5,13.8c-3.5,11.1,2.6,23,13.7,26.5
			c11.1,3.5,23-2.7,26.5-13.8C980,284.3,973.9,272.5,962.8,268.9 M1023.1,349.2c-22.9-5.6-46.8,6.9-55.4,28.8
			c-10.2,26,3.8,54.8,29.9,63c2.7,0.9,5.4,1.4,8.1,1.8c5.3-0.2,10.4-0.9,15.4-2.6c5.9-2,11.4-3.5,16.6-4.5
			c9-5.8,16.2-14.7,19.7-25.7C1065.7,383.7,1050.2,355.7,1023.1,349.2 M1208.3,407.7c-25.1-7.9-51.9,6-59.8,31.1
			c-3.5,11.1-2.8,22.4,1.3,32.4c3.7,3.9,7.3,8.3,11,13.3c3.1,4.2,6.9,7.8,11.1,11c2.4,1.3,5,2.4,7.7,3.2c25.1,7.9,51.9-6,59.8-31.1
			C1247.3,442.4,1233.4,415.7,1208.3,407.7 M1294.2,418.2c11.1,3.5,23-2.7,26.5-13.8c3.5-11.1-2.6-23-13.7-26.5
			c-11.1-3.5-23,2.6-26.5,13.8C1277,402.8,1283.1,414.7,1294.2,418.2"/>
		<path id="XMLID_125_" class="st12" d="M985.7,565.3c-1.3-0.3-2.6-0.7-3.9-1.1c0,0,0,0,0,0c0.1,0,0.2,0.1,0.3,0.1
			C983.2,564.7,984.4,565,985.7,565.3"/>
		<path id="XMLID_124_" class="st12" d="M1121.7,608.5C1121.7,608.6,1121.7,608.6,1121.7,608.5c-1.3-0.4-2.6-0.8-3.8-1.3
			c1.2,0.4,2.3,0.9,3.5,1.2C1121.6,608.5,1121.6,608.5,1121.7,608.5"/>
		<path id="XMLID_123_" class="st13" d="M1021.1,440.2c-5,1.7-10.1,2.4-15.4,2.6c-2.7-0.4-5.4-0.9-8.1-1.8
			c-26.2-8.3-40.2-37-29.9-63c8.6-21.9,32.5-34.4,55.4-28.8c27.1,6.6,42.6,34.6,34.3,60.8c-3.5,11.1-10.6,19.9-19.7,25.7
			C1032.5,436.7,1027,438.2,1021.1,440.2"/>
		<path id="XMLID_122_" class="st13" d="M1179.6,498.6c-2.7-0.9-5.3-1.9-7.7-3.2c-4.2-3.2-8-6.8-11.1-11c-3.6-5-7.3-9.4-11-13.3
			c-4.1-10-4.8-21.3-1.3-32.4c7.9-25.1,34.7-39,59.8-31.1c25.1,7.9,39,34.7,31,59.9C1231.4,492.7,1204.7,506.6,1179.6,498.6"/>
		<path id="XMLID_121_" class="st10" d="M1208.4,470.1c-15.9-2-25.1-18.1-19.5-32.5c3.3-8.6,11.6-14.2,20.8-14.9
			c5.3-0.4,9.7,0.9,13.5,3.1c-5.3-0.3-10.4,3.5-11.1,9.4c-0.5,4.1,1.6,8.2,5.2,10.3c6.1,3.4,13.3,0.3,15.3-5.9
			c0.2-0.8,0.4-1.5,0.4-2.3c2.7,6.4,2.6,13.9-1.2,20.9C1227.3,466.5,1217.8,471.3,1208.4,470.1"/>
		<path id="XMLID_120_" class="st10" d="M1026.4,412.5c-16.5-2-25.8-19.3-18.8-34.1c3.4-7.2,10.6-12,18.5-13.2c6-0.8,10.9,0.6,15,3
			c-5.3-0.3-10.4,3.5-11.1,9.4c-0.5,4.1,1.6,8.2,5.2,10.3c6.1,3.4,13.3,0.3,15.3-5.9c0.2-0.8,0.4-1.5,0.4-2.3
			c2.7,6.4,2.6,14-1.2,20.9C1045.3,408.8,1035.9,413.6,1026.4,412.5"/>
		<path id="XMLID_119_" class="st14" d="M950,309.2c-11.1-3.5-17.3-15.4-13.7-26.5c3.5-11.1,15.4-17.3,26.5-13.8
			c11.1,3.5,17.3,15.4,13.7,26.5C973,306.6,961.1,312.7,950,309.2"/>
		<path id="XMLID_118_" class="st4" d="M1280.5,391.7c-3.5,11.1,2.6,23,13.7,26.5c11.1,3.5,23-2.6,26.5-13.8
			c3.5-11.1-2.6-23-13.7-26.5C1295.9,374.5,1284,380.6,1280.5,391.7"/>
		<path id="XMLID_117_" class="st13" d="M1319.1,670.7c3.1-1.6,7-1,9.4,1.5l0,0l80,78.9c0,0-128.5,170.5-230.1,114.9
			c-98.6-53.9,26.3-136.1,33.7-140.9c0.2-0.1,0.5-0.3,0.7-0.4L1319.1,670.7z"/>
		<path id="XMLID_116_" class="st15" d="M941.7,826.3l54-102.6c-3.7-5.9-4.9-13.4-2.4-20.5c4.3-12.5,17.9-19.1,30.4-14.8
			c12.5,4.3,19.1,17.9,14.7,30.4c-2.5,7.1-8,12.2-14.6,14.6l-20.9,114.1L941.7,826.3z"/>
		<circle class="st15" cx="1015.2" cy="708.9" r="24.5"/>
		<polygon class="st13" points="1022.2,687.1 971.6,729.4 779.2,555.2 790.5,536.8 		"/>
		<rect id="XMLID_115_" x="450.5" y="875.8" class="st6" width="869.2" height="22.2"/>
		
			<ellipse id="XMLID_114_" transform="matrix(0.9449 -0.3274 0.3274 0.9449 -185.6626 267.0647)" class="st16" cx="700.4" cy="685" rx="96.4" ry="126.4"/>
		<g id="XMLID_99_">
			<path id="XMLID_133_" class="st10" d="M1095.9,608.6c-6.7-2.3-11.9-6.5-15.6-11.7c-7.4-8.2-12.6-21.2-9.9-32.5
				c-1.4-0.6-0.5,0.1-1.9-0.5c-2.1-0.8-4.3-1.7-6.5-2.4c-2.2-0.8-4.4-1.5-6.6-2.1c-0.7-0.2-1.3-0.4-2-0.6
				c-5.1,13.8-20.4,21.8-34.6,20.3c-5,0.7-10.2,0.3-15-1.4c-5.6-1.9-10.2-5.2-13.7-9.2c-3.8,11.8-4.2,23.9-1.9,35.1
				c4.5,22.1,19.7,41.1,41.9,48.9c22.2,7.8,45.9,2.4,63.2-12.1c9.3-7.8,16.7-18.2,21.1-30.6c0.1-0.1,0.1-0.3,0.1-0.5
				C1108.4,610.9,1101.8,610.7,1095.9,608.6z"/>
			<path id="XMLID_100_" class="st13" d="M988.7,562.7c-1.7,9.5-1.9,15.3-1.8,24.3c0.1,7,4,12.9,9.9,15l22,7.7
				c8.1,2.8,17.3-2.3,20.5-11.6l13.9-39.7c-4.8,1.7-9.9,3.1-15,4C1022.1,565.3,1004.7,567.7,988.7,562.7z"/>
			<path id="XMLID_141_" class="st13" d="M1070.3,564.4l-13.9,39.7c-3.2,9.2,0.7,19,8.8,21.8l22,7.7c5.9,2.1,12.7-0.1,17.1-5.5
				c5.7-7,10.9-14.8,15.5-23.2c-15.6-6.1-29.5-15.7-40.2-27.9C1076.1,573,1073,568.8,1070.3,564.4z"/>
		</g>
		<rect id="XMLID_98_" x="393.9" y="805.9" class="st17" width="982.3" height="69.9"/>
		<rect id="XMLID_97_" x="393.9" y="805.9" class="st7" width="982.3" height="17"/>
		<rect id="XMLID_1_" x="393.9" y="805.9" class="st18" width="982.3" height="69.9"/>
		
			<ellipse id="XMLID_101_" transform="matrix(0.4381 -0.8989 0.8989 0.4381 -128.5249 1186.4066)" class="st11" cx="884.7" cy="696" rx="121.3" ry="92.7"/>
		<path id="XMLID_95_" class="st10" d="M1030.8,504.7c-2.3-9.1-2.2-19,0.8-28.7c4.1-12.8,27.8-12.9,51.2-6.4c1.8,0.5,3.5,1,5.3,1.6
			c1.8,0.6,3.5,1.2,5.2,1.8c22.8,8.2,42.3,21.9,38.2,34.8c-3.1,9.7-8.6,17.8-15.8,23.9c-13.3,11.4-32,15.9-50,10.3
			C1047.9,536.1,1035.1,521.7,1030.8,504.7"/>
		<path id="XMLID_92_" class="st14" d="M1050.5,559.1c-3,0.9-5.3,1.9-5.3,1.9s-38,10.1-59.5,4.3c-1.2-0.3-2.4-0.7-3.6-1
			c-0.1,0-0.2-0.1-0.3-0.1c-32.6-10.4-54.8-37.2-58-66.1c-1-8.8-0.2-17.8,2.6-26.6c2.3-7.2,5.8-11.6,10.3-14.1
			c19.1-10.7,55.9,12.6,90.2,1c3.8-1.3,7.3-2.3,10.7-3.1c3.9-1.3,8.5-2.2,14.2-2.5c9.2-0.4,20.2,0.9,31.6,3.8
			c2.9,0.7,5.9,1.5,8.8,2.5c2.9,0.9,5.8,2,8.6,3c11,4.2,20.7,9.4,28,15.1c4.5,3.5,7.8,6.9,10.2,10.2c2.3,2.6,4.6,5.5,6.9,8.7
			c21.4,29.3,64.8,31.4,74.3,51.1c2.2,4.7,2.6,10.3,0.3,17.5c-2.8,8.8-7.3,16.6-13.2,23.2c-19.2,21.8-52.8,30.9-85.5,20.7
			c-0.1,0-0.2,0-0.3-0.1c-1.2-0.4-2.4-0.8-3.5-1.2c-21-7.6-46.2-37.8-46.2-37.8s-1.3-2.2-3.2-4.6c-2.1-2.7-5-5.8-7.8-6.6
			C1057.9,557.3,1053.8,558.1,1050.5,559.1 M1115.8,531.6c7.1-6.1,12.7-14.3,15.8-23.9c4.1-12.8-15.4-26.5-38.2-34.8
			c-1.7-0.6-3.5-1.2-5.2-1.8c-1.8-0.6-3.5-1.1-5.3-1.6c-23.4-6.4-47.2-6.4-51.2,6.4c-3.1,9.7-3.2,19.5-0.8,28.7
			c4.3,17,17,31.5,35,37.2C1083.8,547.5,1102.5,543,1115.8,531.6"/>
		<ellipse id="XMLID_91_" class="st10" cx="1300.6" cy="398.1" rx="38.2" ry="38.2"/>
		<path id="XMLID_90_" class="st19" d="M1293.4,422.6c0,0-35.9,176.6-45,184.6c-9.1,8-94.8,24.2-94.8,24.2"/>
		<path id="XMLID_43_" class="st10" d="M1151.2,649.3l70.4-8.7c4.5-0.6,7.8-4.7,7.2-9.2l-3.2-26c-0.6-4.5-4.7-7.8-9.3-7.2l-70.4,8.7
			c-4.5,0.6-7.8,4.7-7.2,9.2l3.2,26C1142.5,646.6,1146.6,649.9,1151.2,649.3z"/>
		<polygon class="st13" points="1022.2,687.1 1035.9,750.1 1228.9,716.6 1269.1,693.9 		"/>
		<g>
			<g>
				<g>
					<path class="st20" d="M713.6,797.1l-63,0l34.7-176.3l-89.8,0l-34.7,176.3l-43,5.8c-8.9,0-36.5,1.4-36.7,10.2l248.2,0h0
						C729.6,804.2,722.5,797.1,713.6,797.1z"/>
				</g>
			</g>
			<g>
				<g>
					<g>
						<g>
							<polygon class="st21" points="545.2,807.7 635,807.7 671.8,620.8 582,620.8 							"/>
						</g>
					</g>
				</g>
			</g>
			<path class="st18" d="M729.3,813.1c0.2-8.8-6.8-16-15.7-16l-63,0l34.7-176.3l-89.8,0v0H582L547,798.9l-29.1,3.9
				c-8.9,0-36.5,1.4-36.7,10.2L729.3,813.1L729.3,813.1z"/>
			<g>
				<linearGradient id="SVGID_1_" gradientUnits="userSpaceOnUse" x1="467.6111" y1="805.0629" x2="715.7986" y2="805.0629">
					<stop  offset="0" style="stop-color:#09005D"/>
					<stop  offset="1" style="stop-color:#1A0F91"/>
				</linearGradient>
				<path class="st22" d="M700.1,797.1l-216,0c-8.9,0-16.3,7.2-16.5,16l248.2,0v0C716,804.2,709,797.1,700.1,797.1z"/>
			</g>
			<g>
				<g>
					<g>
						<g>
							<polygon class="st23" points="604.1,755.8 605.1,756.4 613.5,745.6 612.5,745 							"/>
						</g>
					</g>
				</g>
			</g>
			<g>
				<g>
					<g>
						<g>
							<polygon class="st23" points="603.9,761.9 604.9,762.6 612.4,753.1 611.4,752.5 							"/>
						</g>
					</g>
				</g>
			</g>
			<g>
				<g>
					<path class="st21" d="M847.5,711.5l-30.7-257.6c-1.5-12.2-11.2-22.2-21.7-22.2l-421.6,13.9l-7-0.5c-10.8,0-19.5-3.8-18,8.8
						L384,752.8c1.1,8.9,7.1,16.2,13.4,16.2h446l-0.1-0.6c6,0,10.1-7,9.1-15.5L847.5,711.5z"/>
				</g>
			</g>
			<linearGradient id="SVGID_2_" gradientUnits="userSpaceOnUse" x1="329.693" y1="600.0209" x2="833.4085" y2="600.0209">
				<stop  offset="0" style="stop-color:#09005D"/>
				<stop  offset="1" style="stop-color:#1A0F91"/>
			</linearGradient>
			<path class="st24" d="M828.3,711.5l-30.7-257.6c-1.5-12.2-11.2-22.2-21.7-22.2H346.3c-10.5,0-17.9,9.9-16.4,22.2l30.7,257.6
				l4.9,41.3c1,8.6,6.7,15.5,12.8,15.5h446c6,0,10.1-7,9.1-15.5L828.3,711.5z"/>
			<path class="st25" d="M852.4,752.8l-4.9-41.3l-30.7-257.6c-1.5-12.2-11.2-22.2-21.7-22.2l-15.1,0.5c-1.3-0.3-2.7-0.5-4.1-0.5
				H346.3c-10.5,0-17.9,9.9-16.4,22.2l30.7,257.6l4.9,41.3c1,8.6,6.7,15.5,12.8,15.5h15.9c1.1,0.4,2.2,0.6,3.3,0.6h446l-0.1-0.6
				C849.3,768.3,853.4,761.4,852.4,752.8z"/>
		</g>
		<path class="st26" d="M573.3,564.4c-15.9,6-22.6,27-15.1,46.8c7.5,19.9,26.5,31.1,42.4,25.1c15.9-6,22.6-27,15.1-46.8
			C608.2,569.6,589.2,558.4,573.3,564.4z"/>
		<polygon class="st25" points="450.5,875.8 450.5,1131.3 450.5,1131.3 450.5,1190.4 548.5,1190.4 548.5,1131.3 1221.7,1131.3 
			1221.7,1190.4 1319.7,1190.4 1319.7,1131.3 1319.7,1106.3 1319.7,875.8 		"/>
	</g>
</g>
</svg>
