<?xml version="1.0" encoding="utf-8"?>
<!-- Generator: Adobe Illustrator 25.2.0, SVG Export Plug-In . SVG Version: 6.00 Build 0)  -->
<svg version="1.1" id="Graphic_Elements" xmlns="http://www.w3.org/2000/svg" xmlns:xlink="http://www.w3.org/1999/xlink" x="0px"
	 y="0px" viewBox="0 0 144.4 144.4" style="enable-background:new 0 0 144.4 144.4;" xml:space="preserve">
<style type="text/css">
	.st0{fill:#FDBC2B;}
	.st1{fill-rule:evenodd;clip-rule:evenodd;fill:#FFFFFF;}
</style>
<g>
	<circle class="st0" cx="72.2" cy="72.2" r="67.5"/>
	<g id="WA_Logo_10_">
		<g>
			<path class="st1" d="M104.7,40.6C96.6,32.5,85.8,28,74.4,28c-23.6,0-42.8,19.2-42.8,42.8c0,7.5,2,14.9,5.7,21.4l-6.1,22.2l22.7-6
				c6.3,3.4,13.3,5.2,20.5,5.2h0c23.6,0,42.8-19.2,42.8-42.8C117.2,59.4,112.8,48.7,104.7,40.6z M74.4,106.4L74.4,106.4
				c-6.4,0-12.7-1.7-18.1-5l-1.3-0.8l-13.5,3.5l3.6-13.1l-0.8-1.3c-3.6-5.7-5.4-12.2-5.4-18.9c0-19.6,16-35.6,35.6-35.6
				c9.5,0,18.4,3.7,25.2,10.4c6.7,6.7,10.4,15.7,10.4,25.2C110,90.5,94,106.4,74.4,106.4z M93.9,79.8c-1.1-0.5-6.3-3.1-7.3-3.5
				c-1-0.4-1.7-0.5-2.4,0.5c-0.7,1.1-2.8,3.5-3.4,4.2c-0.6,0.7-1.2,0.8-2.3,0.3c-1.1-0.5-4.5-1.7-8.6-5.3c-3.2-2.8-5.3-6.3-6-7.4
				c-0.6-1.1-0.1-1.6,0.5-2.2c0.5-0.5,1.1-1.2,1.6-1.9c0.5-0.6,0.7-1.1,1.1-1.8c0.4-0.7,0.2-1.3-0.1-1.9c-0.3-0.5-2.4-5.8-3.3-7.9
				c-0.9-2.1-1.8-1.8-2.4-1.8c-0.6,0-1.3,0-2.1,0c-0.7,0-1.9,0.3-2.9,1.3c-1,1.1-3.7,3.7-3.7,8.9c0,5.3,3.8,10.4,4.4,11.1
				c0.5,0.7,7.5,11.5,18.3,16.2c2.6,1.1,4.5,1.8,6.1,2.3c2.6,0.8,4.9,0.7,6.7,0.4c2.1-0.3,6.3-2.6,7.2-5.1c0.9-2.5,0.9-4.6,0.6-5.1
				C95.7,80.6,95,80.3,93.9,79.8z"/>
		</g>
	</g>
</g>
</svg>
