<svg id="Isolation_Mode" data-name="Isolation Mode" xmlns="http://www.w3.org/2000/svg" viewBox="0 0 144.36 141.41"><defs><style>.cls-1{fill:#fdbc2b;}.cls-2,.cls-3{fill-rule:evenodd;}.cls-3{fill:#fff;}</style></defs><circle cx="74.86" cy="71.91" r="67.5"/><path d="M74.86,141.41a69.5,69.5,0,1,1,69.5-69.5A69.58,69.58,0,0,1,74.86,141.41Zm0-135a65.5,65.5,0,1,0,65.5,65.5A65.57,65.57,0,0,0,74.86,6.41Z"/><circle class="cls-1" cx="68.5" cy="68.5" r="67.5"/><path d="M68.5,137A68.5,68.5,0,1,1,137,68.5,68.58,68.58,0,0,1,68.5,137Zm0-135A66.5,66.5,0,1,0,135,68.5,66.57,66.57,0,0,0,68.5,2Z"/><g id="WA_Logo" data-name="WA Logo"><path class="cls-2" d="M105,40.86a42.83,42.83,0,0,0-67.4,51.65L31.5,114.69l22.7-6A42.76,42.76,0,0,0,74.66,114h0A42.82,42.82,0,0,0,105,40.86ZM74.68,106.72h0a35.56,35.56,0,0,1-18.12-5l-1.3-.77-13.47,3.53,3.6-13.13-.85-1.34a35.59,35.59,0,1,1,30.15,16.67ZM94.2,80.07c-1.07-.53-6.33-3.12-7.31-3.48s-1.69-.53-2.41.54-2.76,3.48-3.38,4.19-1.25.81-2.32.27a29,29,0,0,1-8.61-5.31,32.28,32.28,0,0,1-6-7.41c-.62-1.07-.06-1.65.47-2.18s1.07-1.25,1.61-1.87A7.58,7.58,0,0,0,67.37,63a2,2,0,0,0-.09-1.87c-.27-.54-2.41-5.8-3.3-7.94s-1.75-1.81-2.41-1.84-1.34,0-2,0a3.94,3.94,0,0,0-2.85,1.34,12,12,0,0,0-3.75,8.92c0,5.27,3.84,10.35,4.37,11.07s7.55,11.52,18.28,16.15a60.33,60.33,0,0,0,6.1,2.25,14.67,14.67,0,0,0,6.74.43c2-.31,6.33-2.59,7.22-5.09s.89-4.64.62-5.09S95.27,80.61,94.2,80.07Z"/><path d="M28.66,117.51l6.77-24.73A44.82,44.82,0,1,1,54,110.87Zm25.8-10.91.7.38a40.82,40.82,0,0,0,48.39-64.71h0A40.82,40.82,0,0,0,39.31,91.51l.41.72-5.38,19.65Zm20.22,2.12h0a37.47,37.47,0,0,1-19.14-5.24l-.58-.34-16,4.2,4.28-15.63-.38-.6a37.59,37.59,0,1,1,31.84,17.61ZM55.55,98.84l2,1.2a33.53,33.53,0,0,0,17.1,4.68v0A33.58,33.58,0,1,0,46.22,89l1.32,2.09-2.92,10.64ZM85.81,93.7A15.62,15.62,0,0,1,81.06,93a65,65,0,0,1-6.28-2.32C65.6,86.69,59,78.57,55.84,74.08l-.15-.21C54.25,72,50.92,66.93,50.92,61.6A13.79,13.79,0,0,1,55,51.54l.19-.21a5.93,5.93,0,0,1,4.33-2c.75,0,1.5,0,2.15,0h.13c1.32,0,2.89.34,4,3.07.3.71.73,1.76,1.19,2.87.75,1.83,1.88,4.59,2.06,5a3.92,3.92,0,0,1,.08,3.66l-.14.29a8,8,0,0,1-1.2,1.9l-.52.63c-.39.47-.8,1-1.19,1.36h0a30.05,30.05,0,0,0,5.4,6.68,25.67,25.67,0,0,0,7.37,4.65l.8.36.07,0c.94-1.08,2.54-3,3.08-3.81a3.64,3.64,0,0,1,4.76-1.3c1.24.45,7.46,3.54,7.52,3.57l.56.27A4.75,4.75,0,0,1,98,80.3c.85,1.41.36,4.5-.46,6.78-1.25,3.52-6.4,6-8.81,6.39A19.48,19.48,0,0,1,85.81,93.7ZM59.52,53.34a1.92,1.92,0,0,0-1.38.69l-.22.24a9.83,9.83,0,0,0-3,7.33c0,4.25,3,8.62,4,9.86l.24.33C62,75.93,68.09,83.41,76.36,87a62.4,62.4,0,0,0,5.91,2.19,12.91,12.91,0,0,0,5.84.35c1.62-.24,5.09-2.24,5.64-3.78a10.68,10.68,0,0,0,.66-3.34l-.49-.24-.61-.3c-1.81-.9-6.36-3.11-7.1-3.39L86,78.41c-1,1.44-3.4,4.2-3.43,4.23a3.6,3.6,0,0,1-4.72.74l-.6-.27a29.69,29.69,0,0,1-8.44-5.33,34.45,34.45,0,0,1-6.35-7.9,3.53,3.53,0,0,1,.79-4.61c.25-.25.59-.66.92-1.06.19-.24.39-.48.58-.69a4.25,4.25,0,0,0,.64-1.06l.13-.27-.06-.14c-.19-.38-.84-2-2.18-5.21L62.13,54a3.75,3.75,0,0,0-.31-.6h-.35C60.88,53.35,60.2,53.34,59.52,53.34ZM94.73,82.58Z"/></g><g id="WA_Logo-2" data-name="WA Logo"><path class="cls-3" d="M101,36.86a42.83,42.83,0,0,0-67.4,51.65L27.5,110.69l22.7-6A42.76,42.76,0,0,0,70.66,110h0A42.82,42.82,0,0,0,101,36.86ZM70.68,102.72h0a35.56,35.56,0,0,1-18.12-5L51.25,97l-13.47,3.53,3.6-13.13-.85-1.34a35.59,35.59,0,1,1,30.15,16.67ZM90.2,76.07c-1.07-.53-6.33-3.12-7.31-3.48s-1.69-.53-2.41.54-2.76,3.48-3.38,4.19-1.25.81-2.32.27a29,29,0,0,1-8.61-5.31,32.28,32.28,0,0,1-6-7.41c-.62-1.07-.06-1.65.47-2.18s1.07-1.25,1.61-1.87A7.58,7.58,0,0,0,63.37,59a2,2,0,0,0-.09-1.87c-.27-.54-2.41-5.8-3.3-7.94s-1.75-1.81-2.41-1.84-1.34,0-2,0a3.94,3.94,0,0,0-2.85,1.34,12,12,0,0,0-3.75,8.92c0,5.27,3.84,10.35,4.37,11.07s7.55,11.52,18.28,16.15a60.33,60.33,0,0,0,6.1,2.25,14.67,14.67,0,0,0,6.74.43c2-.31,6.33-2.59,7.22-5.09s.89-4.64.62-5.09S91.27,76.61,90.2,76.07Z"/><path d="M26.08,112.1,32.5,88.65a43.79,43.79,0,1,1,17.57,17.16Zm44.6-86.79A41.83,41.83,0,0,0,34.44,88l.21.36-5.73,20.92,21.41-5.62.35.19a41.82,41.82,0,0,0,49.58-66.29h0A41.54,41.54,0,0,0,70.68,25.31Zm0,78.41h0A36.56,36.56,0,0,1,52,98.62l-.94-.56-14.74,3.87L40.3,87.55l-.62-1a36.59,36.59,0,1,1,31,17.14ZM51.4,95.92l1.66,1a34.53,34.53,0,0,0,17.61,4.82v0a34.58,34.58,0,1,0-29.3-16.2l1.08,1.71L39.2,99.12ZM81.81,88.7A14.7,14.7,0,0,1,77.37,88a63.05,63.05,0,0,1-6.2-2.29c-9-3.87-15.44-11.83-18.51-16.23l-.17-.24c-1.38-1.84-4.57-6.64-4.57-11.67a12.88,12.88,0,0,1,3.81-9.38l.2-.21a4.88,4.88,0,0,1,3.59-1.67c.73,0,1.46,0,2.1,0h.22c1.06,0,2.17.31,3.06,2.45.3.71.73,1.76,1.18,2.87.82,2,1.93,4.69,2.09,5a3,3,0,0,1,.09,2.77l-.15.3a7.3,7.3,0,0,1-1,1.69c-.18.2-.36.42-.54.64-.38.46-.77.93-1.12,1.29-.54.54-.54.59-.31,1a31.28,31.28,0,0,0,5.75,7.17,26.71,26.71,0,0,0,7.63,4.82c.31.13.57.24.76.34.75.38.86.26,1.11,0,.77-.88,2.67-3.14,3.31-4.09,1.19-1.79,2.69-1.25,3.58-.92,1.1.39,6.67,3.14,7.42,3.52l.57.28a4,4,0,0,1,1.89,1.35c.56.93.32,3.53-.54,5.94-1.06,3-5.79,5.4-8,5.73A17.35,17.35,0,0,1,81.81,88.7ZM55.52,48.34a3,3,0,0,0-2.12,1l-.21.23a10.86,10.86,0,0,0-3.27,8c0,4.55,3.19,9.16,4.16,10.46l.22.3c3,4.23,9.17,11.87,17.66,15.54a59.89,59.89,0,0,0,6,2.22,13.7,13.7,0,0,0,6.29.39c1.93-.29,5.73-2.48,6.43-4.44a9.47,9.47,0,0,0,.67-4.31c-.06,0-.58-.29-1-.5l-.6-.29c-1.38-.69-6.34-3.12-7.2-3.44s-.94-.28-1.23.15c-.77,1.16-2.93,3.69-3.47,4.3a2.65,2.65,0,0,1-3.52.51c-.16-.09-.38-.18-.66-.3A28.64,28.64,0,0,1,65.51,73a33.11,33.11,0,0,1-6.15-7.65A2.53,2.53,0,0,1,60,62c.28-.28.64-.72,1-1.14.19-.23.38-.46.57-.67a5.49,5.49,0,0,0,.78-1.27l.15-.32c.13-.25.15-.49-.09-1s-1-2.27-2.15-5.14c-.45-1.1-.88-2.15-1.18-2.86-.51-1.22-.82-1.23-1.23-1.22h-.3C56.91,48.35,56.22,48.34,55.52,48.34Z"/></g></svg>