<?xml version="1.0" encoding="utf-8"?>
<!-- Generator: Adobe Illustrator 25.2.0, SVG Export Plug-In . SVG Version: 6.00 Build 0)  -->
<svg version="1.1" id="Layer_1" xmlns="http://www.w3.org/2000/svg" xmlns:xlink="http://www.w3.org/1999/xlink" x="0px" y="0px"
	 viewBox="0 0 800 800" style="enable-background:new 0 0 800 800;" xml:space="preserve">
<style type="text/css">
	.st0{fill:#FDBC2B;}
	.st1{fill:#E5E5E5;}
	.st2{fill:#FFFFFF;}
	.st3{fill:#D19620;}
</style>
<path class="st0" d="M406,10.1c-214,0-387.5,173.5-387.5,387.5c0,83,26.1,159.9,70.5,222.9L18.5,785.1l158-75.2
	c64.2,47.3,143.6,75.2,229.5,75.2c214,0,387.5-173.5,387.5-387.5S620,10.1,406,10.1z"/>
<circle class="st1" cx="400" cy="400" r="320.7"/>
<circle class="st2" cx="400" cy="400" r="280.6"/>
<path class="st0" d="M588.4,473l-94.5-18.9l-44.8,44.8c-75.8-32.1-115.9-72.2-151.2-151.2l44.8-44.8l-18.9-94.5l-65.1-12
	c-14.2,3.2-27.8,10.4-38.9,21.5c-21.6,21.6-24.6,51.5-20.1,79.7c10,63.7,41,148.9,95.3,203.4l0,0c0.1,0.1,0.3,0.3,0.4,0.4
	c0.1,0.1,0.3,0.3,0.4,0.4l0,0c54.5,54.3,139.7,85.3,203.4,95.3c28.1,4.4,58.1,1.4,79.7-20.1c11.1-11.1,18.2-24.6,21.5-38.9
	L588.4,473z"/>
<path class="st3" d="M526,571.9c-63.7-10-148.9-41-203.4-95.3l0,0c-0.1-0.1-0.3-0.3-0.4-0.4c-0.1-0.1-0.3-0.3-0.4-0.4l0,0
	c-54.3-54.5-85.3-139.7-95.3-203.4c-3.6-23.2-2.3-47.5,10.3-67.4c-6.1,3.5-11.8,7.7-16.9,12.9c-21.6,21.6-24.6,51.5-20.1,79.7
	c10,63.7,41,148.8,95.3,203.4l0,0c0.1,0.1,0.3,0.3,0.4,0.4c0.1,0.1,0.3,0.3,0.4,0.4l0,0c54.5,54.3,139.7,85.3,203.4,95.3
	c28.1,4.4,58.1,1.4,79.7-20.1c4-4,7.5-8.4,10.5-13C570.4,574.4,547.7,575.3,526,571.9z"/>
<path d="M682.8,117.2C607.3,41.6,506.8,0,400,0S192.7,41.6,117.2,117.2S0,293.2,0,400c0,80.6,23.8,158,68.8,224.3L1,782.5
	c-4.4,10.4,6.7,21.1,16.9,16.2l151.3-72.1C237,774.7,316.6,800,400,800c106.8,0,207.3-41.6,282.8-117.2
	C758.4,607.3,800,506.8,800,400S758.4,192.7,682.8,117.2z M400,774.9c-80.6,0-157.3-25.2-222-72.8c-3.7-2.7-8.7-3.2-12.8-1.2
	l-128,61l57.4-134c1.7-4,1.2-8.6-1.3-12.1C48.6,552.3,25.1,477.8,25.1,400C25.1,193.3,193.3,25.1,400,25.1S774.9,193.3,774.9,400
	S606.7,774.9,400,774.9z"/>
<path d="M620.4,150.1c-5.2-4.6-13.1-4.1-17.7,1.1c-4.6,5.2-4.1,13.1,1.1,17.7c66.3,58.5,104.3,142.8,104.3,231.1
	c0,169.9-138.2,308.1-308.1,308.1C230.1,708.1,91.9,569.9,91.9,400S230.1,91.9,400,91.9c54.2,0,107.5,14.3,154.1,41.2
	c6,3.5,13.7,1.4,17.1-4.6c3.5-6,1.4-13.6-4.6-17.1c-50.4-29.2-108-44.6-166.6-44.6C216.3,66.8,66.8,216.3,66.8,400
	S216.3,733.2,400,733.2S733.2,583.7,733.2,400C733.2,304.5,692.1,213.4,620.4,150.1z"/>
<path d="M485.1,445.3l-38.8,38.8c-65.4-29.2-101.5-65.4-133.3-133.6l38.7-38.7c3-3,4.2-7.2,3.4-11.3L336.2,206c-1-5-5-8.9-10-9.9
	l-65.1-12c-1.7-0.3-3.4-0.3-5,0.1c-17,3.9-32.6,12.5-44.9,24.8c-21.4,21.4-29.6,52.7-23.6,90.5c5.4,34.4,16.3,71.9,30.7,105.4
	c2.7,6.4,10.1,9.3,16.5,6.6c6.4-2.7,9.3-10.1,6.6-16.5c-13.6-31.7-23.9-67-29-99.4c-4.7-30,0.9-53.1,16.6-68.9
	c8.4-8.4,18.9-14.5,30.4-17.5l54.1,10l15.9,79.6l-40.1,40.1c-3.7,3.7-4.7,9.2-2.6,14c36.4,81.6,79.2,124.3,157.7,157.6
	c4.7,2,10.1,0.9,13.7-2.7l40.1-40.1l79.6,15.9l10,54.1c-3.1,11.5-9.1,21.9-17.5,30.4c-15.7,15.7-38.9,21.3-68.9,16.6
	c-59.9-9.4-142.9-38.5-196.5-91.8l-0.8-0.8c-14.5-14.6-28.1-32.3-40.2-52.6c-3.5-5.9-11.2-7.9-17.2-4.3c-5.9,3.6-7.9,11.2-4.3,17.2
	c13.2,22.1,28,41.4,44,57.5l0.8,0.8c57.8,57.6,146.5,88.8,210.3,98.8c25.4,4,52.7,2.1,75.1-11.6c5.6-3.4,10.7-7.5,15.3-12.1
	c12.4-12.4,21-27.9,24.8-44.9c0.4-1.7,0.4-3.4,0.1-5l-12-65.1c-0.9-5-4.8-9-9.9-10l-94.5-18.9C492.3,441,488,442.3,485.1,445.3z"/>
</svg>
